G04 #@! TF.FileFunction,Copper,L1,Top,Signal*
%FSLAX46Y46*%
G04 Gerber Fmt 4.6, Leading zero omitted, Abs format (unit mm)*
G04 Created by KiCad (PCBNEW 4.0.2-4+6225~38~ubuntu14.04.1-stable) date Thu 05 Jan 2017 08:50:19 PM CET*
%MOMM*%
G01*
G04 APERTURE LIST*
%ADD10C,0.100000*%
%ADD11C,1.524000*%
%ADD12R,1.220000X0.910000*%
%ADD13R,0.900000X0.800000*%
%ADD14R,0.700000X1.300000*%
%ADD15R,1.300000X0.700000*%
%ADD16R,3.000000X2.000000*%
%ADD17C,1.501140*%
%ADD18R,1.700000X1.700000*%
%ADD19O,1.700000X1.700000*%
%ADD20C,0.609600*%
%ADD21C,1.219200*%
%ADD22C,0.254000*%
G04 APERTURE END LIST*
D10*
D11*
X86730000Y-91577000D03*
X86730000Y-99177000D03*
X66730000Y-99177000D03*
X63230000Y-91577000D03*
X78475000Y-77480000D03*
X78475000Y-85080000D03*
X58475000Y-85080000D03*
X54975000Y-77480000D03*
X82285000Y-63383000D03*
X82285000Y-70983000D03*
X62285000Y-70983000D03*
X58785000Y-63383000D03*
D12*
X88011000Y-68818000D03*
X88011000Y-65548000D03*
X84201000Y-82915000D03*
X84201000Y-79645000D03*
X92202000Y-96250000D03*
X92202000Y-92980000D03*
D13*
X94980000Y-74102000D03*
X94980000Y-72202000D03*
X92980000Y-73152000D03*
X94980000Y-81341000D03*
X94980000Y-79441000D03*
X92980000Y-80391000D03*
X94980000Y-88580000D03*
X94980000Y-86680000D03*
X92980000Y-87630000D03*
D14*
X97729000Y-74168000D03*
X99629000Y-74168000D03*
X97729000Y-81280000D03*
X99629000Y-81280000D03*
X97729000Y-88392000D03*
X99629000Y-88392000D03*
X88712000Y-73152000D03*
X90612000Y-73152000D03*
X88712000Y-80391000D03*
X90612000Y-80391000D03*
D15*
X90678000Y-89596000D03*
X90678000Y-87696000D03*
D16*
X41275000Y-93472000D03*
X41275000Y-98472000D03*
X46275000Y-98472000D03*
X46275000Y-93472000D03*
X41275000Y-64262000D03*
X41275000Y-69262000D03*
X41275000Y-74262000D03*
X41275000Y-79262000D03*
X41275000Y-84262000D03*
X41275000Y-89262000D03*
X46275000Y-89262000D03*
X46275000Y-84262000D03*
X46275000Y-79262000D03*
X46275000Y-74262000D03*
X46275000Y-69262000D03*
X46275000Y-64262000D03*
D17*
X53340000Y-94869000D03*
X58420000Y-94879160D03*
D18*
X96520000Y-63500000D03*
D19*
X99060000Y-63500000D03*
X101600000Y-63500000D03*
X104140000Y-63500000D03*
X106680000Y-63500000D03*
X109220000Y-63500000D03*
X111760000Y-63500000D03*
X114300000Y-63500000D03*
D20*
X88011000Y-65548000D02*
X90059000Y-65548000D01*
X88712000Y-71435000D02*
X88712000Y-73152000D01*
X90805000Y-69342000D02*
X88712000Y-71435000D01*
X90805000Y-66294000D02*
X90805000Y-69342000D01*
X90059000Y-65548000D02*
X90805000Y-66294000D01*
X82412000Y-63383000D02*
X87005000Y-63383000D01*
X88011000Y-64389000D02*
X88011000Y-65548000D01*
X87005000Y-63383000D02*
X88011000Y-64389000D01*
X84201000Y-79645000D02*
X87966000Y-79645000D01*
X87966000Y-79645000D02*
X88712000Y-80391000D01*
X78475000Y-77480000D02*
X83068000Y-77480000D01*
X84201000Y-78613000D02*
X84201000Y-79645000D01*
X83068000Y-77480000D02*
X84201000Y-78613000D01*
X90678000Y-89596000D02*
X88697000Y-91577000D01*
X88697000Y-91577000D02*
X86730000Y-91577000D01*
X86730000Y-91577000D02*
X90799000Y-91577000D01*
X90799000Y-91577000D02*
X92202000Y-92980000D01*
X99060000Y-73599000D02*
X99629000Y-74168000D01*
X99060000Y-63500000D02*
X99060000Y-73599000D01*
X101600000Y-79629000D02*
X99949000Y-81280000D01*
X99949000Y-81280000D02*
X99629000Y-81280000D01*
X101600000Y-63500000D02*
X101600000Y-79629000D01*
X100838000Y-88392000D02*
X99629000Y-88392000D01*
X104140000Y-85090000D02*
X100838000Y-88392000D01*
X104140000Y-63500000D02*
X104140000Y-85090000D01*
D21*
X54975000Y-77480000D02*
X54975000Y-77740000D01*
D20*
X90612000Y-73152000D02*
X92980000Y-73152000D01*
X90612000Y-80391000D02*
X92980000Y-80391000D01*
X92980000Y-87630000D02*
X92914000Y-87696000D01*
X92914000Y-87696000D02*
X90678000Y-87696000D01*
X92853000Y-87757000D02*
X92980000Y-87630000D01*
X86730000Y-99177000D02*
X89275000Y-99177000D01*
X89275000Y-99177000D02*
X92202000Y-96250000D01*
X84201000Y-82915000D02*
X84201000Y-83312000D01*
X84201000Y-83312000D02*
X82433000Y-85080000D01*
X82433000Y-85080000D02*
X78475000Y-85080000D01*
X88011000Y-68818000D02*
X88011000Y-69977000D01*
X87005000Y-70983000D02*
X82412000Y-70983000D01*
X88011000Y-69977000D02*
X87005000Y-70983000D01*
X94980000Y-74102000D02*
X97663000Y-74102000D01*
X97663000Y-74102000D02*
X97729000Y-74168000D01*
X94980000Y-81341000D02*
X97668000Y-81341000D01*
X97668000Y-81341000D02*
X97729000Y-81280000D01*
X94980000Y-88580000D02*
X97541000Y-88580000D01*
X97541000Y-88580000D02*
X97729000Y-88392000D01*
D21*
X41275000Y-89262000D02*
X38246000Y-89262000D01*
X39036000Y-98472000D02*
X41275000Y-98472000D01*
X36703000Y-96139000D02*
X39036000Y-98472000D01*
X36703000Y-90805000D02*
X36703000Y-96139000D01*
X38246000Y-89262000D02*
X36703000Y-90805000D01*
X41275000Y-79262000D02*
X38594000Y-79262000D01*
X39097000Y-89262000D02*
X41275000Y-89262000D01*
X36703000Y-86868000D02*
X39097000Y-89262000D01*
X36703000Y-81153000D02*
X36703000Y-86868000D01*
X38594000Y-79262000D02*
X36703000Y-81153000D01*
X41275000Y-69262000D02*
X37926000Y-69262000D01*
X38495000Y-79262000D02*
X41275000Y-79262000D01*
X36703000Y-77470000D02*
X38495000Y-79262000D01*
X36703000Y-70485000D02*
X36703000Y-77470000D01*
X37926000Y-69262000D02*
X36703000Y-70485000D01*
X41275000Y-89262000D02*
X46275000Y-89262000D01*
X41275000Y-98472000D02*
X46275000Y-98472000D01*
X41275000Y-79262000D02*
X46275000Y-79262000D01*
X41275000Y-69262000D02*
X46275000Y-69262000D01*
D22*
G36*
X115622000Y-62888680D02*
X115495183Y-62618642D01*
X115066924Y-62228355D01*
X114656890Y-62058524D01*
X114427000Y-62179845D01*
X114427000Y-63373000D01*
X114447000Y-63373000D01*
X114447000Y-63627000D01*
X114427000Y-63627000D01*
X114427000Y-64820155D01*
X114656890Y-64941476D01*
X115066924Y-64771645D01*
X115495183Y-64381358D01*
X115622000Y-64111320D01*
X115622000Y-102489000D01*
X83235800Y-102489000D01*
X83235800Y-99453661D01*
X85332758Y-99453661D01*
X85544990Y-99967303D01*
X85937630Y-100360629D01*
X86450900Y-100573757D01*
X87006661Y-100574242D01*
X87520303Y-100362010D01*
X87765941Y-100116800D01*
X89275000Y-100116800D01*
X89634646Y-100045262D01*
X89939539Y-99841539D01*
X92428638Y-97352440D01*
X92812000Y-97352440D01*
X93047317Y-97308162D01*
X93263441Y-97169090D01*
X93408431Y-96956890D01*
X93459440Y-96705000D01*
X93459440Y-95795000D01*
X93415162Y-95559683D01*
X93276090Y-95343559D01*
X93063890Y-95198569D01*
X92812000Y-95147560D01*
X91592000Y-95147560D01*
X91356683Y-95191838D01*
X91140559Y-95330910D01*
X90995569Y-95543110D01*
X90944560Y-95795000D01*
X90944560Y-96178362D01*
X88885722Y-98237200D01*
X87765774Y-98237200D01*
X87522370Y-97993371D01*
X87009100Y-97780243D01*
X86453339Y-97779758D01*
X85939697Y-97991990D01*
X85546371Y-98384630D01*
X85333243Y-98897900D01*
X85332758Y-99453661D01*
X83235800Y-99453661D01*
X83235800Y-89204800D01*
X83225794Y-89155390D01*
X83197353Y-89113765D01*
X83154959Y-89086485D01*
X83108800Y-89077800D01*
X76327000Y-89077800D01*
X76327000Y-85356661D01*
X77077758Y-85356661D01*
X77289990Y-85870303D01*
X77682630Y-86263629D01*
X78195900Y-86476757D01*
X78751661Y-86477242D01*
X79265303Y-86265010D01*
X79376817Y-86153690D01*
X93895000Y-86153690D01*
X93895000Y-86394250D01*
X94053750Y-86553000D01*
X94853000Y-86553000D01*
X94853000Y-85803750D01*
X95107000Y-85803750D01*
X95107000Y-86553000D01*
X95906250Y-86553000D01*
X96065000Y-86394250D01*
X96065000Y-86153690D01*
X95968327Y-85920301D01*
X95789698Y-85741673D01*
X95556309Y-85645000D01*
X95265750Y-85645000D01*
X95107000Y-85803750D01*
X94853000Y-85803750D01*
X94694250Y-85645000D01*
X94403691Y-85645000D01*
X94170302Y-85741673D01*
X93991673Y-85920301D01*
X93895000Y-86153690D01*
X79376817Y-86153690D01*
X79510941Y-86019800D01*
X82433000Y-86019800D01*
X82792646Y-85948262D01*
X83097539Y-85744539D01*
X84827799Y-84014279D01*
X85046317Y-83973162D01*
X85262441Y-83834090D01*
X85407431Y-83621890D01*
X85458440Y-83370000D01*
X85458440Y-82460000D01*
X85414162Y-82224683D01*
X85275090Y-82008559D01*
X85062890Y-81863569D01*
X84811000Y-81812560D01*
X83591000Y-81812560D01*
X83355683Y-81856838D01*
X83139559Y-81995910D01*
X82994569Y-82208110D01*
X82943560Y-82460000D01*
X82943560Y-83240362D01*
X82043722Y-84140200D01*
X79510774Y-84140200D01*
X79267370Y-83896371D01*
X78754100Y-83683243D01*
X78198339Y-83682758D01*
X77684697Y-83894990D01*
X77291371Y-84287630D01*
X77078243Y-84800900D01*
X77077758Y-85356661D01*
X76327000Y-85356661D01*
X76327000Y-77756661D01*
X77077758Y-77756661D01*
X77289990Y-78270303D01*
X77682630Y-78663629D01*
X78195900Y-78876757D01*
X78751661Y-78877242D01*
X79265303Y-78665010D01*
X79510941Y-78419800D01*
X82678722Y-78419800D01*
X83076752Y-78817830D01*
X82994569Y-78938110D01*
X82943560Y-79190000D01*
X82943560Y-80100000D01*
X82987838Y-80335317D01*
X83126910Y-80551441D01*
X83339110Y-80696431D01*
X83591000Y-80747440D01*
X84811000Y-80747440D01*
X85046317Y-80703162D01*
X85230257Y-80584800D01*
X87576722Y-80584800D01*
X87714560Y-80722638D01*
X87714560Y-81041000D01*
X87758838Y-81276317D01*
X87897910Y-81492441D01*
X88110110Y-81637431D01*
X88362000Y-81688440D01*
X89062000Y-81688440D01*
X89297317Y-81644162D01*
X89513441Y-81505090D01*
X89658431Y-81292890D01*
X89661081Y-81279803D01*
X89797910Y-81492441D01*
X90010110Y-81637431D01*
X90262000Y-81688440D01*
X90962000Y-81688440D01*
X91197317Y-81644162D01*
X91413441Y-81505090D01*
X91532528Y-81330800D01*
X92195228Y-81330800D01*
X92278110Y-81387431D01*
X92530000Y-81438440D01*
X93430000Y-81438440D01*
X93665317Y-81394162D01*
X93881441Y-81255090D01*
X93882560Y-81253452D01*
X93882560Y-81741000D01*
X93926838Y-81976317D01*
X94065910Y-82192441D01*
X94278110Y-82337431D01*
X94530000Y-82388440D01*
X95430000Y-82388440D01*
X95665317Y-82344162D01*
X95763784Y-82280800D01*
X96850149Y-82280800D01*
X96914910Y-82381441D01*
X97127110Y-82526431D01*
X97379000Y-82577440D01*
X98079000Y-82577440D01*
X98314317Y-82533162D01*
X98530441Y-82394090D01*
X98675431Y-82181890D01*
X98678081Y-82168803D01*
X98814910Y-82381441D01*
X99027110Y-82526431D01*
X99279000Y-82577440D01*
X99979000Y-82577440D01*
X100214317Y-82533162D01*
X100430441Y-82394090D01*
X100575431Y-82181890D01*
X100626024Y-81932054D01*
X102264539Y-80293539D01*
X102468262Y-79988646D01*
X102539800Y-79629000D01*
X102539800Y-64652816D01*
X102650054Y-64579147D01*
X102870000Y-64249974D01*
X103089946Y-64579147D01*
X103200200Y-64652816D01*
X103200200Y-84700722D01*
X100508583Y-87392339D01*
X100443090Y-87290559D01*
X100230890Y-87145569D01*
X99979000Y-87094560D01*
X99279000Y-87094560D01*
X99043683Y-87138838D01*
X98827559Y-87277910D01*
X98682569Y-87490110D01*
X98679919Y-87503197D01*
X98543090Y-87290559D01*
X98330890Y-87145569D01*
X98079000Y-87094560D01*
X97379000Y-87094560D01*
X97143683Y-87138838D01*
X96927559Y-87277910D01*
X96782569Y-87490110D01*
X96752175Y-87640200D01*
X95764772Y-87640200D01*
X95754250Y-87633010D01*
X95789698Y-87618327D01*
X95968327Y-87439699D01*
X96065000Y-87206310D01*
X96065000Y-86965750D01*
X95906250Y-86807000D01*
X95107000Y-86807000D01*
X95107000Y-86827000D01*
X94853000Y-86827000D01*
X94853000Y-86807000D01*
X94053750Y-86807000D01*
X93967738Y-86893012D01*
X93894090Y-86778559D01*
X93681890Y-86633569D01*
X93430000Y-86582560D01*
X92530000Y-86582560D01*
X92294683Y-86626838D01*
X92093649Y-86756200D01*
X91589595Y-86756200D01*
X91579890Y-86749569D01*
X91328000Y-86698560D01*
X90028000Y-86698560D01*
X89792683Y-86742838D01*
X89576559Y-86881910D01*
X89431569Y-87094110D01*
X89380560Y-87346000D01*
X89380560Y-88046000D01*
X89424838Y-88281317D01*
X89563910Y-88497441D01*
X89776110Y-88642431D01*
X89789197Y-88645081D01*
X89576559Y-88781910D01*
X89431569Y-88994110D01*
X89380560Y-89246000D01*
X89380560Y-89564362D01*
X88307722Y-90637200D01*
X87765774Y-90637200D01*
X87522370Y-90393371D01*
X87009100Y-90180243D01*
X86453339Y-90179758D01*
X85939697Y-90391990D01*
X85546371Y-90784630D01*
X85333243Y-91297900D01*
X85332758Y-91853661D01*
X85544990Y-92367303D01*
X85937630Y-92760629D01*
X86450900Y-92973757D01*
X87006661Y-92974242D01*
X87520303Y-92762010D01*
X87765941Y-92516800D01*
X90409722Y-92516800D01*
X90944560Y-93051638D01*
X90944560Y-93435000D01*
X90988838Y-93670317D01*
X91127910Y-93886441D01*
X91340110Y-94031431D01*
X91592000Y-94082440D01*
X92812000Y-94082440D01*
X93047317Y-94038162D01*
X93263441Y-93899090D01*
X93408431Y-93686890D01*
X93459440Y-93435000D01*
X93459440Y-92525000D01*
X93415162Y-92289683D01*
X93276090Y-92073559D01*
X93063890Y-91928569D01*
X92812000Y-91877560D01*
X92428638Y-91877560D01*
X91463539Y-90912461D01*
X91158646Y-90708738D01*
X90938191Y-90664887D01*
X91009638Y-90593440D01*
X91328000Y-90593440D01*
X91563317Y-90549162D01*
X91779441Y-90410090D01*
X91924431Y-90197890D01*
X91975440Y-89946000D01*
X91975440Y-89246000D01*
X91931162Y-89010683D01*
X91792090Y-88794559D01*
X91579890Y-88649569D01*
X91566803Y-88646919D01*
X91584082Y-88635800D01*
X92324376Y-88635800D01*
X92530000Y-88677440D01*
X92755671Y-88677440D01*
X92853000Y-88696800D01*
X92950329Y-88677440D01*
X93430000Y-88677440D01*
X93665317Y-88633162D01*
X93881441Y-88494090D01*
X93882560Y-88492452D01*
X93882560Y-88980000D01*
X93926838Y-89215317D01*
X94065910Y-89431441D01*
X94278110Y-89576431D01*
X94530000Y-89627440D01*
X95430000Y-89627440D01*
X95665317Y-89583162D01*
X95763784Y-89519800D01*
X96953488Y-89519800D01*
X97127110Y-89638431D01*
X97379000Y-89689440D01*
X98079000Y-89689440D01*
X98314317Y-89645162D01*
X98530441Y-89506090D01*
X98675431Y-89293890D01*
X98678081Y-89280803D01*
X98814910Y-89493441D01*
X99027110Y-89638431D01*
X99279000Y-89689440D01*
X99979000Y-89689440D01*
X100214317Y-89645162D01*
X100430441Y-89506090D01*
X100549528Y-89331800D01*
X100838000Y-89331800D01*
X101197646Y-89260262D01*
X101502539Y-89056539D01*
X104804539Y-85754539D01*
X105008262Y-85449646D01*
X105079800Y-85090000D01*
X105079800Y-64652816D01*
X105190054Y-64579147D01*
X105410000Y-64249974D01*
X105629946Y-64579147D01*
X106111715Y-64901054D01*
X106680000Y-65014093D01*
X107248285Y-64901054D01*
X107730054Y-64579147D01*
X107950000Y-64249974D01*
X108169946Y-64579147D01*
X108651715Y-64901054D01*
X109220000Y-65014093D01*
X109788285Y-64901054D01*
X110270054Y-64579147D01*
X110490000Y-64249974D01*
X110709946Y-64579147D01*
X111191715Y-64901054D01*
X111760000Y-65014093D01*
X112328285Y-64901054D01*
X112810054Y-64579147D01*
X113037702Y-64238447D01*
X113104817Y-64381358D01*
X113533076Y-64771645D01*
X113943110Y-64941476D01*
X114173000Y-64820155D01*
X114173000Y-63627000D01*
X114153000Y-63627000D01*
X114153000Y-63373000D01*
X114173000Y-63373000D01*
X114173000Y-62179845D01*
X113943110Y-62058524D01*
X113533076Y-62228355D01*
X113104817Y-62618642D01*
X113037702Y-62761553D01*
X112810054Y-62420853D01*
X112328285Y-62098946D01*
X111760000Y-61985907D01*
X111191715Y-62098946D01*
X110709946Y-62420853D01*
X110490000Y-62750026D01*
X110270054Y-62420853D01*
X109788285Y-62098946D01*
X109220000Y-61985907D01*
X108651715Y-62098946D01*
X108169946Y-62420853D01*
X107950000Y-62750026D01*
X107730054Y-62420853D01*
X107248285Y-62098946D01*
X106680000Y-61985907D01*
X106111715Y-62098946D01*
X105629946Y-62420853D01*
X105410000Y-62750026D01*
X105190054Y-62420853D01*
X104708285Y-62098946D01*
X104140000Y-61985907D01*
X103571715Y-62098946D01*
X103089946Y-62420853D01*
X102870000Y-62750026D01*
X102650054Y-62420853D01*
X102168285Y-62098946D01*
X101600000Y-61985907D01*
X101031715Y-62098946D01*
X100549946Y-62420853D01*
X100330000Y-62750026D01*
X100110054Y-62420853D01*
X99628285Y-62098946D01*
X99060000Y-61985907D01*
X98491715Y-62098946D01*
X98009946Y-62420853D01*
X97982150Y-62462452D01*
X97973162Y-62414683D01*
X97834090Y-62198559D01*
X97621890Y-62053569D01*
X97370000Y-62002560D01*
X95670000Y-62002560D01*
X95434683Y-62046838D01*
X95218559Y-62185910D01*
X95073569Y-62398110D01*
X95022560Y-62650000D01*
X95022560Y-64350000D01*
X95066838Y-64585317D01*
X95205910Y-64801441D01*
X95418110Y-64946431D01*
X95670000Y-64997440D01*
X97370000Y-64997440D01*
X97605317Y-64953162D01*
X97821441Y-64814090D01*
X97966431Y-64601890D01*
X97980086Y-64534459D01*
X98009946Y-64579147D01*
X98120200Y-64652816D01*
X98120200Y-72878903D01*
X98079000Y-72870560D01*
X97379000Y-72870560D01*
X97143683Y-72914838D01*
X96927559Y-73053910D01*
X96853568Y-73162200D01*
X95764772Y-73162200D01*
X95754250Y-73155010D01*
X95789698Y-73140327D01*
X95968327Y-72961699D01*
X96065000Y-72728310D01*
X96065000Y-72487750D01*
X95906250Y-72329000D01*
X95107000Y-72329000D01*
X95107000Y-72349000D01*
X94853000Y-72349000D01*
X94853000Y-72329000D01*
X94053750Y-72329000D01*
X93967738Y-72415012D01*
X93894090Y-72300559D01*
X93681890Y-72155569D01*
X93430000Y-72104560D01*
X92530000Y-72104560D01*
X92294683Y-72148838D01*
X92196216Y-72212200D01*
X91530103Y-72212200D01*
X91426090Y-72050559D01*
X91213890Y-71905569D01*
X90962000Y-71854560D01*
X90262000Y-71854560D01*
X90026683Y-71898838D01*
X89810559Y-72037910D01*
X89665569Y-72250110D01*
X89662919Y-72263197D01*
X89651800Y-72245918D01*
X89651800Y-71824278D01*
X89800388Y-71675690D01*
X93895000Y-71675690D01*
X93895000Y-71916250D01*
X94053750Y-72075000D01*
X94853000Y-72075000D01*
X94853000Y-71325750D01*
X95107000Y-71325750D01*
X95107000Y-72075000D01*
X95906250Y-72075000D01*
X96065000Y-71916250D01*
X96065000Y-71675690D01*
X95968327Y-71442301D01*
X95789698Y-71263673D01*
X95556309Y-71167000D01*
X95265750Y-71167000D01*
X95107000Y-71325750D01*
X94853000Y-71325750D01*
X94694250Y-71167000D01*
X94403691Y-71167000D01*
X94170302Y-71263673D01*
X93991673Y-71442301D01*
X93895000Y-71675690D01*
X89800388Y-71675690D01*
X91469539Y-70006539D01*
X91673262Y-69701646D01*
X91744800Y-69342000D01*
X91744800Y-66294000D01*
X91673262Y-65934354D01*
X91469539Y-65629461D01*
X90723539Y-64883461D01*
X90418646Y-64679738D01*
X90059000Y-64608200D01*
X89036267Y-64608200D01*
X88950800Y-64549803D01*
X88950800Y-64389000D01*
X88879262Y-64029354D01*
X88675539Y-63724461D01*
X87669539Y-62718461D01*
X87364646Y-62514738D01*
X87005000Y-62443200D01*
X83320774Y-62443200D01*
X83077370Y-62199371D01*
X82564100Y-61986243D01*
X82008339Y-61985758D01*
X81494697Y-62197990D01*
X81101371Y-62590630D01*
X80888243Y-63103900D01*
X80887758Y-63659661D01*
X81099990Y-64173303D01*
X81492630Y-64566629D01*
X82005900Y-64779757D01*
X82561661Y-64780242D01*
X83075303Y-64568010D01*
X83320941Y-64322800D01*
X86615722Y-64322800D01*
X86938304Y-64645382D01*
X86804569Y-64841110D01*
X86753560Y-65093000D01*
X86753560Y-66003000D01*
X86797838Y-66238317D01*
X86936910Y-66454441D01*
X87149110Y-66599431D01*
X87401000Y-66650440D01*
X88621000Y-66650440D01*
X88856317Y-66606162D01*
X89040257Y-66487800D01*
X89669722Y-66487800D01*
X89865200Y-66683278D01*
X89865200Y-68952722D01*
X88950800Y-69867122D01*
X88950800Y-69815364D01*
X89072441Y-69737090D01*
X89217431Y-69524890D01*
X89268440Y-69273000D01*
X89268440Y-68363000D01*
X89224162Y-68127683D01*
X89085090Y-67911559D01*
X88872890Y-67766569D01*
X88621000Y-67715560D01*
X87401000Y-67715560D01*
X87165683Y-67759838D01*
X86949559Y-67898910D01*
X86804569Y-68111110D01*
X86753560Y-68363000D01*
X86753560Y-69273000D01*
X86797838Y-69508317D01*
X86935959Y-69722963D01*
X86615722Y-70043200D01*
X83320774Y-70043200D01*
X83077370Y-69799371D01*
X82564100Y-69586243D01*
X82008339Y-69585758D01*
X81494697Y-69797990D01*
X81101371Y-70190630D01*
X80888243Y-70703900D01*
X80887758Y-71259661D01*
X81099990Y-71773303D01*
X81492630Y-72166629D01*
X82005900Y-72379757D01*
X82561661Y-72380242D01*
X83075303Y-72168010D01*
X83320941Y-71922800D01*
X87005000Y-71922800D01*
X87364646Y-71851262D01*
X87669539Y-71647539D01*
X87772200Y-71544878D01*
X87772200Y-72240405D01*
X87765569Y-72250110D01*
X87714560Y-72502000D01*
X87714560Y-73802000D01*
X87758838Y-74037317D01*
X87897910Y-74253441D01*
X88110110Y-74398431D01*
X88362000Y-74449440D01*
X89062000Y-74449440D01*
X89297317Y-74405162D01*
X89513441Y-74266090D01*
X89658431Y-74053890D01*
X89661081Y-74040803D01*
X89797910Y-74253441D01*
X90010110Y-74398431D01*
X90262000Y-74449440D01*
X90962000Y-74449440D01*
X91197317Y-74405162D01*
X91413441Y-74266090D01*
X91532528Y-74091800D01*
X92195228Y-74091800D01*
X92278110Y-74148431D01*
X92530000Y-74199440D01*
X93430000Y-74199440D01*
X93665317Y-74155162D01*
X93881441Y-74016090D01*
X93882560Y-74014452D01*
X93882560Y-74502000D01*
X93926838Y-74737317D01*
X94065910Y-74953441D01*
X94278110Y-75098431D01*
X94530000Y-75149440D01*
X95430000Y-75149440D01*
X95665317Y-75105162D01*
X95763784Y-75041800D01*
X96773671Y-75041800D01*
X96775838Y-75053317D01*
X96914910Y-75269441D01*
X97127110Y-75414431D01*
X97379000Y-75465440D01*
X98079000Y-75465440D01*
X98314317Y-75421162D01*
X98530441Y-75282090D01*
X98675431Y-75069890D01*
X98678081Y-75056803D01*
X98814910Y-75269441D01*
X99027110Y-75414431D01*
X99279000Y-75465440D01*
X99979000Y-75465440D01*
X100214317Y-75421162D01*
X100430441Y-75282090D01*
X100575431Y-75069890D01*
X100626440Y-74818000D01*
X100626440Y-73518000D01*
X100582162Y-73282683D01*
X100443090Y-73066559D01*
X100230890Y-72921569D01*
X99999800Y-72874772D01*
X99999800Y-64652816D01*
X100110054Y-64579147D01*
X100330000Y-64249974D01*
X100549946Y-64579147D01*
X100660200Y-64652816D01*
X100660200Y-79239722D01*
X99917362Y-79982560D01*
X99279000Y-79982560D01*
X99043683Y-80026838D01*
X98827559Y-80165910D01*
X98682569Y-80378110D01*
X98679919Y-80391197D01*
X98543090Y-80178559D01*
X98330890Y-80033569D01*
X98079000Y-79982560D01*
X97379000Y-79982560D01*
X97143683Y-80026838D01*
X96927559Y-80165910D01*
X96782569Y-80378110D01*
X96777893Y-80401200D01*
X95764772Y-80401200D01*
X95754250Y-80394010D01*
X95789698Y-80379327D01*
X95968327Y-80200699D01*
X96065000Y-79967310D01*
X96065000Y-79726750D01*
X95906250Y-79568000D01*
X95107000Y-79568000D01*
X95107000Y-79588000D01*
X94853000Y-79588000D01*
X94853000Y-79568000D01*
X94053750Y-79568000D01*
X93967738Y-79654012D01*
X93894090Y-79539559D01*
X93681890Y-79394569D01*
X93430000Y-79343560D01*
X92530000Y-79343560D01*
X92294683Y-79387838D01*
X92196216Y-79451200D01*
X91530103Y-79451200D01*
X91426090Y-79289559D01*
X91213890Y-79144569D01*
X90962000Y-79093560D01*
X90262000Y-79093560D01*
X90026683Y-79137838D01*
X89810559Y-79276910D01*
X89665569Y-79489110D01*
X89662919Y-79502197D01*
X89526090Y-79289559D01*
X89313890Y-79144569D01*
X89062000Y-79093560D01*
X88743638Y-79093560D01*
X88630539Y-78980461D01*
X88532106Y-78914690D01*
X93895000Y-78914690D01*
X93895000Y-79155250D01*
X94053750Y-79314000D01*
X94853000Y-79314000D01*
X94853000Y-78564750D01*
X95107000Y-78564750D01*
X95107000Y-79314000D01*
X95906250Y-79314000D01*
X96065000Y-79155250D01*
X96065000Y-78914690D01*
X95968327Y-78681301D01*
X95789698Y-78502673D01*
X95556309Y-78406000D01*
X95265750Y-78406000D01*
X95107000Y-78564750D01*
X94853000Y-78564750D01*
X94694250Y-78406000D01*
X94403691Y-78406000D01*
X94170302Y-78502673D01*
X93991673Y-78681301D01*
X93895000Y-78914690D01*
X88532106Y-78914690D01*
X88325646Y-78776738D01*
X87966000Y-78705200D01*
X85226267Y-78705200D01*
X85140800Y-78646803D01*
X85140800Y-78613000D01*
X85069262Y-78253354D01*
X84865539Y-77948461D01*
X83732539Y-76815461D01*
X83427646Y-76611738D01*
X83068000Y-76540200D01*
X79510774Y-76540200D01*
X79267370Y-76296371D01*
X78754100Y-76083243D01*
X78198339Y-76082758D01*
X77684697Y-76294990D01*
X77291371Y-76687630D01*
X77078243Y-77200900D01*
X77077758Y-77756661D01*
X76327000Y-77756661D01*
X76327000Y-59817000D01*
X115622000Y-59817000D01*
X115622000Y-62888680D01*
X115622000Y-62888680D01*
G37*
X115622000Y-62888680D02*
X115495183Y-62618642D01*
X115066924Y-62228355D01*
X114656890Y-62058524D01*
X114427000Y-62179845D01*
X114427000Y-63373000D01*
X114447000Y-63373000D01*
X114447000Y-63627000D01*
X114427000Y-63627000D01*
X114427000Y-64820155D01*
X114656890Y-64941476D01*
X115066924Y-64771645D01*
X115495183Y-64381358D01*
X115622000Y-64111320D01*
X115622000Y-102489000D01*
X83235800Y-102489000D01*
X83235800Y-99453661D01*
X85332758Y-99453661D01*
X85544990Y-99967303D01*
X85937630Y-100360629D01*
X86450900Y-100573757D01*
X87006661Y-100574242D01*
X87520303Y-100362010D01*
X87765941Y-100116800D01*
X89275000Y-100116800D01*
X89634646Y-100045262D01*
X89939539Y-99841539D01*
X92428638Y-97352440D01*
X92812000Y-97352440D01*
X93047317Y-97308162D01*
X93263441Y-97169090D01*
X93408431Y-96956890D01*
X93459440Y-96705000D01*
X93459440Y-95795000D01*
X93415162Y-95559683D01*
X93276090Y-95343559D01*
X93063890Y-95198569D01*
X92812000Y-95147560D01*
X91592000Y-95147560D01*
X91356683Y-95191838D01*
X91140559Y-95330910D01*
X90995569Y-95543110D01*
X90944560Y-95795000D01*
X90944560Y-96178362D01*
X88885722Y-98237200D01*
X87765774Y-98237200D01*
X87522370Y-97993371D01*
X87009100Y-97780243D01*
X86453339Y-97779758D01*
X85939697Y-97991990D01*
X85546371Y-98384630D01*
X85333243Y-98897900D01*
X85332758Y-99453661D01*
X83235800Y-99453661D01*
X83235800Y-89204800D01*
X83225794Y-89155390D01*
X83197353Y-89113765D01*
X83154959Y-89086485D01*
X83108800Y-89077800D01*
X76327000Y-89077800D01*
X76327000Y-85356661D01*
X77077758Y-85356661D01*
X77289990Y-85870303D01*
X77682630Y-86263629D01*
X78195900Y-86476757D01*
X78751661Y-86477242D01*
X79265303Y-86265010D01*
X79376817Y-86153690D01*
X93895000Y-86153690D01*
X93895000Y-86394250D01*
X94053750Y-86553000D01*
X94853000Y-86553000D01*
X94853000Y-85803750D01*
X95107000Y-85803750D01*
X95107000Y-86553000D01*
X95906250Y-86553000D01*
X96065000Y-86394250D01*
X96065000Y-86153690D01*
X95968327Y-85920301D01*
X95789698Y-85741673D01*
X95556309Y-85645000D01*
X95265750Y-85645000D01*
X95107000Y-85803750D01*
X94853000Y-85803750D01*
X94694250Y-85645000D01*
X94403691Y-85645000D01*
X94170302Y-85741673D01*
X93991673Y-85920301D01*
X93895000Y-86153690D01*
X79376817Y-86153690D01*
X79510941Y-86019800D01*
X82433000Y-86019800D01*
X82792646Y-85948262D01*
X83097539Y-85744539D01*
X84827799Y-84014279D01*
X85046317Y-83973162D01*
X85262441Y-83834090D01*
X85407431Y-83621890D01*
X85458440Y-83370000D01*
X85458440Y-82460000D01*
X85414162Y-82224683D01*
X85275090Y-82008559D01*
X85062890Y-81863569D01*
X84811000Y-81812560D01*
X83591000Y-81812560D01*
X83355683Y-81856838D01*
X83139559Y-81995910D01*
X82994569Y-82208110D01*
X82943560Y-82460000D01*
X82943560Y-83240362D01*
X82043722Y-84140200D01*
X79510774Y-84140200D01*
X79267370Y-83896371D01*
X78754100Y-83683243D01*
X78198339Y-83682758D01*
X77684697Y-83894990D01*
X77291371Y-84287630D01*
X77078243Y-84800900D01*
X77077758Y-85356661D01*
X76327000Y-85356661D01*
X76327000Y-77756661D01*
X77077758Y-77756661D01*
X77289990Y-78270303D01*
X77682630Y-78663629D01*
X78195900Y-78876757D01*
X78751661Y-78877242D01*
X79265303Y-78665010D01*
X79510941Y-78419800D01*
X82678722Y-78419800D01*
X83076752Y-78817830D01*
X82994569Y-78938110D01*
X82943560Y-79190000D01*
X82943560Y-80100000D01*
X82987838Y-80335317D01*
X83126910Y-80551441D01*
X83339110Y-80696431D01*
X83591000Y-80747440D01*
X84811000Y-80747440D01*
X85046317Y-80703162D01*
X85230257Y-80584800D01*
X87576722Y-80584800D01*
X87714560Y-80722638D01*
X87714560Y-81041000D01*
X87758838Y-81276317D01*
X87897910Y-81492441D01*
X88110110Y-81637431D01*
X88362000Y-81688440D01*
X89062000Y-81688440D01*
X89297317Y-81644162D01*
X89513441Y-81505090D01*
X89658431Y-81292890D01*
X89661081Y-81279803D01*
X89797910Y-81492441D01*
X90010110Y-81637431D01*
X90262000Y-81688440D01*
X90962000Y-81688440D01*
X91197317Y-81644162D01*
X91413441Y-81505090D01*
X91532528Y-81330800D01*
X92195228Y-81330800D01*
X92278110Y-81387431D01*
X92530000Y-81438440D01*
X93430000Y-81438440D01*
X93665317Y-81394162D01*
X93881441Y-81255090D01*
X93882560Y-81253452D01*
X93882560Y-81741000D01*
X93926838Y-81976317D01*
X94065910Y-82192441D01*
X94278110Y-82337431D01*
X94530000Y-82388440D01*
X95430000Y-82388440D01*
X95665317Y-82344162D01*
X95763784Y-82280800D01*
X96850149Y-82280800D01*
X96914910Y-82381441D01*
X97127110Y-82526431D01*
X97379000Y-82577440D01*
X98079000Y-82577440D01*
X98314317Y-82533162D01*
X98530441Y-82394090D01*
X98675431Y-82181890D01*
X98678081Y-82168803D01*
X98814910Y-82381441D01*
X99027110Y-82526431D01*
X99279000Y-82577440D01*
X99979000Y-82577440D01*
X100214317Y-82533162D01*
X100430441Y-82394090D01*
X100575431Y-82181890D01*
X100626024Y-81932054D01*
X102264539Y-80293539D01*
X102468262Y-79988646D01*
X102539800Y-79629000D01*
X102539800Y-64652816D01*
X102650054Y-64579147D01*
X102870000Y-64249974D01*
X103089946Y-64579147D01*
X103200200Y-64652816D01*
X103200200Y-84700722D01*
X100508583Y-87392339D01*
X100443090Y-87290559D01*
X100230890Y-87145569D01*
X99979000Y-87094560D01*
X99279000Y-87094560D01*
X99043683Y-87138838D01*
X98827559Y-87277910D01*
X98682569Y-87490110D01*
X98679919Y-87503197D01*
X98543090Y-87290559D01*
X98330890Y-87145569D01*
X98079000Y-87094560D01*
X97379000Y-87094560D01*
X97143683Y-87138838D01*
X96927559Y-87277910D01*
X96782569Y-87490110D01*
X96752175Y-87640200D01*
X95764772Y-87640200D01*
X95754250Y-87633010D01*
X95789698Y-87618327D01*
X95968327Y-87439699D01*
X96065000Y-87206310D01*
X96065000Y-86965750D01*
X95906250Y-86807000D01*
X95107000Y-86807000D01*
X95107000Y-86827000D01*
X94853000Y-86827000D01*
X94853000Y-86807000D01*
X94053750Y-86807000D01*
X93967738Y-86893012D01*
X93894090Y-86778559D01*
X93681890Y-86633569D01*
X93430000Y-86582560D01*
X92530000Y-86582560D01*
X92294683Y-86626838D01*
X92093649Y-86756200D01*
X91589595Y-86756200D01*
X91579890Y-86749569D01*
X91328000Y-86698560D01*
X90028000Y-86698560D01*
X89792683Y-86742838D01*
X89576559Y-86881910D01*
X89431569Y-87094110D01*
X89380560Y-87346000D01*
X89380560Y-88046000D01*
X89424838Y-88281317D01*
X89563910Y-88497441D01*
X89776110Y-88642431D01*
X89789197Y-88645081D01*
X89576559Y-88781910D01*
X89431569Y-88994110D01*
X89380560Y-89246000D01*
X89380560Y-89564362D01*
X88307722Y-90637200D01*
X87765774Y-90637200D01*
X87522370Y-90393371D01*
X87009100Y-90180243D01*
X86453339Y-90179758D01*
X85939697Y-90391990D01*
X85546371Y-90784630D01*
X85333243Y-91297900D01*
X85332758Y-91853661D01*
X85544990Y-92367303D01*
X85937630Y-92760629D01*
X86450900Y-92973757D01*
X87006661Y-92974242D01*
X87520303Y-92762010D01*
X87765941Y-92516800D01*
X90409722Y-92516800D01*
X90944560Y-93051638D01*
X90944560Y-93435000D01*
X90988838Y-93670317D01*
X91127910Y-93886441D01*
X91340110Y-94031431D01*
X91592000Y-94082440D01*
X92812000Y-94082440D01*
X93047317Y-94038162D01*
X93263441Y-93899090D01*
X93408431Y-93686890D01*
X93459440Y-93435000D01*
X93459440Y-92525000D01*
X93415162Y-92289683D01*
X93276090Y-92073559D01*
X93063890Y-91928569D01*
X92812000Y-91877560D01*
X92428638Y-91877560D01*
X91463539Y-90912461D01*
X91158646Y-90708738D01*
X90938191Y-90664887D01*
X91009638Y-90593440D01*
X91328000Y-90593440D01*
X91563317Y-90549162D01*
X91779441Y-90410090D01*
X91924431Y-90197890D01*
X91975440Y-89946000D01*
X91975440Y-89246000D01*
X91931162Y-89010683D01*
X91792090Y-88794559D01*
X91579890Y-88649569D01*
X91566803Y-88646919D01*
X91584082Y-88635800D01*
X92324376Y-88635800D01*
X92530000Y-88677440D01*
X92755671Y-88677440D01*
X92853000Y-88696800D01*
X92950329Y-88677440D01*
X93430000Y-88677440D01*
X93665317Y-88633162D01*
X93881441Y-88494090D01*
X93882560Y-88492452D01*
X93882560Y-88980000D01*
X93926838Y-89215317D01*
X94065910Y-89431441D01*
X94278110Y-89576431D01*
X94530000Y-89627440D01*
X95430000Y-89627440D01*
X95665317Y-89583162D01*
X95763784Y-89519800D01*
X96953488Y-89519800D01*
X97127110Y-89638431D01*
X97379000Y-89689440D01*
X98079000Y-89689440D01*
X98314317Y-89645162D01*
X98530441Y-89506090D01*
X98675431Y-89293890D01*
X98678081Y-89280803D01*
X98814910Y-89493441D01*
X99027110Y-89638431D01*
X99279000Y-89689440D01*
X99979000Y-89689440D01*
X100214317Y-89645162D01*
X100430441Y-89506090D01*
X100549528Y-89331800D01*
X100838000Y-89331800D01*
X101197646Y-89260262D01*
X101502539Y-89056539D01*
X104804539Y-85754539D01*
X105008262Y-85449646D01*
X105079800Y-85090000D01*
X105079800Y-64652816D01*
X105190054Y-64579147D01*
X105410000Y-64249974D01*
X105629946Y-64579147D01*
X106111715Y-64901054D01*
X106680000Y-65014093D01*
X107248285Y-64901054D01*
X107730054Y-64579147D01*
X107950000Y-64249974D01*
X108169946Y-64579147D01*
X108651715Y-64901054D01*
X109220000Y-65014093D01*
X109788285Y-64901054D01*
X110270054Y-64579147D01*
X110490000Y-64249974D01*
X110709946Y-64579147D01*
X111191715Y-64901054D01*
X111760000Y-65014093D01*
X112328285Y-64901054D01*
X112810054Y-64579147D01*
X113037702Y-64238447D01*
X113104817Y-64381358D01*
X113533076Y-64771645D01*
X113943110Y-64941476D01*
X114173000Y-64820155D01*
X114173000Y-63627000D01*
X114153000Y-63627000D01*
X114153000Y-63373000D01*
X114173000Y-63373000D01*
X114173000Y-62179845D01*
X113943110Y-62058524D01*
X113533076Y-62228355D01*
X113104817Y-62618642D01*
X113037702Y-62761553D01*
X112810054Y-62420853D01*
X112328285Y-62098946D01*
X111760000Y-61985907D01*
X111191715Y-62098946D01*
X110709946Y-62420853D01*
X110490000Y-62750026D01*
X110270054Y-62420853D01*
X109788285Y-62098946D01*
X109220000Y-61985907D01*
X108651715Y-62098946D01*
X108169946Y-62420853D01*
X107950000Y-62750026D01*
X107730054Y-62420853D01*
X107248285Y-62098946D01*
X106680000Y-61985907D01*
X106111715Y-62098946D01*
X105629946Y-62420853D01*
X105410000Y-62750026D01*
X105190054Y-62420853D01*
X104708285Y-62098946D01*
X104140000Y-61985907D01*
X103571715Y-62098946D01*
X103089946Y-62420853D01*
X102870000Y-62750026D01*
X102650054Y-62420853D01*
X102168285Y-62098946D01*
X101600000Y-61985907D01*
X101031715Y-62098946D01*
X100549946Y-62420853D01*
X100330000Y-62750026D01*
X100110054Y-62420853D01*
X99628285Y-62098946D01*
X99060000Y-61985907D01*
X98491715Y-62098946D01*
X98009946Y-62420853D01*
X97982150Y-62462452D01*
X97973162Y-62414683D01*
X97834090Y-62198559D01*
X97621890Y-62053569D01*
X97370000Y-62002560D01*
X95670000Y-62002560D01*
X95434683Y-62046838D01*
X95218559Y-62185910D01*
X95073569Y-62398110D01*
X95022560Y-62650000D01*
X95022560Y-64350000D01*
X95066838Y-64585317D01*
X95205910Y-64801441D01*
X95418110Y-64946431D01*
X95670000Y-64997440D01*
X97370000Y-64997440D01*
X97605317Y-64953162D01*
X97821441Y-64814090D01*
X97966431Y-64601890D01*
X97980086Y-64534459D01*
X98009946Y-64579147D01*
X98120200Y-64652816D01*
X98120200Y-72878903D01*
X98079000Y-72870560D01*
X97379000Y-72870560D01*
X97143683Y-72914838D01*
X96927559Y-73053910D01*
X96853568Y-73162200D01*
X95764772Y-73162200D01*
X95754250Y-73155010D01*
X95789698Y-73140327D01*
X95968327Y-72961699D01*
X96065000Y-72728310D01*
X96065000Y-72487750D01*
X95906250Y-72329000D01*
X95107000Y-72329000D01*
X95107000Y-72349000D01*
X94853000Y-72349000D01*
X94853000Y-72329000D01*
X94053750Y-72329000D01*
X93967738Y-72415012D01*
X93894090Y-72300559D01*
X93681890Y-72155569D01*
X93430000Y-72104560D01*
X92530000Y-72104560D01*
X92294683Y-72148838D01*
X92196216Y-72212200D01*
X91530103Y-72212200D01*
X91426090Y-72050559D01*
X91213890Y-71905569D01*
X90962000Y-71854560D01*
X90262000Y-71854560D01*
X90026683Y-71898838D01*
X89810559Y-72037910D01*
X89665569Y-72250110D01*
X89662919Y-72263197D01*
X89651800Y-72245918D01*
X89651800Y-71824278D01*
X89800388Y-71675690D01*
X93895000Y-71675690D01*
X93895000Y-71916250D01*
X94053750Y-72075000D01*
X94853000Y-72075000D01*
X94853000Y-71325750D01*
X95107000Y-71325750D01*
X95107000Y-72075000D01*
X95906250Y-72075000D01*
X96065000Y-71916250D01*
X96065000Y-71675690D01*
X95968327Y-71442301D01*
X95789698Y-71263673D01*
X95556309Y-71167000D01*
X95265750Y-71167000D01*
X95107000Y-71325750D01*
X94853000Y-71325750D01*
X94694250Y-71167000D01*
X94403691Y-71167000D01*
X94170302Y-71263673D01*
X93991673Y-71442301D01*
X93895000Y-71675690D01*
X89800388Y-71675690D01*
X91469539Y-70006539D01*
X91673262Y-69701646D01*
X91744800Y-69342000D01*
X91744800Y-66294000D01*
X91673262Y-65934354D01*
X91469539Y-65629461D01*
X90723539Y-64883461D01*
X90418646Y-64679738D01*
X90059000Y-64608200D01*
X89036267Y-64608200D01*
X88950800Y-64549803D01*
X88950800Y-64389000D01*
X88879262Y-64029354D01*
X88675539Y-63724461D01*
X87669539Y-62718461D01*
X87364646Y-62514738D01*
X87005000Y-62443200D01*
X83320774Y-62443200D01*
X83077370Y-62199371D01*
X82564100Y-61986243D01*
X82008339Y-61985758D01*
X81494697Y-62197990D01*
X81101371Y-62590630D01*
X80888243Y-63103900D01*
X80887758Y-63659661D01*
X81099990Y-64173303D01*
X81492630Y-64566629D01*
X82005900Y-64779757D01*
X82561661Y-64780242D01*
X83075303Y-64568010D01*
X83320941Y-64322800D01*
X86615722Y-64322800D01*
X86938304Y-64645382D01*
X86804569Y-64841110D01*
X86753560Y-65093000D01*
X86753560Y-66003000D01*
X86797838Y-66238317D01*
X86936910Y-66454441D01*
X87149110Y-66599431D01*
X87401000Y-66650440D01*
X88621000Y-66650440D01*
X88856317Y-66606162D01*
X89040257Y-66487800D01*
X89669722Y-66487800D01*
X89865200Y-66683278D01*
X89865200Y-68952722D01*
X88950800Y-69867122D01*
X88950800Y-69815364D01*
X89072441Y-69737090D01*
X89217431Y-69524890D01*
X89268440Y-69273000D01*
X89268440Y-68363000D01*
X89224162Y-68127683D01*
X89085090Y-67911559D01*
X88872890Y-67766569D01*
X88621000Y-67715560D01*
X87401000Y-67715560D01*
X87165683Y-67759838D01*
X86949559Y-67898910D01*
X86804569Y-68111110D01*
X86753560Y-68363000D01*
X86753560Y-69273000D01*
X86797838Y-69508317D01*
X86935959Y-69722963D01*
X86615722Y-70043200D01*
X83320774Y-70043200D01*
X83077370Y-69799371D01*
X82564100Y-69586243D01*
X82008339Y-69585758D01*
X81494697Y-69797990D01*
X81101371Y-70190630D01*
X80888243Y-70703900D01*
X80887758Y-71259661D01*
X81099990Y-71773303D01*
X81492630Y-72166629D01*
X82005900Y-72379757D01*
X82561661Y-72380242D01*
X83075303Y-72168010D01*
X83320941Y-71922800D01*
X87005000Y-71922800D01*
X87364646Y-71851262D01*
X87669539Y-71647539D01*
X87772200Y-71544878D01*
X87772200Y-72240405D01*
X87765569Y-72250110D01*
X87714560Y-72502000D01*
X87714560Y-73802000D01*
X87758838Y-74037317D01*
X87897910Y-74253441D01*
X88110110Y-74398431D01*
X88362000Y-74449440D01*
X89062000Y-74449440D01*
X89297317Y-74405162D01*
X89513441Y-74266090D01*
X89658431Y-74053890D01*
X89661081Y-74040803D01*
X89797910Y-74253441D01*
X90010110Y-74398431D01*
X90262000Y-74449440D01*
X90962000Y-74449440D01*
X91197317Y-74405162D01*
X91413441Y-74266090D01*
X91532528Y-74091800D01*
X92195228Y-74091800D01*
X92278110Y-74148431D01*
X92530000Y-74199440D01*
X93430000Y-74199440D01*
X93665317Y-74155162D01*
X93881441Y-74016090D01*
X93882560Y-74014452D01*
X93882560Y-74502000D01*
X93926838Y-74737317D01*
X94065910Y-74953441D01*
X94278110Y-75098431D01*
X94530000Y-75149440D01*
X95430000Y-75149440D01*
X95665317Y-75105162D01*
X95763784Y-75041800D01*
X96773671Y-75041800D01*
X96775838Y-75053317D01*
X96914910Y-75269441D01*
X97127110Y-75414431D01*
X97379000Y-75465440D01*
X98079000Y-75465440D01*
X98314317Y-75421162D01*
X98530441Y-75282090D01*
X98675431Y-75069890D01*
X98678081Y-75056803D01*
X98814910Y-75269441D01*
X99027110Y-75414431D01*
X99279000Y-75465440D01*
X99979000Y-75465440D01*
X100214317Y-75421162D01*
X100430441Y-75282090D01*
X100575431Y-75069890D01*
X100626440Y-74818000D01*
X100626440Y-73518000D01*
X100582162Y-73282683D01*
X100443090Y-73066559D01*
X100230890Y-72921569D01*
X99999800Y-72874772D01*
X99999800Y-64652816D01*
X100110054Y-64579147D01*
X100330000Y-64249974D01*
X100549946Y-64579147D01*
X100660200Y-64652816D01*
X100660200Y-79239722D01*
X99917362Y-79982560D01*
X99279000Y-79982560D01*
X99043683Y-80026838D01*
X98827559Y-80165910D01*
X98682569Y-80378110D01*
X98679919Y-80391197D01*
X98543090Y-80178559D01*
X98330890Y-80033569D01*
X98079000Y-79982560D01*
X97379000Y-79982560D01*
X97143683Y-80026838D01*
X96927559Y-80165910D01*
X96782569Y-80378110D01*
X96777893Y-80401200D01*
X95764772Y-80401200D01*
X95754250Y-80394010D01*
X95789698Y-80379327D01*
X95968327Y-80200699D01*
X96065000Y-79967310D01*
X96065000Y-79726750D01*
X95906250Y-79568000D01*
X95107000Y-79568000D01*
X95107000Y-79588000D01*
X94853000Y-79588000D01*
X94853000Y-79568000D01*
X94053750Y-79568000D01*
X93967738Y-79654012D01*
X93894090Y-79539559D01*
X93681890Y-79394569D01*
X93430000Y-79343560D01*
X92530000Y-79343560D01*
X92294683Y-79387838D01*
X92196216Y-79451200D01*
X91530103Y-79451200D01*
X91426090Y-79289559D01*
X91213890Y-79144569D01*
X90962000Y-79093560D01*
X90262000Y-79093560D01*
X90026683Y-79137838D01*
X89810559Y-79276910D01*
X89665569Y-79489110D01*
X89662919Y-79502197D01*
X89526090Y-79289559D01*
X89313890Y-79144569D01*
X89062000Y-79093560D01*
X88743638Y-79093560D01*
X88630539Y-78980461D01*
X88532106Y-78914690D01*
X93895000Y-78914690D01*
X93895000Y-79155250D01*
X94053750Y-79314000D01*
X94853000Y-79314000D01*
X94853000Y-78564750D01*
X95107000Y-78564750D01*
X95107000Y-79314000D01*
X95906250Y-79314000D01*
X96065000Y-79155250D01*
X96065000Y-78914690D01*
X95968327Y-78681301D01*
X95789698Y-78502673D01*
X95556309Y-78406000D01*
X95265750Y-78406000D01*
X95107000Y-78564750D01*
X94853000Y-78564750D01*
X94694250Y-78406000D01*
X94403691Y-78406000D01*
X94170302Y-78502673D01*
X93991673Y-78681301D01*
X93895000Y-78914690D01*
X88532106Y-78914690D01*
X88325646Y-78776738D01*
X87966000Y-78705200D01*
X85226267Y-78705200D01*
X85140800Y-78646803D01*
X85140800Y-78613000D01*
X85069262Y-78253354D01*
X84865539Y-77948461D01*
X83732539Y-76815461D01*
X83427646Y-76611738D01*
X83068000Y-76540200D01*
X79510774Y-76540200D01*
X79267370Y-76296371D01*
X78754100Y-76083243D01*
X78198339Y-76082758D01*
X77684697Y-76294990D01*
X77291371Y-76687630D01*
X77078243Y-77200900D01*
X77077758Y-77756661D01*
X76327000Y-77756661D01*
X76327000Y-59817000D01*
X115622000Y-59817000D01*
X115622000Y-62888680D01*
M02*
