G04 #@! TF.FileFunction,Legend,Top*
%FSLAX46Y46*%
G04 Gerber Fmt 4.6, Leading zero omitted, Abs format (unit mm)*
G04 Created by KiCad (PCBNEW 4.0.2-4+6225~38~ubuntu14.04.1-stable) date Thu 05 Jan 2017 08:50:19 PM CET*
%MOMM*%
G01*
G04 APERTURE LIST*
%ADD10C,0.100000*%
%ADD11C,0.127000*%
%ADD12C,0.200000*%
%ADD13C,0.150000*%
%ADD14C,0.120000*%
%ADD15C,0.010000*%
G04 APERTURE END LIST*
D10*
D11*
X114372571Y-60883800D02*
X114300000Y-60847514D01*
X114191143Y-60847514D01*
X114082286Y-60883800D01*
X114009714Y-60956371D01*
X113973429Y-61028943D01*
X113937143Y-61174086D01*
X113937143Y-61282943D01*
X113973429Y-61428086D01*
X114009714Y-61500657D01*
X114082286Y-61573229D01*
X114191143Y-61609514D01*
X114263714Y-61609514D01*
X114372571Y-61573229D01*
X114408857Y-61536943D01*
X114408857Y-61282943D01*
X114263714Y-61282943D01*
X114735429Y-61609514D02*
X114735429Y-60847514D01*
X115170857Y-61609514D01*
X115170857Y-60847514D01*
X115533715Y-61609514D02*
X115533715Y-60847514D01*
X115715143Y-60847514D01*
X115824000Y-60883800D01*
X115896572Y-60956371D01*
X115932857Y-61028943D01*
X115969143Y-61174086D01*
X115969143Y-61282943D01*
X115932857Y-61428086D01*
X115896572Y-61500657D01*
X115824000Y-61573229D01*
X115715143Y-61609514D01*
X115533715Y-61609514D01*
X109666314Y-61743771D02*
X108904314Y-61743771D01*
X108904314Y-61453486D01*
X108940600Y-61380914D01*
X108976886Y-61344629D01*
X109049457Y-61308343D01*
X109158314Y-61308343D01*
X109230886Y-61344629D01*
X109267171Y-61380914D01*
X109303457Y-61453486D01*
X109303457Y-61743771D01*
X109267171Y-60727771D02*
X109303457Y-60618914D01*
X109339743Y-60582629D01*
X109412314Y-60546343D01*
X109521171Y-60546343D01*
X109593743Y-60582629D01*
X109630029Y-60618914D01*
X109666314Y-60691486D01*
X109666314Y-60981771D01*
X108904314Y-60981771D01*
X108904314Y-60727771D01*
X108940600Y-60655200D01*
X108976886Y-60618914D01*
X109049457Y-60582629D01*
X109122029Y-60582629D01*
X109194600Y-60618914D01*
X109230886Y-60655200D01*
X109267171Y-60727771D01*
X109267171Y-60981771D01*
X108904314Y-60074629D02*
X108904314Y-60002057D01*
X108940600Y-59929486D01*
X108976886Y-59893200D01*
X109049457Y-59856914D01*
X109194600Y-59820629D01*
X109376029Y-59820629D01*
X109521171Y-59856914D01*
X109593743Y-59893200D01*
X109630029Y-59929486D01*
X109666314Y-60002057D01*
X109666314Y-60074629D01*
X109630029Y-60147200D01*
X109593743Y-60183486D01*
X109521171Y-60219771D01*
X109376029Y-60256057D01*
X109194600Y-60256057D01*
X109049457Y-60219771D01*
X108976886Y-60183486D01*
X108940600Y-60147200D01*
X108904314Y-60074629D01*
X111444314Y-61743771D02*
X112061171Y-61743771D01*
X112133743Y-61707486D01*
X112170029Y-61671200D01*
X112206314Y-61598629D01*
X112206314Y-61453486D01*
X112170029Y-61380914D01*
X112133743Y-61344629D01*
X112061171Y-61308343D01*
X111444314Y-61308343D01*
X112206314Y-60945485D02*
X111444314Y-60945485D01*
X111734600Y-60945485D02*
X111698314Y-60872914D01*
X111698314Y-60727771D01*
X111734600Y-60655200D01*
X111770886Y-60618914D01*
X111843457Y-60582628D01*
X112061171Y-60582628D01*
X112133743Y-60618914D01*
X112170029Y-60655200D01*
X112206314Y-60727771D01*
X112206314Y-60872914D01*
X112170029Y-60945485D01*
X111916029Y-60256056D02*
X111916029Y-59675485D01*
X112206314Y-59965771D02*
X111625743Y-59965771D01*
D12*
X38049200Y-81762600D02*
X35915600Y-81762600D01*
X38049200Y-72009000D02*
X35864800Y-72009000D01*
X38049200Y-91363800D02*
X35864800Y-91363800D01*
D11*
X36485286Y-83210400D02*
X36485286Y-82847543D01*
X37247286Y-82847543D01*
X36775571Y-83464400D02*
X36775571Y-84044971D01*
X37247286Y-84552971D02*
X37247286Y-84698114D01*
X37211000Y-84770686D01*
X37138429Y-84843257D01*
X36993286Y-84879543D01*
X36739286Y-84879543D01*
X36594143Y-84843257D01*
X36521571Y-84770686D01*
X36485286Y-84698114D01*
X36485286Y-84552971D01*
X36521571Y-84480400D01*
X36594143Y-84407829D01*
X36739286Y-84371543D01*
X36993286Y-84371543D01*
X37138429Y-84407829D01*
X37211000Y-84480400D01*
X37247286Y-84552971D01*
X37211000Y-85605257D02*
X37247286Y-85532686D01*
X37247286Y-85423829D01*
X37211000Y-85314972D01*
X37138429Y-85242400D01*
X37065857Y-85206115D01*
X36920714Y-85169829D01*
X36811857Y-85169829D01*
X36666714Y-85206115D01*
X36594143Y-85242400D01*
X36521571Y-85314972D01*
X36485286Y-85423829D01*
X36485286Y-85496400D01*
X36521571Y-85605257D01*
X36557857Y-85641543D01*
X36811857Y-85641543D01*
X36811857Y-85496400D01*
X36485286Y-73206429D02*
X36485286Y-72843572D01*
X37247286Y-72843572D01*
X36775571Y-73460429D02*
X36775571Y-74041000D01*
X36884429Y-74403858D02*
X36884429Y-74657858D01*
X36485286Y-74766715D02*
X36485286Y-74403858D01*
X37247286Y-74403858D01*
X37247286Y-74766715D01*
X37211000Y-75492429D02*
X37247286Y-75419858D01*
X37247286Y-75311001D01*
X37211000Y-75202144D01*
X37138429Y-75129572D01*
X37065857Y-75093287D01*
X36920714Y-75057001D01*
X36811857Y-75057001D01*
X36666714Y-75093287D01*
X36594143Y-75129572D01*
X36521571Y-75202144D01*
X36485286Y-75311001D01*
X36485286Y-75383572D01*
X36521571Y-75492429D01*
X36557857Y-75528715D01*
X36811857Y-75528715D01*
X36811857Y-75383572D01*
X36485286Y-63246000D02*
X36485286Y-62883143D01*
X37247286Y-62883143D01*
X36775571Y-63500000D02*
X36775571Y-64080571D01*
X37247286Y-64443429D02*
X36630429Y-64443429D01*
X36557857Y-64479714D01*
X36521571Y-64516000D01*
X36485286Y-64588571D01*
X36485286Y-64733714D01*
X36521571Y-64806286D01*
X36557857Y-64842571D01*
X36630429Y-64878857D01*
X37247286Y-64878857D01*
X37211000Y-65640857D02*
X37247286Y-65568286D01*
X37247286Y-65459429D01*
X37211000Y-65350572D01*
X37138429Y-65278000D01*
X37065857Y-65241715D01*
X36920714Y-65205429D01*
X36811857Y-65205429D01*
X36666714Y-65241715D01*
X36594143Y-65278000D01*
X36521571Y-65350572D01*
X36485286Y-65459429D01*
X36485286Y-65532000D01*
X36521571Y-65640857D01*
X36557857Y-65677143D01*
X36811857Y-65677143D01*
X36811857Y-65532000D01*
X36536086Y-89037886D02*
X37298086Y-89037886D01*
X36536086Y-89473314D01*
X37298086Y-89473314D01*
X36536086Y-78979486D02*
X37298086Y-78979486D01*
X36536086Y-79414914D01*
X37298086Y-79414914D01*
X36485286Y-69073486D02*
X37247286Y-69073486D01*
X36485286Y-69508914D01*
X37247286Y-69508914D01*
X36485286Y-98181886D02*
X37247286Y-98181886D01*
X36485286Y-98617314D01*
X37247286Y-98617314D01*
X36485286Y-92710000D02*
X36485286Y-92347143D01*
X37247286Y-92347143D01*
X36775571Y-92964000D02*
X36775571Y-93544571D01*
X36485286Y-93907429D02*
X36993286Y-93907429D01*
X37247286Y-93907429D02*
X37211000Y-93871143D01*
X37174714Y-93907429D01*
X37211000Y-93943714D01*
X37247286Y-93907429D01*
X37174714Y-93907429D01*
X36993286Y-94270286D02*
X36485286Y-94270286D01*
X36920714Y-94270286D02*
X36957000Y-94306571D01*
X36993286Y-94379143D01*
X36993286Y-94488000D01*
X36957000Y-94560571D01*
X36884429Y-94596857D01*
X36485286Y-94596857D01*
X67128571Y-55754814D02*
X67564000Y-55754814D01*
X67346286Y-56516814D02*
X67346286Y-55754814D01*
X67818000Y-56516814D02*
X67818000Y-56008814D01*
X67818000Y-55754814D02*
X67781714Y-55791100D01*
X67818000Y-55827386D01*
X67854285Y-55791100D01*
X67818000Y-55754814D01*
X67818000Y-55827386D01*
X68180857Y-56516814D02*
X68180857Y-56008814D01*
X68180857Y-56081386D02*
X68217142Y-56045100D01*
X68289714Y-56008814D01*
X68398571Y-56008814D01*
X68471142Y-56045100D01*
X68507428Y-56117671D01*
X68507428Y-56516814D01*
X68507428Y-56117671D02*
X68543714Y-56045100D01*
X68616285Y-56008814D01*
X68725142Y-56008814D01*
X68797714Y-56045100D01*
X68833999Y-56117671D01*
X68833999Y-56516814D01*
X69487142Y-56480529D02*
X69414571Y-56516814D01*
X69269428Y-56516814D01*
X69196857Y-56480529D01*
X69160571Y-56407957D01*
X69160571Y-56117671D01*
X69196857Y-56045100D01*
X69269428Y-56008814D01*
X69414571Y-56008814D01*
X69487142Y-56045100D01*
X69523428Y-56117671D01*
X69523428Y-56190243D01*
X69160571Y-56262814D01*
X70176571Y-56516814D02*
X70176571Y-55754814D01*
X70176571Y-56480529D02*
X70104000Y-56516814D01*
X69958857Y-56516814D01*
X69886285Y-56480529D01*
X69850000Y-56444243D01*
X69813714Y-56371671D01*
X69813714Y-56153957D01*
X69850000Y-56081386D01*
X69886285Y-56045100D01*
X69958857Y-56008814D01*
X70104000Y-56008814D01*
X70176571Y-56045100D01*
X71482857Y-56516814D02*
X71120000Y-56516814D01*
X71120000Y-55754814D01*
X71736857Y-56117671D02*
X71990857Y-56117671D01*
X72099714Y-56516814D02*
X71736857Y-56516814D01*
X71736857Y-55754814D01*
X72099714Y-55754814D01*
X72426286Y-56516814D02*
X72426286Y-55754814D01*
X72607714Y-55754814D01*
X72716571Y-55791100D01*
X72789143Y-55863671D01*
X72825428Y-55936243D01*
X72861714Y-56081386D01*
X72861714Y-56190243D01*
X72825428Y-56335386D01*
X72789143Y-56407957D01*
X72716571Y-56480529D01*
X72607714Y-56516814D01*
X72426286Y-56516814D01*
X74131714Y-56516814D02*
X73768857Y-56516814D01*
X73768857Y-55754814D01*
X74385714Y-56516814D02*
X74385714Y-56008814D01*
X74385714Y-55754814D02*
X74349428Y-55791100D01*
X74385714Y-55827386D01*
X74421999Y-55791100D01*
X74385714Y-55754814D01*
X74385714Y-55827386D01*
X75075142Y-56008814D02*
X75075142Y-56625671D01*
X75038856Y-56698243D01*
X75002571Y-56734529D01*
X74929999Y-56770814D01*
X74821142Y-56770814D01*
X74748571Y-56734529D01*
X75075142Y-56480529D02*
X75002571Y-56516814D01*
X74857428Y-56516814D01*
X74784856Y-56480529D01*
X74748571Y-56444243D01*
X74712285Y-56371671D01*
X74712285Y-56153957D01*
X74748571Y-56081386D01*
X74784856Y-56045100D01*
X74857428Y-56008814D01*
X75002571Y-56008814D01*
X75075142Y-56045100D01*
X75438000Y-56516814D02*
X75438000Y-55754814D01*
X75764571Y-56516814D02*
X75764571Y-56117671D01*
X75728285Y-56045100D01*
X75655714Y-56008814D01*
X75546857Y-56008814D01*
X75474285Y-56045100D01*
X75438000Y-56081386D01*
X76018571Y-56008814D02*
X76308857Y-56008814D01*
X76127429Y-55754814D02*
X76127429Y-56407957D01*
X76163714Y-56480529D01*
X76236286Y-56516814D01*
X76308857Y-56516814D01*
X76562858Y-56516814D02*
X76562858Y-56008814D01*
X76562858Y-55754814D02*
X76526572Y-55791100D01*
X76562858Y-55827386D01*
X76599143Y-55791100D01*
X76562858Y-55754814D01*
X76562858Y-55827386D01*
X76925715Y-56008814D02*
X76925715Y-56516814D01*
X76925715Y-56081386D02*
X76962000Y-56045100D01*
X77034572Y-56008814D01*
X77143429Y-56008814D01*
X77216000Y-56045100D01*
X77252286Y-56117671D01*
X77252286Y-56516814D01*
X77941715Y-56008814D02*
X77941715Y-56625671D01*
X77905429Y-56698243D01*
X77869144Y-56734529D01*
X77796572Y-56770814D01*
X77687715Y-56770814D01*
X77615144Y-56734529D01*
X77941715Y-56480529D02*
X77869144Y-56516814D01*
X77724001Y-56516814D01*
X77651429Y-56480529D01*
X77615144Y-56444243D01*
X77578858Y-56371671D01*
X77578858Y-56153957D01*
X77615144Y-56081386D01*
X77651429Y-56045100D01*
X77724001Y-56008814D01*
X77869144Y-56008814D01*
X77941715Y-56045100D01*
X67672857Y-57638043D02*
X67636571Y-57674329D01*
X67527714Y-57710614D01*
X67455143Y-57710614D01*
X67346286Y-57674329D01*
X67273714Y-57601757D01*
X67237429Y-57529186D01*
X67201143Y-57384043D01*
X67201143Y-57275186D01*
X67237429Y-57130043D01*
X67273714Y-57057471D01*
X67346286Y-56984900D01*
X67455143Y-56948614D01*
X67527714Y-56948614D01*
X67636571Y-56984900D01*
X67672857Y-57021186D01*
X68108286Y-57710614D02*
X68035714Y-57674329D01*
X67999429Y-57638043D01*
X67963143Y-57565471D01*
X67963143Y-57347757D01*
X67999429Y-57275186D01*
X68035714Y-57238900D01*
X68108286Y-57202614D01*
X68217143Y-57202614D01*
X68289714Y-57238900D01*
X68326000Y-57275186D01*
X68362286Y-57347757D01*
X68362286Y-57565471D01*
X68326000Y-57638043D01*
X68289714Y-57674329D01*
X68217143Y-57710614D01*
X68108286Y-57710614D01*
X68688858Y-57202614D02*
X68688858Y-57710614D01*
X68688858Y-57275186D02*
X68725143Y-57238900D01*
X68797715Y-57202614D01*
X68906572Y-57202614D01*
X68979143Y-57238900D01*
X69015429Y-57311471D01*
X69015429Y-57710614D01*
X69269429Y-57202614D02*
X69559715Y-57202614D01*
X69378287Y-56948614D02*
X69378287Y-57601757D01*
X69414572Y-57674329D01*
X69487144Y-57710614D01*
X69559715Y-57710614D01*
X69813716Y-57710614D02*
X69813716Y-57202614D01*
X69813716Y-57347757D02*
X69850001Y-57275186D01*
X69886287Y-57238900D01*
X69958858Y-57202614D01*
X70031430Y-57202614D01*
X70394287Y-57710614D02*
X70321715Y-57674329D01*
X70285430Y-57638043D01*
X70249144Y-57565471D01*
X70249144Y-57347757D01*
X70285430Y-57275186D01*
X70321715Y-57238900D01*
X70394287Y-57202614D01*
X70503144Y-57202614D01*
X70575715Y-57238900D01*
X70612001Y-57275186D01*
X70648287Y-57347757D01*
X70648287Y-57565471D01*
X70612001Y-57638043D01*
X70575715Y-57674329D01*
X70503144Y-57710614D01*
X70394287Y-57710614D01*
X71083716Y-57710614D02*
X71011144Y-57674329D01*
X70974859Y-57601757D01*
X70974859Y-56948614D01*
X71482859Y-57710614D02*
X71410287Y-57674329D01*
X71374002Y-57601757D01*
X71374002Y-56948614D01*
X72063430Y-57674329D02*
X71990859Y-57710614D01*
X71845716Y-57710614D01*
X71773145Y-57674329D01*
X71736859Y-57601757D01*
X71736859Y-57311471D01*
X71773145Y-57238900D01*
X71845716Y-57202614D01*
X71990859Y-57202614D01*
X72063430Y-57238900D01*
X72099716Y-57311471D01*
X72099716Y-57384043D01*
X71736859Y-57456614D01*
X72426288Y-57710614D02*
X72426288Y-57202614D01*
X72426288Y-57347757D02*
X72462573Y-57275186D01*
X72498859Y-57238900D01*
X72571430Y-57202614D01*
X72644002Y-57202614D01*
X73442287Y-57021186D02*
X73478573Y-56984900D01*
X73551144Y-56948614D01*
X73732573Y-56948614D01*
X73805144Y-56984900D01*
X73841430Y-57021186D01*
X73877715Y-57093757D01*
X73877715Y-57166329D01*
X73841430Y-57275186D01*
X73406001Y-57710614D01*
X73877715Y-57710614D01*
X74567144Y-57710614D02*
X74204287Y-57710614D01*
X74204287Y-56948614D01*
X74639715Y-57783186D02*
X75220286Y-57783186D01*
X75800857Y-57710614D02*
X75365429Y-57710614D01*
X75583143Y-57710614D02*
X75583143Y-56948614D01*
X75510572Y-57057471D01*
X75438000Y-57130043D01*
X75365429Y-57166329D01*
X75946000Y-57783186D02*
X76526571Y-57783186D01*
X77070857Y-57710614D02*
X76708000Y-57710614D01*
X76708000Y-56948614D01*
X77215999Y-56948614D02*
X77469999Y-57710614D01*
X77723999Y-56948614D01*
X96165610Y-61601048D02*
X96576848Y-61601048D01*
X96625229Y-61576857D01*
X96649419Y-61552667D01*
X96673610Y-61504286D01*
X96673610Y-61407524D01*
X96649419Y-61359143D01*
X96625229Y-61334952D01*
X96576848Y-61310762D01*
X96165610Y-61310762D01*
X96480086Y-61068858D02*
X96480086Y-60681810D01*
X96673610Y-60875334D02*
X96286562Y-60875334D01*
X98680210Y-61601048D02*
X99091448Y-61601048D01*
X99139829Y-61576857D01*
X99164019Y-61552667D01*
X99188210Y-61504286D01*
X99188210Y-61407524D01*
X99164019Y-61359143D01*
X99139829Y-61334952D01*
X99091448Y-61310762D01*
X98680210Y-61310762D01*
X98704400Y-60802762D02*
X98680210Y-60851143D01*
X98680210Y-60923715D01*
X98704400Y-60996286D01*
X98752781Y-61044667D01*
X98801162Y-61068858D01*
X98897924Y-61093048D01*
X98970495Y-61093048D01*
X99067257Y-61068858D01*
X99115638Y-61044667D01*
X99164019Y-60996286D01*
X99188210Y-60923715D01*
X99188210Y-60875334D01*
X99164019Y-60802762D01*
X99139829Y-60778572D01*
X98970495Y-60778572D01*
X98970495Y-60875334D01*
X101436714Y-61601048D02*
X101436714Y-61431714D01*
X101702810Y-61359143D02*
X101702810Y-61601048D01*
X101194810Y-61601048D01*
X101194810Y-61359143D01*
X101219000Y-60875333D02*
X101194810Y-60923714D01*
X101194810Y-60996286D01*
X101219000Y-61068857D01*
X101267381Y-61117238D01*
X101315762Y-61141429D01*
X101412524Y-61165619D01*
X101485095Y-61165619D01*
X101581857Y-61141429D01*
X101630238Y-61117238D01*
X101678619Y-61068857D01*
X101702810Y-60996286D01*
X101702810Y-60947905D01*
X101678619Y-60875333D01*
X101654429Y-60851143D01*
X101485095Y-60851143D01*
X101485095Y-60947905D01*
X103709410Y-61504286D02*
X103709410Y-61407524D01*
X103733600Y-61359143D01*
X103781981Y-61310762D01*
X103878743Y-61286571D01*
X104048076Y-61286571D01*
X104144838Y-61310762D01*
X104193219Y-61359143D01*
X104217410Y-61407524D01*
X104217410Y-61504286D01*
X104193219Y-61552667D01*
X104144838Y-61601048D01*
X104048076Y-61625238D01*
X103878743Y-61625238D01*
X103781981Y-61601048D01*
X103733600Y-61552667D01*
X103709410Y-61504286D01*
X103733600Y-60802762D02*
X103709410Y-60851143D01*
X103709410Y-60923715D01*
X103733600Y-60996286D01*
X103781981Y-61044667D01*
X103830362Y-61068858D01*
X103927124Y-61093048D01*
X103999695Y-61093048D01*
X104096457Y-61068858D01*
X104144838Y-61044667D01*
X104193219Y-60996286D01*
X104217410Y-60923715D01*
X104217410Y-60875334D01*
X104193219Y-60802762D01*
X104169029Y-60778572D01*
X103999695Y-60778572D01*
X103999695Y-60875334D01*
X106248200Y-61334952D02*
X106224010Y-61383333D01*
X106224010Y-61455905D01*
X106248200Y-61528476D01*
X106296581Y-61576857D01*
X106344962Y-61601048D01*
X106441724Y-61625238D01*
X106514295Y-61625238D01*
X106611057Y-61601048D01*
X106659438Y-61576857D01*
X106707819Y-61528476D01*
X106732010Y-61455905D01*
X106732010Y-61407524D01*
X106707819Y-61334952D01*
X106683629Y-61310762D01*
X106514295Y-61310762D01*
X106514295Y-61407524D01*
X106732010Y-61093048D02*
X106224010Y-61093048D01*
X106732010Y-60802762D01*
X106224010Y-60802762D01*
X106732010Y-60560858D02*
X106224010Y-60560858D01*
X106224010Y-60439905D01*
X106248200Y-60367334D01*
X106296581Y-60318953D01*
X106344962Y-60294762D01*
X106441724Y-60270572D01*
X106514295Y-60270572D01*
X106611057Y-60294762D01*
X106659438Y-60318953D01*
X106707819Y-60367334D01*
X106732010Y-60439905D01*
X106732010Y-60560858D01*
D13*
X88930000Y-89177000D02*
X88930000Y-101577000D01*
X88930000Y-101577000D02*
X60930000Y-101577000D01*
X60930000Y-101577000D02*
X60930000Y-89177000D01*
X60930000Y-89177000D02*
X88930000Y-89177000D01*
X80675000Y-75080000D02*
X80675000Y-87480000D01*
X80675000Y-87480000D02*
X52675000Y-87480000D01*
X52675000Y-87480000D02*
X52675000Y-75080000D01*
X52675000Y-75080000D02*
X80675000Y-75080000D01*
X84485000Y-60983000D02*
X84485000Y-73383000D01*
X84485000Y-73383000D02*
X56485000Y-73383000D01*
X56485000Y-73383000D02*
X56485000Y-60983000D01*
X56485000Y-60983000D02*
X84485000Y-60983000D01*
X88911000Y-69183000D02*
X88911000Y-66183000D01*
X87111000Y-69183000D02*
X87111000Y-66183000D01*
X85101000Y-83280000D02*
X85101000Y-80280000D01*
X83301000Y-83280000D02*
X83301000Y-80280000D01*
X93102000Y-96615000D02*
X93102000Y-93615000D01*
X91302000Y-96615000D02*
X91302000Y-93615000D01*
D14*
X93220000Y-71572000D02*
X93220000Y-72502000D01*
X93220000Y-74732000D02*
X93220000Y-73802000D01*
X93220000Y-74732000D02*
X95380000Y-74732000D01*
X93220000Y-71572000D02*
X94680000Y-71572000D01*
X93220000Y-78811000D02*
X93220000Y-79741000D01*
X93220000Y-81971000D02*
X93220000Y-81041000D01*
X93220000Y-81971000D02*
X95380000Y-81971000D01*
X93220000Y-78811000D02*
X94680000Y-78811000D01*
X93220000Y-86050000D02*
X93220000Y-86980000D01*
X93220000Y-89210000D02*
X93220000Y-88280000D01*
X93220000Y-89210000D02*
X95380000Y-89210000D01*
X93220000Y-86050000D02*
X94680000Y-86050000D01*
D13*
X99279000Y-75043000D02*
X98079000Y-75043000D01*
X98079000Y-73293000D02*
X99279000Y-73293000D01*
X99279000Y-82155000D02*
X98079000Y-82155000D01*
X98079000Y-80405000D02*
X99279000Y-80405000D01*
X99279000Y-89267000D02*
X98079000Y-89267000D01*
X98079000Y-87517000D02*
X99279000Y-87517000D01*
X90262000Y-74027000D02*
X89062000Y-74027000D01*
X89062000Y-72277000D02*
X90262000Y-72277000D01*
X90262000Y-81266000D02*
X89062000Y-81266000D01*
X89062000Y-79516000D02*
X90262000Y-79516000D01*
X91553000Y-88046000D02*
X91553000Y-89246000D01*
X89803000Y-89246000D02*
X89803000Y-88046000D01*
D15*
G36*
X58902629Y-108847466D02*
X58942111Y-108847867D01*
X59057800Y-108850659D01*
X59154689Y-108858950D01*
X59236081Y-108873632D01*
X59305277Y-108895593D01*
X59365580Y-108925722D01*
X59420292Y-108964910D01*
X59439833Y-108981932D01*
X59472250Y-109021763D01*
X59501480Y-109075813D01*
X59524009Y-109135723D01*
X59536321Y-109193139D01*
X59537600Y-109214356D01*
X59529583Y-109273169D01*
X59508101Y-109337413D01*
X59477001Y-109398221D01*
X59440134Y-109446730D01*
X59434146Y-109452582D01*
X59383421Y-109493721D01*
X59327875Y-109525835D01*
X59264304Y-109549765D01*
X59189506Y-109566353D01*
X59100278Y-109576441D01*
X58993418Y-109580869D01*
X58944472Y-109581245D01*
X58882238Y-109580945D01*
X58838472Y-109579692D01*
X58809069Y-109576954D01*
X58789921Y-109572201D01*
X58776923Y-109564901D01*
X58769955Y-109558667D01*
X58763374Y-109551094D01*
X58758212Y-109541324D01*
X58754297Y-109526740D01*
X58751457Y-109504726D01*
X58749520Y-109472664D01*
X58748316Y-109427936D01*
X58747672Y-109367926D01*
X58747417Y-109290017D01*
X58747378Y-109214356D01*
X58747130Y-109113441D01*
X58747183Y-109032827D01*
X58748143Y-108994222D01*
X58894133Y-108994222D01*
X58894133Y-109434489D01*
X58987266Y-109434404D01*
X59043307Y-109432796D01*
X59102001Y-109428656D01*
X59150972Y-109422864D01*
X59152462Y-109422626D01*
X59231608Y-109403490D01*
X59292998Y-109373687D01*
X59339695Y-109331278D01*
X59369365Y-109285361D01*
X59387647Y-109234426D01*
X59386229Y-109186600D01*
X59365012Y-109135333D01*
X59323511Y-109082299D01*
X59266002Y-109043000D01*
X59191250Y-109016731D01*
X59141292Y-109007435D01*
X59084584Y-109000907D01*
X59024481Y-108996182D01*
X58973361Y-108994217D01*
X58970333Y-108994208D01*
X58894133Y-108994222D01*
X58748143Y-108994222D01*
X58748740Y-108970251D01*
X58753002Y-108923455D01*
X58761170Y-108890178D01*
X58774444Y-108868159D01*
X58794026Y-108855139D01*
X58821117Y-108848857D01*
X58856918Y-108847053D01*
X58902629Y-108847466D01*
X58902629Y-108847466D01*
G37*
X58902629Y-108847466D02*
X58942111Y-108847867D01*
X59057800Y-108850659D01*
X59154689Y-108858950D01*
X59236081Y-108873632D01*
X59305277Y-108895593D01*
X59365580Y-108925722D01*
X59420292Y-108964910D01*
X59439833Y-108981932D01*
X59472250Y-109021763D01*
X59501480Y-109075813D01*
X59524009Y-109135723D01*
X59536321Y-109193139D01*
X59537600Y-109214356D01*
X59529583Y-109273169D01*
X59508101Y-109337413D01*
X59477001Y-109398221D01*
X59440134Y-109446730D01*
X59434146Y-109452582D01*
X59383421Y-109493721D01*
X59327875Y-109525835D01*
X59264304Y-109549765D01*
X59189506Y-109566353D01*
X59100278Y-109576441D01*
X58993418Y-109580869D01*
X58944472Y-109581245D01*
X58882238Y-109580945D01*
X58838472Y-109579692D01*
X58809069Y-109576954D01*
X58789921Y-109572201D01*
X58776923Y-109564901D01*
X58769955Y-109558667D01*
X58763374Y-109551094D01*
X58758212Y-109541324D01*
X58754297Y-109526740D01*
X58751457Y-109504726D01*
X58749520Y-109472664D01*
X58748316Y-109427936D01*
X58747672Y-109367926D01*
X58747417Y-109290017D01*
X58747378Y-109214356D01*
X58747130Y-109113441D01*
X58747183Y-109032827D01*
X58748143Y-108994222D01*
X58894133Y-108994222D01*
X58894133Y-109434489D01*
X58987266Y-109434404D01*
X59043307Y-109432796D01*
X59102001Y-109428656D01*
X59150972Y-109422864D01*
X59152462Y-109422626D01*
X59231608Y-109403490D01*
X59292998Y-109373687D01*
X59339695Y-109331278D01*
X59369365Y-109285361D01*
X59387647Y-109234426D01*
X59386229Y-109186600D01*
X59365012Y-109135333D01*
X59323511Y-109082299D01*
X59266002Y-109043000D01*
X59191250Y-109016731D01*
X59141292Y-109007435D01*
X59084584Y-109000907D01*
X59024481Y-108996182D01*
X58973361Y-108994217D01*
X58970333Y-108994208D01*
X58894133Y-108994222D01*
X58748143Y-108994222D01*
X58748740Y-108970251D01*
X58753002Y-108923455D01*
X58761170Y-108890178D01*
X58774444Y-108868159D01*
X58794026Y-108855139D01*
X58821117Y-108848857D01*
X58856918Y-108847053D01*
X58902629Y-108847466D01*
G36*
X60311206Y-108847546D02*
X60380614Y-108847918D01*
X60433003Y-108848785D01*
X60471153Y-108850346D01*
X60497841Y-108852803D01*
X60515847Y-108856357D01*
X60527951Y-108861210D01*
X60536931Y-108867561D01*
X60540182Y-108870484D01*
X60559957Y-108901542D01*
X60563518Y-108937228D01*
X60550509Y-108968910D01*
X60544494Y-108975313D01*
X60534765Y-108981521D01*
X60519099Y-108986310D01*
X60494592Y-108989914D01*
X60458339Y-108992564D01*
X60407435Y-108994495D01*
X60338974Y-108995939D01*
X60276383Y-108996818D01*
X60028666Y-108999867D01*
X60025281Y-109064778D01*
X60021895Y-109129689D01*
X60190042Y-109129689D01*
X60263041Y-109130319D01*
X60316483Y-109132953D01*
X60353372Y-109138709D01*
X60376712Y-109148704D01*
X60389506Y-109164056D01*
X60394758Y-109185882D01*
X60395555Y-109206138D01*
X60393077Y-109230992D01*
X60383723Y-109249306D01*
X60364617Y-109262037D01*
X60332882Y-109270141D01*
X60285641Y-109274576D01*
X60220017Y-109276299D01*
X60184199Y-109276445D01*
X60023022Y-109276445D01*
X60023022Y-109434489D01*
X60271378Y-109434489D01*
X60352787Y-109434602D01*
X60414658Y-109435112D01*
X60460032Y-109436270D01*
X60491946Y-109438330D01*
X60513441Y-109441546D01*
X60527557Y-109446172D01*
X60537332Y-109452459D01*
X60542311Y-109457067D01*
X60559390Y-109483960D01*
X60564889Y-109507867D01*
X60557037Y-109537067D01*
X60542311Y-109558667D01*
X60534454Y-109565466D01*
X60524312Y-109570746D01*
X60509156Y-109574698D01*
X60486259Y-109577513D01*
X60452891Y-109579382D01*
X60406325Y-109580498D01*
X60343833Y-109581051D01*
X60262686Y-109581233D01*
X60220578Y-109581245D01*
X60130402Y-109581165D01*
X60060076Y-109580798D01*
X60006871Y-109579952D01*
X59968060Y-109578436D01*
X59940913Y-109576059D01*
X59922702Y-109572629D01*
X59910700Y-109567954D01*
X59902178Y-109561844D01*
X59898844Y-109558667D01*
X59892245Y-109551070D01*
X59887073Y-109541270D01*
X59883154Y-109526639D01*
X59880316Y-109504552D01*
X59878385Y-109472382D01*
X59877188Y-109427503D01*
X59876552Y-109367289D01*
X59876303Y-109289113D01*
X59876266Y-109216323D01*
X59876300Y-109123107D01*
X59876535Y-109049831D01*
X59877170Y-108993858D01*
X59878406Y-108952551D01*
X59880444Y-108923272D01*
X59883483Y-108903384D01*
X59887723Y-108890250D01*
X59893365Y-108881232D01*
X59900609Y-108873693D01*
X59902394Y-108872012D01*
X59911055Y-108864572D01*
X59921118Y-108858809D01*
X59935375Y-108854512D01*
X59956617Y-108851464D01*
X59987636Y-108849451D01*
X60031223Y-108848260D01*
X60090169Y-108847675D01*
X60167266Y-108847483D01*
X60221999Y-108847467D01*
X60311206Y-108847546D01*
X60311206Y-108847546D01*
G37*
X60311206Y-108847546D02*
X60380614Y-108847918D01*
X60433003Y-108848785D01*
X60471153Y-108850346D01*
X60497841Y-108852803D01*
X60515847Y-108856357D01*
X60527951Y-108861210D01*
X60536931Y-108867561D01*
X60540182Y-108870484D01*
X60559957Y-108901542D01*
X60563518Y-108937228D01*
X60550509Y-108968910D01*
X60544494Y-108975313D01*
X60534765Y-108981521D01*
X60519099Y-108986310D01*
X60494592Y-108989914D01*
X60458339Y-108992564D01*
X60407435Y-108994495D01*
X60338974Y-108995939D01*
X60276383Y-108996818D01*
X60028666Y-108999867D01*
X60025281Y-109064778D01*
X60021895Y-109129689D01*
X60190042Y-109129689D01*
X60263041Y-109130319D01*
X60316483Y-109132953D01*
X60353372Y-109138709D01*
X60376712Y-109148704D01*
X60389506Y-109164056D01*
X60394758Y-109185882D01*
X60395555Y-109206138D01*
X60393077Y-109230992D01*
X60383723Y-109249306D01*
X60364617Y-109262037D01*
X60332882Y-109270141D01*
X60285641Y-109274576D01*
X60220017Y-109276299D01*
X60184199Y-109276445D01*
X60023022Y-109276445D01*
X60023022Y-109434489D01*
X60271378Y-109434489D01*
X60352787Y-109434602D01*
X60414658Y-109435112D01*
X60460032Y-109436270D01*
X60491946Y-109438330D01*
X60513441Y-109441546D01*
X60527557Y-109446172D01*
X60537332Y-109452459D01*
X60542311Y-109457067D01*
X60559390Y-109483960D01*
X60564889Y-109507867D01*
X60557037Y-109537067D01*
X60542311Y-109558667D01*
X60534454Y-109565466D01*
X60524312Y-109570746D01*
X60509156Y-109574698D01*
X60486259Y-109577513D01*
X60452891Y-109579382D01*
X60406325Y-109580498D01*
X60343833Y-109581051D01*
X60262686Y-109581233D01*
X60220578Y-109581245D01*
X60130402Y-109581165D01*
X60060076Y-109580798D01*
X60006871Y-109579952D01*
X59968060Y-109578436D01*
X59940913Y-109576059D01*
X59922702Y-109572629D01*
X59910700Y-109567954D01*
X59902178Y-109561844D01*
X59898844Y-109558667D01*
X59892245Y-109551070D01*
X59887073Y-109541270D01*
X59883154Y-109526639D01*
X59880316Y-109504552D01*
X59878385Y-109472382D01*
X59877188Y-109427503D01*
X59876552Y-109367289D01*
X59876303Y-109289113D01*
X59876266Y-109216323D01*
X59876300Y-109123107D01*
X59876535Y-109049831D01*
X59877170Y-108993858D01*
X59878406Y-108952551D01*
X59880444Y-108923272D01*
X59883483Y-108903384D01*
X59887723Y-108890250D01*
X59893365Y-108881232D01*
X59900609Y-108873693D01*
X59902394Y-108872012D01*
X59911055Y-108864572D01*
X59921118Y-108858809D01*
X59935375Y-108854512D01*
X59956617Y-108851464D01*
X59987636Y-108849451D01*
X60031223Y-108848260D01*
X60090169Y-108847675D01*
X60167266Y-108847483D01*
X60221999Y-108847467D01*
X60311206Y-108847546D01*
G36*
X61332297Y-108848751D02*
X61407112Y-108853981D01*
X61476694Y-108862150D01*
X61536998Y-108872950D01*
X61583980Y-108886073D01*
X61613594Y-108901213D01*
X61618140Y-108905669D01*
X61633946Y-108940250D01*
X61629153Y-108975751D01*
X61604636Y-109006125D01*
X61603466Y-109006996D01*
X61589046Y-109016354D01*
X61573992Y-109021276D01*
X61552995Y-109021873D01*
X61520743Y-109018261D01*
X61471927Y-109010554D01*
X61468000Y-109009905D01*
X61395261Y-109000969D01*
X61316783Y-108996561D01*
X61238073Y-108996519D01*
X61164639Y-109000679D01*
X61101989Y-109008879D01*
X61055630Y-109020957D01*
X61052584Y-109022171D01*
X61018952Y-109041015D01*
X61007136Y-109060085D01*
X61016386Y-109078839D01*
X61045953Y-109096737D01*
X61095089Y-109113237D01*
X61163043Y-109127796D01*
X61208355Y-109134806D01*
X61302544Y-109148289D01*
X61377456Y-109160614D01*
X61436283Y-109172849D01*
X61482215Y-109186061D01*
X61518445Y-109201317D01*
X61548162Y-109219685D01*
X61574558Y-109242231D01*
X61595770Y-109264371D01*
X61620935Y-109295219D01*
X61633319Y-109321745D01*
X61637192Y-109354426D01*
X61637333Y-109366395D01*
X61634424Y-109406112D01*
X61622798Y-109435659D01*
X61602677Y-109461886D01*
X61561784Y-109501976D01*
X61516183Y-109532549D01*
X61462487Y-109554603D01*
X61397308Y-109569135D01*
X61317256Y-109577141D01*
X61218943Y-109579618D01*
X61202711Y-109579577D01*
X61137151Y-109578218D01*
X61072134Y-109575130D01*
X61014748Y-109570756D01*
X60972078Y-109565540D01*
X60968628Y-109564941D01*
X60926204Y-109554891D01*
X60890220Y-109542196D01*
X60869850Y-109530590D01*
X60850893Y-109499972D01*
X60849573Y-109464318D01*
X60865915Y-109432544D01*
X60869571Y-109428951D01*
X60884685Y-109418276D01*
X60903585Y-109413676D01*
X60932838Y-109414459D01*
X60968349Y-109418527D01*
X61008030Y-109422162D01*
X61063655Y-109425228D01*
X61128594Y-109427453D01*
X61196215Y-109428564D01*
X61214000Y-109428637D01*
X61281872Y-109428364D01*
X61331546Y-109427046D01*
X61367390Y-109424227D01*
X61393776Y-109419450D01*
X61415074Y-109412257D01*
X61427874Y-109406267D01*
X61456000Y-109389633D01*
X61473932Y-109374568D01*
X61476553Y-109370297D01*
X61471024Y-109352663D01*
X61444740Y-109335592D01*
X61399522Y-109319858D01*
X61337192Y-109306238D01*
X61318829Y-109303204D01*
X61222910Y-109288138D01*
X61146359Y-109275546D01*
X61086220Y-109264511D01*
X61039540Y-109254120D01*
X61003363Y-109243456D01*
X60974735Y-109231605D01*
X60950702Y-109217651D01*
X60928308Y-109200681D01*
X60904598Y-109179778D01*
X60896620Y-109172449D01*
X60868647Y-109145099D01*
X60853840Y-109123429D01*
X60848048Y-109098632D01*
X60847111Y-109067383D01*
X60857425Y-109006105D01*
X60888248Y-108954040D01*
X60939405Y-108911358D01*
X61010717Y-108878225D01*
X61061600Y-108863364D01*
X61116900Y-108853766D01*
X61183147Y-108848336D01*
X61256294Y-108846767D01*
X61332297Y-108848751D01*
X61332297Y-108848751D01*
G37*
X61332297Y-108848751D02*
X61407112Y-108853981D01*
X61476694Y-108862150D01*
X61536998Y-108872950D01*
X61583980Y-108886073D01*
X61613594Y-108901213D01*
X61618140Y-108905669D01*
X61633946Y-108940250D01*
X61629153Y-108975751D01*
X61604636Y-109006125D01*
X61603466Y-109006996D01*
X61589046Y-109016354D01*
X61573992Y-109021276D01*
X61552995Y-109021873D01*
X61520743Y-109018261D01*
X61471927Y-109010554D01*
X61468000Y-109009905D01*
X61395261Y-109000969D01*
X61316783Y-108996561D01*
X61238073Y-108996519D01*
X61164639Y-109000679D01*
X61101989Y-109008879D01*
X61055630Y-109020957D01*
X61052584Y-109022171D01*
X61018952Y-109041015D01*
X61007136Y-109060085D01*
X61016386Y-109078839D01*
X61045953Y-109096737D01*
X61095089Y-109113237D01*
X61163043Y-109127796D01*
X61208355Y-109134806D01*
X61302544Y-109148289D01*
X61377456Y-109160614D01*
X61436283Y-109172849D01*
X61482215Y-109186061D01*
X61518445Y-109201317D01*
X61548162Y-109219685D01*
X61574558Y-109242231D01*
X61595770Y-109264371D01*
X61620935Y-109295219D01*
X61633319Y-109321745D01*
X61637192Y-109354426D01*
X61637333Y-109366395D01*
X61634424Y-109406112D01*
X61622798Y-109435659D01*
X61602677Y-109461886D01*
X61561784Y-109501976D01*
X61516183Y-109532549D01*
X61462487Y-109554603D01*
X61397308Y-109569135D01*
X61317256Y-109577141D01*
X61218943Y-109579618D01*
X61202711Y-109579577D01*
X61137151Y-109578218D01*
X61072134Y-109575130D01*
X61014748Y-109570756D01*
X60972078Y-109565540D01*
X60968628Y-109564941D01*
X60926204Y-109554891D01*
X60890220Y-109542196D01*
X60869850Y-109530590D01*
X60850893Y-109499972D01*
X60849573Y-109464318D01*
X60865915Y-109432544D01*
X60869571Y-109428951D01*
X60884685Y-109418276D01*
X60903585Y-109413676D01*
X60932838Y-109414459D01*
X60968349Y-109418527D01*
X61008030Y-109422162D01*
X61063655Y-109425228D01*
X61128594Y-109427453D01*
X61196215Y-109428564D01*
X61214000Y-109428637D01*
X61281872Y-109428364D01*
X61331546Y-109427046D01*
X61367390Y-109424227D01*
X61393776Y-109419450D01*
X61415074Y-109412257D01*
X61427874Y-109406267D01*
X61456000Y-109389633D01*
X61473932Y-109374568D01*
X61476553Y-109370297D01*
X61471024Y-109352663D01*
X61444740Y-109335592D01*
X61399522Y-109319858D01*
X61337192Y-109306238D01*
X61318829Y-109303204D01*
X61222910Y-109288138D01*
X61146359Y-109275546D01*
X61086220Y-109264511D01*
X61039540Y-109254120D01*
X61003363Y-109243456D01*
X60974735Y-109231605D01*
X60950702Y-109217651D01*
X60928308Y-109200681D01*
X60904598Y-109179778D01*
X60896620Y-109172449D01*
X60868647Y-109145099D01*
X60853840Y-109123429D01*
X60848048Y-109098632D01*
X60847111Y-109067383D01*
X60857425Y-109006105D01*
X60888248Y-108954040D01*
X60939405Y-108911358D01*
X61010717Y-108878225D01*
X61061600Y-108863364D01*
X61116900Y-108853766D01*
X61183147Y-108848336D01*
X61256294Y-108846767D01*
X61332297Y-108848751D01*
G36*
X62100178Y-108870045D02*
X62106758Y-108877618D01*
X62111921Y-108887387D01*
X62115836Y-108901971D01*
X62118676Y-108923985D01*
X62120613Y-108956048D01*
X62121817Y-109000775D01*
X62122461Y-109060785D01*
X62122716Y-109138694D01*
X62122755Y-109214356D01*
X62122686Y-109308202D01*
X62122362Y-109382089D01*
X62121614Y-109438632D01*
X62120268Y-109480449D01*
X62118154Y-109510157D01*
X62115100Y-109530373D01*
X62110934Y-109543714D01*
X62105484Y-109552798D01*
X62100178Y-109558667D01*
X62067174Y-109578347D01*
X62032009Y-109576581D01*
X62000545Y-109555117D01*
X61993316Y-109546737D01*
X61987666Y-109537014D01*
X61983401Y-109523261D01*
X61980327Y-109502789D01*
X61978248Y-109472912D01*
X61976970Y-109430941D01*
X61976299Y-109374189D01*
X61976041Y-109299967D01*
X61976000Y-109215937D01*
X61976000Y-108902885D01*
X62003709Y-108875176D01*
X62037863Y-108851863D01*
X62070994Y-108851023D01*
X62100178Y-108870045D01*
X62100178Y-108870045D01*
G37*
X62100178Y-108870045D02*
X62106758Y-108877618D01*
X62111921Y-108887387D01*
X62115836Y-108901971D01*
X62118676Y-108923985D01*
X62120613Y-108956048D01*
X62121817Y-109000775D01*
X62122461Y-109060785D01*
X62122716Y-109138694D01*
X62122755Y-109214356D01*
X62122686Y-109308202D01*
X62122362Y-109382089D01*
X62121614Y-109438632D01*
X62120268Y-109480449D01*
X62118154Y-109510157D01*
X62115100Y-109530373D01*
X62110934Y-109543714D01*
X62105484Y-109552798D01*
X62100178Y-109558667D01*
X62067174Y-109578347D01*
X62032009Y-109576581D01*
X62000545Y-109555117D01*
X61993316Y-109546737D01*
X61987666Y-109537014D01*
X61983401Y-109523261D01*
X61980327Y-109502789D01*
X61978248Y-109472912D01*
X61976970Y-109430941D01*
X61976299Y-109374189D01*
X61976041Y-109299967D01*
X61976000Y-109215937D01*
X61976000Y-108902885D01*
X62003709Y-108875176D01*
X62037863Y-108851863D01*
X62070994Y-108851023D01*
X62100178Y-108870045D01*
G36*
X63073919Y-108852999D02*
X63142435Y-108864495D01*
X63195057Y-108882367D01*
X63229292Y-108905899D01*
X63238621Y-108919324D01*
X63248107Y-108950548D01*
X63241723Y-108978795D01*
X63221570Y-109005582D01*
X63190255Y-109018113D01*
X63144817Y-109017096D01*
X63109674Y-109010306D01*
X63031581Y-108997371D01*
X62951774Y-108996142D01*
X62862445Y-109006641D01*
X62837771Y-109011090D01*
X62754709Y-109034508D01*
X62689727Y-109069345D01*
X62643539Y-109115004D01*
X62616855Y-109170894D01*
X62611337Y-109199788D01*
X62614949Y-109258412D01*
X62638271Y-109310279D01*
X62679176Y-109354378D01*
X62735541Y-109389699D01*
X62805240Y-109415229D01*
X62886148Y-109429959D01*
X62976140Y-109432878D01*
X63073090Y-109422975D01*
X63078564Y-109422041D01*
X63117125Y-109414859D01*
X63138506Y-109407921D01*
X63147773Y-109397627D01*
X63149994Y-109380376D01*
X63150044Y-109371241D01*
X63150044Y-109332889D01*
X63081569Y-109332889D01*
X63021100Y-109328747D01*
X62979835Y-109315547D01*
X62955825Y-109292130D01*
X62947123Y-109257336D01*
X62947017Y-109252794D01*
X62952108Y-109223054D01*
X62969567Y-109201819D01*
X63002061Y-109187766D01*
X63052257Y-109179573D01*
X63100877Y-109176561D01*
X63171544Y-109174833D01*
X63222802Y-109177470D01*
X63257761Y-109187200D01*
X63279530Y-109206753D01*
X63291220Y-109238856D01*
X63295940Y-109286238D01*
X63296800Y-109348471D01*
X63295391Y-109417935D01*
X63291152Y-109465186D01*
X63284064Y-109490412D01*
X63282689Y-109492388D01*
X63243772Y-109523908D01*
X63186714Y-109548870D01*
X63115131Y-109566740D01*
X63032642Y-109576986D01*
X62942861Y-109579073D01*
X62849408Y-109572468D01*
X62794444Y-109564356D01*
X62708234Y-109539954D01*
X62628108Y-109500062D01*
X62561023Y-109448287D01*
X62550827Y-109437939D01*
X62517698Y-109394435D01*
X62487806Y-109340518D01*
X62464643Y-109283992D01*
X62451702Y-109232659D01*
X62450142Y-109212944D01*
X62456782Y-109171819D01*
X62474432Y-109120652D01*
X62499703Y-109066794D01*
X62529211Y-109017595D01*
X62555281Y-108984734D01*
X62616235Y-108935852D01*
X62695031Y-108896945D01*
X62788843Y-108868894D01*
X62894850Y-108852579D01*
X62992000Y-108848592D01*
X63073919Y-108852999D01*
X63073919Y-108852999D01*
G37*
X63073919Y-108852999D02*
X63142435Y-108864495D01*
X63195057Y-108882367D01*
X63229292Y-108905899D01*
X63238621Y-108919324D01*
X63248107Y-108950548D01*
X63241723Y-108978795D01*
X63221570Y-109005582D01*
X63190255Y-109018113D01*
X63144817Y-109017096D01*
X63109674Y-109010306D01*
X63031581Y-108997371D01*
X62951774Y-108996142D01*
X62862445Y-109006641D01*
X62837771Y-109011090D01*
X62754709Y-109034508D01*
X62689727Y-109069345D01*
X62643539Y-109115004D01*
X62616855Y-109170894D01*
X62611337Y-109199788D01*
X62614949Y-109258412D01*
X62638271Y-109310279D01*
X62679176Y-109354378D01*
X62735541Y-109389699D01*
X62805240Y-109415229D01*
X62886148Y-109429959D01*
X62976140Y-109432878D01*
X63073090Y-109422975D01*
X63078564Y-109422041D01*
X63117125Y-109414859D01*
X63138506Y-109407921D01*
X63147773Y-109397627D01*
X63149994Y-109380376D01*
X63150044Y-109371241D01*
X63150044Y-109332889D01*
X63081569Y-109332889D01*
X63021100Y-109328747D01*
X62979835Y-109315547D01*
X62955825Y-109292130D01*
X62947123Y-109257336D01*
X62947017Y-109252794D01*
X62952108Y-109223054D01*
X62969567Y-109201819D01*
X63002061Y-109187766D01*
X63052257Y-109179573D01*
X63100877Y-109176561D01*
X63171544Y-109174833D01*
X63222802Y-109177470D01*
X63257761Y-109187200D01*
X63279530Y-109206753D01*
X63291220Y-109238856D01*
X63295940Y-109286238D01*
X63296800Y-109348471D01*
X63295391Y-109417935D01*
X63291152Y-109465186D01*
X63284064Y-109490412D01*
X63282689Y-109492388D01*
X63243772Y-109523908D01*
X63186714Y-109548870D01*
X63115131Y-109566740D01*
X63032642Y-109576986D01*
X62942861Y-109579073D01*
X62849408Y-109572468D01*
X62794444Y-109564356D01*
X62708234Y-109539954D01*
X62628108Y-109500062D01*
X62561023Y-109448287D01*
X62550827Y-109437939D01*
X62517698Y-109394435D01*
X62487806Y-109340518D01*
X62464643Y-109283992D01*
X62451702Y-109232659D01*
X62450142Y-109212944D01*
X62456782Y-109171819D01*
X62474432Y-109120652D01*
X62499703Y-109066794D01*
X62529211Y-109017595D01*
X62555281Y-108984734D01*
X62616235Y-108935852D01*
X62695031Y-108896945D01*
X62788843Y-108868894D01*
X62894850Y-108852579D01*
X62992000Y-108848592D01*
X63073919Y-108852999D01*
G36*
X63723886Y-108851848D02*
X63747452Y-108865673D01*
X63778265Y-108888281D01*
X63817922Y-108920738D01*
X63868020Y-108964108D01*
X63930157Y-109019458D01*
X64005928Y-109087851D01*
X64092666Y-109166484D01*
X64273289Y-109330278D01*
X64278933Y-109110429D01*
X64280971Y-109034751D01*
X64282937Y-108978394D01*
X64285266Y-108938106D01*
X64288394Y-108910635D01*
X64292755Y-108892729D01*
X64298784Y-108881137D01*
X64306916Y-108872608D01*
X64311228Y-108869023D01*
X64345759Y-108850070D01*
X64378617Y-108852841D01*
X64404682Y-108869033D01*
X64431333Y-108890599D01*
X64434648Y-109205551D01*
X64435565Y-109298179D01*
X64436032Y-109370944D01*
X64435887Y-109426561D01*
X64434968Y-109467742D01*
X64433113Y-109497203D01*
X64430161Y-109517655D01*
X64425950Y-109531813D01*
X64420318Y-109542391D01*
X64414073Y-109550874D01*
X64400561Y-109566607D01*
X64387117Y-109577036D01*
X64371876Y-109581039D01*
X64352974Y-109577494D01*
X64328545Y-109565279D01*
X64296727Y-109543271D01*
X64255652Y-109510349D01*
X64203458Y-109465391D01*
X64138278Y-109407275D01*
X64064444Y-109340499D01*
X63799155Y-109099858D01*
X63793511Y-109318989D01*
X63791469Y-109394528D01*
X63789498Y-109450754D01*
X63787161Y-109490924D01*
X63784019Y-109518296D01*
X63779636Y-109536128D01*
X63773576Y-109547679D01*
X63765400Y-109556207D01*
X63761216Y-109559682D01*
X63724235Y-109578772D01*
X63689292Y-109575893D01*
X63658864Y-109551500D01*
X63651903Y-109541686D01*
X63646477Y-109530226D01*
X63642397Y-109514368D01*
X63639471Y-109491363D01*
X63637508Y-109458462D01*
X63636317Y-109412916D01*
X63635708Y-109351973D01*
X63635489Y-109272886D01*
X63635466Y-109214356D01*
X63635540Y-109122807D01*
X63635887Y-109051087D01*
X63636699Y-108996445D01*
X63638167Y-108956132D01*
X63640481Y-108927398D01*
X63643833Y-108907493D01*
X63648412Y-108893668D01*
X63654411Y-108883172D01*
X63658864Y-108877211D01*
X63670150Y-108863091D01*
X63680699Y-108852429D01*
X63692107Y-108846292D01*
X63705970Y-108845743D01*
X63723886Y-108851848D01*
X63723886Y-108851848D01*
G37*
X63723886Y-108851848D02*
X63747452Y-108865673D01*
X63778265Y-108888281D01*
X63817922Y-108920738D01*
X63868020Y-108964108D01*
X63930157Y-109019458D01*
X64005928Y-109087851D01*
X64092666Y-109166484D01*
X64273289Y-109330278D01*
X64278933Y-109110429D01*
X64280971Y-109034751D01*
X64282937Y-108978394D01*
X64285266Y-108938106D01*
X64288394Y-108910635D01*
X64292755Y-108892729D01*
X64298784Y-108881137D01*
X64306916Y-108872608D01*
X64311228Y-108869023D01*
X64345759Y-108850070D01*
X64378617Y-108852841D01*
X64404682Y-108869033D01*
X64431333Y-108890599D01*
X64434648Y-109205551D01*
X64435565Y-109298179D01*
X64436032Y-109370944D01*
X64435887Y-109426561D01*
X64434968Y-109467742D01*
X64433113Y-109497203D01*
X64430161Y-109517655D01*
X64425950Y-109531813D01*
X64420318Y-109542391D01*
X64414073Y-109550874D01*
X64400561Y-109566607D01*
X64387117Y-109577036D01*
X64371876Y-109581039D01*
X64352974Y-109577494D01*
X64328545Y-109565279D01*
X64296727Y-109543271D01*
X64255652Y-109510349D01*
X64203458Y-109465391D01*
X64138278Y-109407275D01*
X64064444Y-109340499D01*
X63799155Y-109099858D01*
X63793511Y-109318989D01*
X63791469Y-109394528D01*
X63789498Y-109450754D01*
X63787161Y-109490924D01*
X63784019Y-109518296D01*
X63779636Y-109536128D01*
X63773576Y-109547679D01*
X63765400Y-109556207D01*
X63761216Y-109559682D01*
X63724235Y-109578772D01*
X63689292Y-109575893D01*
X63658864Y-109551500D01*
X63651903Y-109541686D01*
X63646477Y-109530226D01*
X63642397Y-109514368D01*
X63639471Y-109491363D01*
X63637508Y-109458462D01*
X63636317Y-109412916D01*
X63635708Y-109351973D01*
X63635489Y-109272886D01*
X63635466Y-109214356D01*
X63635540Y-109122807D01*
X63635887Y-109051087D01*
X63636699Y-108996445D01*
X63638167Y-108956132D01*
X63640481Y-108927398D01*
X63643833Y-108907493D01*
X63648412Y-108893668D01*
X63654411Y-108883172D01*
X63658864Y-108877211D01*
X63670150Y-108863091D01*
X63680699Y-108852429D01*
X63692107Y-108846292D01*
X63705970Y-108845743D01*
X63723886Y-108851848D01*
G36*
X65254343Y-108847660D02*
X65330701Y-108848574D01*
X65389217Y-108850711D01*
X65432255Y-108854575D01*
X65462183Y-108860667D01*
X65481368Y-108869490D01*
X65492176Y-108881546D01*
X65496973Y-108897339D01*
X65498127Y-108917370D01*
X65498133Y-108919735D01*
X65497131Y-108942392D01*
X65492396Y-108959903D01*
X65481333Y-108972974D01*
X65461348Y-108982313D01*
X65429846Y-108988627D01*
X65384232Y-108992622D01*
X65321913Y-108995006D01*
X65240293Y-108996486D01*
X65215277Y-108996814D01*
X64973200Y-108999867D01*
X64969814Y-109064778D01*
X64966429Y-109129689D01*
X65134576Y-109129689D01*
X65200266Y-109129931D01*
X65247172Y-109130956D01*
X65279083Y-109133211D01*
X65299791Y-109137142D01*
X65313084Y-109143198D01*
X65322755Y-109151824D01*
X65322817Y-109151893D01*
X65340356Y-109185512D01*
X65339722Y-109221848D01*
X65321314Y-109252823D01*
X65317671Y-109256007D01*
X65304741Y-109264212D01*
X65287024Y-109269921D01*
X65260570Y-109273562D01*
X65221432Y-109275567D01*
X65165662Y-109276364D01*
X65129994Y-109276445D01*
X64967555Y-109276445D01*
X64967555Y-109434489D01*
X65214161Y-109434489D01*
X65295580Y-109434631D01*
X65357410Y-109435214D01*
X65402637Y-109436468D01*
X65434248Y-109438627D01*
X65455231Y-109441923D01*
X65468573Y-109446589D01*
X65477261Y-109452857D01*
X65479450Y-109455133D01*
X65495614Y-109486680D01*
X65496797Y-109522568D01*
X65483536Y-109553685D01*
X65473043Y-109563671D01*
X65462129Y-109569169D01*
X65445217Y-109573422D01*
X65419633Y-109576580D01*
X65382701Y-109578792D01*
X65331746Y-109580206D01*
X65264094Y-109580972D01*
X65177069Y-109581238D01*
X65157394Y-109581245D01*
X65068911Y-109581187D01*
X65000227Y-109580867D01*
X64948564Y-109580067D01*
X64911145Y-109578567D01*
X64885190Y-109576149D01*
X64867922Y-109572594D01*
X64856562Y-109567682D01*
X64848332Y-109561195D01*
X64843817Y-109556538D01*
X64837021Y-109548289D01*
X64831712Y-109538069D01*
X64827706Y-109523200D01*
X64824821Y-109501002D01*
X64822874Y-109468793D01*
X64821681Y-109423896D01*
X64821061Y-109363628D01*
X64820829Y-109285311D01*
X64820800Y-109219394D01*
X64820871Y-109127028D01*
X64821208Y-109054517D01*
X64821998Y-108999137D01*
X64823426Y-108958165D01*
X64825679Y-108928878D01*
X64828943Y-108908553D01*
X64833404Y-108894466D01*
X64839248Y-108883895D01*
X64844197Y-108877211D01*
X64867594Y-108847467D01*
X65157774Y-108847467D01*
X65254343Y-108847660D01*
X65254343Y-108847660D01*
G37*
X65254343Y-108847660D02*
X65330701Y-108848574D01*
X65389217Y-108850711D01*
X65432255Y-108854575D01*
X65462183Y-108860667D01*
X65481368Y-108869490D01*
X65492176Y-108881546D01*
X65496973Y-108897339D01*
X65498127Y-108917370D01*
X65498133Y-108919735D01*
X65497131Y-108942392D01*
X65492396Y-108959903D01*
X65481333Y-108972974D01*
X65461348Y-108982313D01*
X65429846Y-108988627D01*
X65384232Y-108992622D01*
X65321913Y-108995006D01*
X65240293Y-108996486D01*
X65215277Y-108996814D01*
X64973200Y-108999867D01*
X64969814Y-109064778D01*
X64966429Y-109129689D01*
X65134576Y-109129689D01*
X65200266Y-109129931D01*
X65247172Y-109130956D01*
X65279083Y-109133211D01*
X65299791Y-109137142D01*
X65313084Y-109143198D01*
X65322755Y-109151824D01*
X65322817Y-109151893D01*
X65340356Y-109185512D01*
X65339722Y-109221848D01*
X65321314Y-109252823D01*
X65317671Y-109256007D01*
X65304741Y-109264212D01*
X65287024Y-109269921D01*
X65260570Y-109273562D01*
X65221432Y-109275567D01*
X65165662Y-109276364D01*
X65129994Y-109276445D01*
X64967555Y-109276445D01*
X64967555Y-109434489D01*
X65214161Y-109434489D01*
X65295580Y-109434631D01*
X65357410Y-109435214D01*
X65402637Y-109436468D01*
X65434248Y-109438627D01*
X65455231Y-109441923D01*
X65468573Y-109446589D01*
X65477261Y-109452857D01*
X65479450Y-109455133D01*
X65495614Y-109486680D01*
X65496797Y-109522568D01*
X65483536Y-109553685D01*
X65473043Y-109563671D01*
X65462129Y-109569169D01*
X65445217Y-109573422D01*
X65419633Y-109576580D01*
X65382701Y-109578792D01*
X65331746Y-109580206D01*
X65264094Y-109580972D01*
X65177069Y-109581238D01*
X65157394Y-109581245D01*
X65068911Y-109581187D01*
X65000227Y-109580867D01*
X64948564Y-109580067D01*
X64911145Y-109578567D01*
X64885190Y-109576149D01*
X64867922Y-109572594D01*
X64856562Y-109567682D01*
X64848332Y-109561195D01*
X64843817Y-109556538D01*
X64837021Y-109548289D01*
X64831712Y-109538069D01*
X64827706Y-109523200D01*
X64824821Y-109501002D01*
X64822874Y-109468793D01*
X64821681Y-109423896D01*
X64821061Y-109363628D01*
X64820829Y-109285311D01*
X64820800Y-109219394D01*
X64820871Y-109127028D01*
X64821208Y-109054517D01*
X64821998Y-108999137D01*
X64823426Y-108958165D01*
X64825679Y-108928878D01*
X64828943Y-108908553D01*
X64833404Y-108894466D01*
X64839248Y-108883895D01*
X64844197Y-108877211D01*
X64867594Y-108847467D01*
X65157774Y-108847467D01*
X65254343Y-108847660D01*
G36*
X66042309Y-108847675D02*
X66171288Y-108852036D01*
X66280991Y-108865261D01*
X66373226Y-108888141D01*
X66449802Y-108921470D01*
X66512527Y-108966038D01*
X66563212Y-109022636D01*
X66603663Y-109092058D01*
X66604459Y-109093751D01*
X66628601Y-109155883D01*
X66637203Y-109210909D01*
X66630231Y-109266287D01*
X66607654Y-109329473D01*
X66603372Y-109339089D01*
X66574172Y-109395366D01*
X66541356Y-109438851D01*
X66499002Y-109475817D01*
X66441190Y-109512535D01*
X66437831Y-109514452D01*
X66387504Y-109538627D01*
X66330621Y-109556682D01*
X66263527Y-109569239D01*
X66182565Y-109576922D01*
X66084082Y-109580353D01*
X66049286Y-109580651D01*
X65883594Y-109581245D01*
X65860197Y-109551500D01*
X65853257Y-109541719D01*
X65847842Y-109530297D01*
X65843765Y-109514495D01*
X65840837Y-109491575D01*
X65838867Y-109458796D01*
X65838225Y-109434489D01*
X65994844Y-109434489D01*
X66088726Y-109434489D01*
X66143664Y-109432883D01*
X66200060Y-109428655D01*
X66246345Y-109422692D01*
X66249139Y-109422190D01*
X66331348Y-109400136D01*
X66395114Y-109367000D01*
X66442452Y-109321247D01*
X66475382Y-109261339D01*
X66481108Y-109245461D01*
X66486721Y-109220733D01*
X66484291Y-109196302D01*
X66472467Y-109163800D01*
X66465340Y-109147834D01*
X66442000Y-109105406D01*
X66413880Y-109075640D01*
X66382940Y-109054911D01*
X66320966Y-109027937D01*
X66241651Y-109008398D01*
X66149253Y-108997146D01*
X66082333Y-108994670D01*
X65994844Y-108994222D01*
X65994844Y-109434489D01*
X65838225Y-109434489D01*
X65837668Y-109413421D01*
X65837050Y-109352711D01*
X65836825Y-109273926D01*
X65836800Y-109212320D01*
X65836800Y-108902885D01*
X65864509Y-108875176D01*
X65876806Y-108863944D01*
X65890103Y-108856253D01*
X65908672Y-108851440D01*
X65936786Y-108848846D01*
X65978717Y-108847810D01*
X66038737Y-108847670D01*
X66042309Y-108847675D01*
X66042309Y-108847675D01*
G37*
X66042309Y-108847675D02*
X66171288Y-108852036D01*
X66280991Y-108865261D01*
X66373226Y-108888141D01*
X66449802Y-108921470D01*
X66512527Y-108966038D01*
X66563212Y-109022636D01*
X66603663Y-109092058D01*
X66604459Y-109093751D01*
X66628601Y-109155883D01*
X66637203Y-109210909D01*
X66630231Y-109266287D01*
X66607654Y-109329473D01*
X66603372Y-109339089D01*
X66574172Y-109395366D01*
X66541356Y-109438851D01*
X66499002Y-109475817D01*
X66441190Y-109512535D01*
X66437831Y-109514452D01*
X66387504Y-109538627D01*
X66330621Y-109556682D01*
X66263527Y-109569239D01*
X66182565Y-109576922D01*
X66084082Y-109580353D01*
X66049286Y-109580651D01*
X65883594Y-109581245D01*
X65860197Y-109551500D01*
X65853257Y-109541719D01*
X65847842Y-109530297D01*
X65843765Y-109514495D01*
X65840837Y-109491575D01*
X65838867Y-109458796D01*
X65838225Y-109434489D01*
X65994844Y-109434489D01*
X66088726Y-109434489D01*
X66143664Y-109432883D01*
X66200060Y-109428655D01*
X66246345Y-109422692D01*
X66249139Y-109422190D01*
X66331348Y-109400136D01*
X66395114Y-109367000D01*
X66442452Y-109321247D01*
X66475382Y-109261339D01*
X66481108Y-109245461D01*
X66486721Y-109220733D01*
X66484291Y-109196302D01*
X66472467Y-109163800D01*
X66465340Y-109147834D01*
X66442000Y-109105406D01*
X66413880Y-109075640D01*
X66382940Y-109054911D01*
X66320966Y-109027937D01*
X66241651Y-109008398D01*
X66149253Y-108997146D01*
X66082333Y-108994670D01*
X65994844Y-108994222D01*
X65994844Y-109434489D01*
X65838225Y-109434489D01*
X65837668Y-109413421D01*
X65837050Y-109352711D01*
X65836825Y-109273926D01*
X65836800Y-109212320D01*
X65836800Y-108902885D01*
X65864509Y-108875176D01*
X65876806Y-108863944D01*
X65890103Y-108856253D01*
X65908672Y-108851440D01*
X65936786Y-108848846D01*
X65978717Y-108847810D01*
X66038737Y-108847670D01*
X66042309Y-108847675D01*
G36*
X68768665Y-108849434D02*
X68788255Y-108856435D01*
X68789010Y-108856777D01*
X68815613Y-108877078D01*
X68830270Y-108897961D01*
X68833138Y-108907752D01*
X68832996Y-108920761D01*
X68828961Y-108939295D01*
X68820146Y-108965657D01*
X68805669Y-109002152D01*
X68784645Y-109051087D01*
X68756188Y-109114765D01*
X68719415Y-109195493D01*
X68699175Y-109239616D01*
X68662625Y-109318385D01*
X68628315Y-109390823D01*
X68597552Y-109454280D01*
X68571648Y-109506108D01*
X68551910Y-109543659D01*
X68539650Y-109564284D01*
X68537224Y-109567133D01*
X68506183Y-109579702D01*
X68471121Y-109578019D01*
X68443000Y-109562732D01*
X68441854Y-109561489D01*
X68430668Y-109544554D01*
X68411904Y-109511570D01*
X68387875Y-109466780D01*
X68360897Y-109414432D01*
X68351201Y-109395142D01*
X68278014Y-109248550D01*
X68198240Y-109407793D01*
X68169767Y-109462815D01*
X68143350Y-109510532D01*
X68121148Y-109547293D01*
X68105319Y-109569444D01*
X68099954Y-109574141D01*
X68058257Y-109580502D01*
X68023849Y-109567133D01*
X68013728Y-109552846D01*
X67996214Y-109521092D01*
X67972735Y-109474997D01*
X67944720Y-109417685D01*
X67913599Y-109352280D01*
X67880799Y-109281907D01*
X67847750Y-109209691D01*
X67815881Y-109138755D01*
X67786619Y-109072225D01*
X67761395Y-109013226D01*
X67741636Y-108964881D01*
X67728772Y-108930315D01*
X67724231Y-108912653D01*
X67724277Y-108912013D01*
X67735326Y-108889788D01*
X67757410Y-108867153D01*
X67758710Y-108866168D01*
X67785853Y-108850825D01*
X67810958Y-108850974D01*
X67820368Y-108853866D01*
X67831834Y-108860118D01*
X67844010Y-108872414D01*
X67858357Y-108893308D01*
X67876336Y-108925349D01*
X67899407Y-108971088D01*
X67929030Y-109033077D01*
X67955745Y-109090298D01*
X67986480Y-109156626D01*
X68014021Y-109216274D01*
X68036938Y-109266125D01*
X68053798Y-109303064D01*
X68063173Y-109323973D01*
X68064540Y-109327245D01*
X68070689Y-109321897D01*
X68084822Y-109299509D01*
X68105057Y-109263346D01*
X68129515Y-109216677D01*
X68139248Y-109197422D01*
X68172217Y-109132404D01*
X68197643Y-109085054D01*
X68217612Y-109052619D01*
X68234210Y-109032346D01*
X68249524Y-109021482D01*
X68265640Y-109017275D01*
X68276143Y-109016800D01*
X68294670Y-109018442D01*
X68310904Y-109025231D01*
X68327035Y-109039966D01*
X68345251Y-109065444D01*
X68367739Y-109104461D01*
X68396689Y-109159814D01*
X68412662Y-109191303D01*
X68438570Y-109241487D01*
X68461167Y-109283104D01*
X68478458Y-109312642D01*
X68488450Y-109326589D01*
X68489809Y-109327170D01*
X68496261Y-109316193D01*
X68510708Y-109287690D01*
X68531703Y-109244644D01*
X68557797Y-109190038D01*
X68587546Y-109126854D01*
X68602180Y-109095471D01*
X68640250Y-109014478D01*
X68670905Y-108952156D01*
X68695737Y-108906471D01*
X68716337Y-108875389D01*
X68734298Y-108856878D01*
X68751210Y-108848904D01*
X68768665Y-108849434D01*
X68768665Y-108849434D01*
G37*
X68768665Y-108849434D02*
X68788255Y-108856435D01*
X68789010Y-108856777D01*
X68815613Y-108877078D01*
X68830270Y-108897961D01*
X68833138Y-108907752D01*
X68832996Y-108920761D01*
X68828961Y-108939295D01*
X68820146Y-108965657D01*
X68805669Y-109002152D01*
X68784645Y-109051087D01*
X68756188Y-109114765D01*
X68719415Y-109195493D01*
X68699175Y-109239616D01*
X68662625Y-109318385D01*
X68628315Y-109390823D01*
X68597552Y-109454280D01*
X68571648Y-109506108D01*
X68551910Y-109543659D01*
X68539650Y-109564284D01*
X68537224Y-109567133D01*
X68506183Y-109579702D01*
X68471121Y-109578019D01*
X68443000Y-109562732D01*
X68441854Y-109561489D01*
X68430668Y-109544554D01*
X68411904Y-109511570D01*
X68387875Y-109466780D01*
X68360897Y-109414432D01*
X68351201Y-109395142D01*
X68278014Y-109248550D01*
X68198240Y-109407793D01*
X68169767Y-109462815D01*
X68143350Y-109510532D01*
X68121148Y-109547293D01*
X68105319Y-109569444D01*
X68099954Y-109574141D01*
X68058257Y-109580502D01*
X68023849Y-109567133D01*
X68013728Y-109552846D01*
X67996214Y-109521092D01*
X67972735Y-109474997D01*
X67944720Y-109417685D01*
X67913599Y-109352280D01*
X67880799Y-109281907D01*
X67847750Y-109209691D01*
X67815881Y-109138755D01*
X67786619Y-109072225D01*
X67761395Y-109013226D01*
X67741636Y-108964881D01*
X67728772Y-108930315D01*
X67724231Y-108912653D01*
X67724277Y-108912013D01*
X67735326Y-108889788D01*
X67757410Y-108867153D01*
X67758710Y-108866168D01*
X67785853Y-108850825D01*
X67810958Y-108850974D01*
X67820368Y-108853866D01*
X67831834Y-108860118D01*
X67844010Y-108872414D01*
X67858357Y-108893308D01*
X67876336Y-108925349D01*
X67899407Y-108971088D01*
X67929030Y-109033077D01*
X67955745Y-109090298D01*
X67986480Y-109156626D01*
X68014021Y-109216274D01*
X68036938Y-109266125D01*
X68053798Y-109303064D01*
X68063173Y-109323973D01*
X68064540Y-109327245D01*
X68070689Y-109321897D01*
X68084822Y-109299509D01*
X68105057Y-109263346D01*
X68129515Y-109216677D01*
X68139248Y-109197422D01*
X68172217Y-109132404D01*
X68197643Y-109085054D01*
X68217612Y-109052619D01*
X68234210Y-109032346D01*
X68249524Y-109021482D01*
X68265640Y-109017275D01*
X68276143Y-109016800D01*
X68294670Y-109018442D01*
X68310904Y-109025231D01*
X68327035Y-109039966D01*
X68345251Y-109065444D01*
X68367739Y-109104461D01*
X68396689Y-109159814D01*
X68412662Y-109191303D01*
X68438570Y-109241487D01*
X68461167Y-109283104D01*
X68478458Y-109312642D01*
X68488450Y-109326589D01*
X68489809Y-109327170D01*
X68496261Y-109316193D01*
X68510708Y-109287690D01*
X68531703Y-109244644D01*
X68557797Y-109190038D01*
X68587546Y-109126854D01*
X68602180Y-109095471D01*
X68640250Y-109014478D01*
X68670905Y-108952156D01*
X68695737Y-108906471D01*
X68716337Y-108875389D01*
X68734298Y-108856878D01*
X68751210Y-108848904D01*
X68768665Y-108849434D01*
G36*
X69212614Y-108854277D02*
X69236327Y-108869047D01*
X69262978Y-108890627D01*
X69262978Y-109212173D01*
X69262893Y-109306230D01*
X69262529Y-109380332D01*
X69261724Y-109437104D01*
X69260313Y-109479168D01*
X69258133Y-109509148D01*
X69255021Y-109529667D01*
X69250814Y-109543349D01*
X69245348Y-109552816D01*
X69241472Y-109557482D01*
X69210034Y-109577975D01*
X69174233Y-109577139D01*
X69142873Y-109559664D01*
X69116222Y-109538084D01*
X69116222Y-108890627D01*
X69142873Y-108869047D01*
X69168594Y-108853349D01*
X69189600Y-108847467D01*
X69212614Y-108854277D01*
X69212614Y-108854277D01*
G37*
X69212614Y-108854277D02*
X69236327Y-108869047D01*
X69262978Y-108890627D01*
X69262978Y-109212173D01*
X69262893Y-109306230D01*
X69262529Y-109380332D01*
X69261724Y-109437104D01*
X69260313Y-109479168D01*
X69258133Y-109509148D01*
X69255021Y-109529667D01*
X69250814Y-109543349D01*
X69245348Y-109552816D01*
X69241472Y-109557482D01*
X69210034Y-109577975D01*
X69174233Y-109577139D01*
X69142873Y-109559664D01*
X69116222Y-109538084D01*
X69116222Y-108890627D01*
X69142873Y-108869047D01*
X69168594Y-108853349D01*
X69189600Y-108847467D01*
X69212614Y-108854277D01*
G36*
X69987065Y-108847563D02*
X70065772Y-108847942D01*
X70126863Y-108848733D01*
X70172817Y-108850070D01*
X70206114Y-108852083D01*
X70229236Y-108854906D01*
X70244662Y-108858669D01*
X70254871Y-108863505D01*
X70259813Y-108867222D01*
X70285457Y-108899758D01*
X70288559Y-108933538D01*
X70272711Y-108964226D01*
X70262348Y-108976489D01*
X70251196Y-108984850D01*
X70235035Y-108990057D01*
X70209642Y-108992857D01*
X70170798Y-108993996D01*
X70114280Y-108994221D01*
X70103180Y-108994222D01*
X69957244Y-108994222D01*
X69957244Y-109265156D01*
X69957148Y-109350554D01*
X69956711Y-109416264D01*
X69955712Y-109465174D01*
X69953928Y-109500173D01*
X69951137Y-109524149D01*
X69947117Y-109539993D01*
X69941645Y-109550591D01*
X69934666Y-109558667D01*
X69901734Y-109578512D01*
X69867354Y-109576948D01*
X69836176Y-109554306D01*
X69833886Y-109551500D01*
X69826429Y-109540892D01*
X69820747Y-109528481D01*
X69816601Y-109511250D01*
X69813750Y-109486184D01*
X69811954Y-109450267D01*
X69810972Y-109400483D01*
X69810564Y-109333817D01*
X69810489Y-109257989D01*
X69810489Y-108994222D01*
X69671127Y-108994222D01*
X69611322Y-108993818D01*
X69569918Y-108992240D01*
X69542748Y-108988947D01*
X69525646Y-108983392D01*
X69514443Y-108975031D01*
X69513083Y-108973578D01*
X69496725Y-108940339D01*
X69498172Y-108902762D01*
X69516978Y-108870045D01*
X69524250Y-108863698D01*
X69533627Y-108858666D01*
X69547609Y-108854796D01*
X69568696Y-108851937D01*
X69599389Y-108849935D01*
X69642189Y-108848639D01*
X69699595Y-108847898D01*
X69774110Y-108847558D01*
X69868233Y-108847468D01*
X69888260Y-108847467D01*
X69987065Y-108847563D01*
X69987065Y-108847563D01*
G37*
X69987065Y-108847563D02*
X70065772Y-108847942D01*
X70126863Y-108848733D01*
X70172817Y-108850070D01*
X70206114Y-108852083D01*
X70229236Y-108854906D01*
X70244662Y-108858669D01*
X70254871Y-108863505D01*
X70259813Y-108867222D01*
X70285457Y-108899758D01*
X70288559Y-108933538D01*
X70272711Y-108964226D01*
X70262348Y-108976489D01*
X70251196Y-108984850D01*
X70235035Y-108990057D01*
X70209642Y-108992857D01*
X70170798Y-108993996D01*
X70114280Y-108994221D01*
X70103180Y-108994222D01*
X69957244Y-108994222D01*
X69957244Y-109265156D01*
X69957148Y-109350554D01*
X69956711Y-109416264D01*
X69955712Y-109465174D01*
X69953928Y-109500173D01*
X69951137Y-109524149D01*
X69947117Y-109539993D01*
X69941645Y-109550591D01*
X69934666Y-109558667D01*
X69901734Y-109578512D01*
X69867354Y-109576948D01*
X69836176Y-109554306D01*
X69833886Y-109551500D01*
X69826429Y-109540892D01*
X69820747Y-109528481D01*
X69816601Y-109511250D01*
X69813750Y-109486184D01*
X69811954Y-109450267D01*
X69810972Y-109400483D01*
X69810564Y-109333817D01*
X69810489Y-109257989D01*
X69810489Y-108994222D01*
X69671127Y-108994222D01*
X69611322Y-108993818D01*
X69569918Y-108992240D01*
X69542748Y-108988947D01*
X69525646Y-108983392D01*
X69514443Y-108975031D01*
X69513083Y-108973578D01*
X69496725Y-108940339D01*
X69498172Y-108902762D01*
X69516978Y-108870045D01*
X69524250Y-108863698D01*
X69533627Y-108858666D01*
X69547609Y-108854796D01*
X69568696Y-108851937D01*
X69599389Y-108849935D01*
X69642189Y-108848639D01*
X69699595Y-108847898D01*
X69774110Y-108847558D01*
X69868233Y-108847468D01*
X69888260Y-108847467D01*
X69987065Y-108847563D01*
G36*
X71252823Y-108852933D02*
X71284202Y-108875176D01*
X71311911Y-108902885D01*
X71311911Y-109212320D01*
X71311838Y-109304199D01*
X71311495Y-109376240D01*
X71310692Y-109431180D01*
X71309241Y-109471760D01*
X71306952Y-109500717D01*
X71303636Y-109520791D01*
X71299105Y-109534721D01*
X71293169Y-109545245D01*
X71288514Y-109551500D01*
X71257783Y-109576073D01*
X71222496Y-109578741D01*
X71190245Y-109563671D01*
X71179588Y-109554774D01*
X71172464Y-109542957D01*
X71168167Y-109523926D01*
X71165991Y-109493392D01*
X71165228Y-109447062D01*
X71165155Y-109411271D01*
X71165155Y-109276445D01*
X70668444Y-109276445D01*
X70668444Y-109399100D01*
X70667931Y-109455187D01*
X70665876Y-109493733D01*
X70661508Y-109519761D01*
X70654056Y-109538297D01*
X70645047Y-109551500D01*
X70614144Y-109576004D01*
X70579196Y-109578906D01*
X70545738Y-109561489D01*
X70536604Y-109552359D01*
X70530152Y-109540255D01*
X70525897Y-109521401D01*
X70523352Y-109492020D01*
X70522029Y-109448337D01*
X70521443Y-109386575D01*
X70521375Y-109372400D01*
X70520891Y-109256031D01*
X70520641Y-109160127D01*
X70520723Y-109082577D01*
X70521231Y-109021269D01*
X70522262Y-108974090D01*
X70523913Y-108938930D01*
X70526279Y-108913676D01*
X70529457Y-108896217D01*
X70533544Y-108884441D01*
X70538634Y-108876235D01*
X70544266Y-108870045D01*
X70576128Y-108850244D01*
X70609357Y-108852933D01*
X70640735Y-108875176D01*
X70653433Y-108889526D01*
X70661526Y-108905378D01*
X70666042Y-108927954D01*
X70668006Y-108962478D01*
X70668444Y-109014176D01*
X70668444Y-109129689D01*
X71165155Y-109129689D01*
X71165155Y-109011156D01*
X71165662Y-108956548D01*
X71167698Y-108919675D01*
X71172035Y-108895707D01*
X71179447Y-108879815D01*
X71187733Y-108870045D01*
X71219594Y-108850244D01*
X71252823Y-108852933D01*
X71252823Y-108852933D01*
G37*
X71252823Y-108852933D02*
X71284202Y-108875176D01*
X71311911Y-108902885D01*
X71311911Y-109212320D01*
X71311838Y-109304199D01*
X71311495Y-109376240D01*
X71310692Y-109431180D01*
X71309241Y-109471760D01*
X71306952Y-109500717D01*
X71303636Y-109520791D01*
X71299105Y-109534721D01*
X71293169Y-109545245D01*
X71288514Y-109551500D01*
X71257783Y-109576073D01*
X71222496Y-109578741D01*
X71190245Y-109563671D01*
X71179588Y-109554774D01*
X71172464Y-109542957D01*
X71168167Y-109523926D01*
X71165991Y-109493392D01*
X71165228Y-109447062D01*
X71165155Y-109411271D01*
X71165155Y-109276445D01*
X70668444Y-109276445D01*
X70668444Y-109399100D01*
X70667931Y-109455187D01*
X70665876Y-109493733D01*
X70661508Y-109519761D01*
X70654056Y-109538297D01*
X70645047Y-109551500D01*
X70614144Y-109576004D01*
X70579196Y-109578906D01*
X70545738Y-109561489D01*
X70536604Y-109552359D01*
X70530152Y-109540255D01*
X70525897Y-109521401D01*
X70523352Y-109492020D01*
X70522029Y-109448337D01*
X70521443Y-109386575D01*
X70521375Y-109372400D01*
X70520891Y-109256031D01*
X70520641Y-109160127D01*
X70520723Y-109082577D01*
X70521231Y-109021269D01*
X70522262Y-108974090D01*
X70523913Y-108938930D01*
X70526279Y-108913676D01*
X70529457Y-108896217D01*
X70533544Y-108884441D01*
X70538634Y-108876235D01*
X70544266Y-108870045D01*
X70576128Y-108850244D01*
X70609357Y-108852933D01*
X70640735Y-108875176D01*
X70653433Y-108889526D01*
X70661526Y-108905378D01*
X70666042Y-108927954D01*
X70668006Y-108962478D01*
X70668444Y-109014176D01*
X70668444Y-109129689D01*
X71165155Y-109129689D01*
X71165155Y-109011156D01*
X71165662Y-108956548D01*
X71167698Y-108919675D01*
X71172035Y-108895707D01*
X71179447Y-108879815D01*
X71187733Y-108870045D01*
X71219594Y-108850244D01*
X71252823Y-108852933D01*
G36*
X62077600Y-104067454D02*
X62088465Y-104181393D01*
X62120082Y-104289016D01*
X62170985Y-104388015D01*
X62239707Y-104476084D01*
X62324781Y-104550916D01*
X62421768Y-104608784D01*
X62528036Y-104648405D01*
X62635050Y-104666973D01*
X62740700Y-104665834D01*
X62842875Y-104646330D01*
X62939466Y-104609806D01*
X63028362Y-104557605D01*
X63107454Y-104491073D01*
X63174631Y-104411552D01*
X63227783Y-104320387D01*
X63264801Y-104218923D01*
X63283573Y-104108502D01*
X63285511Y-104058606D01*
X63285511Y-103970667D01*
X63337440Y-103970667D01*
X63373747Y-103973511D01*
X63400645Y-103985311D01*
X63427751Y-104009049D01*
X63466133Y-104047431D01*
X63466133Y-106239002D01*
X63466124Y-106501139D01*
X63466092Y-106741641D01*
X63466028Y-106961448D01*
X63465924Y-107161501D01*
X63465773Y-107342744D01*
X63465566Y-107506116D01*
X63465294Y-107652560D01*
X63464950Y-107783017D01*
X63464526Y-107898429D01*
X63464013Y-107999738D01*
X63463403Y-108087884D01*
X63462688Y-108163810D01*
X63461860Y-108228457D01*
X63460911Y-108282767D01*
X63459833Y-108327680D01*
X63458617Y-108364140D01*
X63457255Y-108393087D01*
X63455739Y-108415463D01*
X63454062Y-108432209D01*
X63452214Y-108444268D01*
X63450187Y-108452580D01*
X63447975Y-108458087D01*
X63446892Y-108459937D01*
X63442729Y-108466949D01*
X63439195Y-108473396D01*
X63435365Y-108479300D01*
X63430318Y-108484686D01*
X63423129Y-108489578D01*
X63412877Y-108493998D01*
X63398636Y-108497972D01*
X63379486Y-108501521D01*
X63354501Y-108504670D01*
X63322760Y-108507442D01*
X63283338Y-108509861D01*
X63235314Y-108511951D01*
X63177763Y-108513735D01*
X63109763Y-108515237D01*
X63030390Y-108516480D01*
X62938721Y-108517489D01*
X62833834Y-108518285D01*
X62714804Y-108518894D01*
X62580710Y-108519339D01*
X62430627Y-108519643D01*
X62263633Y-108519830D01*
X62078804Y-108519924D01*
X61875217Y-108519948D01*
X61651950Y-108519925D01*
X61408078Y-108519880D01*
X61142679Y-108519837D01*
X61104296Y-108519832D01*
X60837318Y-108519789D01*
X60591998Y-108519718D01*
X60367417Y-108519613D01*
X60162655Y-108519466D01*
X59976794Y-108519269D01*
X59808912Y-108519016D01*
X59658092Y-108518700D01*
X59523413Y-108518313D01*
X59403956Y-108517847D01*
X59298801Y-108517297D01*
X59207029Y-108516653D01*
X59127721Y-108515911D01*
X59059957Y-108515061D01*
X59002818Y-108514097D01*
X58955383Y-108513011D01*
X58916734Y-108511797D01*
X58885951Y-108510447D01*
X58862115Y-108508955D01*
X58844306Y-108507311D01*
X58831605Y-108505511D01*
X58823092Y-108503545D01*
X58818734Y-108501877D01*
X58810272Y-108498306D01*
X58802503Y-108495670D01*
X58795398Y-108493034D01*
X58788927Y-108489462D01*
X58783061Y-108484021D01*
X58777771Y-108475775D01*
X58773026Y-108463790D01*
X58768798Y-108447131D01*
X58765057Y-108424863D01*
X58761773Y-108396052D01*
X58758917Y-108359763D01*
X58756460Y-108315061D01*
X58754371Y-108261011D01*
X58752622Y-108196679D01*
X58751183Y-108121130D01*
X58750024Y-108033430D01*
X58749117Y-107932643D01*
X58748431Y-107817834D01*
X58747937Y-107688070D01*
X58747605Y-107542415D01*
X58747407Y-107379935D01*
X58747313Y-107199695D01*
X58747292Y-107000760D01*
X58747315Y-106782196D01*
X58747354Y-106543068D01*
X58747378Y-106282440D01*
X58747378Y-106240289D01*
X58747364Y-105977392D01*
X58747339Y-105736132D01*
X58747329Y-105515565D01*
X58747358Y-105314752D01*
X58747452Y-105132749D01*
X58747638Y-104968616D01*
X58747941Y-104821411D01*
X58748386Y-104690192D01*
X58748966Y-104580267D01*
X59051803Y-104580267D01*
X59091593Y-104638111D01*
X59102764Y-104653879D01*
X59112834Y-104667841D01*
X59121862Y-104681184D01*
X59129903Y-104695093D01*
X59137014Y-104710756D01*
X59143253Y-104729358D01*
X59148675Y-104752086D01*
X59153338Y-104780127D01*
X59157299Y-104814667D01*
X59160615Y-104856892D01*
X59163341Y-104907989D01*
X59165536Y-104969144D01*
X59167255Y-105041544D01*
X59168556Y-105126375D01*
X59169495Y-105224822D01*
X59170130Y-105338074D01*
X59170516Y-105467316D01*
X59170712Y-105613734D01*
X59170773Y-105778516D01*
X59170757Y-105962847D01*
X59170720Y-106167913D01*
X59170711Y-106290533D01*
X59170735Y-106507482D01*
X59170769Y-106703042D01*
X59170757Y-106878399D01*
X59170642Y-107034741D01*
X59170370Y-107173257D01*
X59169882Y-107295134D01*
X59169124Y-107401560D01*
X59168038Y-107493722D01*
X59166569Y-107572809D01*
X59164660Y-107640008D01*
X59162256Y-107696507D01*
X59159299Y-107743493D01*
X59155734Y-107782155D01*
X59151505Y-107813680D01*
X59146554Y-107839255D01*
X59140827Y-107860070D01*
X59134267Y-107877311D01*
X59126817Y-107892165D01*
X59118421Y-107905822D01*
X59109024Y-107919469D01*
X59098568Y-107934293D01*
X59092477Y-107943183D01*
X59053704Y-108000800D01*
X59585268Y-108000800D01*
X59708517Y-108000765D01*
X59811013Y-108000615D01*
X59894580Y-108000278D01*
X59961044Y-107999686D01*
X60012229Y-107998767D01*
X60049959Y-107997451D01*
X60076060Y-107995669D01*
X60092356Y-107993351D01*
X60100672Y-107990426D01*
X60102832Y-107986824D01*
X60100661Y-107982475D01*
X60099465Y-107981045D01*
X60074315Y-107943973D01*
X60048417Y-107891172D01*
X60024808Y-107829170D01*
X60016539Y-107802757D01*
X60011922Y-107784816D01*
X60008021Y-107763755D01*
X60004752Y-107737489D01*
X60002034Y-107703932D01*
X59999785Y-107660999D01*
X59997923Y-107606604D01*
X59996364Y-107538662D01*
X59995028Y-107455088D01*
X59993831Y-107353795D01*
X59992692Y-107232700D01*
X59992315Y-107188000D01*
X59991298Y-107062849D01*
X59990540Y-106958482D01*
X59990097Y-106873107D01*
X59990030Y-106804933D01*
X59990395Y-106752165D01*
X59991252Y-106713014D01*
X59992659Y-106685685D01*
X59994675Y-106668386D01*
X59997357Y-106659326D01*
X60000764Y-106656712D01*
X60004956Y-106658751D01*
X60009429Y-106663067D01*
X60019784Y-106676002D01*
X60041842Y-106705076D01*
X60074043Y-106748159D01*
X60114826Y-106803118D01*
X60162630Y-106867823D01*
X60215895Y-106940142D01*
X60273060Y-107017944D01*
X60332563Y-107099098D01*
X60392845Y-107181472D01*
X60452345Y-107262936D01*
X60509502Y-107341357D01*
X60562755Y-107414604D01*
X60610543Y-107480547D01*
X60651307Y-107537054D01*
X60683484Y-107581993D01*
X60705515Y-107613234D01*
X60710083Y-107619866D01*
X60733004Y-107656769D01*
X60759812Y-107704759D01*
X60785211Y-107754297D01*
X60788432Y-107760977D01*
X60810110Y-107809172D01*
X60822696Y-107846734D01*
X60828426Y-107882560D01*
X60829544Y-107924600D01*
X60828910Y-108000800D01*
X61983349Y-108000800D01*
X61892185Y-107907069D01*
X61845388Y-107857175D01*
X61795101Y-107800695D01*
X61749056Y-107746426D01*
X61728631Y-107721073D01*
X61698193Y-107681528D01*
X61658138Y-107628316D01*
X61609639Y-107563067D01*
X61553865Y-107487411D01*
X61491989Y-107402977D01*
X61425181Y-107311394D01*
X61354613Y-107214292D01*
X61281455Y-107113301D01*
X61206879Y-107010050D01*
X61132056Y-106906168D01*
X61058157Y-106803285D01*
X60986354Y-106703031D01*
X60917816Y-106607036D01*
X60853716Y-106516927D01*
X60795225Y-106434336D01*
X60743514Y-106360892D01*
X60699753Y-106298224D01*
X60665115Y-106247961D01*
X60640770Y-106211734D01*
X60627889Y-106191171D01*
X60626131Y-106187068D01*
X60634090Y-106175742D01*
X60654885Y-106148562D01*
X60687153Y-106107229D01*
X60729530Y-106053444D01*
X60780653Y-105988906D01*
X60839159Y-105915318D01*
X60903686Y-105834378D01*
X60972869Y-105747788D01*
X61045347Y-105657248D01*
X61119754Y-105564460D01*
X61179483Y-105490102D01*
X62190489Y-105490102D01*
X62196398Y-105503059D01*
X62210728Y-105525308D01*
X62211775Y-105526791D01*
X62230562Y-105556944D01*
X62250209Y-105593775D01*
X62254108Y-105601911D01*
X62257644Y-105610340D01*
X62260770Y-105620459D01*
X62263514Y-105633660D01*
X62265908Y-105651338D01*
X62267981Y-105674884D01*
X62269765Y-105705693D01*
X62271288Y-105745157D01*
X62272581Y-105794669D01*
X62273674Y-105855623D01*
X62274597Y-105929411D01*
X62275381Y-106017428D01*
X62276055Y-106121065D01*
X62276650Y-106241716D01*
X62277195Y-106380774D01*
X62277721Y-106539632D01*
X62278255Y-106718489D01*
X62278794Y-106903607D01*
X62279228Y-107067545D01*
X62279491Y-107211703D01*
X62279516Y-107337479D01*
X62279235Y-107446271D01*
X62278581Y-107539477D01*
X62277486Y-107618497D01*
X62275882Y-107684728D01*
X62273703Y-107739570D01*
X62270881Y-107784421D01*
X62267349Y-107820678D01*
X62263039Y-107849741D01*
X62257883Y-107873009D01*
X62251815Y-107891879D01*
X62244767Y-107907751D01*
X62236671Y-107922022D01*
X62227460Y-107936091D01*
X62218960Y-107948558D01*
X62201824Y-107974852D01*
X62191678Y-107992437D01*
X62190489Y-107995657D01*
X62201396Y-107996734D01*
X62232589Y-107997735D01*
X62281777Y-107998635D01*
X62346667Y-107999410D01*
X62424970Y-108000037D01*
X62514393Y-108000491D01*
X62612644Y-108000749D01*
X62681555Y-108000800D01*
X62786548Y-108000580D01*
X62883390Y-107999948D01*
X62969893Y-107998949D01*
X63043868Y-107997627D01*
X63103126Y-107996026D01*
X63145480Y-107994191D01*
X63168740Y-107992165D01*
X63172622Y-107990893D01*
X63164924Y-107975991D01*
X63156926Y-107967960D01*
X63143754Y-107950834D01*
X63126515Y-107920583D01*
X63114593Y-107896022D01*
X63087955Y-107837111D01*
X63084880Y-106660245D01*
X63081805Y-105483378D01*
X62636147Y-105483378D01*
X62538330Y-105483542D01*
X62447936Y-105484011D01*
X62367370Y-105484747D01*
X62299038Y-105485716D01*
X62245344Y-105486880D01*
X62208695Y-105488203D01*
X62191496Y-105489649D01*
X62190489Y-105490102D01*
X61179483Y-105490102D01*
X61194730Y-105471122D01*
X61268910Y-105378937D01*
X61340931Y-105289604D01*
X61409431Y-105204824D01*
X61473045Y-105126298D01*
X61530412Y-105055726D01*
X61580167Y-104994809D01*
X61620948Y-104945247D01*
X61638112Y-104924578D01*
X61724404Y-104823916D01*
X61801003Y-104740659D01*
X61869817Y-104672838D01*
X61932752Y-104618489D01*
X61942133Y-104611122D01*
X61981644Y-104580517D01*
X60849884Y-104580267D01*
X60855173Y-104628244D01*
X60851870Y-104685588D01*
X60830339Y-104753863D01*
X60790365Y-104833612D01*
X60745057Y-104905895D01*
X60728839Y-104928540D01*
X60700786Y-104966096D01*
X60662570Y-105016421D01*
X60615863Y-105077373D01*
X60562339Y-105146811D01*
X60503669Y-105222594D01*
X60441525Y-105302580D01*
X60377579Y-105384628D01*
X60313505Y-105466596D01*
X60250973Y-105546343D01*
X60191657Y-105621727D01*
X60137229Y-105690607D01*
X60089361Y-105750842D01*
X60049725Y-105800289D01*
X60019994Y-105836808D01*
X60001839Y-105858258D01*
X59998780Y-105861556D01*
X59995921Y-105853549D01*
X59993707Y-105823255D01*
X59992143Y-105770956D01*
X59991233Y-105696931D01*
X59990980Y-105601463D01*
X59991387Y-105484834D01*
X59992296Y-105364845D01*
X59993618Y-105232733D01*
X59995143Y-105120994D01*
X59997119Y-105027425D01*
X59999794Y-104949819D01*
X60003418Y-104885974D01*
X60008239Y-104833683D01*
X60014506Y-104790744D01*
X60022468Y-104754951D01*
X60032373Y-104724100D01*
X60044469Y-104695986D01*
X60059007Y-104668405D01*
X60073689Y-104643366D01*
X60111686Y-104580267D01*
X59051803Y-104580267D01*
X58748966Y-104580267D01*
X58748999Y-104574017D01*
X58749805Y-104471944D01*
X58750830Y-104383033D01*
X58752100Y-104306341D01*
X58753640Y-104240927D01*
X58755476Y-104185849D01*
X58757633Y-104140165D01*
X58760137Y-104102934D01*
X58763013Y-104073213D01*
X58766287Y-104050062D01*
X58769985Y-104032539D01*
X58774131Y-104019701D01*
X58778753Y-104010608D01*
X58783874Y-104004318D01*
X58789522Y-103999888D01*
X58795721Y-103996378D01*
X58802496Y-103992845D01*
X58808492Y-103989276D01*
X58813725Y-103986700D01*
X58821901Y-103984372D01*
X58834114Y-103982278D01*
X58851459Y-103980407D01*
X58875031Y-103978747D01*
X58905923Y-103977284D01*
X58945232Y-103976008D01*
X58994050Y-103974904D01*
X59053473Y-103973961D01*
X59124596Y-103973167D01*
X59208512Y-103972509D01*
X59306317Y-103971975D01*
X59419106Y-103971553D01*
X59547971Y-103971229D01*
X59694009Y-103970992D01*
X59858314Y-103970830D01*
X60041980Y-103970730D01*
X60246103Y-103970680D01*
X60457247Y-103970667D01*
X62077600Y-103970667D01*
X62077600Y-104067454D01*
X62077600Y-104067454D01*
G37*
X62077600Y-104067454D02*
X62088465Y-104181393D01*
X62120082Y-104289016D01*
X62170985Y-104388015D01*
X62239707Y-104476084D01*
X62324781Y-104550916D01*
X62421768Y-104608784D01*
X62528036Y-104648405D01*
X62635050Y-104666973D01*
X62740700Y-104665834D01*
X62842875Y-104646330D01*
X62939466Y-104609806D01*
X63028362Y-104557605D01*
X63107454Y-104491073D01*
X63174631Y-104411552D01*
X63227783Y-104320387D01*
X63264801Y-104218923D01*
X63283573Y-104108502D01*
X63285511Y-104058606D01*
X63285511Y-103970667D01*
X63337440Y-103970667D01*
X63373747Y-103973511D01*
X63400645Y-103985311D01*
X63427751Y-104009049D01*
X63466133Y-104047431D01*
X63466133Y-106239002D01*
X63466124Y-106501139D01*
X63466092Y-106741641D01*
X63466028Y-106961448D01*
X63465924Y-107161501D01*
X63465773Y-107342744D01*
X63465566Y-107506116D01*
X63465294Y-107652560D01*
X63464950Y-107783017D01*
X63464526Y-107898429D01*
X63464013Y-107999738D01*
X63463403Y-108087884D01*
X63462688Y-108163810D01*
X63461860Y-108228457D01*
X63460911Y-108282767D01*
X63459833Y-108327680D01*
X63458617Y-108364140D01*
X63457255Y-108393087D01*
X63455739Y-108415463D01*
X63454062Y-108432209D01*
X63452214Y-108444268D01*
X63450187Y-108452580D01*
X63447975Y-108458087D01*
X63446892Y-108459937D01*
X63442729Y-108466949D01*
X63439195Y-108473396D01*
X63435365Y-108479300D01*
X63430318Y-108484686D01*
X63423129Y-108489578D01*
X63412877Y-108493998D01*
X63398636Y-108497972D01*
X63379486Y-108501521D01*
X63354501Y-108504670D01*
X63322760Y-108507442D01*
X63283338Y-108509861D01*
X63235314Y-108511951D01*
X63177763Y-108513735D01*
X63109763Y-108515237D01*
X63030390Y-108516480D01*
X62938721Y-108517489D01*
X62833834Y-108518285D01*
X62714804Y-108518894D01*
X62580710Y-108519339D01*
X62430627Y-108519643D01*
X62263633Y-108519830D01*
X62078804Y-108519924D01*
X61875217Y-108519948D01*
X61651950Y-108519925D01*
X61408078Y-108519880D01*
X61142679Y-108519837D01*
X61104296Y-108519832D01*
X60837318Y-108519789D01*
X60591998Y-108519718D01*
X60367417Y-108519613D01*
X60162655Y-108519466D01*
X59976794Y-108519269D01*
X59808912Y-108519016D01*
X59658092Y-108518700D01*
X59523413Y-108518313D01*
X59403956Y-108517847D01*
X59298801Y-108517297D01*
X59207029Y-108516653D01*
X59127721Y-108515911D01*
X59059957Y-108515061D01*
X59002818Y-108514097D01*
X58955383Y-108513011D01*
X58916734Y-108511797D01*
X58885951Y-108510447D01*
X58862115Y-108508955D01*
X58844306Y-108507311D01*
X58831605Y-108505511D01*
X58823092Y-108503545D01*
X58818734Y-108501877D01*
X58810272Y-108498306D01*
X58802503Y-108495670D01*
X58795398Y-108493034D01*
X58788927Y-108489462D01*
X58783061Y-108484021D01*
X58777771Y-108475775D01*
X58773026Y-108463790D01*
X58768798Y-108447131D01*
X58765057Y-108424863D01*
X58761773Y-108396052D01*
X58758917Y-108359763D01*
X58756460Y-108315061D01*
X58754371Y-108261011D01*
X58752622Y-108196679D01*
X58751183Y-108121130D01*
X58750024Y-108033430D01*
X58749117Y-107932643D01*
X58748431Y-107817834D01*
X58747937Y-107688070D01*
X58747605Y-107542415D01*
X58747407Y-107379935D01*
X58747313Y-107199695D01*
X58747292Y-107000760D01*
X58747315Y-106782196D01*
X58747354Y-106543068D01*
X58747378Y-106282440D01*
X58747378Y-106240289D01*
X58747364Y-105977392D01*
X58747339Y-105736132D01*
X58747329Y-105515565D01*
X58747358Y-105314752D01*
X58747452Y-105132749D01*
X58747638Y-104968616D01*
X58747941Y-104821411D01*
X58748386Y-104690192D01*
X58748966Y-104580267D01*
X59051803Y-104580267D01*
X59091593Y-104638111D01*
X59102764Y-104653879D01*
X59112834Y-104667841D01*
X59121862Y-104681184D01*
X59129903Y-104695093D01*
X59137014Y-104710756D01*
X59143253Y-104729358D01*
X59148675Y-104752086D01*
X59153338Y-104780127D01*
X59157299Y-104814667D01*
X59160615Y-104856892D01*
X59163341Y-104907989D01*
X59165536Y-104969144D01*
X59167255Y-105041544D01*
X59168556Y-105126375D01*
X59169495Y-105224822D01*
X59170130Y-105338074D01*
X59170516Y-105467316D01*
X59170712Y-105613734D01*
X59170773Y-105778516D01*
X59170757Y-105962847D01*
X59170720Y-106167913D01*
X59170711Y-106290533D01*
X59170735Y-106507482D01*
X59170769Y-106703042D01*
X59170757Y-106878399D01*
X59170642Y-107034741D01*
X59170370Y-107173257D01*
X59169882Y-107295134D01*
X59169124Y-107401560D01*
X59168038Y-107493722D01*
X59166569Y-107572809D01*
X59164660Y-107640008D01*
X59162256Y-107696507D01*
X59159299Y-107743493D01*
X59155734Y-107782155D01*
X59151505Y-107813680D01*
X59146554Y-107839255D01*
X59140827Y-107860070D01*
X59134267Y-107877311D01*
X59126817Y-107892165D01*
X59118421Y-107905822D01*
X59109024Y-107919469D01*
X59098568Y-107934293D01*
X59092477Y-107943183D01*
X59053704Y-108000800D01*
X59585268Y-108000800D01*
X59708517Y-108000765D01*
X59811013Y-108000615D01*
X59894580Y-108000278D01*
X59961044Y-107999686D01*
X60012229Y-107998767D01*
X60049959Y-107997451D01*
X60076060Y-107995669D01*
X60092356Y-107993351D01*
X60100672Y-107990426D01*
X60102832Y-107986824D01*
X60100661Y-107982475D01*
X60099465Y-107981045D01*
X60074315Y-107943973D01*
X60048417Y-107891172D01*
X60024808Y-107829170D01*
X60016539Y-107802757D01*
X60011922Y-107784816D01*
X60008021Y-107763755D01*
X60004752Y-107737489D01*
X60002034Y-107703932D01*
X59999785Y-107660999D01*
X59997923Y-107606604D01*
X59996364Y-107538662D01*
X59995028Y-107455088D01*
X59993831Y-107353795D01*
X59992692Y-107232700D01*
X59992315Y-107188000D01*
X59991298Y-107062849D01*
X59990540Y-106958482D01*
X59990097Y-106873107D01*
X59990030Y-106804933D01*
X59990395Y-106752165D01*
X59991252Y-106713014D01*
X59992659Y-106685685D01*
X59994675Y-106668386D01*
X59997357Y-106659326D01*
X60000764Y-106656712D01*
X60004956Y-106658751D01*
X60009429Y-106663067D01*
X60019784Y-106676002D01*
X60041842Y-106705076D01*
X60074043Y-106748159D01*
X60114826Y-106803118D01*
X60162630Y-106867823D01*
X60215895Y-106940142D01*
X60273060Y-107017944D01*
X60332563Y-107099098D01*
X60392845Y-107181472D01*
X60452345Y-107262936D01*
X60509502Y-107341357D01*
X60562755Y-107414604D01*
X60610543Y-107480547D01*
X60651307Y-107537054D01*
X60683484Y-107581993D01*
X60705515Y-107613234D01*
X60710083Y-107619866D01*
X60733004Y-107656769D01*
X60759812Y-107704759D01*
X60785211Y-107754297D01*
X60788432Y-107760977D01*
X60810110Y-107809172D01*
X60822696Y-107846734D01*
X60828426Y-107882560D01*
X60829544Y-107924600D01*
X60828910Y-108000800D01*
X61983349Y-108000800D01*
X61892185Y-107907069D01*
X61845388Y-107857175D01*
X61795101Y-107800695D01*
X61749056Y-107746426D01*
X61728631Y-107721073D01*
X61698193Y-107681528D01*
X61658138Y-107628316D01*
X61609639Y-107563067D01*
X61553865Y-107487411D01*
X61491989Y-107402977D01*
X61425181Y-107311394D01*
X61354613Y-107214292D01*
X61281455Y-107113301D01*
X61206879Y-107010050D01*
X61132056Y-106906168D01*
X61058157Y-106803285D01*
X60986354Y-106703031D01*
X60917816Y-106607036D01*
X60853716Y-106516927D01*
X60795225Y-106434336D01*
X60743514Y-106360892D01*
X60699753Y-106298224D01*
X60665115Y-106247961D01*
X60640770Y-106211734D01*
X60627889Y-106191171D01*
X60626131Y-106187068D01*
X60634090Y-106175742D01*
X60654885Y-106148562D01*
X60687153Y-106107229D01*
X60729530Y-106053444D01*
X60780653Y-105988906D01*
X60839159Y-105915318D01*
X60903686Y-105834378D01*
X60972869Y-105747788D01*
X61045347Y-105657248D01*
X61119754Y-105564460D01*
X61179483Y-105490102D01*
X62190489Y-105490102D01*
X62196398Y-105503059D01*
X62210728Y-105525308D01*
X62211775Y-105526791D01*
X62230562Y-105556944D01*
X62250209Y-105593775D01*
X62254108Y-105601911D01*
X62257644Y-105610340D01*
X62260770Y-105620459D01*
X62263514Y-105633660D01*
X62265908Y-105651338D01*
X62267981Y-105674884D01*
X62269765Y-105705693D01*
X62271288Y-105745157D01*
X62272581Y-105794669D01*
X62273674Y-105855623D01*
X62274597Y-105929411D01*
X62275381Y-106017428D01*
X62276055Y-106121065D01*
X62276650Y-106241716D01*
X62277195Y-106380774D01*
X62277721Y-106539632D01*
X62278255Y-106718489D01*
X62278794Y-106903607D01*
X62279228Y-107067545D01*
X62279491Y-107211703D01*
X62279516Y-107337479D01*
X62279235Y-107446271D01*
X62278581Y-107539477D01*
X62277486Y-107618497D01*
X62275882Y-107684728D01*
X62273703Y-107739570D01*
X62270881Y-107784421D01*
X62267349Y-107820678D01*
X62263039Y-107849741D01*
X62257883Y-107873009D01*
X62251815Y-107891879D01*
X62244767Y-107907751D01*
X62236671Y-107922022D01*
X62227460Y-107936091D01*
X62218960Y-107948558D01*
X62201824Y-107974852D01*
X62191678Y-107992437D01*
X62190489Y-107995657D01*
X62201396Y-107996734D01*
X62232589Y-107997735D01*
X62281777Y-107998635D01*
X62346667Y-107999410D01*
X62424970Y-108000037D01*
X62514393Y-108000491D01*
X62612644Y-108000749D01*
X62681555Y-108000800D01*
X62786548Y-108000580D01*
X62883390Y-107999948D01*
X62969893Y-107998949D01*
X63043868Y-107997627D01*
X63103126Y-107996026D01*
X63145480Y-107994191D01*
X63168740Y-107992165D01*
X63172622Y-107990893D01*
X63164924Y-107975991D01*
X63156926Y-107967960D01*
X63143754Y-107950834D01*
X63126515Y-107920583D01*
X63114593Y-107896022D01*
X63087955Y-107837111D01*
X63084880Y-106660245D01*
X63081805Y-105483378D01*
X62636147Y-105483378D01*
X62538330Y-105483542D01*
X62447936Y-105484011D01*
X62367370Y-105484747D01*
X62299038Y-105485716D01*
X62245344Y-105486880D01*
X62208695Y-105488203D01*
X62191496Y-105489649D01*
X62190489Y-105490102D01*
X61179483Y-105490102D01*
X61194730Y-105471122D01*
X61268910Y-105378937D01*
X61340931Y-105289604D01*
X61409431Y-105204824D01*
X61473045Y-105126298D01*
X61530412Y-105055726D01*
X61580167Y-104994809D01*
X61620948Y-104945247D01*
X61638112Y-104924578D01*
X61724404Y-104823916D01*
X61801003Y-104740659D01*
X61869817Y-104672838D01*
X61932752Y-104618489D01*
X61942133Y-104611122D01*
X61981644Y-104580517D01*
X60849884Y-104580267D01*
X60855173Y-104628244D01*
X60851870Y-104685588D01*
X60830339Y-104753863D01*
X60790365Y-104833612D01*
X60745057Y-104905895D01*
X60728839Y-104928540D01*
X60700786Y-104966096D01*
X60662570Y-105016421D01*
X60615863Y-105077373D01*
X60562339Y-105146811D01*
X60503669Y-105222594D01*
X60441525Y-105302580D01*
X60377579Y-105384628D01*
X60313505Y-105466596D01*
X60250973Y-105546343D01*
X60191657Y-105621727D01*
X60137229Y-105690607D01*
X60089361Y-105750842D01*
X60049725Y-105800289D01*
X60019994Y-105836808D01*
X60001839Y-105858258D01*
X59998780Y-105861556D01*
X59995921Y-105853549D01*
X59993707Y-105823255D01*
X59992143Y-105770956D01*
X59991233Y-105696931D01*
X59990980Y-105601463D01*
X59991387Y-105484834D01*
X59992296Y-105364845D01*
X59993618Y-105232733D01*
X59995143Y-105120994D01*
X59997119Y-105027425D01*
X59999794Y-104949819D01*
X60003418Y-104885974D01*
X60008239Y-104833683D01*
X60014506Y-104790744D01*
X60022468Y-104754951D01*
X60032373Y-104724100D01*
X60044469Y-104695986D01*
X60059007Y-104668405D01*
X60073689Y-104643366D01*
X60111686Y-104580267D01*
X59051803Y-104580267D01*
X58748966Y-104580267D01*
X58748999Y-104574017D01*
X58749805Y-104471944D01*
X58750830Y-104383033D01*
X58752100Y-104306341D01*
X58753640Y-104240927D01*
X58755476Y-104185849D01*
X58757633Y-104140165D01*
X58760137Y-104102934D01*
X58763013Y-104073213D01*
X58766287Y-104050062D01*
X58769985Y-104032539D01*
X58774131Y-104019701D01*
X58778753Y-104010608D01*
X58783874Y-104004318D01*
X58789522Y-103999888D01*
X58795721Y-103996378D01*
X58802496Y-103992845D01*
X58808492Y-103989276D01*
X58813725Y-103986700D01*
X58821901Y-103984372D01*
X58834114Y-103982278D01*
X58851459Y-103980407D01*
X58875031Y-103978747D01*
X58905923Y-103977284D01*
X58945232Y-103976008D01*
X58994050Y-103974904D01*
X59053473Y-103973961D01*
X59124596Y-103973167D01*
X59208512Y-103972509D01*
X59306317Y-103971975D01*
X59419106Y-103971553D01*
X59547971Y-103971229D01*
X59694009Y-103970992D01*
X59858314Y-103970830D01*
X60041980Y-103970730D01*
X60246103Y-103970680D01*
X60457247Y-103970667D01*
X62077600Y-103970667D01*
X62077600Y-104067454D01*
G36*
X65352429Y-104527471D02*
X65512570Y-104548645D01*
X65676510Y-104588785D01*
X65846313Y-104648289D01*
X66024043Y-104727554D01*
X66035310Y-104733099D01*
X66093005Y-104761125D01*
X66144552Y-104785202D01*
X66186191Y-104803649D01*
X66214162Y-104814786D01*
X66223733Y-104817333D01*
X66242950Y-104822341D01*
X66247561Y-104826547D01*
X66242458Y-104836980D01*
X66226418Y-104863268D01*
X66201288Y-104902657D01*
X66168914Y-104952391D01*
X66131143Y-105009715D01*
X66089822Y-105071876D01*
X66046798Y-105136118D01*
X66003917Y-105199685D01*
X65963026Y-105259825D01*
X65925971Y-105313780D01*
X65894600Y-105358797D01*
X65870759Y-105392121D01*
X65856294Y-105410997D01*
X65854309Y-105413187D01*
X65844191Y-105408538D01*
X65821850Y-105391362D01*
X65791280Y-105364840D01*
X65775536Y-105350364D01*
X65679047Y-105275082D01*
X65572336Y-105219641D01*
X65456832Y-105184541D01*
X65333962Y-105170280D01*
X65264561Y-105171451D01*
X65143423Y-105188612D01*
X65034205Y-105224494D01*
X64936582Y-105279359D01*
X64850228Y-105353470D01*
X64774815Y-105447088D01*
X64710018Y-105560476D01*
X64672601Y-105647067D01*
X64628748Y-105782766D01*
X64596428Y-105930250D01*
X64575557Y-106085714D01*
X64566051Y-106245356D01*
X64567827Y-106405373D01*
X64580803Y-106561961D01*
X64604894Y-106711318D01*
X64640018Y-106849640D01*
X64686092Y-106973124D01*
X64702373Y-107007378D01*
X64770620Y-107121464D01*
X64851079Y-107217957D01*
X64942570Y-107296070D01*
X65043911Y-107355017D01*
X65153920Y-107394012D01*
X65271415Y-107412268D01*
X65312883Y-107413611D01*
X65434441Y-107402690D01*
X65554878Y-107369874D01*
X65672666Y-107315839D01*
X65786277Y-107241265D01*
X65877685Y-107162939D01*
X65924215Y-107118408D01*
X66105483Y-107415671D01*
X66150580Y-107489833D01*
X66191819Y-107558046D01*
X66227735Y-107617859D01*
X66256866Y-107666820D01*
X66277750Y-107702479D01*
X66288924Y-107722384D01*
X66290375Y-107725479D01*
X66282146Y-107735118D01*
X66256567Y-107752399D01*
X66216873Y-107775683D01*
X66166297Y-107803334D01*
X66108074Y-107833715D01*
X66045437Y-107865190D01*
X65981621Y-107896122D01*
X65919860Y-107924873D01*
X65863388Y-107949808D01*
X65815438Y-107969289D01*
X65791986Y-107977718D01*
X65658221Y-108015533D01*
X65520327Y-108040536D01*
X65372622Y-108053540D01*
X65245833Y-108055868D01*
X65177878Y-108054773D01*
X65112277Y-108052675D01*
X65054847Y-108049834D01*
X65011403Y-108046506D01*
X64997298Y-108044822D01*
X64858284Y-108015987D01*
X64716757Y-107970868D01*
X64579275Y-107912150D01*
X64452394Y-107842520D01*
X64374889Y-107789841D01*
X64247481Y-107681639D01*
X64129178Y-107555071D01*
X64022172Y-107413266D01*
X63928652Y-107259351D01*
X63850810Y-107096453D01*
X63806956Y-106979156D01*
X63756708Y-106795528D01*
X63723209Y-106600981D01*
X63706449Y-106399725D01*
X63706416Y-106195968D01*
X63723101Y-105993921D01*
X63756493Y-105797792D01*
X63806580Y-105611791D01*
X63810397Y-105600203D01*
X63873281Y-105438150D01*
X63950028Y-105290232D01*
X64043242Y-105152265D01*
X64155527Y-105020061D01*
X64199392Y-104974799D01*
X64335534Y-104850857D01*
X64475491Y-104748315D01*
X64621411Y-104666056D01*
X64775442Y-104602964D01*
X64939732Y-104557923D01*
X65035289Y-104540433D01*
X65194023Y-104524866D01*
X65352429Y-104527471D01*
X65352429Y-104527471D01*
G37*
X65352429Y-104527471D02*
X65512570Y-104548645D01*
X65676510Y-104588785D01*
X65846313Y-104648289D01*
X66024043Y-104727554D01*
X66035310Y-104733099D01*
X66093005Y-104761125D01*
X66144552Y-104785202D01*
X66186191Y-104803649D01*
X66214162Y-104814786D01*
X66223733Y-104817333D01*
X66242950Y-104822341D01*
X66247561Y-104826547D01*
X66242458Y-104836980D01*
X66226418Y-104863268D01*
X66201288Y-104902657D01*
X66168914Y-104952391D01*
X66131143Y-105009715D01*
X66089822Y-105071876D01*
X66046798Y-105136118D01*
X66003917Y-105199685D01*
X65963026Y-105259825D01*
X65925971Y-105313780D01*
X65894600Y-105358797D01*
X65870759Y-105392121D01*
X65856294Y-105410997D01*
X65854309Y-105413187D01*
X65844191Y-105408538D01*
X65821850Y-105391362D01*
X65791280Y-105364840D01*
X65775536Y-105350364D01*
X65679047Y-105275082D01*
X65572336Y-105219641D01*
X65456832Y-105184541D01*
X65333962Y-105170280D01*
X65264561Y-105171451D01*
X65143423Y-105188612D01*
X65034205Y-105224494D01*
X64936582Y-105279359D01*
X64850228Y-105353470D01*
X64774815Y-105447088D01*
X64710018Y-105560476D01*
X64672601Y-105647067D01*
X64628748Y-105782766D01*
X64596428Y-105930250D01*
X64575557Y-106085714D01*
X64566051Y-106245356D01*
X64567827Y-106405373D01*
X64580803Y-106561961D01*
X64604894Y-106711318D01*
X64640018Y-106849640D01*
X64686092Y-106973124D01*
X64702373Y-107007378D01*
X64770620Y-107121464D01*
X64851079Y-107217957D01*
X64942570Y-107296070D01*
X65043911Y-107355017D01*
X65153920Y-107394012D01*
X65271415Y-107412268D01*
X65312883Y-107413611D01*
X65434441Y-107402690D01*
X65554878Y-107369874D01*
X65672666Y-107315839D01*
X65786277Y-107241265D01*
X65877685Y-107162939D01*
X65924215Y-107118408D01*
X66105483Y-107415671D01*
X66150580Y-107489833D01*
X66191819Y-107558046D01*
X66227735Y-107617859D01*
X66256866Y-107666820D01*
X66277750Y-107702479D01*
X66288924Y-107722384D01*
X66290375Y-107725479D01*
X66282146Y-107735118D01*
X66256567Y-107752399D01*
X66216873Y-107775683D01*
X66166297Y-107803334D01*
X66108074Y-107833715D01*
X66045437Y-107865190D01*
X65981621Y-107896122D01*
X65919860Y-107924873D01*
X65863388Y-107949808D01*
X65815438Y-107969289D01*
X65791986Y-107977718D01*
X65658221Y-108015533D01*
X65520327Y-108040536D01*
X65372622Y-108053540D01*
X65245833Y-108055868D01*
X65177878Y-108054773D01*
X65112277Y-108052675D01*
X65054847Y-108049834D01*
X65011403Y-108046506D01*
X64997298Y-108044822D01*
X64858284Y-108015987D01*
X64716757Y-107970868D01*
X64579275Y-107912150D01*
X64452394Y-107842520D01*
X64374889Y-107789841D01*
X64247481Y-107681639D01*
X64129178Y-107555071D01*
X64022172Y-107413266D01*
X63928652Y-107259351D01*
X63850810Y-107096453D01*
X63806956Y-106979156D01*
X63756708Y-106795528D01*
X63723209Y-106600981D01*
X63706449Y-106399725D01*
X63706416Y-106195968D01*
X63723101Y-105993921D01*
X63756493Y-105797792D01*
X63806580Y-105611791D01*
X63810397Y-105600203D01*
X63873281Y-105438150D01*
X63950028Y-105290232D01*
X64043242Y-105152265D01*
X64155527Y-105020061D01*
X64199392Y-104974799D01*
X64335534Y-104850857D01*
X64475491Y-104748315D01*
X64621411Y-104666056D01*
X64775442Y-104602964D01*
X64939732Y-104557923D01*
X65035289Y-104540433D01*
X65194023Y-104524866D01*
X65352429Y-104527471D01*
G36*
X67697574Y-105444952D02*
X67849492Y-105464967D01*
X67984756Y-105498602D01*
X68104239Y-105546125D01*
X68208815Y-105607805D01*
X68286424Y-105671365D01*
X68355265Y-105745499D01*
X68409006Y-105825271D01*
X68451910Y-105917491D01*
X68467384Y-105960561D01*
X68480244Y-105999542D01*
X68491446Y-106035689D01*
X68501120Y-106070834D01*
X68509396Y-106106810D01*
X68516403Y-106145450D01*
X68522272Y-106188585D01*
X68527131Y-106238049D01*
X68531110Y-106295673D01*
X68534340Y-106363291D01*
X68536949Y-106442734D01*
X68539067Y-106535836D01*
X68540824Y-106644427D01*
X68542349Y-106770342D01*
X68543772Y-106915412D01*
X68545025Y-107058178D01*
X68546351Y-107214368D01*
X68547556Y-107349639D01*
X68548766Y-107465646D01*
X68550106Y-107564045D01*
X68551700Y-107646493D01*
X68553675Y-107714646D01*
X68556156Y-107770160D01*
X68559269Y-107814692D01*
X68563138Y-107849898D01*
X68567889Y-107877434D01*
X68573648Y-107898956D01*
X68580539Y-107916122D01*
X68588689Y-107930586D01*
X68598223Y-107944006D01*
X68609266Y-107958038D01*
X68613566Y-107963471D01*
X68629386Y-107986310D01*
X68636422Y-108001863D01*
X68636444Y-108002322D01*
X68625567Y-108004521D01*
X68594582Y-108006547D01*
X68545957Y-108008342D01*
X68482163Y-108009851D01*
X68405669Y-108011016D01*
X68318944Y-108011780D01*
X68224457Y-108012086D01*
X68213550Y-108012089D01*
X67790657Y-108012089D01*
X67787395Y-107916022D01*
X67784133Y-107819956D01*
X67722044Y-107870943D01*
X67624714Y-107938457D01*
X67514813Y-107993149D01*
X67428349Y-108023378D01*
X67359278Y-108038066D01*
X67275925Y-108048059D01*
X67186159Y-108053046D01*
X67097845Y-108052713D01*
X67018851Y-108046751D01*
X66982622Y-108041038D01*
X66842603Y-108003176D01*
X66716178Y-107948332D01*
X66604260Y-107877324D01*
X66507762Y-107790968D01*
X66427600Y-107690079D01*
X66364687Y-107575476D01*
X66320312Y-107449384D01*
X66307978Y-107392801D01*
X66300368Y-107330602D01*
X66296739Y-107255763D01*
X66296245Y-107221867D01*
X66296310Y-107218682D01*
X67056248Y-107218682D01*
X67065541Y-107293733D01*
X67093728Y-107357560D01*
X67142197Y-107413198D01*
X67147254Y-107417611D01*
X67195548Y-107452437D01*
X67247257Y-107475020D01*
X67307989Y-107486940D01*
X67383352Y-107489783D01*
X67401459Y-107489378D01*
X67455278Y-107486725D01*
X67495308Y-107481309D01*
X67530324Y-107471145D01*
X67569103Y-107454250D01*
X67579745Y-107449072D01*
X67640396Y-107413244D01*
X67687215Y-107370612D01*
X67699952Y-107355373D01*
X67744622Y-107298862D01*
X67744622Y-107102986D01*
X67744086Y-107024339D01*
X67742396Y-106966388D01*
X67739428Y-106927275D01*
X67735057Y-106905141D01*
X67730972Y-106898674D01*
X67715047Y-106895511D01*
X67681264Y-106892888D01*
X67634340Y-106891055D01*
X67578993Y-106890257D01*
X67570106Y-106890242D01*
X67449330Y-106895496D01*
X67346660Y-106911663D01*
X67260106Y-106939361D01*
X67187681Y-106979208D01*
X67132751Y-107026158D01*
X67088204Y-107084045D01*
X67063480Y-107147093D01*
X67056248Y-107218682D01*
X66296310Y-107218682D01*
X66298178Y-107128112D01*
X66306522Y-107049212D01*
X66322768Y-106977990D01*
X66348405Y-106907264D01*
X66372401Y-106854893D01*
X66431020Y-106759596D01*
X66509117Y-106671570D01*
X66604315Y-106592417D01*
X66714238Y-106523740D01*
X66836510Y-106467141D01*
X66968755Y-106424221D01*
X67033422Y-106409282D01*
X67169604Y-106387177D01*
X67318049Y-106372594D01*
X67469505Y-106366213D01*
X67596064Y-106367845D01*
X67757950Y-106374624D01*
X67750530Y-106315645D01*
X67731238Y-106216492D01*
X67700104Y-106135772D01*
X67656269Y-106072866D01*
X67598871Y-106027156D01*
X67527048Y-105998022D01*
X67439941Y-105984847D01*
X67336686Y-105987011D01*
X67298711Y-105991012D01*
X67157520Y-106016180D01*
X67020707Y-106057214D01*
X66926178Y-106095215D01*
X66881018Y-106114590D01*
X66842585Y-106130160D01*
X66816234Y-106139805D01*
X66808546Y-106141852D01*
X66798802Y-106132774D01*
X66782083Y-106103805D01*
X66758232Y-106054617D01*
X66727093Y-105984884D01*
X66688507Y-105894279D01*
X66681910Y-105878489D01*
X66651853Y-105806172D01*
X66624874Y-105740825D01*
X66602136Y-105685306D01*
X66584806Y-105642472D01*
X66574048Y-105615181D01*
X66570941Y-105606342D01*
X66580940Y-105601587D01*
X66607217Y-105596310D01*
X66635489Y-105592631D01*
X66665646Y-105587874D01*
X66713433Y-105578428D01*
X66774612Y-105565220D01*
X66844946Y-105549176D01*
X66920194Y-105531220D01*
X66948755Y-105524197D01*
X67053816Y-105498609D01*
X67141480Y-105478547D01*
X67216068Y-105463369D01*
X67281903Y-105452435D01*
X67343307Y-105445104D01*
X67404602Y-105440735D01*
X67470110Y-105438687D01*
X67528128Y-105438289D01*
X67697574Y-105444952D01*
X67697574Y-105444952D01*
G37*
X67697574Y-105444952D02*
X67849492Y-105464967D01*
X67984756Y-105498602D01*
X68104239Y-105546125D01*
X68208815Y-105607805D01*
X68286424Y-105671365D01*
X68355265Y-105745499D01*
X68409006Y-105825271D01*
X68451910Y-105917491D01*
X68467384Y-105960561D01*
X68480244Y-105999542D01*
X68491446Y-106035689D01*
X68501120Y-106070834D01*
X68509396Y-106106810D01*
X68516403Y-106145450D01*
X68522272Y-106188585D01*
X68527131Y-106238049D01*
X68531110Y-106295673D01*
X68534340Y-106363291D01*
X68536949Y-106442734D01*
X68539067Y-106535836D01*
X68540824Y-106644427D01*
X68542349Y-106770342D01*
X68543772Y-106915412D01*
X68545025Y-107058178D01*
X68546351Y-107214368D01*
X68547556Y-107349639D01*
X68548766Y-107465646D01*
X68550106Y-107564045D01*
X68551700Y-107646493D01*
X68553675Y-107714646D01*
X68556156Y-107770160D01*
X68559269Y-107814692D01*
X68563138Y-107849898D01*
X68567889Y-107877434D01*
X68573648Y-107898956D01*
X68580539Y-107916122D01*
X68588689Y-107930586D01*
X68598223Y-107944006D01*
X68609266Y-107958038D01*
X68613566Y-107963471D01*
X68629386Y-107986310D01*
X68636422Y-108001863D01*
X68636444Y-108002322D01*
X68625567Y-108004521D01*
X68594582Y-108006547D01*
X68545957Y-108008342D01*
X68482163Y-108009851D01*
X68405669Y-108011016D01*
X68318944Y-108011780D01*
X68224457Y-108012086D01*
X68213550Y-108012089D01*
X67790657Y-108012089D01*
X67787395Y-107916022D01*
X67784133Y-107819956D01*
X67722044Y-107870943D01*
X67624714Y-107938457D01*
X67514813Y-107993149D01*
X67428349Y-108023378D01*
X67359278Y-108038066D01*
X67275925Y-108048059D01*
X67186159Y-108053046D01*
X67097845Y-108052713D01*
X67018851Y-108046751D01*
X66982622Y-108041038D01*
X66842603Y-108003176D01*
X66716178Y-107948332D01*
X66604260Y-107877324D01*
X66507762Y-107790968D01*
X66427600Y-107690079D01*
X66364687Y-107575476D01*
X66320312Y-107449384D01*
X66307978Y-107392801D01*
X66300368Y-107330602D01*
X66296739Y-107255763D01*
X66296245Y-107221867D01*
X66296310Y-107218682D01*
X67056248Y-107218682D01*
X67065541Y-107293733D01*
X67093728Y-107357560D01*
X67142197Y-107413198D01*
X67147254Y-107417611D01*
X67195548Y-107452437D01*
X67247257Y-107475020D01*
X67307989Y-107486940D01*
X67383352Y-107489783D01*
X67401459Y-107489378D01*
X67455278Y-107486725D01*
X67495308Y-107481309D01*
X67530324Y-107471145D01*
X67569103Y-107454250D01*
X67579745Y-107449072D01*
X67640396Y-107413244D01*
X67687215Y-107370612D01*
X67699952Y-107355373D01*
X67744622Y-107298862D01*
X67744622Y-107102986D01*
X67744086Y-107024339D01*
X67742396Y-106966388D01*
X67739428Y-106927275D01*
X67735057Y-106905141D01*
X67730972Y-106898674D01*
X67715047Y-106895511D01*
X67681264Y-106892888D01*
X67634340Y-106891055D01*
X67578993Y-106890257D01*
X67570106Y-106890242D01*
X67449330Y-106895496D01*
X67346660Y-106911663D01*
X67260106Y-106939361D01*
X67187681Y-106979208D01*
X67132751Y-107026158D01*
X67088204Y-107084045D01*
X67063480Y-107147093D01*
X67056248Y-107218682D01*
X66296310Y-107218682D01*
X66298178Y-107128112D01*
X66306522Y-107049212D01*
X66322768Y-106977990D01*
X66348405Y-106907264D01*
X66372401Y-106854893D01*
X66431020Y-106759596D01*
X66509117Y-106671570D01*
X66604315Y-106592417D01*
X66714238Y-106523740D01*
X66836510Y-106467141D01*
X66968755Y-106424221D01*
X67033422Y-106409282D01*
X67169604Y-106387177D01*
X67318049Y-106372594D01*
X67469505Y-106366213D01*
X67596064Y-106367845D01*
X67757950Y-106374624D01*
X67750530Y-106315645D01*
X67731238Y-106216492D01*
X67700104Y-106135772D01*
X67656269Y-106072866D01*
X67598871Y-106027156D01*
X67527048Y-105998022D01*
X67439941Y-105984847D01*
X67336686Y-105987011D01*
X67298711Y-105991012D01*
X67157520Y-106016180D01*
X67020707Y-106057214D01*
X66926178Y-106095215D01*
X66881018Y-106114590D01*
X66842585Y-106130160D01*
X66816234Y-106139805D01*
X66808546Y-106141852D01*
X66798802Y-106132774D01*
X66782083Y-106103805D01*
X66758232Y-106054617D01*
X66727093Y-105984884D01*
X66688507Y-105894279D01*
X66681910Y-105878489D01*
X66651853Y-105806172D01*
X66624874Y-105740825D01*
X66602136Y-105685306D01*
X66584806Y-105642472D01*
X66574048Y-105615181D01*
X66570941Y-105606342D01*
X66580940Y-105601587D01*
X66607217Y-105596310D01*
X66635489Y-105592631D01*
X66665646Y-105587874D01*
X66713433Y-105578428D01*
X66774612Y-105565220D01*
X66844946Y-105549176D01*
X66920194Y-105531220D01*
X66948755Y-105524197D01*
X67053816Y-105498609D01*
X67141480Y-105478547D01*
X67216068Y-105463369D01*
X67281903Y-105452435D01*
X67343307Y-105445104D01*
X67404602Y-105440735D01*
X67470110Y-105438687D01*
X67528128Y-105438289D01*
X67697574Y-105444952D01*
G36*
X71210507Y-106050645D02*
X71210526Y-106285062D01*
X71210552Y-106498003D01*
X71210625Y-106690568D01*
X71210782Y-106863859D01*
X71211064Y-107018976D01*
X71211509Y-107157020D01*
X71212156Y-107279092D01*
X71213045Y-107386294D01*
X71214213Y-107479726D01*
X71215701Y-107560490D01*
X71217546Y-107629686D01*
X71219789Y-107688415D01*
X71222469Y-107737779D01*
X71225623Y-107778878D01*
X71229292Y-107812813D01*
X71233513Y-107840686D01*
X71238327Y-107863598D01*
X71243773Y-107882649D01*
X71249888Y-107898940D01*
X71256712Y-107913573D01*
X71264285Y-107927649D01*
X71272645Y-107942268D01*
X71277839Y-107951374D01*
X71312104Y-108012089D01*
X70453955Y-108012089D01*
X70453955Y-107916133D01*
X70453224Y-107872770D01*
X70451272Y-107839605D01*
X70448463Y-107821824D01*
X70447221Y-107820178D01*
X70435799Y-107827062D01*
X70413084Y-107844905D01*
X70390385Y-107864279D01*
X70335800Y-107905014D01*
X70266321Y-107946017D01*
X70189270Y-107983523D01*
X70111965Y-108013764D01*
X70081113Y-108023412D01*
X70012616Y-108037978D01*
X69929764Y-108047939D01*
X69840371Y-108052983D01*
X69752248Y-108052796D01*
X69673207Y-108047066D01*
X69635511Y-108041258D01*
X69497414Y-108003197D01*
X69370113Y-107945473D01*
X69254292Y-107868611D01*
X69150637Y-107773139D01*
X69059833Y-107659579D01*
X68993031Y-107548781D01*
X68938164Y-107432025D01*
X68896163Y-107312676D01*
X68866167Y-107186683D01*
X68847311Y-107049994D01*
X68838732Y-106898558D01*
X68838006Y-106821111D01*
X68840100Y-106764334D01*
X69669217Y-106764334D01*
X69669424Y-106857402D01*
X69672337Y-106945092D01*
X69678000Y-107022172D01*
X69686455Y-107083409D01*
X69689038Y-107095750D01*
X69720840Y-107203033D01*
X69762498Y-107290058D01*
X69814363Y-107357042D01*
X69876781Y-107404205D01*
X69950100Y-107431765D01*
X70034669Y-107439941D01*
X70130835Y-107428951D01*
X70194311Y-107413229D01*
X70243454Y-107395039D01*
X70297583Y-107369191D01*
X70338244Y-107345489D01*
X70408800Y-107299121D01*
X70408800Y-106148930D01*
X70341392Y-106105362D01*
X70262867Y-106064440D01*
X70178681Y-106037789D01*
X70093557Y-106025865D01*
X70012216Y-106029122D01*
X69939380Y-106048015D01*
X69907426Y-106063584D01*
X69849501Y-106106581D01*
X69800544Y-106163353D01*
X69759390Y-106235975D01*
X69724874Y-106326521D01*
X69695833Y-106437066D01*
X69694552Y-106442933D01*
X69684381Y-106505188D01*
X69676739Y-106582994D01*
X69671670Y-106671120D01*
X69669217Y-106764334D01*
X68840100Y-106764334D01*
X68845857Y-106608295D01*
X68867802Y-106412459D01*
X68903786Y-106233732D01*
X68953759Y-106072245D01*
X69017668Y-105928126D01*
X69095462Y-105801506D01*
X69187089Y-105692515D01*
X69292497Y-105601283D01*
X69337662Y-105570332D01*
X69438611Y-105514185D01*
X69541901Y-105474574D01*
X69651989Y-105450414D01*
X69773330Y-105440619D01*
X69865836Y-105441665D01*
X69995490Y-105452631D01*
X70108084Y-105474446D01*
X70206875Y-105508114D01*
X70295121Y-105554636D01*
X70343986Y-105588848D01*
X70373353Y-105610762D01*
X70395043Y-105625733D01*
X70403253Y-105630133D01*
X70404868Y-105619304D01*
X70406159Y-105588651D01*
X70407138Y-105540926D01*
X70407817Y-105478879D01*
X70408210Y-105405262D01*
X70408330Y-105322827D01*
X70408188Y-105234325D01*
X70407797Y-105142507D01*
X70407171Y-105050124D01*
X70406320Y-104959928D01*
X70405260Y-104874671D01*
X70404001Y-104797103D01*
X70402556Y-104729976D01*
X70400938Y-104676041D01*
X70399161Y-104638050D01*
X70398669Y-104631067D01*
X70391092Y-104560651D01*
X70379531Y-104505502D01*
X70361792Y-104458381D01*
X70335682Y-104412047D01*
X70329415Y-104402467D01*
X70304983Y-104365778D01*
X71210311Y-104365778D01*
X71210507Y-106050645D01*
X71210507Y-106050645D01*
G37*
X71210507Y-106050645D02*
X71210526Y-106285062D01*
X71210552Y-106498003D01*
X71210625Y-106690568D01*
X71210782Y-106863859D01*
X71211064Y-107018976D01*
X71211509Y-107157020D01*
X71212156Y-107279092D01*
X71213045Y-107386294D01*
X71214213Y-107479726D01*
X71215701Y-107560490D01*
X71217546Y-107629686D01*
X71219789Y-107688415D01*
X71222469Y-107737779D01*
X71225623Y-107778878D01*
X71229292Y-107812813D01*
X71233513Y-107840686D01*
X71238327Y-107863598D01*
X71243773Y-107882649D01*
X71249888Y-107898940D01*
X71256712Y-107913573D01*
X71264285Y-107927649D01*
X71272645Y-107942268D01*
X71277839Y-107951374D01*
X71312104Y-108012089D01*
X70453955Y-108012089D01*
X70453955Y-107916133D01*
X70453224Y-107872770D01*
X70451272Y-107839605D01*
X70448463Y-107821824D01*
X70447221Y-107820178D01*
X70435799Y-107827062D01*
X70413084Y-107844905D01*
X70390385Y-107864279D01*
X70335800Y-107905014D01*
X70266321Y-107946017D01*
X70189270Y-107983523D01*
X70111965Y-108013764D01*
X70081113Y-108023412D01*
X70012616Y-108037978D01*
X69929764Y-108047939D01*
X69840371Y-108052983D01*
X69752248Y-108052796D01*
X69673207Y-108047066D01*
X69635511Y-108041258D01*
X69497414Y-108003197D01*
X69370113Y-107945473D01*
X69254292Y-107868611D01*
X69150637Y-107773139D01*
X69059833Y-107659579D01*
X68993031Y-107548781D01*
X68938164Y-107432025D01*
X68896163Y-107312676D01*
X68866167Y-107186683D01*
X68847311Y-107049994D01*
X68838732Y-106898558D01*
X68838006Y-106821111D01*
X68840100Y-106764334D01*
X69669217Y-106764334D01*
X69669424Y-106857402D01*
X69672337Y-106945092D01*
X69678000Y-107022172D01*
X69686455Y-107083409D01*
X69689038Y-107095750D01*
X69720840Y-107203033D01*
X69762498Y-107290058D01*
X69814363Y-107357042D01*
X69876781Y-107404205D01*
X69950100Y-107431765D01*
X70034669Y-107439941D01*
X70130835Y-107428951D01*
X70194311Y-107413229D01*
X70243454Y-107395039D01*
X70297583Y-107369191D01*
X70338244Y-107345489D01*
X70408800Y-107299121D01*
X70408800Y-106148930D01*
X70341392Y-106105362D01*
X70262867Y-106064440D01*
X70178681Y-106037789D01*
X70093557Y-106025865D01*
X70012216Y-106029122D01*
X69939380Y-106048015D01*
X69907426Y-106063584D01*
X69849501Y-106106581D01*
X69800544Y-106163353D01*
X69759390Y-106235975D01*
X69724874Y-106326521D01*
X69695833Y-106437066D01*
X69694552Y-106442933D01*
X69684381Y-106505188D01*
X69676739Y-106582994D01*
X69671670Y-106671120D01*
X69669217Y-106764334D01*
X68840100Y-106764334D01*
X68845857Y-106608295D01*
X68867802Y-106412459D01*
X68903786Y-106233732D01*
X68953759Y-106072245D01*
X69017668Y-105928126D01*
X69095462Y-105801506D01*
X69187089Y-105692515D01*
X69292497Y-105601283D01*
X69337662Y-105570332D01*
X69438611Y-105514185D01*
X69541901Y-105474574D01*
X69651989Y-105450414D01*
X69773330Y-105440619D01*
X69865836Y-105441665D01*
X69995490Y-105452631D01*
X70108084Y-105474446D01*
X70206875Y-105508114D01*
X70295121Y-105554636D01*
X70343986Y-105588848D01*
X70373353Y-105610762D01*
X70395043Y-105625733D01*
X70403253Y-105630133D01*
X70404868Y-105619304D01*
X70406159Y-105588651D01*
X70407138Y-105540926D01*
X70407817Y-105478879D01*
X70408210Y-105405262D01*
X70408330Y-105322827D01*
X70408188Y-105234325D01*
X70407797Y-105142507D01*
X70407171Y-105050124D01*
X70406320Y-104959928D01*
X70405260Y-104874671D01*
X70404001Y-104797103D01*
X70402556Y-104729976D01*
X70400938Y-104676041D01*
X70399161Y-104638050D01*
X70398669Y-104631067D01*
X70391092Y-104560651D01*
X70379531Y-104505502D01*
X70361792Y-104458381D01*
X70335682Y-104412047D01*
X70329415Y-104402467D01*
X70304983Y-104365778D01*
X71210311Y-104365778D01*
X71210507Y-106050645D01*
G36*
X62750957Y-103604971D02*
X62847232Y-103629209D01*
X62933816Y-103672041D01*
X63008627Y-103731819D01*
X63069582Y-103806894D01*
X63114601Y-103895620D01*
X63140864Y-103991930D01*
X63146714Y-104089195D01*
X63131860Y-104183054D01*
X63098160Y-104270911D01*
X63047472Y-104350170D01*
X62981655Y-104418236D01*
X62902566Y-104472512D01*
X62812066Y-104510402D01*
X62760800Y-104522826D01*
X62716302Y-104530347D01*
X62682001Y-104533319D01*
X62649040Y-104531494D01*
X62608566Y-104524625D01*
X62575469Y-104517650D01*
X62482053Y-104486141D01*
X62398381Y-104435017D01*
X62326335Y-104365829D01*
X62267800Y-104280128D01*
X62253852Y-104252889D01*
X62237414Y-104216522D01*
X62227106Y-104185982D01*
X62221540Y-104153850D01*
X62219331Y-104112707D01*
X62219052Y-104066622D01*
X62223139Y-103982265D01*
X62236554Y-103912986D01*
X62261744Y-103852361D01*
X62301154Y-103793967D01*
X62339702Y-103749702D01*
X62411594Y-103683884D01*
X62486687Y-103638453D01*
X62569438Y-103611250D01*
X62647072Y-103600976D01*
X62750957Y-103604971D01*
X62750957Y-103604971D01*
G37*
X62750957Y-103604971D02*
X62847232Y-103629209D01*
X62933816Y-103672041D01*
X63008627Y-103731819D01*
X63069582Y-103806894D01*
X63114601Y-103895620D01*
X63140864Y-103991930D01*
X63146714Y-104089195D01*
X63131860Y-104183054D01*
X63098160Y-104270911D01*
X63047472Y-104350170D01*
X62981655Y-104418236D01*
X62902566Y-104472512D01*
X62812066Y-104510402D01*
X62760800Y-104522826D01*
X62716302Y-104530347D01*
X62682001Y-104533319D01*
X62649040Y-104531494D01*
X62608566Y-104524625D01*
X62575469Y-104517650D01*
X62482053Y-104486141D01*
X62398381Y-104435017D01*
X62326335Y-104365829D01*
X62267800Y-104280128D01*
X62253852Y-104252889D01*
X62237414Y-104216522D01*
X62227106Y-104185982D01*
X62221540Y-104153850D01*
X62219331Y-104112707D01*
X62219052Y-104066622D01*
X62223139Y-103982265D01*
X62236554Y-103912986D01*
X62261744Y-103852361D01*
X62301154Y-103793967D01*
X62339702Y-103749702D01*
X62411594Y-103683884D01*
X62486687Y-103638453D01*
X62569438Y-103611250D01*
X62647072Y-103600976D01*
X62750957Y-103604971D01*
D10*
G36*
X65915378Y-54628418D02*
X65913238Y-55222076D01*
X65913000Y-55406945D01*
X65911032Y-56047217D01*
X65904365Y-56537453D01*
X65891856Y-56896914D01*
X65872361Y-57144861D01*
X65844735Y-57300554D01*
X65807835Y-57383252D01*
X65794831Y-57396670D01*
X65627596Y-57468142D01*
X65489667Y-57498474D01*
X65489667Y-57044748D01*
X65489667Y-55451371D01*
X65485611Y-54930909D01*
X65474250Y-54481332D01*
X65456795Y-54127665D01*
X65434453Y-53894937D01*
X65410275Y-53808926D01*
X65298827Y-53778092D01*
X65056552Y-53731619D01*
X64720493Y-53676095D01*
X64373108Y-53624485D01*
X63744640Y-53562536D01*
X63017051Y-53534245D01*
X62247137Y-53538497D01*
X61491692Y-53574179D01*
X60807514Y-53640176D01*
X60409667Y-53702237D01*
X59859333Y-53806859D01*
X59836366Y-55428143D01*
X59813399Y-57049426D01*
X60386699Y-57140198D01*
X60722613Y-57192928D01*
X61027424Y-57240002D01*
X61214000Y-57268091D01*
X61454169Y-57285739D01*
X61825525Y-57292161D01*
X62290383Y-57288617D01*
X62811057Y-57276364D01*
X63349862Y-57256660D01*
X63869112Y-57230761D01*
X64331122Y-57199926D01*
X64698206Y-57165412D01*
X64833500Y-57147306D01*
X65489667Y-57044748D01*
X65489667Y-57498474D01*
X65318275Y-57536166D01*
X64894113Y-57598037D01*
X64382356Y-57651051D01*
X63810249Y-57692504D01*
X63205039Y-57719692D01*
X62593969Y-57729910D01*
X62441667Y-57729483D01*
X61956669Y-57724260D01*
X61517889Y-57716201D01*
X61159154Y-57706183D01*
X60914292Y-57695080D01*
X60833000Y-57687816D01*
X60326428Y-57604236D01*
X59918639Y-57521708D01*
X59633462Y-57445632D01*
X59499500Y-57385674D01*
X59462465Y-57307849D01*
X59434306Y-57132790D01*
X59414198Y-56845075D01*
X59401317Y-56429284D01*
X59394837Y-55869996D01*
X59393667Y-55406945D01*
X59394618Y-54790599D01*
X59398577Y-54322164D01*
X59407200Y-53980224D01*
X59422144Y-53743362D01*
X59445066Y-53590160D01*
X59477622Y-53499203D01*
X59521468Y-53449073D01*
X59546312Y-53433597D01*
X59812200Y-53340179D01*
X60217761Y-53260175D01*
X60733773Y-53194830D01*
X61331015Y-53145389D01*
X61980264Y-53113099D01*
X62652298Y-53099204D01*
X63317896Y-53104950D01*
X63947834Y-53131582D01*
X64512891Y-53180346D01*
X64751193Y-53211783D01*
X65116658Y-53263423D01*
X65396762Y-53308352D01*
X65602766Y-53367847D01*
X65745929Y-53463182D01*
X65837512Y-53615632D01*
X65888775Y-53846471D01*
X65910977Y-54176975D01*
X65915378Y-54628418D01*
X65915378Y-54628418D01*
X65915378Y-54628418D01*
G37*
X65915378Y-54628418D02*
X65913238Y-55222076D01*
X65913000Y-55406945D01*
X65911032Y-56047217D01*
X65904365Y-56537453D01*
X65891856Y-56896914D01*
X65872361Y-57144861D01*
X65844735Y-57300554D01*
X65807835Y-57383252D01*
X65794831Y-57396670D01*
X65627596Y-57468142D01*
X65489667Y-57498474D01*
X65489667Y-57044748D01*
X65489667Y-55451371D01*
X65485611Y-54930909D01*
X65474250Y-54481332D01*
X65456795Y-54127665D01*
X65434453Y-53894937D01*
X65410275Y-53808926D01*
X65298827Y-53778092D01*
X65056552Y-53731619D01*
X64720493Y-53676095D01*
X64373108Y-53624485D01*
X63744640Y-53562536D01*
X63017051Y-53534245D01*
X62247137Y-53538497D01*
X61491692Y-53574179D01*
X60807514Y-53640176D01*
X60409667Y-53702237D01*
X59859333Y-53806859D01*
X59836366Y-55428143D01*
X59813399Y-57049426D01*
X60386699Y-57140198D01*
X60722613Y-57192928D01*
X61027424Y-57240002D01*
X61214000Y-57268091D01*
X61454169Y-57285739D01*
X61825525Y-57292161D01*
X62290383Y-57288617D01*
X62811057Y-57276364D01*
X63349862Y-57256660D01*
X63869112Y-57230761D01*
X64331122Y-57199926D01*
X64698206Y-57165412D01*
X64833500Y-57147306D01*
X65489667Y-57044748D01*
X65489667Y-57498474D01*
X65318275Y-57536166D01*
X64894113Y-57598037D01*
X64382356Y-57651051D01*
X63810249Y-57692504D01*
X63205039Y-57719692D01*
X62593969Y-57729910D01*
X62441667Y-57729483D01*
X61956669Y-57724260D01*
X61517889Y-57716201D01*
X61159154Y-57706183D01*
X60914292Y-57695080D01*
X60833000Y-57687816D01*
X60326428Y-57604236D01*
X59918639Y-57521708D01*
X59633462Y-57445632D01*
X59499500Y-57385674D01*
X59462465Y-57307849D01*
X59434306Y-57132790D01*
X59414198Y-56845075D01*
X59401317Y-56429284D01*
X59394837Y-55869996D01*
X59393667Y-55406945D01*
X59394618Y-54790599D01*
X59398577Y-54322164D01*
X59407200Y-53980224D01*
X59422144Y-53743362D01*
X59445066Y-53590160D01*
X59477622Y-53499203D01*
X59521468Y-53449073D01*
X59546312Y-53433597D01*
X59812200Y-53340179D01*
X60217761Y-53260175D01*
X60733773Y-53194830D01*
X61331015Y-53145389D01*
X61980264Y-53113099D01*
X62652298Y-53099204D01*
X63317896Y-53104950D01*
X63947834Y-53131582D01*
X64512891Y-53180346D01*
X64751193Y-53211783D01*
X65116658Y-53263423D01*
X65396762Y-53308352D01*
X65602766Y-53367847D01*
X65745929Y-53463182D01*
X65837512Y-53615632D01*
X65888775Y-53846471D01*
X65910977Y-54176975D01*
X65915378Y-54628418D01*
X65915378Y-54628418D01*
G36*
X62953670Y-55773396D02*
X62906189Y-56156950D01*
X62741447Y-56506481D01*
X62467161Y-56775811D01*
X62325903Y-56849168D01*
X62137567Y-56899105D01*
X61866715Y-56930878D01*
X61477911Y-56949742D01*
X61256333Y-56955393D01*
X60859939Y-56959691D01*
X60521647Y-56955729D01*
X60279870Y-56944450D01*
X60176833Y-56928953D01*
X60087971Y-56811885D01*
X60079884Y-56633760D01*
X60147694Y-56479596D01*
X60204925Y-56439391D01*
X60343727Y-56417378D01*
X60607799Y-56400077D01*
X60953093Y-56389813D01*
X61178591Y-56388000D01*
X61660135Y-56372429D01*
X61996671Y-56318481D01*
X62210272Y-56215299D01*
X62323013Y-56052028D01*
X62356967Y-55817811D01*
X62357000Y-55808455D01*
X62290502Y-55544492D01*
X62085858Y-55357644D01*
X61735342Y-55242320D01*
X61533924Y-55212904D01*
X61258361Y-55177063D01*
X61111693Y-55131056D01*
X61053873Y-55053255D01*
X61044667Y-54948666D01*
X61055631Y-54834268D01*
X61113964Y-54767955D01*
X61257824Y-54733166D01*
X61525369Y-54713341D01*
X61595000Y-54709817D01*
X62011280Y-54713844D01*
X62310980Y-54778245D01*
X62405279Y-54820786D01*
X62701942Y-55065094D01*
X62885163Y-55396037D01*
X62953670Y-55773396D01*
X62953670Y-55773396D01*
X62953670Y-55773396D01*
G37*
X62953670Y-55773396D02*
X62906189Y-56156950D01*
X62741447Y-56506481D01*
X62467161Y-56775811D01*
X62325903Y-56849168D01*
X62137567Y-56899105D01*
X61866715Y-56930878D01*
X61477911Y-56949742D01*
X61256333Y-56955393D01*
X60859939Y-56959691D01*
X60521647Y-56955729D01*
X60279870Y-56944450D01*
X60176833Y-56928953D01*
X60087971Y-56811885D01*
X60079884Y-56633760D01*
X60147694Y-56479596D01*
X60204925Y-56439391D01*
X60343727Y-56417378D01*
X60607799Y-56400077D01*
X60953093Y-56389813D01*
X61178591Y-56388000D01*
X61660135Y-56372429D01*
X61996671Y-56318481D01*
X62210272Y-56215299D01*
X62323013Y-56052028D01*
X62356967Y-55817811D01*
X62357000Y-55808455D01*
X62290502Y-55544492D01*
X62085858Y-55357644D01*
X61735342Y-55242320D01*
X61533924Y-55212904D01*
X61258361Y-55177063D01*
X61111693Y-55131056D01*
X61053873Y-55053255D01*
X61044667Y-54948666D01*
X61055631Y-54834268D01*
X61113964Y-54767955D01*
X61257824Y-54733166D01*
X61525369Y-54713341D01*
X61595000Y-54709817D01*
X62011280Y-54713844D01*
X62310980Y-54778245D01*
X62405279Y-54820786D01*
X62701942Y-55065094D01*
X62885163Y-55396037D01*
X62953670Y-55773396D01*
X62953670Y-55773396D01*
G36*
X65150068Y-55864399D02*
X65130138Y-56387157D01*
X65069339Y-56750069D01*
X64968294Y-56951846D01*
X64827624Y-56991203D01*
X64659933Y-56879066D01*
X64606682Y-56733488D01*
X64572686Y-56426882D01*
X64558676Y-55966537D01*
X64558333Y-55867050D01*
X64549764Y-55469735D01*
X64526630Y-55117407D01*
X64492790Y-54855877D01*
X64464241Y-54750124D01*
X64320675Y-54580654D01*
X64086328Y-54433565D01*
X64040908Y-54414284D01*
X63819838Y-54303786D01*
X63725007Y-54177972D01*
X63711667Y-54072685D01*
X63775639Y-53896243D01*
X63943569Y-53812667D01*
X64179475Y-53819481D01*
X64447374Y-53914205D01*
X64711284Y-54094361D01*
X64765278Y-54145255D01*
X64916560Y-54321985D01*
X65023216Y-54521797D01*
X65092517Y-54777186D01*
X65131737Y-55120649D01*
X65148149Y-55584682D01*
X65150068Y-55864399D01*
X65150068Y-55864399D01*
X65150068Y-55864399D01*
G37*
X65150068Y-55864399D02*
X65130138Y-56387157D01*
X65069339Y-56750069D01*
X64968294Y-56951846D01*
X64827624Y-56991203D01*
X64659933Y-56879066D01*
X64606682Y-56733488D01*
X64572686Y-56426882D01*
X64558676Y-55966537D01*
X64558333Y-55867050D01*
X64549764Y-55469735D01*
X64526630Y-55117407D01*
X64492790Y-54855877D01*
X64464241Y-54750124D01*
X64320675Y-54580654D01*
X64086328Y-54433565D01*
X64040908Y-54414284D01*
X63819838Y-54303786D01*
X63725007Y-54177972D01*
X63711667Y-54072685D01*
X63775639Y-53896243D01*
X63943569Y-53812667D01*
X64179475Y-53819481D01*
X64447374Y-53914205D01*
X64711284Y-54094361D01*
X64765278Y-54145255D01*
X64916560Y-54321985D01*
X65023216Y-54521797D01*
X65092517Y-54777186D01*
X65131737Y-55120649D01*
X65148149Y-55584682D01*
X65150068Y-55864399D01*
X65150068Y-55864399D01*
G36*
X63806199Y-55498520D02*
X63782174Y-55795519D01*
X63730217Y-56005327D01*
X63669333Y-56079951D01*
X63477305Y-56110023D01*
X63356857Y-56013621D01*
X63298111Y-55776874D01*
X63288333Y-55544909D01*
X63253254Y-55049412D01*
X63145985Y-54699937D01*
X62963479Y-54487931D01*
X62899135Y-54452336D01*
X62721694Y-54409401D01*
X62426586Y-54376319D01*
X62065408Y-54358058D01*
X61898767Y-54356000D01*
X61507142Y-54361548D01*
X61242346Y-54383080D01*
X61062098Y-54427927D01*
X60924114Y-54503422D01*
X60886751Y-54531478D01*
X60707754Y-54760739D01*
X60670202Y-55023950D01*
X60777386Y-55270950D01*
X60834312Y-55330854D01*
X61057206Y-55445454D01*
X61406642Y-55516508D01*
X61490479Y-55524644D01*
X61854848Y-55581077D01*
X62055648Y-55678606D01*
X62093808Y-55818155D01*
X61970257Y-56000647D01*
X61969952Y-56000952D01*
X61772853Y-56098949D01*
X61450223Y-56116715D01*
X60990121Y-56054860D01*
X60973751Y-56051719D01*
X60594002Y-55905080D01*
X60315556Y-55653501D01*
X60142496Y-55330686D01*
X60078901Y-54970335D01*
X60128854Y-54606151D01*
X60296435Y-54271837D01*
X60585726Y-54001094D01*
X60716528Y-53927569D01*
X60899860Y-53848187D01*
X61083289Y-53797824D01*
X61308337Y-53771875D01*
X61616528Y-53765734D01*
X62049384Y-53774796D01*
X62084491Y-53775852D01*
X62577486Y-53798266D01*
X62935435Y-53838823D01*
X63192523Y-53909716D01*
X63382932Y-54023137D01*
X63540845Y-54191277D01*
X63638625Y-54330171D01*
X63718505Y-54530154D01*
X63773582Y-54821259D01*
X63803074Y-55158907D01*
X63806199Y-55498520D01*
X63806199Y-55498520D01*
X63806199Y-55498520D01*
G37*
X63806199Y-55498520D02*
X63782174Y-55795519D01*
X63730217Y-56005327D01*
X63669333Y-56079951D01*
X63477305Y-56110023D01*
X63356857Y-56013621D01*
X63298111Y-55776874D01*
X63288333Y-55544909D01*
X63253254Y-55049412D01*
X63145985Y-54699937D01*
X62963479Y-54487931D01*
X62899135Y-54452336D01*
X62721694Y-54409401D01*
X62426586Y-54376319D01*
X62065408Y-54358058D01*
X61898767Y-54356000D01*
X61507142Y-54361548D01*
X61242346Y-54383080D01*
X61062098Y-54427927D01*
X60924114Y-54503422D01*
X60886751Y-54531478D01*
X60707754Y-54760739D01*
X60670202Y-55023950D01*
X60777386Y-55270950D01*
X60834312Y-55330854D01*
X61057206Y-55445454D01*
X61406642Y-55516508D01*
X61490479Y-55524644D01*
X61854848Y-55581077D01*
X62055648Y-55678606D01*
X62093808Y-55818155D01*
X61970257Y-56000647D01*
X61969952Y-56000952D01*
X61772853Y-56098949D01*
X61450223Y-56116715D01*
X60990121Y-56054860D01*
X60973751Y-56051719D01*
X60594002Y-55905080D01*
X60315556Y-55653501D01*
X60142496Y-55330686D01*
X60078901Y-54970335D01*
X60128854Y-54606151D01*
X60296435Y-54271837D01*
X60585726Y-54001094D01*
X60716528Y-53927569D01*
X60899860Y-53848187D01*
X61083289Y-53797824D01*
X61308337Y-53771875D01*
X61616528Y-53765734D01*
X62049384Y-53774796D01*
X62084491Y-53775852D01*
X62577486Y-53798266D01*
X62935435Y-53838823D01*
X63192523Y-53909716D01*
X63382932Y-54023137D01*
X63540845Y-54191277D01*
X63638625Y-54330171D01*
X63718505Y-54530154D01*
X63773582Y-54821259D01*
X63803074Y-55158907D01*
X63806199Y-55498520D01*
X63806199Y-55498520D01*
D13*
X38650000Y-95097000D02*
X38650000Y-100097000D01*
X38650000Y-92097000D02*
X38650000Y-95097000D01*
X38650000Y-95097000D02*
X39650000Y-95097000D01*
X39650000Y-92097000D02*
X38650000Y-92097000D01*
X50775000Y-91472000D02*
X38275000Y-91472000D01*
X38275000Y-91472000D02*
X38275000Y-100472000D01*
X38275000Y-100472000D02*
X50775000Y-100472000D01*
X50775000Y-91472000D02*
X50775000Y-100472000D01*
X38775000Y-66262000D02*
X38775000Y-90762000D01*
X40775000Y-62762000D02*
X38775000Y-62762000D01*
X38775000Y-62762000D02*
X38775000Y-65762000D01*
X38775000Y-65762000D02*
X40775000Y-65762000D01*
X38275000Y-62262000D02*
X50775000Y-62262000D01*
X50775000Y-62262000D02*
X50775000Y-91262000D01*
X50775000Y-91262000D02*
X38275000Y-91262000D01*
X38275000Y-91262000D02*
X38275000Y-62262000D01*
X60055000Y-94869000D02*
G75*
G03X60055000Y-94869000I-4175000J0D01*
G01*
D14*
X97790000Y-64890000D02*
X115690000Y-64890000D01*
X115690000Y-64890000D02*
X115690000Y-62110000D01*
X115690000Y-62110000D02*
X97790000Y-62110000D01*
X97790000Y-62110000D02*
X97790000Y-64890000D01*
X96520000Y-64890000D02*
X95130000Y-64890000D01*
X95130000Y-64890000D02*
X95130000Y-63500000D01*
D11*
X89891810Y-101206905D02*
X89649905Y-101376238D01*
X89891810Y-101497191D02*
X89383810Y-101497191D01*
X89383810Y-101303667D01*
X89408000Y-101255286D01*
X89432190Y-101231095D01*
X89480571Y-101206905D01*
X89553143Y-101206905D01*
X89601524Y-101231095D01*
X89625714Y-101255286D01*
X89649905Y-101303667D01*
X89649905Y-101497191D01*
X89625714Y-100989191D02*
X89625714Y-100819857D01*
X89891810Y-100747286D02*
X89891810Y-100989191D01*
X89383810Y-100989191D01*
X89383810Y-100747286D01*
X89891810Y-100287667D02*
X89891810Y-100529572D01*
X89383810Y-100529572D01*
X89891810Y-99852238D02*
X89891810Y-100142524D01*
X89891810Y-99997381D02*
X89383810Y-99997381D01*
X89456381Y-100045762D01*
X89504762Y-100094143D01*
X89528952Y-100142524D01*
X89383810Y-99537762D02*
X89383810Y-99489381D01*
X89408000Y-99441000D01*
X89432190Y-99416809D01*
X89480571Y-99392619D01*
X89577333Y-99368428D01*
X89698286Y-99368428D01*
X89795048Y-99392619D01*
X89843429Y-99416809D01*
X89867619Y-99441000D01*
X89891810Y-99489381D01*
X89891810Y-99537762D01*
X89867619Y-99586143D01*
X89843429Y-99610333D01*
X89795048Y-99634524D01*
X89698286Y-99658714D01*
X89577333Y-99658714D01*
X89480571Y-99634524D01*
X89432190Y-99610333D01*
X89408000Y-99586143D01*
X89383810Y-99537762D01*
X89383810Y-99199095D02*
X89383810Y-98884618D01*
X89577333Y-99053952D01*
X89577333Y-98981380D01*
X89601524Y-98932999D01*
X89625714Y-98908809D01*
X89674095Y-98884618D01*
X89795048Y-98884618D01*
X89843429Y-98908809D01*
X89867619Y-98932999D01*
X89891810Y-98981380D01*
X89891810Y-99126523D01*
X89867619Y-99174904D01*
X89843429Y-99199095D01*
X84881619Y-99316524D02*
X84833238Y-99292333D01*
X84809047Y-99268143D01*
X84784857Y-99219762D01*
X84784857Y-99195571D01*
X84809047Y-99147190D01*
X84833238Y-99123000D01*
X84881619Y-99098810D01*
X84978381Y-99098810D01*
X85026762Y-99123000D01*
X85050952Y-99147190D01*
X85075143Y-99195571D01*
X85075143Y-99219762D01*
X85050952Y-99268143D01*
X85026762Y-99292333D01*
X84978381Y-99316524D01*
X84881619Y-99316524D01*
X84833238Y-99340714D01*
X84809047Y-99364905D01*
X84784857Y-99413286D01*
X84784857Y-99510048D01*
X84809047Y-99558429D01*
X84833238Y-99582619D01*
X84881619Y-99606810D01*
X84978381Y-99606810D01*
X85026762Y-99582619D01*
X85050952Y-99558429D01*
X85075143Y-99510048D01*
X85075143Y-99413286D01*
X85050952Y-99364905D01*
X85026762Y-99340714D01*
X84978381Y-99316524D01*
X85075143Y-91806810D02*
X84784857Y-91806810D01*
X84930000Y-91806810D02*
X84930000Y-91298810D01*
X84881619Y-91371381D01*
X84833238Y-91419762D01*
X84784857Y-91443952D01*
X69130858Y-99358429D02*
X69106668Y-99382619D01*
X69034096Y-99406810D01*
X68985715Y-99406810D01*
X68913144Y-99382619D01*
X68864763Y-99334238D01*
X68840572Y-99285857D01*
X68816382Y-99189095D01*
X68816382Y-99116524D01*
X68840572Y-99019762D01*
X68864763Y-98971381D01*
X68913144Y-98923000D01*
X68985715Y-98898810D01*
X69034096Y-98898810D01*
X69106668Y-98923000D01*
X69130858Y-98947190D01*
X69445334Y-98898810D02*
X69542096Y-98898810D01*
X69590477Y-98923000D01*
X69638858Y-98971381D01*
X69663049Y-99068143D01*
X69663049Y-99237476D01*
X69638858Y-99334238D01*
X69590477Y-99382619D01*
X69542096Y-99406810D01*
X69445334Y-99406810D01*
X69396953Y-99382619D01*
X69348572Y-99334238D01*
X69324382Y-99237476D01*
X69324382Y-99068143D01*
X69348572Y-98971381D01*
X69396953Y-98923000D01*
X69445334Y-98898810D01*
X69880762Y-99406810D02*
X69880762Y-98898810D01*
X70050096Y-99261667D01*
X70219429Y-98898810D01*
X70219429Y-99406810D01*
X64918762Y-91806810D02*
X64918762Y-91298810D01*
X65209048Y-91806810D01*
X65209048Y-91298810D01*
X65547714Y-91298810D02*
X65644476Y-91298810D01*
X65692857Y-91323000D01*
X65741238Y-91371381D01*
X65765429Y-91468143D01*
X65765429Y-91637476D01*
X65741238Y-91734238D01*
X65692857Y-91782619D01*
X65644476Y-91806810D01*
X65547714Y-91806810D01*
X65499333Y-91782619D01*
X65450952Y-91734238D01*
X65426762Y-91637476D01*
X65426762Y-91468143D01*
X65450952Y-91371381D01*
X65499333Y-91323000D01*
X65547714Y-91298810D01*
X81636810Y-87236905D02*
X81394905Y-87406238D01*
X81636810Y-87527191D02*
X81128810Y-87527191D01*
X81128810Y-87333667D01*
X81153000Y-87285286D01*
X81177190Y-87261095D01*
X81225571Y-87236905D01*
X81298143Y-87236905D01*
X81346524Y-87261095D01*
X81370714Y-87285286D01*
X81394905Y-87333667D01*
X81394905Y-87527191D01*
X81370714Y-87019191D02*
X81370714Y-86849857D01*
X81636810Y-86777286D02*
X81636810Y-87019191D01*
X81128810Y-87019191D01*
X81128810Y-86777286D01*
X81636810Y-86317667D02*
X81636810Y-86559572D01*
X81128810Y-86559572D01*
X81636810Y-85882238D02*
X81636810Y-86172524D01*
X81636810Y-86027381D02*
X81128810Y-86027381D01*
X81201381Y-86075762D01*
X81249762Y-86124143D01*
X81273952Y-86172524D01*
X81128810Y-85567762D02*
X81128810Y-85519381D01*
X81153000Y-85471000D01*
X81177190Y-85446809D01*
X81225571Y-85422619D01*
X81322333Y-85398428D01*
X81443286Y-85398428D01*
X81540048Y-85422619D01*
X81588429Y-85446809D01*
X81612619Y-85471000D01*
X81636810Y-85519381D01*
X81636810Y-85567762D01*
X81612619Y-85616143D01*
X81588429Y-85640333D01*
X81540048Y-85664524D01*
X81443286Y-85688714D01*
X81322333Y-85688714D01*
X81225571Y-85664524D01*
X81177190Y-85640333D01*
X81153000Y-85616143D01*
X81128810Y-85567762D01*
X81177190Y-85204904D02*
X81153000Y-85180714D01*
X81128810Y-85132333D01*
X81128810Y-85011380D01*
X81153000Y-84962999D01*
X81177190Y-84938809D01*
X81225571Y-84914618D01*
X81273952Y-84914618D01*
X81346524Y-84938809D01*
X81636810Y-85229095D01*
X81636810Y-84914618D01*
X76626619Y-85219524D02*
X76578238Y-85195333D01*
X76554047Y-85171143D01*
X76529857Y-85122762D01*
X76529857Y-85098571D01*
X76554047Y-85050190D01*
X76578238Y-85026000D01*
X76626619Y-85001810D01*
X76723381Y-85001810D01*
X76771762Y-85026000D01*
X76795952Y-85050190D01*
X76820143Y-85098571D01*
X76820143Y-85122762D01*
X76795952Y-85171143D01*
X76771762Y-85195333D01*
X76723381Y-85219524D01*
X76626619Y-85219524D01*
X76578238Y-85243714D01*
X76554047Y-85267905D01*
X76529857Y-85316286D01*
X76529857Y-85413048D01*
X76554047Y-85461429D01*
X76578238Y-85485619D01*
X76626619Y-85509810D01*
X76723381Y-85509810D01*
X76771762Y-85485619D01*
X76795952Y-85461429D01*
X76820143Y-85413048D01*
X76820143Y-85316286D01*
X76795952Y-85267905D01*
X76771762Y-85243714D01*
X76723381Y-85219524D01*
X76820143Y-77709810D02*
X76529857Y-77709810D01*
X76675000Y-77709810D02*
X76675000Y-77201810D01*
X76626619Y-77274381D01*
X76578238Y-77322762D01*
X76529857Y-77346952D01*
X60875858Y-85261429D02*
X60851668Y-85285619D01*
X60779096Y-85309810D01*
X60730715Y-85309810D01*
X60658144Y-85285619D01*
X60609763Y-85237238D01*
X60585572Y-85188857D01*
X60561382Y-85092095D01*
X60561382Y-85019524D01*
X60585572Y-84922762D01*
X60609763Y-84874381D01*
X60658144Y-84826000D01*
X60730715Y-84801810D01*
X60779096Y-84801810D01*
X60851668Y-84826000D01*
X60875858Y-84850190D01*
X61190334Y-84801810D02*
X61287096Y-84801810D01*
X61335477Y-84826000D01*
X61383858Y-84874381D01*
X61408049Y-84971143D01*
X61408049Y-85140476D01*
X61383858Y-85237238D01*
X61335477Y-85285619D01*
X61287096Y-85309810D01*
X61190334Y-85309810D01*
X61141953Y-85285619D01*
X61093572Y-85237238D01*
X61069382Y-85140476D01*
X61069382Y-84971143D01*
X61093572Y-84874381D01*
X61141953Y-84826000D01*
X61190334Y-84801810D01*
X61625762Y-85309810D02*
X61625762Y-84801810D01*
X61795096Y-85164667D01*
X61964429Y-84801810D01*
X61964429Y-85309810D01*
X56663762Y-77709810D02*
X56663762Y-77201810D01*
X56954048Y-77709810D01*
X56954048Y-77201810D01*
X57292714Y-77201810D02*
X57389476Y-77201810D01*
X57437857Y-77226000D01*
X57486238Y-77274381D01*
X57510429Y-77371143D01*
X57510429Y-77540476D01*
X57486238Y-77637238D01*
X57437857Y-77685619D01*
X57389476Y-77709810D01*
X57292714Y-77709810D01*
X57244333Y-77685619D01*
X57195952Y-77637238D01*
X57171762Y-77540476D01*
X57171762Y-77371143D01*
X57195952Y-77274381D01*
X57244333Y-77226000D01*
X57292714Y-77201810D01*
X85319810Y-63614905D02*
X85077905Y-63784238D01*
X85319810Y-63905191D02*
X84811810Y-63905191D01*
X84811810Y-63711667D01*
X84836000Y-63663286D01*
X84860190Y-63639095D01*
X84908571Y-63614905D01*
X84981143Y-63614905D01*
X85029524Y-63639095D01*
X85053714Y-63663286D01*
X85077905Y-63711667D01*
X85077905Y-63905191D01*
X85053714Y-63397191D02*
X85053714Y-63227857D01*
X85319810Y-63155286D02*
X85319810Y-63397191D01*
X84811810Y-63397191D01*
X84811810Y-63155286D01*
X85319810Y-62695667D02*
X85319810Y-62937572D01*
X84811810Y-62937572D01*
X85319810Y-62260238D02*
X85319810Y-62550524D01*
X85319810Y-62405381D02*
X84811810Y-62405381D01*
X84884381Y-62453762D01*
X84932762Y-62502143D01*
X84956952Y-62550524D01*
X84811810Y-61945762D02*
X84811810Y-61897381D01*
X84836000Y-61849000D01*
X84860190Y-61824809D01*
X84908571Y-61800619D01*
X85005333Y-61776428D01*
X85126286Y-61776428D01*
X85223048Y-61800619D01*
X85271429Y-61824809D01*
X85295619Y-61849000D01*
X85319810Y-61897381D01*
X85319810Y-61945762D01*
X85295619Y-61994143D01*
X85271429Y-62018333D01*
X85223048Y-62042524D01*
X85126286Y-62066714D01*
X85005333Y-62066714D01*
X84908571Y-62042524D01*
X84860190Y-62018333D01*
X84836000Y-61994143D01*
X84811810Y-61945762D01*
X85319810Y-61292618D02*
X85319810Y-61582904D01*
X85319810Y-61437761D02*
X84811810Y-61437761D01*
X84884381Y-61486142D01*
X84932762Y-61534523D01*
X84956952Y-61582904D01*
X80436619Y-71122524D02*
X80388238Y-71098333D01*
X80364047Y-71074143D01*
X80339857Y-71025762D01*
X80339857Y-71001571D01*
X80364047Y-70953190D01*
X80388238Y-70929000D01*
X80436619Y-70904810D01*
X80533381Y-70904810D01*
X80581762Y-70929000D01*
X80605952Y-70953190D01*
X80630143Y-71001571D01*
X80630143Y-71025762D01*
X80605952Y-71074143D01*
X80581762Y-71098333D01*
X80533381Y-71122524D01*
X80436619Y-71122524D01*
X80388238Y-71146714D01*
X80364047Y-71170905D01*
X80339857Y-71219286D01*
X80339857Y-71316048D01*
X80364047Y-71364429D01*
X80388238Y-71388619D01*
X80436619Y-71412810D01*
X80533381Y-71412810D01*
X80581762Y-71388619D01*
X80605952Y-71364429D01*
X80630143Y-71316048D01*
X80630143Y-71219286D01*
X80605952Y-71170905D01*
X80581762Y-71146714D01*
X80533381Y-71122524D01*
X80630143Y-63612810D02*
X80339857Y-63612810D01*
X80485000Y-63612810D02*
X80485000Y-63104810D01*
X80436619Y-63177381D01*
X80388238Y-63225762D01*
X80339857Y-63249952D01*
X64685858Y-71164429D02*
X64661668Y-71188619D01*
X64589096Y-71212810D01*
X64540715Y-71212810D01*
X64468144Y-71188619D01*
X64419763Y-71140238D01*
X64395572Y-71091857D01*
X64371382Y-70995095D01*
X64371382Y-70922524D01*
X64395572Y-70825762D01*
X64419763Y-70777381D01*
X64468144Y-70729000D01*
X64540715Y-70704810D01*
X64589096Y-70704810D01*
X64661668Y-70729000D01*
X64685858Y-70753190D01*
X65000334Y-70704810D02*
X65097096Y-70704810D01*
X65145477Y-70729000D01*
X65193858Y-70777381D01*
X65218049Y-70874143D01*
X65218049Y-71043476D01*
X65193858Y-71140238D01*
X65145477Y-71188619D01*
X65097096Y-71212810D01*
X65000334Y-71212810D01*
X64951953Y-71188619D01*
X64903572Y-71140238D01*
X64879382Y-71043476D01*
X64879382Y-70874143D01*
X64903572Y-70777381D01*
X64951953Y-70729000D01*
X65000334Y-70704810D01*
X65435762Y-71212810D02*
X65435762Y-70704810D01*
X65605096Y-71067667D01*
X65774429Y-70704810D01*
X65774429Y-71212810D01*
X60473762Y-63612810D02*
X60473762Y-63104810D01*
X60764048Y-63612810D01*
X60764048Y-63104810D01*
X61102714Y-63104810D02*
X61199476Y-63104810D01*
X61247857Y-63129000D01*
X61296238Y-63177381D01*
X61320429Y-63274143D01*
X61320429Y-63443476D01*
X61296238Y-63540238D01*
X61247857Y-63588619D01*
X61199476Y-63612810D01*
X61102714Y-63612810D01*
X61054333Y-63588619D01*
X61005952Y-63540238D01*
X60981762Y-63443476D01*
X60981762Y-63274143D01*
X61005952Y-63177381D01*
X61054333Y-63129000D01*
X61102714Y-63104810D01*
X89891810Y-68041763D02*
X89383810Y-68041763D01*
X89383810Y-67920810D01*
X89408000Y-67848239D01*
X89456381Y-67799858D01*
X89504762Y-67775667D01*
X89601524Y-67751477D01*
X89674095Y-67751477D01*
X89770857Y-67775667D01*
X89819238Y-67799858D01*
X89867619Y-67848239D01*
X89891810Y-67920810D01*
X89891810Y-68041763D01*
X89553143Y-67316048D02*
X89891810Y-67316048D01*
X89359619Y-67437001D02*
X89722476Y-67557953D01*
X89722476Y-67243477D01*
X89383810Y-66953191D02*
X89383810Y-66904810D01*
X89408000Y-66856429D01*
X89432190Y-66832238D01*
X89480571Y-66808048D01*
X89577333Y-66783857D01*
X89698286Y-66783857D01*
X89795048Y-66808048D01*
X89843429Y-66832238D01*
X89867619Y-66856429D01*
X89891810Y-66904810D01*
X89891810Y-66953191D01*
X89867619Y-67001572D01*
X89843429Y-67025762D01*
X89795048Y-67049953D01*
X89698286Y-67074143D01*
X89577333Y-67074143D01*
X89480571Y-67049953D01*
X89432190Y-67025762D01*
X89408000Y-67001572D01*
X89383810Y-66953191D01*
X89553143Y-66348428D02*
X89891810Y-66348428D01*
X89359619Y-66469381D02*
X89722476Y-66590333D01*
X89722476Y-66275857D01*
X86132610Y-82240363D02*
X85624610Y-82240363D01*
X85624610Y-82119410D01*
X85648800Y-82046839D01*
X85697181Y-81998458D01*
X85745562Y-81974267D01*
X85842324Y-81950077D01*
X85914895Y-81950077D01*
X86011657Y-81974267D01*
X86060038Y-81998458D01*
X86108419Y-82046839D01*
X86132610Y-82119410D01*
X86132610Y-82240363D01*
X85793943Y-81514648D02*
X86132610Y-81514648D01*
X85600419Y-81635601D02*
X85963276Y-81756553D01*
X85963276Y-81442077D01*
X85624610Y-81151791D02*
X85624610Y-81103410D01*
X85648800Y-81055029D01*
X85672990Y-81030838D01*
X85721371Y-81006648D01*
X85818133Y-80982457D01*
X85939086Y-80982457D01*
X86035848Y-81006648D01*
X86084229Y-81030838D01*
X86108419Y-81055029D01*
X86132610Y-81103410D01*
X86132610Y-81151791D01*
X86108419Y-81200172D01*
X86084229Y-81224362D01*
X86035848Y-81248553D01*
X85939086Y-81272743D01*
X85818133Y-81272743D01*
X85721371Y-81248553D01*
X85672990Y-81224362D01*
X85648800Y-81200172D01*
X85624610Y-81151791D01*
X85624610Y-80522838D02*
X85624610Y-80764743D01*
X85866514Y-80788933D01*
X85842324Y-80764743D01*
X85818133Y-80716362D01*
X85818133Y-80595409D01*
X85842324Y-80547028D01*
X85866514Y-80522838D01*
X85914895Y-80498647D01*
X86035848Y-80498647D01*
X86084229Y-80522838D01*
X86108419Y-80547028D01*
X86132610Y-80595409D01*
X86132610Y-80716362D01*
X86108419Y-80764743D01*
X86084229Y-80788933D01*
X94006610Y-95499163D02*
X93498610Y-95499163D01*
X93498610Y-95378210D01*
X93522800Y-95305639D01*
X93571181Y-95257258D01*
X93619562Y-95233067D01*
X93716324Y-95208877D01*
X93788895Y-95208877D01*
X93885657Y-95233067D01*
X93934038Y-95257258D01*
X93982419Y-95305639D01*
X94006610Y-95378210D01*
X94006610Y-95499163D01*
X93667943Y-94773448D02*
X94006610Y-94773448D01*
X93474419Y-94894401D02*
X93837276Y-95015353D01*
X93837276Y-94700877D01*
X93498610Y-94410591D02*
X93498610Y-94362210D01*
X93522800Y-94313829D01*
X93546990Y-94289638D01*
X93595371Y-94265448D01*
X93692133Y-94241257D01*
X93813086Y-94241257D01*
X93909848Y-94265448D01*
X93958229Y-94289638D01*
X93982419Y-94313829D01*
X94006610Y-94362210D01*
X94006610Y-94410591D01*
X93982419Y-94458972D01*
X93958229Y-94483162D01*
X93909848Y-94507353D01*
X93813086Y-94531543D01*
X93692133Y-94531543D01*
X93595371Y-94507353D01*
X93546990Y-94483162D01*
X93522800Y-94458972D01*
X93498610Y-94410591D01*
X93498610Y-93805828D02*
X93498610Y-93902590D01*
X93522800Y-93950971D01*
X93546990Y-93975162D01*
X93619562Y-94023543D01*
X93716324Y-94047733D01*
X93909848Y-94047733D01*
X93958229Y-94023543D01*
X93982419Y-93999352D01*
X94006610Y-93950971D01*
X94006610Y-93854209D01*
X93982419Y-93805828D01*
X93958229Y-93781638D01*
X93909848Y-93757447D01*
X93788895Y-93757447D01*
X93740514Y-93781638D01*
X93716324Y-93805828D01*
X93692133Y-93854209D01*
X93692133Y-93950971D01*
X93716324Y-93999352D01*
X93740514Y-94023543D01*
X93788895Y-94047733D01*
X96493390Y-72668191D02*
X96469200Y-72716572D01*
X96420819Y-72764953D01*
X96348248Y-72837524D01*
X96324057Y-72885905D01*
X96324057Y-72934286D01*
X96445010Y-72910096D02*
X96420819Y-72958477D01*
X96372438Y-73006858D01*
X96275676Y-73031048D01*
X96106343Y-73031048D01*
X96009581Y-73006858D01*
X95961200Y-72958477D01*
X95937010Y-72910096D01*
X95937010Y-72813334D01*
X95961200Y-72764953D01*
X96009581Y-72716572D01*
X96106343Y-72692381D01*
X96275676Y-72692381D01*
X96372438Y-72716572D01*
X96420819Y-72764953D01*
X96445010Y-72813334D01*
X96445010Y-72910096D01*
X96106343Y-72256953D02*
X96445010Y-72256953D01*
X95912819Y-72377906D02*
X96275676Y-72498858D01*
X96275676Y-72184382D01*
X95937010Y-71894096D02*
X95937010Y-71845715D01*
X95961200Y-71797334D01*
X95985390Y-71773143D01*
X96033771Y-71748953D01*
X96130533Y-71724762D01*
X96251486Y-71724762D01*
X96348248Y-71748953D01*
X96396629Y-71773143D01*
X96420819Y-71797334D01*
X96445010Y-71845715D01*
X96445010Y-71894096D01*
X96420819Y-71942477D01*
X96396629Y-71966667D01*
X96348248Y-71990858D01*
X96251486Y-72015048D01*
X96130533Y-72015048D01*
X96033771Y-71990858D01*
X95985390Y-71966667D01*
X95961200Y-71942477D01*
X95937010Y-71894096D01*
X96445010Y-71240952D02*
X96445010Y-71531238D01*
X96445010Y-71386095D02*
X95937010Y-71386095D01*
X96009581Y-71434476D01*
X96057962Y-71482857D01*
X96082152Y-71531238D01*
X96493390Y-80084991D02*
X96469200Y-80133372D01*
X96420819Y-80181753D01*
X96348248Y-80254324D01*
X96324057Y-80302705D01*
X96324057Y-80351086D01*
X96445010Y-80326896D02*
X96420819Y-80375277D01*
X96372438Y-80423658D01*
X96275676Y-80447848D01*
X96106343Y-80447848D01*
X96009581Y-80423658D01*
X95961200Y-80375277D01*
X95937010Y-80326896D01*
X95937010Y-80230134D01*
X95961200Y-80181753D01*
X96009581Y-80133372D01*
X96106343Y-80109181D01*
X96275676Y-80109181D01*
X96372438Y-80133372D01*
X96420819Y-80181753D01*
X96445010Y-80230134D01*
X96445010Y-80326896D01*
X96106343Y-79673753D02*
X96445010Y-79673753D01*
X95912819Y-79794706D02*
X96275676Y-79915658D01*
X96275676Y-79601182D01*
X95937010Y-79310896D02*
X95937010Y-79262515D01*
X95961200Y-79214134D01*
X95985390Y-79189943D01*
X96033771Y-79165753D01*
X96130533Y-79141562D01*
X96251486Y-79141562D01*
X96348248Y-79165753D01*
X96396629Y-79189943D01*
X96420819Y-79214134D01*
X96445010Y-79262515D01*
X96445010Y-79310896D01*
X96420819Y-79359277D01*
X96396629Y-79383467D01*
X96348248Y-79407658D01*
X96251486Y-79431848D01*
X96130533Y-79431848D01*
X96033771Y-79407658D01*
X95985390Y-79383467D01*
X95961200Y-79359277D01*
X95937010Y-79310896D01*
X95985390Y-78948038D02*
X95961200Y-78923848D01*
X95937010Y-78875467D01*
X95937010Y-78754514D01*
X95961200Y-78706133D01*
X95985390Y-78681943D01*
X96033771Y-78657752D01*
X96082152Y-78657752D01*
X96154724Y-78681943D01*
X96445010Y-78972229D01*
X96445010Y-78657752D01*
X96594990Y-87298591D02*
X96570800Y-87346972D01*
X96522419Y-87395353D01*
X96449848Y-87467924D01*
X96425657Y-87516305D01*
X96425657Y-87564686D01*
X96546610Y-87540496D02*
X96522419Y-87588877D01*
X96474038Y-87637258D01*
X96377276Y-87661448D01*
X96207943Y-87661448D01*
X96111181Y-87637258D01*
X96062800Y-87588877D01*
X96038610Y-87540496D01*
X96038610Y-87443734D01*
X96062800Y-87395353D01*
X96111181Y-87346972D01*
X96207943Y-87322781D01*
X96377276Y-87322781D01*
X96474038Y-87346972D01*
X96522419Y-87395353D01*
X96546610Y-87443734D01*
X96546610Y-87540496D01*
X96207943Y-86887353D02*
X96546610Y-86887353D01*
X96014419Y-87008306D02*
X96377276Y-87129258D01*
X96377276Y-86814782D01*
X96038610Y-86524496D02*
X96038610Y-86476115D01*
X96062800Y-86427734D01*
X96086990Y-86403543D01*
X96135371Y-86379353D01*
X96232133Y-86355162D01*
X96353086Y-86355162D01*
X96449848Y-86379353D01*
X96498229Y-86403543D01*
X96522419Y-86427734D01*
X96546610Y-86476115D01*
X96546610Y-86524496D01*
X96522419Y-86572877D01*
X96498229Y-86597067D01*
X96449848Y-86621258D01*
X96353086Y-86645448D01*
X96232133Y-86645448D01*
X96135371Y-86621258D01*
X96086990Y-86597067D01*
X96062800Y-86572877D01*
X96038610Y-86524496D01*
X96038610Y-86185829D02*
X96038610Y-85871352D01*
X96232133Y-86040686D01*
X96232133Y-85968114D01*
X96256324Y-85919733D01*
X96280514Y-85895543D01*
X96328895Y-85871352D01*
X96449848Y-85871352D01*
X96498229Y-85895543D01*
X96522419Y-85919733D01*
X96546610Y-85968114D01*
X96546610Y-86113257D01*
X96522419Y-86161638D01*
X96498229Y-86185829D01*
X98085123Y-76074210D02*
X97915790Y-75832305D01*
X97794837Y-76074210D02*
X97794837Y-75566210D01*
X97988361Y-75566210D01*
X98036742Y-75590400D01*
X98060933Y-75614590D01*
X98085123Y-75662971D01*
X98085123Y-75735543D01*
X98060933Y-75783924D01*
X98036742Y-75808114D01*
X97988361Y-75832305D01*
X97794837Y-75832305D01*
X98520552Y-75735543D02*
X98520552Y-76074210D01*
X98399599Y-75542019D02*
X98278647Y-75904876D01*
X98593123Y-75904876D01*
X98883409Y-75566210D02*
X98931790Y-75566210D01*
X98980171Y-75590400D01*
X99004362Y-75614590D01*
X99028552Y-75662971D01*
X99052743Y-75759733D01*
X99052743Y-75880686D01*
X99028552Y-75977448D01*
X99004362Y-76025829D01*
X98980171Y-76050019D01*
X98931790Y-76074210D01*
X98883409Y-76074210D01*
X98835028Y-76050019D01*
X98810838Y-76025829D01*
X98786647Y-75977448D01*
X98762457Y-75880686D01*
X98762457Y-75759733D01*
X98786647Y-75662971D01*
X98810838Y-75614590D01*
X98835028Y-75590400D01*
X98883409Y-75566210D01*
X99536553Y-76074210D02*
X99246267Y-76074210D01*
X99391410Y-76074210D02*
X99391410Y-75566210D01*
X99343029Y-75638781D01*
X99294648Y-75687162D01*
X99246267Y-75711352D01*
X98110523Y-83033810D02*
X97941190Y-82791905D01*
X97820237Y-83033810D02*
X97820237Y-82525810D01*
X98013761Y-82525810D01*
X98062142Y-82550000D01*
X98086333Y-82574190D01*
X98110523Y-82622571D01*
X98110523Y-82695143D01*
X98086333Y-82743524D01*
X98062142Y-82767714D01*
X98013761Y-82791905D01*
X97820237Y-82791905D01*
X98545952Y-82695143D02*
X98545952Y-83033810D01*
X98424999Y-82501619D02*
X98304047Y-82864476D01*
X98618523Y-82864476D01*
X98908809Y-82525810D02*
X98957190Y-82525810D01*
X99005571Y-82550000D01*
X99029762Y-82574190D01*
X99053952Y-82622571D01*
X99078143Y-82719333D01*
X99078143Y-82840286D01*
X99053952Y-82937048D01*
X99029762Y-82985429D01*
X99005571Y-83009619D01*
X98957190Y-83033810D01*
X98908809Y-83033810D01*
X98860428Y-83009619D01*
X98836238Y-82985429D01*
X98812047Y-82937048D01*
X98787857Y-82840286D01*
X98787857Y-82719333D01*
X98812047Y-82622571D01*
X98836238Y-82574190D01*
X98860428Y-82550000D01*
X98908809Y-82525810D01*
X99271667Y-82574190D02*
X99295857Y-82550000D01*
X99344238Y-82525810D01*
X99465191Y-82525810D01*
X99513572Y-82550000D01*
X99537762Y-82574190D01*
X99561953Y-82622571D01*
X99561953Y-82670952D01*
X99537762Y-82743524D01*
X99247476Y-83033810D01*
X99561953Y-83033810D01*
X98110523Y-90145810D02*
X97941190Y-89903905D01*
X97820237Y-90145810D02*
X97820237Y-89637810D01*
X98013761Y-89637810D01*
X98062142Y-89662000D01*
X98086333Y-89686190D01*
X98110523Y-89734571D01*
X98110523Y-89807143D01*
X98086333Y-89855524D01*
X98062142Y-89879714D01*
X98013761Y-89903905D01*
X97820237Y-89903905D01*
X98545952Y-89807143D02*
X98545952Y-90145810D01*
X98424999Y-89613619D02*
X98304047Y-89976476D01*
X98618523Y-89976476D01*
X98908809Y-89637810D02*
X98957190Y-89637810D01*
X99005571Y-89662000D01*
X99029762Y-89686190D01*
X99053952Y-89734571D01*
X99078143Y-89831333D01*
X99078143Y-89952286D01*
X99053952Y-90049048D01*
X99029762Y-90097429D01*
X99005571Y-90121619D01*
X98957190Y-90145810D01*
X98908809Y-90145810D01*
X98860428Y-90121619D01*
X98836238Y-90097429D01*
X98812047Y-90049048D01*
X98787857Y-89952286D01*
X98787857Y-89831333D01*
X98812047Y-89734571D01*
X98836238Y-89686190D01*
X98860428Y-89662000D01*
X98908809Y-89637810D01*
X99247476Y-89637810D02*
X99561953Y-89637810D01*
X99392619Y-89831333D01*
X99465191Y-89831333D01*
X99513572Y-89855524D01*
X99537762Y-89879714D01*
X99561953Y-89928095D01*
X99561953Y-90049048D01*
X99537762Y-90097429D01*
X99513572Y-90121619D01*
X99465191Y-90145810D01*
X99320048Y-90145810D01*
X99271667Y-90121619D01*
X99247476Y-90097429D01*
X89195123Y-74905810D02*
X89025790Y-74663905D01*
X88904837Y-74905810D02*
X88904837Y-74397810D01*
X89098361Y-74397810D01*
X89146742Y-74422000D01*
X89170933Y-74446190D01*
X89195123Y-74494571D01*
X89195123Y-74567143D01*
X89170933Y-74615524D01*
X89146742Y-74639714D01*
X89098361Y-74663905D01*
X88904837Y-74663905D01*
X89630552Y-74567143D02*
X89630552Y-74905810D01*
X89509599Y-74373619D02*
X89388647Y-74736476D01*
X89703123Y-74736476D01*
X89993409Y-74397810D02*
X90041790Y-74397810D01*
X90090171Y-74422000D01*
X90114362Y-74446190D01*
X90138552Y-74494571D01*
X90162743Y-74591333D01*
X90162743Y-74712286D01*
X90138552Y-74809048D01*
X90114362Y-74857429D01*
X90090171Y-74881619D01*
X90041790Y-74905810D01*
X89993409Y-74905810D01*
X89945028Y-74881619D01*
X89920838Y-74857429D01*
X89896647Y-74809048D01*
X89872457Y-74712286D01*
X89872457Y-74591333D01*
X89896647Y-74494571D01*
X89920838Y-74446190D01*
X89945028Y-74422000D01*
X89993409Y-74397810D01*
X90332076Y-74397810D02*
X90670743Y-74397810D01*
X90453029Y-74905810D01*
X89042723Y-82221010D02*
X88873390Y-81979105D01*
X88752437Y-82221010D02*
X88752437Y-81713010D01*
X88945961Y-81713010D01*
X88994342Y-81737200D01*
X89018533Y-81761390D01*
X89042723Y-81809771D01*
X89042723Y-81882343D01*
X89018533Y-81930724D01*
X88994342Y-81954914D01*
X88945961Y-81979105D01*
X88752437Y-81979105D01*
X89478152Y-81882343D02*
X89478152Y-82221010D01*
X89357199Y-81688819D02*
X89236247Y-82051676D01*
X89550723Y-82051676D01*
X89841009Y-81713010D02*
X89889390Y-81713010D01*
X89937771Y-81737200D01*
X89961962Y-81761390D01*
X89986152Y-81809771D01*
X90010343Y-81906533D01*
X90010343Y-82027486D01*
X89986152Y-82124248D01*
X89961962Y-82172629D01*
X89937771Y-82196819D01*
X89889390Y-82221010D01*
X89841009Y-82221010D01*
X89792628Y-82196819D01*
X89768438Y-82172629D01*
X89744247Y-82124248D01*
X89720057Y-82027486D01*
X89720057Y-81906533D01*
X89744247Y-81809771D01*
X89768438Y-81761390D01*
X89792628Y-81737200D01*
X89841009Y-81713010D01*
X90300629Y-81930724D02*
X90252248Y-81906533D01*
X90228057Y-81882343D01*
X90203867Y-81833962D01*
X90203867Y-81809771D01*
X90228057Y-81761390D01*
X90252248Y-81737200D01*
X90300629Y-81713010D01*
X90397391Y-81713010D01*
X90445772Y-81737200D01*
X90469962Y-81761390D01*
X90494153Y-81809771D01*
X90494153Y-81833962D01*
X90469962Y-81882343D01*
X90445772Y-81906533D01*
X90397391Y-81930724D01*
X90300629Y-81930724D01*
X90252248Y-81954914D01*
X90228057Y-81979105D01*
X90203867Y-82027486D01*
X90203867Y-82124248D01*
X90228057Y-82172629D01*
X90252248Y-82196819D01*
X90300629Y-82221010D01*
X90397391Y-82221010D01*
X90445772Y-82196819D01*
X90469962Y-82172629D01*
X90494153Y-82124248D01*
X90494153Y-82027486D01*
X90469962Y-81979105D01*
X90445772Y-81954914D01*
X90397391Y-81930724D01*
X89383810Y-88249277D02*
X89141905Y-88418610D01*
X89383810Y-88539563D02*
X88875810Y-88539563D01*
X88875810Y-88346039D01*
X88900000Y-88297658D01*
X88924190Y-88273467D01*
X88972571Y-88249277D01*
X89045143Y-88249277D01*
X89093524Y-88273467D01*
X89117714Y-88297658D01*
X89141905Y-88346039D01*
X89141905Y-88539563D01*
X89045143Y-87813848D02*
X89383810Y-87813848D01*
X88851619Y-87934801D02*
X89214476Y-88055753D01*
X89214476Y-87741277D01*
X88875810Y-87450991D02*
X88875810Y-87402610D01*
X88900000Y-87354229D01*
X88924190Y-87330038D01*
X88972571Y-87305848D01*
X89069333Y-87281657D01*
X89190286Y-87281657D01*
X89287048Y-87305848D01*
X89335429Y-87330038D01*
X89359619Y-87354229D01*
X89383810Y-87402610D01*
X89383810Y-87450991D01*
X89359619Y-87499372D01*
X89335429Y-87523562D01*
X89287048Y-87547753D01*
X89190286Y-87571943D01*
X89069333Y-87571943D01*
X88972571Y-87547753D01*
X88924190Y-87523562D01*
X88900000Y-87499372D01*
X88875810Y-87450991D01*
X89383810Y-87039752D02*
X89383810Y-86942990D01*
X89359619Y-86894609D01*
X89335429Y-86870419D01*
X89262857Y-86822038D01*
X89166095Y-86797847D01*
X88972571Y-86797847D01*
X88924190Y-86822038D01*
X88900000Y-86846228D01*
X88875810Y-86894609D01*
X88875810Y-86991371D01*
X88900000Y-87039752D01*
X88924190Y-87063943D01*
X88972571Y-87088133D01*
X89093524Y-87088133D01*
X89141905Y-87063943D01*
X89166095Y-87039752D01*
X89190286Y-86991371D01*
X89190286Y-86894609D01*
X89166095Y-86846228D01*
X89141905Y-86822038D01*
X89093524Y-86797847D01*
X51741010Y-100756963D02*
X51233010Y-100756963D01*
X51233010Y-100563439D01*
X51257200Y-100515058D01*
X51281390Y-100490867D01*
X51329771Y-100466677D01*
X51402343Y-100466677D01*
X51450724Y-100490867D01*
X51474914Y-100515058D01*
X51499105Y-100563439D01*
X51499105Y-100756963D01*
X51741010Y-99982867D02*
X51741010Y-100273153D01*
X51741010Y-100128010D02*
X51233010Y-100128010D01*
X51305581Y-100176391D01*
X51353962Y-100224772D01*
X51378152Y-100273153D01*
X51233010Y-99668391D02*
X51233010Y-99620010D01*
X51257200Y-99571629D01*
X51281390Y-99547438D01*
X51329771Y-99523248D01*
X51426533Y-99499057D01*
X51547486Y-99499057D01*
X51644248Y-99523248D01*
X51692629Y-99547438D01*
X51716819Y-99571629D01*
X51741010Y-99620010D01*
X51741010Y-99668391D01*
X51716819Y-99716772D01*
X51692629Y-99740962D01*
X51644248Y-99765153D01*
X51547486Y-99789343D01*
X51426533Y-99789343D01*
X51329771Y-99765153D01*
X51281390Y-99740962D01*
X51257200Y-99716772D01*
X51233010Y-99668391D01*
X51233010Y-99063628D02*
X51233010Y-99160390D01*
X51257200Y-99208771D01*
X51281390Y-99232962D01*
X51353962Y-99281343D01*
X51450724Y-99305533D01*
X51644248Y-99305533D01*
X51692629Y-99281343D01*
X51716819Y-99257152D01*
X51741010Y-99208771D01*
X51741010Y-99112009D01*
X51716819Y-99063628D01*
X51692629Y-99039438D01*
X51644248Y-99015247D01*
X51523295Y-99015247D01*
X51474914Y-99039438D01*
X51450724Y-99063628D01*
X51426533Y-99112009D01*
X51426533Y-99208771D01*
X51450724Y-99257152D01*
X51474914Y-99281343D01*
X51523295Y-99305533D01*
X51652110Y-91282763D02*
X51144110Y-91282763D01*
X51144110Y-91089239D01*
X51168300Y-91040858D01*
X51192490Y-91016667D01*
X51240871Y-90992477D01*
X51313443Y-90992477D01*
X51361824Y-91016667D01*
X51386014Y-91040858D01*
X51410205Y-91089239D01*
X51410205Y-91282763D01*
X51652110Y-90508667D02*
X51652110Y-90798953D01*
X51652110Y-90653810D02*
X51144110Y-90653810D01*
X51216681Y-90702191D01*
X51265062Y-90750572D01*
X51289252Y-90798953D01*
X51144110Y-90194191D02*
X51144110Y-90145810D01*
X51168300Y-90097429D01*
X51192490Y-90073238D01*
X51240871Y-90049048D01*
X51337633Y-90024857D01*
X51458586Y-90024857D01*
X51555348Y-90049048D01*
X51603729Y-90073238D01*
X51627919Y-90097429D01*
X51652110Y-90145810D01*
X51652110Y-90194191D01*
X51627919Y-90242572D01*
X51603729Y-90266762D01*
X51555348Y-90290953D01*
X51458586Y-90315143D01*
X51337633Y-90315143D01*
X51240871Y-90290953D01*
X51192490Y-90266762D01*
X51168300Y-90242572D01*
X51144110Y-90194191D01*
X51361824Y-89734571D02*
X51337633Y-89782952D01*
X51313443Y-89807143D01*
X51265062Y-89831333D01*
X51240871Y-89831333D01*
X51192490Y-89807143D01*
X51168300Y-89782952D01*
X51144110Y-89734571D01*
X51144110Y-89637809D01*
X51168300Y-89589428D01*
X51192490Y-89565238D01*
X51240871Y-89541047D01*
X51265062Y-89541047D01*
X51313443Y-89565238D01*
X51337633Y-89589428D01*
X51361824Y-89637809D01*
X51361824Y-89734571D01*
X51386014Y-89782952D01*
X51410205Y-89807143D01*
X51458586Y-89831333D01*
X51555348Y-89831333D01*
X51603729Y-89807143D01*
X51627919Y-89782952D01*
X51652110Y-89734571D01*
X51652110Y-89637809D01*
X51627919Y-89589428D01*
X51603729Y-89565238D01*
X51555348Y-89541047D01*
X51458586Y-89541047D01*
X51410205Y-89565238D01*
X51386014Y-89589428D01*
X51361824Y-89637809D01*
D13*
X54594286Y-89697571D02*
X54260952Y-89697571D01*
X54260952Y-90221381D02*
X54260952Y-89221381D01*
X54737143Y-89221381D01*
X55641905Y-90221381D02*
X55070476Y-90221381D01*
X55356190Y-90221381D02*
X55356190Y-89221381D01*
X55260952Y-89364238D01*
X55165714Y-89459476D01*
X55070476Y-89507095D01*
X56260952Y-89221381D02*
X56356191Y-89221381D01*
X56451429Y-89269000D01*
X56499048Y-89316619D01*
X56546667Y-89411857D01*
X56594286Y-89602333D01*
X56594286Y-89840429D01*
X56546667Y-90030905D01*
X56499048Y-90126143D01*
X56451429Y-90173762D01*
X56356191Y-90221381D01*
X56260952Y-90221381D01*
X56165714Y-90173762D01*
X56118095Y-90126143D01*
X56070476Y-90030905D01*
X56022857Y-89840429D01*
X56022857Y-89602333D01*
X56070476Y-89411857D01*
X56118095Y-89316619D01*
X56165714Y-89269000D01*
X56260952Y-89221381D01*
X57546667Y-90221381D02*
X56975238Y-90221381D01*
X57260952Y-90221381D02*
X57260952Y-89221381D01*
X57165714Y-89364238D01*
X57070476Y-89459476D01*
X56975238Y-89507095D01*
X94582381Y-65190476D02*
X93582381Y-65190476D01*
X93582381Y-64809523D01*
X93630000Y-64714285D01*
X93677619Y-64666666D01*
X93772857Y-64619047D01*
X93915714Y-64619047D01*
X94010952Y-64666666D01*
X94058571Y-64714285D01*
X94106190Y-64809523D01*
X94106190Y-65190476D01*
X94582381Y-63666666D02*
X94582381Y-64238095D01*
X94582381Y-63952381D02*
X93582381Y-63952381D01*
X93725238Y-64047619D01*
X93820476Y-64142857D01*
X93868095Y-64238095D01*
X93582381Y-63047619D02*
X93582381Y-62952380D01*
X93630000Y-62857142D01*
X93677619Y-62809523D01*
X93772857Y-62761904D01*
X93963333Y-62714285D01*
X94201429Y-62714285D01*
X94391905Y-62761904D01*
X94487143Y-62809523D01*
X94534762Y-62857142D01*
X94582381Y-62952380D01*
X94582381Y-63047619D01*
X94534762Y-63142857D01*
X94487143Y-63190476D01*
X94391905Y-63238095D01*
X94201429Y-63285714D01*
X93963333Y-63285714D01*
X93772857Y-63238095D01*
X93677619Y-63190476D01*
X93630000Y-63142857D01*
X93582381Y-63047619D01*
X93582381Y-62380952D02*
X93582381Y-61714285D01*
X94582381Y-62142857D01*
M02*
