G04 #@! TF.FileFunction,Soldermask,Bot*
%FSLAX46Y46*%
G04 Gerber Fmt 4.6, Leading zero omitted, Abs format (unit mm)*
G04 Created by KiCad (PCBNEW 4.0.2-4+6225~38~ubuntu14.04.1-stable) date Thu 05 Jan 2017 08:50:19 PM CET*
%MOMM*%
G01*
G04 APERTURE LIST*
%ADD10C,0.100000*%
%ADD11C,1.524000*%
%ADD12C,3.200000*%
%ADD13R,3.000000X2.000000*%
%ADD14C,1.501140*%
%ADD15R,1.700000X1.700000*%
%ADD16O,1.700000X1.700000*%
G04 APERTURE END LIST*
D10*
D11*
X86730000Y-91577000D03*
X86730000Y-99177000D03*
X66730000Y-99177000D03*
X63230000Y-91577000D03*
X78475000Y-77480000D03*
X78475000Y-85080000D03*
X58475000Y-85080000D03*
X54975000Y-77480000D03*
X82285000Y-63383000D03*
X82285000Y-70983000D03*
X62285000Y-70983000D03*
X58785000Y-63383000D03*
D12*
X53086000Y-59780000D03*
X53086000Y-102780000D03*
D13*
X41275000Y-93472000D03*
X41275000Y-98472000D03*
X46275000Y-98472000D03*
X46275000Y-93472000D03*
X41275000Y-64262000D03*
X41275000Y-69262000D03*
X41275000Y-74262000D03*
X41275000Y-79262000D03*
X41275000Y-84262000D03*
X41275000Y-89262000D03*
X46275000Y-89262000D03*
X46275000Y-84262000D03*
X46275000Y-79262000D03*
X46275000Y-74262000D03*
X46275000Y-69262000D03*
X46275000Y-64262000D03*
D14*
X53340000Y-94869000D03*
X58420000Y-94879160D03*
D15*
X96520000Y-63500000D03*
D16*
X99060000Y-63500000D03*
X101600000Y-63500000D03*
X104140000Y-63500000D03*
X106680000Y-63500000D03*
X109220000Y-63500000D03*
X111760000Y-63500000D03*
X114300000Y-63500000D03*
M02*
