G04 #@! TF.FileFunction,Soldermask,Bot*
%FSLAX46Y46*%
G04 Gerber Fmt 4.6, Leading zero omitted, Abs format (unit mm)*
G04 Created by KiCad (PCBNEW 4.0.0-rc1-stable) date 05/10/2017 19:38:19*
%MOMM*%
G01*
G04 APERTURE LIST*
%ADD10C,0.100000*%
%ADD11C,2.540000*%
%ADD12C,2.032000*%
%ADD13C,2.000000*%
%ADD14R,1.700000X1.700000*%
%ADD15O,1.700000X1.700000*%
%ADD16R,1.500000X1.250000*%
G04 APERTURE END LIST*
D10*
D11*
X51800000Y-105200000D03*
X59400000Y-105200000D03*
X59400000Y-125200000D03*
X51800000Y-128700000D03*
X67060000Y-105200000D03*
X74660000Y-105200000D03*
X74660000Y-125200000D03*
X67060000Y-128700000D03*
X82280000Y-105200000D03*
X89880000Y-105200000D03*
X89880000Y-125200000D03*
X82280000Y-128700000D03*
D12*
X105390000Y-126260000D03*
X105400160Y-121180000D03*
D13*
X61970000Y-66300000D03*
X56890000Y-66300000D03*
X51810000Y-66300000D03*
X77210000Y-66300000D03*
X72130000Y-66300000D03*
X67050000Y-66300000D03*
X92450000Y-66300000D03*
X87370000Y-66300000D03*
X82290000Y-66300000D03*
X107690000Y-66300000D03*
X102610000Y-66300000D03*
X51810000Y-139800000D03*
X56890000Y-139800000D03*
X67050000Y-139800000D03*
X72130000Y-139800000D03*
X82290000Y-139800000D03*
X87370000Y-139800000D03*
X102610000Y-139800000D03*
X107690000Y-139800000D03*
D14*
X105900000Y-75950000D03*
D15*
X108440000Y-75950000D03*
D16*
X59390600Y-69494400D03*
X56890600Y-69494400D03*
X89870600Y-69494400D03*
X87370600Y-69494400D03*
X74630600Y-69494400D03*
X72130600Y-69494400D03*
D14*
X98298000Y-97750000D03*
D15*
X100838000Y-97750000D03*
X98298000Y-95210000D03*
X100838000Y-95210000D03*
X98298000Y-92670000D03*
X100838000Y-92670000D03*
X98298000Y-90130000D03*
X100838000Y-90130000D03*
X98298000Y-87590000D03*
X100838000Y-87590000D03*
M02*
