G04 #@! TF.FileFunction,Soldermask,Top*
%FSLAX46Y46*%
G04 Gerber Fmt 4.6, Leading zero omitted, Abs format (unit mm)*
G04 Created by KiCad (PCBNEW 4.0.0-rc1-stable) date 05/10/2017 19:38:19*
%MOMM*%
G01*
G04 APERTURE LIST*
%ADD10C,0.100000*%
%ADD11R,0.910000X1.220000*%
%ADD12R,0.800000X0.900000*%
%ADD13C,2.540000*%
%ADD14C,2.032000*%
%ADD15C,2.000000*%
%ADD16R,1.700000X1.700000*%
%ADD17O,1.700000X1.700000*%
%ADD18R,0.700000X1.300000*%
%ADD19R,1.300000X0.700000*%
G04 APERTURE END LIST*
D10*
D11*
X57385000Y-99550000D03*
X54115000Y-99550000D03*
X72735000Y-99500000D03*
X69465000Y-99500000D03*
X87585000Y-99650000D03*
X84315000Y-99650000D03*
D12*
X55600000Y-89700000D03*
X53700000Y-89700000D03*
X54650000Y-91700000D03*
X70450000Y-89750000D03*
X68550000Y-89750000D03*
X69500000Y-91750000D03*
X85500000Y-89700000D03*
X83600000Y-89700000D03*
X84550000Y-91700000D03*
D13*
X51800000Y-105200000D03*
X59400000Y-105200000D03*
X59400000Y-125200000D03*
X51800000Y-128700000D03*
X67060000Y-105200000D03*
X74660000Y-105200000D03*
X74660000Y-125200000D03*
X67060000Y-128700000D03*
X82280000Y-105200000D03*
X89880000Y-105200000D03*
X89880000Y-125200000D03*
X82280000Y-128700000D03*
D14*
X105390000Y-126260000D03*
X105400160Y-121180000D03*
D15*
X61970000Y-66300000D03*
X56890000Y-66300000D03*
X51810000Y-66300000D03*
X77210000Y-66300000D03*
X72130000Y-66300000D03*
X67050000Y-66300000D03*
X92450000Y-66300000D03*
X87370000Y-66300000D03*
X82290000Y-66300000D03*
X107690000Y-66300000D03*
X102610000Y-66300000D03*
X51810000Y-139800000D03*
X56890000Y-139800000D03*
X67050000Y-139800000D03*
X72130000Y-139800000D03*
X82290000Y-139800000D03*
X87370000Y-139800000D03*
X102610000Y-139800000D03*
X107690000Y-139800000D03*
D16*
X105900000Y-75950000D03*
D17*
X108440000Y-75950000D03*
D18*
X55990000Y-85780000D03*
X57890000Y-85780000D03*
X70860000Y-85780000D03*
X72760000Y-85780000D03*
X85890000Y-85780000D03*
X87790000Y-85780000D03*
X111010000Y-97760000D03*
X109110000Y-97760000D03*
X98872000Y-101854000D03*
X100772000Y-101854000D03*
X111010000Y-92680000D03*
X109110000Y-92680000D03*
D19*
X54600000Y-96150000D03*
X54600000Y-94250000D03*
X69500000Y-96150000D03*
X69500000Y-94250000D03*
X84550000Y-96350000D03*
X84550000Y-94450000D03*
D16*
X98298000Y-97750000D03*
D17*
X100838000Y-97750000D03*
X98298000Y-95210000D03*
X100838000Y-95210000D03*
X98298000Y-92670000D03*
X100838000Y-92670000D03*
X98298000Y-90130000D03*
X100838000Y-90130000D03*
X98298000Y-87590000D03*
X100838000Y-87590000D03*
M02*
