G04 #@! TF.FileFunction,Legend,Bot*
%FSLAX46Y46*%
G04 Gerber Fmt 4.6, Leading zero omitted, Abs format (unit mm)*
G04 Created by KiCad (PCBNEW 4.0.0-rc1-stable) date 05/10/2017 19:38:19*
%MOMM*%
G01*
G04 APERTURE LIST*
%ADD10C,0.100000*%
%ADD11C,0.120000*%
%ADD12C,0.127000*%
G04 APERTURE END LIST*
D10*
D11*
X57640600Y-68644400D02*
X58640600Y-68644400D01*
X58640600Y-70344400D02*
X57640600Y-70344400D01*
X88120600Y-68644400D02*
X89120600Y-68644400D01*
X89120600Y-70344400D02*
X88120600Y-70344400D01*
X72880600Y-68644400D02*
X73880600Y-68644400D01*
X73880600Y-70344400D02*
X72880600Y-70344400D01*
D12*
X52194714Y-124983143D02*
X51432714Y-124983143D01*
X52194714Y-125418571D01*
X51432714Y-125418571D01*
X51432714Y-125926571D02*
X51432714Y-126071714D01*
X51469000Y-126144286D01*
X51541571Y-126216857D01*
X51686714Y-126253143D01*
X51940714Y-126253143D01*
X52085857Y-126216857D01*
X52158429Y-126144286D01*
X52194714Y-126071714D01*
X52194714Y-125926571D01*
X52158429Y-125854000D01*
X52085857Y-125781429D01*
X51940714Y-125745143D01*
X51686714Y-125745143D01*
X51541571Y-125781429D01*
X51469000Y-125854000D01*
X51432714Y-125926571D01*
X59672143Y-121801286D02*
X59708429Y-121765000D01*
X59744714Y-121656143D01*
X59744714Y-121583572D01*
X59708429Y-121474715D01*
X59635857Y-121402143D01*
X59563286Y-121365858D01*
X59418143Y-121329572D01*
X59309286Y-121329572D01*
X59164143Y-121365858D01*
X59091571Y-121402143D01*
X59019000Y-121474715D01*
X58982714Y-121583572D01*
X58982714Y-121656143D01*
X59019000Y-121765000D01*
X59055286Y-121801286D01*
X58982714Y-122273000D02*
X58982714Y-122418143D01*
X59019000Y-122490715D01*
X59091571Y-122563286D01*
X59236714Y-122599572D01*
X59490714Y-122599572D01*
X59635857Y-122563286D01*
X59708429Y-122490715D01*
X59744714Y-122418143D01*
X59744714Y-122273000D01*
X59708429Y-122200429D01*
X59635857Y-122127858D01*
X59490714Y-122091572D01*
X59236714Y-122091572D01*
X59091571Y-122127858D01*
X59019000Y-122200429D01*
X58982714Y-122273000D01*
X59744714Y-122926144D02*
X58982714Y-122926144D01*
X59527000Y-123180144D01*
X58982714Y-123434144D01*
X59744714Y-123434144D01*
X59559286Y-107277429D02*
X59523000Y-107204857D01*
X59486714Y-107168572D01*
X59414143Y-107132286D01*
X59377857Y-107132286D01*
X59305286Y-107168572D01*
X59269000Y-107204857D01*
X59232714Y-107277429D01*
X59232714Y-107422572D01*
X59269000Y-107495143D01*
X59305286Y-107531429D01*
X59377857Y-107567714D01*
X59414143Y-107567714D01*
X59486714Y-107531429D01*
X59523000Y-107495143D01*
X59559286Y-107422572D01*
X59559286Y-107277429D01*
X59595571Y-107204857D01*
X59631857Y-107168572D01*
X59704429Y-107132286D01*
X59849571Y-107132286D01*
X59922143Y-107168572D01*
X59958429Y-107204857D01*
X59994714Y-107277429D01*
X59994714Y-107422572D01*
X59958429Y-107495143D01*
X59922143Y-107531429D01*
X59849571Y-107567714D01*
X59704429Y-107567714D01*
X59631857Y-107531429D01*
X59595571Y-107495143D01*
X59559286Y-107422572D01*
X52094714Y-107617714D02*
X52094714Y-107182286D01*
X52094714Y-107400000D02*
X51332714Y-107400000D01*
X51441571Y-107327429D01*
X51514143Y-107254857D01*
X51550429Y-107182286D01*
X67494714Y-125133143D02*
X66732714Y-125133143D01*
X67494714Y-125568571D01*
X66732714Y-125568571D01*
X66732714Y-126076571D02*
X66732714Y-126221714D01*
X66769000Y-126294286D01*
X66841571Y-126366857D01*
X66986714Y-126403143D01*
X67240714Y-126403143D01*
X67385857Y-126366857D01*
X67458429Y-126294286D01*
X67494714Y-126221714D01*
X67494714Y-126076571D01*
X67458429Y-126004000D01*
X67385857Y-125931429D01*
X67240714Y-125895143D01*
X66986714Y-125895143D01*
X66841571Y-125931429D01*
X66769000Y-126004000D01*
X66732714Y-126076571D01*
X74932143Y-121801286D02*
X74968429Y-121765000D01*
X75004714Y-121656143D01*
X75004714Y-121583572D01*
X74968429Y-121474715D01*
X74895857Y-121402143D01*
X74823286Y-121365858D01*
X74678143Y-121329572D01*
X74569286Y-121329572D01*
X74424143Y-121365858D01*
X74351571Y-121402143D01*
X74279000Y-121474715D01*
X74242714Y-121583572D01*
X74242714Y-121656143D01*
X74279000Y-121765000D01*
X74315286Y-121801286D01*
X74242714Y-122273000D02*
X74242714Y-122418143D01*
X74279000Y-122490715D01*
X74351571Y-122563286D01*
X74496714Y-122599572D01*
X74750714Y-122599572D01*
X74895857Y-122563286D01*
X74968429Y-122490715D01*
X75004714Y-122418143D01*
X75004714Y-122273000D01*
X74968429Y-122200429D01*
X74895857Y-122127858D01*
X74750714Y-122091572D01*
X74496714Y-122091572D01*
X74351571Y-122127858D01*
X74279000Y-122200429D01*
X74242714Y-122273000D01*
X75004714Y-122926144D02*
X74242714Y-122926144D01*
X74787000Y-123180144D01*
X74242714Y-123434144D01*
X75004714Y-123434144D01*
X74659286Y-107227429D02*
X74623000Y-107154857D01*
X74586714Y-107118572D01*
X74514143Y-107082286D01*
X74477857Y-107082286D01*
X74405286Y-107118572D01*
X74369000Y-107154857D01*
X74332714Y-107227429D01*
X74332714Y-107372572D01*
X74369000Y-107445143D01*
X74405286Y-107481429D01*
X74477857Y-107517714D01*
X74514143Y-107517714D01*
X74586714Y-107481429D01*
X74623000Y-107445143D01*
X74659286Y-107372572D01*
X74659286Y-107227429D01*
X74695571Y-107154857D01*
X74731857Y-107118572D01*
X74804429Y-107082286D01*
X74949571Y-107082286D01*
X75022143Y-107118572D01*
X75058429Y-107154857D01*
X75094714Y-107227429D01*
X75094714Y-107372572D01*
X75058429Y-107445143D01*
X75022143Y-107481429D01*
X74949571Y-107517714D01*
X74804429Y-107517714D01*
X74731857Y-107481429D01*
X74695571Y-107445143D01*
X74659286Y-107372572D01*
X67494714Y-107617714D02*
X67494714Y-107182286D01*
X67494714Y-107400000D02*
X66732714Y-107400000D01*
X66841571Y-107327429D01*
X66914143Y-107254857D01*
X66950429Y-107182286D01*
X82594714Y-124983143D02*
X81832714Y-124983143D01*
X82594714Y-125418571D01*
X81832714Y-125418571D01*
X81832714Y-125926571D02*
X81832714Y-126071714D01*
X81869000Y-126144286D01*
X81941571Y-126216857D01*
X82086714Y-126253143D01*
X82340714Y-126253143D01*
X82485857Y-126216857D01*
X82558429Y-126144286D01*
X82594714Y-126071714D01*
X82594714Y-125926571D01*
X82558429Y-125854000D01*
X82485857Y-125781429D01*
X82340714Y-125745143D01*
X82086714Y-125745143D01*
X81941571Y-125781429D01*
X81869000Y-125854000D01*
X81832714Y-125926571D01*
X90152143Y-121801286D02*
X90188429Y-121765000D01*
X90224714Y-121656143D01*
X90224714Y-121583572D01*
X90188429Y-121474715D01*
X90115857Y-121402143D01*
X90043286Y-121365858D01*
X89898143Y-121329572D01*
X89789286Y-121329572D01*
X89644143Y-121365858D01*
X89571571Y-121402143D01*
X89499000Y-121474715D01*
X89462714Y-121583572D01*
X89462714Y-121656143D01*
X89499000Y-121765000D01*
X89535286Y-121801286D01*
X89462714Y-122273000D02*
X89462714Y-122418143D01*
X89499000Y-122490715D01*
X89571571Y-122563286D01*
X89716714Y-122599572D01*
X89970714Y-122599572D01*
X90115857Y-122563286D01*
X90188429Y-122490715D01*
X90224714Y-122418143D01*
X90224714Y-122273000D01*
X90188429Y-122200429D01*
X90115857Y-122127858D01*
X89970714Y-122091572D01*
X89716714Y-122091572D01*
X89571571Y-122127858D01*
X89499000Y-122200429D01*
X89462714Y-122273000D01*
X90224714Y-122926144D02*
X89462714Y-122926144D01*
X90007000Y-123180144D01*
X89462714Y-123434144D01*
X90224714Y-123434144D01*
X90009286Y-107277429D02*
X89973000Y-107204857D01*
X89936714Y-107168572D01*
X89864143Y-107132286D01*
X89827857Y-107132286D01*
X89755286Y-107168572D01*
X89719000Y-107204857D01*
X89682714Y-107277429D01*
X89682714Y-107422572D01*
X89719000Y-107495143D01*
X89755286Y-107531429D01*
X89827857Y-107567714D01*
X89864143Y-107567714D01*
X89936714Y-107531429D01*
X89973000Y-107495143D01*
X90009286Y-107422572D01*
X90009286Y-107277429D01*
X90045571Y-107204857D01*
X90081857Y-107168572D01*
X90154429Y-107132286D01*
X90299571Y-107132286D01*
X90372143Y-107168572D01*
X90408429Y-107204857D01*
X90444714Y-107277429D01*
X90444714Y-107422572D01*
X90408429Y-107495143D01*
X90372143Y-107531429D01*
X90299571Y-107567714D01*
X90154429Y-107567714D01*
X90081857Y-107531429D01*
X90045571Y-107495143D01*
X90009286Y-107422572D01*
X82594714Y-107617714D02*
X82594714Y-107182286D01*
X82594714Y-107400000D02*
X81832714Y-107400000D01*
X81941571Y-107327429D01*
X82014143Y-107254857D01*
X82050429Y-107182286D01*
X58993314Y-68016543D02*
X59029600Y-68052829D01*
X59138457Y-68089114D01*
X59211028Y-68089114D01*
X59319885Y-68052829D01*
X59392457Y-67980257D01*
X59428742Y-67907686D01*
X59465028Y-67762543D01*
X59465028Y-67653686D01*
X59428742Y-67508543D01*
X59392457Y-67435971D01*
X59319885Y-67363400D01*
X59211028Y-67327114D01*
X59138457Y-67327114D01*
X59029600Y-67363400D01*
X58993314Y-67399686D01*
X58303885Y-67327114D02*
X58666742Y-67327114D01*
X58703028Y-67689971D01*
X58666742Y-67653686D01*
X58594171Y-67617400D01*
X58412742Y-67617400D01*
X58340171Y-67653686D01*
X58303885Y-67689971D01*
X58267600Y-67762543D01*
X58267600Y-67943971D01*
X58303885Y-68016543D01*
X58340171Y-68052829D01*
X58412742Y-68089114D01*
X58594171Y-68089114D01*
X58666742Y-68052829D01*
X58703028Y-68016543D01*
X57795886Y-67327114D02*
X57723314Y-67327114D01*
X57650743Y-67363400D01*
X57614457Y-67399686D01*
X57578171Y-67472257D01*
X57541886Y-67617400D01*
X57541886Y-67798829D01*
X57578171Y-67943971D01*
X57614457Y-68016543D01*
X57650743Y-68052829D01*
X57723314Y-68089114D01*
X57795886Y-68089114D01*
X57868457Y-68052829D01*
X57904743Y-68016543D01*
X57941028Y-67943971D01*
X57977314Y-67798829D01*
X57977314Y-67617400D01*
X57941028Y-67472257D01*
X57904743Y-67399686D01*
X57868457Y-67363400D01*
X57795886Y-67327114D01*
X56816172Y-68089114D02*
X57251600Y-68089114D01*
X57033886Y-68089114D02*
X57033886Y-67327114D01*
X57106457Y-67435971D01*
X57179029Y-67508543D01*
X57251600Y-67544829D01*
X89473314Y-68016543D02*
X89509600Y-68052829D01*
X89618457Y-68089114D01*
X89691028Y-68089114D01*
X89799885Y-68052829D01*
X89872457Y-67980257D01*
X89908742Y-67907686D01*
X89945028Y-67762543D01*
X89945028Y-67653686D01*
X89908742Y-67508543D01*
X89872457Y-67435971D01*
X89799885Y-67363400D01*
X89691028Y-67327114D01*
X89618457Y-67327114D01*
X89509600Y-67363400D01*
X89473314Y-67399686D01*
X88783885Y-67327114D02*
X89146742Y-67327114D01*
X89183028Y-67689971D01*
X89146742Y-67653686D01*
X89074171Y-67617400D01*
X88892742Y-67617400D01*
X88820171Y-67653686D01*
X88783885Y-67689971D01*
X88747600Y-67762543D01*
X88747600Y-67943971D01*
X88783885Y-68016543D01*
X88820171Y-68052829D01*
X88892742Y-68089114D01*
X89074171Y-68089114D01*
X89146742Y-68052829D01*
X89183028Y-68016543D01*
X88275886Y-67327114D02*
X88203314Y-67327114D01*
X88130743Y-67363400D01*
X88094457Y-67399686D01*
X88058171Y-67472257D01*
X88021886Y-67617400D01*
X88021886Y-67798829D01*
X88058171Y-67943971D01*
X88094457Y-68016543D01*
X88130743Y-68052829D01*
X88203314Y-68089114D01*
X88275886Y-68089114D01*
X88348457Y-68052829D01*
X88384743Y-68016543D01*
X88421028Y-67943971D01*
X88457314Y-67798829D01*
X88457314Y-67617400D01*
X88421028Y-67472257D01*
X88384743Y-67399686D01*
X88348457Y-67363400D01*
X88275886Y-67327114D01*
X87731600Y-67399686D02*
X87695314Y-67363400D01*
X87622743Y-67327114D01*
X87441314Y-67327114D01*
X87368743Y-67363400D01*
X87332457Y-67399686D01*
X87296172Y-67472257D01*
X87296172Y-67544829D01*
X87332457Y-67653686D01*
X87767886Y-68089114D01*
X87296172Y-68089114D01*
X74233314Y-68016543D02*
X74269600Y-68052829D01*
X74378457Y-68089114D01*
X74451028Y-68089114D01*
X74559885Y-68052829D01*
X74632457Y-67980257D01*
X74668742Y-67907686D01*
X74705028Y-67762543D01*
X74705028Y-67653686D01*
X74668742Y-67508543D01*
X74632457Y-67435971D01*
X74559885Y-67363400D01*
X74451028Y-67327114D01*
X74378457Y-67327114D01*
X74269600Y-67363400D01*
X74233314Y-67399686D01*
X73543885Y-67327114D02*
X73906742Y-67327114D01*
X73943028Y-67689971D01*
X73906742Y-67653686D01*
X73834171Y-67617400D01*
X73652742Y-67617400D01*
X73580171Y-67653686D01*
X73543885Y-67689971D01*
X73507600Y-67762543D01*
X73507600Y-67943971D01*
X73543885Y-68016543D01*
X73580171Y-68052829D01*
X73652742Y-68089114D01*
X73834171Y-68089114D01*
X73906742Y-68052829D01*
X73943028Y-68016543D01*
X73035886Y-67327114D02*
X72963314Y-67327114D01*
X72890743Y-67363400D01*
X72854457Y-67399686D01*
X72818171Y-67472257D01*
X72781886Y-67617400D01*
X72781886Y-67798829D01*
X72818171Y-67943971D01*
X72854457Y-68016543D01*
X72890743Y-68052829D01*
X72963314Y-68089114D01*
X73035886Y-68089114D01*
X73108457Y-68052829D01*
X73144743Y-68016543D01*
X73181028Y-67943971D01*
X73217314Y-67798829D01*
X73217314Y-67617400D01*
X73181028Y-67472257D01*
X73144743Y-67399686D01*
X73108457Y-67363400D01*
X73035886Y-67327114D01*
X72527886Y-67327114D02*
X72056172Y-67327114D01*
X72310172Y-67617400D01*
X72201314Y-67617400D01*
X72128743Y-67653686D01*
X72092457Y-67689971D01*
X72056172Y-67762543D01*
X72056172Y-67943971D01*
X72092457Y-68016543D01*
X72128743Y-68052829D01*
X72201314Y-68089114D01*
X72419029Y-68089114D01*
X72491600Y-68052829D01*
X72527886Y-68016543D01*
M02*
