M48
;DRILL file {KiCad 4.0.0-rc1-stable} date 05/10/2017 19:38:23
;FORMAT={2:4/ absolute / inch / suppress leading zeros}
FMAT,2
INCH,TZ
T1C0.013
T2C0.035
T3C0.039
T4C0.045
T5C0.047
%
G90
G05
M72
T1
X23450Y-33750
X29350Y-33750
T2
X41492Y-49709
X41496Y-47709
T3
X38700Y-34484
X38700Y-35484
X38700Y-36484
X38700Y-37484
X38700Y-38484
X39700Y-34484
X39700Y-35484
X39700Y-36484
X39700Y-37484
X39700Y-38484
X41693Y-29902
X42693Y-29902
T4
X20394Y-41417
X20394Y-50669
X23386Y-41417
X23386Y-49291
X26402Y-41417
X26402Y-50669
X29394Y-41417
X29394Y-49291
X32394Y-41417
X32394Y-50669
X35386Y-41417
X35386Y-49291
T5
X20398Y-26102
X20398Y-55039
X22398Y-26102
X22398Y-55039
X24398Y-26102
X26398Y-26102
X26398Y-55039
X28398Y-26102
X28398Y-55039
X30398Y-26102
X32398Y-26102
X32398Y-55039
X34398Y-26102
X34398Y-55039
X36398Y-26102
X40398Y-26102
X40398Y-55039
X42398Y-26102
X42398Y-55039
T0
M30
