G04 #@! TF.FileFunction,Copper,L2,Bot,Signal*
%FSLAX46Y46*%
G04 Gerber Fmt 4.6, Leading zero omitted, Abs format (unit mm)*
G04 Created by KiCad (PCBNEW 4.0.0-rc1-stable) date 05/10/2017 19:38:19*
%MOMM*%
G01*
G04 APERTURE LIST*
%ADD10C,0.100000*%
%ADD11C,2.540000*%
%ADD12C,2.032000*%
%ADD13C,2.000000*%
%ADD14R,1.700000X1.700000*%
%ADD15O,1.700000X1.700000*%
%ADD16R,1.500000X1.250000*%
%ADD17C,0.685800*%
%ADD18C,0.304800*%
%ADD19C,1.219200*%
%ADD20C,0.609600*%
%ADD21C,0.152400*%
G04 APERTURE END LIST*
D10*
D11*
X51800000Y-105200000D03*
X59400000Y-105200000D03*
X59400000Y-125200000D03*
X51800000Y-128700000D03*
X67060000Y-105200000D03*
X74660000Y-105200000D03*
X74660000Y-125200000D03*
X67060000Y-128700000D03*
X82280000Y-105200000D03*
X89880000Y-105200000D03*
X89880000Y-125200000D03*
X82280000Y-128700000D03*
D12*
X105390000Y-126260000D03*
X105400160Y-121180000D03*
D13*
X61970000Y-66300000D03*
X56890000Y-66300000D03*
X51810000Y-66300000D03*
X77210000Y-66300000D03*
X72130000Y-66300000D03*
X67050000Y-66300000D03*
X92450000Y-66300000D03*
X87370000Y-66300000D03*
X82290000Y-66300000D03*
X107690000Y-66300000D03*
X102610000Y-66300000D03*
X51810000Y-139800000D03*
X56890000Y-139800000D03*
X67050000Y-139800000D03*
X72130000Y-139800000D03*
X82290000Y-139800000D03*
X87370000Y-139800000D03*
X102610000Y-139800000D03*
X107690000Y-139800000D03*
D14*
X105900000Y-75950000D03*
D15*
X108440000Y-75950000D03*
D16*
X59390600Y-69494400D03*
X56890600Y-69494400D03*
X89870600Y-69494400D03*
X87370600Y-69494400D03*
X74630600Y-69494400D03*
X72130600Y-69494400D03*
D14*
X98298000Y-97750000D03*
D15*
X100838000Y-97750000D03*
X98298000Y-95210000D03*
X100838000Y-95210000D03*
X98298000Y-92670000D03*
X100838000Y-92670000D03*
X98298000Y-90130000D03*
X100838000Y-90130000D03*
X98298000Y-87590000D03*
X100838000Y-87590000D03*
D17*
X59563000Y-85725000D03*
X74549000Y-85725000D03*
D18*
X59563000Y-85725000D02*
X60706000Y-84582000D01*
X60706000Y-84582000D02*
X85130000Y-84582000D01*
X85130000Y-84582000D02*
X98298000Y-97750000D01*
X74549000Y-85725000D02*
X75692000Y-85725000D01*
X75692000Y-85725000D02*
X91440000Y-101473000D01*
X91440000Y-101473000D02*
X97115000Y-101473000D01*
X97115000Y-101473000D02*
X100838000Y-97750000D01*
D19*
X105390000Y-126260000D02*
X102610000Y-129040000D01*
X102610000Y-129040000D02*
X102610000Y-139800000D01*
X51800000Y-128700000D02*
X51800000Y-139790000D01*
X51800000Y-139790000D02*
X51810000Y-139800000D01*
X67060000Y-128700000D02*
X67060000Y-139790000D01*
X67060000Y-139790000D02*
X67050000Y-139800000D01*
X66950000Y-139750000D02*
X67250000Y-140050000D01*
X82280000Y-128700000D02*
X82280000Y-139790000D01*
X82280000Y-139790000D02*
X82290000Y-139800000D01*
X81950000Y-139750000D02*
X82250000Y-140050000D01*
D20*
X87370000Y-66300000D02*
X87370600Y-66300600D01*
X87370600Y-66300600D02*
X87370600Y-69494400D01*
X72130000Y-66300000D02*
X72130600Y-66300600D01*
X72130600Y-66300600D02*
X72130600Y-69494400D01*
X56890000Y-66300000D02*
X56890600Y-66300600D01*
X56890600Y-66300600D02*
X56890600Y-69494400D01*
D19*
X87370000Y-66300000D02*
X87320000Y-66350000D01*
X72130000Y-66300000D02*
X72090000Y-66340000D01*
X56890000Y-66300000D02*
X56840000Y-66350000D01*
X89880000Y-125200000D02*
X93900000Y-121180000D01*
X93900000Y-121180000D02*
X105400160Y-121180000D01*
X74660000Y-125200000D02*
X74660000Y-123900000D01*
X87010000Y-122330000D02*
X89880000Y-125200000D01*
X76230000Y-122330000D02*
X87010000Y-122330000D01*
X74660000Y-123900000D02*
X76230000Y-122330000D01*
X59400000Y-125200000D02*
X59400000Y-125030000D01*
X59400000Y-125030000D02*
X62100000Y-122330000D01*
X62100000Y-122330000D02*
X71790000Y-122330000D01*
X71790000Y-122330000D02*
X74660000Y-125200000D01*
D21*
G36*
X113446400Y-108423800D02*
X46053600Y-108423800D01*
X46053600Y-105496782D01*
X50301141Y-105496782D01*
X50528808Y-106047780D01*
X50950003Y-106469710D01*
X51500602Y-106698339D01*
X52096782Y-106698859D01*
X52450197Y-106552831D01*
X58298616Y-106552831D01*
X58437545Y-106827198D01*
X59133509Y-107071650D01*
X59870044Y-107031161D01*
X60362455Y-106827198D01*
X60501384Y-106552831D01*
X59400000Y-105451447D01*
X58298616Y-106552831D01*
X52450197Y-106552831D01*
X52647780Y-106471192D01*
X53069710Y-106049997D01*
X53298339Y-105499398D01*
X53298832Y-104933509D01*
X57528350Y-104933509D01*
X57568839Y-105670044D01*
X57772802Y-106162455D01*
X58047169Y-106301384D01*
X59148553Y-105200000D01*
X59651447Y-105200000D01*
X60752831Y-106301384D01*
X61027198Y-106162455D01*
X61261010Y-105496782D01*
X65561141Y-105496782D01*
X65788808Y-106047780D01*
X66210003Y-106469710D01*
X66760602Y-106698339D01*
X67356782Y-106698859D01*
X67710197Y-106552831D01*
X73558616Y-106552831D01*
X73697545Y-106827198D01*
X74393509Y-107071650D01*
X75130044Y-107031161D01*
X75622455Y-106827198D01*
X75761384Y-106552831D01*
X74660000Y-105451447D01*
X73558616Y-106552831D01*
X67710197Y-106552831D01*
X67907780Y-106471192D01*
X68329710Y-106049997D01*
X68558339Y-105499398D01*
X68558832Y-104933509D01*
X72788350Y-104933509D01*
X72828839Y-105670044D01*
X73032802Y-106162455D01*
X73307169Y-106301384D01*
X74408553Y-105200000D01*
X74911447Y-105200000D01*
X76012831Y-106301384D01*
X76287198Y-106162455D01*
X76521010Y-105496782D01*
X80781141Y-105496782D01*
X81008808Y-106047780D01*
X81430003Y-106469710D01*
X81980602Y-106698339D01*
X82576782Y-106698859D01*
X82930197Y-106552831D01*
X88778616Y-106552831D01*
X88917545Y-106827198D01*
X89613509Y-107071650D01*
X90350044Y-107031161D01*
X90842455Y-106827198D01*
X90981384Y-106552831D01*
X89880000Y-105451447D01*
X88778616Y-106552831D01*
X82930197Y-106552831D01*
X83127780Y-106471192D01*
X83549710Y-106049997D01*
X83778339Y-105499398D01*
X83778832Y-104933509D01*
X88008350Y-104933509D01*
X88048839Y-105670044D01*
X88252802Y-106162455D01*
X88527169Y-106301384D01*
X89628553Y-105200000D01*
X90131447Y-105200000D01*
X91232831Y-106301384D01*
X91507198Y-106162455D01*
X91751650Y-105466491D01*
X91711161Y-104729956D01*
X91507198Y-104237545D01*
X91232831Y-104098616D01*
X90131447Y-105200000D01*
X89628553Y-105200000D01*
X88527169Y-104098616D01*
X88252802Y-104237545D01*
X88008350Y-104933509D01*
X83778832Y-104933509D01*
X83778859Y-104903218D01*
X83551192Y-104352220D01*
X83129997Y-103930290D01*
X82929820Y-103847169D01*
X88778616Y-103847169D01*
X89880000Y-104948553D01*
X90981384Y-103847169D01*
X90842455Y-103572802D01*
X90146491Y-103328350D01*
X89409956Y-103368839D01*
X88917545Y-103572802D01*
X88778616Y-103847169D01*
X82929820Y-103847169D01*
X82579398Y-103701661D01*
X81983218Y-103701141D01*
X81432220Y-103928808D01*
X81010290Y-104350003D01*
X80781661Y-104900602D01*
X80781141Y-105496782D01*
X76521010Y-105496782D01*
X76531650Y-105466491D01*
X76491161Y-104729956D01*
X76287198Y-104237545D01*
X76012831Y-104098616D01*
X74911447Y-105200000D01*
X74408553Y-105200000D01*
X73307169Y-104098616D01*
X73032802Y-104237545D01*
X72788350Y-104933509D01*
X68558832Y-104933509D01*
X68558859Y-104903218D01*
X68331192Y-104352220D01*
X67909997Y-103930290D01*
X67709820Y-103847169D01*
X73558616Y-103847169D01*
X74660000Y-104948553D01*
X75761384Y-103847169D01*
X75622455Y-103572802D01*
X74926491Y-103328350D01*
X74189956Y-103368839D01*
X73697545Y-103572802D01*
X73558616Y-103847169D01*
X67709820Y-103847169D01*
X67359398Y-103701661D01*
X66763218Y-103701141D01*
X66212220Y-103928808D01*
X65790290Y-104350003D01*
X65561661Y-104900602D01*
X65561141Y-105496782D01*
X61261010Y-105496782D01*
X61271650Y-105466491D01*
X61231161Y-104729956D01*
X61027198Y-104237545D01*
X60752831Y-104098616D01*
X59651447Y-105200000D01*
X59148553Y-105200000D01*
X58047169Y-104098616D01*
X57772802Y-104237545D01*
X57528350Y-104933509D01*
X53298832Y-104933509D01*
X53298859Y-104903218D01*
X53071192Y-104352220D01*
X52649997Y-103930290D01*
X52449820Y-103847169D01*
X58298616Y-103847169D01*
X59400000Y-104948553D01*
X60501384Y-103847169D01*
X60362455Y-103572802D01*
X59666491Y-103328350D01*
X58929956Y-103368839D01*
X58437545Y-103572802D01*
X58298616Y-103847169D01*
X52449820Y-103847169D01*
X52099398Y-103701661D01*
X51503218Y-103701141D01*
X50952220Y-103928808D01*
X50530290Y-104350003D01*
X50301661Y-104900602D01*
X50301141Y-105496782D01*
X46053600Y-105496782D01*
X46053600Y-85838180D01*
X58991401Y-85838180D01*
X59078224Y-86048306D01*
X59238849Y-86209211D01*
X59448823Y-86296400D01*
X59676180Y-86296599D01*
X59886306Y-86209776D01*
X60047211Y-86049151D01*
X60134400Y-85839177D01*
X60134529Y-85692287D01*
X60863816Y-84963000D01*
X84972184Y-84963000D01*
X97214922Y-97205738D01*
X97214922Y-98600000D01*
X97230862Y-98684714D01*
X97280928Y-98762518D01*
X97357320Y-98814715D01*
X97448000Y-98833078D01*
X99148000Y-98833078D01*
X99231891Y-98817293D01*
X96957184Y-101092000D01*
X91597816Y-101092000D01*
X75961408Y-85455592D01*
X75837803Y-85373002D01*
X75692000Y-85344000D01*
X74976182Y-85344000D01*
X74873151Y-85240789D01*
X74663177Y-85153600D01*
X74435820Y-85153401D01*
X74225694Y-85240224D01*
X74064789Y-85400849D01*
X73977600Y-85610823D01*
X73977401Y-85838180D01*
X74064224Y-86048306D01*
X74224849Y-86209211D01*
X74434823Y-86296400D01*
X74662180Y-86296599D01*
X74872306Y-86209776D01*
X74976263Y-86106000D01*
X75534184Y-86106000D01*
X91170592Y-101742408D01*
X91294197Y-101824998D01*
X91440000Y-101854000D01*
X97115000Y-101854000D01*
X97260803Y-101824998D01*
X97384408Y-101742408D01*
X100389848Y-98736968D01*
X100404107Y-98746496D01*
X100816869Y-98828600D01*
X100859131Y-98828600D01*
X101271893Y-98746496D01*
X101621816Y-98512685D01*
X101855627Y-98162762D01*
X101937731Y-97750000D01*
X101855627Y-97337238D01*
X101621816Y-96987315D01*
X101271893Y-96753504D01*
X100859131Y-96671400D01*
X100816869Y-96671400D01*
X100404107Y-96753504D01*
X100054184Y-96987315D01*
X99820373Y-97337238D01*
X99738269Y-97750000D01*
X99820373Y-98162762D01*
X99846829Y-98202355D01*
X99363784Y-98685400D01*
X99381078Y-98600000D01*
X99381078Y-96900000D01*
X99365138Y-96815286D01*
X99315072Y-96737482D01*
X99238680Y-96685285D01*
X99148000Y-96666922D01*
X97753738Y-96666922D01*
X97432965Y-96346149D01*
X97899759Y-96587815D01*
X98120200Y-96487100D01*
X98120200Y-95387800D01*
X98475800Y-95387800D01*
X98475800Y-96487100D01*
X98696241Y-96587815D01*
X99193194Y-96330535D01*
X99553862Y-95902663D01*
X99675801Y-95608239D01*
X99573820Y-95387800D01*
X98475800Y-95387800D01*
X98120200Y-95387800D01*
X97022180Y-95387800D01*
X96920199Y-95608239D01*
X97042138Y-95902663D01*
X97324746Y-96237930D01*
X96296816Y-95210000D01*
X99738269Y-95210000D01*
X99820373Y-95622762D01*
X100054184Y-95972685D01*
X100404107Y-96206496D01*
X100816869Y-96288600D01*
X100859131Y-96288600D01*
X101271893Y-96206496D01*
X101621816Y-95972685D01*
X101855627Y-95622762D01*
X101937731Y-95210000D01*
X101855627Y-94797238D01*
X101621816Y-94447315D01*
X101271893Y-94213504D01*
X100859131Y-94131400D01*
X100816869Y-94131400D01*
X100404107Y-94213504D01*
X100054184Y-94447315D01*
X99820373Y-94797238D01*
X99738269Y-95210000D01*
X96296816Y-95210000D01*
X95898577Y-94811761D01*
X96920199Y-94811761D01*
X97022180Y-95032200D01*
X98120200Y-95032200D01*
X98120200Y-93932900D01*
X98475800Y-93932900D01*
X98475800Y-95032200D01*
X99573820Y-95032200D01*
X99675801Y-94811761D01*
X99553862Y-94517337D01*
X99193194Y-94089465D01*
X98696241Y-93832185D01*
X98475800Y-93932900D01*
X98120200Y-93932900D01*
X97899759Y-93832185D01*
X97402806Y-94089465D01*
X97042138Y-94517337D01*
X96920199Y-94811761D01*
X95898577Y-94811761D01*
X93756816Y-92670000D01*
X97198269Y-92670000D01*
X97280373Y-93082762D01*
X97514184Y-93432685D01*
X97864107Y-93666496D01*
X98276869Y-93748600D01*
X98319131Y-93748600D01*
X98731893Y-93666496D01*
X99081816Y-93432685D01*
X99315627Y-93082762D01*
X99397731Y-92670000D01*
X99738269Y-92670000D01*
X99820373Y-93082762D01*
X100054184Y-93432685D01*
X100404107Y-93666496D01*
X100816869Y-93748600D01*
X100859131Y-93748600D01*
X101271893Y-93666496D01*
X101621816Y-93432685D01*
X101855627Y-93082762D01*
X101937731Y-92670000D01*
X101855627Y-92257238D01*
X101621816Y-91907315D01*
X101271893Y-91673504D01*
X100859131Y-91591400D01*
X100816869Y-91591400D01*
X100404107Y-91673504D01*
X100054184Y-91907315D01*
X99820373Y-92257238D01*
X99738269Y-92670000D01*
X99397731Y-92670000D01*
X99315627Y-92257238D01*
X99081816Y-91907315D01*
X98731893Y-91673504D01*
X98319131Y-91591400D01*
X98276869Y-91591400D01*
X97864107Y-91673504D01*
X97514184Y-91907315D01*
X97280373Y-92257238D01*
X97198269Y-92670000D01*
X93756816Y-92670000D01*
X91216816Y-90130000D01*
X97198269Y-90130000D01*
X97280373Y-90542762D01*
X97514184Y-90892685D01*
X97864107Y-91126496D01*
X98276869Y-91208600D01*
X98319131Y-91208600D01*
X98731893Y-91126496D01*
X99081816Y-90892685D01*
X99315627Y-90542762D01*
X99397731Y-90130000D01*
X99738269Y-90130000D01*
X99820373Y-90542762D01*
X100054184Y-90892685D01*
X100404107Y-91126496D01*
X100816869Y-91208600D01*
X100859131Y-91208600D01*
X101271893Y-91126496D01*
X101621816Y-90892685D01*
X101855627Y-90542762D01*
X101937731Y-90130000D01*
X101855627Y-89717238D01*
X101621816Y-89367315D01*
X101271893Y-89133504D01*
X100859131Y-89051400D01*
X100816869Y-89051400D01*
X100404107Y-89133504D01*
X100054184Y-89367315D01*
X99820373Y-89717238D01*
X99738269Y-90130000D01*
X99397731Y-90130000D01*
X99315627Y-89717238D01*
X99081816Y-89367315D01*
X98731893Y-89133504D01*
X98319131Y-89051400D01*
X98276869Y-89051400D01*
X97864107Y-89133504D01*
X97514184Y-89367315D01*
X97280373Y-89717238D01*
X97198269Y-90130000D01*
X91216816Y-90130000D01*
X88676816Y-87590000D01*
X97198269Y-87590000D01*
X97280373Y-88002762D01*
X97514184Y-88352685D01*
X97864107Y-88586496D01*
X98276869Y-88668600D01*
X98319131Y-88668600D01*
X98731893Y-88586496D01*
X99081816Y-88352685D01*
X99315627Y-88002762D01*
X99397731Y-87590000D01*
X99738269Y-87590000D01*
X99820373Y-88002762D01*
X100054184Y-88352685D01*
X100404107Y-88586496D01*
X100816869Y-88668600D01*
X100859131Y-88668600D01*
X101271893Y-88586496D01*
X101621816Y-88352685D01*
X101855627Y-88002762D01*
X101937731Y-87590000D01*
X101855627Y-87177238D01*
X101621816Y-86827315D01*
X101271893Y-86593504D01*
X100859131Y-86511400D01*
X100816869Y-86511400D01*
X100404107Y-86593504D01*
X100054184Y-86827315D01*
X99820373Y-87177238D01*
X99738269Y-87590000D01*
X99397731Y-87590000D01*
X99315627Y-87177238D01*
X99081816Y-86827315D01*
X98731893Y-86593504D01*
X98319131Y-86511400D01*
X98276869Y-86511400D01*
X97864107Y-86593504D01*
X97514184Y-86827315D01*
X97280373Y-87177238D01*
X97198269Y-87590000D01*
X88676816Y-87590000D01*
X85399408Y-84312592D01*
X85275803Y-84230002D01*
X85130000Y-84201000D01*
X60706000Y-84201000D01*
X60560197Y-84230002D01*
X60436592Y-84312592D01*
X59595655Y-85153529D01*
X59449820Y-85153401D01*
X59239694Y-85240224D01*
X59078789Y-85400849D01*
X58991600Y-85610823D01*
X58991401Y-85838180D01*
X46053600Y-85838180D01*
X46053600Y-75100000D01*
X104816922Y-75100000D01*
X104816922Y-76800000D01*
X104832862Y-76884714D01*
X104882928Y-76962518D01*
X104959320Y-77014715D01*
X105050000Y-77033078D01*
X106750000Y-77033078D01*
X106834714Y-77017138D01*
X106912518Y-76967072D01*
X106964715Y-76890680D01*
X106983078Y-76800000D01*
X106983078Y-75928869D01*
X107361400Y-75928869D01*
X107361400Y-75971131D01*
X107443504Y-76383893D01*
X107677315Y-76733816D01*
X108027238Y-76967627D01*
X108440000Y-77049731D01*
X108852762Y-76967627D01*
X109202685Y-76733816D01*
X109436496Y-76383893D01*
X109518600Y-75971131D01*
X109518600Y-75928869D01*
X109436496Y-75516107D01*
X109202685Y-75166184D01*
X108852762Y-74932373D01*
X108440000Y-74850269D01*
X108027238Y-74932373D01*
X107677315Y-75166184D01*
X107443504Y-75516107D01*
X107361400Y-75928869D01*
X106983078Y-75928869D01*
X106983078Y-75100000D01*
X106967138Y-75015286D01*
X106917072Y-74937482D01*
X106840680Y-74885285D01*
X106750000Y-74866922D01*
X105050000Y-74866922D01*
X104965286Y-74882862D01*
X104887482Y-74932928D01*
X104835285Y-75009320D01*
X104816922Y-75100000D01*
X46053600Y-75100000D01*
X46053600Y-66543312D01*
X50581187Y-66543312D01*
X50767836Y-66995037D01*
X51113145Y-67340949D01*
X51564544Y-67528387D01*
X52053312Y-67528813D01*
X52505037Y-67342164D01*
X52850949Y-66996855D01*
X53038387Y-66545456D01*
X53038388Y-66543312D01*
X55661187Y-66543312D01*
X55847836Y-66995037D01*
X56193145Y-67340949D01*
X56357200Y-67409071D01*
X56357200Y-68636322D01*
X56140600Y-68636322D01*
X56055886Y-68652262D01*
X55978082Y-68702328D01*
X55925885Y-68778720D01*
X55907522Y-68869400D01*
X55907522Y-70119400D01*
X55923462Y-70204114D01*
X55973528Y-70281918D01*
X56049920Y-70334115D01*
X56140600Y-70352478D01*
X57640600Y-70352478D01*
X57725314Y-70336538D01*
X57803118Y-70286472D01*
X57855315Y-70210080D01*
X57873678Y-70119400D01*
X57873678Y-69818250D01*
X58056400Y-69818250D01*
X58056400Y-70235604D01*
X58145339Y-70450322D01*
X58309677Y-70614661D01*
X58524395Y-70703600D01*
X59066750Y-70703600D01*
X59212800Y-70557550D01*
X59212800Y-69672200D01*
X59568400Y-69672200D01*
X59568400Y-70557550D01*
X59714450Y-70703600D01*
X60256805Y-70703600D01*
X60471523Y-70614661D01*
X60635861Y-70450322D01*
X60724800Y-70235604D01*
X60724800Y-69818250D01*
X60578750Y-69672200D01*
X59568400Y-69672200D01*
X59212800Y-69672200D01*
X58202450Y-69672200D01*
X58056400Y-69818250D01*
X57873678Y-69818250D01*
X57873678Y-68869400D01*
X57857738Y-68784686D01*
X57837475Y-68753196D01*
X58056400Y-68753196D01*
X58056400Y-69170550D01*
X58202450Y-69316600D01*
X59212800Y-69316600D01*
X59212800Y-68431250D01*
X59568400Y-68431250D01*
X59568400Y-69316600D01*
X60578750Y-69316600D01*
X60724800Y-69170550D01*
X60724800Y-68753196D01*
X60635861Y-68538478D01*
X60471523Y-68374139D01*
X60256805Y-68285200D01*
X59714450Y-68285200D01*
X59568400Y-68431250D01*
X59212800Y-68431250D01*
X59066750Y-68285200D01*
X58524395Y-68285200D01*
X58309677Y-68374139D01*
X58145339Y-68538478D01*
X58056400Y-68753196D01*
X57837475Y-68753196D01*
X57807672Y-68706882D01*
X57731280Y-68654685D01*
X57640600Y-68636322D01*
X57424000Y-68636322D01*
X57424000Y-67456960D01*
X61064488Y-67456960D01*
X61170201Y-67703321D01*
X61768109Y-67902569D01*
X62396753Y-67857841D01*
X62769799Y-67703321D01*
X62875512Y-67456960D01*
X61970000Y-66551447D01*
X61064488Y-67456960D01*
X57424000Y-67456960D01*
X57424000Y-67408703D01*
X57585037Y-67342164D01*
X57930949Y-66996855D01*
X58118387Y-66545456D01*
X58118776Y-66098109D01*
X60367431Y-66098109D01*
X60412159Y-66726753D01*
X60566679Y-67099799D01*
X60813040Y-67205512D01*
X61718553Y-66300000D01*
X62221447Y-66300000D01*
X63126960Y-67205512D01*
X63373321Y-67099799D01*
X63558765Y-66543312D01*
X65821187Y-66543312D01*
X66007836Y-66995037D01*
X66353145Y-67340949D01*
X66804544Y-67528387D01*
X67293312Y-67528813D01*
X67745037Y-67342164D01*
X68090949Y-66996855D01*
X68278387Y-66545456D01*
X68278388Y-66543312D01*
X70901187Y-66543312D01*
X71087836Y-66995037D01*
X71433145Y-67340949D01*
X71597200Y-67409071D01*
X71597200Y-68636322D01*
X71380600Y-68636322D01*
X71295886Y-68652262D01*
X71218082Y-68702328D01*
X71165885Y-68778720D01*
X71147522Y-68869400D01*
X71147522Y-70119400D01*
X71163462Y-70204114D01*
X71213528Y-70281918D01*
X71289920Y-70334115D01*
X71380600Y-70352478D01*
X72880600Y-70352478D01*
X72965314Y-70336538D01*
X73043118Y-70286472D01*
X73095315Y-70210080D01*
X73113678Y-70119400D01*
X73113678Y-69818250D01*
X73296400Y-69818250D01*
X73296400Y-70235604D01*
X73385339Y-70450322D01*
X73549677Y-70614661D01*
X73764395Y-70703600D01*
X74306750Y-70703600D01*
X74452800Y-70557550D01*
X74452800Y-69672200D01*
X74808400Y-69672200D01*
X74808400Y-70557550D01*
X74954450Y-70703600D01*
X75496805Y-70703600D01*
X75711523Y-70614661D01*
X75875861Y-70450322D01*
X75964800Y-70235604D01*
X75964800Y-69818250D01*
X75818750Y-69672200D01*
X74808400Y-69672200D01*
X74452800Y-69672200D01*
X73442450Y-69672200D01*
X73296400Y-69818250D01*
X73113678Y-69818250D01*
X73113678Y-68869400D01*
X73097738Y-68784686D01*
X73077475Y-68753196D01*
X73296400Y-68753196D01*
X73296400Y-69170550D01*
X73442450Y-69316600D01*
X74452800Y-69316600D01*
X74452800Y-68431250D01*
X74808400Y-68431250D01*
X74808400Y-69316600D01*
X75818750Y-69316600D01*
X75964800Y-69170550D01*
X75964800Y-68753196D01*
X75875861Y-68538478D01*
X75711523Y-68374139D01*
X75496805Y-68285200D01*
X74954450Y-68285200D01*
X74808400Y-68431250D01*
X74452800Y-68431250D01*
X74306750Y-68285200D01*
X73764395Y-68285200D01*
X73549677Y-68374139D01*
X73385339Y-68538478D01*
X73296400Y-68753196D01*
X73077475Y-68753196D01*
X73047672Y-68706882D01*
X72971280Y-68654685D01*
X72880600Y-68636322D01*
X72664000Y-68636322D01*
X72664000Y-67456960D01*
X76304488Y-67456960D01*
X76410201Y-67703321D01*
X77008109Y-67902569D01*
X77636753Y-67857841D01*
X78009799Y-67703321D01*
X78115512Y-67456960D01*
X77210000Y-66551447D01*
X76304488Y-67456960D01*
X72664000Y-67456960D01*
X72664000Y-67408703D01*
X72825037Y-67342164D01*
X73170949Y-66996855D01*
X73358387Y-66545456D01*
X73358776Y-66098109D01*
X75607431Y-66098109D01*
X75652159Y-66726753D01*
X75806679Y-67099799D01*
X76053040Y-67205512D01*
X76958553Y-66300000D01*
X77461447Y-66300000D01*
X78366960Y-67205512D01*
X78613321Y-67099799D01*
X78798765Y-66543312D01*
X81061187Y-66543312D01*
X81247836Y-66995037D01*
X81593145Y-67340949D01*
X82044544Y-67528387D01*
X82533312Y-67528813D01*
X82985037Y-67342164D01*
X83330949Y-66996855D01*
X83518387Y-66545456D01*
X83518388Y-66543312D01*
X86141187Y-66543312D01*
X86327836Y-66995037D01*
X86673145Y-67340949D01*
X86837200Y-67409071D01*
X86837200Y-68636322D01*
X86620600Y-68636322D01*
X86535886Y-68652262D01*
X86458082Y-68702328D01*
X86405885Y-68778720D01*
X86387522Y-68869400D01*
X86387522Y-70119400D01*
X86403462Y-70204114D01*
X86453528Y-70281918D01*
X86529920Y-70334115D01*
X86620600Y-70352478D01*
X88120600Y-70352478D01*
X88205314Y-70336538D01*
X88283118Y-70286472D01*
X88335315Y-70210080D01*
X88353678Y-70119400D01*
X88353678Y-69818250D01*
X88536400Y-69818250D01*
X88536400Y-70235604D01*
X88625339Y-70450322D01*
X88789677Y-70614661D01*
X89004395Y-70703600D01*
X89546750Y-70703600D01*
X89692800Y-70557550D01*
X89692800Y-69672200D01*
X90048400Y-69672200D01*
X90048400Y-70557550D01*
X90194450Y-70703600D01*
X90736805Y-70703600D01*
X90951523Y-70614661D01*
X91115861Y-70450322D01*
X91204800Y-70235604D01*
X91204800Y-69818250D01*
X91058750Y-69672200D01*
X90048400Y-69672200D01*
X89692800Y-69672200D01*
X88682450Y-69672200D01*
X88536400Y-69818250D01*
X88353678Y-69818250D01*
X88353678Y-68869400D01*
X88337738Y-68784686D01*
X88317475Y-68753196D01*
X88536400Y-68753196D01*
X88536400Y-69170550D01*
X88682450Y-69316600D01*
X89692800Y-69316600D01*
X89692800Y-68431250D01*
X90048400Y-68431250D01*
X90048400Y-69316600D01*
X91058750Y-69316600D01*
X91204800Y-69170550D01*
X91204800Y-68753196D01*
X91115861Y-68538478D01*
X90951523Y-68374139D01*
X90736805Y-68285200D01*
X90194450Y-68285200D01*
X90048400Y-68431250D01*
X89692800Y-68431250D01*
X89546750Y-68285200D01*
X89004395Y-68285200D01*
X88789677Y-68374139D01*
X88625339Y-68538478D01*
X88536400Y-68753196D01*
X88317475Y-68753196D01*
X88287672Y-68706882D01*
X88211280Y-68654685D01*
X88120600Y-68636322D01*
X87904000Y-68636322D01*
X87904000Y-67456960D01*
X91544488Y-67456960D01*
X91650201Y-67703321D01*
X92248109Y-67902569D01*
X92876753Y-67857841D01*
X93249799Y-67703321D01*
X93355512Y-67456960D01*
X92450000Y-66551447D01*
X91544488Y-67456960D01*
X87904000Y-67456960D01*
X87904000Y-67408703D01*
X88065037Y-67342164D01*
X88410949Y-66996855D01*
X88598387Y-66545456D01*
X88598776Y-66098109D01*
X90847431Y-66098109D01*
X90892159Y-66726753D01*
X91046679Y-67099799D01*
X91293040Y-67205512D01*
X92198553Y-66300000D01*
X92701447Y-66300000D01*
X93606960Y-67205512D01*
X93853321Y-67099799D01*
X94038765Y-66543312D01*
X101381187Y-66543312D01*
X101567836Y-66995037D01*
X101913145Y-67340949D01*
X102364544Y-67528387D01*
X102853312Y-67528813D01*
X103305037Y-67342164D01*
X103650949Y-66996855D01*
X103838387Y-66545456D01*
X103838388Y-66543312D01*
X106461187Y-66543312D01*
X106647836Y-66995037D01*
X106993145Y-67340949D01*
X107444544Y-67528387D01*
X107933312Y-67528813D01*
X108385037Y-67342164D01*
X108730949Y-66996855D01*
X108918387Y-66545456D01*
X108918813Y-66056688D01*
X108732164Y-65604963D01*
X108386855Y-65259051D01*
X107935456Y-65071613D01*
X107446688Y-65071187D01*
X106994963Y-65257836D01*
X106649051Y-65603145D01*
X106461613Y-66054544D01*
X106461187Y-66543312D01*
X103838388Y-66543312D01*
X103838813Y-66056688D01*
X103652164Y-65604963D01*
X103306855Y-65259051D01*
X102855456Y-65071613D01*
X102366688Y-65071187D01*
X101914963Y-65257836D01*
X101569051Y-65603145D01*
X101381613Y-66054544D01*
X101381187Y-66543312D01*
X94038765Y-66543312D01*
X94052569Y-66501891D01*
X94007841Y-65873247D01*
X93853321Y-65500201D01*
X93606960Y-65394488D01*
X92701447Y-66300000D01*
X92198553Y-66300000D01*
X91293040Y-65394488D01*
X91046679Y-65500201D01*
X90847431Y-66098109D01*
X88598776Y-66098109D01*
X88598813Y-66056688D01*
X88412164Y-65604963D01*
X88066855Y-65259051D01*
X87787471Y-65143040D01*
X91544488Y-65143040D01*
X92450000Y-66048553D01*
X93355512Y-65143040D01*
X93249799Y-64896679D01*
X92651891Y-64697431D01*
X92023247Y-64742159D01*
X91650201Y-64896679D01*
X91544488Y-65143040D01*
X87787471Y-65143040D01*
X87615456Y-65071613D01*
X87126688Y-65071187D01*
X86674963Y-65257836D01*
X86329051Y-65603145D01*
X86141613Y-66054544D01*
X86141187Y-66543312D01*
X83518388Y-66543312D01*
X83518813Y-66056688D01*
X83332164Y-65604963D01*
X82986855Y-65259051D01*
X82535456Y-65071613D01*
X82046688Y-65071187D01*
X81594963Y-65257836D01*
X81249051Y-65603145D01*
X81061613Y-66054544D01*
X81061187Y-66543312D01*
X78798765Y-66543312D01*
X78812569Y-66501891D01*
X78767841Y-65873247D01*
X78613321Y-65500201D01*
X78366960Y-65394488D01*
X77461447Y-66300000D01*
X76958553Y-66300000D01*
X76053040Y-65394488D01*
X75806679Y-65500201D01*
X75607431Y-66098109D01*
X73358776Y-66098109D01*
X73358813Y-66056688D01*
X73172164Y-65604963D01*
X72826855Y-65259051D01*
X72547471Y-65143040D01*
X76304488Y-65143040D01*
X77210000Y-66048553D01*
X78115512Y-65143040D01*
X78009799Y-64896679D01*
X77411891Y-64697431D01*
X76783247Y-64742159D01*
X76410201Y-64896679D01*
X76304488Y-65143040D01*
X72547471Y-65143040D01*
X72375456Y-65071613D01*
X71886688Y-65071187D01*
X71434963Y-65257836D01*
X71089051Y-65603145D01*
X70901613Y-66054544D01*
X70901187Y-66543312D01*
X68278388Y-66543312D01*
X68278813Y-66056688D01*
X68092164Y-65604963D01*
X67746855Y-65259051D01*
X67295456Y-65071613D01*
X66806688Y-65071187D01*
X66354963Y-65257836D01*
X66009051Y-65603145D01*
X65821613Y-66054544D01*
X65821187Y-66543312D01*
X63558765Y-66543312D01*
X63572569Y-66501891D01*
X63527841Y-65873247D01*
X63373321Y-65500201D01*
X63126960Y-65394488D01*
X62221447Y-66300000D01*
X61718553Y-66300000D01*
X60813040Y-65394488D01*
X60566679Y-65500201D01*
X60367431Y-66098109D01*
X58118776Y-66098109D01*
X58118813Y-66056688D01*
X57932164Y-65604963D01*
X57586855Y-65259051D01*
X57307471Y-65143040D01*
X61064488Y-65143040D01*
X61970000Y-66048553D01*
X62875512Y-65143040D01*
X62769799Y-64896679D01*
X62171891Y-64697431D01*
X61543247Y-64742159D01*
X61170201Y-64896679D01*
X61064488Y-65143040D01*
X57307471Y-65143040D01*
X57135456Y-65071613D01*
X56646688Y-65071187D01*
X56194963Y-65257836D01*
X55849051Y-65603145D01*
X55661613Y-66054544D01*
X55661187Y-66543312D01*
X53038388Y-66543312D01*
X53038813Y-66056688D01*
X52852164Y-65604963D01*
X52506855Y-65259051D01*
X52055456Y-65071613D01*
X51566688Y-65071187D01*
X51114963Y-65257836D01*
X50769051Y-65603145D01*
X50581613Y-66054544D01*
X50581187Y-66543312D01*
X46053600Y-66543312D01*
X46053600Y-60103600D01*
X113446400Y-60103600D01*
X113446400Y-108423800D01*
X113446400Y-108423800D01*
G37*
X113446400Y-108423800D02*
X46053600Y-108423800D01*
X46053600Y-105496782D01*
X50301141Y-105496782D01*
X50528808Y-106047780D01*
X50950003Y-106469710D01*
X51500602Y-106698339D01*
X52096782Y-106698859D01*
X52450197Y-106552831D01*
X58298616Y-106552831D01*
X58437545Y-106827198D01*
X59133509Y-107071650D01*
X59870044Y-107031161D01*
X60362455Y-106827198D01*
X60501384Y-106552831D01*
X59400000Y-105451447D01*
X58298616Y-106552831D01*
X52450197Y-106552831D01*
X52647780Y-106471192D01*
X53069710Y-106049997D01*
X53298339Y-105499398D01*
X53298832Y-104933509D01*
X57528350Y-104933509D01*
X57568839Y-105670044D01*
X57772802Y-106162455D01*
X58047169Y-106301384D01*
X59148553Y-105200000D01*
X59651447Y-105200000D01*
X60752831Y-106301384D01*
X61027198Y-106162455D01*
X61261010Y-105496782D01*
X65561141Y-105496782D01*
X65788808Y-106047780D01*
X66210003Y-106469710D01*
X66760602Y-106698339D01*
X67356782Y-106698859D01*
X67710197Y-106552831D01*
X73558616Y-106552831D01*
X73697545Y-106827198D01*
X74393509Y-107071650D01*
X75130044Y-107031161D01*
X75622455Y-106827198D01*
X75761384Y-106552831D01*
X74660000Y-105451447D01*
X73558616Y-106552831D01*
X67710197Y-106552831D01*
X67907780Y-106471192D01*
X68329710Y-106049997D01*
X68558339Y-105499398D01*
X68558832Y-104933509D01*
X72788350Y-104933509D01*
X72828839Y-105670044D01*
X73032802Y-106162455D01*
X73307169Y-106301384D01*
X74408553Y-105200000D01*
X74911447Y-105200000D01*
X76012831Y-106301384D01*
X76287198Y-106162455D01*
X76521010Y-105496782D01*
X80781141Y-105496782D01*
X81008808Y-106047780D01*
X81430003Y-106469710D01*
X81980602Y-106698339D01*
X82576782Y-106698859D01*
X82930197Y-106552831D01*
X88778616Y-106552831D01*
X88917545Y-106827198D01*
X89613509Y-107071650D01*
X90350044Y-107031161D01*
X90842455Y-106827198D01*
X90981384Y-106552831D01*
X89880000Y-105451447D01*
X88778616Y-106552831D01*
X82930197Y-106552831D01*
X83127780Y-106471192D01*
X83549710Y-106049997D01*
X83778339Y-105499398D01*
X83778832Y-104933509D01*
X88008350Y-104933509D01*
X88048839Y-105670044D01*
X88252802Y-106162455D01*
X88527169Y-106301384D01*
X89628553Y-105200000D01*
X90131447Y-105200000D01*
X91232831Y-106301384D01*
X91507198Y-106162455D01*
X91751650Y-105466491D01*
X91711161Y-104729956D01*
X91507198Y-104237545D01*
X91232831Y-104098616D01*
X90131447Y-105200000D01*
X89628553Y-105200000D01*
X88527169Y-104098616D01*
X88252802Y-104237545D01*
X88008350Y-104933509D01*
X83778832Y-104933509D01*
X83778859Y-104903218D01*
X83551192Y-104352220D01*
X83129997Y-103930290D01*
X82929820Y-103847169D01*
X88778616Y-103847169D01*
X89880000Y-104948553D01*
X90981384Y-103847169D01*
X90842455Y-103572802D01*
X90146491Y-103328350D01*
X89409956Y-103368839D01*
X88917545Y-103572802D01*
X88778616Y-103847169D01*
X82929820Y-103847169D01*
X82579398Y-103701661D01*
X81983218Y-103701141D01*
X81432220Y-103928808D01*
X81010290Y-104350003D01*
X80781661Y-104900602D01*
X80781141Y-105496782D01*
X76521010Y-105496782D01*
X76531650Y-105466491D01*
X76491161Y-104729956D01*
X76287198Y-104237545D01*
X76012831Y-104098616D01*
X74911447Y-105200000D01*
X74408553Y-105200000D01*
X73307169Y-104098616D01*
X73032802Y-104237545D01*
X72788350Y-104933509D01*
X68558832Y-104933509D01*
X68558859Y-104903218D01*
X68331192Y-104352220D01*
X67909997Y-103930290D01*
X67709820Y-103847169D01*
X73558616Y-103847169D01*
X74660000Y-104948553D01*
X75761384Y-103847169D01*
X75622455Y-103572802D01*
X74926491Y-103328350D01*
X74189956Y-103368839D01*
X73697545Y-103572802D01*
X73558616Y-103847169D01*
X67709820Y-103847169D01*
X67359398Y-103701661D01*
X66763218Y-103701141D01*
X66212220Y-103928808D01*
X65790290Y-104350003D01*
X65561661Y-104900602D01*
X65561141Y-105496782D01*
X61261010Y-105496782D01*
X61271650Y-105466491D01*
X61231161Y-104729956D01*
X61027198Y-104237545D01*
X60752831Y-104098616D01*
X59651447Y-105200000D01*
X59148553Y-105200000D01*
X58047169Y-104098616D01*
X57772802Y-104237545D01*
X57528350Y-104933509D01*
X53298832Y-104933509D01*
X53298859Y-104903218D01*
X53071192Y-104352220D01*
X52649997Y-103930290D01*
X52449820Y-103847169D01*
X58298616Y-103847169D01*
X59400000Y-104948553D01*
X60501384Y-103847169D01*
X60362455Y-103572802D01*
X59666491Y-103328350D01*
X58929956Y-103368839D01*
X58437545Y-103572802D01*
X58298616Y-103847169D01*
X52449820Y-103847169D01*
X52099398Y-103701661D01*
X51503218Y-103701141D01*
X50952220Y-103928808D01*
X50530290Y-104350003D01*
X50301661Y-104900602D01*
X50301141Y-105496782D01*
X46053600Y-105496782D01*
X46053600Y-85838180D01*
X58991401Y-85838180D01*
X59078224Y-86048306D01*
X59238849Y-86209211D01*
X59448823Y-86296400D01*
X59676180Y-86296599D01*
X59886306Y-86209776D01*
X60047211Y-86049151D01*
X60134400Y-85839177D01*
X60134529Y-85692287D01*
X60863816Y-84963000D01*
X84972184Y-84963000D01*
X97214922Y-97205738D01*
X97214922Y-98600000D01*
X97230862Y-98684714D01*
X97280928Y-98762518D01*
X97357320Y-98814715D01*
X97448000Y-98833078D01*
X99148000Y-98833078D01*
X99231891Y-98817293D01*
X96957184Y-101092000D01*
X91597816Y-101092000D01*
X75961408Y-85455592D01*
X75837803Y-85373002D01*
X75692000Y-85344000D01*
X74976182Y-85344000D01*
X74873151Y-85240789D01*
X74663177Y-85153600D01*
X74435820Y-85153401D01*
X74225694Y-85240224D01*
X74064789Y-85400849D01*
X73977600Y-85610823D01*
X73977401Y-85838180D01*
X74064224Y-86048306D01*
X74224849Y-86209211D01*
X74434823Y-86296400D01*
X74662180Y-86296599D01*
X74872306Y-86209776D01*
X74976263Y-86106000D01*
X75534184Y-86106000D01*
X91170592Y-101742408D01*
X91294197Y-101824998D01*
X91440000Y-101854000D01*
X97115000Y-101854000D01*
X97260803Y-101824998D01*
X97384408Y-101742408D01*
X100389848Y-98736968D01*
X100404107Y-98746496D01*
X100816869Y-98828600D01*
X100859131Y-98828600D01*
X101271893Y-98746496D01*
X101621816Y-98512685D01*
X101855627Y-98162762D01*
X101937731Y-97750000D01*
X101855627Y-97337238D01*
X101621816Y-96987315D01*
X101271893Y-96753504D01*
X100859131Y-96671400D01*
X100816869Y-96671400D01*
X100404107Y-96753504D01*
X100054184Y-96987315D01*
X99820373Y-97337238D01*
X99738269Y-97750000D01*
X99820373Y-98162762D01*
X99846829Y-98202355D01*
X99363784Y-98685400D01*
X99381078Y-98600000D01*
X99381078Y-96900000D01*
X99365138Y-96815286D01*
X99315072Y-96737482D01*
X99238680Y-96685285D01*
X99148000Y-96666922D01*
X97753738Y-96666922D01*
X97432965Y-96346149D01*
X97899759Y-96587815D01*
X98120200Y-96487100D01*
X98120200Y-95387800D01*
X98475800Y-95387800D01*
X98475800Y-96487100D01*
X98696241Y-96587815D01*
X99193194Y-96330535D01*
X99553862Y-95902663D01*
X99675801Y-95608239D01*
X99573820Y-95387800D01*
X98475800Y-95387800D01*
X98120200Y-95387800D01*
X97022180Y-95387800D01*
X96920199Y-95608239D01*
X97042138Y-95902663D01*
X97324746Y-96237930D01*
X96296816Y-95210000D01*
X99738269Y-95210000D01*
X99820373Y-95622762D01*
X100054184Y-95972685D01*
X100404107Y-96206496D01*
X100816869Y-96288600D01*
X100859131Y-96288600D01*
X101271893Y-96206496D01*
X101621816Y-95972685D01*
X101855627Y-95622762D01*
X101937731Y-95210000D01*
X101855627Y-94797238D01*
X101621816Y-94447315D01*
X101271893Y-94213504D01*
X100859131Y-94131400D01*
X100816869Y-94131400D01*
X100404107Y-94213504D01*
X100054184Y-94447315D01*
X99820373Y-94797238D01*
X99738269Y-95210000D01*
X96296816Y-95210000D01*
X95898577Y-94811761D01*
X96920199Y-94811761D01*
X97022180Y-95032200D01*
X98120200Y-95032200D01*
X98120200Y-93932900D01*
X98475800Y-93932900D01*
X98475800Y-95032200D01*
X99573820Y-95032200D01*
X99675801Y-94811761D01*
X99553862Y-94517337D01*
X99193194Y-94089465D01*
X98696241Y-93832185D01*
X98475800Y-93932900D01*
X98120200Y-93932900D01*
X97899759Y-93832185D01*
X97402806Y-94089465D01*
X97042138Y-94517337D01*
X96920199Y-94811761D01*
X95898577Y-94811761D01*
X93756816Y-92670000D01*
X97198269Y-92670000D01*
X97280373Y-93082762D01*
X97514184Y-93432685D01*
X97864107Y-93666496D01*
X98276869Y-93748600D01*
X98319131Y-93748600D01*
X98731893Y-93666496D01*
X99081816Y-93432685D01*
X99315627Y-93082762D01*
X99397731Y-92670000D01*
X99738269Y-92670000D01*
X99820373Y-93082762D01*
X100054184Y-93432685D01*
X100404107Y-93666496D01*
X100816869Y-93748600D01*
X100859131Y-93748600D01*
X101271893Y-93666496D01*
X101621816Y-93432685D01*
X101855627Y-93082762D01*
X101937731Y-92670000D01*
X101855627Y-92257238D01*
X101621816Y-91907315D01*
X101271893Y-91673504D01*
X100859131Y-91591400D01*
X100816869Y-91591400D01*
X100404107Y-91673504D01*
X100054184Y-91907315D01*
X99820373Y-92257238D01*
X99738269Y-92670000D01*
X99397731Y-92670000D01*
X99315627Y-92257238D01*
X99081816Y-91907315D01*
X98731893Y-91673504D01*
X98319131Y-91591400D01*
X98276869Y-91591400D01*
X97864107Y-91673504D01*
X97514184Y-91907315D01*
X97280373Y-92257238D01*
X97198269Y-92670000D01*
X93756816Y-92670000D01*
X91216816Y-90130000D01*
X97198269Y-90130000D01*
X97280373Y-90542762D01*
X97514184Y-90892685D01*
X97864107Y-91126496D01*
X98276869Y-91208600D01*
X98319131Y-91208600D01*
X98731893Y-91126496D01*
X99081816Y-90892685D01*
X99315627Y-90542762D01*
X99397731Y-90130000D01*
X99738269Y-90130000D01*
X99820373Y-90542762D01*
X100054184Y-90892685D01*
X100404107Y-91126496D01*
X100816869Y-91208600D01*
X100859131Y-91208600D01*
X101271893Y-91126496D01*
X101621816Y-90892685D01*
X101855627Y-90542762D01*
X101937731Y-90130000D01*
X101855627Y-89717238D01*
X101621816Y-89367315D01*
X101271893Y-89133504D01*
X100859131Y-89051400D01*
X100816869Y-89051400D01*
X100404107Y-89133504D01*
X100054184Y-89367315D01*
X99820373Y-89717238D01*
X99738269Y-90130000D01*
X99397731Y-90130000D01*
X99315627Y-89717238D01*
X99081816Y-89367315D01*
X98731893Y-89133504D01*
X98319131Y-89051400D01*
X98276869Y-89051400D01*
X97864107Y-89133504D01*
X97514184Y-89367315D01*
X97280373Y-89717238D01*
X97198269Y-90130000D01*
X91216816Y-90130000D01*
X88676816Y-87590000D01*
X97198269Y-87590000D01*
X97280373Y-88002762D01*
X97514184Y-88352685D01*
X97864107Y-88586496D01*
X98276869Y-88668600D01*
X98319131Y-88668600D01*
X98731893Y-88586496D01*
X99081816Y-88352685D01*
X99315627Y-88002762D01*
X99397731Y-87590000D01*
X99738269Y-87590000D01*
X99820373Y-88002762D01*
X100054184Y-88352685D01*
X100404107Y-88586496D01*
X100816869Y-88668600D01*
X100859131Y-88668600D01*
X101271893Y-88586496D01*
X101621816Y-88352685D01*
X101855627Y-88002762D01*
X101937731Y-87590000D01*
X101855627Y-87177238D01*
X101621816Y-86827315D01*
X101271893Y-86593504D01*
X100859131Y-86511400D01*
X100816869Y-86511400D01*
X100404107Y-86593504D01*
X100054184Y-86827315D01*
X99820373Y-87177238D01*
X99738269Y-87590000D01*
X99397731Y-87590000D01*
X99315627Y-87177238D01*
X99081816Y-86827315D01*
X98731893Y-86593504D01*
X98319131Y-86511400D01*
X98276869Y-86511400D01*
X97864107Y-86593504D01*
X97514184Y-86827315D01*
X97280373Y-87177238D01*
X97198269Y-87590000D01*
X88676816Y-87590000D01*
X85399408Y-84312592D01*
X85275803Y-84230002D01*
X85130000Y-84201000D01*
X60706000Y-84201000D01*
X60560197Y-84230002D01*
X60436592Y-84312592D01*
X59595655Y-85153529D01*
X59449820Y-85153401D01*
X59239694Y-85240224D01*
X59078789Y-85400849D01*
X58991600Y-85610823D01*
X58991401Y-85838180D01*
X46053600Y-85838180D01*
X46053600Y-75100000D01*
X104816922Y-75100000D01*
X104816922Y-76800000D01*
X104832862Y-76884714D01*
X104882928Y-76962518D01*
X104959320Y-77014715D01*
X105050000Y-77033078D01*
X106750000Y-77033078D01*
X106834714Y-77017138D01*
X106912518Y-76967072D01*
X106964715Y-76890680D01*
X106983078Y-76800000D01*
X106983078Y-75928869D01*
X107361400Y-75928869D01*
X107361400Y-75971131D01*
X107443504Y-76383893D01*
X107677315Y-76733816D01*
X108027238Y-76967627D01*
X108440000Y-77049731D01*
X108852762Y-76967627D01*
X109202685Y-76733816D01*
X109436496Y-76383893D01*
X109518600Y-75971131D01*
X109518600Y-75928869D01*
X109436496Y-75516107D01*
X109202685Y-75166184D01*
X108852762Y-74932373D01*
X108440000Y-74850269D01*
X108027238Y-74932373D01*
X107677315Y-75166184D01*
X107443504Y-75516107D01*
X107361400Y-75928869D01*
X106983078Y-75928869D01*
X106983078Y-75100000D01*
X106967138Y-75015286D01*
X106917072Y-74937482D01*
X106840680Y-74885285D01*
X106750000Y-74866922D01*
X105050000Y-74866922D01*
X104965286Y-74882862D01*
X104887482Y-74932928D01*
X104835285Y-75009320D01*
X104816922Y-75100000D01*
X46053600Y-75100000D01*
X46053600Y-66543312D01*
X50581187Y-66543312D01*
X50767836Y-66995037D01*
X51113145Y-67340949D01*
X51564544Y-67528387D01*
X52053312Y-67528813D01*
X52505037Y-67342164D01*
X52850949Y-66996855D01*
X53038387Y-66545456D01*
X53038388Y-66543312D01*
X55661187Y-66543312D01*
X55847836Y-66995037D01*
X56193145Y-67340949D01*
X56357200Y-67409071D01*
X56357200Y-68636322D01*
X56140600Y-68636322D01*
X56055886Y-68652262D01*
X55978082Y-68702328D01*
X55925885Y-68778720D01*
X55907522Y-68869400D01*
X55907522Y-70119400D01*
X55923462Y-70204114D01*
X55973528Y-70281918D01*
X56049920Y-70334115D01*
X56140600Y-70352478D01*
X57640600Y-70352478D01*
X57725314Y-70336538D01*
X57803118Y-70286472D01*
X57855315Y-70210080D01*
X57873678Y-70119400D01*
X57873678Y-69818250D01*
X58056400Y-69818250D01*
X58056400Y-70235604D01*
X58145339Y-70450322D01*
X58309677Y-70614661D01*
X58524395Y-70703600D01*
X59066750Y-70703600D01*
X59212800Y-70557550D01*
X59212800Y-69672200D01*
X59568400Y-69672200D01*
X59568400Y-70557550D01*
X59714450Y-70703600D01*
X60256805Y-70703600D01*
X60471523Y-70614661D01*
X60635861Y-70450322D01*
X60724800Y-70235604D01*
X60724800Y-69818250D01*
X60578750Y-69672200D01*
X59568400Y-69672200D01*
X59212800Y-69672200D01*
X58202450Y-69672200D01*
X58056400Y-69818250D01*
X57873678Y-69818250D01*
X57873678Y-68869400D01*
X57857738Y-68784686D01*
X57837475Y-68753196D01*
X58056400Y-68753196D01*
X58056400Y-69170550D01*
X58202450Y-69316600D01*
X59212800Y-69316600D01*
X59212800Y-68431250D01*
X59568400Y-68431250D01*
X59568400Y-69316600D01*
X60578750Y-69316600D01*
X60724800Y-69170550D01*
X60724800Y-68753196D01*
X60635861Y-68538478D01*
X60471523Y-68374139D01*
X60256805Y-68285200D01*
X59714450Y-68285200D01*
X59568400Y-68431250D01*
X59212800Y-68431250D01*
X59066750Y-68285200D01*
X58524395Y-68285200D01*
X58309677Y-68374139D01*
X58145339Y-68538478D01*
X58056400Y-68753196D01*
X57837475Y-68753196D01*
X57807672Y-68706882D01*
X57731280Y-68654685D01*
X57640600Y-68636322D01*
X57424000Y-68636322D01*
X57424000Y-67456960D01*
X61064488Y-67456960D01*
X61170201Y-67703321D01*
X61768109Y-67902569D01*
X62396753Y-67857841D01*
X62769799Y-67703321D01*
X62875512Y-67456960D01*
X61970000Y-66551447D01*
X61064488Y-67456960D01*
X57424000Y-67456960D01*
X57424000Y-67408703D01*
X57585037Y-67342164D01*
X57930949Y-66996855D01*
X58118387Y-66545456D01*
X58118776Y-66098109D01*
X60367431Y-66098109D01*
X60412159Y-66726753D01*
X60566679Y-67099799D01*
X60813040Y-67205512D01*
X61718553Y-66300000D01*
X62221447Y-66300000D01*
X63126960Y-67205512D01*
X63373321Y-67099799D01*
X63558765Y-66543312D01*
X65821187Y-66543312D01*
X66007836Y-66995037D01*
X66353145Y-67340949D01*
X66804544Y-67528387D01*
X67293312Y-67528813D01*
X67745037Y-67342164D01*
X68090949Y-66996855D01*
X68278387Y-66545456D01*
X68278388Y-66543312D01*
X70901187Y-66543312D01*
X71087836Y-66995037D01*
X71433145Y-67340949D01*
X71597200Y-67409071D01*
X71597200Y-68636322D01*
X71380600Y-68636322D01*
X71295886Y-68652262D01*
X71218082Y-68702328D01*
X71165885Y-68778720D01*
X71147522Y-68869400D01*
X71147522Y-70119400D01*
X71163462Y-70204114D01*
X71213528Y-70281918D01*
X71289920Y-70334115D01*
X71380600Y-70352478D01*
X72880600Y-70352478D01*
X72965314Y-70336538D01*
X73043118Y-70286472D01*
X73095315Y-70210080D01*
X73113678Y-70119400D01*
X73113678Y-69818250D01*
X73296400Y-69818250D01*
X73296400Y-70235604D01*
X73385339Y-70450322D01*
X73549677Y-70614661D01*
X73764395Y-70703600D01*
X74306750Y-70703600D01*
X74452800Y-70557550D01*
X74452800Y-69672200D01*
X74808400Y-69672200D01*
X74808400Y-70557550D01*
X74954450Y-70703600D01*
X75496805Y-70703600D01*
X75711523Y-70614661D01*
X75875861Y-70450322D01*
X75964800Y-70235604D01*
X75964800Y-69818250D01*
X75818750Y-69672200D01*
X74808400Y-69672200D01*
X74452800Y-69672200D01*
X73442450Y-69672200D01*
X73296400Y-69818250D01*
X73113678Y-69818250D01*
X73113678Y-68869400D01*
X73097738Y-68784686D01*
X73077475Y-68753196D01*
X73296400Y-68753196D01*
X73296400Y-69170550D01*
X73442450Y-69316600D01*
X74452800Y-69316600D01*
X74452800Y-68431250D01*
X74808400Y-68431250D01*
X74808400Y-69316600D01*
X75818750Y-69316600D01*
X75964800Y-69170550D01*
X75964800Y-68753196D01*
X75875861Y-68538478D01*
X75711523Y-68374139D01*
X75496805Y-68285200D01*
X74954450Y-68285200D01*
X74808400Y-68431250D01*
X74452800Y-68431250D01*
X74306750Y-68285200D01*
X73764395Y-68285200D01*
X73549677Y-68374139D01*
X73385339Y-68538478D01*
X73296400Y-68753196D01*
X73077475Y-68753196D01*
X73047672Y-68706882D01*
X72971280Y-68654685D01*
X72880600Y-68636322D01*
X72664000Y-68636322D01*
X72664000Y-67456960D01*
X76304488Y-67456960D01*
X76410201Y-67703321D01*
X77008109Y-67902569D01*
X77636753Y-67857841D01*
X78009799Y-67703321D01*
X78115512Y-67456960D01*
X77210000Y-66551447D01*
X76304488Y-67456960D01*
X72664000Y-67456960D01*
X72664000Y-67408703D01*
X72825037Y-67342164D01*
X73170949Y-66996855D01*
X73358387Y-66545456D01*
X73358776Y-66098109D01*
X75607431Y-66098109D01*
X75652159Y-66726753D01*
X75806679Y-67099799D01*
X76053040Y-67205512D01*
X76958553Y-66300000D01*
X77461447Y-66300000D01*
X78366960Y-67205512D01*
X78613321Y-67099799D01*
X78798765Y-66543312D01*
X81061187Y-66543312D01*
X81247836Y-66995037D01*
X81593145Y-67340949D01*
X82044544Y-67528387D01*
X82533312Y-67528813D01*
X82985037Y-67342164D01*
X83330949Y-66996855D01*
X83518387Y-66545456D01*
X83518388Y-66543312D01*
X86141187Y-66543312D01*
X86327836Y-66995037D01*
X86673145Y-67340949D01*
X86837200Y-67409071D01*
X86837200Y-68636322D01*
X86620600Y-68636322D01*
X86535886Y-68652262D01*
X86458082Y-68702328D01*
X86405885Y-68778720D01*
X86387522Y-68869400D01*
X86387522Y-70119400D01*
X86403462Y-70204114D01*
X86453528Y-70281918D01*
X86529920Y-70334115D01*
X86620600Y-70352478D01*
X88120600Y-70352478D01*
X88205314Y-70336538D01*
X88283118Y-70286472D01*
X88335315Y-70210080D01*
X88353678Y-70119400D01*
X88353678Y-69818250D01*
X88536400Y-69818250D01*
X88536400Y-70235604D01*
X88625339Y-70450322D01*
X88789677Y-70614661D01*
X89004395Y-70703600D01*
X89546750Y-70703600D01*
X89692800Y-70557550D01*
X89692800Y-69672200D01*
X90048400Y-69672200D01*
X90048400Y-70557550D01*
X90194450Y-70703600D01*
X90736805Y-70703600D01*
X90951523Y-70614661D01*
X91115861Y-70450322D01*
X91204800Y-70235604D01*
X91204800Y-69818250D01*
X91058750Y-69672200D01*
X90048400Y-69672200D01*
X89692800Y-69672200D01*
X88682450Y-69672200D01*
X88536400Y-69818250D01*
X88353678Y-69818250D01*
X88353678Y-68869400D01*
X88337738Y-68784686D01*
X88317475Y-68753196D01*
X88536400Y-68753196D01*
X88536400Y-69170550D01*
X88682450Y-69316600D01*
X89692800Y-69316600D01*
X89692800Y-68431250D01*
X90048400Y-68431250D01*
X90048400Y-69316600D01*
X91058750Y-69316600D01*
X91204800Y-69170550D01*
X91204800Y-68753196D01*
X91115861Y-68538478D01*
X90951523Y-68374139D01*
X90736805Y-68285200D01*
X90194450Y-68285200D01*
X90048400Y-68431250D01*
X89692800Y-68431250D01*
X89546750Y-68285200D01*
X89004395Y-68285200D01*
X88789677Y-68374139D01*
X88625339Y-68538478D01*
X88536400Y-68753196D01*
X88317475Y-68753196D01*
X88287672Y-68706882D01*
X88211280Y-68654685D01*
X88120600Y-68636322D01*
X87904000Y-68636322D01*
X87904000Y-67456960D01*
X91544488Y-67456960D01*
X91650201Y-67703321D01*
X92248109Y-67902569D01*
X92876753Y-67857841D01*
X93249799Y-67703321D01*
X93355512Y-67456960D01*
X92450000Y-66551447D01*
X91544488Y-67456960D01*
X87904000Y-67456960D01*
X87904000Y-67408703D01*
X88065037Y-67342164D01*
X88410949Y-66996855D01*
X88598387Y-66545456D01*
X88598776Y-66098109D01*
X90847431Y-66098109D01*
X90892159Y-66726753D01*
X91046679Y-67099799D01*
X91293040Y-67205512D01*
X92198553Y-66300000D01*
X92701447Y-66300000D01*
X93606960Y-67205512D01*
X93853321Y-67099799D01*
X94038765Y-66543312D01*
X101381187Y-66543312D01*
X101567836Y-66995037D01*
X101913145Y-67340949D01*
X102364544Y-67528387D01*
X102853312Y-67528813D01*
X103305037Y-67342164D01*
X103650949Y-66996855D01*
X103838387Y-66545456D01*
X103838388Y-66543312D01*
X106461187Y-66543312D01*
X106647836Y-66995037D01*
X106993145Y-67340949D01*
X107444544Y-67528387D01*
X107933312Y-67528813D01*
X108385037Y-67342164D01*
X108730949Y-66996855D01*
X108918387Y-66545456D01*
X108918813Y-66056688D01*
X108732164Y-65604963D01*
X108386855Y-65259051D01*
X107935456Y-65071613D01*
X107446688Y-65071187D01*
X106994963Y-65257836D01*
X106649051Y-65603145D01*
X106461613Y-66054544D01*
X106461187Y-66543312D01*
X103838388Y-66543312D01*
X103838813Y-66056688D01*
X103652164Y-65604963D01*
X103306855Y-65259051D01*
X102855456Y-65071613D01*
X102366688Y-65071187D01*
X101914963Y-65257836D01*
X101569051Y-65603145D01*
X101381613Y-66054544D01*
X101381187Y-66543312D01*
X94038765Y-66543312D01*
X94052569Y-66501891D01*
X94007841Y-65873247D01*
X93853321Y-65500201D01*
X93606960Y-65394488D01*
X92701447Y-66300000D01*
X92198553Y-66300000D01*
X91293040Y-65394488D01*
X91046679Y-65500201D01*
X90847431Y-66098109D01*
X88598776Y-66098109D01*
X88598813Y-66056688D01*
X88412164Y-65604963D01*
X88066855Y-65259051D01*
X87787471Y-65143040D01*
X91544488Y-65143040D01*
X92450000Y-66048553D01*
X93355512Y-65143040D01*
X93249799Y-64896679D01*
X92651891Y-64697431D01*
X92023247Y-64742159D01*
X91650201Y-64896679D01*
X91544488Y-65143040D01*
X87787471Y-65143040D01*
X87615456Y-65071613D01*
X87126688Y-65071187D01*
X86674963Y-65257836D01*
X86329051Y-65603145D01*
X86141613Y-66054544D01*
X86141187Y-66543312D01*
X83518388Y-66543312D01*
X83518813Y-66056688D01*
X83332164Y-65604963D01*
X82986855Y-65259051D01*
X82535456Y-65071613D01*
X82046688Y-65071187D01*
X81594963Y-65257836D01*
X81249051Y-65603145D01*
X81061613Y-66054544D01*
X81061187Y-66543312D01*
X78798765Y-66543312D01*
X78812569Y-66501891D01*
X78767841Y-65873247D01*
X78613321Y-65500201D01*
X78366960Y-65394488D01*
X77461447Y-66300000D01*
X76958553Y-66300000D01*
X76053040Y-65394488D01*
X75806679Y-65500201D01*
X75607431Y-66098109D01*
X73358776Y-66098109D01*
X73358813Y-66056688D01*
X73172164Y-65604963D01*
X72826855Y-65259051D01*
X72547471Y-65143040D01*
X76304488Y-65143040D01*
X77210000Y-66048553D01*
X78115512Y-65143040D01*
X78009799Y-64896679D01*
X77411891Y-64697431D01*
X76783247Y-64742159D01*
X76410201Y-64896679D01*
X76304488Y-65143040D01*
X72547471Y-65143040D01*
X72375456Y-65071613D01*
X71886688Y-65071187D01*
X71434963Y-65257836D01*
X71089051Y-65603145D01*
X70901613Y-66054544D01*
X70901187Y-66543312D01*
X68278388Y-66543312D01*
X68278813Y-66056688D01*
X68092164Y-65604963D01*
X67746855Y-65259051D01*
X67295456Y-65071613D01*
X66806688Y-65071187D01*
X66354963Y-65257836D01*
X66009051Y-65603145D01*
X65821613Y-66054544D01*
X65821187Y-66543312D01*
X63558765Y-66543312D01*
X63572569Y-66501891D01*
X63527841Y-65873247D01*
X63373321Y-65500201D01*
X63126960Y-65394488D01*
X62221447Y-66300000D01*
X61718553Y-66300000D01*
X60813040Y-65394488D01*
X60566679Y-65500201D01*
X60367431Y-66098109D01*
X58118776Y-66098109D01*
X58118813Y-66056688D01*
X57932164Y-65604963D01*
X57586855Y-65259051D01*
X57307471Y-65143040D01*
X61064488Y-65143040D01*
X61970000Y-66048553D01*
X62875512Y-65143040D01*
X62769799Y-64896679D01*
X62171891Y-64697431D01*
X61543247Y-64742159D01*
X61170201Y-64896679D01*
X61064488Y-65143040D01*
X57307471Y-65143040D01*
X57135456Y-65071613D01*
X56646688Y-65071187D01*
X56194963Y-65257836D01*
X55849051Y-65603145D01*
X55661613Y-66054544D01*
X55661187Y-66543312D01*
X53038388Y-66543312D01*
X53038813Y-66056688D01*
X52852164Y-65604963D01*
X52506855Y-65259051D01*
X52055456Y-65071613D01*
X51566688Y-65071187D01*
X51114963Y-65257836D01*
X50769051Y-65603145D01*
X50581613Y-66054544D01*
X50581187Y-66543312D01*
X46053600Y-66543312D01*
X46053600Y-60103600D01*
X113446400Y-60103600D01*
X113446400Y-108423800D01*
M02*
