G04 #@! TF.FileFunction,Legend,Top*
%FSLAX46Y46*%
G04 Gerber Fmt 4.6, Leading zero omitted, Abs format (unit mm)*
G04 Created by KiCad (PCBNEW 4.0.0-rc1-stable) date 05/10/2017 19:38:19*
%MOMM*%
G01*
G04 APERTURE LIST*
%ADD10C,0.100000*%
%ADD11C,0.300000*%
%ADD12C,0.177800*%
%ADD13C,0.127000*%
%ADD14C,0.254000*%
%ADD15C,0.200000*%
%ADD16C,0.150000*%
%ADD17C,0.120000*%
%ADD18C,0.010000*%
G04 APERTURE END LIST*
D10*
X94183429Y-87430000D02*
X94107238Y-87391905D01*
X93992953Y-87391905D01*
X93878667Y-87430000D01*
X93802476Y-87506190D01*
X93764381Y-87582381D01*
X93726286Y-87734762D01*
X93726286Y-87849048D01*
X93764381Y-88001429D01*
X93802476Y-88077619D01*
X93878667Y-88153810D01*
X93992953Y-88191905D01*
X94069143Y-88191905D01*
X94183429Y-88153810D01*
X94221524Y-88115714D01*
X94221524Y-87849048D01*
X94069143Y-87849048D01*
X94564381Y-88191905D02*
X94564381Y-87391905D01*
X95021524Y-88191905D01*
X95021524Y-87391905D01*
X95402476Y-88191905D02*
X95402476Y-87391905D01*
X95592952Y-87391905D01*
X95707238Y-87430000D01*
X95783429Y-87506190D01*
X95821524Y-87582381D01*
X95859619Y-87734762D01*
X95859619Y-87849048D01*
X95821524Y-88001429D01*
X95783429Y-88077619D01*
X95707238Y-88153810D01*
X95592952Y-88191905D01*
X95402476Y-88191905D01*
X93840571Y-90631905D02*
X93840571Y-89831905D01*
X94145333Y-89831905D01*
X94221524Y-89870000D01*
X94259619Y-89908095D01*
X94297714Y-89984286D01*
X94297714Y-90098571D01*
X94259619Y-90174762D01*
X94221524Y-90212857D01*
X94145333Y-90250952D01*
X93840571Y-90250952D01*
X94907238Y-90212857D02*
X95021524Y-90250952D01*
X95059619Y-90289048D01*
X95097714Y-90365238D01*
X95097714Y-90479524D01*
X95059619Y-90555714D01*
X95021524Y-90593810D01*
X94945333Y-90631905D01*
X94640571Y-90631905D01*
X94640571Y-89831905D01*
X94907238Y-89831905D01*
X94983428Y-89870000D01*
X95021524Y-89908095D01*
X95059619Y-89984286D01*
X95059619Y-90060476D01*
X95021524Y-90136667D01*
X94983428Y-90174762D01*
X94907238Y-90212857D01*
X94640571Y-90212857D01*
X95402476Y-89908095D02*
X95440571Y-89870000D01*
X95516762Y-89831905D01*
X95707238Y-89831905D01*
X95783428Y-89870000D01*
X95821524Y-89908095D01*
X95859619Y-89984286D01*
X95859619Y-90060476D01*
X95821524Y-90174762D01*
X95364381Y-90631905D01*
X95859619Y-90631905D01*
X92583428Y-93071905D02*
X92316761Y-92690952D01*
X92126285Y-93071905D02*
X92126285Y-92271905D01*
X92431047Y-92271905D01*
X92507238Y-92310000D01*
X92545333Y-92348095D01*
X92583428Y-92424286D01*
X92583428Y-92538571D01*
X92545333Y-92614762D01*
X92507238Y-92652857D01*
X92431047Y-92690952D01*
X92126285Y-92690952D01*
X93040571Y-93071905D02*
X92964380Y-93033810D01*
X92926285Y-92957619D01*
X92926285Y-92271905D01*
X93269143Y-92538571D02*
X93459619Y-93071905D01*
X93650095Y-92538571D02*
X93459619Y-93071905D01*
X93383428Y-93262381D01*
X93345333Y-93300476D01*
X93269143Y-93338571D01*
X94716762Y-92271905D02*
X94869143Y-92271905D01*
X94945334Y-92310000D01*
X95021524Y-92386190D01*
X95059619Y-92538571D01*
X95059619Y-92805238D01*
X95021524Y-92957619D01*
X94945334Y-93033810D01*
X94869143Y-93071905D01*
X94716762Y-93071905D01*
X94640572Y-93033810D01*
X94564381Y-92957619D01*
X94526286Y-92805238D01*
X94526286Y-92538571D01*
X94564381Y-92386190D01*
X94640572Y-92310000D01*
X94716762Y-92271905D01*
X95821524Y-92310000D02*
X95745333Y-92271905D01*
X95631048Y-92271905D01*
X95516762Y-92310000D01*
X95440571Y-92386190D01*
X95402476Y-92462381D01*
X95364381Y-92614762D01*
X95364381Y-92729048D01*
X95402476Y-92881429D01*
X95440571Y-92957619D01*
X95516762Y-93033810D01*
X95631048Y-93071905D01*
X95707238Y-93071905D01*
X95821524Y-93033810D01*
X95859619Y-92995714D01*
X95859619Y-92729048D01*
X95707238Y-92729048D01*
X94412000Y-94711905D02*
X94678667Y-95511905D01*
X94945334Y-94711905D01*
X95212000Y-95207143D02*
X95821524Y-95207143D01*
X95516762Y-95511905D02*
X95516762Y-94902381D01*
X92583428Y-97951905D02*
X92316761Y-97570952D01*
X92126285Y-97951905D02*
X92126285Y-97151905D01*
X92431047Y-97151905D01*
X92507238Y-97190000D01*
X92545333Y-97228095D01*
X92583428Y-97304286D01*
X92583428Y-97418571D01*
X92545333Y-97494762D01*
X92507238Y-97532857D01*
X92431047Y-97570952D01*
X92126285Y-97570952D01*
X93040571Y-97951905D02*
X92964380Y-97913810D01*
X92926285Y-97837619D01*
X92926285Y-97151905D01*
X93269143Y-97418571D02*
X93459619Y-97951905D01*
X93650095Y-97418571D02*
X93459619Y-97951905D01*
X93383428Y-98142381D01*
X93345333Y-98180476D01*
X93269143Y-98218571D01*
X94564381Y-97151905D02*
X94564381Y-97799524D01*
X94602476Y-97875714D01*
X94640572Y-97913810D01*
X94716762Y-97951905D01*
X94869143Y-97951905D01*
X94945334Y-97913810D01*
X94983429Y-97875714D01*
X95021524Y-97799524D01*
X95021524Y-97151905D01*
X95821524Y-97190000D02*
X95745333Y-97151905D01*
X95631048Y-97151905D01*
X95516762Y-97190000D01*
X95440571Y-97266190D01*
X95402476Y-97342381D01*
X95364381Y-97494762D01*
X95364381Y-97609048D01*
X95402476Y-97761429D01*
X95440571Y-97837619D01*
X95516762Y-97913810D01*
X95631048Y-97951905D01*
X95707238Y-97951905D01*
X95821524Y-97913810D01*
X95859619Y-97875714D01*
X95859619Y-97609048D01*
X95707238Y-97609048D01*
X103187476Y-88191905D02*
X103187476Y-87391905D01*
X103492238Y-87391905D01*
X103568429Y-87430000D01*
X103606524Y-87468095D01*
X103644619Y-87544286D01*
X103644619Y-87658571D01*
X103606524Y-87734762D01*
X103568429Y-87772857D01*
X103492238Y-87810952D01*
X103187476Y-87810952D01*
X103987476Y-88191905D02*
X103987476Y-87391905D01*
X104825571Y-88191905D02*
X104558904Y-87810952D01*
X104368428Y-88191905D02*
X104368428Y-87391905D01*
X104673190Y-87391905D01*
X104749381Y-87430000D01*
X104787476Y-87468095D01*
X104825571Y-87544286D01*
X104825571Y-87658571D01*
X104787476Y-87734762D01*
X104749381Y-87772857D01*
X104673190Y-87810952D01*
X104368428Y-87810952D01*
X105930333Y-87391905D02*
X106082714Y-87391905D01*
X106158905Y-87430000D01*
X106235095Y-87506190D01*
X106273190Y-87658571D01*
X106273190Y-87925238D01*
X106235095Y-88077619D01*
X106158905Y-88153810D01*
X106082714Y-88191905D01*
X105930333Y-88191905D01*
X105854143Y-88153810D01*
X105777952Y-88077619D01*
X105739857Y-87925238D01*
X105739857Y-87658571D01*
X105777952Y-87506190D01*
X105854143Y-87430000D01*
X105930333Y-87391905D01*
X107035095Y-87430000D02*
X106958904Y-87391905D01*
X106844619Y-87391905D01*
X106730333Y-87430000D01*
X106654142Y-87506190D01*
X106616047Y-87582381D01*
X106577952Y-87734762D01*
X106577952Y-87849048D01*
X106616047Y-88001429D01*
X106654142Y-88077619D01*
X106730333Y-88153810D01*
X106844619Y-88191905D01*
X106920809Y-88191905D01*
X107035095Y-88153810D01*
X107073190Y-88115714D01*
X107073190Y-87849048D01*
X106920809Y-87849048D01*
X103187476Y-90631905D02*
X103187476Y-89831905D01*
X103492238Y-89831905D01*
X103568429Y-89870000D01*
X103606524Y-89908095D01*
X103644619Y-89984286D01*
X103644619Y-90098571D01*
X103606524Y-90174762D01*
X103568429Y-90212857D01*
X103492238Y-90250952D01*
X103187476Y-90250952D01*
X103987476Y-90631905D02*
X103987476Y-89831905D01*
X104825571Y-90631905D02*
X104558904Y-90250952D01*
X104368428Y-90631905D02*
X104368428Y-89831905D01*
X104673190Y-89831905D01*
X104749381Y-89870000D01*
X104787476Y-89908095D01*
X104825571Y-89984286D01*
X104825571Y-90098571D01*
X104787476Y-90174762D01*
X104749381Y-90212857D01*
X104673190Y-90250952D01*
X104368428Y-90250952D01*
X105777952Y-90212857D02*
X106044619Y-90212857D01*
X106158905Y-90631905D02*
X105777952Y-90631905D01*
X105777952Y-89831905D01*
X106158905Y-89831905D01*
X106920810Y-89870000D02*
X106844619Y-89831905D01*
X106730334Y-89831905D01*
X106616048Y-89870000D01*
X106539857Y-89946190D01*
X106501762Y-90022381D01*
X106463667Y-90174762D01*
X106463667Y-90289048D01*
X106501762Y-90441429D01*
X106539857Y-90517619D01*
X106616048Y-90593810D01*
X106730334Y-90631905D01*
X106806524Y-90631905D01*
X106920810Y-90593810D01*
X106958905Y-90555714D01*
X106958905Y-90289048D01*
X106806524Y-90289048D01*
X103187476Y-93071905D02*
X103187476Y-92271905D01*
X103492238Y-92271905D01*
X103568429Y-92310000D01*
X103606524Y-92348095D01*
X103644619Y-92424286D01*
X103644619Y-92538571D01*
X103606524Y-92614762D01*
X103568429Y-92652857D01*
X103492238Y-92690952D01*
X103187476Y-92690952D01*
X103987476Y-93071905D02*
X103987476Y-92271905D01*
X104825571Y-93071905D02*
X104558904Y-92690952D01*
X104368428Y-93071905D02*
X104368428Y-92271905D01*
X104673190Y-92271905D01*
X104749381Y-92310000D01*
X104787476Y-92348095D01*
X104825571Y-92424286D01*
X104825571Y-92538571D01*
X104787476Y-92614762D01*
X104749381Y-92652857D01*
X104673190Y-92690952D01*
X104368428Y-92690952D01*
X105777952Y-92271905D02*
X105777952Y-92919524D01*
X105816047Y-92995714D01*
X105854143Y-93033810D01*
X105930333Y-93071905D01*
X106082714Y-93071905D01*
X106158905Y-93033810D01*
X106197000Y-92995714D01*
X106235095Y-92919524D01*
X106235095Y-92271905D01*
X107035095Y-92310000D02*
X106958904Y-92271905D01*
X106844619Y-92271905D01*
X106730333Y-92310000D01*
X106654142Y-92386190D01*
X106616047Y-92462381D01*
X106577952Y-92614762D01*
X106577952Y-92729048D01*
X106616047Y-92881429D01*
X106654142Y-92957619D01*
X106730333Y-93033810D01*
X106844619Y-93071905D01*
X106920809Y-93071905D01*
X107035095Y-93033810D01*
X107073190Y-92995714D01*
X107073190Y-92729048D01*
X106920809Y-92729048D01*
X103187476Y-95511905D02*
X103187476Y-94711905D01*
X103644619Y-95511905D01*
X103644619Y-94711905D01*
X104482714Y-95435714D02*
X104444619Y-95473810D01*
X104330333Y-95511905D01*
X104254143Y-95511905D01*
X104139857Y-95473810D01*
X104063666Y-95397619D01*
X104025571Y-95321429D01*
X103987476Y-95169048D01*
X103987476Y-95054762D01*
X104025571Y-94902381D01*
X104063666Y-94826190D01*
X104139857Y-94750000D01*
X104254143Y-94711905D01*
X104330333Y-94711905D01*
X104444619Y-94750000D01*
X104482714Y-94788095D01*
X103644619Y-97951905D02*
X103377952Y-97570952D01*
X103187476Y-97951905D02*
X103187476Y-97151905D01*
X103492238Y-97151905D01*
X103568429Y-97190000D01*
X103606524Y-97228095D01*
X103644619Y-97304286D01*
X103644619Y-97418571D01*
X103606524Y-97494762D01*
X103568429Y-97532857D01*
X103492238Y-97570952D01*
X103187476Y-97570952D01*
X104101762Y-97951905D02*
X104025571Y-97913810D01*
X103987476Y-97837619D01*
X103987476Y-97151905D01*
X104330334Y-97418571D02*
X104520810Y-97951905D01*
X104711286Y-97418571D02*
X104520810Y-97951905D01*
X104444619Y-98142381D01*
X104406524Y-98180476D01*
X104330334Y-98218571D01*
X105625572Y-97532857D02*
X105892239Y-97532857D01*
X106006525Y-97951905D02*
X105625572Y-97951905D01*
X105625572Y-97151905D01*
X106006525Y-97151905D01*
X106768430Y-97190000D02*
X106692239Y-97151905D01*
X106577954Y-97151905D01*
X106463668Y-97190000D01*
X106387477Y-97266190D01*
X106349382Y-97342381D01*
X106311287Y-97494762D01*
X106311287Y-97609048D01*
X106349382Y-97761429D01*
X106387477Y-97837619D01*
X106463668Y-97913810D01*
X106577954Y-97951905D01*
X106654144Y-97951905D01*
X106768430Y-97913810D01*
X106806525Y-97875714D01*
X106806525Y-97609048D01*
X106654144Y-97609048D01*
D11*
X105278572Y-73207143D02*
X106421429Y-73207143D01*
X105850000Y-73778571D02*
X105850000Y-72635714D01*
D12*
X105416048Y-79199619D02*
X104835477Y-79199619D01*
X105125763Y-79199619D02*
X105125763Y-78183619D01*
X105029001Y-78328762D01*
X104932239Y-78425524D01*
X104835477Y-78473905D01*
X105803096Y-78280381D02*
X105851477Y-78232000D01*
X105948239Y-78183619D01*
X106190143Y-78183619D01*
X106286905Y-78232000D01*
X106335286Y-78280381D01*
X106383667Y-78377143D01*
X106383667Y-78473905D01*
X106335286Y-78619048D01*
X105754715Y-79199619D01*
X106383667Y-79199619D01*
X106673953Y-78183619D02*
X107012620Y-79199619D01*
X107351286Y-78183619D01*
X107689953Y-79199619D02*
X107689953Y-78183619D01*
X107931858Y-78183619D01*
X108077000Y-78232000D01*
X108173762Y-78328762D01*
X108222143Y-78425524D01*
X108270524Y-78619048D01*
X108270524Y-78764190D01*
X108222143Y-78957714D01*
X108173762Y-79054476D01*
X108077000Y-79151238D01*
X107931858Y-79199619D01*
X107689953Y-79199619D01*
X109286524Y-79102857D02*
X109238143Y-79151238D01*
X109093000Y-79199619D01*
X108996238Y-79199619D01*
X108851096Y-79151238D01*
X108754334Y-79054476D01*
X108705953Y-78957714D01*
X108657572Y-78764190D01*
X108657572Y-78619048D01*
X108705953Y-78425524D01*
X108754334Y-78328762D01*
X108851096Y-78232000D01*
X108996238Y-78183619D01*
X109093000Y-78183619D01*
X109238143Y-78232000D01*
X109286524Y-78280381D01*
D13*
X104444286Y-118112714D02*
X104081429Y-118112714D01*
X104045143Y-118475571D01*
X104081429Y-118439286D01*
X104154000Y-118403000D01*
X104335429Y-118403000D01*
X104408000Y-118439286D01*
X104444286Y-118475571D01*
X104480571Y-118548143D01*
X104480571Y-118729571D01*
X104444286Y-118802143D01*
X104408000Y-118838429D01*
X104335429Y-118874714D01*
X104154000Y-118874714D01*
X104081429Y-118838429D01*
X104045143Y-118802143D01*
X104952285Y-118112714D02*
X105024857Y-118112714D01*
X105097428Y-118149000D01*
X105133714Y-118185286D01*
X105170000Y-118257857D01*
X105206285Y-118403000D01*
X105206285Y-118584429D01*
X105170000Y-118729571D01*
X105133714Y-118802143D01*
X105097428Y-118838429D01*
X105024857Y-118874714D01*
X104952285Y-118874714D01*
X104879714Y-118838429D01*
X104843428Y-118802143D01*
X104807143Y-118729571D01*
X104770857Y-118584429D01*
X104770857Y-118403000D01*
X104807143Y-118257857D01*
X104843428Y-118185286D01*
X104879714Y-118149000D01*
X104952285Y-118112714D01*
X105677999Y-118112714D02*
X105750571Y-118112714D01*
X105823142Y-118149000D01*
X105859428Y-118185286D01*
X105895714Y-118257857D01*
X105931999Y-118403000D01*
X105931999Y-118584429D01*
X105895714Y-118729571D01*
X105859428Y-118802143D01*
X105823142Y-118838429D01*
X105750571Y-118874714D01*
X105677999Y-118874714D01*
X105605428Y-118838429D01*
X105569142Y-118802143D01*
X105532857Y-118729571D01*
X105496571Y-118584429D01*
X105496571Y-118403000D01*
X105532857Y-118257857D01*
X105569142Y-118185286D01*
X105605428Y-118149000D01*
X105677999Y-118112714D01*
X106258571Y-118874714D02*
X106258571Y-118366714D01*
X106258571Y-118439286D02*
X106294856Y-118403000D01*
X106367428Y-118366714D01*
X106476285Y-118366714D01*
X106548856Y-118403000D01*
X106585142Y-118475571D01*
X106585142Y-118874714D01*
X106585142Y-118475571D02*
X106621428Y-118403000D01*
X106693999Y-118366714D01*
X106802856Y-118366714D01*
X106875428Y-118403000D01*
X106911713Y-118475571D01*
X106911713Y-118874714D01*
X107238285Y-118657000D02*
X107601142Y-118657000D01*
X107165713Y-118874714D02*
X107419713Y-118112714D01*
X107673713Y-118874714D01*
D12*
X103417619Y-72145000D02*
X103538571Y-72205476D01*
X103720000Y-72205476D01*
X103901428Y-72145000D01*
X104022381Y-72024048D01*
X104082857Y-71903095D01*
X104143333Y-71661190D01*
X104143333Y-71479762D01*
X104082857Y-71237857D01*
X104022381Y-71116905D01*
X103901428Y-70995952D01*
X103720000Y-70935476D01*
X103599048Y-70935476D01*
X103417619Y-70995952D01*
X103357143Y-71056429D01*
X103357143Y-71479762D01*
X103599048Y-71479762D01*
X102812857Y-70935476D02*
X102812857Y-72205476D01*
X102087143Y-70935476D01*
X102087143Y-72205476D01*
X101482381Y-70935476D02*
X101482381Y-72205476D01*
X101180000Y-72205476D01*
X100998572Y-72145000D01*
X100877619Y-72024048D01*
X100817143Y-71903095D01*
X100756667Y-71661190D01*
X100756667Y-71479762D01*
X100817143Y-71237857D01*
X100877619Y-71116905D01*
X100998572Y-70995952D01*
X101180000Y-70935476D01*
X101482381Y-70935476D01*
X110177619Y-71349286D02*
X109210000Y-71349286D01*
X109693810Y-70865476D02*
X109693810Y-71833095D01*
X107940000Y-70865476D02*
X108665714Y-70865476D01*
X108302857Y-70865476D02*
X108302857Y-72135476D01*
X108423809Y-71954048D01*
X108544762Y-71833095D01*
X108665714Y-71772619D01*
X107456190Y-72014524D02*
X107395714Y-72075000D01*
X107274762Y-72135476D01*
X106972381Y-72135476D01*
X106851428Y-72075000D01*
X106790952Y-72014524D01*
X106730476Y-71893571D01*
X106730476Y-71772619D01*
X106790952Y-71591190D01*
X107516666Y-70865476D01*
X106730476Y-70865476D01*
X106367619Y-72135476D02*
X105944285Y-70865476D01*
X105520952Y-72135476D01*
X83570000Y-73593376D02*
X83570000Y-74863376D01*
X83086191Y-74863376D01*
X82965238Y-74802900D01*
X82904762Y-74742424D01*
X82844286Y-74621471D01*
X82844286Y-74440043D01*
X82904762Y-74319090D01*
X82965238Y-74258614D01*
X83086191Y-74198138D01*
X83570000Y-74198138D01*
X82300000Y-73593376D02*
X82300000Y-74863376D01*
X80969524Y-73593376D02*
X81392857Y-74198138D01*
X81695238Y-73593376D02*
X81695238Y-74863376D01*
X81211429Y-74863376D01*
X81090476Y-74802900D01*
X81030000Y-74742424D01*
X80969524Y-74621471D01*
X80969524Y-74440043D01*
X81030000Y-74319090D01*
X81090476Y-74258614D01*
X81211429Y-74198138D01*
X81695238Y-74198138D01*
X83297857Y-72907576D02*
X83297857Y-71879481D01*
X83237381Y-71758529D01*
X83176905Y-71698052D01*
X83055952Y-71637576D01*
X82814048Y-71637576D01*
X82693095Y-71698052D01*
X82632619Y-71758529D01*
X82572143Y-71879481D01*
X82572143Y-72907576D01*
X81302143Y-72847100D02*
X81423095Y-72907576D01*
X81604524Y-72907576D01*
X81785952Y-72847100D01*
X81906905Y-72726148D01*
X81967381Y-72605195D01*
X82027857Y-72363290D01*
X82027857Y-72181862D01*
X81967381Y-71939957D01*
X81906905Y-71819005D01*
X81785952Y-71698052D01*
X81604524Y-71637576D01*
X81483572Y-71637576D01*
X81302143Y-71698052D01*
X81241667Y-71758529D01*
X81241667Y-72181862D01*
X81483572Y-72181862D01*
X68380000Y-73713376D02*
X68380000Y-74983376D01*
X67896191Y-74983376D01*
X67775238Y-74922900D01*
X67714762Y-74862424D01*
X67654286Y-74741471D01*
X67654286Y-74560043D01*
X67714762Y-74439090D01*
X67775238Y-74378614D01*
X67896191Y-74318138D01*
X68380000Y-74318138D01*
X67110000Y-73713376D02*
X67110000Y-74983376D01*
X65779524Y-73713376D02*
X66202857Y-74318138D01*
X66505238Y-73713376D02*
X66505238Y-74983376D01*
X66021429Y-74983376D01*
X65900476Y-74922900D01*
X65840000Y-74862424D01*
X65779524Y-74741471D01*
X65779524Y-74560043D01*
X65840000Y-74439090D01*
X65900476Y-74378614D01*
X66021429Y-74318138D01*
X66505238Y-74318138D01*
X68017143Y-72422814D02*
X67593810Y-72422814D01*
X67412381Y-71757576D02*
X68017143Y-71757576D01*
X68017143Y-73027576D01*
X67412381Y-73027576D01*
X66202857Y-72967100D02*
X66323809Y-73027576D01*
X66505238Y-73027576D01*
X66686666Y-72967100D01*
X66807619Y-72846148D01*
X66868095Y-72725195D01*
X66928571Y-72483290D01*
X66928571Y-72301862D01*
X66868095Y-72059957D01*
X66807619Y-71939005D01*
X66686666Y-71818052D01*
X66505238Y-71757576D01*
X66384286Y-71757576D01*
X66202857Y-71818052D01*
X66142381Y-71878529D01*
X66142381Y-72301862D01*
X66384286Y-72301862D01*
X73107619Y-74762900D02*
X73228571Y-74823376D01*
X73410000Y-74823376D01*
X73591428Y-74762900D01*
X73712381Y-74641948D01*
X73772857Y-74520995D01*
X73833333Y-74279090D01*
X73833333Y-74097662D01*
X73772857Y-73855757D01*
X73712381Y-73734805D01*
X73591428Y-73613852D01*
X73410000Y-73553376D01*
X73289048Y-73553376D01*
X73107619Y-73613852D01*
X73047143Y-73674329D01*
X73047143Y-74097662D01*
X73289048Y-74097662D01*
X72502857Y-73553376D02*
X72502857Y-74823376D01*
X71777143Y-73553376D01*
X71777143Y-74823376D01*
X71172381Y-73553376D02*
X71172381Y-74823376D01*
X70870000Y-74823376D01*
X70688572Y-74762900D01*
X70567619Y-74641948D01*
X70507143Y-74520995D01*
X70446667Y-74279090D01*
X70446667Y-74097662D01*
X70507143Y-73855757D01*
X70567619Y-73734805D01*
X70688572Y-73613852D01*
X70870000Y-73553376D01*
X71172381Y-73553376D01*
X73047143Y-72262814D02*
X72623810Y-72262814D01*
X72442381Y-71597576D02*
X73047143Y-71597576D01*
X73047143Y-72867576D01*
X72442381Y-72867576D01*
X71232857Y-72807100D02*
X71353809Y-72867576D01*
X71535238Y-72867576D01*
X71716666Y-72807100D01*
X71837619Y-72686148D01*
X71898095Y-72565195D01*
X71958571Y-72323290D01*
X71958571Y-72141862D01*
X71898095Y-71899957D01*
X71837619Y-71779005D01*
X71716666Y-71658052D01*
X71535238Y-71597576D01*
X71414286Y-71597576D01*
X71232857Y-71658052D01*
X71172381Y-71718529D01*
X71172381Y-72141862D01*
X71414286Y-72141862D01*
X88367619Y-74692900D02*
X88488571Y-74753376D01*
X88670000Y-74753376D01*
X88851428Y-74692900D01*
X88972381Y-74571948D01*
X89032857Y-74450995D01*
X89093333Y-74209090D01*
X89093333Y-74027662D01*
X89032857Y-73785757D01*
X88972381Y-73664805D01*
X88851428Y-73543852D01*
X88670000Y-73483376D01*
X88549048Y-73483376D01*
X88367619Y-73543852D01*
X88307143Y-73604329D01*
X88307143Y-74027662D01*
X88549048Y-74027662D01*
X87762857Y-73483376D02*
X87762857Y-74753376D01*
X87037143Y-73483376D01*
X87037143Y-74753376D01*
X86432381Y-73483376D02*
X86432381Y-74753376D01*
X86130000Y-74753376D01*
X85948572Y-74692900D01*
X85827619Y-74571948D01*
X85767143Y-74450995D01*
X85706667Y-74209090D01*
X85706667Y-74027662D01*
X85767143Y-73785757D01*
X85827619Y-73664805D01*
X85948572Y-73543852D01*
X86130000Y-73483376D01*
X86432381Y-73483376D01*
X88397857Y-72797576D02*
X88397857Y-71769481D01*
X88337381Y-71648529D01*
X88276905Y-71588052D01*
X88155952Y-71527576D01*
X87914048Y-71527576D01*
X87793095Y-71588052D01*
X87732619Y-71648529D01*
X87672143Y-71769481D01*
X87672143Y-72797576D01*
X86402143Y-72737100D02*
X86523095Y-72797576D01*
X86704524Y-72797576D01*
X86885952Y-72737100D01*
X87006905Y-72616148D01*
X87067381Y-72495195D01*
X87127857Y-72253290D01*
X87127857Y-72071862D01*
X87067381Y-71829957D01*
X87006905Y-71709005D01*
X86885952Y-71588052D01*
X86704524Y-71527576D01*
X86583572Y-71527576D01*
X86402143Y-71588052D01*
X86341667Y-71648529D01*
X86341667Y-72071862D01*
X86583572Y-72071862D01*
X93679524Y-74713376D02*
X93256190Y-73443376D01*
X92832857Y-74713376D01*
X92409524Y-73927186D02*
X91441905Y-73927186D01*
X91925715Y-73443376D02*
X91925715Y-74410995D01*
X93467857Y-72757576D02*
X93467857Y-71729481D01*
X93407381Y-71608529D01*
X93346905Y-71548052D01*
X93225952Y-71487576D01*
X92984048Y-71487576D01*
X92863095Y-71548052D01*
X92802619Y-71608529D01*
X92742143Y-71729481D01*
X92742143Y-72757576D01*
X91472143Y-72697100D02*
X91593095Y-72757576D01*
X91774524Y-72757576D01*
X91955952Y-72697100D01*
X92076905Y-72576148D01*
X92137381Y-72455195D01*
X92197857Y-72213290D01*
X92197857Y-72031862D01*
X92137381Y-71789957D01*
X92076905Y-71669005D01*
X91955952Y-71548052D01*
X91774524Y-71487576D01*
X91653572Y-71487576D01*
X91472143Y-71548052D01*
X91411667Y-71608529D01*
X91411667Y-72031862D01*
X91653572Y-72031862D01*
X78399524Y-74973376D02*
X77976190Y-73703376D01*
X77552857Y-74973376D01*
X77129524Y-74187186D02*
X76161905Y-74187186D01*
X76645715Y-73703376D02*
X76645715Y-74670995D01*
X78097143Y-72412814D02*
X77673810Y-72412814D01*
X77492381Y-71747576D02*
X78097143Y-71747576D01*
X78097143Y-73017576D01*
X77492381Y-73017576D01*
X76282857Y-72957100D02*
X76403809Y-73017576D01*
X76585238Y-73017576D01*
X76766666Y-72957100D01*
X76887619Y-72836148D01*
X76948095Y-72715195D01*
X77008571Y-72473290D01*
X77008571Y-72291862D01*
X76948095Y-72049957D01*
X76887619Y-71929005D01*
X76766666Y-71808052D01*
X76585238Y-71747576D01*
X76464286Y-71747576D01*
X76282857Y-71808052D01*
X76222381Y-71868529D01*
X76222381Y-72291862D01*
X76464286Y-72291862D01*
X63239524Y-74983376D02*
X62816190Y-73713376D01*
X62392857Y-74983376D01*
X61969524Y-74197186D02*
X61001905Y-74197186D01*
X61485715Y-73713376D02*
X61485715Y-74680995D01*
X62785952Y-73027576D02*
X62544048Y-73027576D01*
X62423095Y-72967100D01*
X62302143Y-72846148D01*
X62241667Y-72604243D01*
X62241667Y-72180910D01*
X62302143Y-71939005D01*
X62423095Y-71818052D01*
X62544048Y-71757576D01*
X62785952Y-71757576D01*
X62906905Y-71818052D01*
X63027857Y-71939005D01*
X63088333Y-72180910D01*
X63088333Y-72604243D01*
X63027857Y-72846148D01*
X62906905Y-72967100D01*
X62785952Y-73027576D01*
X61032143Y-72967100D02*
X61153095Y-73027576D01*
X61334524Y-73027576D01*
X61515952Y-72967100D01*
X61636905Y-72846148D01*
X61697381Y-72725195D01*
X61757857Y-72483290D01*
X61757857Y-72301862D01*
X61697381Y-72059957D01*
X61636905Y-71939005D01*
X61515952Y-71818052D01*
X61334524Y-71757576D01*
X61213572Y-71757576D01*
X61032143Y-71818052D01*
X60971667Y-71878529D01*
X60971667Y-72301862D01*
X61213572Y-72301862D01*
X57737619Y-75152900D02*
X57858571Y-75213376D01*
X58040000Y-75213376D01*
X58221428Y-75152900D01*
X58342381Y-75031948D01*
X58402857Y-74910995D01*
X58463333Y-74669090D01*
X58463333Y-74487662D01*
X58402857Y-74245757D01*
X58342381Y-74124805D01*
X58221428Y-74003852D01*
X58040000Y-73943376D01*
X57919048Y-73943376D01*
X57737619Y-74003852D01*
X57677143Y-74064329D01*
X57677143Y-74487662D01*
X57919048Y-74487662D01*
X57132857Y-73943376D02*
X57132857Y-75213376D01*
X56407143Y-73943376D01*
X56407143Y-75213376D01*
X55802381Y-73943376D02*
X55802381Y-75213376D01*
X55500000Y-75213376D01*
X55318572Y-75152900D01*
X55197619Y-75031948D01*
X55137143Y-74910995D01*
X55076667Y-74669090D01*
X55076667Y-74487662D01*
X55137143Y-74245757D01*
X55197619Y-74124805D01*
X55318572Y-74003852D01*
X55500000Y-73943376D01*
X55802381Y-73943376D01*
X57525952Y-73257576D02*
X57284048Y-73257576D01*
X57163095Y-73197100D01*
X57042143Y-73076148D01*
X56981667Y-72834243D01*
X56981667Y-72410910D01*
X57042143Y-72169005D01*
X57163095Y-72048052D01*
X57284048Y-71987576D01*
X57525952Y-71987576D01*
X57646905Y-72048052D01*
X57767857Y-72169005D01*
X57828333Y-72410910D01*
X57828333Y-72834243D01*
X57767857Y-73076148D01*
X57646905Y-73197100D01*
X57525952Y-73257576D01*
X55772143Y-73197100D02*
X55893095Y-73257576D01*
X56074524Y-73257576D01*
X56255952Y-73197100D01*
X56376905Y-73076148D01*
X56437381Y-72955195D01*
X56497857Y-72713290D01*
X56497857Y-72531862D01*
X56437381Y-72289957D01*
X56376905Y-72169005D01*
X56255952Y-72048052D01*
X56074524Y-71987576D01*
X55953572Y-71987576D01*
X55772143Y-72048052D01*
X55711667Y-72108529D01*
X55711667Y-72531862D01*
X55953572Y-72531862D01*
X53070000Y-73943376D02*
X53070000Y-75213376D01*
X52586191Y-75213376D01*
X52465238Y-75152900D01*
X52404762Y-75092424D01*
X52344286Y-74971471D01*
X52344286Y-74790043D01*
X52404762Y-74669090D01*
X52465238Y-74608614D01*
X52586191Y-74548138D01*
X53070000Y-74548138D01*
X51800000Y-73943376D02*
X51800000Y-75213376D01*
X50469524Y-73943376D02*
X50892857Y-74548138D01*
X51195238Y-73943376D02*
X51195238Y-75213376D01*
X50711429Y-75213376D01*
X50590476Y-75152900D01*
X50530000Y-75092424D01*
X50469524Y-74971471D01*
X50469524Y-74790043D01*
X50530000Y-74669090D01*
X50590476Y-74608614D01*
X50711429Y-74548138D01*
X51195238Y-74548138D01*
X52555952Y-73257576D02*
X52314048Y-73257576D01*
X52193095Y-73197100D01*
X52072143Y-73076148D01*
X52011667Y-72834243D01*
X52011667Y-72410910D01*
X52072143Y-72169005D01*
X52193095Y-72048052D01*
X52314048Y-71987576D01*
X52555952Y-71987576D01*
X52676905Y-72048052D01*
X52797857Y-72169005D01*
X52858333Y-72410910D01*
X52858333Y-72834243D01*
X52797857Y-73076148D01*
X52676905Y-73197100D01*
X52555952Y-73257576D01*
X50802143Y-73197100D02*
X50923095Y-73257576D01*
X51104524Y-73257576D01*
X51285952Y-73197100D01*
X51406905Y-73076148D01*
X51467381Y-72955195D01*
X51527857Y-72713290D01*
X51527857Y-72531862D01*
X51467381Y-72289957D01*
X51406905Y-72169005D01*
X51285952Y-72048052D01*
X51104524Y-71987576D01*
X50983572Y-71987576D01*
X50802143Y-72048052D01*
X50741667Y-72108529D01*
X50741667Y-72531862D01*
X50983572Y-72531862D01*
X103103096Y-133426624D02*
X102498334Y-133426624D01*
X102498334Y-132156624D01*
X102044762Y-135382424D02*
X102044762Y-134112424D01*
X102649524Y-135382424D02*
X102649524Y-134112424D01*
X103375238Y-135382424D01*
X103375238Y-134112424D01*
X82293096Y-132846624D02*
X81688334Y-132846624D01*
X81688334Y-131576624D01*
X81144048Y-133532424D02*
X81385952Y-133532424D01*
X81506905Y-133592900D01*
X81627857Y-133713852D01*
X81688333Y-133955757D01*
X81688333Y-134379090D01*
X81627857Y-134620995D01*
X81506905Y-134741948D01*
X81385952Y-134802424D01*
X81144048Y-134802424D01*
X81023095Y-134741948D01*
X80902143Y-134620995D01*
X80841667Y-134379090D01*
X80841667Y-133955757D01*
X80902143Y-133713852D01*
X81023095Y-133592900D01*
X81144048Y-133532424D01*
X82897857Y-133592900D02*
X82776905Y-133532424D01*
X82595476Y-133532424D01*
X82414048Y-133592900D01*
X82293095Y-133713852D01*
X82232619Y-133834805D01*
X82172143Y-134076710D01*
X82172143Y-134258138D01*
X82232619Y-134500043D01*
X82293095Y-134620995D01*
X82414048Y-134741948D01*
X82595476Y-134802424D01*
X82716428Y-134802424D01*
X82897857Y-134741948D01*
X82958333Y-134681471D01*
X82958333Y-134258138D01*
X82716428Y-134258138D01*
D14*
X106952000Y-135164333D02*
X106952000Y-133386333D01*
X107968000Y-135164333D01*
X107968000Y-133386333D01*
X86792000Y-134854333D02*
X86792000Y-133076333D01*
X87808000Y-134854333D01*
X87808000Y-133076333D01*
D15*
X84759000Y-133000800D02*
X84759000Y-135185200D01*
X70259000Y-133000800D02*
X70259000Y-135185200D01*
X105063800Y-133170800D02*
X105063800Y-135355200D01*
D12*
X67543096Y-133146624D02*
X66938334Y-133146624D01*
X66938334Y-131876624D01*
X66242857Y-134437186D02*
X66666190Y-134437186D01*
X66847619Y-135102424D02*
X66242857Y-135102424D01*
X66242857Y-133832424D01*
X66847619Y-133832424D01*
X68057143Y-133892900D02*
X67936191Y-133832424D01*
X67754762Y-133832424D01*
X67573334Y-133892900D01*
X67452381Y-134013852D01*
X67391905Y-134134805D01*
X67331429Y-134376710D01*
X67331429Y-134558138D01*
X67391905Y-134800043D01*
X67452381Y-134920995D01*
X67573334Y-135041948D01*
X67754762Y-135102424D01*
X67875714Y-135102424D01*
X68057143Y-135041948D01*
X68117619Y-134981471D01*
X68117619Y-134558138D01*
X67875714Y-134558138D01*
X52293096Y-132846624D02*
X51688334Y-132846624D01*
X51688334Y-131576624D01*
X50902143Y-133532424D02*
X50902143Y-134560519D01*
X50962619Y-134681471D01*
X51023095Y-134741948D01*
X51144048Y-134802424D01*
X51385952Y-134802424D01*
X51506905Y-134741948D01*
X51567381Y-134681471D01*
X51627857Y-134560519D01*
X51627857Y-133532424D01*
X52897857Y-133592900D02*
X52776905Y-133532424D01*
X52595476Y-133532424D01*
X52414048Y-133592900D01*
X52293095Y-133713852D01*
X52232619Y-133834805D01*
X52172143Y-134076710D01*
X52172143Y-134258138D01*
X52232619Y-134500043D01*
X52293095Y-134620995D01*
X52414048Y-134741948D01*
X52595476Y-134802424D01*
X52716428Y-134802424D01*
X52897857Y-134741948D01*
X52958333Y-134681471D01*
X52958333Y-134258138D01*
X52716428Y-134258138D01*
D14*
X72242000Y-134854333D02*
X72242000Y-133076333D01*
X73258000Y-134854333D01*
X73258000Y-133076333D01*
X57042000Y-134704333D02*
X57042000Y-132926333D01*
X58058000Y-134704333D01*
X58058000Y-132926333D01*
D13*
X55622571Y-79738914D02*
X56058000Y-79738914D01*
X55840286Y-80500914D02*
X55840286Y-79738914D01*
X56312000Y-80500914D02*
X56312000Y-79992914D01*
X56312000Y-79738914D02*
X56275714Y-79775200D01*
X56312000Y-79811486D01*
X56348285Y-79775200D01*
X56312000Y-79738914D01*
X56312000Y-79811486D01*
X56674857Y-80500914D02*
X56674857Y-79992914D01*
X56674857Y-80065486D02*
X56711142Y-80029200D01*
X56783714Y-79992914D01*
X56892571Y-79992914D01*
X56965142Y-80029200D01*
X57001428Y-80101771D01*
X57001428Y-80500914D01*
X57001428Y-80101771D02*
X57037714Y-80029200D01*
X57110285Y-79992914D01*
X57219142Y-79992914D01*
X57291714Y-80029200D01*
X57327999Y-80101771D01*
X57327999Y-80500914D01*
X57981142Y-80464629D02*
X57908571Y-80500914D01*
X57763428Y-80500914D01*
X57690857Y-80464629D01*
X57654571Y-80392057D01*
X57654571Y-80101771D01*
X57690857Y-80029200D01*
X57763428Y-79992914D01*
X57908571Y-79992914D01*
X57981142Y-80029200D01*
X58017428Y-80101771D01*
X58017428Y-80174343D01*
X57654571Y-80246914D01*
X58670571Y-80500914D02*
X58670571Y-79738914D01*
X58670571Y-80464629D02*
X58598000Y-80500914D01*
X58452857Y-80500914D01*
X58380285Y-80464629D01*
X58344000Y-80428343D01*
X58307714Y-80355771D01*
X58307714Y-80138057D01*
X58344000Y-80065486D01*
X58380285Y-80029200D01*
X58452857Y-79992914D01*
X58598000Y-79992914D01*
X58670571Y-80029200D01*
X59976857Y-80500914D02*
X59614000Y-80500914D01*
X59614000Y-79738914D01*
X60230857Y-80101771D02*
X60484857Y-80101771D01*
X60593714Y-80500914D02*
X60230857Y-80500914D01*
X60230857Y-79738914D01*
X60593714Y-79738914D01*
X60920286Y-80500914D02*
X60920286Y-79738914D01*
X61101714Y-79738914D01*
X61210571Y-79775200D01*
X61283143Y-79847771D01*
X61319428Y-79920343D01*
X61355714Y-80065486D01*
X61355714Y-80174343D01*
X61319428Y-80319486D01*
X61283143Y-80392057D01*
X61210571Y-80464629D01*
X61101714Y-80500914D01*
X60920286Y-80500914D01*
X62625714Y-80500914D02*
X62262857Y-80500914D01*
X62262857Y-79738914D01*
X62879714Y-80500914D02*
X62879714Y-79992914D01*
X62879714Y-79738914D02*
X62843428Y-79775200D01*
X62879714Y-79811486D01*
X62915999Y-79775200D01*
X62879714Y-79738914D01*
X62879714Y-79811486D01*
X63569142Y-79992914D02*
X63569142Y-80609771D01*
X63532856Y-80682343D01*
X63496571Y-80718629D01*
X63423999Y-80754914D01*
X63315142Y-80754914D01*
X63242571Y-80718629D01*
X63569142Y-80464629D02*
X63496571Y-80500914D01*
X63351428Y-80500914D01*
X63278856Y-80464629D01*
X63242571Y-80428343D01*
X63206285Y-80355771D01*
X63206285Y-80138057D01*
X63242571Y-80065486D01*
X63278856Y-80029200D01*
X63351428Y-79992914D01*
X63496571Y-79992914D01*
X63569142Y-80029200D01*
X63932000Y-80500914D02*
X63932000Y-79738914D01*
X64258571Y-80500914D02*
X64258571Y-80101771D01*
X64222285Y-80029200D01*
X64149714Y-79992914D01*
X64040857Y-79992914D01*
X63968285Y-80029200D01*
X63932000Y-80065486D01*
X64512571Y-79992914D02*
X64802857Y-79992914D01*
X64621429Y-79738914D02*
X64621429Y-80392057D01*
X64657714Y-80464629D01*
X64730286Y-80500914D01*
X64802857Y-80500914D01*
X65056858Y-80500914D02*
X65056858Y-79992914D01*
X65056858Y-79738914D02*
X65020572Y-79775200D01*
X65056858Y-79811486D01*
X65093143Y-79775200D01*
X65056858Y-79738914D01*
X65056858Y-79811486D01*
X65419715Y-79992914D02*
X65419715Y-80500914D01*
X65419715Y-80065486D02*
X65456000Y-80029200D01*
X65528572Y-79992914D01*
X65637429Y-79992914D01*
X65710000Y-80029200D01*
X65746286Y-80101771D01*
X65746286Y-80500914D01*
X66435715Y-79992914D02*
X66435715Y-80609771D01*
X66399429Y-80682343D01*
X66363144Y-80718629D01*
X66290572Y-80754914D01*
X66181715Y-80754914D01*
X66109144Y-80718629D01*
X66435715Y-80464629D02*
X66363144Y-80500914D01*
X66218001Y-80500914D01*
X66145429Y-80464629D01*
X66109144Y-80428343D01*
X66072858Y-80355771D01*
X66072858Y-80138057D01*
X66109144Y-80065486D01*
X66145429Y-80029200D01*
X66218001Y-79992914D01*
X66363144Y-79992914D01*
X66435715Y-80029200D01*
X56166857Y-81622143D02*
X56130571Y-81658429D01*
X56021714Y-81694714D01*
X55949143Y-81694714D01*
X55840286Y-81658429D01*
X55767714Y-81585857D01*
X55731429Y-81513286D01*
X55695143Y-81368143D01*
X55695143Y-81259286D01*
X55731429Y-81114143D01*
X55767714Y-81041571D01*
X55840286Y-80969000D01*
X55949143Y-80932714D01*
X56021714Y-80932714D01*
X56130571Y-80969000D01*
X56166857Y-81005286D01*
X56602286Y-81694714D02*
X56529714Y-81658429D01*
X56493429Y-81622143D01*
X56457143Y-81549571D01*
X56457143Y-81331857D01*
X56493429Y-81259286D01*
X56529714Y-81223000D01*
X56602286Y-81186714D01*
X56711143Y-81186714D01*
X56783714Y-81223000D01*
X56820000Y-81259286D01*
X56856286Y-81331857D01*
X56856286Y-81549571D01*
X56820000Y-81622143D01*
X56783714Y-81658429D01*
X56711143Y-81694714D01*
X56602286Y-81694714D01*
X57182858Y-81186714D02*
X57182858Y-81694714D01*
X57182858Y-81259286D02*
X57219143Y-81223000D01*
X57291715Y-81186714D01*
X57400572Y-81186714D01*
X57473143Y-81223000D01*
X57509429Y-81295571D01*
X57509429Y-81694714D01*
X57763429Y-81186714D02*
X58053715Y-81186714D01*
X57872287Y-80932714D02*
X57872287Y-81585857D01*
X57908572Y-81658429D01*
X57981144Y-81694714D01*
X58053715Y-81694714D01*
X58307716Y-81694714D02*
X58307716Y-81186714D01*
X58307716Y-81331857D02*
X58344001Y-81259286D01*
X58380287Y-81223000D01*
X58452858Y-81186714D01*
X58525430Y-81186714D01*
X58888287Y-81694714D02*
X58815715Y-81658429D01*
X58779430Y-81622143D01*
X58743144Y-81549571D01*
X58743144Y-81331857D01*
X58779430Y-81259286D01*
X58815715Y-81223000D01*
X58888287Y-81186714D01*
X58997144Y-81186714D01*
X59069715Y-81223000D01*
X59106001Y-81259286D01*
X59142287Y-81331857D01*
X59142287Y-81549571D01*
X59106001Y-81622143D01*
X59069715Y-81658429D01*
X58997144Y-81694714D01*
X58888287Y-81694714D01*
X59577716Y-81694714D02*
X59505144Y-81658429D01*
X59468859Y-81585857D01*
X59468859Y-80932714D01*
X59976859Y-81694714D02*
X59904287Y-81658429D01*
X59868002Y-81585857D01*
X59868002Y-80932714D01*
X60557430Y-81658429D02*
X60484859Y-81694714D01*
X60339716Y-81694714D01*
X60267145Y-81658429D01*
X60230859Y-81585857D01*
X60230859Y-81295571D01*
X60267145Y-81223000D01*
X60339716Y-81186714D01*
X60484859Y-81186714D01*
X60557430Y-81223000D01*
X60593716Y-81295571D01*
X60593716Y-81368143D01*
X60230859Y-81440714D01*
X60920288Y-81694714D02*
X60920288Y-81186714D01*
X60920288Y-81331857D02*
X60956573Y-81259286D01*
X60992859Y-81223000D01*
X61065430Y-81186714D01*
X61138002Y-81186714D01*
X61936287Y-81005286D02*
X61972573Y-80969000D01*
X62045144Y-80932714D01*
X62226573Y-80932714D01*
X62299144Y-80969000D01*
X62335430Y-81005286D01*
X62371715Y-81077857D01*
X62371715Y-81150429D01*
X62335430Y-81259286D01*
X61900001Y-81694714D01*
X62371715Y-81694714D01*
X63061144Y-81694714D02*
X62698287Y-81694714D01*
X62698287Y-80932714D01*
X63133715Y-81767286D02*
X63714286Y-81767286D01*
X64222286Y-81186714D02*
X64222286Y-81694714D01*
X64040857Y-80896429D02*
X63859429Y-81440714D01*
X64331143Y-81440714D01*
X64440000Y-81767286D02*
X65020571Y-81767286D01*
X65564857Y-81694714D02*
X65202000Y-81694714D01*
X65202000Y-80932714D01*
X65709999Y-80932714D02*
X65963999Y-81694714D01*
X66217999Y-80932714D01*
X56166857Y-82888514D02*
X55912857Y-82525657D01*
X55731429Y-82888514D02*
X55731429Y-82126514D01*
X56021714Y-82126514D01*
X56094286Y-82162800D01*
X56130571Y-82199086D01*
X56166857Y-82271657D01*
X56166857Y-82380514D01*
X56130571Y-82453086D01*
X56094286Y-82489371D01*
X56021714Y-82525657D01*
X55731429Y-82525657D01*
X56783714Y-82852229D02*
X56711143Y-82888514D01*
X56566000Y-82888514D01*
X56493429Y-82852229D01*
X56457143Y-82779657D01*
X56457143Y-82489371D01*
X56493429Y-82416800D01*
X56566000Y-82380514D01*
X56711143Y-82380514D01*
X56783714Y-82416800D01*
X56820000Y-82489371D01*
X56820000Y-82561943D01*
X56457143Y-82634514D01*
X57255429Y-82888514D02*
X57182857Y-82852229D01*
X57146572Y-82779657D01*
X57146572Y-82126514D01*
X57872286Y-82888514D02*
X57872286Y-82489371D01*
X57836000Y-82416800D01*
X57763429Y-82380514D01*
X57618286Y-82380514D01*
X57545715Y-82416800D01*
X57872286Y-82852229D02*
X57799715Y-82888514D01*
X57618286Y-82888514D01*
X57545715Y-82852229D01*
X57509429Y-82779657D01*
X57509429Y-82707086D01*
X57545715Y-82634514D01*
X57618286Y-82598229D01*
X57799715Y-82598229D01*
X57872286Y-82561943D01*
X58162572Y-82380514D02*
X58344001Y-82888514D01*
X58525429Y-82380514D02*
X58344001Y-82888514D01*
X58271429Y-83069943D01*
X58235144Y-83106229D01*
X58162572Y-83142514D01*
X59650286Y-82489371D02*
X59759143Y-82525657D01*
X59795428Y-82561943D01*
X59831714Y-82634514D01*
X59831714Y-82743371D01*
X59795428Y-82815943D01*
X59759143Y-82852229D01*
X59686571Y-82888514D01*
X59396286Y-82888514D01*
X59396286Y-82126514D01*
X59650286Y-82126514D01*
X59722857Y-82162800D01*
X59759143Y-82199086D01*
X59795428Y-82271657D01*
X59795428Y-82344229D01*
X59759143Y-82416800D01*
X59722857Y-82453086D01*
X59650286Y-82489371D01*
X59396286Y-82489371D01*
X60267143Y-82888514D02*
X60194571Y-82852229D01*
X60158286Y-82815943D01*
X60122000Y-82743371D01*
X60122000Y-82525657D01*
X60158286Y-82453086D01*
X60194571Y-82416800D01*
X60267143Y-82380514D01*
X60376000Y-82380514D01*
X60448571Y-82416800D01*
X60484857Y-82453086D01*
X60521143Y-82525657D01*
X60521143Y-82743371D01*
X60484857Y-82815943D01*
X60448571Y-82852229D01*
X60376000Y-82888514D01*
X60267143Y-82888514D01*
X61174286Y-82888514D02*
X61174286Y-82489371D01*
X61138000Y-82416800D01*
X61065429Y-82380514D01*
X60920286Y-82380514D01*
X60847715Y-82416800D01*
X61174286Y-82852229D02*
X61101715Y-82888514D01*
X60920286Y-82888514D01*
X60847715Y-82852229D01*
X60811429Y-82779657D01*
X60811429Y-82707086D01*
X60847715Y-82634514D01*
X60920286Y-82598229D01*
X61101715Y-82598229D01*
X61174286Y-82561943D01*
X61537144Y-82888514D02*
X61537144Y-82380514D01*
X61537144Y-82525657D02*
X61573429Y-82453086D01*
X61609715Y-82416800D01*
X61682286Y-82380514D01*
X61754858Y-82380514D01*
X62335429Y-82888514D02*
X62335429Y-82126514D01*
X62335429Y-82852229D02*
X62262858Y-82888514D01*
X62117715Y-82888514D01*
X62045143Y-82852229D01*
X62008858Y-82815943D01*
X61972572Y-82743371D01*
X61972572Y-82525657D01*
X62008858Y-82453086D01*
X62045143Y-82416800D01*
X62117715Y-82380514D01*
X62262858Y-82380514D01*
X62335429Y-82416800D01*
D16*
X57750000Y-98650000D02*
X54750000Y-98650000D01*
X57750000Y-100450000D02*
X54750000Y-100450000D01*
X73100000Y-98600000D02*
X70100000Y-98600000D01*
X73100000Y-100400000D02*
X70100000Y-100400000D01*
X87950000Y-98750000D02*
X84950000Y-98750000D01*
X87950000Y-100550000D02*
X84950000Y-100550000D01*
D17*
X53070000Y-91460000D02*
X54000000Y-91460000D01*
X56230000Y-91460000D02*
X55300000Y-91460000D01*
X56230000Y-91460000D02*
X56230000Y-89300000D01*
X53070000Y-91460000D02*
X53070000Y-90000000D01*
X67920000Y-91510000D02*
X68850000Y-91510000D01*
X71080000Y-91510000D02*
X70150000Y-91510000D01*
X71080000Y-91510000D02*
X71080000Y-89350000D01*
X67920000Y-91510000D02*
X67920000Y-90050000D01*
X82970000Y-91460000D02*
X83900000Y-91460000D01*
X86130000Y-91460000D02*
X85200000Y-91460000D01*
X86130000Y-91460000D02*
X86130000Y-89300000D01*
X82970000Y-91460000D02*
X82970000Y-90000000D01*
D16*
X49400000Y-103000000D02*
X61800000Y-103000000D01*
X61800000Y-103000000D02*
X61800000Y-131000000D01*
X61800000Y-131000000D02*
X49400000Y-131000000D01*
X49400000Y-131000000D02*
X49400000Y-103000000D01*
X64660000Y-103000000D02*
X77060000Y-103000000D01*
X77060000Y-103000000D02*
X77060000Y-131000000D01*
X77060000Y-131000000D02*
X64660000Y-131000000D01*
X64660000Y-131000000D02*
X64660000Y-103000000D01*
X79880000Y-103000000D02*
X92280000Y-103000000D01*
X92280000Y-103000000D02*
X92280000Y-131000000D01*
X92280000Y-131000000D02*
X79880000Y-131000000D01*
X79880000Y-131000000D02*
X79880000Y-103000000D01*
X109890000Y-123720000D02*
G75*
G03X109890000Y-123720000I-4500000J0D01*
G01*
D10*
G36*
X54954378Y-80556418D02*
X54952238Y-81150076D01*
X54952000Y-81334945D01*
X54950032Y-81975217D01*
X54943365Y-82465453D01*
X54930856Y-82824914D01*
X54911361Y-83072861D01*
X54883735Y-83228554D01*
X54846835Y-83311252D01*
X54833831Y-83324670D01*
X54666596Y-83396142D01*
X54528667Y-83426474D01*
X54528667Y-82972748D01*
X54528667Y-81379371D01*
X54524611Y-80858909D01*
X54513250Y-80409332D01*
X54495795Y-80055665D01*
X54473453Y-79822937D01*
X54449275Y-79736926D01*
X54337827Y-79706092D01*
X54095552Y-79659619D01*
X53759493Y-79604095D01*
X53412108Y-79552485D01*
X52783640Y-79490536D01*
X52056051Y-79462245D01*
X51286137Y-79466497D01*
X50530692Y-79502179D01*
X49846514Y-79568176D01*
X49448667Y-79630237D01*
X48898333Y-79734859D01*
X48875366Y-81356143D01*
X48852399Y-82977426D01*
X49425699Y-83068198D01*
X49761613Y-83120928D01*
X50066424Y-83168002D01*
X50253000Y-83196091D01*
X50493169Y-83213739D01*
X50864525Y-83220161D01*
X51329383Y-83216617D01*
X51850057Y-83204364D01*
X52388862Y-83184660D01*
X52908112Y-83158761D01*
X53370122Y-83127926D01*
X53737206Y-83093412D01*
X53872500Y-83075306D01*
X54528667Y-82972748D01*
X54528667Y-83426474D01*
X54357275Y-83464166D01*
X53933113Y-83526037D01*
X53421356Y-83579051D01*
X52849249Y-83620504D01*
X52244039Y-83647692D01*
X51632969Y-83657910D01*
X51480667Y-83657483D01*
X50995669Y-83652260D01*
X50556889Y-83644201D01*
X50198154Y-83634183D01*
X49953292Y-83623080D01*
X49872000Y-83615816D01*
X49365428Y-83532236D01*
X48957639Y-83449708D01*
X48672462Y-83373632D01*
X48538500Y-83313674D01*
X48501465Y-83235849D01*
X48473306Y-83060790D01*
X48453198Y-82773075D01*
X48440317Y-82357284D01*
X48433837Y-81797996D01*
X48432667Y-81334945D01*
X48433618Y-80718599D01*
X48437577Y-80250164D01*
X48446200Y-79908224D01*
X48461144Y-79671362D01*
X48484066Y-79518160D01*
X48516622Y-79427203D01*
X48560468Y-79377073D01*
X48585312Y-79361597D01*
X48851200Y-79268179D01*
X49256761Y-79188175D01*
X49772773Y-79122830D01*
X50370015Y-79073389D01*
X51019264Y-79041099D01*
X51691298Y-79027204D01*
X52356896Y-79032950D01*
X52986834Y-79059582D01*
X53551891Y-79108346D01*
X53790193Y-79139783D01*
X54155658Y-79191423D01*
X54435762Y-79236352D01*
X54641766Y-79295847D01*
X54784929Y-79391182D01*
X54876512Y-79543632D01*
X54927775Y-79774471D01*
X54949977Y-80104975D01*
X54954378Y-80556418D01*
X54954378Y-80556418D01*
X54954378Y-80556418D01*
G37*
X54954378Y-80556418D02*
X54952238Y-81150076D01*
X54952000Y-81334945D01*
X54950032Y-81975217D01*
X54943365Y-82465453D01*
X54930856Y-82824914D01*
X54911361Y-83072861D01*
X54883735Y-83228554D01*
X54846835Y-83311252D01*
X54833831Y-83324670D01*
X54666596Y-83396142D01*
X54528667Y-83426474D01*
X54528667Y-82972748D01*
X54528667Y-81379371D01*
X54524611Y-80858909D01*
X54513250Y-80409332D01*
X54495795Y-80055665D01*
X54473453Y-79822937D01*
X54449275Y-79736926D01*
X54337827Y-79706092D01*
X54095552Y-79659619D01*
X53759493Y-79604095D01*
X53412108Y-79552485D01*
X52783640Y-79490536D01*
X52056051Y-79462245D01*
X51286137Y-79466497D01*
X50530692Y-79502179D01*
X49846514Y-79568176D01*
X49448667Y-79630237D01*
X48898333Y-79734859D01*
X48875366Y-81356143D01*
X48852399Y-82977426D01*
X49425699Y-83068198D01*
X49761613Y-83120928D01*
X50066424Y-83168002D01*
X50253000Y-83196091D01*
X50493169Y-83213739D01*
X50864525Y-83220161D01*
X51329383Y-83216617D01*
X51850057Y-83204364D01*
X52388862Y-83184660D01*
X52908112Y-83158761D01*
X53370122Y-83127926D01*
X53737206Y-83093412D01*
X53872500Y-83075306D01*
X54528667Y-82972748D01*
X54528667Y-83426474D01*
X54357275Y-83464166D01*
X53933113Y-83526037D01*
X53421356Y-83579051D01*
X52849249Y-83620504D01*
X52244039Y-83647692D01*
X51632969Y-83657910D01*
X51480667Y-83657483D01*
X50995669Y-83652260D01*
X50556889Y-83644201D01*
X50198154Y-83634183D01*
X49953292Y-83623080D01*
X49872000Y-83615816D01*
X49365428Y-83532236D01*
X48957639Y-83449708D01*
X48672462Y-83373632D01*
X48538500Y-83313674D01*
X48501465Y-83235849D01*
X48473306Y-83060790D01*
X48453198Y-82773075D01*
X48440317Y-82357284D01*
X48433837Y-81797996D01*
X48432667Y-81334945D01*
X48433618Y-80718599D01*
X48437577Y-80250164D01*
X48446200Y-79908224D01*
X48461144Y-79671362D01*
X48484066Y-79518160D01*
X48516622Y-79427203D01*
X48560468Y-79377073D01*
X48585312Y-79361597D01*
X48851200Y-79268179D01*
X49256761Y-79188175D01*
X49772773Y-79122830D01*
X50370015Y-79073389D01*
X51019264Y-79041099D01*
X51691298Y-79027204D01*
X52356896Y-79032950D01*
X52986834Y-79059582D01*
X53551891Y-79108346D01*
X53790193Y-79139783D01*
X54155658Y-79191423D01*
X54435762Y-79236352D01*
X54641766Y-79295847D01*
X54784929Y-79391182D01*
X54876512Y-79543632D01*
X54927775Y-79774471D01*
X54949977Y-80104975D01*
X54954378Y-80556418D01*
X54954378Y-80556418D01*
G36*
X51992670Y-81701396D02*
X51945189Y-82084950D01*
X51780447Y-82434481D01*
X51506161Y-82703811D01*
X51364903Y-82777168D01*
X51176567Y-82827105D01*
X50905715Y-82858878D01*
X50516911Y-82877742D01*
X50295333Y-82883393D01*
X49898939Y-82887691D01*
X49560647Y-82883729D01*
X49318870Y-82872450D01*
X49215833Y-82856953D01*
X49126971Y-82739885D01*
X49118884Y-82561760D01*
X49186694Y-82407596D01*
X49243925Y-82367391D01*
X49382727Y-82345378D01*
X49646799Y-82328077D01*
X49992093Y-82317813D01*
X50217591Y-82316000D01*
X50699135Y-82300429D01*
X51035671Y-82246481D01*
X51249272Y-82143299D01*
X51362013Y-81980028D01*
X51395967Y-81745811D01*
X51396000Y-81736455D01*
X51329502Y-81472492D01*
X51124858Y-81285644D01*
X50774342Y-81170320D01*
X50572924Y-81140904D01*
X50297361Y-81105063D01*
X50150693Y-81059056D01*
X50092873Y-80981255D01*
X50083667Y-80876666D01*
X50094631Y-80762268D01*
X50152964Y-80695955D01*
X50296824Y-80661166D01*
X50564369Y-80641341D01*
X50634000Y-80637817D01*
X51050280Y-80641844D01*
X51349980Y-80706245D01*
X51444279Y-80748786D01*
X51740942Y-80993094D01*
X51924163Y-81324037D01*
X51992670Y-81701396D01*
X51992670Y-81701396D01*
X51992670Y-81701396D01*
G37*
X51992670Y-81701396D02*
X51945189Y-82084950D01*
X51780447Y-82434481D01*
X51506161Y-82703811D01*
X51364903Y-82777168D01*
X51176567Y-82827105D01*
X50905715Y-82858878D01*
X50516911Y-82877742D01*
X50295333Y-82883393D01*
X49898939Y-82887691D01*
X49560647Y-82883729D01*
X49318870Y-82872450D01*
X49215833Y-82856953D01*
X49126971Y-82739885D01*
X49118884Y-82561760D01*
X49186694Y-82407596D01*
X49243925Y-82367391D01*
X49382727Y-82345378D01*
X49646799Y-82328077D01*
X49992093Y-82317813D01*
X50217591Y-82316000D01*
X50699135Y-82300429D01*
X51035671Y-82246481D01*
X51249272Y-82143299D01*
X51362013Y-81980028D01*
X51395967Y-81745811D01*
X51396000Y-81736455D01*
X51329502Y-81472492D01*
X51124858Y-81285644D01*
X50774342Y-81170320D01*
X50572924Y-81140904D01*
X50297361Y-81105063D01*
X50150693Y-81059056D01*
X50092873Y-80981255D01*
X50083667Y-80876666D01*
X50094631Y-80762268D01*
X50152964Y-80695955D01*
X50296824Y-80661166D01*
X50564369Y-80641341D01*
X50634000Y-80637817D01*
X51050280Y-80641844D01*
X51349980Y-80706245D01*
X51444279Y-80748786D01*
X51740942Y-80993094D01*
X51924163Y-81324037D01*
X51992670Y-81701396D01*
X51992670Y-81701396D01*
G36*
X54189068Y-81792399D02*
X54169138Y-82315157D01*
X54108339Y-82678069D01*
X54007294Y-82879846D01*
X53866624Y-82919203D01*
X53698933Y-82807066D01*
X53645682Y-82661488D01*
X53611686Y-82354882D01*
X53597676Y-81894537D01*
X53597333Y-81795050D01*
X53588764Y-81397735D01*
X53565630Y-81045407D01*
X53531790Y-80783877D01*
X53503241Y-80678124D01*
X53359675Y-80508654D01*
X53125328Y-80361565D01*
X53079908Y-80342284D01*
X52858838Y-80231786D01*
X52764007Y-80105972D01*
X52750667Y-80000685D01*
X52814639Y-79824243D01*
X52982569Y-79740667D01*
X53218475Y-79747481D01*
X53486374Y-79842205D01*
X53750284Y-80022361D01*
X53804278Y-80073255D01*
X53955560Y-80249985D01*
X54062216Y-80449797D01*
X54131517Y-80705186D01*
X54170737Y-81048649D01*
X54187149Y-81512682D01*
X54189068Y-81792399D01*
X54189068Y-81792399D01*
X54189068Y-81792399D01*
G37*
X54189068Y-81792399D02*
X54169138Y-82315157D01*
X54108339Y-82678069D01*
X54007294Y-82879846D01*
X53866624Y-82919203D01*
X53698933Y-82807066D01*
X53645682Y-82661488D01*
X53611686Y-82354882D01*
X53597676Y-81894537D01*
X53597333Y-81795050D01*
X53588764Y-81397735D01*
X53565630Y-81045407D01*
X53531790Y-80783877D01*
X53503241Y-80678124D01*
X53359675Y-80508654D01*
X53125328Y-80361565D01*
X53079908Y-80342284D01*
X52858838Y-80231786D01*
X52764007Y-80105972D01*
X52750667Y-80000685D01*
X52814639Y-79824243D01*
X52982569Y-79740667D01*
X53218475Y-79747481D01*
X53486374Y-79842205D01*
X53750284Y-80022361D01*
X53804278Y-80073255D01*
X53955560Y-80249985D01*
X54062216Y-80449797D01*
X54131517Y-80705186D01*
X54170737Y-81048649D01*
X54187149Y-81512682D01*
X54189068Y-81792399D01*
X54189068Y-81792399D01*
G36*
X52845199Y-81426520D02*
X52821174Y-81723519D01*
X52769217Y-81933327D01*
X52708333Y-82007951D01*
X52516305Y-82038023D01*
X52395857Y-81941621D01*
X52337111Y-81704874D01*
X52327333Y-81472909D01*
X52292254Y-80977412D01*
X52184985Y-80627937D01*
X52002479Y-80415931D01*
X51938135Y-80380336D01*
X51760694Y-80337401D01*
X51465586Y-80304319D01*
X51104408Y-80286058D01*
X50937767Y-80284000D01*
X50546142Y-80289548D01*
X50281346Y-80311080D01*
X50101098Y-80355927D01*
X49963114Y-80431422D01*
X49925751Y-80459478D01*
X49746754Y-80688739D01*
X49709202Y-80951950D01*
X49816386Y-81198950D01*
X49873312Y-81258854D01*
X50096206Y-81373454D01*
X50445642Y-81444508D01*
X50529479Y-81452644D01*
X50893848Y-81509077D01*
X51094648Y-81606606D01*
X51132808Y-81746155D01*
X51009257Y-81928647D01*
X51008952Y-81928952D01*
X50811853Y-82026949D01*
X50489223Y-82044715D01*
X50029121Y-81982860D01*
X50012751Y-81979719D01*
X49633002Y-81833080D01*
X49354556Y-81581501D01*
X49181496Y-81258686D01*
X49117901Y-80898335D01*
X49167854Y-80534151D01*
X49335435Y-80199837D01*
X49624726Y-79929094D01*
X49755528Y-79855569D01*
X49938860Y-79776187D01*
X50122289Y-79725824D01*
X50347337Y-79699875D01*
X50655528Y-79693734D01*
X51088384Y-79702796D01*
X51123491Y-79703852D01*
X51616486Y-79726266D01*
X51974435Y-79766823D01*
X52231523Y-79837716D01*
X52421932Y-79951137D01*
X52579845Y-80119277D01*
X52677625Y-80258171D01*
X52757505Y-80458154D01*
X52812582Y-80749259D01*
X52842074Y-81086907D01*
X52845199Y-81426520D01*
X52845199Y-81426520D01*
X52845199Y-81426520D01*
G37*
X52845199Y-81426520D02*
X52821174Y-81723519D01*
X52769217Y-81933327D01*
X52708333Y-82007951D01*
X52516305Y-82038023D01*
X52395857Y-81941621D01*
X52337111Y-81704874D01*
X52327333Y-81472909D01*
X52292254Y-80977412D01*
X52184985Y-80627937D01*
X52002479Y-80415931D01*
X51938135Y-80380336D01*
X51760694Y-80337401D01*
X51465586Y-80304319D01*
X51104408Y-80286058D01*
X50937767Y-80284000D01*
X50546142Y-80289548D01*
X50281346Y-80311080D01*
X50101098Y-80355927D01*
X49963114Y-80431422D01*
X49925751Y-80459478D01*
X49746754Y-80688739D01*
X49709202Y-80951950D01*
X49816386Y-81198950D01*
X49873312Y-81258854D01*
X50096206Y-81373454D01*
X50445642Y-81444508D01*
X50529479Y-81452644D01*
X50893848Y-81509077D01*
X51094648Y-81606606D01*
X51132808Y-81746155D01*
X51009257Y-81928647D01*
X51008952Y-81928952D01*
X50811853Y-82026949D01*
X50489223Y-82044715D01*
X50029121Y-81982860D01*
X50012751Y-81979719D01*
X49633002Y-81833080D01*
X49354556Y-81581501D01*
X49181496Y-81258686D01*
X49117901Y-80898335D01*
X49167854Y-80534151D01*
X49335435Y-80199837D01*
X49624726Y-79929094D01*
X49755528Y-79855569D01*
X49938860Y-79776187D01*
X50122289Y-79725824D01*
X50347337Y-79699875D01*
X50655528Y-79693734D01*
X51088384Y-79702796D01*
X51123491Y-79703852D01*
X51616486Y-79726266D01*
X51974435Y-79766823D01*
X52231523Y-79837716D01*
X52421932Y-79951137D01*
X52579845Y-80119277D01*
X52677625Y-80258171D01*
X52757505Y-80458154D01*
X52812582Y-80749259D01*
X52842074Y-81086907D01*
X52845199Y-81426520D01*
X52845199Y-81426520D01*
D18*
G36*
X107711391Y-104152937D02*
X107967102Y-104153434D01*
X108193137Y-104154298D01*
X108388686Y-104155524D01*
X108552937Y-104157107D01*
X108685079Y-104159043D01*
X108784302Y-104161325D01*
X108849793Y-104163950D01*
X108879314Y-104166617D01*
X108951788Y-104185817D01*
X109030649Y-104215189D01*
X109068910Y-104233057D01*
X109093480Y-104250316D01*
X109142714Y-104288967D01*
X109214613Y-104347301D01*
X109307180Y-104423608D01*
X109418415Y-104516178D01*
X109546320Y-104623304D01*
X109688899Y-104743274D01*
X109844152Y-104874380D01*
X110010081Y-105014913D01*
X110184688Y-105163163D01*
X110365974Y-105317420D01*
X110551943Y-105475975D01*
X110740595Y-105637119D01*
X110929932Y-105799143D01*
X111117956Y-105960336D01*
X111302670Y-106118990D01*
X111482074Y-106273396D01*
X111654170Y-106421843D01*
X111816961Y-106562623D01*
X111968448Y-106694026D01*
X112106633Y-106814342D01*
X112229518Y-106921863D01*
X112335104Y-107014879D01*
X112421394Y-107091681D01*
X112486389Y-107150558D01*
X112528091Y-107189802D01*
X112541779Y-107203994D01*
X112557870Y-107222168D01*
X112572409Y-107238405D01*
X112585473Y-107254491D01*
X112597141Y-107272212D01*
X112607493Y-107293355D01*
X112616605Y-107319704D01*
X112624557Y-107353048D01*
X112631428Y-107395170D01*
X112637296Y-107447857D01*
X112642239Y-107512896D01*
X112646336Y-107592072D01*
X112649667Y-107687171D01*
X112652308Y-107799979D01*
X112654340Y-107932283D01*
X112655840Y-108085867D01*
X112656887Y-108262519D01*
X112657559Y-108464024D01*
X112657936Y-108692168D01*
X112658096Y-108948738D01*
X112658117Y-109235518D01*
X112658077Y-109554295D01*
X112658056Y-109846945D01*
X112658019Y-110190331D01*
X112657896Y-110500202D01*
X112657667Y-110778318D01*
X112657315Y-111026440D01*
X112656818Y-111246332D01*
X112656160Y-111439754D01*
X112655320Y-111608467D01*
X112654279Y-111754234D01*
X112653019Y-111878816D01*
X112651520Y-111983974D01*
X112649763Y-112071470D01*
X112647730Y-112143066D01*
X112645401Y-112200523D01*
X112642757Y-112245603D01*
X112639779Y-112280068D01*
X112636448Y-112305678D01*
X112632745Y-112324196D01*
X112631210Y-112329828D01*
X112587188Y-112424902D01*
X112515305Y-112518163D01*
X112422531Y-112602193D01*
X112315833Y-112669573D01*
X112308680Y-112673151D01*
X112191372Y-112730903D01*
X108513290Y-112734218D01*
X108076803Y-112734577D01*
X107674294Y-112734833D01*
X107304467Y-112734979D01*
X106966024Y-112735007D01*
X106657665Y-112734911D01*
X106378094Y-112734684D01*
X106126011Y-112734319D01*
X105900120Y-112733808D01*
X105699121Y-112733146D01*
X105521717Y-112732324D01*
X105366609Y-112731337D01*
X105232499Y-112730178D01*
X105118090Y-112728838D01*
X105022083Y-112727312D01*
X104943180Y-112725593D01*
X104880083Y-112723673D01*
X104831494Y-112721545D01*
X104796114Y-112719204D01*
X104772646Y-112716641D01*
X104760879Y-112714218D01*
X104643838Y-112663827D01*
X104536040Y-112591742D01*
X104444298Y-112504249D01*
X104375426Y-112407633D01*
X104341070Y-112326959D01*
X104338039Y-112313465D01*
X104335253Y-112293774D01*
X104332704Y-112266511D01*
X104330384Y-112230303D01*
X104328286Y-112183775D01*
X104326401Y-112125553D01*
X104324722Y-112054264D01*
X104323242Y-111968532D01*
X104321952Y-111866985D01*
X104320845Y-111748247D01*
X104319913Y-111610944D01*
X104319149Y-111453703D01*
X104318544Y-111275150D01*
X104318092Y-111073910D01*
X104317784Y-110848608D01*
X104317613Y-110597872D01*
X104317570Y-110320326D01*
X104317650Y-110014598D01*
X104317842Y-109679311D01*
X104318141Y-109313093D01*
X104318538Y-108914570D01*
X104319025Y-108482366D01*
X104319112Y-108408726D01*
X104323544Y-104696389D01*
X104949861Y-104696389D01*
X104949861Y-112192917D01*
X112023056Y-112192917D01*
X112023056Y-107455610D01*
X111903993Y-107358239D01*
X111871842Y-107331299D01*
X111815355Y-107283235D01*
X111736847Y-107216037D01*
X111638629Y-107131699D01*
X111523014Y-107032213D01*
X111392317Y-106919570D01*
X111248848Y-106795763D01*
X111094921Y-106662785D01*
X110932850Y-106522627D01*
X110764946Y-106377281D01*
X110726597Y-106344064D01*
X110547845Y-106189224D01*
X110367135Y-106032703D01*
X110187691Y-105877291D01*
X110012734Y-105725779D01*
X109845486Y-105580956D01*
X109689169Y-105445611D01*
X109547005Y-105322536D01*
X109422217Y-105214519D01*
X109318025Y-105124350D01*
X109245752Y-105061825D01*
X108823240Y-104696389D01*
X104949861Y-104696389D01*
X104323544Y-104696389D01*
X104323681Y-104581736D01*
X104373263Y-104480767D01*
X104448633Y-104367026D01*
X104553603Y-104271665D01*
X104667639Y-104204712D01*
X104764653Y-104158403D01*
X106774318Y-104153698D01*
X107114189Y-104153064D01*
X107426817Y-104152812D01*
X107711391Y-104152937D01*
X107711391Y-104152937D01*
G37*
X107711391Y-104152937D02*
X107967102Y-104153434D01*
X108193137Y-104154298D01*
X108388686Y-104155524D01*
X108552937Y-104157107D01*
X108685079Y-104159043D01*
X108784302Y-104161325D01*
X108849793Y-104163950D01*
X108879314Y-104166617D01*
X108951788Y-104185817D01*
X109030649Y-104215189D01*
X109068910Y-104233057D01*
X109093480Y-104250316D01*
X109142714Y-104288967D01*
X109214613Y-104347301D01*
X109307180Y-104423608D01*
X109418415Y-104516178D01*
X109546320Y-104623304D01*
X109688899Y-104743274D01*
X109844152Y-104874380D01*
X110010081Y-105014913D01*
X110184688Y-105163163D01*
X110365974Y-105317420D01*
X110551943Y-105475975D01*
X110740595Y-105637119D01*
X110929932Y-105799143D01*
X111117956Y-105960336D01*
X111302670Y-106118990D01*
X111482074Y-106273396D01*
X111654170Y-106421843D01*
X111816961Y-106562623D01*
X111968448Y-106694026D01*
X112106633Y-106814342D01*
X112229518Y-106921863D01*
X112335104Y-107014879D01*
X112421394Y-107091681D01*
X112486389Y-107150558D01*
X112528091Y-107189802D01*
X112541779Y-107203994D01*
X112557870Y-107222168D01*
X112572409Y-107238405D01*
X112585473Y-107254491D01*
X112597141Y-107272212D01*
X112607493Y-107293355D01*
X112616605Y-107319704D01*
X112624557Y-107353048D01*
X112631428Y-107395170D01*
X112637296Y-107447857D01*
X112642239Y-107512896D01*
X112646336Y-107592072D01*
X112649667Y-107687171D01*
X112652308Y-107799979D01*
X112654340Y-107932283D01*
X112655840Y-108085867D01*
X112656887Y-108262519D01*
X112657559Y-108464024D01*
X112657936Y-108692168D01*
X112658096Y-108948738D01*
X112658117Y-109235518D01*
X112658077Y-109554295D01*
X112658056Y-109846945D01*
X112658019Y-110190331D01*
X112657896Y-110500202D01*
X112657667Y-110778318D01*
X112657315Y-111026440D01*
X112656818Y-111246332D01*
X112656160Y-111439754D01*
X112655320Y-111608467D01*
X112654279Y-111754234D01*
X112653019Y-111878816D01*
X112651520Y-111983974D01*
X112649763Y-112071470D01*
X112647730Y-112143066D01*
X112645401Y-112200523D01*
X112642757Y-112245603D01*
X112639779Y-112280068D01*
X112636448Y-112305678D01*
X112632745Y-112324196D01*
X112631210Y-112329828D01*
X112587188Y-112424902D01*
X112515305Y-112518163D01*
X112422531Y-112602193D01*
X112315833Y-112669573D01*
X112308680Y-112673151D01*
X112191372Y-112730903D01*
X108513290Y-112734218D01*
X108076803Y-112734577D01*
X107674294Y-112734833D01*
X107304467Y-112734979D01*
X106966024Y-112735007D01*
X106657665Y-112734911D01*
X106378094Y-112734684D01*
X106126011Y-112734319D01*
X105900120Y-112733808D01*
X105699121Y-112733146D01*
X105521717Y-112732324D01*
X105366609Y-112731337D01*
X105232499Y-112730178D01*
X105118090Y-112728838D01*
X105022083Y-112727312D01*
X104943180Y-112725593D01*
X104880083Y-112723673D01*
X104831494Y-112721545D01*
X104796114Y-112719204D01*
X104772646Y-112716641D01*
X104760879Y-112714218D01*
X104643838Y-112663827D01*
X104536040Y-112591742D01*
X104444298Y-112504249D01*
X104375426Y-112407633D01*
X104341070Y-112326959D01*
X104338039Y-112313465D01*
X104335253Y-112293774D01*
X104332704Y-112266511D01*
X104330384Y-112230303D01*
X104328286Y-112183775D01*
X104326401Y-112125553D01*
X104324722Y-112054264D01*
X104323242Y-111968532D01*
X104321952Y-111866985D01*
X104320845Y-111748247D01*
X104319913Y-111610944D01*
X104319149Y-111453703D01*
X104318544Y-111275150D01*
X104318092Y-111073910D01*
X104317784Y-110848608D01*
X104317613Y-110597872D01*
X104317570Y-110320326D01*
X104317650Y-110014598D01*
X104317842Y-109679311D01*
X104318141Y-109313093D01*
X104318538Y-108914570D01*
X104319025Y-108482366D01*
X104319112Y-108408726D01*
X104323544Y-104696389D01*
X104949861Y-104696389D01*
X104949861Y-112192917D01*
X112023056Y-112192917D01*
X112023056Y-107455610D01*
X111903993Y-107358239D01*
X111871842Y-107331299D01*
X111815355Y-107283235D01*
X111736847Y-107216037D01*
X111638629Y-107131699D01*
X111523014Y-107032213D01*
X111392317Y-106919570D01*
X111248848Y-106795763D01*
X111094921Y-106662785D01*
X110932850Y-106522627D01*
X110764946Y-106377281D01*
X110726597Y-106344064D01*
X110547845Y-106189224D01*
X110367135Y-106032703D01*
X110187691Y-105877291D01*
X110012734Y-105725779D01*
X109845486Y-105580956D01*
X109689169Y-105445611D01*
X109547005Y-105322536D01*
X109422217Y-105214519D01*
X109318025Y-105124350D01*
X109245752Y-105061825D01*
X108823240Y-104696389D01*
X104949861Y-104696389D01*
X104323544Y-104696389D01*
X104323681Y-104581736D01*
X104373263Y-104480767D01*
X104448633Y-104367026D01*
X104553603Y-104271665D01*
X104667639Y-104204712D01*
X104764653Y-104158403D01*
X106774318Y-104153698D01*
X107114189Y-104153064D01*
X107426817Y-104152812D01*
X107711391Y-104152937D01*
G36*
X111026852Y-104152139D02*
X111219999Y-104152818D01*
X111391594Y-104153579D01*
X111608675Y-104154650D01*
X111793321Y-104155730D01*
X111948373Y-104156920D01*
X112076673Y-104158317D01*
X112181063Y-104160021D01*
X112264385Y-104162131D01*
X112329482Y-104164746D01*
X112379195Y-104167965D01*
X112416366Y-104171888D01*
X112443836Y-104176612D01*
X112464449Y-104182237D01*
X112481046Y-104188863D01*
X112487072Y-104191753D01*
X112542492Y-104228717D01*
X112593621Y-104277406D01*
X112601725Y-104287378D01*
X112649236Y-104349653D01*
X112654130Y-105210346D01*
X112655292Y-105417132D01*
X112655999Y-105591651D01*
X112655896Y-105736916D01*
X112654631Y-105855938D01*
X112651852Y-105951728D01*
X112647205Y-106027299D01*
X112640337Y-106085661D01*
X112630896Y-106129826D01*
X112618529Y-106162806D01*
X112602883Y-106187613D01*
X112583604Y-106207257D01*
X112560341Y-106224751D01*
X112533153Y-106242832D01*
X112459205Y-106277397D01*
X112371189Y-106297227D01*
X112281042Y-106301475D01*
X112200702Y-106289292D01*
X112155347Y-106269690D01*
X112128572Y-106249593D01*
X112078402Y-106208898D01*
X112007484Y-106149898D01*
X111918463Y-106074885D01*
X111813986Y-105986153D01*
X111696698Y-105885994D01*
X111569246Y-105776701D01*
X111434275Y-105660566D01*
X111294431Y-105539883D01*
X111152362Y-105416943D01*
X111010711Y-105294039D01*
X110872127Y-105173465D01*
X110739253Y-105057513D01*
X110614738Y-104948475D01*
X110501226Y-104848645D01*
X110401363Y-104760315D01*
X110317796Y-104685777D01*
X110253171Y-104627325D01*
X110210133Y-104587251D01*
X110191460Y-104568032D01*
X110166625Y-104526388D01*
X110156118Y-104482553D01*
X110156530Y-104421161D01*
X110157072Y-104413013D01*
X110177559Y-104312037D01*
X110223614Y-104234985D01*
X110295878Y-104180817D01*
X110302045Y-104177802D01*
X110317724Y-104171649D01*
X110338573Y-104166458D01*
X110367386Y-104162168D01*
X110406958Y-104158716D01*
X110460084Y-104156041D01*
X110529559Y-104154081D01*
X110618179Y-104152772D01*
X110728738Y-104152054D01*
X110864030Y-104151864D01*
X111026852Y-104152139D01*
X111026852Y-104152139D01*
G37*
X111026852Y-104152139D02*
X111219999Y-104152818D01*
X111391594Y-104153579D01*
X111608675Y-104154650D01*
X111793321Y-104155730D01*
X111948373Y-104156920D01*
X112076673Y-104158317D01*
X112181063Y-104160021D01*
X112264385Y-104162131D01*
X112329482Y-104164746D01*
X112379195Y-104167965D01*
X112416366Y-104171888D01*
X112443836Y-104176612D01*
X112464449Y-104182237D01*
X112481046Y-104188863D01*
X112487072Y-104191753D01*
X112542492Y-104228717D01*
X112593621Y-104277406D01*
X112601725Y-104287378D01*
X112649236Y-104349653D01*
X112654130Y-105210346D01*
X112655292Y-105417132D01*
X112655999Y-105591651D01*
X112655896Y-105736916D01*
X112654631Y-105855938D01*
X112651852Y-105951728D01*
X112647205Y-106027299D01*
X112640337Y-106085661D01*
X112630896Y-106129826D01*
X112618529Y-106162806D01*
X112602883Y-106187613D01*
X112583604Y-106207257D01*
X112560341Y-106224751D01*
X112533153Y-106242832D01*
X112459205Y-106277397D01*
X112371189Y-106297227D01*
X112281042Y-106301475D01*
X112200702Y-106289292D01*
X112155347Y-106269690D01*
X112128572Y-106249593D01*
X112078402Y-106208898D01*
X112007484Y-106149898D01*
X111918463Y-106074885D01*
X111813986Y-105986153D01*
X111696698Y-105885994D01*
X111569246Y-105776701D01*
X111434275Y-105660566D01*
X111294431Y-105539883D01*
X111152362Y-105416943D01*
X111010711Y-105294039D01*
X110872127Y-105173465D01*
X110739253Y-105057513D01*
X110614738Y-104948475D01*
X110501226Y-104848645D01*
X110401363Y-104760315D01*
X110317796Y-104685777D01*
X110253171Y-104627325D01*
X110210133Y-104587251D01*
X110191460Y-104568032D01*
X110166625Y-104526388D01*
X110156118Y-104482553D01*
X110156530Y-104421161D01*
X110157072Y-104413013D01*
X110177559Y-104312037D01*
X110223614Y-104234985D01*
X110295878Y-104180817D01*
X110302045Y-104177802D01*
X110317724Y-104171649D01*
X110338573Y-104166458D01*
X110367386Y-104162168D01*
X110406958Y-104158716D01*
X110460084Y-104156041D01*
X110529559Y-104154081D01*
X110618179Y-104152772D01*
X110728738Y-104152054D01*
X110864030Y-104151864D01*
X111026852Y-104152139D01*
G36*
X111615969Y-110221771D02*
X111614218Y-110280113D01*
X111610853Y-110318187D01*
X111606541Y-110329133D01*
X111605679Y-110327604D01*
X111596789Y-110322953D01*
X111572723Y-110318957D01*
X111531344Y-110315575D01*
X111470513Y-110312765D01*
X111388093Y-110310486D01*
X111281946Y-110308695D01*
X111149934Y-110307350D01*
X110989919Y-110306410D01*
X110799764Y-110305833D01*
X110577331Y-110305577D01*
X110478183Y-110305556D01*
X109359583Y-110305556D01*
X109359583Y-111505000D01*
X109147917Y-111505000D01*
X109147917Y-110093889D01*
X111617361Y-110093889D01*
X111615969Y-110221771D01*
X111615969Y-110221771D01*
G37*
X111615969Y-110221771D02*
X111614218Y-110280113D01*
X111610853Y-110318187D01*
X111606541Y-110329133D01*
X111605679Y-110327604D01*
X111596789Y-110322953D01*
X111572723Y-110318957D01*
X111531344Y-110315575D01*
X111470513Y-110312765D01*
X111388093Y-110310486D01*
X111281946Y-110308695D01*
X111149934Y-110307350D01*
X110989919Y-110306410D01*
X110799764Y-110305833D01*
X110577331Y-110305577D01*
X110478183Y-110305556D01*
X109359583Y-110305556D01*
X109359583Y-111505000D01*
X109147917Y-111505000D01*
X109147917Y-110093889D01*
X111617361Y-110093889D01*
X111615969Y-110221771D01*
G36*
X111582083Y-111469722D02*
X110911806Y-111469722D01*
X110911806Y-111099306D01*
X111582083Y-111099306D01*
X111582083Y-111469722D01*
X111582083Y-111469722D01*
G37*
X111582083Y-111469722D02*
X110911806Y-111469722D01*
X110911806Y-111099306D01*
X111582083Y-111099306D01*
X111582083Y-111469722D01*
G36*
X107772083Y-106319167D02*
X108124861Y-106319167D01*
X108124861Y-107959583D01*
X107754445Y-107959583D01*
X107754445Y-108347639D01*
X109447778Y-108347639D01*
X109447778Y-107980241D01*
X110272396Y-107973704D01*
X110440134Y-107972597D01*
X110597380Y-107971988D01*
X110740554Y-107971859D01*
X110866072Y-107972195D01*
X110970355Y-107972978D01*
X111049820Y-107974191D01*
X111100887Y-107975819D01*
X111119710Y-107977668D01*
X111140117Y-107992680D01*
X111180794Y-108026817D01*
X111237059Y-108075826D01*
X111304232Y-108135454D01*
X111377630Y-108201447D01*
X111452574Y-108269551D01*
X111524380Y-108335513D01*
X111588368Y-108395078D01*
X111639858Y-108443993D01*
X111674166Y-108478004D01*
X111686609Y-108492784D01*
X111674300Y-108507676D01*
X111639143Y-108542050D01*
X111584995Y-108592340D01*
X111515718Y-108654983D01*
X111435170Y-108726413D01*
X111404884Y-108752958D01*
X111121851Y-109000278D01*
X110631609Y-109000278D01*
X110479259Y-108999805D01*
X110316485Y-108998477D01*
X110153173Y-108996433D01*
X109999206Y-108993808D01*
X109864469Y-108990740D01*
X109794573Y-108988663D01*
X109447778Y-108977049D01*
X109447778Y-108700417D01*
X107749531Y-108700417D01*
X107762400Y-108793021D01*
X107769007Y-108839099D01*
X107773124Y-108877570D01*
X107772435Y-108911618D01*
X107764626Y-108944422D01*
X107747381Y-108979164D01*
X107718386Y-109019026D01*
X107675324Y-109067189D01*
X107615881Y-109126834D01*
X107537741Y-109201143D01*
X107438589Y-109293297D01*
X107316109Y-109406479D01*
X107315640Y-109406913D01*
X107114960Y-109592482D01*
X107426439Y-109880663D01*
X107514691Y-109963007D01*
X107594767Y-110039042D01*
X107662820Y-110105006D01*
X107714998Y-110157137D01*
X107747451Y-110191671D01*
X107756115Y-110202843D01*
X107762051Y-110232107D01*
X107766794Y-110293593D01*
X107770236Y-110384261D01*
X107772267Y-110501072D01*
X107772779Y-110640985D01*
X107772703Y-110668075D01*
X107771094Y-111099306D01*
X108142500Y-111099306D01*
X108142500Y-111434445D01*
X107119445Y-111434445D01*
X107119445Y-111099306D01*
X107454583Y-111099306D01*
X107453673Y-110733299D01*
X107452762Y-110367292D01*
X107272874Y-110205089D01*
X107092986Y-110042885D01*
X107087980Y-110227137D01*
X107082973Y-110411389D01*
X106731389Y-110411389D01*
X106731389Y-109723472D01*
X105443750Y-109723472D01*
X105443750Y-109370695D01*
X106731389Y-109370695D01*
X106731389Y-108700417D01*
X107083113Y-108700417D01*
X107088049Y-108921327D01*
X107092986Y-109142238D01*
X107255274Y-108996293D01*
X107417562Y-108850347D01*
X107417993Y-108629861D01*
X109800556Y-108629861D01*
X110395868Y-108629335D01*
X110991181Y-108628808D01*
X111149931Y-108488344D01*
X111061736Y-108409535D01*
X110973542Y-108330726D01*
X109800556Y-108330000D01*
X109800556Y-108629861D01*
X107417993Y-108629861D01*
X107419306Y-107959583D01*
X107101806Y-107959583D01*
X107101806Y-106671945D01*
X107436945Y-106671945D01*
X107436945Y-107606806D01*
X107772083Y-107606806D01*
X107772083Y-106671945D01*
X107436945Y-106671945D01*
X107101806Y-106671945D01*
X107101806Y-106319167D01*
X107436945Y-106319167D01*
X107436945Y-105066806D01*
X107772083Y-105066806D01*
X107772083Y-106319167D01*
X107772083Y-106319167D01*
G37*
X107772083Y-106319167D02*
X108124861Y-106319167D01*
X108124861Y-107959583D01*
X107754445Y-107959583D01*
X107754445Y-108347639D01*
X109447778Y-108347639D01*
X109447778Y-107980241D01*
X110272396Y-107973704D01*
X110440134Y-107972597D01*
X110597380Y-107971988D01*
X110740554Y-107971859D01*
X110866072Y-107972195D01*
X110970355Y-107972978D01*
X111049820Y-107974191D01*
X111100887Y-107975819D01*
X111119710Y-107977668D01*
X111140117Y-107992680D01*
X111180794Y-108026817D01*
X111237059Y-108075826D01*
X111304232Y-108135454D01*
X111377630Y-108201447D01*
X111452574Y-108269551D01*
X111524380Y-108335513D01*
X111588368Y-108395078D01*
X111639858Y-108443993D01*
X111674166Y-108478004D01*
X111686609Y-108492784D01*
X111674300Y-108507676D01*
X111639143Y-108542050D01*
X111584995Y-108592340D01*
X111515718Y-108654983D01*
X111435170Y-108726413D01*
X111404884Y-108752958D01*
X111121851Y-109000278D01*
X110631609Y-109000278D01*
X110479259Y-108999805D01*
X110316485Y-108998477D01*
X110153173Y-108996433D01*
X109999206Y-108993808D01*
X109864469Y-108990740D01*
X109794573Y-108988663D01*
X109447778Y-108977049D01*
X109447778Y-108700417D01*
X107749531Y-108700417D01*
X107762400Y-108793021D01*
X107769007Y-108839099D01*
X107773124Y-108877570D01*
X107772435Y-108911618D01*
X107764626Y-108944422D01*
X107747381Y-108979164D01*
X107718386Y-109019026D01*
X107675324Y-109067189D01*
X107615881Y-109126834D01*
X107537741Y-109201143D01*
X107438589Y-109293297D01*
X107316109Y-109406479D01*
X107315640Y-109406913D01*
X107114960Y-109592482D01*
X107426439Y-109880663D01*
X107514691Y-109963007D01*
X107594767Y-110039042D01*
X107662820Y-110105006D01*
X107714998Y-110157137D01*
X107747451Y-110191671D01*
X107756115Y-110202843D01*
X107762051Y-110232107D01*
X107766794Y-110293593D01*
X107770236Y-110384261D01*
X107772267Y-110501072D01*
X107772779Y-110640985D01*
X107772703Y-110668075D01*
X107771094Y-111099306D01*
X108142500Y-111099306D01*
X108142500Y-111434445D01*
X107119445Y-111434445D01*
X107119445Y-111099306D01*
X107454583Y-111099306D01*
X107453673Y-110733299D01*
X107452762Y-110367292D01*
X107272874Y-110205089D01*
X107092986Y-110042885D01*
X107087980Y-110227137D01*
X107082973Y-110411389D01*
X106731389Y-110411389D01*
X106731389Y-109723472D01*
X105443750Y-109723472D01*
X105443750Y-109370695D01*
X106731389Y-109370695D01*
X106731389Y-108700417D01*
X107083113Y-108700417D01*
X107088049Y-108921327D01*
X107092986Y-109142238D01*
X107255274Y-108996293D01*
X107417562Y-108850347D01*
X107417993Y-108629861D01*
X109800556Y-108629861D01*
X110395868Y-108629335D01*
X110991181Y-108628808D01*
X111149931Y-108488344D01*
X111061736Y-108409535D01*
X110973542Y-108330726D01*
X109800556Y-108330000D01*
X109800556Y-108629861D01*
X107417993Y-108629861D01*
X107419306Y-107959583D01*
X107101806Y-107959583D01*
X107101806Y-106671945D01*
X107436945Y-106671945D01*
X107436945Y-107606806D01*
X107772083Y-107606806D01*
X107772083Y-106671945D01*
X107436945Y-106671945D01*
X107101806Y-106671945D01*
X107101806Y-106319167D01*
X107436945Y-106319167D01*
X107436945Y-105066806D01*
X107772083Y-105066806D01*
X107772083Y-106319167D01*
G36*
X110223889Y-111434445D02*
X109483056Y-111434445D01*
X109483056Y-111116945D01*
X110223889Y-111116945D01*
X110223889Y-111434445D01*
X110223889Y-111434445D01*
G37*
X110223889Y-111434445D02*
X109483056Y-111434445D01*
X109483056Y-111116945D01*
X110223889Y-111116945D01*
X110223889Y-111434445D01*
G36*
X111564445Y-110746528D02*
X110576667Y-110746528D01*
X110576667Y-110464306D01*
X111564445Y-110464306D01*
X111564445Y-110746528D01*
X111564445Y-110746528D01*
G37*
X111564445Y-110746528D02*
X110576667Y-110746528D01*
X110576667Y-110464306D01*
X111564445Y-110464306D01*
X111564445Y-110746528D01*
G36*
X109884340Y-110450669D02*
X110197431Y-110455486D01*
X110197431Y-110720070D01*
X109884340Y-110724886D01*
X109571250Y-110729703D01*
X109571250Y-110445853D01*
X109884340Y-110450669D01*
X109884340Y-110450669D01*
G37*
X109884340Y-110450669D02*
X110197431Y-110455486D01*
X110197431Y-110720070D01*
X109884340Y-110724886D01*
X109571250Y-110729703D01*
X109571250Y-110445853D01*
X109884340Y-110450669D01*
D16*
X51810000Y-64800000D02*
X51810000Y-62300000D01*
X56890000Y-64800000D02*
X56890000Y-62300000D01*
X61970000Y-64800000D02*
X61970000Y-62300000D01*
X63890000Y-62300000D02*
X63890000Y-61800000D01*
X63890000Y-61800000D02*
X49890000Y-61800000D01*
X49890000Y-61800000D02*
X49890000Y-62300000D01*
X64510000Y-71100000D02*
X49270000Y-71100000D01*
X49270000Y-71100000D02*
X49270000Y-61100000D01*
X49270000Y-61100000D02*
X64510000Y-61100000D01*
X64510000Y-61100000D02*
X64510000Y-71100000D01*
X67050000Y-64800000D02*
X67050000Y-62300000D01*
X72130000Y-64800000D02*
X72130000Y-62300000D01*
X77210000Y-64800000D02*
X77210000Y-62300000D01*
X79130000Y-62300000D02*
X79130000Y-61800000D01*
X79130000Y-61800000D02*
X65130000Y-61800000D01*
X65130000Y-61800000D02*
X65130000Y-62300000D01*
X79750000Y-71100000D02*
X64510000Y-71100000D01*
X64510000Y-71100000D02*
X64510000Y-61100000D01*
X64510000Y-61100000D02*
X79750000Y-61100000D01*
X79750000Y-61100000D02*
X79750000Y-71100000D01*
X82290000Y-64800000D02*
X82290000Y-62300000D01*
X87370000Y-64800000D02*
X87370000Y-62300000D01*
X92450000Y-64800000D02*
X92450000Y-62300000D01*
X94370000Y-62300000D02*
X94370000Y-61800000D01*
X94370000Y-61800000D02*
X80370000Y-61800000D01*
X80370000Y-61800000D02*
X80370000Y-62300000D01*
X94990000Y-71100000D02*
X79750000Y-71100000D01*
X79750000Y-71100000D02*
X79750000Y-61100000D01*
X79750000Y-61100000D02*
X94990000Y-61100000D01*
X94990000Y-61100000D02*
X94990000Y-71100000D01*
X109790000Y-63300000D02*
X100890000Y-63300000D01*
X100890000Y-63300000D02*
X100890000Y-63800000D01*
X102610000Y-64800000D02*
X102610000Y-63300000D01*
X107690000Y-64800000D02*
X107690000Y-63300000D01*
X109790000Y-63800000D02*
X109790000Y-63300000D01*
X110230000Y-70200000D02*
X100070000Y-70200000D01*
X100070000Y-70200000D02*
X100070000Y-62100000D01*
X100070000Y-62100000D02*
X110230000Y-62100000D01*
X110230000Y-62100000D02*
X110230000Y-70200000D01*
X49710000Y-142800000D02*
X58610000Y-142800000D01*
X58610000Y-142800000D02*
X58610000Y-142300000D01*
X56890000Y-141300000D02*
X56890000Y-142800000D01*
X51810000Y-141300000D02*
X51810000Y-142800000D01*
X49710000Y-142300000D02*
X49710000Y-142800000D01*
X49270000Y-135900000D02*
X59430000Y-135900000D01*
X59430000Y-135900000D02*
X59430000Y-144000000D01*
X59430000Y-144000000D02*
X49270000Y-144000000D01*
X49270000Y-144000000D02*
X49270000Y-135900000D01*
X64950000Y-142800000D02*
X73850000Y-142800000D01*
X73850000Y-142800000D02*
X73850000Y-142300000D01*
X72130000Y-141300000D02*
X72130000Y-142800000D01*
X67050000Y-141300000D02*
X67050000Y-142800000D01*
X64950000Y-142300000D02*
X64950000Y-142800000D01*
X64510000Y-135900000D02*
X74670000Y-135900000D01*
X74670000Y-135900000D02*
X74670000Y-144000000D01*
X74670000Y-144000000D02*
X64510000Y-144000000D01*
X64510000Y-144000000D02*
X64510000Y-135900000D01*
X80190000Y-142800000D02*
X89090000Y-142800000D01*
X89090000Y-142800000D02*
X89090000Y-142300000D01*
X87370000Y-141300000D02*
X87370000Y-142800000D01*
X82290000Y-141300000D02*
X82290000Y-142800000D01*
X80190000Y-142300000D02*
X80190000Y-142800000D01*
X79750000Y-135900000D02*
X89910000Y-135900000D01*
X89910000Y-135900000D02*
X89910000Y-144000000D01*
X89910000Y-144000000D02*
X79750000Y-144000000D01*
X79750000Y-144000000D02*
X79750000Y-135900000D01*
X100510000Y-142800000D02*
X109410000Y-142800000D01*
X109410000Y-142800000D02*
X109410000Y-142300000D01*
X107690000Y-141300000D02*
X107690000Y-142800000D01*
X102610000Y-141300000D02*
X102610000Y-142800000D01*
X100510000Y-142300000D02*
X100510000Y-142800000D01*
X100070000Y-135900000D02*
X110230000Y-135900000D01*
X110230000Y-135900000D02*
X110230000Y-144000000D01*
X110230000Y-144000000D02*
X100070000Y-144000000D01*
X100070000Y-144000000D02*
X100070000Y-135900000D01*
D17*
X109770000Y-77280000D02*
X109770000Y-74620000D01*
X107170000Y-77280000D02*
X109770000Y-77280000D01*
X107170000Y-74620000D02*
X109770000Y-74620000D01*
X107170000Y-77280000D02*
X107170000Y-74620000D01*
X105900000Y-77280000D02*
X104570000Y-77280000D01*
X104570000Y-77280000D02*
X104570000Y-75950000D01*
X57540000Y-86660000D02*
X56340000Y-86660000D01*
X56340000Y-84900000D02*
X57540000Y-84900000D01*
X72410000Y-86660000D02*
X71210000Y-86660000D01*
X71210000Y-84900000D02*
X72410000Y-84900000D01*
X87440000Y-86660000D02*
X86240000Y-86660000D01*
X86240000Y-84900000D02*
X87440000Y-84900000D01*
X109460000Y-96880000D02*
X110660000Y-96880000D01*
X110660000Y-98640000D02*
X109460000Y-98640000D01*
X100422000Y-102734000D02*
X99222000Y-102734000D01*
X99222000Y-100974000D02*
X100422000Y-100974000D01*
X109460000Y-91800000D02*
X110660000Y-91800000D01*
X110660000Y-93560000D02*
X109460000Y-93560000D01*
X55480000Y-94600000D02*
X55480000Y-95800000D01*
X53720000Y-95800000D02*
X53720000Y-94600000D01*
X70380000Y-94600000D02*
X70380000Y-95800000D01*
X68620000Y-95800000D02*
X68620000Y-94600000D01*
X85430000Y-94800000D02*
X85430000Y-96000000D01*
X83670000Y-96000000D02*
X83670000Y-94800000D01*
X96968000Y-96480000D02*
X96968000Y-86260000D01*
X96968000Y-86260000D02*
X102168000Y-86260000D01*
X102168000Y-86260000D02*
X102168000Y-99080000D01*
X102168000Y-99080000D02*
X99568000Y-99080000D01*
X99568000Y-99080000D02*
X99568000Y-96480000D01*
X99568000Y-96480000D02*
X96968000Y-96480000D01*
X96968000Y-97750000D02*
X96968000Y-99080000D01*
X96968000Y-99080000D02*
X98238000Y-99080000D01*
D13*
X54461858Y-98243714D02*
X54461858Y-97481714D01*
X54643286Y-97481714D01*
X54752143Y-97518000D01*
X54824715Y-97590571D01*
X54861000Y-97663143D01*
X54897286Y-97808286D01*
X54897286Y-97917143D01*
X54861000Y-98062286D01*
X54824715Y-98134857D01*
X54752143Y-98207429D01*
X54643286Y-98243714D01*
X54461858Y-98243714D01*
X55550429Y-97735714D02*
X55550429Y-98243714D01*
X55369000Y-97445429D02*
X55187572Y-97989714D01*
X55659286Y-97989714D01*
X56094714Y-97481714D02*
X56167286Y-97481714D01*
X56239857Y-97518000D01*
X56276143Y-97554286D01*
X56312429Y-97626857D01*
X56348714Y-97772000D01*
X56348714Y-97953429D01*
X56312429Y-98098571D01*
X56276143Y-98171143D01*
X56239857Y-98207429D01*
X56167286Y-98243714D01*
X56094714Y-98243714D01*
X56022143Y-98207429D01*
X55985857Y-98171143D01*
X55949572Y-98098571D01*
X55913286Y-97953429D01*
X55913286Y-97772000D01*
X55949572Y-97626857D01*
X55985857Y-97554286D01*
X56022143Y-97518000D01*
X56094714Y-97481714D01*
X57001857Y-97735714D02*
X57001857Y-98243714D01*
X56820428Y-97445429D02*
X56639000Y-97989714D01*
X57110714Y-97989714D01*
X69913458Y-98142914D02*
X69913458Y-97380914D01*
X70094886Y-97380914D01*
X70203743Y-97417200D01*
X70276315Y-97489771D01*
X70312600Y-97562343D01*
X70348886Y-97707486D01*
X70348886Y-97816343D01*
X70312600Y-97961486D01*
X70276315Y-98034057D01*
X70203743Y-98106629D01*
X70094886Y-98142914D01*
X69913458Y-98142914D01*
X71002029Y-97634914D02*
X71002029Y-98142914D01*
X70820600Y-97344629D02*
X70639172Y-97888914D01*
X71110886Y-97888914D01*
X71546314Y-97380914D02*
X71618886Y-97380914D01*
X71691457Y-97417200D01*
X71727743Y-97453486D01*
X71764029Y-97526057D01*
X71800314Y-97671200D01*
X71800314Y-97852629D01*
X71764029Y-97997771D01*
X71727743Y-98070343D01*
X71691457Y-98106629D01*
X71618886Y-98142914D01*
X71546314Y-98142914D01*
X71473743Y-98106629D01*
X71437457Y-98070343D01*
X71401172Y-97997771D01*
X71364886Y-97852629D01*
X71364886Y-97671200D01*
X71401172Y-97526057D01*
X71437457Y-97453486D01*
X71473743Y-97417200D01*
X71546314Y-97380914D01*
X72489743Y-97380914D02*
X72126886Y-97380914D01*
X72090600Y-97743771D01*
X72126886Y-97707486D01*
X72199457Y-97671200D01*
X72380886Y-97671200D01*
X72453457Y-97707486D01*
X72489743Y-97743771D01*
X72526028Y-97816343D01*
X72526028Y-97997771D01*
X72489743Y-98070343D01*
X72453457Y-98106629D01*
X72380886Y-98142914D01*
X72199457Y-98142914D01*
X72126886Y-98106629D01*
X72090600Y-98070343D01*
X84687258Y-98419914D02*
X84687258Y-97657914D01*
X84868686Y-97657914D01*
X84977543Y-97694200D01*
X85050115Y-97766771D01*
X85086400Y-97839343D01*
X85122686Y-97984486D01*
X85122686Y-98093343D01*
X85086400Y-98238486D01*
X85050115Y-98311057D01*
X84977543Y-98383629D01*
X84868686Y-98419914D01*
X84687258Y-98419914D01*
X85775829Y-97911914D02*
X85775829Y-98419914D01*
X85594400Y-97621629D02*
X85412972Y-98165914D01*
X85884686Y-98165914D01*
X86320114Y-97657914D02*
X86392686Y-97657914D01*
X86465257Y-97694200D01*
X86501543Y-97730486D01*
X86537829Y-97803057D01*
X86574114Y-97948200D01*
X86574114Y-98129629D01*
X86537829Y-98274771D01*
X86501543Y-98347343D01*
X86465257Y-98383629D01*
X86392686Y-98419914D01*
X86320114Y-98419914D01*
X86247543Y-98383629D01*
X86211257Y-98347343D01*
X86174972Y-98274771D01*
X86138686Y-98129629D01*
X86138686Y-97948200D01*
X86174972Y-97803057D01*
X86211257Y-97730486D01*
X86247543Y-97694200D01*
X86320114Y-97657914D01*
X87227257Y-97657914D02*
X87082114Y-97657914D01*
X87009543Y-97694200D01*
X86973257Y-97730486D01*
X86900686Y-97839343D01*
X86864400Y-97984486D01*
X86864400Y-98274771D01*
X86900686Y-98347343D01*
X86936971Y-98383629D01*
X87009543Y-98419914D01*
X87154686Y-98419914D01*
X87227257Y-98383629D01*
X87263543Y-98347343D01*
X87299828Y-98274771D01*
X87299828Y-98093343D01*
X87263543Y-98020771D01*
X87227257Y-97984486D01*
X87154686Y-97948200D01*
X87009543Y-97948200D01*
X86936971Y-97984486D01*
X86900686Y-98020771D01*
X86864400Y-98093343D01*
X52835715Y-88882086D02*
X52763143Y-88845800D01*
X52690572Y-88773229D01*
X52581715Y-88664371D01*
X52509143Y-88628086D01*
X52436572Y-88628086D01*
X52472857Y-88809514D02*
X52400286Y-88773229D01*
X52327715Y-88700657D01*
X52291429Y-88555514D01*
X52291429Y-88301514D01*
X52327715Y-88156371D01*
X52400286Y-88083800D01*
X52472857Y-88047514D01*
X52618000Y-88047514D01*
X52690572Y-88083800D01*
X52763143Y-88156371D01*
X52799429Y-88301514D01*
X52799429Y-88555514D01*
X52763143Y-88700657D01*
X52690572Y-88773229D01*
X52618000Y-88809514D01*
X52472857Y-88809514D01*
X53452572Y-88301514D02*
X53452572Y-88809514D01*
X53271143Y-88011229D02*
X53089715Y-88555514D01*
X53561429Y-88555514D01*
X53996857Y-88047514D02*
X54069429Y-88047514D01*
X54142000Y-88083800D01*
X54178286Y-88120086D01*
X54214572Y-88192657D01*
X54250857Y-88337800D01*
X54250857Y-88519229D01*
X54214572Y-88664371D01*
X54178286Y-88736943D01*
X54142000Y-88773229D01*
X54069429Y-88809514D01*
X53996857Y-88809514D01*
X53924286Y-88773229D01*
X53888000Y-88736943D01*
X53851715Y-88664371D01*
X53815429Y-88519229D01*
X53815429Y-88337800D01*
X53851715Y-88192657D01*
X53888000Y-88120086D01*
X53924286Y-88083800D01*
X53996857Y-88047514D01*
X54976571Y-88809514D02*
X54541143Y-88809514D01*
X54758857Y-88809514D02*
X54758857Y-88047514D01*
X54686286Y-88156371D01*
X54613714Y-88228943D01*
X54541143Y-88265229D01*
X67863515Y-88932086D02*
X67790943Y-88895800D01*
X67718372Y-88823229D01*
X67609515Y-88714371D01*
X67536943Y-88678086D01*
X67464372Y-88678086D01*
X67500657Y-88859514D02*
X67428086Y-88823229D01*
X67355515Y-88750657D01*
X67319229Y-88605514D01*
X67319229Y-88351514D01*
X67355515Y-88206371D01*
X67428086Y-88133800D01*
X67500657Y-88097514D01*
X67645800Y-88097514D01*
X67718372Y-88133800D01*
X67790943Y-88206371D01*
X67827229Y-88351514D01*
X67827229Y-88605514D01*
X67790943Y-88750657D01*
X67718372Y-88823229D01*
X67645800Y-88859514D01*
X67500657Y-88859514D01*
X68480372Y-88351514D02*
X68480372Y-88859514D01*
X68298943Y-88061229D02*
X68117515Y-88605514D01*
X68589229Y-88605514D01*
X69024657Y-88097514D02*
X69097229Y-88097514D01*
X69169800Y-88133800D01*
X69206086Y-88170086D01*
X69242372Y-88242657D01*
X69278657Y-88387800D01*
X69278657Y-88569229D01*
X69242372Y-88714371D01*
X69206086Y-88786943D01*
X69169800Y-88823229D01*
X69097229Y-88859514D01*
X69024657Y-88859514D01*
X68952086Y-88823229D01*
X68915800Y-88786943D01*
X68879515Y-88714371D01*
X68843229Y-88569229D01*
X68843229Y-88387800D01*
X68879515Y-88242657D01*
X68915800Y-88170086D01*
X68952086Y-88133800D01*
X69024657Y-88097514D01*
X69568943Y-88170086D02*
X69605229Y-88133800D01*
X69677800Y-88097514D01*
X69859229Y-88097514D01*
X69931800Y-88133800D01*
X69968086Y-88170086D01*
X70004371Y-88242657D01*
X70004371Y-88315229D01*
X69968086Y-88424086D01*
X69532657Y-88859514D01*
X70004371Y-88859514D01*
X82888115Y-88780486D02*
X82815543Y-88744200D01*
X82742972Y-88671629D01*
X82634115Y-88562771D01*
X82561543Y-88526486D01*
X82488972Y-88526486D01*
X82525257Y-88707914D02*
X82452686Y-88671629D01*
X82380115Y-88599057D01*
X82343829Y-88453914D01*
X82343829Y-88199914D01*
X82380115Y-88054771D01*
X82452686Y-87982200D01*
X82525257Y-87945914D01*
X82670400Y-87945914D01*
X82742972Y-87982200D01*
X82815543Y-88054771D01*
X82851829Y-88199914D01*
X82851829Y-88453914D01*
X82815543Y-88599057D01*
X82742972Y-88671629D01*
X82670400Y-88707914D01*
X82525257Y-88707914D01*
X83504972Y-88199914D02*
X83504972Y-88707914D01*
X83323543Y-87909629D02*
X83142115Y-88453914D01*
X83613829Y-88453914D01*
X84049257Y-87945914D02*
X84121829Y-87945914D01*
X84194400Y-87982200D01*
X84230686Y-88018486D01*
X84266972Y-88091057D01*
X84303257Y-88236200D01*
X84303257Y-88417629D01*
X84266972Y-88562771D01*
X84230686Y-88635343D01*
X84194400Y-88671629D01*
X84121829Y-88707914D01*
X84049257Y-88707914D01*
X83976686Y-88671629D01*
X83940400Y-88635343D01*
X83904115Y-88562771D01*
X83867829Y-88417629D01*
X83867829Y-88236200D01*
X83904115Y-88091057D01*
X83940400Y-88018486D01*
X83976686Y-87982200D01*
X84049257Y-87945914D01*
X84557257Y-87945914D02*
X85028971Y-87945914D01*
X84774971Y-88236200D01*
X84883829Y-88236200D01*
X84956400Y-88272486D01*
X84992686Y-88308771D01*
X85028971Y-88381343D01*
X85028971Y-88562771D01*
X84992686Y-88635343D01*
X84956400Y-88671629D01*
X84883829Y-88707914D01*
X84666114Y-88707914D01*
X84593543Y-88671629D01*
X84557257Y-88635343D01*
X63044714Y-106255857D02*
X62681857Y-106509857D01*
X63044714Y-106691285D02*
X62282714Y-106691285D01*
X62282714Y-106401000D01*
X62319000Y-106328428D01*
X62355286Y-106292143D01*
X62427857Y-106255857D01*
X62536714Y-106255857D01*
X62609286Y-106292143D01*
X62645571Y-106328428D01*
X62681857Y-106401000D01*
X62681857Y-106691285D01*
X62645571Y-105929285D02*
X62645571Y-105675285D01*
X63044714Y-105566428D02*
X63044714Y-105929285D01*
X62282714Y-105929285D01*
X62282714Y-105566428D01*
X63044714Y-104876999D02*
X63044714Y-105239856D01*
X62282714Y-105239856D01*
X63044714Y-104223857D02*
X63044714Y-104659285D01*
X63044714Y-104441571D02*
X62282714Y-104441571D01*
X62391571Y-104514142D01*
X62464143Y-104586714D01*
X62500429Y-104659285D01*
X62282714Y-103752143D02*
X62282714Y-103679571D01*
X62319000Y-103607000D01*
X62355286Y-103570714D01*
X62427857Y-103534428D01*
X62573000Y-103498143D01*
X62754429Y-103498143D01*
X62899571Y-103534428D01*
X62972143Y-103570714D01*
X63008429Y-103607000D01*
X63044714Y-103679571D01*
X63044714Y-103752143D01*
X63008429Y-103824714D01*
X62972143Y-103861000D01*
X62899571Y-103897285D01*
X62754429Y-103933571D01*
X62573000Y-103933571D01*
X62427857Y-103897285D01*
X62355286Y-103861000D01*
X62319000Y-103824714D01*
X62282714Y-103752143D01*
X63044714Y-102772429D02*
X63044714Y-103207857D01*
X63044714Y-102990143D02*
X62282714Y-102990143D01*
X62391571Y-103062714D01*
X62464143Y-103135286D01*
X62500429Y-103207857D01*
X59559286Y-107422571D02*
X59523000Y-107495143D01*
X59486714Y-107531428D01*
X59414143Y-107567714D01*
X59377857Y-107567714D01*
X59305286Y-107531428D01*
X59269000Y-107495143D01*
X59232714Y-107422571D01*
X59232714Y-107277428D01*
X59269000Y-107204857D01*
X59305286Y-107168571D01*
X59377857Y-107132286D01*
X59414143Y-107132286D01*
X59486714Y-107168571D01*
X59523000Y-107204857D01*
X59559286Y-107277428D01*
X59559286Y-107422571D01*
X59595571Y-107495143D01*
X59631857Y-107531428D01*
X59704429Y-107567714D01*
X59849571Y-107567714D01*
X59922143Y-107531428D01*
X59958429Y-107495143D01*
X59994714Y-107422571D01*
X59994714Y-107277428D01*
X59958429Y-107204857D01*
X59922143Y-107168571D01*
X59849571Y-107132286D01*
X59704429Y-107132286D01*
X59631857Y-107168571D01*
X59595571Y-107204857D01*
X59559286Y-107277428D01*
X52144714Y-107132286D02*
X52144714Y-107567714D01*
X52144714Y-107350000D02*
X51382714Y-107350000D01*
X51491571Y-107422571D01*
X51564143Y-107495143D01*
X51600429Y-107567714D01*
X59672143Y-122998714D02*
X59708429Y-123035000D01*
X59744714Y-123143857D01*
X59744714Y-123216428D01*
X59708429Y-123325285D01*
X59635857Y-123397857D01*
X59563286Y-123434142D01*
X59418143Y-123470428D01*
X59309286Y-123470428D01*
X59164143Y-123434142D01*
X59091571Y-123397857D01*
X59019000Y-123325285D01*
X58982714Y-123216428D01*
X58982714Y-123143857D01*
X59019000Y-123035000D01*
X59055286Y-122998714D01*
X58982714Y-122527000D02*
X58982714Y-122381857D01*
X59019000Y-122309285D01*
X59091571Y-122236714D01*
X59236714Y-122200428D01*
X59490714Y-122200428D01*
X59635857Y-122236714D01*
X59708429Y-122309285D01*
X59744714Y-122381857D01*
X59744714Y-122527000D01*
X59708429Y-122599571D01*
X59635857Y-122672142D01*
X59490714Y-122708428D01*
X59236714Y-122708428D01*
X59091571Y-122672142D01*
X59019000Y-122599571D01*
X58982714Y-122527000D01*
X59744714Y-121873856D02*
X58982714Y-121873856D01*
X59527000Y-121619856D01*
X58982714Y-121365856D01*
X59744714Y-121365856D01*
X52144714Y-126166857D02*
X51382714Y-126166857D01*
X52144714Y-125731429D01*
X51382714Y-125731429D01*
X51382714Y-125223429D02*
X51382714Y-125078286D01*
X51419000Y-125005714D01*
X51491571Y-124933143D01*
X51636714Y-124896857D01*
X51890714Y-124896857D01*
X52035857Y-124933143D01*
X52108429Y-125005714D01*
X52144714Y-125078286D01*
X52144714Y-125223429D01*
X52108429Y-125296000D01*
X52035857Y-125368571D01*
X51890714Y-125404857D01*
X51636714Y-125404857D01*
X51491571Y-125368571D01*
X51419000Y-125296000D01*
X51382714Y-125223429D01*
X78354714Y-106555857D02*
X77991857Y-106809857D01*
X78354714Y-106991285D02*
X77592714Y-106991285D01*
X77592714Y-106701000D01*
X77629000Y-106628428D01*
X77665286Y-106592143D01*
X77737857Y-106555857D01*
X77846714Y-106555857D01*
X77919286Y-106592143D01*
X77955571Y-106628428D01*
X77991857Y-106701000D01*
X77991857Y-106991285D01*
X77955571Y-106229285D02*
X77955571Y-105975285D01*
X78354714Y-105866428D02*
X78354714Y-106229285D01*
X77592714Y-106229285D01*
X77592714Y-105866428D01*
X78354714Y-105176999D02*
X78354714Y-105539856D01*
X77592714Y-105539856D01*
X78354714Y-104523857D02*
X78354714Y-104959285D01*
X78354714Y-104741571D02*
X77592714Y-104741571D01*
X77701571Y-104814142D01*
X77774143Y-104886714D01*
X77810429Y-104959285D01*
X77592714Y-104052143D02*
X77592714Y-103979571D01*
X77629000Y-103907000D01*
X77665286Y-103870714D01*
X77737857Y-103834428D01*
X77883000Y-103798143D01*
X78064429Y-103798143D01*
X78209571Y-103834428D01*
X78282143Y-103870714D01*
X78318429Y-103907000D01*
X78354714Y-103979571D01*
X78354714Y-104052143D01*
X78318429Y-104124714D01*
X78282143Y-104161000D01*
X78209571Y-104197285D01*
X78064429Y-104233571D01*
X77883000Y-104233571D01*
X77737857Y-104197285D01*
X77665286Y-104161000D01*
X77629000Y-104124714D01*
X77592714Y-104052143D01*
X77665286Y-103507857D02*
X77629000Y-103471571D01*
X77592714Y-103399000D01*
X77592714Y-103217571D01*
X77629000Y-103145000D01*
X77665286Y-103108714D01*
X77737857Y-103072429D01*
X77810429Y-103072429D01*
X77919286Y-103108714D01*
X78354714Y-103544143D01*
X78354714Y-103072429D01*
X74659286Y-107422571D02*
X74623000Y-107495143D01*
X74586714Y-107531428D01*
X74514143Y-107567714D01*
X74477857Y-107567714D01*
X74405286Y-107531428D01*
X74369000Y-107495143D01*
X74332714Y-107422571D01*
X74332714Y-107277428D01*
X74369000Y-107204857D01*
X74405286Y-107168571D01*
X74477857Y-107132286D01*
X74514143Y-107132286D01*
X74586714Y-107168571D01*
X74623000Y-107204857D01*
X74659286Y-107277428D01*
X74659286Y-107422571D01*
X74695571Y-107495143D01*
X74731857Y-107531428D01*
X74804429Y-107567714D01*
X74949571Y-107567714D01*
X75022143Y-107531428D01*
X75058429Y-107495143D01*
X75094714Y-107422571D01*
X75094714Y-107277428D01*
X75058429Y-107204857D01*
X75022143Y-107168571D01*
X74949571Y-107132286D01*
X74804429Y-107132286D01*
X74731857Y-107168571D01*
X74695571Y-107204857D01*
X74659286Y-107277428D01*
X67494714Y-107132286D02*
X67494714Y-107567714D01*
X67494714Y-107350000D02*
X66732714Y-107350000D01*
X66841571Y-107422571D01*
X66914143Y-107495143D01*
X66950429Y-107567714D01*
X74932143Y-122998714D02*
X74968429Y-123035000D01*
X75004714Y-123143857D01*
X75004714Y-123216428D01*
X74968429Y-123325285D01*
X74895857Y-123397857D01*
X74823286Y-123434142D01*
X74678143Y-123470428D01*
X74569286Y-123470428D01*
X74424143Y-123434142D01*
X74351571Y-123397857D01*
X74279000Y-123325285D01*
X74242714Y-123216428D01*
X74242714Y-123143857D01*
X74279000Y-123035000D01*
X74315286Y-122998714D01*
X74242714Y-122527000D02*
X74242714Y-122381857D01*
X74279000Y-122309285D01*
X74351571Y-122236714D01*
X74496714Y-122200428D01*
X74750714Y-122200428D01*
X74895857Y-122236714D01*
X74968429Y-122309285D01*
X75004714Y-122381857D01*
X75004714Y-122527000D01*
X74968429Y-122599571D01*
X74895857Y-122672142D01*
X74750714Y-122708428D01*
X74496714Y-122708428D01*
X74351571Y-122672142D01*
X74279000Y-122599571D01*
X74242714Y-122527000D01*
X75004714Y-121873856D02*
X74242714Y-121873856D01*
X74787000Y-121619856D01*
X74242714Y-121365856D01*
X75004714Y-121365856D01*
X67444714Y-126266857D02*
X66682714Y-126266857D01*
X67444714Y-125831429D01*
X66682714Y-125831429D01*
X66682714Y-125323429D02*
X66682714Y-125178286D01*
X66719000Y-125105714D01*
X66791571Y-125033143D01*
X66936714Y-124996857D01*
X67190714Y-124996857D01*
X67335857Y-125033143D01*
X67408429Y-125105714D01*
X67444714Y-125178286D01*
X67444714Y-125323429D01*
X67408429Y-125396000D01*
X67335857Y-125468571D01*
X67190714Y-125504857D01*
X66936714Y-125504857D01*
X66791571Y-125468571D01*
X66719000Y-125396000D01*
X66682714Y-125323429D01*
X93574714Y-106705857D02*
X93211857Y-106959857D01*
X93574714Y-107141285D02*
X92812714Y-107141285D01*
X92812714Y-106851000D01*
X92849000Y-106778428D01*
X92885286Y-106742143D01*
X92957857Y-106705857D01*
X93066714Y-106705857D01*
X93139286Y-106742143D01*
X93175571Y-106778428D01*
X93211857Y-106851000D01*
X93211857Y-107141285D01*
X93175571Y-106379285D02*
X93175571Y-106125285D01*
X93574714Y-106016428D02*
X93574714Y-106379285D01*
X92812714Y-106379285D01*
X92812714Y-106016428D01*
X93574714Y-105326999D02*
X93574714Y-105689856D01*
X92812714Y-105689856D01*
X93574714Y-104673857D02*
X93574714Y-105109285D01*
X93574714Y-104891571D02*
X92812714Y-104891571D01*
X92921571Y-104964142D01*
X92994143Y-105036714D01*
X93030429Y-105109285D01*
X92812714Y-104202143D02*
X92812714Y-104129571D01*
X92849000Y-104057000D01*
X92885286Y-104020714D01*
X92957857Y-103984428D01*
X93103000Y-103948143D01*
X93284429Y-103948143D01*
X93429571Y-103984428D01*
X93502143Y-104020714D01*
X93538429Y-104057000D01*
X93574714Y-104129571D01*
X93574714Y-104202143D01*
X93538429Y-104274714D01*
X93502143Y-104311000D01*
X93429571Y-104347285D01*
X93284429Y-104383571D01*
X93103000Y-104383571D01*
X92957857Y-104347285D01*
X92885286Y-104311000D01*
X92849000Y-104274714D01*
X92812714Y-104202143D01*
X92812714Y-103694143D02*
X92812714Y-103222429D01*
X93103000Y-103476429D01*
X93103000Y-103367571D01*
X93139286Y-103295000D01*
X93175571Y-103258714D01*
X93248143Y-103222429D01*
X93429571Y-103222429D01*
X93502143Y-103258714D01*
X93538429Y-103295000D01*
X93574714Y-103367571D01*
X93574714Y-103585286D01*
X93538429Y-103657857D01*
X93502143Y-103694143D01*
X90009286Y-107422571D02*
X89973000Y-107495143D01*
X89936714Y-107531428D01*
X89864143Y-107567714D01*
X89827857Y-107567714D01*
X89755286Y-107531428D01*
X89719000Y-107495143D01*
X89682714Y-107422571D01*
X89682714Y-107277428D01*
X89719000Y-107204857D01*
X89755286Y-107168571D01*
X89827857Y-107132286D01*
X89864143Y-107132286D01*
X89936714Y-107168571D01*
X89973000Y-107204857D01*
X90009286Y-107277428D01*
X90009286Y-107422571D01*
X90045571Y-107495143D01*
X90081857Y-107531428D01*
X90154429Y-107567714D01*
X90299571Y-107567714D01*
X90372143Y-107531428D01*
X90408429Y-107495143D01*
X90444714Y-107422571D01*
X90444714Y-107277428D01*
X90408429Y-107204857D01*
X90372143Y-107168571D01*
X90299571Y-107132286D01*
X90154429Y-107132286D01*
X90081857Y-107168571D01*
X90045571Y-107204857D01*
X90009286Y-107277428D01*
X82594714Y-107132286D02*
X82594714Y-107567714D01*
X82594714Y-107350000D02*
X81832714Y-107350000D01*
X81941571Y-107422571D01*
X82014143Y-107495143D01*
X82050429Y-107567714D01*
X90152143Y-122998714D02*
X90188429Y-123035000D01*
X90224714Y-123143857D01*
X90224714Y-123216428D01*
X90188429Y-123325285D01*
X90115857Y-123397857D01*
X90043286Y-123434142D01*
X89898143Y-123470428D01*
X89789286Y-123470428D01*
X89644143Y-123434142D01*
X89571571Y-123397857D01*
X89499000Y-123325285D01*
X89462714Y-123216428D01*
X89462714Y-123143857D01*
X89499000Y-123035000D01*
X89535286Y-122998714D01*
X89462714Y-122527000D02*
X89462714Y-122381857D01*
X89499000Y-122309285D01*
X89571571Y-122236714D01*
X89716714Y-122200428D01*
X89970714Y-122200428D01*
X90115857Y-122236714D01*
X90188429Y-122309285D01*
X90224714Y-122381857D01*
X90224714Y-122527000D01*
X90188429Y-122599571D01*
X90115857Y-122672142D01*
X89970714Y-122708428D01*
X89716714Y-122708428D01*
X89571571Y-122672142D01*
X89499000Y-122599571D01*
X89462714Y-122527000D01*
X90224714Y-121873856D02*
X89462714Y-121873856D01*
X90007000Y-121619856D01*
X89462714Y-121365856D01*
X90224714Y-121365856D01*
X82594714Y-126266857D02*
X81832714Y-126266857D01*
X82594714Y-125831429D01*
X81832714Y-125831429D01*
X81832714Y-125323429D02*
X81832714Y-125178286D01*
X81869000Y-125105714D01*
X81941571Y-125033143D01*
X82086714Y-124996857D01*
X82340714Y-124996857D01*
X82485857Y-125033143D01*
X82558429Y-125105714D01*
X82594714Y-125178286D01*
X82594714Y-125323429D01*
X82558429Y-125396000D01*
X82485857Y-125468571D01*
X82340714Y-125504857D01*
X82086714Y-125504857D01*
X81941571Y-125468571D01*
X81869000Y-125396000D01*
X81832714Y-125323429D01*
X109470287Y-128035571D02*
X109216287Y-128035571D01*
X109216287Y-128434714D02*
X109216287Y-127672714D01*
X109579144Y-127672714D01*
X110268572Y-128434714D02*
X109833144Y-128434714D01*
X110050858Y-128434714D02*
X110050858Y-127672714D01*
X109978287Y-127781571D01*
X109905715Y-127854143D01*
X109833144Y-127890429D01*
X110740286Y-127672714D02*
X110812858Y-127672714D01*
X110885429Y-127709000D01*
X110921715Y-127745286D01*
X110958001Y-127817857D01*
X110994286Y-127963000D01*
X110994286Y-128144429D01*
X110958001Y-128289571D01*
X110921715Y-128362143D01*
X110885429Y-128398429D01*
X110812858Y-128434714D01*
X110740286Y-128434714D01*
X110667715Y-128398429D01*
X110631429Y-128362143D01*
X110595144Y-128289571D01*
X110558858Y-128144429D01*
X110558858Y-127963000D01*
X110595144Y-127817857D01*
X110631429Y-127745286D01*
X110667715Y-127709000D01*
X110740286Y-127672714D01*
X111720000Y-128434714D02*
X111284572Y-128434714D01*
X111502286Y-128434714D02*
X111502286Y-127672714D01*
X111429715Y-127781571D01*
X111357143Y-127854143D01*
X111284572Y-127890429D01*
X55571858Y-60864714D02*
X55571858Y-60102714D01*
X55862143Y-60102714D01*
X55934715Y-60139000D01*
X55971000Y-60175286D01*
X56007286Y-60247857D01*
X56007286Y-60356714D01*
X55971000Y-60429286D01*
X55934715Y-60465571D01*
X55862143Y-60501857D01*
X55571858Y-60501857D01*
X56696715Y-60102714D02*
X56333858Y-60102714D01*
X56297572Y-60465571D01*
X56333858Y-60429286D01*
X56406429Y-60393000D01*
X56587858Y-60393000D01*
X56660429Y-60429286D01*
X56696715Y-60465571D01*
X56733000Y-60538143D01*
X56733000Y-60719571D01*
X56696715Y-60792143D01*
X56660429Y-60828429D01*
X56587858Y-60864714D01*
X56406429Y-60864714D01*
X56333858Y-60828429D01*
X56297572Y-60792143D01*
X57204714Y-60102714D02*
X57277286Y-60102714D01*
X57349857Y-60139000D01*
X57386143Y-60175286D01*
X57422429Y-60247857D01*
X57458714Y-60393000D01*
X57458714Y-60574429D01*
X57422429Y-60719571D01*
X57386143Y-60792143D01*
X57349857Y-60828429D01*
X57277286Y-60864714D01*
X57204714Y-60864714D01*
X57132143Y-60828429D01*
X57095857Y-60792143D01*
X57059572Y-60719571D01*
X57023286Y-60574429D01*
X57023286Y-60393000D01*
X57059572Y-60247857D01*
X57095857Y-60175286D01*
X57132143Y-60139000D01*
X57204714Y-60102714D01*
X58184428Y-60864714D02*
X57749000Y-60864714D01*
X57966714Y-60864714D02*
X57966714Y-60102714D01*
X57894143Y-60211571D01*
X57821571Y-60284143D01*
X57749000Y-60320429D01*
X71131858Y-60864714D02*
X71131858Y-60102714D01*
X71422143Y-60102714D01*
X71494715Y-60139000D01*
X71531000Y-60175286D01*
X71567286Y-60247857D01*
X71567286Y-60356714D01*
X71531000Y-60429286D01*
X71494715Y-60465571D01*
X71422143Y-60501857D01*
X71131858Y-60501857D01*
X72256715Y-60102714D02*
X71893858Y-60102714D01*
X71857572Y-60465571D01*
X71893858Y-60429286D01*
X71966429Y-60393000D01*
X72147858Y-60393000D01*
X72220429Y-60429286D01*
X72256715Y-60465571D01*
X72293000Y-60538143D01*
X72293000Y-60719571D01*
X72256715Y-60792143D01*
X72220429Y-60828429D01*
X72147858Y-60864714D01*
X71966429Y-60864714D01*
X71893858Y-60828429D01*
X71857572Y-60792143D01*
X72764714Y-60102714D02*
X72837286Y-60102714D01*
X72909857Y-60139000D01*
X72946143Y-60175286D01*
X72982429Y-60247857D01*
X73018714Y-60393000D01*
X73018714Y-60574429D01*
X72982429Y-60719571D01*
X72946143Y-60792143D01*
X72909857Y-60828429D01*
X72837286Y-60864714D01*
X72764714Y-60864714D01*
X72692143Y-60828429D01*
X72655857Y-60792143D01*
X72619572Y-60719571D01*
X72583286Y-60574429D01*
X72583286Y-60393000D01*
X72619572Y-60247857D01*
X72655857Y-60175286D01*
X72692143Y-60139000D01*
X72764714Y-60102714D01*
X73309000Y-60175286D02*
X73345286Y-60139000D01*
X73417857Y-60102714D01*
X73599286Y-60102714D01*
X73671857Y-60139000D01*
X73708143Y-60175286D01*
X73744428Y-60247857D01*
X73744428Y-60320429D01*
X73708143Y-60429286D01*
X73272714Y-60864714D01*
X73744428Y-60864714D01*
X86441858Y-60914714D02*
X86441858Y-60152714D01*
X86732143Y-60152714D01*
X86804715Y-60189000D01*
X86841000Y-60225286D01*
X86877286Y-60297857D01*
X86877286Y-60406714D01*
X86841000Y-60479286D01*
X86804715Y-60515571D01*
X86732143Y-60551857D01*
X86441858Y-60551857D01*
X87566715Y-60152714D02*
X87203858Y-60152714D01*
X87167572Y-60515571D01*
X87203858Y-60479286D01*
X87276429Y-60443000D01*
X87457858Y-60443000D01*
X87530429Y-60479286D01*
X87566715Y-60515571D01*
X87603000Y-60588143D01*
X87603000Y-60769571D01*
X87566715Y-60842143D01*
X87530429Y-60878429D01*
X87457858Y-60914714D01*
X87276429Y-60914714D01*
X87203858Y-60878429D01*
X87167572Y-60842143D01*
X88074714Y-60152714D02*
X88147286Y-60152714D01*
X88219857Y-60189000D01*
X88256143Y-60225286D01*
X88292429Y-60297857D01*
X88328714Y-60443000D01*
X88328714Y-60624429D01*
X88292429Y-60769571D01*
X88256143Y-60842143D01*
X88219857Y-60878429D01*
X88147286Y-60914714D01*
X88074714Y-60914714D01*
X88002143Y-60878429D01*
X87965857Y-60842143D01*
X87929572Y-60769571D01*
X87893286Y-60624429D01*
X87893286Y-60443000D01*
X87929572Y-60297857D01*
X87965857Y-60225286D01*
X88002143Y-60189000D01*
X88074714Y-60152714D01*
X88582714Y-60152714D02*
X89054428Y-60152714D01*
X88800428Y-60443000D01*
X88909286Y-60443000D01*
X88981857Y-60479286D01*
X89018143Y-60515571D01*
X89054428Y-60588143D01*
X89054428Y-60769571D01*
X89018143Y-60842143D01*
X88981857Y-60878429D01*
X88909286Y-60914714D01*
X88691571Y-60914714D01*
X88619000Y-60878429D01*
X88582714Y-60842143D01*
X104431858Y-61584714D02*
X104431858Y-60822714D01*
X104722143Y-60822714D01*
X104794715Y-60859000D01*
X104831000Y-60895286D01*
X104867286Y-60967857D01*
X104867286Y-61076714D01*
X104831000Y-61149286D01*
X104794715Y-61185571D01*
X104722143Y-61221857D01*
X104431858Y-61221857D01*
X105593000Y-61584714D02*
X105157572Y-61584714D01*
X105375286Y-61584714D02*
X105375286Y-60822714D01*
X105302715Y-60931571D01*
X105230143Y-61004143D01*
X105157572Y-61040429D01*
X106064714Y-60822714D02*
X106137286Y-60822714D01*
X106209857Y-60859000D01*
X106246143Y-60895286D01*
X106282429Y-60967857D01*
X106318714Y-61113000D01*
X106318714Y-61294429D01*
X106282429Y-61439571D01*
X106246143Y-61512143D01*
X106209857Y-61548429D01*
X106137286Y-61584714D01*
X106064714Y-61584714D01*
X105992143Y-61548429D01*
X105955857Y-61512143D01*
X105919572Y-61439571D01*
X105883286Y-61294429D01*
X105883286Y-61113000D01*
X105919572Y-60967857D01*
X105955857Y-60895286D01*
X105992143Y-60859000D01*
X106064714Y-60822714D01*
X107044428Y-61584714D02*
X106609000Y-61584714D01*
X106826714Y-61584714D02*
X106826714Y-60822714D01*
X106754143Y-60931571D01*
X106681571Y-61004143D01*
X106609000Y-61040429D01*
X53271858Y-145314714D02*
X53271858Y-144552714D01*
X53562143Y-144552714D01*
X53634715Y-144589000D01*
X53671000Y-144625286D01*
X53707286Y-144697857D01*
X53707286Y-144806714D01*
X53671000Y-144879286D01*
X53634715Y-144915571D01*
X53562143Y-144951857D01*
X53271858Y-144951857D01*
X54433000Y-145314714D02*
X53997572Y-145314714D01*
X54215286Y-145314714D02*
X54215286Y-144552714D01*
X54142715Y-144661571D01*
X54070143Y-144734143D01*
X53997572Y-144770429D01*
X54904714Y-144552714D02*
X54977286Y-144552714D01*
X55049857Y-144589000D01*
X55086143Y-144625286D01*
X55122429Y-144697857D01*
X55158714Y-144843000D01*
X55158714Y-145024429D01*
X55122429Y-145169571D01*
X55086143Y-145242143D01*
X55049857Y-145278429D01*
X54977286Y-145314714D01*
X54904714Y-145314714D01*
X54832143Y-145278429D01*
X54795857Y-145242143D01*
X54759572Y-145169571D01*
X54723286Y-145024429D01*
X54723286Y-144843000D01*
X54759572Y-144697857D01*
X54795857Y-144625286D01*
X54832143Y-144589000D01*
X54904714Y-144552714D01*
X55594143Y-144879286D02*
X55521571Y-144843000D01*
X55485286Y-144806714D01*
X55449000Y-144734143D01*
X55449000Y-144697857D01*
X55485286Y-144625286D01*
X55521571Y-144589000D01*
X55594143Y-144552714D01*
X55739286Y-144552714D01*
X55811857Y-144589000D01*
X55848143Y-144625286D01*
X55884428Y-144697857D01*
X55884428Y-144734143D01*
X55848143Y-144806714D01*
X55811857Y-144843000D01*
X55739286Y-144879286D01*
X55594143Y-144879286D01*
X55521571Y-144915571D01*
X55485286Y-144951857D01*
X55449000Y-145024429D01*
X55449000Y-145169571D01*
X55485286Y-145242143D01*
X55521571Y-145278429D01*
X55594143Y-145314714D01*
X55739286Y-145314714D01*
X55811857Y-145278429D01*
X55848143Y-145242143D01*
X55884428Y-145169571D01*
X55884428Y-145024429D01*
X55848143Y-144951857D01*
X55811857Y-144915571D01*
X55739286Y-144879286D01*
X68921858Y-145294714D02*
X68921858Y-144532714D01*
X69212143Y-144532714D01*
X69284715Y-144569000D01*
X69321000Y-144605286D01*
X69357286Y-144677857D01*
X69357286Y-144786714D01*
X69321000Y-144859286D01*
X69284715Y-144895571D01*
X69212143Y-144931857D01*
X68921858Y-144931857D01*
X70083000Y-145294714D02*
X69647572Y-145294714D01*
X69865286Y-145294714D02*
X69865286Y-144532714D01*
X69792715Y-144641571D01*
X69720143Y-144714143D01*
X69647572Y-144750429D01*
X70808714Y-145294714D02*
X70373286Y-145294714D01*
X70591000Y-145294714D02*
X70591000Y-144532714D01*
X70518429Y-144641571D01*
X70445857Y-144714143D01*
X70373286Y-144750429D01*
X71280428Y-144532714D02*
X71353000Y-144532714D01*
X71425571Y-144569000D01*
X71461857Y-144605286D01*
X71498143Y-144677857D01*
X71534428Y-144823000D01*
X71534428Y-145004429D01*
X71498143Y-145149571D01*
X71461857Y-145222143D01*
X71425571Y-145258429D01*
X71353000Y-145294714D01*
X71280428Y-145294714D01*
X71207857Y-145258429D01*
X71171571Y-145222143D01*
X71135286Y-145149571D01*
X71099000Y-145004429D01*
X71099000Y-144823000D01*
X71135286Y-144677857D01*
X71171571Y-144605286D01*
X71207857Y-144569000D01*
X71280428Y-144532714D01*
X83861858Y-145234714D02*
X83861858Y-144472714D01*
X84152143Y-144472714D01*
X84224715Y-144509000D01*
X84261000Y-144545286D01*
X84297286Y-144617857D01*
X84297286Y-144726714D01*
X84261000Y-144799286D01*
X84224715Y-144835571D01*
X84152143Y-144871857D01*
X83861858Y-144871857D01*
X85023000Y-145234714D02*
X84587572Y-145234714D01*
X84805286Y-145234714D02*
X84805286Y-144472714D01*
X84732715Y-144581571D01*
X84660143Y-144654143D01*
X84587572Y-144690429D01*
X85748714Y-145234714D02*
X85313286Y-145234714D01*
X85531000Y-145234714D02*
X85531000Y-144472714D01*
X85458429Y-144581571D01*
X85385857Y-144654143D01*
X85313286Y-144690429D01*
X86474428Y-145234714D02*
X86039000Y-145234714D01*
X86256714Y-145234714D02*
X86256714Y-144472714D01*
X86184143Y-144581571D01*
X86111571Y-144654143D01*
X86039000Y-144690429D01*
X104091858Y-145274714D02*
X104091858Y-144512714D01*
X104382143Y-144512714D01*
X104454715Y-144549000D01*
X104491000Y-144585286D01*
X104527286Y-144657857D01*
X104527286Y-144766714D01*
X104491000Y-144839286D01*
X104454715Y-144875571D01*
X104382143Y-144911857D01*
X104091858Y-144911857D01*
X105253000Y-145274714D02*
X104817572Y-145274714D01*
X105035286Y-145274714D02*
X105035286Y-144512714D01*
X104962715Y-144621571D01*
X104890143Y-144694143D01*
X104817572Y-144730429D01*
X105724714Y-144512714D02*
X105797286Y-144512714D01*
X105869857Y-144549000D01*
X105906143Y-144585286D01*
X105942429Y-144657857D01*
X105978714Y-144803000D01*
X105978714Y-144984429D01*
X105942429Y-145129571D01*
X105906143Y-145202143D01*
X105869857Y-145238429D01*
X105797286Y-145274714D01*
X105724714Y-145274714D01*
X105652143Y-145238429D01*
X105615857Y-145202143D01*
X105579572Y-145129571D01*
X105543286Y-144984429D01*
X105543286Y-144803000D01*
X105579572Y-144657857D01*
X105615857Y-144585286D01*
X105652143Y-144549000D01*
X105724714Y-144512714D01*
X106631857Y-144512714D02*
X106486714Y-144512714D01*
X106414143Y-144549000D01*
X106377857Y-144585286D01*
X106305286Y-144694143D01*
X106269000Y-144839286D01*
X106269000Y-145129571D01*
X106305286Y-145202143D01*
X106341571Y-145238429D01*
X106414143Y-145274714D01*
X106559286Y-145274714D01*
X106631857Y-145238429D01*
X106668143Y-145202143D01*
X106704428Y-145129571D01*
X106704428Y-144948143D01*
X106668143Y-144875571D01*
X106631857Y-144839286D01*
X106559286Y-144803000D01*
X106414143Y-144803000D01*
X106341571Y-144839286D01*
X106305286Y-144875571D01*
X106269000Y-144948143D01*
X103914714Y-77238142D02*
X103152714Y-77238142D01*
X103152714Y-76947857D01*
X103189000Y-76875285D01*
X103225286Y-76839000D01*
X103297857Y-76802714D01*
X103406714Y-76802714D01*
X103479286Y-76839000D01*
X103515571Y-76875285D01*
X103551857Y-76947857D01*
X103551857Y-77238142D01*
X103914714Y-76077000D02*
X103914714Y-76512428D01*
X103914714Y-76294714D02*
X103152714Y-76294714D01*
X103261571Y-76367285D01*
X103334143Y-76439857D01*
X103370429Y-76512428D01*
X103914714Y-75351286D02*
X103914714Y-75786714D01*
X103914714Y-75569000D02*
X103152714Y-75569000D01*
X103261571Y-75641571D01*
X103334143Y-75714143D01*
X103370429Y-75786714D01*
X103225286Y-75061000D02*
X103189000Y-75024714D01*
X103152714Y-74952143D01*
X103152714Y-74770714D01*
X103189000Y-74698143D01*
X103225286Y-74661857D01*
X103297857Y-74625572D01*
X103370429Y-74625572D01*
X103479286Y-74661857D01*
X103914714Y-75097286D01*
X103914714Y-74625572D01*
X56170286Y-84418714D02*
X55916286Y-84055857D01*
X55734858Y-84418714D02*
X55734858Y-83656714D01*
X56025143Y-83656714D01*
X56097715Y-83693000D01*
X56134000Y-83729286D01*
X56170286Y-83801857D01*
X56170286Y-83910714D01*
X56134000Y-83983286D01*
X56097715Y-84019571D01*
X56025143Y-84055857D01*
X55734858Y-84055857D01*
X56823429Y-83910714D02*
X56823429Y-84418714D01*
X56642000Y-83620429D02*
X56460572Y-84164714D01*
X56932286Y-84164714D01*
X57367714Y-83656714D02*
X57440286Y-83656714D01*
X57512857Y-83693000D01*
X57549143Y-83729286D01*
X57585429Y-83801857D01*
X57621714Y-83947000D01*
X57621714Y-84128429D01*
X57585429Y-84273571D01*
X57549143Y-84346143D01*
X57512857Y-84382429D01*
X57440286Y-84418714D01*
X57367714Y-84418714D01*
X57295143Y-84382429D01*
X57258857Y-84346143D01*
X57222572Y-84273571D01*
X57186286Y-84128429D01*
X57186286Y-83947000D01*
X57222572Y-83801857D01*
X57258857Y-83729286D01*
X57295143Y-83693000D01*
X57367714Y-83656714D01*
X58347428Y-84418714D02*
X57912000Y-84418714D01*
X58129714Y-84418714D02*
X58129714Y-83656714D01*
X58057143Y-83765571D01*
X57984571Y-83838143D01*
X57912000Y-83874429D01*
X71029286Y-84545714D02*
X70775286Y-84182857D01*
X70593858Y-84545714D02*
X70593858Y-83783714D01*
X70884143Y-83783714D01*
X70956715Y-83820000D01*
X70993000Y-83856286D01*
X71029286Y-83928857D01*
X71029286Y-84037714D01*
X70993000Y-84110286D01*
X70956715Y-84146571D01*
X70884143Y-84182857D01*
X70593858Y-84182857D01*
X71682429Y-84037714D02*
X71682429Y-84545714D01*
X71501000Y-83747429D02*
X71319572Y-84291714D01*
X71791286Y-84291714D01*
X72226714Y-83783714D02*
X72299286Y-83783714D01*
X72371857Y-83820000D01*
X72408143Y-83856286D01*
X72444429Y-83928857D01*
X72480714Y-84074000D01*
X72480714Y-84255429D01*
X72444429Y-84400571D01*
X72408143Y-84473143D01*
X72371857Y-84509429D01*
X72299286Y-84545714D01*
X72226714Y-84545714D01*
X72154143Y-84509429D01*
X72117857Y-84473143D01*
X72081572Y-84400571D01*
X72045286Y-84255429D01*
X72045286Y-84074000D01*
X72081572Y-83928857D01*
X72117857Y-83856286D01*
X72154143Y-83820000D01*
X72226714Y-83783714D01*
X72771000Y-83856286D02*
X72807286Y-83820000D01*
X72879857Y-83783714D01*
X73061286Y-83783714D01*
X73133857Y-83820000D01*
X73170143Y-83856286D01*
X73206428Y-83928857D01*
X73206428Y-84001429D01*
X73170143Y-84110286D01*
X72734714Y-84545714D01*
X73206428Y-84545714D01*
X86015286Y-84545714D02*
X85761286Y-84182857D01*
X85579858Y-84545714D02*
X85579858Y-83783714D01*
X85870143Y-83783714D01*
X85942715Y-83820000D01*
X85979000Y-83856286D01*
X86015286Y-83928857D01*
X86015286Y-84037714D01*
X85979000Y-84110286D01*
X85942715Y-84146571D01*
X85870143Y-84182857D01*
X85579858Y-84182857D01*
X86668429Y-84037714D02*
X86668429Y-84545714D01*
X86487000Y-83747429D02*
X86305572Y-84291714D01*
X86777286Y-84291714D01*
X87212714Y-83783714D02*
X87285286Y-83783714D01*
X87357857Y-83820000D01*
X87394143Y-83856286D01*
X87430429Y-83928857D01*
X87466714Y-84074000D01*
X87466714Y-84255429D01*
X87430429Y-84400571D01*
X87394143Y-84473143D01*
X87357857Y-84509429D01*
X87285286Y-84545714D01*
X87212714Y-84545714D01*
X87140143Y-84509429D01*
X87103857Y-84473143D01*
X87067572Y-84400571D01*
X87031286Y-84255429D01*
X87031286Y-84074000D01*
X87067572Y-83928857D01*
X87103857Y-83856286D01*
X87140143Y-83820000D01*
X87212714Y-83783714D01*
X87720714Y-83783714D02*
X88192428Y-83783714D01*
X87938428Y-84074000D01*
X88047286Y-84074000D01*
X88119857Y-84110286D01*
X88156143Y-84146571D01*
X88192428Y-84219143D01*
X88192428Y-84400571D01*
X88156143Y-84473143D01*
X88119857Y-84509429D01*
X88047286Y-84545714D01*
X87829571Y-84545714D01*
X87757000Y-84509429D01*
X87720714Y-84473143D01*
X109256286Y-99785714D02*
X109002286Y-99422857D01*
X108820858Y-99785714D02*
X108820858Y-99023714D01*
X109111143Y-99023714D01*
X109183715Y-99060000D01*
X109220000Y-99096286D01*
X109256286Y-99168857D01*
X109256286Y-99277714D01*
X109220000Y-99350286D01*
X109183715Y-99386571D01*
X109111143Y-99422857D01*
X108820858Y-99422857D01*
X109909429Y-99277714D02*
X109909429Y-99785714D01*
X109728000Y-98987429D02*
X109546572Y-99531714D01*
X110018286Y-99531714D01*
X110453714Y-99023714D02*
X110526286Y-99023714D01*
X110598857Y-99060000D01*
X110635143Y-99096286D01*
X110671429Y-99168857D01*
X110707714Y-99314000D01*
X110707714Y-99495429D01*
X110671429Y-99640571D01*
X110635143Y-99713143D01*
X110598857Y-99749429D01*
X110526286Y-99785714D01*
X110453714Y-99785714D01*
X110381143Y-99749429D01*
X110344857Y-99713143D01*
X110308572Y-99640571D01*
X110272286Y-99495429D01*
X110272286Y-99314000D01*
X110308572Y-99168857D01*
X110344857Y-99096286D01*
X110381143Y-99060000D01*
X110453714Y-99023714D01*
X111360857Y-99277714D02*
X111360857Y-99785714D01*
X111179428Y-98987429D02*
X110998000Y-99531714D01*
X111469714Y-99531714D01*
X99096286Y-103849714D02*
X98842286Y-103486857D01*
X98660858Y-103849714D02*
X98660858Y-103087714D01*
X98951143Y-103087714D01*
X99023715Y-103124000D01*
X99060000Y-103160286D01*
X99096286Y-103232857D01*
X99096286Y-103341714D01*
X99060000Y-103414286D01*
X99023715Y-103450571D01*
X98951143Y-103486857D01*
X98660858Y-103486857D01*
X99749429Y-103341714D02*
X99749429Y-103849714D01*
X99568000Y-103051429D02*
X99386572Y-103595714D01*
X99858286Y-103595714D01*
X100293714Y-103087714D02*
X100366286Y-103087714D01*
X100438857Y-103124000D01*
X100475143Y-103160286D01*
X100511429Y-103232857D01*
X100547714Y-103378000D01*
X100547714Y-103559429D01*
X100511429Y-103704571D01*
X100475143Y-103777143D01*
X100438857Y-103813429D01*
X100366286Y-103849714D01*
X100293714Y-103849714D01*
X100221143Y-103813429D01*
X100184857Y-103777143D01*
X100148572Y-103704571D01*
X100112286Y-103559429D01*
X100112286Y-103378000D01*
X100148572Y-103232857D01*
X100184857Y-103160286D01*
X100221143Y-103124000D01*
X100293714Y-103087714D01*
X101237143Y-103087714D02*
X100874286Y-103087714D01*
X100838000Y-103450571D01*
X100874286Y-103414286D01*
X100946857Y-103378000D01*
X101128286Y-103378000D01*
X101200857Y-103414286D01*
X101237143Y-103450571D01*
X101273428Y-103523143D01*
X101273428Y-103704571D01*
X101237143Y-103777143D01*
X101200857Y-103813429D01*
X101128286Y-103849714D01*
X100946857Y-103849714D01*
X100874286Y-103813429D01*
X100838000Y-103777143D01*
X109256286Y-94578714D02*
X109002286Y-94215857D01*
X108820858Y-94578714D02*
X108820858Y-93816714D01*
X109111143Y-93816714D01*
X109183715Y-93853000D01*
X109220000Y-93889286D01*
X109256286Y-93961857D01*
X109256286Y-94070714D01*
X109220000Y-94143286D01*
X109183715Y-94179571D01*
X109111143Y-94215857D01*
X108820858Y-94215857D01*
X109909429Y-94070714D02*
X109909429Y-94578714D01*
X109728000Y-93780429D02*
X109546572Y-94324714D01*
X110018286Y-94324714D01*
X110453714Y-93816714D02*
X110526286Y-93816714D01*
X110598857Y-93853000D01*
X110635143Y-93889286D01*
X110671429Y-93961857D01*
X110707714Y-94107000D01*
X110707714Y-94288429D01*
X110671429Y-94433571D01*
X110635143Y-94506143D01*
X110598857Y-94542429D01*
X110526286Y-94578714D01*
X110453714Y-94578714D01*
X110381143Y-94542429D01*
X110344857Y-94506143D01*
X110308572Y-94433571D01*
X110272286Y-94288429D01*
X110272286Y-94107000D01*
X110308572Y-93961857D01*
X110344857Y-93889286D01*
X110381143Y-93853000D01*
X110453714Y-93816714D01*
X111360857Y-93816714D02*
X111215714Y-93816714D01*
X111143143Y-93853000D01*
X111106857Y-93889286D01*
X111034286Y-93998143D01*
X110998000Y-94143286D01*
X110998000Y-94433571D01*
X111034286Y-94506143D01*
X111070571Y-94542429D01*
X111143143Y-94578714D01*
X111288286Y-94578714D01*
X111360857Y-94542429D01*
X111397143Y-94506143D01*
X111433428Y-94433571D01*
X111433428Y-94252143D01*
X111397143Y-94179571D01*
X111360857Y-94143286D01*
X111288286Y-94107000D01*
X111143143Y-94107000D01*
X111070571Y-94143286D01*
X111034286Y-94179571D01*
X110998000Y-94252143D01*
X53303714Y-95975714D02*
X52940857Y-96229714D01*
X53303714Y-96411142D02*
X52541714Y-96411142D01*
X52541714Y-96120857D01*
X52578000Y-96048285D01*
X52614286Y-96012000D01*
X52686857Y-95975714D01*
X52795714Y-95975714D01*
X52868286Y-96012000D01*
X52904571Y-96048285D01*
X52940857Y-96120857D01*
X52940857Y-96411142D01*
X52795714Y-95322571D02*
X53303714Y-95322571D01*
X52505429Y-95504000D02*
X53049714Y-95685428D01*
X53049714Y-95213714D01*
X52541714Y-94778286D02*
X52541714Y-94705714D01*
X52578000Y-94633143D01*
X52614286Y-94596857D01*
X52686857Y-94560571D01*
X52832000Y-94524286D01*
X53013429Y-94524286D01*
X53158571Y-94560571D01*
X53231143Y-94596857D01*
X53267429Y-94633143D01*
X53303714Y-94705714D01*
X53303714Y-94778286D01*
X53267429Y-94850857D01*
X53231143Y-94887143D01*
X53158571Y-94923428D01*
X53013429Y-94959714D01*
X52832000Y-94959714D01*
X52686857Y-94923428D01*
X52614286Y-94887143D01*
X52578000Y-94850857D01*
X52541714Y-94778286D01*
X52541714Y-94270286D02*
X52541714Y-93762286D01*
X53303714Y-94088857D01*
X68162714Y-95975714D02*
X67799857Y-96229714D01*
X68162714Y-96411142D02*
X67400714Y-96411142D01*
X67400714Y-96120857D01*
X67437000Y-96048285D01*
X67473286Y-96012000D01*
X67545857Y-95975714D01*
X67654714Y-95975714D01*
X67727286Y-96012000D01*
X67763571Y-96048285D01*
X67799857Y-96120857D01*
X67799857Y-96411142D01*
X67654714Y-95322571D02*
X68162714Y-95322571D01*
X67364429Y-95504000D02*
X67908714Y-95685428D01*
X67908714Y-95213714D01*
X67400714Y-94778286D02*
X67400714Y-94705714D01*
X67437000Y-94633143D01*
X67473286Y-94596857D01*
X67545857Y-94560571D01*
X67691000Y-94524286D01*
X67872429Y-94524286D01*
X68017571Y-94560571D01*
X68090143Y-94596857D01*
X68126429Y-94633143D01*
X68162714Y-94705714D01*
X68162714Y-94778286D01*
X68126429Y-94850857D01*
X68090143Y-94887143D01*
X68017571Y-94923428D01*
X67872429Y-94959714D01*
X67691000Y-94959714D01*
X67545857Y-94923428D01*
X67473286Y-94887143D01*
X67437000Y-94850857D01*
X67400714Y-94778286D01*
X67727286Y-94088857D02*
X67691000Y-94161429D01*
X67654714Y-94197714D01*
X67582143Y-94234000D01*
X67545857Y-94234000D01*
X67473286Y-94197714D01*
X67437000Y-94161429D01*
X67400714Y-94088857D01*
X67400714Y-93943714D01*
X67437000Y-93871143D01*
X67473286Y-93834857D01*
X67545857Y-93798572D01*
X67582143Y-93798572D01*
X67654714Y-93834857D01*
X67691000Y-93871143D01*
X67727286Y-93943714D01*
X67727286Y-94088857D01*
X67763571Y-94161429D01*
X67799857Y-94197714D01*
X67872429Y-94234000D01*
X68017571Y-94234000D01*
X68090143Y-94197714D01*
X68126429Y-94161429D01*
X68162714Y-94088857D01*
X68162714Y-93943714D01*
X68126429Y-93871143D01*
X68090143Y-93834857D01*
X68017571Y-93798572D01*
X67872429Y-93798572D01*
X67799857Y-93834857D01*
X67763571Y-93871143D01*
X67727286Y-93943714D01*
X83275714Y-96229714D02*
X82912857Y-96483714D01*
X83275714Y-96665142D02*
X82513714Y-96665142D01*
X82513714Y-96374857D01*
X82550000Y-96302285D01*
X82586286Y-96266000D01*
X82658857Y-96229714D01*
X82767714Y-96229714D01*
X82840286Y-96266000D01*
X82876571Y-96302285D01*
X82912857Y-96374857D01*
X82912857Y-96665142D01*
X82767714Y-95576571D02*
X83275714Y-95576571D01*
X82477429Y-95758000D02*
X83021714Y-95939428D01*
X83021714Y-95467714D01*
X82513714Y-95032286D02*
X82513714Y-94959714D01*
X82550000Y-94887143D01*
X82586286Y-94850857D01*
X82658857Y-94814571D01*
X82804000Y-94778286D01*
X82985429Y-94778286D01*
X83130571Y-94814571D01*
X83203143Y-94850857D01*
X83239429Y-94887143D01*
X83275714Y-94959714D01*
X83275714Y-95032286D01*
X83239429Y-95104857D01*
X83203143Y-95141143D01*
X83130571Y-95177428D01*
X82985429Y-95213714D01*
X82804000Y-95213714D01*
X82658857Y-95177428D01*
X82586286Y-95141143D01*
X82550000Y-95104857D01*
X82513714Y-95032286D01*
X83275714Y-94415429D02*
X83275714Y-94270286D01*
X83239429Y-94197714D01*
X83203143Y-94161429D01*
X83094286Y-94088857D01*
X82949143Y-94052572D01*
X82658857Y-94052572D01*
X82586286Y-94088857D01*
X82550000Y-94125143D01*
X82513714Y-94197714D01*
X82513714Y-94342857D01*
X82550000Y-94415429D01*
X82586286Y-94451714D01*
X82658857Y-94488000D01*
X82840286Y-94488000D01*
X82912857Y-94451714D01*
X82949143Y-94415429D01*
X82985429Y-94342857D01*
X82985429Y-94197714D01*
X82949143Y-94125143D01*
X82912857Y-94088857D01*
X82840286Y-94052572D01*
D16*
X98004524Y-85415381D02*
X98004524Y-84415381D01*
X98385477Y-84415381D01*
X98480715Y-84463000D01*
X98528334Y-84510619D01*
X98575953Y-84605857D01*
X98575953Y-84748714D01*
X98528334Y-84843952D01*
X98480715Y-84891571D01*
X98385477Y-84939190D01*
X98004524Y-84939190D01*
X99528334Y-85415381D02*
X98956905Y-85415381D01*
X99242619Y-85415381D02*
X99242619Y-84415381D01*
X99147381Y-84558238D01*
X99052143Y-84653476D01*
X98956905Y-84701095D01*
X100147381Y-84415381D02*
X100242620Y-84415381D01*
X100337858Y-84463000D01*
X100385477Y-84510619D01*
X100433096Y-84605857D01*
X100480715Y-84796333D01*
X100480715Y-85034429D01*
X100433096Y-85224905D01*
X100385477Y-85320143D01*
X100337858Y-85367762D01*
X100242620Y-85415381D01*
X100147381Y-85415381D01*
X100052143Y-85367762D01*
X100004524Y-85320143D01*
X99956905Y-85224905D01*
X99909286Y-85034429D01*
X99909286Y-84796333D01*
X99956905Y-84605857D01*
X100004524Y-84510619D01*
X100052143Y-84463000D01*
X100147381Y-84415381D01*
X101385477Y-84415381D02*
X100909286Y-84415381D01*
X100861667Y-84891571D01*
X100909286Y-84843952D01*
X101004524Y-84796333D01*
X101242620Y-84796333D01*
X101337858Y-84843952D01*
X101385477Y-84891571D01*
X101433096Y-84986810D01*
X101433096Y-85224905D01*
X101385477Y-85320143D01*
X101337858Y-85367762D01*
X101242620Y-85415381D01*
X101004524Y-85415381D01*
X100909286Y-85367762D01*
X100861667Y-85320143D01*
M02*
