G04 #@! TF.FileFunction,Soldermask,Bot*
%FSLAX46Y46*%
G04 Gerber Fmt 4.6, Leading zero omitted, Abs format (unit mm)*
G04 Created by KiCad (PCBNEW 4.0.2-4+6225~38~ubuntu14.04.1-stable) date Thu 30 Mar 2017 04:29:04 PM CEST*
%MOMM*%
G01*
G04 APERTURE LIST*
%ADD10C,0.100000*%
%ADD11R,2.032000X2.032000*%
%ADD12O,2.032000X2.032000*%
%ADD13R,2.235200X2.235200*%
%ADD14C,3.200000*%
%ADD15R,2.000000X1.700000*%
%ADD16R,1.700000X1.700000*%
%ADD17O,1.700000X1.700000*%
%ADD18C,2.032000*%
%ADD19C,2.540000*%
%ADD20R,3.000000X2.000000*%
%ADD21C,0.990600*%
%ADD22C,2.286000*%
G04 APERTURE END LIST*
D10*
D11*
X98679000Y-175768000D03*
D12*
X96139000Y-175768000D03*
D11*
X148031200Y-131775200D03*
D12*
X150571200Y-131775200D03*
D13*
X96266000Y-171831000D03*
D14*
X53086000Y-59780000D03*
X53086000Y-102780000D03*
X139086000Y-125860000D03*
X139086000Y-173860000D03*
D15*
X146812000Y-141224000D03*
X146812000Y-138724000D03*
X146812000Y-136224000D03*
X146812000Y-144224000D03*
X146812000Y-146724000D03*
X146812000Y-149224000D03*
X146812000Y-152224000D03*
X146812000Y-154724000D03*
X146812000Y-157224000D03*
X146812000Y-160224000D03*
X146812000Y-162724000D03*
X146812000Y-165224000D03*
D16*
X96520000Y-132207000D03*
D17*
X99060000Y-132207000D03*
X101600000Y-132207000D03*
X104140000Y-132207000D03*
X106680000Y-132207000D03*
X109220000Y-132207000D03*
X111760000Y-132207000D03*
X114300000Y-132207000D03*
D16*
X96520000Y-63500000D03*
D17*
X99060000Y-63500000D03*
X101600000Y-63500000D03*
X104140000Y-63500000D03*
X106680000Y-63500000D03*
X109220000Y-63500000D03*
X111760000Y-63500000D03*
X114300000Y-63500000D03*
D18*
X86730000Y-91577000D03*
X86730000Y-99177000D03*
X66730000Y-99177000D03*
X63230000Y-91577000D03*
X78475000Y-77480000D03*
X78475000Y-85080000D03*
X58475000Y-85080000D03*
X54975000Y-77480000D03*
X82285000Y-63383000D03*
X82285000Y-70983000D03*
X62285000Y-70983000D03*
X58785000Y-63383000D03*
D19*
X53340000Y-94869000D03*
X58420000Y-94879160D03*
D20*
X41275000Y-93472000D03*
X41275000Y-98472000D03*
X46275000Y-98472000D03*
X46275000Y-93472000D03*
X41275000Y-64262000D03*
X41275000Y-69262000D03*
X41275000Y-74262000D03*
X41275000Y-79262000D03*
X41275000Y-84262000D03*
X41275000Y-89262000D03*
X46275000Y-89262000D03*
X46275000Y-84262000D03*
X46275000Y-79262000D03*
X46275000Y-74262000D03*
X46275000Y-69262000D03*
X46275000Y-64262000D03*
D21*
X123952000Y-126492000D03*
X123952000Y-124460000D03*
X129032000Y-125476000D03*
D22*
X129032000Y-128016000D03*
X129032000Y-122936000D03*
X125857000Y-128016000D03*
X125857000Y-122936000D03*
D16*
X95504000Y-146050000D03*
D17*
X95504000Y-148590000D03*
D16*
X100812600Y-143586200D03*
D17*
X100812600Y-146126200D03*
X100812600Y-148666200D03*
M02*
