M48
;DRILL file {KiCad 4.0.0-rc1-stable} date 05/10/2017 19:39:11
;FORMAT={2:4/ absolute / inch / suppress leading zeros}
FMAT,2
INCH,TZ
T1C0.013
T2C0.035
T3C0.039
T4C0.039
T5C0.128
%
G90
G05
M72
T1
X66161Y-37717
X68110Y-37776
X70570Y-40370
X72106Y-38346
X72677Y-42539
X73878Y-40807
X74173Y-39783
X74213Y-41142
X74602Y-41925
X74843Y-40650
X76004Y-40630
X76142Y-39390
X76516Y-39882
X76575Y-38819
X76949Y-39390
X77067Y-40374
X77421Y-33307
X77441Y-39882
X77445Y-42492
X77520Y-38819
X78390Y-39984
X78610Y-35010
X78965Y-39457
X79390Y-39976
X79394Y-42492
X79520Y-38858
X79917Y-39417
X80366Y-38224
X80382Y-38858
X80394Y-37567
X81870Y-36240
X81870Y-37244
X83406Y-39035
X83425Y-37047
X83484Y-35039
X83937Y-37618
X84894Y-35689
X86730Y-33600
X86740Y-37710
X86750Y-35680
T2
X65693Y-38213
X66193Y-39213
X66693Y-38213
X67193Y-39213
X67693Y-38213
X68193Y-39213
X68693Y-38213
X69193Y-39213
T3
X72198Y-36264
X72598Y-38264
X72998Y-36264
T4
X62776Y-40575
X62776Y-41575
X62776Y-43169
X62776Y-44169
X62776Y-45169
X81378Y-34484
X81378Y-35484
X81378Y-36484
X81378Y-37484
X81378Y-38484
X82378Y-34484
X82378Y-35484
X82378Y-36484
X82378Y-37484
X82378Y-38484
X83843Y-31457
X84843Y-31457
T5
X65193Y-35713
X69693Y-35713
T0
M30
