G04 #@! TF.FileFunction,Legend,Bot*
%FSLAX46Y46*%
G04 Gerber Fmt 4.6, Leading zero omitted, Abs format (unit mm)*
G04 Created by KiCad (PCBNEW 4.0.0-rc1-stable) date 05/10/2017 19:39:07*
%MOMM*%
G01*
G04 APERTURE LIST*
%ADD10C,0.100000*%
%ADD11C,0.254000*%
%ADD12C,0.150000*%
%ADD13C,0.120000*%
%ADD14C,0.127000*%
G04 APERTURE END LIST*
D10*
D11*
X185846333Y-108470000D02*
X186269667Y-108470000D01*
X186100333Y-108046667D02*
X186269667Y-108470000D01*
X186100333Y-108893334D01*
X186608333Y-108216000D02*
X186269667Y-108470000D01*
X186608333Y-108724000D01*
D12*
X186725000Y-107650000D02*
X186725000Y-107625000D01*
X190875000Y-107650000D02*
X190875000Y-107535000D01*
X190875000Y-98750000D02*
X190875000Y-98865000D01*
X186725000Y-98750000D02*
X186725000Y-98865000D01*
X186725000Y-107650000D02*
X190875000Y-107650000D01*
X186725000Y-98750000D02*
X190875000Y-98750000D01*
X186725000Y-107625000D02*
X185350000Y-107625000D01*
D13*
X212440000Y-99480000D02*
X212440000Y-98550000D01*
X212440000Y-96320000D02*
X212440000Y-97250000D01*
X212440000Y-96320000D02*
X214600000Y-96320000D01*
X212440000Y-99480000D02*
X213900000Y-99480000D01*
X212440000Y-94480000D02*
X212440000Y-93550000D01*
X212440000Y-91320000D02*
X212440000Y-92250000D01*
X212440000Y-91320000D02*
X214600000Y-91320000D01*
X212440000Y-94480000D02*
X213900000Y-94480000D01*
X212440000Y-89280000D02*
X212440000Y-88350000D01*
X212440000Y-86120000D02*
X212440000Y-87050000D01*
X212440000Y-86120000D02*
X214600000Y-86120000D01*
X212440000Y-89280000D02*
X213900000Y-89280000D01*
D12*
X191300000Y-86800000D02*
X191300000Y-90200000D01*
X191300000Y-90200000D02*
X196100000Y-90200000D01*
X196100000Y-90200000D02*
X196100000Y-86800000D01*
X196100000Y-86800000D02*
X191300000Y-86800000D01*
X187525000Y-83675000D02*
X200325000Y-83675000D01*
X200325000Y-83675000D02*
X200325000Y-76075000D01*
X200325000Y-76075000D02*
X187525000Y-76075000D01*
X187525000Y-76075000D02*
X187525000Y-83675000D01*
D13*
X205370000Y-86260000D02*
X210570000Y-86260000D01*
X205370000Y-96480000D02*
X205370000Y-86260000D01*
X210570000Y-99080000D02*
X210570000Y-86260000D01*
X205370000Y-96480000D02*
X207970000Y-96480000D01*
X207970000Y-96480000D02*
X207970000Y-99080000D01*
X207970000Y-99080000D02*
X210570000Y-99080000D01*
X205370000Y-97750000D02*
X205370000Y-99080000D01*
X205370000Y-99080000D02*
X206700000Y-99080000D01*
X163690000Y-82840000D02*
X178930000Y-82840000D01*
X178930000Y-100870000D02*
X178920000Y-91880000D01*
X178930000Y-100870000D02*
X163690000Y-100870000D01*
X163690000Y-100870000D02*
X163690000Y-91870000D01*
X178920000Y-89540000D02*
X178930000Y-82840000D01*
X163690000Y-89550000D02*
X163690000Y-82840000D01*
X216830000Y-78570000D02*
X216830000Y-81230000D01*
X214230000Y-78570000D02*
X216830000Y-78570000D01*
X214230000Y-81230000D02*
X216830000Y-81230000D01*
X214230000Y-78570000D02*
X214230000Y-81230000D01*
X212960000Y-78570000D02*
X211630000Y-78570000D01*
X211630000Y-78570000D02*
X211630000Y-79900000D01*
X181100000Y-107220000D02*
X182100000Y-107220000D01*
X182100000Y-108920000D02*
X181100000Y-108920000D01*
X180983000Y-103798000D02*
X181983000Y-103798000D01*
X181983000Y-105498000D02*
X180983000Y-105498000D01*
X205860000Y-78610000D02*
X204860000Y-78610000D01*
X204860000Y-76910000D02*
X205860000Y-76910000D01*
X197190000Y-90520000D02*
X197190000Y-89520000D01*
X198890000Y-89520000D02*
X198890000Y-90520000D01*
X205900000Y-82990000D02*
X204900000Y-82990000D01*
X204900000Y-81290000D02*
X205900000Y-81290000D01*
X188303800Y-88968200D02*
X188303800Y-87968200D01*
X190003800Y-87968200D02*
X190003800Y-88968200D01*
X180883000Y-103242000D02*
X182083000Y-103242000D01*
X182083000Y-101482000D02*
X180883000Y-101482000D01*
X169030000Y-105470000D02*
X169030000Y-104270000D01*
X167270000Y-104270000D02*
X167270000Y-105470000D01*
X172320000Y-104320000D02*
X172320000Y-105520000D01*
X174080000Y-105520000D02*
X174080000Y-104320000D01*
X174870000Y-104320000D02*
X174870000Y-105520000D01*
X176630000Y-105520000D02*
X176630000Y-104320000D01*
X193090000Y-92440000D02*
X194290000Y-92440000D01*
X194290000Y-90680000D02*
X193090000Y-90680000D01*
X217790000Y-100060000D02*
X218990000Y-100060000D01*
X218990000Y-98300000D02*
X217790000Y-98300000D01*
X217790000Y-95010000D02*
X218990000Y-95010000D01*
X218990000Y-93250000D02*
X217790000Y-93250000D01*
X217890000Y-89860000D02*
X219090000Y-89860000D01*
X219090000Y-88100000D02*
X217890000Y-88100000D01*
X218990000Y-96050000D02*
X217790000Y-96050000D01*
X217790000Y-97810000D02*
X218990000Y-97810000D01*
X218990000Y-91000000D02*
X217790000Y-91000000D01*
X217790000Y-92760000D02*
X218990000Y-92760000D01*
X219090000Y-85800000D02*
X217890000Y-85800000D01*
X217890000Y-87560000D02*
X219090000Y-87560000D01*
D14*
X193589714Y-104270430D02*
X192827714Y-104270430D01*
X193517143Y-105068715D02*
X193553429Y-105032429D01*
X193589714Y-104923572D01*
X193589714Y-104851001D01*
X193553429Y-104742144D01*
X193480857Y-104669572D01*
X193408286Y-104633287D01*
X193263143Y-104597001D01*
X193154286Y-104597001D01*
X193009143Y-104633287D01*
X192936571Y-104669572D01*
X192864000Y-104742144D01*
X192827714Y-104851001D01*
X192827714Y-104923572D01*
X192864000Y-105032429D01*
X192900286Y-105068715D01*
X193589714Y-105794429D02*
X193589714Y-105359001D01*
X193589714Y-105576715D02*
X192827714Y-105576715D01*
X192936571Y-105504144D01*
X193009143Y-105431572D01*
X193045429Y-105359001D01*
X192827714Y-106266143D02*
X192827714Y-106338715D01*
X192864000Y-106411286D01*
X192900286Y-106447572D01*
X192972857Y-106483858D01*
X193118000Y-106520143D01*
X193299429Y-106520143D01*
X193444571Y-106483858D01*
X193517143Y-106447572D01*
X193553429Y-106411286D01*
X193589714Y-106338715D01*
X193589714Y-106266143D01*
X193553429Y-106193572D01*
X193517143Y-106157286D01*
X193444571Y-106121001D01*
X193299429Y-106084715D01*
X193118000Y-106084715D01*
X192972857Y-106121001D01*
X192900286Y-106157286D01*
X192864000Y-106193572D01*
X192827714Y-106266143D01*
X193589714Y-107245857D02*
X193589714Y-106810429D01*
X193589714Y-107028143D02*
X192827714Y-107028143D01*
X192936571Y-106955572D01*
X193009143Y-106883000D01*
X193045429Y-106810429D01*
X214031285Y-100747286D02*
X214103857Y-100711000D01*
X214176428Y-100638429D01*
X214285285Y-100529571D01*
X214357857Y-100493286D01*
X214430428Y-100493286D01*
X214394143Y-100674714D02*
X214466714Y-100638429D01*
X214539285Y-100565857D01*
X214575571Y-100420714D01*
X214575571Y-100166714D01*
X214539285Y-100021571D01*
X214466714Y-99949000D01*
X214394143Y-99912714D01*
X214249000Y-99912714D01*
X214176428Y-99949000D01*
X214103857Y-100021571D01*
X214067571Y-100166714D01*
X214067571Y-100420714D01*
X214103857Y-100565857D01*
X214176428Y-100638429D01*
X214249000Y-100674714D01*
X214394143Y-100674714D01*
X213813571Y-99912714D02*
X213341857Y-99912714D01*
X213595857Y-100203000D01*
X213486999Y-100203000D01*
X213414428Y-100239286D01*
X213378142Y-100275571D01*
X213341857Y-100348143D01*
X213341857Y-100529571D01*
X213378142Y-100602143D01*
X213414428Y-100638429D01*
X213486999Y-100674714D01*
X213704714Y-100674714D01*
X213777285Y-100638429D01*
X213813571Y-100602143D01*
X212870143Y-99912714D02*
X212797571Y-99912714D01*
X212725000Y-99949000D01*
X212688714Y-99985286D01*
X212652428Y-100057857D01*
X212616143Y-100203000D01*
X212616143Y-100384429D01*
X212652428Y-100529571D01*
X212688714Y-100602143D01*
X212725000Y-100638429D01*
X212797571Y-100674714D01*
X212870143Y-100674714D01*
X212942714Y-100638429D01*
X212979000Y-100602143D01*
X213015285Y-100529571D01*
X213051571Y-100384429D01*
X213051571Y-100203000D01*
X213015285Y-100057857D01*
X212979000Y-99985286D01*
X212942714Y-99949000D01*
X212870143Y-99912714D01*
X211890429Y-100674714D02*
X212325857Y-100674714D01*
X212108143Y-100674714D02*
X212108143Y-99912714D01*
X212180714Y-100021571D01*
X212253286Y-100094143D01*
X212325857Y-100130429D01*
X213998285Y-91117286D02*
X214070857Y-91081000D01*
X214143428Y-91008429D01*
X214252285Y-90899571D01*
X214324857Y-90863286D01*
X214397428Y-90863286D01*
X214361143Y-91044714D02*
X214433714Y-91008429D01*
X214506285Y-90935857D01*
X214542571Y-90790714D01*
X214542571Y-90536714D01*
X214506285Y-90391571D01*
X214433714Y-90319000D01*
X214361143Y-90282714D01*
X214216000Y-90282714D01*
X214143428Y-90319000D01*
X214070857Y-90391571D01*
X214034571Y-90536714D01*
X214034571Y-90790714D01*
X214070857Y-90935857D01*
X214143428Y-91008429D01*
X214216000Y-91044714D01*
X214361143Y-91044714D01*
X213780571Y-90282714D02*
X213308857Y-90282714D01*
X213562857Y-90573000D01*
X213453999Y-90573000D01*
X213381428Y-90609286D01*
X213345142Y-90645571D01*
X213308857Y-90718143D01*
X213308857Y-90899571D01*
X213345142Y-90972143D01*
X213381428Y-91008429D01*
X213453999Y-91044714D01*
X213671714Y-91044714D01*
X213744285Y-91008429D01*
X213780571Y-90972143D01*
X212837143Y-90282714D02*
X212764571Y-90282714D01*
X212692000Y-90319000D01*
X212655714Y-90355286D01*
X212619428Y-90427857D01*
X212583143Y-90573000D01*
X212583143Y-90754429D01*
X212619428Y-90899571D01*
X212655714Y-90972143D01*
X212692000Y-91008429D01*
X212764571Y-91044714D01*
X212837143Y-91044714D01*
X212909714Y-91008429D01*
X212946000Y-90972143D01*
X212982285Y-90899571D01*
X213018571Y-90754429D01*
X213018571Y-90573000D01*
X212982285Y-90427857D01*
X212946000Y-90355286D01*
X212909714Y-90319000D01*
X212837143Y-90282714D01*
X212292857Y-90355286D02*
X212256571Y-90319000D01*
X212184000Y-90282714D01*
X212002571Y-90282714D01*
X211930000Y-90319000D01*
X211893714Y-90355286D01*
X211857429Y-90427857D01*
X211857429Y-90500429D01*
X211893714Y-90609286D01*
X212329143Y-91044714D01*
X211857429Y-91044714D01*
X213998285Y-85817286D02*
X214070857Y-85781000D01*
X214143428Y-85708429D01*
X214252285Y-85599571D01*
X214324857Y-85563286D01*
X214397428Y-85563286D01*
X214361143Y-85744714D02*
X214433714Y-85708429D01*
X214506285Y-85635857D01*
X214542571Y-85490714D01*
X214542571Y-85236714D01*
X214506285Y-85091571D01*
X214433714Y-85019000D01*
X214361143Y-84982714D01*
X214216000Y-84982714D01*
X214143428Y-85019000D01*
X214070857Y-85091571D01*
X214034571Y-85236714D01*
X214034571Y-85490714D01*
X214070857Y-85635857D01*
X214143428Y-85708429D01*
X214216000Y-85744714D01*
X214361143Y-85744714D01*
X213780571Y-84982714D02*
X213308857Y-84982714D01*
X213562857Y-85273000D01*
X213453999Y-85273000D01*
X213381428Y-85309286D01*
X213345142Y-85345571D01*
X213308857Y-85418143D01*
X213308857Y-85599571D01*
X213345142Y-85672143D01*
X213381428Y-85708429D01*
X213453999Y-85744714D01*
X213671714Y-85744714D01*
X213744285Y-85708429D01*
X213780571Y-85672143D01*
X212837143Y-84982714D02*
X212764571Y-84982714D01*
X212692000Y-85019000D01*
X212655714Y-85055286D01*
X212619428Y-85127857D01*
X212583143Y-85273000D01*
X212583143Y-85454429D01*
X212619428Y-85599571D01*
X212655714Y-85672143D01*
X212692000Y-85708429D01*
X212764571Y-85744714D01*
X212837143Y-85744714D01*
X212909714Y-85708429D01*
X212946000Y-85672143D01*
X212982285Y-85599571D01*
X213018571Y-85454429D01*
X213018571Y-85273000D01*
X212982285Y-85127857D01*
X212946000Y-85055286D01*
X212909714Y-85019000D01*
X212837143Y-84982714D01*
X212329143Y-84982714D02*
X211857429Y-84982714D01*
X212111429Y-85273000D01*
X212002571Y-85273000D01*
X211930000Y-85309286D01*
X211893714Y-85345571D01*
X211857429Y-85418143D01*
X211857429Y-85599571D01*
X211893714Y-85672143D01*
X211930000Y-85708429D01*
X212002571Y-85744714D01*
X212220286Y-85744714D01*
X212292857Y-85708429D01*
X212329143Y-85672143D01*
X194688785Y-85760214D02*
X194688785Y-86377071D01*
X194652500Y-86449643D01*
X194616214Y-86485929D01*
X194543643Y-86522214D01*
X194398500Y-86522214D01*
X194325928Y-86485929D01*
X194289643Y-86449643D01*
X194253357Y-86377071D01*
X194253357Y-85760214D01*
X193926785Y-85832786D02*
X193890499Y-85796500D01*
X193817928Y-85760214D01*
X193636499Y-85760214D01*
X193563928Y-85796500D01*
X193527642Y-85832786D01*
X193491357Y-85905357D01*
X193491357Y-85977929D01*
X193527642Y-86086786D01*
X193963071Y-86522214D01*
X193491357Y-86522214D01*
X193019643Y-85760214D02*
X192947071Y-85760214D01*
X192874500Y-85796500D01*
X192838214Y-85832786D01*
X192801928Y-85905357D01*
X192765643Y-86050500D01*
X192765643Y-86231929D01*
X192801928Y-86377071D01*
X192838214Y-86449643D01*
X192874500Y-86485929D01*
X192947071Y-86522214D01*
X193019643Y-86522214D01*
X193092214Y-86485929D01*
X193128500Y-86449643D01*
X193164785Y-86377071D01*
X193201071Y-86231929D01*
X193201071Y-86050500D01*
X193164785Y-85905357D01*
X193128500Y-85832786D01*
X193092214Y-85796500D01*
X193019643Y-85760214D01*
X192475357Y-85832786D02*
X192439071Y-85796500D01*
X192366500Y-85760214D01*
X192185071Y-85760214D01*
X192112500Y-85796500D01*
X192076214Y-85832786D01*
X192039929Y-85905357D01*
X192039929Y-85977929D01*
X192076214Y-86086786D01*
X192511643Y-86522214D01*
X192039929Y-86522214D01*
X186157914Y-76384315D02*
X186774771Y-76384315D01*
X186847343Y-76420600D01*
X186883629Y-76456886D01*
X186919914Y-76529457D01*
X186919914Y-76674600D01*
X186883629Y-76747172D01*
X186847343Y-76783457D01*
X186774771Y-76819743D01*
X186157914Y-76819743D01*
X186230486Y-77146315D02*
X186194200Y-77182601D01*
X186157914Y-77255172D01*
X186157914Y-77436601D01*
X186194200Y-77509172D01*
X186230486Y-77545458D01*
X186303057Y-77581743D01*
X186375629Y-77581743D01*
X186484486Y-77545458D01*
X186919914Y-77110029D01*
X186919914Y-77581743D01*
X186157914Y-78053457D02*
X186157914Y-78126029D01*
X186194200Y-78198600D01*
X186230486Y-78234886D01*
X186303057Y-78271172D01*
X186448200Y-78307457D01*
X186629629Y-78307457D01*
X186774771Y-78271172D01*
X186847343Y-78234886D01*
X186883629Y-78198600D01*
X186919914Y-78126029D01*
X186919914Y-78053457D01*
X186883629Y-77980886D01*
X186847343Y-77944600D01*
X186774771Y-77908315D01*
X186629629Y-77872029D01*
X186448200Y-77872029D01*
X186303057Y-77908315D01*
X186230486Y-77944600D01*
X186194200Y-77980886D01*
X186157914Y-78053457D01*
X186919914Y-79033171D02*
X186919914Y-78597743D01*
X186919914Y-78815457D02*
X186157914Y-78815457D01*
X186266771Y-78742886D01*
X186339343Y-78670314D01*
X186375629Y-78597743D01*
X209258142Y-100424714D02*
X209258142Y-99662714D01*
X208967857Y-99662714D01*
X208895285Y-99699000D01*
X208859000Y-99735286D01*
X208822714Y-99807857D01*
X208822714Y-99916714D01*
X208859000Y-99989286D01*
X208895285Y-100025571D01*
X208967857Y-100061857D01*
X209258142Y-100061857D01*
X208097000Y-100424714D02*
X208532428Y-100424714D01*
X208314714Y-100424714D02*
X208314714Y-99662714D01*
X208387285Y-99771571D01*
X208459857Y-99844143D01*
X208532428Y-99880429D01*
X207625286Y-99662714D02*
X207552714Y-99662714D01*
X207480143Y-99699000D01*
X207443857Y-99735286D01*
X207407571Y-99807857D01*
X207371286Y-99953000D01*
X207371286Y-100134429D01*
X207407571Y-100279571D01*
X207443857Y-100352143D01*
X207480143Y-100388429D01*
X207552714Y-100424714D01*
X207625286Y-100424714D01*
X207697857Y-100388429D01*
X207734143Y-100352143D01*
X207770428Y-100279571D01*
X207806714Y-100134429D01*
X207806714Y-99953000D01*
X207770428Y-99807857D01*
X207734143Y-99735286D01*
X207697857Y-99699000D01*
X207625286Y-99662714D01*
X207117286Y-99662714D02*
X206645572Y-99662714D01*
X206899572Y-99953000D01*
X206790714Y-99953000D01*
X206718143Y-99989286D01*
X206681857Y-100025571D01*
X206645572Y-100098143D01*
X206645572Y-100279571D01*
X206681857Y-100352143D01*
X206718143Y-100388429D01*
X206790714Y-100424714D01*
X207008429Y-100424714D01*
X207081000Y-100388429D01*
X207117286Y-100352143D01*
X172848142Y-86224714D02*
X172848142Y-85462714D01*
X172557857Y-85462714D01*
X172485285Y-85499000D01*
X172449000Y-85535286D01*
X172412714Y-85607857D01*
X172412714Y-85716714D01*
X172449000Y-85789286D01*
X172485285Y-85825571D01*
X172557857Y-85861857D01*
X172848142Y-85861857D01*
X171687000Y-86224714D02*
X172122428Y-86224714D01*
X171904714Y-86224714D02*
X171904714Y-85462714D01*
X171977285Y-85571571D01*
X172049857Y-85644143D01*
X172122428Y-85680429D01*
X171215286Y-85462714D02*
X171142714Y-85462714D01*
X171070143Y-85499000D01*
X171033857Y-85535286D01*
X170997571Y-85607857D01*
X170961286Y-85753000D01*
X170961286Y-85934429D01*
X170997571Y-86079571D01*
X171033857Y-86152143D01*
X171070143Y-86188429D01*
X171142714Y-86224714D01*
X171215286Y-86224714D01*
X171287857Y-86188429D01*
X171324143Y-86152143D01*
X171360428Y-86079571D01*
X171396714Y-85934429D01*
X171396714Y-85753000D01*
X171360428Y-85607857D01*
X171324143Y-85535286D01*
X171287857Y-85499000D01*
X171215286Y-85462714D01*
X170671000Y-85535286D02*
X170634714Y-85499000D01*
X170562143Y-85462714D01*
X170380714Y-85462714D01*
X170308143Y-85499000D01*
X170271857Y-85535286D01*
X170235572Y-85607857D01*
X170235572Y-85680429D01*
X170271857Y-85789286D01*
X170707286Y-86224714D01*
X170235572Y-86224714D01*
X210974714Y-78611858D02*
X210212714Y-78611858D01*
X210212714Y-78902143D01*
X210249000Y-78974715D01*
X210285286Y-79011000D01*
X210357857Y-79047286D01*
X210466714Y-79047286D01*
X210539286Y-79011000D01*
X210575571Y-78974715D01*
X210611857Y-78902143D01*
X210611857Y-78611858D01*
X210974714Y-79773000D02*
X210974714Y-79337572D01*
X210974714Y-79555286D02*
X210212714Y-79555286D01*
X210321571Y-79482715D01*
X210394143Y-79410143D01*
X210430429Y-79337572D01*
X210212714Y-80244714D02*
X210212714Y-80317286D01*
X210249000Y-80389857D01*
X210285286Y-80426143D01*
X210357857Y-80462429D01*
X210503000Y-80498714D01*
X210684429Y-80498714D01*
X210829571Y-80462429D01*
X210902143Y-80426143D01*
X210938429Y-80389857D01*
X210974714Y-80317286D01*
X210974714Y-80244714D01*
X210938429Y-80172143D01*
X210902143Y-80135857D01*
X210829571Y-80099572D01*
X210684429Y-80063286D01*
X210503000Y-80063286D01*
X210357857Y-80099572D01*
X210285286Y-80135857D01*
X210249000Y-80172143D01*
X210212714Y-80244714D01*
X210212714Y-80752714D02*
X210212714Y-81260714D01*
X210974714Y-80934143D01*
X182452714Y-106842143D02*
X182489000Y-106878429D01*
X182597857Y-106914714D01*
X182670428Y-106914714D01*
X182779285Y-106878429D01*
X182851857Y-106805857D01*
X182888142Y-106733286D01*
X182924428Y-106588143D01*
X182924428Y-106479286D01*
X182888142Y-106334143D01*
X182851857Y-106261571D01*
X182779285Y-106189000D01*
X182670428Y-106152714D01*
X182597857Y-106152714D01*
X182489000Y-106189000D01*
X182452714Y-106225286D01*
X181727000Y-106914714D02*
X182162428Y-106914714D01*
X181944714Y-106914714D02*
X181944714Y-106152714D01*
X182017285Y-106261571D01*
X182089857Y-106334143D01*
X182162428Y-106370429D01*
X181255286Y-106152714D02*
X181182714Y-106152714D01*
X181110143Y-106189000D01*
X181073857Y-106225286D01*
X181037571Y-106297857D01*
X181001286Y-106443000D01*
X181001286Y-106624429D01*
X181037571Y-106769571D01*
X181073857Y-106842143D01*
X181110143Y-106878429D01*
X181182714Y-106914714D01*
X181255286Y-106914714D01*
X181327857Y-106878429D01*
X181364143Y-106842143D01*
X181400428Y-106769571D01*
X181436714Y-106624429D01*
X181436714Y-106443000D01*
X181400428Y-106297857D01*
X181364143Y-106225286D01*
X181327857Y-106189000D01*
X181255286Y-106152714D01*
X180275572Y-106914714D02*
X180711000Y-106914714D01*
X180493286Y-106914714D02*
X180493286Y-106152714D01*
X180565857Y-106261571D01*
X180638429Y-106334143D01*
X180711000Y-106370429D01*
X182335714Y-103420143D02*
X182372000Y-103456429D01*
X182480857Y-103492714D01*
X182553428Y-103492714D01*
X182662285Y-103456429D01*
X182734857Y-103383857D01*
X182771142Y-103311286D01*
X182807428Y-103166143D01*
X182807428Y-103057286D01*
X182771142Y-102912143D01*
X182734857Y-102839571D01*
X182662285Y-102767000D01*
X182553428Y-102730714D01*
X182480857Y-102730714D01*
X182372000Y-102767000D01*
X182335714Y-102803286D01*
X181610000Y-103492714D02*
X182045428Y-103492714D01*
X181827714Y-103492714D02*
X181827714Y-102730714D01*
X181900285Y-102839571D01*
X181972857Y-102912143D01*
X182045428Y-102948429D01*
X181138286Y-102730714D02*
X181065714Y-102730714D01*
X180993143Y-102767000D01*
X180956857Y-102803286D01*
X180920571Y-102875857D01*
X180884286Y-103021000D01*
X180884286Y-103202429D01*
X180920571Y-103347571D01*
X180956857Y-103420143D01*
X180993143Y-103456429D01*
X181065714Y-103492714D01*
X181138286Y-103492714D01*
X181210857Y-103456429D01*
X181247143Y-103420143D01*
X181283428Y-103347571D01*
X181319714Y-103202429D01*
X181319714Y-103021000D01*
X181283428Y-102875857D01*
X181247143Y-102803286D01*
X181210857Y-102767000D01*
X181138286Y-102730714D01*
X180594000Y-102803286D02*
X180557714Y-102767000D01*
X180485143Y-102730714D01*
X180303714Y-102730714D01*
X180231143Y-102767000D01*
X180194857Y-102803286D01*
X180158572Y-102875857D01*
X180158572Y-102948429D01*
X180194857Y-103057286D01*
X180630286Y-103492714D01*
X180158572Y-103492714D01*
X206212714Y-79532143D02*
X206249000Y-79568429D01*
X206357857Y-79604714D01*
X206430428Y-79604714D01*
X206539285Y-79568429D01*
X206611857Y-79495857D01*
X206648142Y-79423286D01*
X206684428Y-79278143D01*
X206684428Y-79169286D01*
X206648142Y-79024143D01*
X206611857Y-78951571D01*
X206539285Y-78879000D01*
X206430428Y-78842714D01*
X206357857Y-78842714D01*
X206249000Y-78879000D01*
X206212714Y-78915286D01*
X205922428Y-78915286D02*
X205886142Y-78879000D01*
X205813571Y-78842714D01*
X205632142Y-78842714D01*
X205559571Y-78879000D01*
X205523285Y-78915286D01*
X205487000Y-78987857D01*
X205487000Y-79060429D01*
X205523285Y-79169286D01*
X205958714Y-79604714D01*
X205487000Y-79604714D01*
X205015286Y-78842714D02*
X204942714Y-78842714D01*
X204870143Y-78879000D01*
X204833857Y-78915286D01*
X204797571Y-78987857D01*
X204761286Y-79133000D01*
X204761286Y-79314429D01*
X204797571Y-79459571D01*
X204833857Y-79532143D01*
X204870143Y-79568429D01*
X204942714Y-79604714D01*
X205015286Y-79604714D01*
X205087857Y-79568429D01*
X205124143Y-79532143D01*
X205160428Y-79459571D01*
X205196714Y-79314429D01*
X205196714Y-79133000D01*
X205160428Y-78987857D01*
X205124143Y-78915286D01*
X205087857Y-78879000D01*
X205015286Y-78842714D01*
X204035572Y-79604714D02*
X204471000Y-79604714D01*
X204253286Y-79604714D02*
X204253286Y-78842714D01*
X204325857Y-78951571D01*
X204398429Y-79024143D01*
X204471000Y-79060429D01*
X200043143Y-89317286D02*
X200079429Y-89281000D01*
X200115714Y-89172143D01*
X200115714Y-89099572D01*
X200079429Y-88990715D01*
X200006857Y-88918143D01*
X199934286Y-88881858D01*
X199789143Y-88845572D01*
X199680286Y-88845572D01*
X199535143Y-88881858D01*
X199462571Y-88918143D01*
X199390000Y-88990715D01*
X199353714Y-89099572D01*
X199353714Y-89172143D01*
X199390000Y-89281000D01*
X199426286Y-89317286D01*
X199426286Y-89607572D02*
X199390000Y-89643858D01*
X199353714Y-89716429D01*
X199353714Y-89897858D01*
X199390000Y-89970429D01*
X199426286Y-90006715D01*
X199498857Y-90043000D01*
X199571429Y-90043000D01*
X199680286Y-90006715D01*
X200115714Y-89571286D01*
X200115714Y-90043000D01*
X199353714Y-90514714D02*
X199353714Y-90587286D01*
X199390000Y-90659857D01*
X199426286Y-90696143D01*
X199498857Y-90732429D01*
X199644000Y-90768714D01*
X199825429Y-90768714D01*
X199970571Y-90732429D01*
X200043143Y-90696143D01*
X200079429Y-90659857D01*
X200115714Y-90587286D01*
X200115714Y-90514714D01*
X200079429Y-90442143D01*
X200043143Y-90405857D01*
X199970571Y-90369572D01*
X199825429Y-90333286D01*
X199644000Y-90333286D01*
X199498857Y-90369572D01*
X199426286Y-90405857D01*
X199390000Y-90442143D01*
X199353714Y-90514714D01*
X199426286Y-91059000D02*
X199390000Y-91095286D01*
X199353714Y-91167857D01*
X199353714Y-91349286D01*
X199390000Y-91421857D01*
X199426286Y-91458143D01*
X199498857Y-91494428D01*
X199571429Y-91494428D01*
X199680286Y-91458143D01*
X200115714Y-91022714D01*
X200115714Y-91494428D01*
X206252714Y-83912143D02*
X206289000Y-83948429D01*
X206397857Y-83984714D01*
X206470428Y-83984714D01*
X206579285Y-83948429D01*
X206651857Y-83875857D01*
X206688142Y-83803286D01*
X206724428Y-83658143D01*
X206724428Y-83549286D01*
X206688142Y-83404143D01*
X206651857Y-83331571D01*
X206579285Y-83259000D01*
X206470428Y-83222714D01*
X206397857Y-83222714D01*
X206289000Y-83259000D01*
X206252714Y-83295286D01*
X205962428Y-83295286D02*
X205926142Y-83259000D01*
X205853571Y-83222714D01*
X205672142Y-83222714D01*
X205599571Y-83259000D01*
X205563285Y-83295286D01*
X205527000Y-83367857D01*
X205527000Y-83440429D01*
X205563285Y-83549286D01*
X205998714Y-83984714D01*
X205527000Y-83984714D01*
X205055286Y-83222714D02*
X204982714Y-83222714D01*
X204910143Y-83259000D01*
X204873857Y-83295286D01*
X204837571Y-83367857D01*
X204801286Y-83513000D01*
X204801286Y-83694429D01*
X204837571Y-83839571D01*
X204873857Y-83912143D01*
X204910143Y-83948429D01*
X204982714Y-83984714D01*
X205055286Y-83984714D01*
X205127857Y-83948429D01*
X205164143Y-83912143D01*
X205200428Y-83839571D01*
X205236714Y-83694429D01*
X205236714Y-83513000D01*
X205200428Y-83367857D01*
X205164143Y-83295286D01*
X205127857Y-83259000D01*
X205055286Y-83222714D01*
X204547286Y-83222714D02*
X204075572Y-83222714D01*
X204329572Y-83513000D01*
X204220714Y-83513000D01*
X204148143Y-83549286D01*
X204111857Y-83585571D01*
X204075572Y-83658143D01*
X204075572Y-83839571D01*
X204111857Y-83912143D01*
X204148143Y-83948429D01*
X204220714Y-83984714D01*
X204438429Y-83984714D01*
X204511000Y-83948429D01*
X204547286Y-83912143D01*
X187925943Y-87615486D02*
X187962229Y-87579200D01*
X187998514Y-87470343D01*
X187998514Y-87397772D01*
X187962229Y-87288915D01*
X187889657Y-87216343D01*
X187817086Y-87180058D01*
X187671943Y-87143772D01*
X187563086Y-87143772D01*
X187417943Y-87180058D01*
X187345371Y-87216343D01*
X187272800Y-87288915D01*
X187236514Y-87397772D01*
X187236514Y-87470343D01*
X187272800Y-87579200D01*
X187309086Y-87615486D01*
X187309086Y-87905772D02*
X187272800Y-87942058D01*
X187236514Y-88014629D01*
X187236514Y-88196058D01*
X187272800Y-88268629D01*
X187309086Y-88304915D01*
X187381657Y-88341200D01*
X187454229Y-88341200D01*
X187563086Y-88304915D01*
X187998514Y-87869486D01*
X187998514Y-88341200D01*
X187236514Y-88812914D02*
X187236514Y-88885486D01*
X187272800Y-88958057D01*
X187309086Y-88994343D01*
X187381657Y-89030629D01*
X187526800Y-89066914D01*
X187708229Y-89066914D01*
X187853371Y-89030629D01*
X187925943Y-88994343D01*
X187962229Y-88958057D01*
X187998514Y-88885486D01*
X187998514Y-88812914D01*
X187962229Y-88740343D01*
X187925943Y-88704057D01*
X187853371Y-88667772D01*
X187708229Y-88631486D01*
X187526800Y-88631486D01*
X187381657Y-88667772D01*
X187309086Y-88704057D01*
X187272800Y-88740343D01*
X187236514Y-88812914D01*
X187490514Y-89720057D02*
X187998514Y-89720057D01*
X187200229Y-89538628D02*
X187744514Y-89357200D01*
X187744514Y-89828914D01*
X182335714Y-101056714D02*
X182589714Y-100693857D01*
X182771142Y-101056714D02*
X182771142Y-100294714D01*
X182480857Y-100294714D01*
X182408285Y-100331000D01*
X182372000Y-100367286D01*
X182335714Y-100439857D01*
X182335714Y-100548714D01*
X182372000Y-100621286D01*
X182408285Y-100657571D01*
X182480857Y-100693857D01*
X182771142Y-100693857D01*
X181610000Y-101056714D02*
X182045428Y-101056714D01*
X181827714Y-101056714D02*
X181827714Y-100294714D01*
X181900285Y-100403571D01*
X181972857Y-100476143D01*
X182045428Y-100512429D01*
X181138286Y-100294714D02*
X181065714Y-100294714D01*
X180993143Y-100331000D01*
X180956857Y-100367286D01*
X180920571Y-100439857D01*
X180884286Y-100585000D01*
X180884286Y-100766429D01*
X180920571Y-100911571D01*
X180956857Y-100984143D01*
X180993143Y-101020429D01*
X181065714Y-101056714D01*
X181138286Y-101056714D01*
X181210857Y-101020429D01*
X181247143Y-100984143D01*
X181283428Y-100911571D01*
X181319714Y-100766429D01*
X181319714Y-100585000D01*
X181283428Y-100439857D01*
X181247143Y-100367286D01*
X181210857Y-100331000D01*
X181138286Y-100294714D01*
X180158572Y-101056714D02*
X180594000Y-101056714D01*
X180376286Y-101056714D02*
X180376286Y-100294714D01*
X180448857Y-100403571D01*
X180521429Y-100476143D01*
X180594000Y-100512429D01*
X166844714Y-104017286D02*
X166481857Y-103763286D01*
X166844714Y-103581858D02*
X166082714Y-103581858D01*
X166082714Y-103872143D01*
X166119000Y-103944715D01*
X166155286Y-103981000D01*
X166227857Y-104017286D01*
X166336714Y-104017286D01*
X166409286Y-103981000D01*
X166445571Y-103944715D01*
X166481857Y-103872143D01*
X166481857Y-103581858D01*
X166844714Y-104743000D02*
X166844714Y-104307572D01*
X166844714Y-104525286D02*
X166082714Y-104525286D01*
X166191571Y-104452715D01*
X166264143Y-104380143D01*
X166300429Y-104307572D01*
X166082714Y-105214714D02*
X166082714Y-105287286D01*
X166119000Y-105359857D01*
X166155286Y-105396143D01*
X166227857Y-105432429D01*
X166373000Y-105468714D01*
X166554429Y-105468714D01*
X166699571Y-105432429D01*
X166772143Y-105396143D01*
X166808429Y-105359857D01*
X166844714Y-105287286D01*
X166844714Y-105214714D01*
X166808429Y-105142143D01*
X166772143Y-105105857D01*
X166699571Y-105069572D01*
X166554429Y-105033286D01*
X166373000Y-105033286D01*
X166227857Y-105069572D01*
X166155286Y-105105857D01*
X166119000Y-105142143D01*
X166082714Y-105214714D01*
X166082714Y-105722714D02*
X166082714Y-106194428D01*
X166373000Y-105940428D01*
X166373000Y-106049286D01*
X166409286Y-106121857D01*
X166445571Y-106158143D01*
X166518143Y-106194428D01*
X166699571Y-106194428D01*
X166772143Y-106158143D01*
X166808429Y-106121857D01*
X166844714Y-106049286D01*
X166844714Y-105831571D01*
X166808429Y-105759000D01*
X166772143Y-105722714D01*
X175194714Y-104067286D02*
X174831857Y-103813286D01*
X175194714Y-103631858D02*
X174432714Y-103631858D01*
X174432714Y-103922143D01*
X174469000Y-103994715D01*
X174505286Y-104031000D01*
X174577857Y-104067286D01*
X174686714Y-104067286D01*
X174759286Y-104031000D01*
X174795571Y-103994715D01*
X174831857Y-103922143D01*
X174831857Y-103631858D01*
X175194714Y-104793000D02*
X175194714Y-104357572D01*
X175194714Y-104575286D02*
X174432714Y-104575286D01*
X174541571Y-104502715D01*
X174614143Y-104430143D01*
X174650429Y-104357572D01*
X174432714Y-105264714D02*
X174432714Y-105337286D01*
X174469000Y-105409857D01*
X174505286Y-105446143D01*
X174577857Y-105482429D01*
X174723000Y-105518714D01*
X174904429Y-105518714D01*
X175049571Y-105482429D01*
X175122143Y-105446143D01*
X175158429Y-105409857D01*
X175194714Y-105337286D01*
X175194714Y-105264714D01*
X175158429Y-105192143D01*
X175122143Y-105155857D01*
X175049571Y-105119572D01*
X174904429Y-105083286D01*
X174723000Y-105083286D01*
X174577857Y-105119572D01*
X174505286Y-105155857D01*
X174469000Y-105192143D01*
X174432714Y-105264714D01*
X174686714Y-106171857D02*
X175194714Y-106171857D01*
X174396429Y-105990428D02*
X174940714Y-105809000D01*
X174940714Y-106280714D01*
X177744714Y-104067286D02*
X177381857Y-103813286D01*
X177744714Y-103631858D02*
X176982714Y-103631858D01*
X176982714Y-103922143D01*
X177019000Y-103994715D01*
X177055286Y-104031000D01*
X177127857Y-104067286D01*
X177236714Y-104067286D01*
X177309286Y-104031000D01*
X177345571Y-103994715D01*
X177381857Y-103922143D01*
X177381857Y-103631858D01*
X177744714Y-104793000D02*
X177744714Y-104357572D01*
X177744714Y-104575286D02*
X176982714Y-104575286D01*
X177091571Y-104502715D01*
X177164143Y-104430143D01*
X177200429Y-104357572D01*
X176982714Y-105264714D02*
X176982714Y-105337286D01*
X177019000Y-105409857D01*
X177055286Y-105446143D01*
X177127857Y-105482429D01*
X177273000Y-105518714D01*
X177454429Y-105518714D01*
X177599571Y-105482429D01*
X177672143Y-105446143D01*
X177708429Y-105409857D01*
X177744714Y-105337286D01*
X177744714Y-105264714D01*
X177708429Y-105192143D01*
X177672143Y-105155857D01*
X177599571Y-105119572D01*
X177454429Y-105083286D01*
X177273000Y-105083286D01*
X177127857Y-105119572D01*
X177055286Y-105155857D01*
X177019000Y-105192143D01*
X176982714Y-105264714D01*
X176982714Y-106208143D02*
X176982714Y-105845286D01*
X177345571Y-105809000D01*
X177309286Y-105845286D01*
X177273000Y-105917857D01*
X177273000Y-106099286D01*
X177309286Y-106171857D01*
X177345571Y-106208143D01*
X177418143Y-106244428D01*
X177599571Y-106244428D01*
X177672143Y-106208143D01*
X177708429Y-106171857D01*
X177744714Y-106099286D01*
X177744714Y-105917857D01*
X177708429Y-105845286D01*
X177672143Y-105809000D01*
X194527714Y-93689714D02*
X194781714Y-93326857D01*
X194963142Y-93689714D02*
X194963142Y-92927714D01*
X194672857Y-92927714D01*
X194600285Y-92964000D01*
X194564000Y-93000286D01*
X194527714Y-93072857D01*
X194527714Y-93181714D01*
X194564000Y-93254286D01*
X194600285Y-93290571D01*
X194672857Y-93326857D01*
X194963142Y-93326857D01*
X194237428Y-93000286D02*
X194201142Y-92964000D01*
X194128571Y-92927714D01*
X193947142Y-92927714D01*
X193874571Y-92964000D01*
X193838285Y-93000286D01*
X193802000Y-93072857D01*
X193802000Y-93145429D01*
X193838285Y-93254286D01*
X194273714Y-93689714D01*
X193802000Y-93689714D01*
X193330286Y-92927714D02*
X193257714Y-92927714D01*
X193185143Y-92964000D01*
X193148857Y-93000286D01*
X193112571Y-93072857D01*
X193076286Y-93218000D01*
X193076286Y-93399429D01*
X193112571Y-93544571D01*
X193148857Y-93617143D01*
X193185143Y-93653429D01*
X193257714Y-93689714D01*
X193330286Y-93689714D01*
X193402857Y-93653429D01*
X193439143Y-93617143D01*
X193475428Y-93544571D01*
X193511714Y-93399429D01*
X193511714Y-93218000D01*
X193475428Y-93072857D01*
X193439143Y-93000286D01*
X193402857Y-92964000D01*
X193330286Y-92927714D01*
X192786000Y-93000286D02*
X192749714Y-92964000D01*
X192677143Y-92927714D01*
X192495714Y-92927714D01*
X192423143Y-92964000D01*
X192386857Y-93000286D01*
X192350572Y-93072857D01*
X192350572Y-93145429D01*
X192386857Y-93254286D01*
X192822286Y-93689714D01*
X192350572Y-93689714D01*
X219165714Y-102325714D02*
X219419714Y-101962857D01*
X219601142Y-102325714D02*
X219601142Y-101563714D01*
X219310857Y-101563714D01*
X219238285Y-101600000D01*
X219202000Y-101636286D01*
X219165714Y-101708857D01*
X219165714Y-101817714D01*
X219202000Y-101890286D01*
X219238285Y-101926571D01*
X219310857Y-101962857D01*
X219601142Y-101962857D01*
X218911714Y-101563714D02*
X218440000Y-101563714D01*
X218694000Y-101854000D01*
X218585142Y-101854000D01*
X218512571Y-101890286D01*
X218476285Y-101926571D01*
X218440000Y-101999143D01*
X218440000Y-102180571D01*
X218476285Y-102253143D01*
X218512571Y-102289429D01*
X218585142Y-102325714D01*
X218802857Y-102325714D01*
X218875428Y-102289429D01*
X218911714Y-102253143D01*
X217968286Y-101563714D02*
X217895714Y-101563714D01*
X217823143Y-101600000D01*
X217786857Y-101636286D01*
X217750571Y-101708857D01*
X217714286Y-101854000D01*
X217714286Y-102035429D01*
X217750571Y-102180571D01*
X217786857Y-102253143D01*
X217823143Y-102289429D01*
X217895714Y-102325714D01*
X217968286Y-102325714D01*
X218040857Y-102289429D01*
X218077143Y-102253143D01*
X218113428Y-102180571D01*
X218149714Y-102035429D01*
X218149714Y-101854000D01*
X218113428Y-101708857D01*
X218077143Y-101636286D01*
X218040857Y-101600000D01*
X217968286Y-101563714D01*
X216988572Y-102325714D02*
X217424000Y-102325714D01*
X217206286Y-102325714D02*
X217206286Y-101563714D01*
X217278857Y-101672571D01*
X217351429Y-101745143D01*
X217424000Y-101781429D01*
X219292714Y-95975714D02*
X219546714Y-95612857D01*
X219728142Y-95975714D02*
X219728142Y-95213714D01*
X219437857Y-95213714D01*
X219365285Y-95250000D01*
X219329000Y-95286286D01*
X219292714Y-95358857D01*
X219292714Y-95467714D01*
X219329000Y-95540286D01*
X219365285Y-95576571D01*
X219437857Y-95612857D01*
X219728142Y-95612857D01*
X219038714Y-95213714D02*
X218567000Y-95213714D01*
X218821000Y-95504000D01*
X218712142Y-95504000D01*
X218639571Y-95540286D01*
X218603285Y-95576571D01*
X218567000Y-95649143D01*
X218567000Y-95830571D01*
X218603285Y-95903143D01*
X218639571Y-95939429D01*
X218712142Y-95975714D01*
X218929857Y-95975714D01*
X219002428Y-95939429D01*
X219038714Y-95903143D01*
X218095286Y-95213714D02*
X218022714Y-95213714D01*
X217950143Y-95250000D01*
X217913857Y-95286286D01*
X217877571Y-95358857D01*
X217841286Y-95504000D01*
X217841286Y-95685429D01*
X217877571Y-95830571D01*
X217913857Y-95903143D01*
X217950143Y-95939429D01*
X218022714Y-95975714D01*
X218095286Y-95975714D01*
X218167857Y-95939429D01*
X218204143Y-95903143D01*
X218240428Y-95830571D01*
X218276714Y-95685429D01*
X218276714Y-95504000D01*
X218240428Y-95358857D01*
X218204143Y-95286286D01*
X218167857Y-95250000D01*
X218095286Y-95213714D01*
X217551000Y-95286286D02*
X217514714Y-95250000D01*
X217442143Y-95213714D01*
X217260714Y-95213714D01*
X217188143Y-95250000D01*
X217151857Y-95286286D01*
X217115572Y-95358857D01*
X217115572Y-95431429D01*
X217151857Y-95540286D01*
X217587286Y-95975714D01*
X217115572Y-95975714D01*
X219165714Y-85434714D02*
X219419714Y-85071857D01*
X219601142Y-85434714D02*
X219601142Y-84672714D01*
X219310857Y-84672714D01*
X219238285Y-84709000D01*
X219202000Y-84745286D01*
X219165714Y-84817857D01*
X219165714Y-84926714D01*
X219202000Y-84999286D01*
X219238285Y-85035571D01*
X219310857Y-85071857D01*
X219601142Y-85071857D01*
X218911714Y-84672714D02*
X218440000Y-84672714D01*
X218694000Y-84963000D01*
X218585142Y-84963000D01*
X218512571Y-84999286D01*
X218476285Y-85035571D01*
X218440000Y-85108143D01*
X218440000Y-85289571D01*
X218476285Y-85362143D01*
X218512571Y-85398429D01*
X218585142Y-85434714D01*
X218802857Y-85434714D01*
X218875428Y-85398429D01*
X218911714Y-85362143D01*
X217968286Y-84672714D02*
X217895714Y-84672714D01*
X217823143Y-84709000D01*
X217786857Y-84745286D01*
X217750571Y-84817857D01*
X217714286Y-84963000D01*
X217714286Y-85144429D01*
X217750571Y-85289571D01*
X217786857Y-85362143D01*
X217823143Y-85398429D01*
X217895714Y-85434714D01*
X217968286Y-85434714D01*
X218040857Y-85398429D01*
X218077143Y-85362143D01*
X218113428Y-85289571D01*
X218149714Y-85144429D01*
X218149714Y-84963000D01*
X218113428Y-84817857D01*
X218077143Y-84745286D01*
X218040857Y-84709000D01*
X217968286Y-84672714D01*
X217460286Y-84672714D02*
X216988572Y-84672714D01*
X217242572Y-84963000D01*
X217133714Y-84963000D01*
X217061143Y-84999286D01*
X217024857Y-85035571D01*
X216988572Y-85108143D01*
X216988572Y-85289571D01*
X217024857Y-85362143D01*
X217061143Y-85398429D01*
X217133714Y-85434714D01*
X217351429Y-85434714D01*
X217424000Y-85398429D01*
X217460286Y-85362143D01*
X219165714Y-101182714D02*
X219419714Y-100819857D01*
X219601142Y-101182714D02*
X219601142Y-100420714D01*
X219310857Y-100420714D01*
X219238285Y-100457000D01*
X219202000Y-100493286D01*
X219165714Y-100565857D01*
X219165714Y-100674714D01*
X219202000Y-100747286D01*
X219238285Y-100783571D01*
X219310857Y-100819857D01*
X219601142Y-100819857D01*
X218911714Y-100420714D02*
X218440000Y-100420714D01*
X218694000Y-100711000D01*
X218585142Y-100711000D01*
X218512571Y-100747286D01*
X218476285Y-100783571D01*
X218440000Y-100856143D01*
X218440000Y-101037571D01*
X218476285Y-101110143D01*
X218512571Y-101146429D01*
X218585142Y-101182714D01*
X218802857Y-101182714D01*
X218875428Y-101146429D01*
X218911714Y-101110143D01*
X217968286Y-100420714D02*
X217895714Y-100420714D01*
X217823143Y-100457000D01*
X217786857Y-100493286D01*
X217750571Y-100565857D01*
X217714286Y-100711000D01*
X217714286Y-100892429D01*
X217750571Y-101037571D01*
X217786857Y-101110143D01*
X217823143Y-101146429D01*
X217895714Y-101182714D01*
X217968286Y-101182714D01*
X218040857Y-101146429D01*
X218077143Y-101110143D01*
X218113428Y-101037571D01*
X218149714Y-100892429D01*
X218149714Y-100711000D01*
X218113428Y-100565857D01*
X218077143Y-100493286D01*
X218040857Y-100457000D01*
X217968286Y-100420714D01*
X217460286Y-100420714D02*
X216952286Y-100420714D01*
X217278857Y-101182714D01*
X219292714Y-90768714D02*
X219546714Y-90405857D01*
X219728142Y-90768714D02*
X219728142Y-90006714D01*
X219437857Y-90006714D01*
X219365285Y-90043000D01*
X219329000Y-90079286D01*
X219292714Y-90151857D01*
X219292714Y-90260714D01*
X219329000Y-90333286D01*
X219365285Y-90369571D01*
X219437857Y-90405857D01*
X219728142Y-90405857D01*
X219038714Y-90006714D02*
X218567000Y-90006714D01*
X218821000Y-90297000D01*
X218712142Y-90297000D01*
X218639571Y-90333286D01*
X218603285Y-90369571D01*
X218567000Y-90442143D01*
X218567000Y-90623571D01*
X218603285Y-90696143D01*
X218639571Y-90732429D01*
X218712142Y-90768714D01*
X218929857Y-90768714D01*
X219002428Y-90732429D01*
X219038714Y-90696143D01*
X218095286Y-90006714D02*
X218022714Y-90006714D01*
X217950143Y-90043000D01*
X217913857Y-90079286D01*
X217877571Y-90151857D01*
X217841286Y-90297000D01*
X217841286Y-90478429D01*
X217877571Y-90623571D01*
X217913857Y-90696143D01*
X217950143Y-90732429D01*
X218022714Y-90768714D01*
X218095286Y-90768714D01*
X218167857Y-90732429D01*
X218204143Y-90696143D01*
X218240428Y-90623571D01*
X218276714Y-90478429D01*
X218276714Y-90297000D01*
X218240428Y-90151857D01*
X218204143Y-90079286D01*
X218167857Y-90043000D01*
X218095286Y-90006714D01*
X217405857Y-90333286D02*
X217478429Y-90297000D01*
X217514714Y-90260714D01*
X217551000Y-90188143D01*
X217551000Y-90151857D01*
X217514714Y-90079286D01*
X217478429Y-90043000D01*
X217405857Y-90006714D01*
X217260714Y-90006714D01*
X217188143Y-90043000D01*
X217151857Y-90079286D01*
X217115572Y-90151857D01*
X217115572Y-90188143D01*
X217151857Y-90260714D01*
X217188143Y-90297000D01*
X217260714Y-90333286D01*
X217405857Y-90333286D01*
X217478429Y-90369571D01*
X217514714Y-90405857D01*
X217551000Y-90478429D01*
X217551000Y-90623571D01*
X217514714Y-90696143D01*
X217478429Y-90732429D01*
X217405857Y-90768714D01*
X217260714Y-90768714D01*
X217188143Y-90732429D01*
X217151857Y-90696143D01*
X217115572Y-90623571D01*
X217115572Y-90478429D01*
X217151857Y-90405857D01*
X217188143Y-90369571D01*
X217260714Y-90333286D01*
X219165714Y-84291714D02*
X219419714Y-83928857D01*
X219601142Y-84291714D02*
X219601142Y-83529714D01*
X219310857Y-83529714D01*
X219238285Y-83566000D01*
X219202000Y-83602286D01*
X219165714Y-83674857D01*
X219165714Y-83783714D01*
X219202000Y-83856286D01*
X219238285Y-83892571D01*
X219310857Y-83928857D01*
X219601142Y-83928857D01*
X218911714Y-83529714D02*
X218440000Y-83529714D01*
X218694000Y-83820000D01*
X218585142Y-83820000D01*
X218512571Y-83856286D01*
X218476285Y-83892571D01*
X218440000Y-83965143D01*
X218440000Y-84146571D01*
X218476285Y-84219143D01*
X218512571Y-84255429D01*
X218585142Y-84291714D01*
X218802857Y-84291714D01*
X218875428Y-84255429D01*
X218911714Y-84219143D01*
X217968286Y-83529714D02*
X217895714Y-83529714D01*
X217823143Y-83566000D01*
X217786857Y-83602286D01*
X217750571Y-83674857D01*
X217714286Y-83820000D01*
X217714286Y-84001429D01*
X217750571Y-84146571D01*
X217786857Y-84219143D01*
X217823143Y-84255429D01*
X217895714Y-84291714D01*
X217968286Y-84291714D01*
X218040857Y-84255429D01*
X218077143Y-84219143D01*
X218113428Y-84146571D01*
X218149714Y-84001429D01*
X218149714Y-83820000D01*
X218113428Y-83674857D01*
X218077143Y-83602286D01*
X218040857Y-83566000D01*
X217968286Y-83529714D01*
X217351429Y-84291714D02*
X217206286Y-84291714D01*
X217133714Y-84255429D01*
X217097429Y-84219143D01*
X217024857Y-84110286D01*
X216988572Y-83965143D01*
X216988572Y-83674857D01*
X217024857Y-83602286D01*
X217061143Y-83566000D01*
X217133714Y-83529714D01*
X217278857Y-83529714D01*
X217351429Y-83566000D01*
X217387714Y-83602286D01*
X217424000Y-83674857D01*
X217424000Y-83856286D01*
X217387714Y-83928857D01*
X217351429Y-83965143D01*
X217278857Y-84001429D01*
X217133714Y-84001429D01*
X217061143Y-83965143D01*
X217024857Y-83928857D01*
X216988572Y-83856286D01*
M02*
