G04 #@! TF.FileFunction,Copper,L4,Bot,Signal*
%FSLAX46Y46*%
G04 Gerber Fmt 4.6, Leading zero omitted, Abs format (unit mm)*
G04 Created by KiCad (PCBNEW 4.0.0-rc1-stable) date 05/10/2017 19:39:07*
%MOMM*%
G01*
G04 APERTURE LIST*
%ADD10C,0.100000*%
%ADD11C,0.685800*%
%ADD12R,1.500000X0.600000*%
%ADD13R,0.900000X0.800000*%
%ADD14C,1.500000*%
%ADD15R,1.190000X0.740000*%
%ADD16R,6.700000X6.700000*%
%ADD17R,3.000000X1.600000*%
%ADD18R,1.700000X1.700000*%
%ADD19O,1.700000X1.700000*%
%ADD20C,3.650000*%
%ADD21R,1.500000X1.500000*%
%ADD22R,1.000000X1.250000*%
%ADD23R,1.250000X1.000000*%
%ADD24R,0.700000X1.300000*%
%ADD25R,1.300000X0.700000*%
%ADD26C,0.304800*%
%ADD27C,0.609600*%
%ADD28C,0.152400*%
%ADD29C,1.219200*%
G04 APERTURE END LIST*
D10*
D11*
X199110000Y-101560000D03*
X201650000Y-101540000D03*
X200570000Y-100220000D03*
X202990000Y-100120000D03*
X204170000Y-98700000D03*
X201980000Y-98700000D03*
X204130000Y-97090000D03*
X204200000Y-95420000D03*
X195750000Y-102550000D03*
X196700000Y-101300000D03*
X194350000Y-101300000D03*
X195450000Y-100050000D03*
X193400000Y-100050000D03*
X194500000Y-98600000D03*
X196900000Y-98600000D03*
X207950000Y-92050000D03*
X207950000Y-94600000D03*
D12*
X186100000Y-107010000D03*
X186100000Y-105740000D03*
X186100000Y-104470000D03*
X186100000Y-103200000D03*
X186100000Y-101930000D03*
X186100000Y-100660000D03*
X186100000Y-99390000D03*
X191500000Y-99390000D03*
X191500000Y-100660000D03*
X191500000Y-101930000D03*
X191500000Y-103200000D03*
X191500000Y-104470000D03*
X191500000Y-105740000D03*
X191500000Y-107010000D03*
D13*
X214200000Y-96950000D03*
X214200000Y-98850000D03*
X212200000Y-97900000D03*
X214200000Y-91950000D03*
X214200000Y-93850000D03*
X212200000Y-92900000D03*
X214200000Y-86750000D03*
X214200000Y-88650000D03*
X212200000Y-87700000D03*
D14*
X193400000Y-95200000D03*
D15*
X192350000Y-87450000D03*
X192350000Y-89350000D03*
X195050000Y-88400000D03*
X195050000Y-87450000D03*
X195050000Y-89350000D03*
D16*
X191325000Y-79875000D03*
D17*
X197975000Y-82175000D03*
X197975000Y-77575000D03*
D18*
X159450000Y-105600000D03*
D19*
X159450000Y-103060000D03*
D18*
X159450000Y-109650000D03*
D19*
X159450000Y-112190000D03*
X159450000Y-114730000D03*
D18*
X206700000Y-97750000D03*
D19*
X209240000Y-97750000D03*
X206700000Y-95210000D03*
X209240000Y-95210000D03*
X206700000Y-92670000D03*
X209240000Y-92670000D03*
X206700000Y-90130000D03*
X209240000Y-90130000D03*
X206700000Y-87590000D03*
X209240000Y-87590000D03*
D20*
X177020000Y-90710000D03*
X165590000Y-90710000D03*
D21*
X166860000Y-97060000D03*
D14*
X168130000Y-99600000D03*
X169400000Y-97060000D03*
X170670000Y-99600000D03*
X171940000Y-97060000D03*
X173210000Y-99600000D03*
X174480000Y-97060000D03*
X175750000Y-99600000D03*
D18*
X212960000Y-79900000D03*
D19*
X215500000Y-79900000D03*
D22*
X182600000Y-108070000D03*
X180600000Y-108070000D03*
X182483000Y-104648000D03*
X180483000Y-104648000D03*
X204360000Y-77760000D03*
X206360000Y-77760000D03*
D23*
X198040000Y-89020000D03*
X198040000Y-91020000D03*
D22*
X204400000Y-82140000D03*
X206400000Y-82140000D03*
D23*
X189153800Y-87468200D03*
X189153800Y-89468200D03*
D24*
X182433000Y-102362000D03*
X180533000Y-102362000D03*
D25*
X168150000Y-103920000D03*
X168150000Y-105820000D03*
X173200000Y-105870000D03*
X173200000Y-103970000D03*
X175750000Y-105870000D03*
X175750000Y-103970000D03*
D24*
X194640000Y-91560000D03*
X192740000Y-91560000D03*
X219340000Y-99180000D03*
X217440000Y-99180000D03*
X219340000Y-94130000D03*
X217440000Y-94130000D03*
X219440000Y-88980000D03*
X217540000Y-88980000D03*
X217440000Y-96930000D03*
X219340000Y-96930000D03*
X217440000Y-91880000D03*
X219340000Y-91880000D03*
X217540000Y-86680000D03*
X219440000Y-86680000D03*
D11*
X168050000Y-95800000D03*
X173000000Y-95950000D03*
X213200000Y-95550000D03*
X215630000Y-90650000D03*
X193050000Y-103200000D03*
X201660000Y-107930000D03*
X196710000Y-107930000D03*
X196650000Y-84600000D03*
X199669400Y-88925400D03*
X220294200Y-85344000D03*
X220345000Y-90627200D03*
X220319600Y-95783400D03*
X190100000Y-103250000D03*
X187650000Y-103650000D03*
X189490000Y-106490000D03*
X188500000Y-104500000D03*
X179247800Y-102539800D03*
X184600000Y-108050000D03*
X183150000Y-97400000D03*
X211850000Y-99150000D03*
X211900000Y-94100000D03*
X212050000Y-89000000D03*
X188400000Y-101050000D03*
D26*
X168050000Y-95800000D02*
X169350000Y-97100000D01*
X169350000Y-97100000D02*
X169420000Y-97100000D01*
X173000000Y-95950000D02*
X174150000Y-97100000D01*
X174150000Y-97100000D02*
X174500000Y-97100000D01*
D27*
X214200000Y-98850000D02*
X217110000Y-98850000D01*
X217110000Y-98850000D02*
X217440000Y-99180000D01*
D28*
X214200000Y-98850000D02*
X214200000Y-98450000D01*
X214200000Y-98450000D02*
X212200000Y-96450000D01*
X196920000Y-101930000D02*
X191500000Y-101930000D01*
X202400000Y-96450000D02*
X196920000Y-101930000D01*
X212200000Y-96450000D02*
X202400000Y-96450000D01*
D27*
X214200000Y-93850000D02*
X217160000Y-93850000D01*
X217160000Y-93850000D02*
X217440000Y-94130000D01*
D26*
X214200000Y-93850000D02*
X214150000Y-93850000D01*
D28*
X214150000Y-93850000D02*
X213000000Y-95000000D01*
X197640000Y-100660000D02*
X191500000Y-100660000D01*
X204350000Y-93950000D02*
X197640000Y-100660000D01*
X209850000Y-93950000D02*
X204350000Y-93950000D01*
X210900000Y-95000000D02*
X209850000Y-93950000D01*
X213000000Y-95000000D02*
X210900000Y-95000000D01*
D27*
X214200000Y-88650000D02*
X217210000Y-88650000D01*
X217210000Y-88650000D02*
X217540000Y-88980000D01*
D26*
X214200000Y-88650000D02*
X214200000Y-89500000D01*
X198136582Y-99390000D02*
X191500000Y-99390000D01*
X206126582Y-91400000D02*
X198136582Y-99390000D01*
X212300000Y-91400000D02*
X206126582Y-91400000D01*
X214200000Y-89500000D02*
X212300000Y-91400000D01*
X168130000Y-99600000D02*
X168150000Y-99620000D01*
X168150000Y-99620000D02*
X168150000Y-103920000D01*
X170690000Y-99640000D02*
X170690000Y-99460000D01*
X170690000Y-99460000D02*
X171800000Y-98350000D01*
X171800000Y-98350000D02*
X181800000Y-98350000D01*
X181800000Y-98350000D02*
X183650000Y-100200000D01*
X183650000Y-100200000D02*
X185640000Y-100200000D01*
X185640000Y-100200000D02*
X186100000Y-100660000D01*
D27*
X214200000Y-96950000D02*
X217420000Y-96950000D01*
X217420000Y-96950000D02*
X217440000Y-96930000D01*
D26*
X213200000Y-95550000D02*
X214200000Y-96550000D01*
X214200000Y-96550000D02*
X214200000Y-96950000D01*
D27*
X214300000Y-96850000D02*
X214200000Y-96950000D01*
X217440000Y-91880000D02*
X216860000Y-91880000D01*
X216860000Y-91880000D02*
X215630000Y-90650000D01*
X214200000Y-91950000D02*
X217370000Y-91950000D01*
X217370000Y-91950000D02*
X217440000Y-91880000D01*
D26*
X209240000Y-87640000D02*
X209240000Y-87560000D01*
X209240000Y-87560000D02*
X210050000Y-86750000D01*
D27*
X214200000Y-86750000D02*
X214270000Y-86680000D01*
X214270000Y-86680000D02*
X217540000Y-86680000D01*
D26*
X210050000Y-86750000D02*
X214200000Y-86750000D01*
D27*
X195050000Y-89350000D02*
X194640000Y-89760000D01*
X194640000Y-89760000D02*
X194640000Y-91560000D01*
D28*
X194825000Y-89350000D02*
X195050000Y-89350000D01*
D26*
X193050000Y-103200000D02*
X191500000Y-103200000D01*
X191500000Y-103200000D02*
X192100000Y-103200000D01*
X198200000Y-104470000D02*
X202570000Y-104470000D01*
X191500000Y-104470000D02*
X198200000Y-104470000D01*
X198200000Y-104470000D02*
X201660000Y-107930000D01*
X191500000Y-104470000D02*
X191920000Y-104470000D01*
X202570000Y-104470000D02*
X209240000Y-97800000D01*
D28*
X206700000Y-97800000D02*
X201650000Y-97800000D01*
X201650000Y-97800000D02*
X195550000Y-103900000D01*
D26*
X191500000Y-105740000D02*
X194520000Y-105740000D01*
X194520000Y-105740000D02*
X196710000Y-107930000D01*
D28*
X190190000Y-105740000D02*
X191500000Y-105740000D01*
X189600000Y-105150000D02*
X190190000Y-105740000D01*
X189600000Y-104250000D02*
X189600000Y-105150000D01*
X189950000Y-103900000D02*
X189600000Y-104250000D01*
X195550000Y-103900000D02*
X189950000Y-103900000D01*
D27*
X193630000Y-87810000D02*
X193624200Y-87815800D01*
X195050000Y-87450000D02*
X193990000Y-87450000D01*
X193630000Y-87810000D02*
X193990000Y-87450000D01*
X193624200Y-90675800D02*
X192740000Y-91560000D01*
X193624200Y-87815800D02*
X193624200Y-90675800D01*
D29*
X197975000Y-82175000D02*
X204365000Y-82175000D01*
X204365000Y-82175000D02*
X204400000Y-82140000D01*
X198040000Y-89020000D02*
X198040000Y-85990000D01*
X197975000Y-83275000D02*
X196650000Y-84600000D01*
X197975000Y-83275000D02*
X197975000Y-82175000D01*
X198040000Y-85990000D02*
X196650000Y-84600000D01*
D27*
X195050000Y-87450000D02*
X196470000Y-87450000D01*
X196470000Y-87450000D02*
X197945400Y-88925400D01*
X197945400Y-88925400D02*
X199669400Y-88925400D01*
X219440000Y-86680000D02*
X220294200Y-85825800D01*
X220294200Y-85825800D02*
X220294200Y-85344000D01*
X219340000Y-91880000D02*
X220345000Y-90875000D01*
X220345000Y-90875000D02*
X220345000Y-90627200D01*
X219340000Y-96930000D02*
X220319600Y-95950400D01*
X220319600Y-95950400D02*
X220319600Y-95783400D01*
X197975000Y-82175000D02*
X197975000Y-82325000D01*
D28*
X183671000Y-103200000D02*
X182833000Y-102362000D01*
X186100000Y-103200000D02*
X183671000Y-103200000D01*
X182833000Y-102362000D02*
X182433000Y-102362000D01*
X182733000Y-104648000D02*
X184181000Y-103200000D01*
X184181000Y-103200000D02*
X186100000Y-103200000D01*
X182850000Y-105070000D02*
X182850000Y-104840000D01*
X189700000Y-103650000D02*
X187650000Y-103650000D01*
X190100000Y-103250000D02*
X189700000Y-103650000D01*
X187200000Y-103200000D02*
X186100000Y-103200000D01*
X187650000Y-103650000D02*
X187200000Y-103200000D01*
X186100000Y-103200000D02*
X186800000Y-103200000D01*
X186550000Y-103200000D02*
X186100000Y-103200000D01*
D26*
X188150000Y-102800000D02*
X188150000Y-102750000D01*
X199030000Y-97850000D02*
X206700000Y-90180000D01*
X190550000Y-97850000D02*
X199030000Y-97850000D01*
X189400000Y-99000000D02*
X190550000Y-97850000D01*
X189400000Y-101500000D02*
X189400000Y-99000000D01*
X188150000Y-102750000D02*
X189400000Y-101500000D01*
X188150000Y-102800000D02*
X188150000Y-102300000D01*
X175750000Y-99600000D02*
X175750000Y-103970000D01*
X175750000Y-99600000D02*
X182277000Y-99600000D01*
X184607000Y-101930000D02*
X186100000Y-101930000D01*
X182277000Y-99600000D02*
X184607000Y-101930000D01*
X187780000Y-101930000D02*
X186100000Y-101930000D01*
X188150000Y-102300000D02*
X187780000Y-101930000D01*
D28*
X186550000Y-101930000D02*
X186100000Y-101930000D01*
D27*
X156650000Y-92150000D02*
X161331800Y-87468200D01*
X156650000Y-92150000D02*
X156650000Y-111930000D01*
X159450000Y-114730000D02*
X156650000Y-111930000D01*
X161331800Y-87468200D02*
X189153800Y-87468200D01*
X192350000Y-87450000D02*
X189172000Y-87450000D01*
X189172000Y-87450000D02*
X189153800Y-87468200D01*
X189200000Y-87600000D02*
X189350000Y-87450000D01*
D28*
X192200000Y-87600000D02*
X192350000Y-87450000D01*
X188740000Y-105740000D02*
X186100000Y-105740000D01*
X189490000Y-106490000D02*
X188740000Y-105740000D01*
X186064802Y-105704802D02*
X186100000Y-105740000D01*
X169520000Y-107590000D02*
X168150000Y-106220000D01*
X169520000Y-107590000D02*
X178460000Y-107590000D01*
X178460000Y-107590000D02*
X180210000Y-105840000D01*
X180210000Y-105840000D02*
X183880000Y-105840000D01*
X183880000Y-105840000D02*
X185250000Y-104470000D01*
X186100000Y-104470000D02*
X185250000Y-104470000D01*
X168150000Y-106220000D02*
X168150000Y-105820000D01*
X188500000Y-104500000D02*
X188470000Y-104470000D01*
X188470000Y-104470000D02*
X186100000Y-104470000D01*
X186100000Y-104470000D02*
X185765198Y-104470000D01*
D27*
X180533000Y-102362000D02*
X180355200Y-102539800D01*
X180355200Y-102539800D02*
X179247800Y-102539800D01*
X182870000Y-108050000D02*
X184600000Y-108050000D01*
X184600000Y-108050000D02*
X185640000Y-107010000D01*
X182870000Y-108050000D02*
X182850000Y-108070000D01*
X186100000Y-107010000D02*
X185640000Y-107010000D01*
X212200000Y-97900000D02*
X212200000Y-98800000D01*
X212200000Y-98800000D02*
X211850000Y-99150000D01*
X212200000Y-92900000D02*
X212200000Y-93800000D01*
X212200000Y-93800000D02*
X211900000Y-94100000D01*
X212200000Y-87700000D02*
X212200000Y-88850000D01*
X212200000Y-88850000D02*
X212050000Y-89000000D01*
D26*
X173210000Y-99600000D02*
X173200000Y-99610000D01*
X173200000Y-99610000D02*
X173200000Y-103970000D01*
X188400000Y-101050000D02*
X188400000Y-100250000D01*
X188400000Y-100250000D02*
X187540000Y-99390000D01*
X187540000Y-99390000D02*
X186100000Y-99390000D01*
D27*
X204360000Y-77760000D02*
X204360000Y-79061800D01*
X205198200Y-79900000D02*
X212960000Y-79900000D01*
X204360000Y-79061800D02*
X205198200Y-79900000D01*
X197975000Y-77575000D02*
X203925000Y-77575000D01*
X203925000Y-77575000D02*
X204110000Y-77760000D01*
D29*
X197975000Y-77775000D02*
X197975000Y-77575000D01*
D27*
X197975000Y-77925000D02*
X197975000Y-77575000D01*
D28*
G36*
X221396400Y-131296400D02*
X155003600Y-131296400D01*
X155003600Y-92150000D01*
X156116600Y-92150000D01*
X156116600Y-111930000D01*
X156157203Y-112134123D01*
X156272829Y-112307171D01*
X158407573Y-114441915D01*
X158350269Y-114730000D01*
X158432373Y-115142762D01*
X158666184Y-115492685D01*
X159016107Y-115726496D01*
X159428869Y-115808600D01*
X159471131Y-115808600D01*
X159883893Y-115726496D01*
X160233816Y-115492685D01*
X160467627Y-115142762D01*
X160549731Y-114730000D01*
X160467627Y-114317238D01*
X160233816Y-113967315D01*
X159883893Y-113733504D01*
X159471131Y-113651400D01*
X159428869Y-113651400D01*
X159176034Y-113701692D01*
X157664342Y-112190000D01*
X158350269Y-112190000D01*
X158432373Y-112602762D01*
X158666184Y-112952685D01*
X159016107Y-113186496D01*
X159428869Y-113268600D01*
X159471131Y-113268600D01*
X159883893Y-113186496D01*
X160233816Y-112952685D01*
X160467627Y-112602762D01*
X160549731Y-112190000D01*
X160467627Y-111777238D01*
X160233816Y-111427315D01*
X159883893Y-111193504D01*
X159471131Y-111111400D01*
X159428869Y-111111400D01*
X159016107Y-111193504D01*
X158666184Y-111427315D01*
X158432373Y-111777238D01*
X158350269Y-112190000D01*
X157664342Y-112190000D01*
X157183400Y-111709058D01*
X157183400Y-108800000D01*
X158366922Y-108800000D01*
X158366922Y-110500000D01*
X158382862Y-110584714D01*
X158432928Y-110662518D01*
X158509320Y-110714715D01*
X158600000Y-110733078D01*
X160300000Y-110733078D01*
X160384714Y-110717138D01*
X160462518Y-110667072D01*
X160514715Y-110590680D01*
X160533078Y-110500000D01*
X160533078Y-108800000D01*
X160517138Y-108715286D01*
X160467072Y-108637482D01*
X160390680Y-108585285D01*
X160300000Y-108566922D01*
X158600000Y-108566922D01*
X158515286Y-108582862D01*
X158437482Y-108632928D01*
X158385285Y-108709320D01*
X158366922Y-108800000D01*
X157183400Y-108800000D01*
X157183400Y-108393850D01*
X179515800Y-108393850D01*
X179515800Y-108811204D01*
X179604739Y-109025922D01*
X179769077Y-109190261D01*
X179983795Y-109279200D01*
X180276150Y-109279200D01*
X180422200Y-109133150D01*
X180422200Y-108247800D01*
X180777800Y-108247800D01*
X180777800Y-109133150D01*
X180923850Y-109279200D01*
X181216205Y-109279200D01*
X181430923Y-109190261D01*
X181595261Y-109025922D01*
X181684200Y-108811204D01*
X181684200Y-108393850D01*
X181538150Y-108247800D01*
X180777800Y-108247800D01*
X180422200Y-108247800D01*
X179661850Y-108247800D01*
X179515800Y-108393850D01*
X157183400Y-108393850D01*
X157183400Y-104750000D01*
X158366922Y-104750000D01*
X158366922Y-106450000D01*
X158382862Y-106534714D01*
X158432928Y-106612518D01*
X158509320Y-106664715D01*
X158600000Y-106683078D01*
X160300000Y-106683078D01*
X160384714Y-106667138D01*
X160462518Y-106617072D01*
X160514715Y-106540680D01*
X160533078Y-106450000D01*
X160533078Y-105470000D01*
X167266922Y-105470000D01*
X167266922Y-106170000D01*
X167282862Y-106254714D01*
X167332928Y-106332518D01*
X167409320Y-106384715D01*
X167500000Y-106403078D01*
X167912793Y-106403078D01*
X167934474Y-106435526D01*
X169304474Y-107805526D01*
X169403359Y-107871599D01*
X169520000Y-107894800D01*
X178460000Y-107894800D01*
X178576642Y-107871598D01*
X178675526Y-107805526D01*
X179152256Y-107328796D01*
X179515800Y-107328796D01*
X179515800Y-107746150D01*
X179661850Y-107892200D01*
X180422200Y-107892200D01*
X180422200Y-107006850D01*
X180777800Y-107006850D01*
X180777800Y-107892200D01*
X181538150Y-107892200D01*
X181684200Y-107746150D01*
X181684200Y-107445000D01*
X181866922Y-107445000D01*
X181866922Y-108695000D01*
X181882862Y-108779714D01*
X181932928Y-108857518D01*
X182009320Y-108909715D01*
X182100000Y-108928078D01*
X183100000Y-108928078D01*
X183184714Y-108912138D01*
X183262518Y-108862072D01*
X183314715Y-108785680D01*
X183333078Y-108695000D01*
X183333078Y-108583400D01*
X184394309Y-108583400D01*
X184485823Y-108621400D01*
X184713180Y-108621599D01*
X184923306Y-108534776D01*
X185084211Y-108374151D01*
X185122570Y-108281772D01*
X185860942Y-107543400D01*
X186100000Y-107543400D01*
X186101619Y-107543078D01*
X186850000Y-107543078D01*
X186934714Y-107527138D01*
X187012518Y-107477072D01*
X187064715Y-107400680D01*
X187083078Y-107310000D01*
X187083078Y-107306050D01*
X190165800Y-107306050D01*
X190165800Y-107426204D01*
X190254739Y-107640922D01*
X190419077Y-107805261D01*
X190633795Y-107894200D01*
X191176150Y-107894200D01*
X191322200Y-107748150D01*
X191322200Y-107160000D01*
X191677800Y-107160000D01*
X191677800Y-107748150D01*
X191823850Y-107894200D01*
X192366205Y-107894200D01*
X192580923Y-107805261D01*
X192745261Y-107640922D01*
X192834200Y-107426204D01*
X192834200Y-107306050D01*
X192688150Y-107160000D01*
X191677800Y-107160000D01*
X191322200Y-107160000D01*
X190311850Y-107160000D01*
X190165800Y-107306050D01*
X187083078Y-107306050D01*
X187083078Y-106710000D01*
X187067138Y-106625286D01*
X187017072Y-106547482D01*
X186940680Y-106495285D01*
X186850000Y-106476922D01*
X186101619Y-106476922D01*
X186100000Y-106476600D01*
X185640000Y-106476600D01*
X185638381Y-106476922D01*
X185350000Y-106476922D01*
X185265286Y-106492862D01*
X185187482Y-106542928D01*
X185135285Y-106619320D01*
X185116922Y-106710000D01*
X185116922Y-106778736D01*
X184379058Y-107516600D01*
X183333078Y-107516600D01*
X183333078Y-107445000D01*
X183317138Y-107360286D01*
X183267072Y-107282482D01*
X183190680Y-107230285D01*
X183100000Y-107211922D01*
X182100000Y-107211922D01*
X182015286Y-107227862D01*
X181937482Y-107277928D01*
X181885285Y-107354320D01*
X181866922Y-107445000D01*
X181684200Y-107445000D01*
X181684200Y-107328796D01*
X181595261Y-107114078D01*
X181430923Y-106949739D01*
X181216205Y-106860800D01*
X180923850Y-106860800D01*
X180777800Y-107006850D01*
X180422200Y-107006850D01*
X180276150Y-106860800D01*
X179983795Y-106860800D01*
X179769077Y-106949739D01*
X179604739Y-107114078D01*
X179515800Y-107328796D01*
X179152256Y-107328796D01*
X180336252Y-106144800D01*
X183880000Y-106144800D01*
X183996642Y-106121598D01*
X184095526Y-106055526D01*
X184711052Y-105440000D01*
X185116922Y-105440000D01*
X185116922Y-106040000D01*
X185132862Y-106124714D01*
X185182928Y-106202518D01*
X185259320Y-106254715D01*
X185350000Y-106273078D01*
X186850000Y-106273078D01*
X186934714Y-106257138D01*
X187012518Y-106207072D01*
X187064715Y-106130680D01*
X187082106Y-106044800D01*
X188613748Y-106044800D01*
X188926279Y-106357331D01*
X188918600Y-106375823D01*
X188918401Y-106603180D01*
X189005224Y-106813306D01*
X189165849Y-106974211D01*
X189375823Y-107061400D01*
X189603180Y-107061599D01*
X189813306Y-106974776D01*
X189974211Y-106814151D01*
X190061400Y-106604177D01*
X190061599Y-106376820D01*
X189974776Y-106166694D01*
X189814151Y-106005789D01*
X189604177Y-105918600D01*
X189376820Y-105918401D01*
X189357455Y-105926403D01*
X188955526Y-105524474D01*
X188856642Y-105458402D01*
X188740000Y-105435200D01*
X187082175Y-105435200D01*
X187067138Y-105355286D01*
X187017072Y-105277482D01*
X186940680Y-105225285D01*
X186850000Y-105206922D01*
X185350000Y-105206922D01*
X185265286Y-105222862D01*
X185187482Y-105272928D01*
X185135285Y-105349320D01*
X185116922Y-105440000D01*
X184711052Y-105440000D01*
X185204081Y-104946971D01*
X185259320Y-104984715D01*
X185350000Y-105003078D01*
X186850000Y-105003078D01*
X186934714Y-104987138D01*
X187012518Y-104937072D01*
X187064715Y-104860680D01*
X187082106Y-104774800D01*
X187995182Y-104774800D01*
X188015224Y-104823306D01*
X188175849Y-104984211D01*
X188385823Y-105071400D01*
X188613180Y-105071599D01*
X188823306Y-104984776D01*
X188984211Y-104824151D01*
X189071400Y-104614177D01*
X189071599Y-104386820D01*
X188984776Y-104176694D01*
X188824151Y-104015789D01*
X188677273Y-103954800D01*
X189464148Y-103954800D01*
X189384474Y-104034474D01*
X189318402Y-104133358D01*
X189295200Y-104250000D01*
X189295200Y-105150000D01*
X189318402Y-105266642D01*
X189384474Y-105365526D01*
X189974474Y-105955526D01*
X190073358Y-106021598D01*
X190190000Y-106044800D01*
X190517825Y-106044800D01*
X190532862Y-106124714D01*
X190554655Y-106158581D01*
X190419077Y-106214739D01*
X190254739Y-106379078D01*
X190165800Y-106593796D01*
X190165800Y-106713950D01*
X190311850Y-106860000D01*
X191322200Y-106860000D01*
X191322200Y-106812200D01*
X191677800Y-106812200D01*
X191677800Y-106860000D01*
X192688150Y-106860000D01*
X192834200Y-106713950D01*
X192834200Y-106593796D01*
X192745261Y-106379078D01*
X192580923Y-106214739D01*
X192445583Y-106158680D01*
X192464715Y-106130680D01*
X192466675Y-106121000D01*
X194362184Y-106121000D01*
X196138529Y-107897344D01*
X196138401Y-108043180D01*
X196225224Y-108253306D01*
X196385849Y-108414211D01*
X196595823Y-108501400D01*
X196823180Y-108501599D01*
X197033306Y-108414776D01*
X197194211Y-108254151D01*
X197281400Y-108044177D01*
X197281599Y-107816820D01*
X197194776Y-107606694D01*
X197034151Y-107445789D01*
X196824177Y-107358600D01*
X196677287Y-107358471D01*
X194789408Y-105470592D01*
X194665803Y-105388002D01*
X194520000Y-105359000D01*
X192467837Y-105359000D01*
X192467138Y-105355286D01*
X192417072Y-105277482D01*
X192340680Y-105225285D01*
X192250000Y-105206922D01*
X190750000Y-105206922D01*
X190665286Y-105222862D01*
X190587482Y-105272928D01*
X190535285Y-105349320D01*
X190517894Y-105435200D01*
X190316252Y-105435200D01*
X189904800Y-105023748D01*
X189904800Y-104376252D01*
X190076252Y-104204800D01*
X190516922Y-104204800D01*
X190516922Y-104770000D01*
X190532862Y-104854714D01*
X190582928Y-104932518D01*
X190659320Y-104984715D01*
X190750000Y-105003078D01*
X192250000Y-105003078D01*
X192334714Y-104987138D01*
X192412518Y-104937072D01*
X192464715Y-104860680D01*
X192466675Y-104851000D01*
X198042184Y-104851000D01*
X201088529Y-107897345D01*
X201088401Y-108043180D01*
X201175224Y-108253306D01*
X201335849Y-108414211D01*
X201545823Y-108501400D01*
X201773180Y-108501599D01*
X201983306Y-108414776D01*
X202144211Y-108254151D01*
X202231400Y-108044177D01*
X202231599Y-107816820D01*
X202144776Y-107606694D01*
X201984151Y-107445789D01*
X201774177Y-107358600D01*
X201627287Y-107358471D01*
X199119816Y-104851000D01*
X202570000Y-104851000D01*
X202715803Y-104821998D01*
X202839408Y-104739408D01*
X208827970Y-98750845D01*
X209218869Y-98828600D01*
X209261131Y-98828600D01*
X209673893Y-98746496D01*
X210023816Y-98512685D01*
X210257627Y-98162762D01*
X210339731Y-97750000D01*
X210257627Y-97337238D01*
X210023816Y-96987315D01*
X209675833Y-96754800D01*
X212073748Y-96754800D01*
X212585870Y-97266922D01*
X211750000Y-97266922D01*
X211665286Y-97282862D01*
X211587482Y-97332928D01*
X211535285Y-97409320D01*
X211516922Y-97500000D01*
X211516922Y-98300000D01*
X211532862Y-98384714D01*
X211582928Y-98462518D01*
X211659320Y-98514715D01*
X211666600Y-98516189D01*
X211666600Y-98579058D01*
X211618275Y-98627383D01*
X211526694Y-98665224D01*
X211365789Y-98825849D01*
X211278600Y-99035823D01*
X211278401Y-99263180D01*
X211365224Y-99473306D01*
X211525849Y-99634211D01*
X211735823Y-99721400D01*
X211963180Y-99721599D01*
X212173306Y-99634776D01*
X212334211Y-99474151D01*
X212372570Y-99381772D01*
X212577171Y-99177171D01*
X212692797Y-99004123D01*
X212733401Y-98800000D01*
X212733400Y-98799995D01*
X212733400Y-98517385D01*
X212734714Y-98517138D01*
X212812518Y-98467072D01*
X212864715Y-98390680D01*
X212883078Y-98300000D01*
X212883078Y-97564130D01*
X213596240Y-98277292D01*
X213587482Y-98282928D01*
X213535285Y-98359320D01*
X213516922Y-98450000D01*
X213516922Y-99250000D01*
X213532862Y-99334714D01*
X213582928Y-99412518D01*
X213659320Y-99464715D01*
X213750000Y-99483078D01*
X214650000Y-99483078D01*
X214734714Y-99467138D01*
X214812518Y-99417072D01*
X214835525Y-99383400D01*
X216856922Y-99383400D01*
X216856922Y-99830000D01*
X216872862Y-99914714D01*
X216922928Y-99992518D01*
X216999320Y-100044715D01*
X217090000Y-100063078D01*
X217790000Y-100063078D01*
X217874714Y-100047138D01*
X217952518Y-99997072D01*
X218004715Y-99920680D01*
X218023078Y-99830000D01*
X218023078Y-99503850D01*
X218405800Y-99503850D01*
X218405800Y-99946204D01*
X218494739Y-100160922D01*
X218659077Y-100325261D01*
X218873795Y-100414200D01*
X219018950Y-100414200D01*
X219165000Y-100268150D01*
X219165000Y-99357800D01*
X219515000Y-99357800D01*
X219515000Y-100268150D01*
X219661050Y-100414200D01*
X219806205Y-100414200D01*
X220020923Y-100325261D01*
X220185261Y-100160922D01*
X220274200Y-99946204D01*
X220274200Y-99503850D01*
X220128150Y-99357800D01*
X219515000Y-99357800D01*
X219165000Y-99357800D01*
X218551850Y-99357800D01*
X218405800Y-99503850D01*
X218023078Y-99503850D01*
X218023078Y-98530000D01*
X218007138Y-98445286D01*
X217986875Y-98413796D01*
X218405800Y-98413796D01*
X218405800Y-98856150D01*
X218551850Y-99002200D01*
X219165000Y-99002200D01*
X219165000Y-98091850D01*
X219515000Y-98091850D01*
X219515000Y-99002200D01*
X220128150Y-99002200D01*
X220274200Y-98856150D01*
X220274200Y-98413796D01*
X220185261Y-98199078D01*
X220020923Y-98034739D01*
X219806205Y-97945800D01*
X219661050Y-97945800D01*
X219515000Y-98091850D01*
X219165000Y-98091850D01*
X219018950Y-97945800D01*
X218873795Y-97945800D01*
X218659077Y-98034739D01*
X218494739Y-98199078D01*
X218405800Y-98413796D01*
X217986875Y-98413796D01*
X217957072Y-98367482D01*
X217880680Y-98315285D01*
X217790000Y-98296922D01*
X217090000Y-98296922D01*
X217005286Y-98312862D01*
X216999477Y-98316600D01*
X214835809Y-98316600D01*
X214817072Y-98287482D01*
X214740680Y-98235285D01*
X214650000Y-98216922D01*
X214397974Y-98216922D01*
X213764130Y-97583078D01*
X214650000Y-97583078D01*
X214734714Y-97567138D01*
X214812518Y-97517072D01*
X214835525Y-97483400D01*
X216856922Y-97483400D01*
X216856922Y-97580000D01*
X216872862Y-97664714D01*
X216922928Y-97742518D01*
X216999320Y-97794715D01*
X217090000Y-97813078D01*
X217790000Y-97813078D01*
X217874714Y-97797138D01*
X217952518Y-97747072D01*
X218004715Y-97670680D01*
X218023078Y-97580000D01*
X218023078Y-96280000D01*
X218756922Y-96280000D01*
X218756922Y-97580000D01*
X218772862Y-97664714D01*
X218822928Y-97742518D01*
X218899320Y-97794715D01*
X218990000Y-97813078D01*
X219690000Y-97813078D01*
X219774714Y-97797138D01*
X219852518Y-97747072D01*
X219904715Y-97670680D01*
X219923078Y-97580000D01*
X219923078Y-97101264D01*
X220696768Y-96327573D01*
X220696771Y-96327571D01*
X220812397Y-96154523D01*
X220838228Y-96024665D01*
X220891000Y-95897577D01*
X220891199Y-95670220D01*
X220804376Y-95460094D01*
X220643751Y-95299189D01*
X220433777Y-95212000D01*
X220206420Y-95211801D01*
X219996294Y-95298624D01*
X219835389Y-95459249D01*
X219748200Y-95669223D01*
X219748114Y-95767545D01*
X219468737Y-96046922D01*
X218990000Y-96046922D01*
X218905286Y-96062862D01*
X218827482Y-96112928D01*
X218775285Y-96189320D01*
X218756922Y-96280000D01*
X218023078Y-96280000D01*
X218007138Y-96195286D01*
X217957072Y-96117482D01*
X217880680Y-96065285D01*
X217790000Y-96046922D01*
X217090000Y-96046922D01*
X217005286Y-96062862D01*
X216927482Y-96112928D01*
X216875285Y-96189320D01*
X216856922Y-96280000D01*
X216856922Y-96416600D01*
X214835809Y-96416600D01*
X214817072Y-96387482D01*
X214740680Y-96335285D01*
X214650000Y-96316922D01*
X214493683Y-96316922D01*
X214469408Y-96280592D01*
X214469405Y-96280590D01*
X213771471Y-95582656D01*
X213771599Y-95436820D01*
X213684776Y-95226694D01*
X213524151Y-95065789D01*
X213411881Y-95019171D01*
X213947974Y-94483078D01*
X214650000Y-94483078D01*
X214734714Y-94467138D01*
X214812518Y-94417072D01*
X214835525Y-94383400D01*
X216856922Y-94383400D01*
X216856922Y-94780000D01*
X216872862Y-94864714D01*
X216922928Y-94942518D01*
X216999320Y-94994715D01*
X217090000Y-95013078D01*
X217790000Y-95013078D01*
X217874714Y-94997138D01*
X217952518Y-94947072D01*
X218004715Y-94870680D01*
X218023078Y-94780000D01*
X218023078Y-94453850D01*
X218405800Y-94453850D01*
X218405800Y-94896204D01*
X218494739Y-95110922D01*
X218659077Y-95275261D01*
X218873795Y-95364200D01*
X219018950Y-95364200D01*
X219165000Y-95218150D01*
X219165000Y-94307800D01*
X219515000Y-94307800D01*
X219515000Y-95218150D01*
X219661050Y-95364200D01*
X219806205Y-95364200D01*
X220020923Y-95275261D01*
X220185261Y-95110922D01*
X220274200Y-94896204D01*
X220274200Y-94453850D01*
X220128150Y-94307800D01*
X219515000Y-94307800D01*
X219165000Y-94307800D01*
X218551850Y-94307800D01*
X218405800Y-94453850D01*
X218023078Y-94453850D01*
X218023078Y-93480000D01*
X218007138Y-93395286D01*
X217986875Y-93363796D01*
X218405800Y-93363796D01*
X218405800Y-93806150D01*
X218551850Y-93952200D01*
X219165000Y-93952200D01*
X219165000Y-93041850D01*
X219515000Y-93041850D01*
X219515000Y-93952200D01*
X220128150Y-93952200D01*
X220274200Y-93806150D01*
X220274200Y-93363796D01*
X220185261Y-93149078D01*
X220020923Y-92984739D01*
X219806205Y-92895800D01*
X219661050Y-92895800D01*
X219515000Y-93041850D01*
X219165000Y-93041850D01*
X219018950Y-92895800D01*
X218873795Y-92895800D01*
X218659077Y-92984739D01*
X218494739Y-93149078D01*
X218405800Y-93363796D01*
X217986875Y-93363796D01*
X217957072Y-93317482D01*
X217880680Y-93265285D01*
X217790000Y-93246922D01*
X217090000Y-93246922D01*
X217005286Y-93262862D01*
X216927482Y-93312928D01*
X216924973Y-93316600D01*
X214835809Y-93316600D01*
X214817072Y-93287482D01*
X214740680Y-93235285D01*
X214650000Y-93216922D01*
X213750000Y-93216922D01*
X213665286Y-93232862D01*
X213587482Y-93282928D01*
X213535285Y-93359320D01*
X213516922Y-93450000D01*
X213516922Y-94052026D01*
X212873748Y-94695200D01*
X211026252Y-94695200D01*
X210544232Y-94213180D01*
X211328401Y-94213180D01*
X211415224Y-94423306D01*
X211575849Y-94584211D01*
X211785823Y-94671400D01*
X212013180Y-94671599D01*
X212223306Y-94584776D01*
X212384211Y-94424151D01*
X212422570Y-94331772D01*
X212577171Y-94177171D01*
X212692797Y-94004123D01*
X212733400Y-93800000D01*
X212733400Y-93517385D01*
X212734714Y-93517138D01*
X212812518Y-93467072D01*
X212864715Y-93390680D01*
X212883078Y-93300000D01*
X212883078Y-92500000D01*
X212867138Y-92415286D01*
X212817072Y-92337482D01*
X212740680Y-92285285D01*
X212650000Y-92266922D01*
X211750000Y-92266922D01*
X211665286Y-92282862D01*
X211587482Y-92332928D01*
X211535285Y-92409320D01*
X211516922Y-92500000D01*
X211516922Y-93300000D01*
X211532862Y-93384714D01*
X211582928Y-93462518D01*
X211659320Y-93514715D01*
X211666600Y-93516189D01*
X211666600Y-93578075D01*
X211576694Y-93615224D01*
X211415789Y-93775849D01*
X211328600Y-93985823D01*
X211328401Y-94213180D01*
X210544232Y-94213180D01*
X210065526Y-93734474D01*
X209966642Y-93668402D01*
X209850000Y-93645200D01*
X209705765Y-93645200D01*
X210023816Y-93432685D01*
X210257627Y-93082762D01*
X210339731Y-92670000D01*
X210257627Y-92257238D01*
X210023816Y-91907315D01*
X209834772Y-91781000D01*
X212300000Y-91781000D01*
X212445803Y-91751998D01*
X212569408Y-91669408D01*
X212688816Y-91550000D01*
X213516922Y-91550000D01*
X213516922Y-92350000D01*
X213532862Y-92434714D01*
X213582928Y-92512518D01*
X213659320Y-92564715D01*
X213750000Y-92583078D01*
X214650000Y-92583078D01*
X214734714Y-92567138D01*
X214812518Y-92517072D01*
X214835525Y-92483400D01*
X216856922Y-92483400D01*
X216856922Y-92530000D01*
X216872862Y-92614714D01*
X216922928Y-92692518D01*
X216999320Y-92744715D01*
X217090000Y-92763078D01*
X217790000Y-92763078D01*
X217874714Y-92747138D01*
X217952518Y-92697072D01*
X218004715Y-92620680D01*
X218023078Y-92530000D01*
X218023078Y-91230000D01*
X218756922Y-91230000D01*
X218756922Y-92530000D01*
X218772862Y-92614714D01*
X218822928Y-92692518D01*
X218899320Y-92744715D01*
X218990000Y-92763078D01*
X219690000Y-92763078D01*
X219774714Y-92747138D01*
X219852518Y-92697072D01*
X219904715Y-92620680D01*
X219923078Y-92530000D01*
X219923078Y-92051264D01*
X220722168Y-91252173D01*
X220722171Y-91252171D01*
X220837797Y-91079123D01*
X220843987Y-91048003D01*
X220878401Y-90875000D01*
X220878400Y-90874995D01*
X220878400Y-90832891D01*
X220916400Y-90741377D01*
X220916599Y-90514020D01*
X220829776Y-90303894D01*
X220669151Y-90142989D01*
X220459177Y-90055800D01*
X220231820Y-90055601D01*
X220161546Y-90084638D01*
X220285261Y-89960922D01*
X220374200Y-89746204D01*
X220374200Y-89303850D01*
X220228150Y-89157800D01*
X219615000Y-89157800D01*
X219615000Y-90068150D01*
X219761050Y-90214200D01*
X219906205Y-90214200D01*
X219980706Y-90183341D01*
X219860789Y-90303049D01*
X219773600Y-90513023D01*
X219773443Y-90692216D01*
X219468737Y-90996922D01*
X218990000Y-90996922D01*
X218905286Y-91012862D01*
X218827482Y-91062928D01*
X218775285Y-91139320D01*
X218756922Y-91230000D01*
X218023078Y-91230000D01*
X218007138Y-91145286D01*
X217957072Y-91067482D01*
X217880680Y-91015285D01*
X217790000Y-90996922D01*
X217090000Y-90996922D01*
X217005286Y-91012862D01*
X216927482Y-91062928D01*
X216875285Y-91139320D01*
X216875012Y-91140670D01*
X216152617Y-90418275D01*
X216114776Y-90326694D01*
X215954151Y-90165789D01*
X215744177Y-90078600D01*
X215516820Y-90078401D01*
X215306694Y-90165224D01*
X215145789Y-90325849D01*
X215058600Y-90535823D01*
X215058401Y-90763180D01*
X215145224Y-90973306D01*
X215305849Y-91134211D01*
X215398228Y-91172570D01*
X215642258Y-91416600D01*
X214835809Y-91416600D01*
X214817072Y-91387482D01*
X214740680Y-91335285D01*
X214650000Y-91316922D01*
X213750000Y-91316922D01*
X213665286Y-91332862D01*
X213587482Y-91382928D01*
X213535285Y-91459320D01*
X213516922Y-91550000D01*
X212688816Y-91550000D01*
X214469408Y-89769408D01*
X214551998Y-89645802D01*
X214581001Y-89500000D01*
X214581000Y-89499995D01*
X214581000Y-89283078D01*
X214650000Y-89283078D01*
X214734714Y-89267138D01*
X214812518Y-89217072D01*
X214835525Y-89183400D01*
X216956922Y-89183400D01*
X216956922Y-89630000D01*
X216972862Y-89714714D01*
X217022928Y-89792518D01*
X217099320Y-89844715D01*
X217190000Y-89863078D01*
X217890000Y-89863078D01*
X217974714Y-89847138D01*
X218052518Y-89797072D01*
X218104715Y-89720680D01*
X218123078Y-89630000D01*
X218123078Y-89303850D01*
X218505800Y-89303850D01*
X218505800Y-89746204D01*
X218594739Y-89960922D01*
X218759077Y-90125261D01*
X218973795Y-90214200D01*
X219118950Y-90214200D01*
X219265000Y-90068150D01*
X219265000Y-89157800D01*
X218651850Y-89157800D01*
X218505800Y-89303850D01*
X218123078Y-89303850D01*
X218123078Y-88330000D01*
X218107138Y-88245286D01*
X218086875Y-88213796D01*
X218505800Y-88213796D01*
X218505800Y-88656150D01*
X218651850Y-88802200D01*
X219265000Y-88802200D01*
X219265000Y-87891850D01*
X219615000Y-87891850D01*
X219615000Y-88802200D01*
X220228150Y-88802200D01*
X220374200Y-88656150D01*
X220374200Y-88213796D01*
X220285261Y-87999078D01*
X220120923Y-87834739D01*
X219906205Y-87745800D01*
X219761050Y-87745800D01*
X219615000Y-87891850D01*
X219265000Y-87891850D01*
X219118950Y-87745800D01*
X218973795Y-87745800D01*
X218759077Y-87834739D01*
X218594739Y-87999078D01*
X218505800Y-88213796D01*
X218086875Y-88213796D01*
X218057072Y-88167482D01*
X217980680Y-88115285D01*
X217890000Y-88096922D01*
X217190000Y-88096922D01*
X217105286Y-88112862D01*
X217099477Y-88116600D01*
X214835809Y-88116600D01*
X214817072Y-88087482D01*
X214740680Y-88035285D01*
X214650000Y-88016922D01*
X213750000Y-88016922D01*
X213665286Y-88032862D01*
X213587482Y-88082928D01*
X213535285Y-88159320D01*
X213516922Y-88250000D01*
X213516922Y-89050000D01*
X213532862Y-89134714D01*
X213582928Y-89212518D01*
X213659320Y-89264715D01*
X213750000Y-89283078D01*
X213819000Y-89283078D01*
X213819000Y-89342184D01*
X212142184Y-91019000D01*
X209834772Y-91019000D01*
X210023816Y-90892685D01*
X210257627Y-90542762D01*
X210339731Y-90130000D01*
X210257627Y-89717238D01*
X210023816Y-89367315D01*
X209673893Y-89133504D01*
X209261131Y-89051400D01*
X209218869Y-89051400D01*
X208806107Y-89133504D01*
X208456184Y-89367315D01*
X208222373Y-89717238D01*
X208140269Y-90130000D01*
X208222373Y-90542762D01*
X208456184Y-90892685D01*
X208645228Y-91019000D01*
X207294772Y-91019000D01*
X207483816Y-90892685D01*
X207717627Y-90542762D01*
X207799731Y-90130000D01*
X207717627Y-89717238D01*
X207483816Y-89367315D01*
X207133893Y-89133504D01*
X206721131Y-89051400D01*
X206678869Y-89051400D01*
X206266107Y-89133504D01*
X205916184Y-89367315D01*
X205682373Y-89717238D01*
X205600269Y-90130000D01*
X205682373Y-90542762D01*
X205728856Y-90612328D01*
X198872184Y-97469000D01*
X190550005Y-97469000D01*
X190550000Y-97468999D01*
X190404198Y-97498002D01*
X190280592Y-97580592D01*
X190280590Y-97580595D01*
X189130592Y-98730592D01*
X189048002Y-98854197D01*
X189034331Y-98922928D01*
X189019000Y-99000000D01*
X189019000Y-101342184D01*
X188375000Y-101986184D01*
X188049408Y-101660592D01*
X187925803Y-101578002D01*
X187780000Y-101549000D01*
X187067837Y-101549000D01*
X187067138Y-101545286D01*
X187017072Y-101467482D01*
X186940680Y-101415285D01*
X186850000Y-101396922D01*
X185350000Y-101396922D01*
X185265286Y-101412862D01*
X185187482Y-101462928D01*
X185135285Y-101539320D01*
X185133325Y-101549000D01*
X184764815Y-101549000D01*
X183796815Y-100581000D01*
X185116922Y-100581000D01*
X185116922Y-100960000D01*
X185132862Y-101044714D01*
X185182928Y-101122518D01*
X185259320Y-101174715D01*
X185350000Y-101193078D01*
X186850000Y-101193078D01*
X186934714Y-101177138D01*
X187012518Y-101127072D01*
X187064715Y-101050680D01*
X187083078Y-100960000D01*
X187083078Y-100360000D01*
X187067138Y-100275286D01*
X187017072Y-100197482D01*
X186940680Y-100145285D01*
X186850000Y-100126922D01*
X186105738Y-100126922D01*
X185909408Y-99930592D01*
X185898162Y-99923078D01*
X186850000Y-99923078D01*
X186934714Y-99907138D01*
X187012518Y-99857072D01*
X187064715Y-99780680D01*
X187066675Y-99771000D01*
X187382184Y-99771000D01*
X188019000Y-100407815D01*
X188019000Y-100622818D01*
X187915789Y-100725849D01*
X187828600Y-100935823D01*
X187828401Y-101163180D01*
X187915224Y-101373306D01*
X188075849Y-101534211D01*
X188285823Y-101621400D01*
X188513180Y-101621599D01*
X188723306Y-101534776D01*
X188884211Y-101374151D01*
X188971400Y-101164177D01*
X188971599Y-100936820D01*
X188884776Y-100726694D01*
X188781000Y-100622737D01*
X188781000Y-100250005D01*
X188781001Y-100250000D01*
X188751998Y-100104198D01*
X188718589Y-100054198D01*
X188669408Y-99980592D01*
X188669405Y-99980590D01*
X187809408Y-99120592D01*
X187685803Y-99038002D01*
X187540000Y-99009000D01*
X187067837Y-99009000D01*
X187067138Y-99005286D01*
X187017072Y-98927482D01*
X186940680Y-98875285D01*
X186850000Y-98856922D01*
X185350000Y-98856922D01*
X185265286Y-98872862D01*
X185187482Y-98922928D01*
X185135285Y-98999320D01*
X185116922Y-99090000D01*
X185116922Y-99690000D01*
X185132862Y-99774714D01*
X185161360Y-99819000D01*
X183807816Y-99819000D01*
X182069408Y-98080592D01*
X181945803Y-97998002D01*
X181800000Y-97969000D01*
X175492698Y-97969000D01*
X175566574Y-97895124D01*
X175455103Y-97783653D01*
X175675604Y-97708885D01*
X175736334Y-97513180D01*
X182578401Y-97513180D01*
X182665224Y-97723306D01*
X182825849Y-97884211D01*
X183035823Y-97971400D01*
X183263180Y-97971599D01*
X183473306Y-97884776D01*
X183634211Y-97724151D01*
X183721400Y-97514177D01*
X183721462Y-97443448D01*
X183785950Y-97599521D01*
X183989408Y-97803335D01*
X184255376Y-97913774D01*
X184543361Y-97914025D01*
X184809521Y-97804050D01*
X185013335Y-97600592D01*
X185123774Y-97334624D01*
X185124025Y-97046639D01*
X185014050Y-96780479D01*
X184810592Y-96576665D01*
X184544624Y-96466226D01*
X184256639Y-96465975D01*
X183990479Y-96575950D01*
X183786665Y-96779408D01*
X183676226Y-97045376D01*
X183676112Y-97176733D01*
X183634776Y-97076694D01*
X183474151Y-96915789D01*
X183264177Y-96828600D01*
X183036820Y-96828401D01*
X182826694Y-96915224D01*
X182665789Y-97075849D01*
X182578600Y-97285823D01*
X182578401Y-97513180D01*
X175736334Y-97513180D01*
X175832912Y-97201954D01*
X175784251Y-96673411D01*
X175675604Y-96411115D01*
X175455101Y-96336346D01*
X174731447Y-97060000D01*
X174745590Y-97074143D01*
X174494143Y-97325590D01*
X174480000Y-97311447D01*
X174465858Y-97325590D01*
X174214411Y-97074143D01*
X174228553Y-97060000D01*
X173504899Y-96336346D01*
X173284396Y-96411115D01*
X173220669Y-96616479D01*
X173135604Y-96411115D01*
X172915101Y-96336346D01*
X172191447Y-97060000D01*
X172205590Y-97074143D01*
X171954143Y-97325590D01*
X171940000Y-97311447D01*
X171216346Y-98035101D01*
X171291115Y-98255604D01*
X171340313Y-98270871D01*
X170953201Y-98657983D01*
X170865510Y-98621570D01*
X170476198Y-98621230D01*
X170116392Y-98769899D01*
X169840867Y-99044944D01*
X169691570Y-99404490D01*
X169691230Y-99793802D01*
X169839899Y-100153608D01*
X170114944Y-100429133D01*
X170474490Y-100578430D01*
X170863802Y-100578770D01*
X171223608Y-100430101D01*
X171499133Y-100155056D01*
X171648430Y-99795510D01*
X171648770Y-99406198D01*
X171541714Y-99147102D01*
X171957816Y-98731000D01*
X172750535Y-98731000D01*
X172656392Y-98769899D01*
X172380867Y-99044944D01*
X172231570Y-99404490D01*
X172231230Y-99793802D01*
X172379899Y-100153608D01*
X172654944Y-100429133D01*
X172819000Y-100497255D01*
X172819000Y-103386922D01*
X172550000Y-103386922D01*
X172465286Y-103402862D01*
X172387482Y-103452928D01*
X172335285Y-103529320D01*
X172316922Y-103620000D01*
X172316922Y-104320000D01*
X172332862Y-104404714D01*
X172382928Y-104482518D01*
X172459320Y-104534715D01*
X172550000Y-104553078D01*
X173850000Y-104553078D01*
X173934714Y-104537138D01*
X174012518Y-104487072D01*
X174064715Y-104410680D01*
X174083078Y-104320000D01*
X174083078Y-103620000D01*
X174067138Y-103535286D01*
X174017072Y-103457482D01*
X173940680Y-103405285D01*
X173850000Y-103386922D01*
X173581000Y-103386922D01*
X173581000Y-100505553D01*
X173763608Y-100430101D01*
X174039133Y-100155056D01*
X174188430Y-99795510D01*
X174188770Y-99406198D01*
X174040101Y-99046392D01*
X173765056Y-98770867D01*
X173669046Y-98731000D01*
X175290535Y-98731000D01*
X175196392Y-98769899D01*
X174920867Y-99044944D01*
X174771570Y-99404490D01*
X174771230Y-99793802D01*
X174919899Y-100153608D01*
X175194944Y-100429133D01*
X175369000Y-100501408D01*
X175369000Y-103386922D01*
X175100000Y-103386922D01*
X175015286Y-103402862D01*
X174937482Y-103452928D01*
X174885285Y-103529320D01*
X174866922Y-103620000D01*
X174866922Y-104320000D01*
X174882862Y-104404714D01*
X174932928Y-104482518D01*
X175009320Y-104534715D01*
X175100000Y-104553078D01*
X176400000Y-104553078D01*
X176484714Y-104537138D01*
X176562518Y-104487072D01*
X176614715Y-104410680D01*
X176633078Y-104320000D01*
X176633078Y-103906796D01*
X179398800Y-103906796D01*
X179398800Y-104324150D01*
X179544850Y-104470200D01*
X180305200Y-104470200D01*
X180305200Y-103584850D01*
X180660800Y-103584850D01*
X180660800Y-104470200D01*
X181421150Y-104470200D01*
X181567200Y-104324150D01*
X181567200Y-103906796D01*
X181478261Y-103692078D01*
X181313923Y-103527739D01*
X181099205Y-103438800D01*
X180806850Y-103438800D01*
X180660800Y-103584850D01*
X180305200Y-103584850D01*
X180159150Y-103438800D01*
X179866795Y-103438800D01*
X179652077Y-103527739D01*
X179487739Y-103692078D01*
X179398800Y-103906796D01*
X176633078Y-103906796D01*
X176633078Y-103620000D01*
X176617138Y-103535286D01*
X176567072Y-103457482D01*
X176490680Y-103405285D01*
X176400000Y-103386922D01*
X176131000Y-103386922D01*
X176131000Y-102652980D01*
X178676201Y-102652980D01*
X178763024Y-102863106D01*
X178923649Y-103024011D01*
X179133623Y-103111200D01*
X179360980Y-103111399D01*
X179453428Y-103073200D01*
X179961438Y-103073200D01*
X179965862Y-103096714D01*
X180015928Y-103174518D01*
X180092320Y-103226715D01*
X180183000Y-103245078D01*
X180883000Y-103245078D01*
X180967714Y-103229138D01*
X181045518Y-103179072D01*
X181097715Y-103102680D01*
X181116078Y-103012000D01*
X181116078Y-101712000D01*
X181100138Y-101627286D01*
X181050072Y-101549482D01*
X180973680Y-101497285D01*
X180883000Y-101478922D01*
X180183000Y-101478922D01*
X180098286Y-101494862D01*
X180020482Y-101544928D01*
X179968285Y-101621320D01*
X179949922Y-101712000D01*
X179949922Y-102006400D01*
X179453491Y-102006400D01*
X179361977Y-101968400D01*
X179134620Y-101968201D01*
X178924494Y-102055024D01*
X178763589Y-102215649D01*
X178676400Y-102425623D01*
X178676201Y-102652980D01*
X176131000Y-102652980D01*
X176131000Y-100501421D01*
X176303608Y-100430101D01*
X176579133Y-100155056D01*
X176651408Y-99981000D01*
X182119184Y-99981000D01*
X184337590Y-102199405D01*
X184337592Y-102199408D01*
X184406362Y-102245358D01*
X184461198Y-102281998D01*
X184607000Y-102311001D01*
X184607005Y-102311000D01*
X185132163Y-102311000D01*
X185132862Y-102314714D01*
X185182928Y-102392518D01*
X185259320Y-102444715D01*
X185350000Y-102463078D01*
X186850000Y-102463078D01*
X186934714Y-102447138D01*
X187012518Y-102397072D01*
X187064715Y-102320680D01*
X187066675Y-102311000D01*
X187622184Y-102311000D01*
X187769000Y-102457816D01*
X187769000Y-102800000D01*
X187798002Y-102945802D01*
X187880592Y-103069408D01*
X188004198Y-103151998D01*
X188150000Y-103181000D01*
X188295802Y-103151998D01*
X188419408Y-103069408D01*
X188501998Y-102945802D01*
X188504229Y-102934587D01*
X189669408Y-101769408D01*
X189751998Y-101645803D01*
X189781000Y-101500000D01*
X189781000Y-99157816D01*
X190707815Y-98231000D01*
X198756766Y-98231000D01*
X197978766Y-99009000D01*
X192467837Y-99009000D01*
X192467138Y-99005286D01*
X192417072Y-98927482D01*
X192340680Y-98875285D01*
X192250000Y-98856922D01*
X190750000Y-98856922D01*
X190665286Y-98872862D01*
X190587482Y-98922928D01*
X190535285Y-98999320D01*
X190516922Y-99090000D01*
X190516922Y-99690000D01*
X190532862Y-99774714D01*
X190582928Y-99852518D01*
X190659320Y-99904715D01*
X190750000Y-99923078D01*
X192250000Y-99923078D01*
X192334714Y-99907138D01*
X192412518Y-99857072D01*
X192464715Y-99780680D01*
X192466675Y-99771000D01*
X198097948Y-99771000D01*
X197513748Y-100355200D01*
X192482175Y-100355200D01*
X192467138Y-100275286D01*
X192417072Y-100197482D01*
X192340680Y-100145285D01*
X192250000Y-100126922D01*
X190750000Y-100126922D01*
X190665286Y-100142862D01*
X190587482Y-100192928D01*
X190535285Y-100269320D01*
X190516922Y-100360000D01*
X190516922Y-100960000D01*
X190532862Y-101044714D01*
X190582928Y-101122518D01*
X190659320Y-101174715D01*
X190750000Y-101193078D01*
X192250000Y-101193078D01*
X192334714Y-101177138D01*
X192412518Y-101127072D01*
X192464715Y-101050680D01*
X192482106Y-100964800D01*
X197454148Y-100964800D01*
X196793748Y-101625200D01*
X192482175Y-101625200D01*
X192467138Y-101545286D01*
X192417072Y-101467482D01*
X192340680Y-101415285D01*
X192250000Y-101396922D01*
X190750000Y-101396922D01*
X190665286Y-101412862D01*
X190587482Y-101462928D01*
X190535285Y-101539320D01*
X190516922Y-101630000D01*
X190516922Y-102230000D01*
X190532862Y-102314714D01*
X190582928Y-102392518D01*
X190659320Y-102444715D01*
X190750000Y-102463078D01*
X192250000Y-102463078D01*
X192334714Y-102447138D01*
X192412518Y-102397072D01*
X192464715Y-102320680D01*
X192482106Y-102234800D01*
X196784148Y-102234800D01*
X195423748Y-103595200D01*
X193463038Y-103595200D01*
X193534211Y-103524151D01*
X193621400Y-103314177D01*
X193621599Y-103086820D01*
X193534776Y-102876694D01*
X193374151Y-102715789D01*
X193164177Y-102628600D01*
X192936820Y-102628401D01*
X192726694Y-102715224D01*
X192622737Y-102819000D01*
X192467837Y-102819000D01*
X192467138Y-102815286D01*
X192417072Y-102737482D01*
X192340680Y-102685285D01*
X192250000Y-102666922D01*
X190750000Y-102666922D01*
X190665286Y-102682862D01*
X190587482Y-102732928D01*
X190535285Y-102809320D01*
X190523871Y-102865683D01*
X190424151Y-102765789D01*
X190214177Y-102678600D01*
X189986820Y-102678401D01*
X189776694Y-102765224D01*
X189615789Y-102925849D01*
X189528600Y-103135823D01*
X189528417Y-103345200D01*
X188142423Y-103345200D01*
X188134776Y-103326694D01*
X187974151Y-103165789D01*
X187764177Y-103078600D01*
X187536820Y-103078401D01*
X187517455Y-103086403D01*
X187415526Y-102984474D01*
X187316642Y-102918402D01*
X187200000Y-102895200D01*
X187082175Y-102895200D01*
X187067138Y-102815286D01*
X187017072Y-102737482D01*
X186940680Y-102685285D01*
X186850000Y-102666922D01*
X185350000Y-102666922D01*
X185265286Y-102682862D01*
X185187482Y-102732928D01*
X185135285Y-102809320D01*
X185117894Y-102895200D01*
X183797252Y-102895200D01*
X183048526Y-102146474D01*
X183016078Y-102124793D01*
X183016078Y-101712000D01*
X183000138Y-101627286D01*
X182950072Y-101549482D01*
X182873680Y-101497285D01*
X182783000Y-101478922D01*
X182083000Y-101478922D01*
X181998286Y-101494862D01*
X181920482Y-101544928D01*
X181868285Y-101621320D01*
X181849922Y-101712000D01*
X181849922Y-103012000D01*
X181865862Y-103096714D01*
X181915928Y-103174518D01*
X181992320Y-103226715D01*
X182083000Y-103245078D01*
X182783000Y-103245078D01*
X182867714Y-103229138D01*
X182945518Y-103179072D01*
X182997715Y-103102680D01*
X183016078Y-103012000D01*
X183016078Y-102976130D01*
X183455474Y-103415526D01*
X183502800Y-103447148D01*
X183114067Y-103835881D01*
X183073680Y-103808285D01*
X182983000Y-103789922D01*
X181983000Y-103789922D01*
X181898286Y-103805862D01*
X181820482Y-103855928D01*
X181768285Y-103932320D01*
X181749922Y-104023000D01*
X181749922Y-105273000D01*
X181765862Y-105357714D01*
X181815928Y-105435518D01*
X181892320Y-105487715D01*
X181983000Y-105506078D01*
X182983000Y-105506078D01*
X183067714Y-105490138D01*
X183145518Y-105440072D01*
X183197715Y-105363680D01*
X183216078Y-105273000D01*
X183216078Y-104595974D01*
X184307252Y-103504800D01*
X185117825Y-103504800D01*
X185132862Y-103584714D01*
X185182928Y-103662518D01*
X185259320Y-103714715D01*
X185350000Y-103733078D01*
X186850000Y-103733078D01*
X186934714Y-103717138D01*
X187012518Y-103667072D01*
X187064715Y-103590680D01*
X187080698Y-103511750D01*
X187086279Y-103517331D01*
X187078600Y-103535823D01*
X187078401Y-103763180D01*
X187165224Y-103973306D01*
X187325849Y-104134211D01*
X187400479Y-104165200D01*
X187082175Y-104165200D01*
X187067138Y-104085286D01*
X187017072Y-104007482D01*
X186940680Y-103955285D01*
X186850000Y-103936922D01*
X185350000Y-103936922D01*
X185265286Y-103952862D01*
X185187482Y-104002928D01*
X185135285Y-104079320D01*
X185116922Y-104170000D01*
X185116922Y-104199384D01*
X185034474Y-104254474D01*
X183753748Y-105535200D01*
X181506727Y-105535200D01*
X181567200Y-105389204D01*
X181567200Y-104971850D01*
X181421150Y-104825800D01*
X180660800Y-104825800D01*
X180660800Y-104845800D01*
X180305200Y-104845800D01*
X180305200Y-104825800D01*
X179544850Y-104825800D01*
X179398800Y-104971850D01*
X179398800Y-105389204D01*
X179487739Y-105603922D01*
X179652077Y-105768261D01*
X179792516Y-105826432D01*
X178333748Y-107285200D01*
X169646252Y-107285200D01*
X168764130Y-106403078D01*
X168800000Y-106403078D01*
X168884714Y-106387138D01*
X168962518Y-106337072D01*
X169014715Y-106260680D01*
X169028815Y-106191050D01*
X171965800Y-106191050D01*
X171965800Y-106336205D01*
X172054739Y-106550923D01*
X172219078Y-106715261D01*
X172433796Y-106804200D01*
X172876150Y-106804200D01*
X173022200Y-106658150D01*
X173022200Y-106045000D01*
X173377800Y-106045000D01*
X173377800Y-106658150D01*
X173523850Y-106804200D01*
X173966204Y-106804200D01*
X174180922Y-106715261D01*
X174345261Y-106550923D01*
X174434200Y-106336205D01*
X174434200Y-106191050D01*
X174515800Y-106191050D01*
X174515800Y-106336205D01*
X174604739Y-106550923D01*
X174769078Y-106715261D01*
X174983796Y-106804200D01*
X175426150Y-106804200D01*
X175572200Y-106658150D01*
X175572200Y-106045000D01*
X175927800Y-106045000D01*
X175927800Y-106658150D01*
X176073850Y-106804200D01*
X176516204Y-106804200D01*
X176730922Y-106715261D01*
X176895261Y-106550923D01*
X176984200Y-106336205D01*
X176984200Y-106191050D01*
X176838150Y-106045000D01*
X175927800Y-106045000D01*
X175572200Y-106045000D01*
X174661850Y-106045000D01*
X174515800Y-106191050D01*
X174434200Y-106191050D01*
X174288150Y-106045000D01*
X173377800Y-106045000D01*
X173022200Y-106045000D01*
X172111850Y-106045000D01*
X171965800Y-106191050D01*
X169028815Y-106191050D01*
X169033078Y-106170000D01*
X169033078Y-105470000D01*
X169020621Y-105403795D01*
X171965800Y-105403795D01*
X171965800Y-105548950D01*
X172111850Y-105695000D01*
X173022200Y-105695000D01*
X173022200Y-105081850D01*
X173377800Y-105081850D01*
X173377800Y-105695000D01*
X174288150Y-105695000D01*
X174434200Y-105548950D01*
X174434200Y-105403795D01*
X174515800Y-105403795D01*
X174515800Y-105548950D01*
X174661850Y-105695000D01*
X175572200Y-105695000D01*
X175572200Y-105081850D01*
X175927800Y-105081850D01*
X175927800Y-105695000D01*
X176838150Y-105695000D01*
X176984200Y-105548950D01*
X176984200Y-105403795D01*
X176895261Y-105189077D01*
X176730922Y-105024739D01*
X176516204Y-104935800D01*
X176073850Y-104935800D01*
X175927800Y-105081850D01*
X175572200Y-105081850D01*
X175426150Y-104935800D01*
X174983796Y-104935800D01*
X174769078Y-105024739D01*
X174604739Y-105189077D01*
X174515800Y-105403795D01*
X174434200Y-105403795D01*
X174345261Y-105189077D01*
X174180922Y-105024739D01*
X173966204Y-104935800D01*
X173523850Y-104935800D01*
X173377800Y-105081850D01*
X173022200Y-105081850D01*
X172876150Y-104935800D01*
X172433796Y-104935800D01*
X172219078Y-105024739D01*
X172054739Y-105189077D01*
X171965800Y-105403795D01*
X169020621Y-105403795D01*
X169017138Y-105385286D01*
X168967072Y-105307482D01*
X168890680Y-105255285D01*
X168800000Y-105236922D01*
X167500000Y-105236922D01*
X167415286Y-105252862D01*
X167337482Y-105302928D01*
X167285285Y-105379320D01*
X167266922Y-105470000D01*
X160533078Y-105470000D01*
X160533078Y-104750000D01*
X160517138Y-104665286D01*
X160467072Y-104587482D01*
X160390680Y-104535285D01*
X160300000Y-104516922D01*
X158600000Y-104516922D01*
X158515286Y-104532862D01*
X158437482Y-104582928D01*
X158385285Y-104659320D01*
X158366922Y-104750000D01*
X157183400Y-104750000D01*
X157183400Y-103458239D01*
X158072199Y-103458239D01*
X158194138Y-103752663D01*
X158554806Y-104180535D01*
X159051759Y-104437815D01*
X159272200Y-104337100D01*
X159272200Y-103237800D01*
X159627800Y-103237800D01*
X159627800Y-104337100D01*
X159848241Y-104437815D01*
X160345194Y-104180535D01*
X160705862Y-103752663D01*
X160827801Y-103458239D01*
X160725820Y-103237800D01*
X159627800Y-103237800D01*
X159272200Y-103237800D01*
X158174180Y-103237800D01*
X158072199Y-103458239D01*
X157183400Y-103458239D01*
X157183400Y-102661761D01*
X158072199Y-102661761D01*
X158174180Y-102882200D01*
X159272200Y-102882200D01*
X159272200Y-101782900D01*
X159627800Y-101782900D01*
X159627800Y-102882200D01*
X160725820Y-102882200D01*
X160827801Y-102661761D01*
X160705862Y-102367337D01*
X160345194Y-101939465D01*
X159848241Y-101682185D01*
X159627800Y-101782900D01*
X159272200Y-101782900D01*
X159051759Y-101682185D01*
X158554806Y-101939465D01*
X158194138Y-102367337D01*
X158072199Y-102661761D01*
X157183400Y-102661761D01*
X157183400Y-99793802D01*
X167151230Y-99793802D01*
X167299899Y-100153608D01*
X167574944Y-100429133D01*
X167769000Y-100509712D01*
X167769000Y-103336922D01*
X167500000Y-103336922D01*
X167415286Y-103352862D01*
X167337482Y-103402928D01*
X167285285Y-103479320D01*
X167266922Y-103570000D01*
X167266922Y-104270000D01*
X167282862Y-104354714D01*
X167332928Y-104432518D01*
X167409320Y-104484715D01*
X167500000Y-104503078D01*
X168800000Y-104503078D01*
X168884714Y-104487138D01*
X168962518Y-104437072D01*
X169014715Y-104360680D01*
X169033078Y-104270000D01*
X169033078Y-103570000D01*
X169017138Y-103485286D01*
X168967072Y-103407482D01*
X168890680Y-103355285D01*
X168800000Y-103336922D01*
X168531000Y-103336922D01*
X168531000Y-100493157D01*
X168683608Y-100430101D01*
X168959133Y-100155056D01*
X169108430Y-99795510D01*
X169108770Y-99406198D01*
X168960101Y-99046392D01*
X168685056Y-98770867D01*
X168325510Y-98621570D01*
X167936198Y-98621230D01*
X167576392Y-98769899D01*
X167300867Y-99044944D01*
X167151570Y-99404490D01*
X167151230Y-99793802D01*
X157183400Y-99793802D01*
X157183400Y-97383850D01*
X165525800Y-97383850D01*
X165525800Y-97926204D01*
X165614739Y-98140922D01*
X165779077Y-98305261D01*
X165993795Y-98394200D01*
X166536150Y-98394200D01*
X166682200Y-98248150D01*
X166682200Y-97237800D01*
X165671850Y-97237800D01*
X165525800Y-97383850D01*
X157183400Y-97383850D01*
X157183400Y-96193796D01*
X165525800Y-96193796D01*
X165525800Y-96736150D01*
X165671850Y-96882200D01*
X166682200Y-96882200D01*
X166682200Y-95871850D01*
X167037800Y-95871850D01*
X167037800Y-96882200D01*
X167057800Y-96882200D01*
X167057800Y-97237800D01*
X167037800Y-97237800D01*
X167037800Y-98248150D01*
X167183850Y-98394200D01*
X167726205Y-98394200D01*
X167940923Y-98305261D01*
X168105261Y-98140922D01*
X168149093Y-98035101D01*
X168676346Y-98035101D01*
X168751115Y-98255604D01*
X169258046Y-98412912D01*
X169786589Y-98364251D01*
X170048885Y-98255604D01*
X170123654Y-98035101D01*
X169400000Y-97311447D01*
X168676346Y-98035101D01*
X168149093Y-98035101D01*
X168194200Y-97926204D01*
X168194200Y-97684270D01*
X168204396Y-97708885D01*
X168424899Y-97783654D01*
X169148553Y-97060000D01*
X169651447Y-97060000D01*
X170375101Y-97783654D01*
X170595604Y-97708885D01*
X170659331Y-97503521D01*
X170744396Y-97708885D01*
X170964899Y-97783654D01*
X171688553Y-97060000D01*
X170964899Y-96336346D01*
X170744396Y-96411115D01*
X170680669Y-96616479D01*
X170595604Y-96411115D01*
X170375101Y-96336346D01*
X169651447Y-97060000D01*
X169148553Y-97060000D01*
X168424899Y-96336346D01*
X168204396Y-96411115D01*
X168194200Y-96443972D01*
X168194200Y-96193796D01*
X168149094Y-96084899D01*
X168676346Y-96084899D01*
X169400000Y-96808553D01*
X170123654Y-96084899D01*
X171216346Y-96084899D01*
X171940000Y-96808553D01*
X172663654Y-96084899D01*
X173756346Y-96084899D01*
X174480000Y-96808553D01*
X175113452Y-96175101D01*
X192676346Y-96175101D01*
X192751115Y-96395604D01*
X193258046Y-96552912D01*
X193786589Y-96504251D01*
X194048885Y-96395604D01*
X194123654Y-96175101D01*
X193400000Y-95451447D01*
X192676346Y-96175101D01*
X175113452Y-96175101D01*
X175203654Y-96084899D01*
X175128885Y-95864396D01*
X174621954Y-95707088D01*
X174093411Y-95755749D01*
X173831115Y-95864396D01*
X173756346Y-96084899D01*
X172663654Y-96084899D01*
X172588885Y-95864396D01*
X172081954Y-95707088D01*
X171553411Y-95755749D01*
X171291115Y-95864396D01*
X171216346Y-96084899D01*
X170123654Y-96084899D01*
X170048885Y-95864396D01*
X169541954Y-95707088D01*
X169013411Y-95755749D01*
X168751115Y-95864396D01*
X168676346Y-96084899D01*
X168149094Y-96084899D01*
X168105261Y-95979078D01*
X167940923Y-95814739D01*
X167726205Y-95725800D01*
X167183850Y-95725800D01*
X167037800Y-95871850D01*
X166682200Y-95871850D01*
X166536150Y-95725800D01*
X165993795Y-95725800D01*
X165779077Y-95814739D01*
X165614739Y-95979078D01*
X165525800Y-96193796D01*
X157183400Y-96193796D01*
X157183400Y-95058046D01*
X192047088Y-95058046D01*
X192095749Y-95586589D01*
X192204396Y-95848885D01*
X192424899Y-95923654D01*
X193148553Y-95200000D01*
X193651447Y-95200000D01*
X194375101Y-95923654D01*
X194595604Y-95848885D01*
X194752912Y-95341954D01*
X194704251Y-94813411D01*
X194595604Y-94551115D01*
X194375101Y-94476346D01*
X193651447Y-95200000D01*
X193148553Y-95200000D01*
X192424899Y-94476346D01*
X192204396Y-94551115D01*
X192047088Y-95058046D01*
X157183400Y-95058046D01*
X157183400Y-94224899D01*
X192676346Y-94224899D01*
X193400000Y-94948553D01*
X194123654Y-94224899D01*
X194048885Y-94004396D01*
X193541954Y-93847088D01*
X193013411Y-93895749D01*
X192751115Y-94004396D01*
X192676346Y-94224899D01*
X157183400Y-94224899D01*
X157183400Y-92370942D01*
X158437648Y-91116694D01*
X163536045Y-91116694D01*
X163848028Y-91871751D01*
X164425210Y-92449942D01*
X165179722Y-92763242D01*
X165996694Y-92763955D01*
X166751751Y-92451972D01*
X167329942Y-91874790D01*
X167643242Y-91120278D01*
X167643245Y-91116694D01*
X174966045Y-91116694D01*
X175278028Y-91871751D01*
X175855210Y-92449942D01*
X176609722Y-92763242D01*
X177426694Y-92763955D01*
X178181751Y-92451972D01*
X178380709Y-92253361D01*
X182659975Y-92253361D01*
X182769950Y-92519521D01*
X182973408Y-92723335D01*
X183239376Y-92833774D01*
X183527361Y-92834025D01*
X183793521Y-92724050D01*
X183997335Y-92520592D01*
X184107774Y-92254624D01*
X184107775Y-92253361D01*
X184691975Y-92253361D01*
X184801950Y-92519521D01*
X185005408Y-92723335D01*
X185271376Y-92833774D01*
X185559361Y-92834025D01*
X185825521Y-92724050D01*
X186029335Y-92520592D01*
X186139774Y-92254624D01*
X186140025Y-91966639D01*
X186030050Y-91700479D01*
X185826592Y-91496665D01*
X185560624Y-91386226D01*
X185272639Y-91385975D01*
X185006479Y-91495950D01*
X184802665Y-91699408D01*
X184692226Y-91965376D01*
X184691975Y-92253361D01*
X184107775Y-92253361D01*
X184108025Y-91966639D01*
X183998050Y-91700479D01*
X183794592Y-91496665D01*
X183528624Y-91386226D01*
X183240639Y-91385975D01*
X182974479Y-91495950D01*
X182770665Y-91699408D01*
X182660226Y-91965376D01*
X182659975Y-92253361D01*
X178380709Y-92253361D01*
X178759942Y-91874790D01*
X179073242Y-91120278D01*
X179073955Y-90303306D01*
X178862709Y-89792050D01*
X187944600Y-89792050D01*
X187944600Y-90084405D01*
X188033539Y-90299123D01*
X188197878Y-90463461D01*
X188412596Y-90552400D01*
X188829950Y-90552400D01*
X188976000Y-90406350D01*
X188976000Y-89646000D01*
X189331600Y-89646000D01*
X189331600Y-90406350D01*
X189477650Y-90552400D01*
X189895004Y-90552400D01*
X190109722Y-90463461D01*
X190274061Y-90299123D01*
X190363000Y-90084405D01*
X190363000Y-89792050D01*
X190216950Y-89646000D01*
X189331600Y-89646000D01*
X188976000Y-89646000D01*
X188090650Y-89646000D01*
X187944600Y-89792050D01*
X178862709Y-89792050D01*
X178761972Y-89548249D01*
X178184790Y-88970058D01*
X177900463Y-88851995D01*
X187944600Y-88851995D01*
X187944600Y-89144350D01*
X188090650Y-89290400D01*
X188976000Y-89290400D01*
X188976000Y-88530050D01*
X189331600Y-88530050D01*
X189331600Y-89290400D01*
X190216950Y-89290400D01*
X190363000Y-89144350D01*
X190363000Y-88851995D01*
X190274061Y-88637277D01*
X190109722Y-88472939D01*
X189895004Y-88384000D01*
X189477650Y-88384000D01*
X189331600Y-88530050D01*
X188976000Y-88530050D01*
X188829950Y-88384000D01*
X188412596Y-88384000D01*
X188197878Y-88472939D01*
X188033539Y-88637277D01*
X187944600Y-88851995D01*
X177900463Y-88851995D01*
X177430278Y-88656758D01*
X176613306Y-88656045D01*
X175858249Y-88968028D01*
X175280058Y-89545210D01*
X174966758Y-90299722D01*
X174966045Y-91116694D01*
X167643245Y-91116694D01*
X167643955Y-90303306D01*
X167331972Y-89548249D01*
X166754790Y-88970058D01*
X166000278Y-88656758D01*
X165183306Y-88656045D01*
X164428249Y-88968028D01*
X163850058Y-89545210D01*
X163536758Y-90299722D01*
X163536045Y-91116694D01*
X158437648Y-91116694D01*
X161552742Y-88001600D01*
X188302007Y-88001600D01*
X188311662Y-88052914D01*
X188361728Y-88130718D01*
X188438120Y-88182915D01*
X188528800Y-88201278D01*
X189778800Y-88201278D01*
X189863514Y-88185338D01*
X189941318Y-88135272D01*
X189993515Y-88058880D01*
X190008800Y-87983400D01*
X191589219Y-87983400D01*
X191664320Y-88034715D01*
X191755000Y-88053078D01*
X192945000Y-88053078D01*
X193029714Y-88037138D01*
X193090800Y-87997830D01*
X193090800Y-88802947D01*
X193035680Y-88765285D01*
X192945000Y-88746922D01*
X191755000Y-88746922D01*
X191670286Y-88762862D01*
X191592482Y-88812928D01*
X191540285Y-88889320D01*
X191521922Y-88980000D01*
X191521922Y-89720000D01*
X191537862Y-89804714D01*
X191587928Y-89882518D01*
X191664320Y-89934715D01*
X191755000Y-89953078D01*
X192945000Y-89953078D01*
X193029714Y-89937138D01*
X193090800Y-89897830D01*
X193090800Y-90454859D01*
X192868737Y-90676922D01*
X192390000Y-90676922D01*
X192305286Y-90692862D01*
X192227482Y-90742928D01*
X192175285Y-90819320D01*
X192156922Y-90910000D01*
X192156922Y-92210000D01*
X192172862Y-92294714D01*
X192222928Y-92372518D01*
X192299320Y-92424715D01*
X192390000Y-92443078D01*
X193090000Y-92443078D01*
X193174714Y-92427138D01*
X193252518Y-92377072D01*
X193304715Y-92300680D01*
X193323078Y-92210000D01*
X193323078Y-91731264D01*
X194001368Y-91052973D01*
X194001371Y-91052971D01*
X194056922Y-90969832D01*
X194056922Y-92210000D01*
X194072862Y-92294714D01*
X194122928Y-92372518D01*
X194199320Y-92424715D01*
X194290000Y-92443078D01*
X194990000Y-92443078D01*
X195074714Y-92427138D01*
X195152518Y-92377072D01*
X195204715Y-92300680D01*
X195223078Y-92210000D01*
X195223078Y-91343850D01*
X196830800Y-91343850D01*
X196830800Y-91636205D01*
X196919739Y-91850923D01*
X197084078Y-92015261D01*
X197298796Y-92104200D01*
X197716150Y-92104200D01*
X197862200Y-91958150D01*
X197862200Y-91197800D01*
X198217800Y-91197800D01*
X198217800Y-91958150D01*
X198363850Y-92104200D01*
X198781204Y-92104200D01*
X198995922Y-92015261D01*
X199160261Y-91850923D01*
X199249200Y-91636205D01*
X199249200Y-91343850D01*
X199103150Y-91197800D01*
X198217800Y-91197800D01*
X197862200Y-91197800D01*
X196976850Y-91197800D01*
X196830800Y-91343850D01*
X195223078Y-91343850D01*
X195223078Y-90910000D01*
X195207138Y-90825286D01*
X195173400Y-90772856D01*
X195173400Y-90403795D01*
X196830800Y-90403795D01*
X196830800Y-90696150D01*
X196976850Y-90842200D01*
X197862200Y-90842200D01*
X197862200Y-90081850D01*
X198217800Y-90081850D01*
X198217800Y-90842200D01*
X199103150Y-90842200D01*
X199249200Y-90696150D01*
X199249200Y-90403795D01*
X199160261Y-90189077D01*
X198995922Y-90024739D01*
X198781204Y-89935800D01*
X198363850Y-89935800D01*
X198217800Y-90081850D01*
X197862200Y-90081850D01*
X197716150Y-89935800D01*
X197298796Y-89935800D01*
X197084078Y-90024739D01*
X196919739Y-90189077D01*
X196830800Y-90403795D01*
X195173400Y-90403795D01*
X195173400Y-89980942D01*
X195201264Y-89953078D01*
X195645000Y-89953078D01*
X195729714Y-89937138D01*
X195807518Y-89887072D01*
X195859715Y-89810680D01*
X195878078Y-89720000D01*
X195878078Y-89305789D01*
X195975922Y-89265261D01*
X196140261Y-89100923D01*
X196229200Y-88886205D01*
X196229200Y-88723850D01*
X196083150Y-88577800D01*
X195227800Y-88577800D01*
X195227800Y-88597800D01*
X194872200Y-88597800D01*
X194872200Y-88577800D01*
X194852200Y-88577800D01*
X194852200Y-88222200D01*
X194872200Y-88222200D01*
X194872200Y-88202200D01*
X195227800Y-88202200D01*
X195227800Y-88222200D01*
X196083150Y-88222200D01*
X196229200Y-88076150D01*
X196229200Y-87983400D01*
X196249058Y-87983400D01*
X197181922Y-88916264D01*
X197181922Y-89520000D01*
X197197862Y-89604714D01*
X197247928Y-89682518D01*
X197324320Y-89734715D01*
X197415000Y-89753078D01*
X197657398Y-89753078D01*
X197719235Y-89794396D01*
X198040000Y-89858200D01*
X198360765Y-89794396D01*
X198422602Y-89753078D01*
X198665000Y-89753078D01*
X198749714Y-89737138D01*
X198827518Y-89687072D01*
X198879715Y-89610680D01*
X198898078Y-89520000D01*
X198898078Y-89458800D01*
X199463709Y-89458800D01*
X199555223Y-89496800D01*
X199782580Y-89496999D01*
X199992706Y-89410176D01*
X200153611Y-89249551D01*
X200240800Y-89039577D01*
X200240999Y-88812220D01*
X200154176Y-88602094D01*
X199993551Y-88441189D01*
X199783577Y-88354000D01*
X199556220Y-88353801D01*
X199463772Y-88392000D01*
X198878200Y-88392000D01*
X198878200Y-87988239D01*
X205322199Y-87988239D01*
X205444138Y-88282663D01*
X205804806Y-88710535D01*
X206301759Y-88967815D01*
X206522200Y-88867100D01*
X206522200Y-87767800D01*
X206877800Y-87767800D01*
X206877800Y-88867100D01*
X207098241Y-88967815D01*
X207595194Y-88710535D01*
X207955862Y-88282663D01*
X208077801Y-87988239D01*
X207975820Y-87767800D01*
X206877800Y-87767800D01*
X206522200Y-87767800D01*
X205424180Y-87767800D01*
X205322199Y-87988239D01*
X198878200Y-87988239D01*
X198878200Y-87590000D01*
X208140269Y-87590000D01*
X208222373Y-88002762D01*
X208456184Y-88352685D01*
X208806107Y-88586496D01*
X209218869Y-88668600D01*
X209261131Y-88668600D01*
X209673893Y-88586496D01*
X210023816Y-88352685D01*
X210257627Y-88002762D01*
X210339731Y-87590000D01*
X210257627Y-87177238D01*
X210226732Y-87131000D01*
X211590478Y-87131000D01*
X211587482Y-87132928D01*
X211535285Y-87209320D01*
X211516922Y-87300000D01*
X211516922Y-88100000D01*
X211532862Y-88184714D01*
X211582928Y-88262518D01*
X211659320Y-88314715D01*
X211666600Y-88316189D01*
X211666600Y-88575213D01*
X211565789Y-88675849D01*
X211478600Y-88885823D01*
X211478401Y-89113180D01*
X211565224Y-89323306D01*
X211725849Y-89484211D01*
X211935823Y-89571400D01*
X212163180Y-89571599D01*
X212373306Y-89484776D01*
X212534211Y-89324151D01*
X212572570Y-89231772D01*
X212577171Y-89227171D01*
X212692797Y-89054123D01*
X212733400Y-88850000D01*
X212733400Y-88317385D01*
X212734714Y-88317138D01*
X212812518Y-88267072D01*
X212864715Y-88190680D01*
X212883078Y-88100000D01*
X212883078Y-87300000D01*
X212867138Y-87215286D01*
X212817072Y-87137482D01*
X212807585Y-87131000D01*
X213516922Y-87131000D01*
X213516922Y-87150000D01*
X213532862Y-87234714D01*
X213582928Y-87312518D01*
X213659320Y-87364715D01*
X213750000Y-87383078D01*
X214650000Y-87383078D01*
X214734714Y-87367138D01*
X214812518Y-87317072D01*
X214864715Y-87240680D01*
X214870239Y-87213400D01*
X216956922Y-87213400D01*
X216956922Y-87330000D01*
X216972862Y-87414714D01*
X217022928Y-87492518D01*
X217099320Y-87544715D01*
X217190000Y-87563078D01*
X217890000Y-87563078D01*
X217974714Y-87547138D01*
X218052518Y-87497072D01*
X218104715Y-87420680D01*
X218123078Y-87330000D01*
X218123078Y-86030000D01*
X218856922Y-86030000D01*
X218856922Y-87330000D01*
X218872862Y-87414714D01*
X218922928Y-87492518D01*
X218999320Y-87544715D01*
X219090000Y-87563078D01*
X219790000Y-87563078D01*
X219874714Y-87547138D01*
X219952518Y-87497072D01*
X220004715Y-87420680D01*
X220023078Y-87330000D01*
X220023078Y-86851264D01*
X220671371Y-86202971D01*
X220786997Y-86029924D01*
X220827600Y-85825800D01*
X220827600Y-85549691D01*
X220865600Y-85458177D01*
X220865799Y-85230820D01*
X220778976Y-85020694D01*
X220618351Y-84859789D01*
X220408377Y-84772600D01*
X220181020Y-84772401D01*
X219970894Y-84859224D01*
X219809989Y-85019849D01*
X219722800Y-85229823D01*
X219722601Y-85457180D01*
X219760800Y-85549628D01*
X219760800Y-85604858D01*
X219568736Y-85796922D01*
X219090000Y-85796922D01*
X219005286Y-85812862D01*
X218927482Y-85862928D01*
X218875285Y-85939320D01*
X218856922Y-86030000D01*
X218123078Y-86030000D01*
X218107138Y-85945286D01*
X218057072Y-85867482D01*
X217980680Y-85815285D01*
X217890000Y-85796922D01*
X217190000Y-85796922D01*
X217105286Y-85812862D01*
X217027482Y-85862928D01*
X216975285Y-85939320D01*
X216956922Y-86030000D01*
X216956922Y-86146600D01*
X214757240Y-86146600D01*
X214740680Y-86135285D01*
X214650000Y-86116922D01*
X213750000Y-86116922D01*
X213665286Y-86132862D01*
X213587482Y-86182928D01*
X213535285Y-86259320D01*
X213516922Y-86350000D01*
X213516922Y-86369000D01*
X210050000Y-86369000D01*
X209904197Y-86398002D01*
X209780592Y-86480592D01*
X209668711Y-86592473D01*
X209261131Y-86511400D01*
X209218869Y-86511400D01*
X208806107Y-86593504D01*
X208456184Y-86827315D01*
X208222373Y-87177238D01*
X208140269Y-87590000D01*
X198878200Y-87590000D01*
X198878200Y-87191761D01*
X205322199Y-87191761D01*
X205424180Y-87412200D01*
X206522200Y-87412200D01*
X206522200Y-86312900D01*
X206877800Y-86312900D01*
X206877800Y-87412200D01*
X207975820Y-87412200D01*
X208077801Y-87191761D01*
X207955862Y-86897337D01*
X207595194Y-86469465D01*
X207098241Y-86212185D01*
X206877800Y-86312900D01*
X206522200Y-86312900D01*
X206301759Y-86212185D01*
X205804806Y-86469465D01*
X205444138Y-86897337D01*
X205322199Y-87191761D01*
X198878200Y-87191761D01*
X198878200Y-85990000D01*
X198814396Y-85669235D01*
X198632697Y-85397303D01*
X197835394Y-84600000D01*
X198567697Y-83867697D01*
X198749396Y-83595766D01*
X198813200Y-83275000D01*
X198813200Y-83208078D01*
X199475000Y-83208078D01*
X199559714Y-83192138D01*
X199637518Y-83142072D01*
X199689715Y-83065680D01*
X199700342Y-83013200D01*
X204365000Y-83013200D01*
X204441024Y-82998078D01*
X204900000Y-82998078D01*
X204984714Y-82982138D01*
X205062518Y-82932072D01*
X205114715Y-82855680D01*
X205133078Y-82765000D01*
X205133078Y-82522601D01*
X205172334Y-82463850D01*
X205315800Y-82463850D01*
X205315800Y-82881204D01*
X205404739Y-83095922D01*
X205569077Y-83260261D01*
X205783795Y-83349200D01*
X206076150Y-83349200D01*
X206222200Y-83203150D01*
X206222200Y-82317800D01*
X206577800Y-82317800D01*
X206577800Y-83203150D01*
X206723850Y-83349200D01*
X207016205Y-83349200D01*
X207230923Y-83260261D01*
X207395261Y-83095922D01*
X207484200Y-82881204D01*
X207484200Y-82463850D01*
X207338150Y-82317800D01*
X206577800Y-82317800D01*
X206222200Y-82317800D01*
X205461850Y-82317800D01*
X205315800Y-82463850D01*
X205172334Y-82463850D01*
X205174395Y-82460766D01*
X205238200Y-82140000D01*
X205174395Y-81819235D01*
X205133078Y-81757399D01*
X205133078Y-81515000D01*
X205117138Y-81430286D01*
X205096875Y-81398796D01*
X205315800Y-81398796D01*
X205315800Y-81816150D01*
X205461850Y-81962200D01*
X206222200Y-81962200D01*
X206222200Y-81076850D01*
X206577800Y-81076850D01*
X206577800Y-81962200D01*
X207338150Y-81962200D01*
X207484200Y-81816150D01*
X207484200Y-81398796D01*
X207395261Y-81184078D01*
X207230923Y-81019739D01*
X207016205Y-80930800D01*
X206723850Y-80930800D01*
X206577800Y-81076850D01*
X206222200Y-81076850D01*
X206076150Y-80930800D01*
X205783795Y-80930800D01*
X205569077Y-81019739D01*
X205404739Y-81184078D01*
X205315800Y-81398796D01*
X205096875Y-81398796D01*
X205067072Y-81352482D01*
X204990680Y-81300285D01*
X204900000Y-81281922D01*
X203900000Y-81281922D01*
X203815286Y-81297862D01*
X203754775Y-81336800D01*
X199700890Y-81336800D01*
X199692138Y-81290286D01*
X199642072Y-81212482D01*
X199565680Y-81160285D01*
X199475000Y-81141922D01*
X196475000Y-81141922D01*
X196390286Y-81157862D01*
X196312482Y-81207928D01*
X196260285Y-81284320D01*
X196241922Y-81375000D01*
X196241922Y-82975000D01*
X196257862Y-83059714D01*
X196307928Y-83137518D01*
X196384320Y-83189715D01*
X196475000Y-83208078D01*
X196856528Y-83208078D01*
X196057303Y-84007303D01*
X195875604Y-84279234D01*
X195811800Y-84600000D01*
X195875604Y-84920766D01*
X196057303Y-85192697D01*
X197201800Y-86337194D01*
X197201800Y-87427458D01*
X196847171Y-87072829D01*
X196674123Y-86957203D01*
X196470000Y-86916600D01*
X195810781Y-86916600D01*
X195735680Y-86865285D01*
X195645000Y-86846922D01*
X194455000Y-86846922D01*
X194370286Y-86862862D01*
X194292482Y-86912928D01*
X194289973Y-86916600D01*
X193990000Y-86916600D01*
X193785877Y-86957203D01*
X193612829Y-87072829D01*
X193252829Y-87432829D01*
X193252827Y-87432832D01*
X193247029Y-87438629D01*
X193178078Y-87541822D01*
X193178078Y-87080000D01*
X193162138Y-86995286D01*
X193112072Y-86917482D01*
X193035680Y-86865285D01*
X192945000Y-86846922D01*
X191755000Y-86846922D01*
X191670286Y-86862862D01*
X191592482Y-86912928D01*
X191589973Y-86916600D01*
X190002169Y-86916600D01*
X189995938Y-86883486D01*
X189945872Y-86805682D01*
X189869480Y-86753485D01*
X189778800Y-86735122D01*
X188528800Y-86735122D01*
X188444086Y-86751062D01*
X188366282Y-86801128D01*
X188314085Y-86877520D01*
X188302486Y-86934800D01*
X161331800Y-86934800D01*
X161127677Y-86975403D01*
X160954629Y-87091029D01*
X156272829Y-91772829D01*
X156157203Y-91945877D01*
X156116600Y-92150000D01*
X155003600Y-92150000D01*
X155003600Y-80198850D01*
X187390800Y-80198850D01*
X187390800Y-83341204D01*
X187479739Y-83555922D01*
X187644077Y-83720261D01*
X187858795Y-83809200D01*
X191001150Y-83809200D01*
X191147200Y-83663150D01*
X191147200Y-80052800D01*
X191502800Y-80052800D01*
X191502800Y-83663150D01*
X191648850Y-83809200D01*
X194791205Y-83809200D01*
X195005923Y-83720261D01*
X195170261Y-83555922D01*
X195259200Y-83341204D01*
X195259200Y-80198850D01*
X195113150Y-80052800D01*
X191502800Y-80052800D01*
X191147200Y-80052800D01*
X187536850Y-80052800D01*
X187390800Y-80198850D01*
X155003600Y-80198850D01*
X155003600Y-76408796D01*
X187390800Y-76408796D01*
X187390800Y-79551150D01*
X187536850Y-79697200D01*
X191147200Y-79697200D01*
X191147200Y-76086850D01*
X191502800Y-76086850D01*
X191502800Y-79697200D01*
X195113150Y-79697200D01*
X195259200Y-79551150D01*
X195259200Y-76775000D01*
X196241922Y-76775000D01*
X196241922Y-78375000D01*
X196257862Y-78459714D01*
X196307928Y-78537518D01*
X196384320Y-78589715D01*
X196475000Y-78608078D01*
X197949250Y-78608078D01*
X197975000Y-78613200D01*
X198000750Y-78608078D01*
X199475000Y-78608078D01*
X199559714Y-78592138D01*
X199637518Y-78542072D01*
X199689715Y-78465680D01*
X199708078Y-78375000D01*
X199708078Y-78108400D01*
X203626922Y-78108400D01*
X203626922Y-78385000D01*
X203642862Y-78469714D01*
X203692928Y-78547518D01*
X203769320Y-78599715D01*
X203826600Y-78611314D01*
X203826600Y-79061800D01*
X203867203Y-79265923D01*
X203982829Y-79438971D01*
X204821029Y-80277171D01*
X204994077Y-80392797D01*
X205198200Y-80433400D01*
X211876922Y-80433400D01*
X211876922Y-80750000D01*
X211892862Y-80834714D01*
X211942928Y-80912518D01*
X212019320Y-80964715D01*
X212110000Y-80983078D01*
X213810000Y-80983078D01*
X213894714Y-80967138D01*
X213972518Y-80917072D01*
X214024715Y-80840680D01*
X214043078Y-80750000D01*
X214043078Y-80298241D01*
X214122185Y-80298241D01*
X214379465Y-80795194D01*
X214807337Y-81155862D01*
X215101761Y-81277801D01*
X215322200Y-81175820D01*
X215322200Y-80077800D01*
X215677800Y-80077800D01*
X215677800Y-81175820D01*
X215898239Y-81277801D01*
X216192663Y-81155862D01*
X216620535Y-80795194D01*
X216877815Y-80298241D01*
X216777100Y-80077800D01*
X215677800Y-80077800D01*
X215322200Y-80077800D01*
X214222900Y-80077800D01*
X214122185Y-80298241D01*
X214043078Y-80298241D01*
X214043078Y-79501759D01*
X214122185Y-79501759D01*
X214222900Y-79722200D01*
X215322200Y-79722200D01*
X215322200Y-78624180D01*
X215677800Y-78624180D01*
X215677800Y-79722200D01*
X216777100Y-79722200D01*
X216877815Y-79501759D01*
X216620535Y-79004806D01*
X216192663Y-78644138D01*
X215898239Y-78522199D01*
X215677800Y-78624180D01*
X215322200Y-78624180D01*
X215101761Y-78522199D01*
X214807337Y-78644138D01*
X214379465Y-79004806D01*
X214122185Y-79501759D01*
X214043078Y-79501759D01*
X214043078Y-79050000D01*
X214027138Y-78965286D01*
X213977072Y-78887482D01*
X213900680Y-78835285D01*
X213810000Y-78816922D01*
X212110000Y-78816922D01*
X212025286Y-78832862D01*
X211947482Y-78882928D01*
X211895285Y-78959320D01*
X211876922Y-79050000D01*
X211876922Y-79366600D01*
X205419142Y-79366600D01*
X204893400Y-78840858D01*
X204893400Y-78611793D01*
X204944714Y-78602138D01*
X205022518Y-78552072D01*
X205074715Y-78475680D01*
X205093078Y-78385000D01*
X205093078Y-78083850D01*
X205275800Y-78083850D01*
X205275800Y-78501204D01*
X205364739Y-78715922D01*
X205529077Y-78880261D01*
X205743795Y-78969200D01*
X206036150Y-78969200D01*
X206182200Y-78823150D01*
X206182200Y-77937800D01*
X206537800Y-77937800D01*
X206537800Y-78823150D01*
X206683850Y-78969200D01*
X206976205Y-78969200D01*
X207190923Y-78880261D01*
X207355261Y-78715922D01*
X207444200Y-78501204D01*
X207444200Y-78083850D01*
X207298150Y-77937800D01*
X206537800Y-77937800D01*
X206182200Y-77937800D01*
X205421850Y-77937800D01*
X205275800Y-78083850D01*
X205093078Y-78083850D01*
X205093078Y-77135000D01*
X205077138Y-77050286D01*
X205056875Y-77018796D01*
X205275800Y-77018796D01*
X205275800Y-77436150D01*
X205421850Y-77582200D01*
X206182200Y-77582200D01*
X206182200Y-76696850D01*
X206537800Y-76696850D01*
X206537800Y-77582200D01*
X207298150Y-77582200D01*
X207444200Y-77436150D01*
X207444200Y-77018796D01*
X207355261Y-76804078D01*
X207190923Y-76639739D01*
X206976205Y-76550800D01*
X206683850Y-76550800D01*
X206537800Y-76696850D01*
X206182200Y-76696850D01*
X206036150Y-76550800D01*
X205743795Y-76550800D01*
X205529077Y-76639739D01*
X205364739Y-76804078D01*
X205275800Y-77018796D01*
X205056875Y-77018796D01*
X205027072Y-76972482D01*
X204950680Y-76920285D01*
X204860000Y-76901922D01*
X203860000Y-76901922D01*
X203775286Y-76917862D01*
X203697482Y-76967928D01*
X203647144Y-77041600D01*
X199708078Y-77041600D01*
X199708078Y-76775000D01*
X199692138Y-76690286D01*
X199642072Y-76612482D01*
X199565680Y-76560285D01*
X199475000Y-76541922D01*
X196475000Y-76541922D01*
X196390286Y-76557862D01*
X196312482Y-76607928D01*
X196260285Y-76684320D01*
X196241922Y-76775000D01*
X195259200Y-76775000D01*
X195259200Y-76408796D01*
X195170261Y-76194078D01*
X195005923Y-76029739D01*
X194791205Y-75940800D01*
X191648850Y-75940800D01*
X191502800Y-76086850D01*
X191147200Y-76086850D01*
X191001150Y-75940800D01*
X187858795Y-75940800D01*
X187644077Y-76029739D01*
X187479739Y-76194078D01*
X187390800Y-76408796D01*
X155003600Y-76408796D01*
X155003600Y-74903600D01*
X221396400Y-74903600D01*
X221396400Y-131296400D01*
X221396400Y-131296400D01*
G37*
X221396400Y-131296400D02*
X155003600Y-131296400D01*
X155003600Y-92150000D01*
X156116600Y-92150000D01*
X156116600Y-111930000D01*
X156157203Y-112134123D01*
X156272829Y-112307171D01*
X158407573Y-114441915D01*
X158350269Y-114730000D01*
X158432373Y-115142762D01*
X158666184Y-115492685D01*
X159016107Y-115726496D01*
X159428869Y-115808600D01*
X159471131Y-115808600D01*
X159883893Y-115726496D01*
X160233816Y-115492685D01*
X160467627Y-115142762D01*
X160549731Y-114730000D01*
X160467627Y-114317238D01*
X160233816Y-113967315D01*
X159883893Y-113733504D01*
X159471131Y-113651400D01*
X159428869Y-113651400D01*
X159176034Y-113701692D01*
X157664342Y-112190000D01*
X158350269Y-112190000D01*
X158432373Y-112602762D01*
X158666184Y-112952685D01*
X159016107Y-113186496D01*
X159428869Y-113268600D01*
X159471131Y-113268600D01*
X159883893Y-113186496D01*
X160233816Y-112952685D01*
X160467627Y-112602762D01*
X160549731Y-112190000D01*
X160467627Y-111777238D01*
X160233816Y-111427315D01*
X159883893Y-111193504D01*
X159471131Y-111111400D01*
X159428869Y-111111400D01*
X159016107Y-111193504D01*
X158666184Y-111427315D01*
X158432373Y-111777238D01*
X158350269Y-112190000D01*
X157664342Y-112190000D01*
X157183400Y-111709058D01*
X157183400Y-108800000D01*
X158366922Y-108800000D01*
X158366922Y-110500000D01*
X158382862Y-110584714D01*
X158432928Y-110662518D01*
X158509320Y-110714715D01*
X158600000Y-110733078D01*
X160300000Y-110733078D01*
X160384714Y-110717138D01*
X160462518Y-110667072D01*
X160514715Y-110590680D01*
X160533078Y-110500000D01*
X160533078Y-108800000D01*
X160517138Y-108715286D01*
X160467072Y-108637482D01*
X160390680Y-108585285D01*
X160300000Y-108566922D01*
X158600000Y-108566922D01*
X158515286Y-108582862D01*
X158437482Y-108632928D01*
X158385285Y-108709320D01*
X158366922Y-108800000D01*
X157183400Y-108800000D01*
X157183400Y-108393850D01*
X179515800Y-108393850D01*
X179515800Y-108811204D01*
X179604739Y-109025922D01*
X179769077Y-109190261D01*
X179983795Y-109279200D01*
X180276150Y-109279200D01*
X180422200Y-109133150D01*
X180422200Y-108247800D01*
X180777800Y-108247800D01*
X180777800Y-109133150D01*
X180923850Y-109279200D01*
X181216205Y-109279200D01*
X181430923Y-109190261D01*
X181595261Y-109025922D01*
X181684200Y-108811204D01*
X181684200Y-108393850D01*
X181538150Y-108247800D01*
X180777800Y-108247800D01*
X180422200Y-108247800D01*
X179661850Y-108247800D01*
X179515800Y-108393850D01*
X157183400Y-108393850D01*
X157183400Y-104750000D01*
X158366922Y-104750000D01*
X158366922Y-106450000D01*
X158382862Y-106534714D01*
X158432928Y-106612518D01*
X158509320Y-106664715D01*
X158600000Y-106683078D01*
X160300000Y-106683078D01*
X160384714Y-106667138D01*
X160462518Y-106617072D01*
X160514715Y-106540680D01*
X160533078Y-106450000D01*
X160533078Y-105470000D01*
X167266922Y-105470000D01*
X167266922Y-106170000D01*
X167282862Y-106254714D01*
X167332928Y-106332518D01*
X167409320Y-106384715D01*
X167500000Y-106403078D01*
X167912793Y-106403078D01*
X167934474Y-106435526D01*
X169304474Y-107805526D01*
X169403359Y-107871599D01*
X169520000Y-107894800D01*
X178460000Y-107894800D01*
X178576642Y-107871598D01*
X178675526Y-107805526D01*
X179152256Y-107328796D01*
X179515800Y-107328796D01*
X179515800Y-107746150D01*
X179661850Y-107892200D01*
X180422200Y-107892200D01*
X180422200Y-107006850D01*
X180777800Y-107006850D01*
X180777800Y-107892200D01*
X181538150Y-107892200D01*
X181684200Y-107746150D01*
X181684200Y-107445000D01*
X181866922Y-107445000D01*
X181866922Y-108695000D01*
X181882862Y-108779714D01*
X181932928Y-108857518D01*
X182009320Y-108909715D01*
X182100000Y-108928078D01*
X183100000Y-108928078D01*
X183184714Y-108912138D01*
X183262518Y-108862072D01*
X183314715Y-108785680D01*
X183333078Y-108695000D01*
X183333078Y-108583400D01*
X184394309Y-108583400D01*
X184485823Y-108621400D01*
X184713180Y-108621599D01*
X184923306Y-108534776D01*
X185084211Y-108374151D01*
X185122570Y-108281772D01*
X185860942Y-107543400D01*
X186100000Y-107543400D01*
X186101619Y-107543078D01*
X186850000Y-107543078D01*
X186934714Y-107527138D01*
X187012518Y-107477072D01*
X187064715Y-107400680D01*
X187083078Y-107310000D01*
X187083078Y-107306050D01*
X190165800Y-107306050D01*
X190165800Y-107426204D01*
X190254739Y-107640922D01*
X190419077Y-107805261D01*
X190633795Y-107894200D01*
X191176150Y-107894200D01*
X191322200Y-107748150D01*
X191322200Y-107160000D01*
X191677800Y-107160000D01*
X191677800Y-107748150D01*
X191823850Y-107894200D01*
X192366205Y-107894200D01*
X192580923Y-107805261D01*
X192745261Y-107640922D01*
X192834200Y-107426204D01*
X192834200Y-107306050D01*
X192688150Y-107160000D01*
X191677800Y-107160000D01*
X191322200Y-107160000D01*
X190311850Y-107160000D01*
X190165800Y-107306050D01*
X187083078Y-107306050D01*
X187083078Y-106710000D01*
X187067138Y-106625286D01*
X187017072Y-106547482D01*
X186940680Y-106495285D01*
X186850000Y-106476922D01*
X186101619Y-106476922D01*
X186100000Y-106476600D01*
X185640000Y-106476600D01*
X185638381Y-106476922D01*
X185350000Y-106476922D01*
X185265286Y-106492862D01*
X185187482Y-106542928D01*
X185135285Y-106619320D01*
X185116922Y-106710000D01*
X185116922Y-106778736D01*
X184379058Y-107516600D01*
X183333078Y-107516600D01*
X183333078Y-107445000D01*
X183317138Y-107360286D01*
X183267072Y-107282482D01*
X183190680Y-107230285D01*
X183100000Y-107211922D01*
X182100000Y-107211922D01*
X182015286Y-107227862D01*
X181937482Y-107277928D01*
X181885285Y-107354320D01*
X181866922Y-107445000D01*
X181684200Y-107445000D01*
X181684200Y-107328796D01*
X181595261Y-107114078D01*
X181430923Y-106949739D01*
X181216205Y-106860800D01*
X180923850Y-106860800D01*
X180777800Y-107006850D01*
X180422200Y-107006850D01*
X180276150Y-106860800D01*
X179983795Y-106860800D01*
X179769077Y-106949739D01*
X179604739Y-107114078D01*
X179515800Y-107328796D01*
X179152256Y-107328796D01*
X180336252Y-106144800D01*
X183880000Y-106144800D01*
X183996642Y-106121598D01*
X184095526Y-106055526D01*
X184711052Y-105440000D01*
X185116922Y-105440000D01*
X185116922Y-106040000D01*
X185132862Y-106124714D01*
X185182928Y-106202518D01*
X185259320Y-106254715D01*
X185350000Y-106273078D01*
X186850000Y-106273078D01*
X186934714Y-106257138D01*
X187012518Y-106207072D01*
X187064715Y-106130680D01*
X187082106Y-106044800D01*
X188613748Y-106044800D01*
X188926279Y-106357331D01*
X188918600Y-106375823D01*
X188918401Y-106603180D01*
X189005224Y-106813306D01*
X189165849Y-106974211D01*
X189375823Y-107061400D01*
X189603180Y-107061599D01*
X189813306Y-106974776D01*
X189974211Y-106814151D01*
X190061400Y-106604177D01*
X190061599Y-106376820D01*
X189974776Y-106166694D01*
X189814151Y-106005789D01*
X189604177Y-105918600D01*
X189376820Y-105918401D01*
X189357455Y-105926403D01*
X188955526Y-105524474D01*
X188856642Y-105458402D01*
X188740000Y-105435200D01*
X187082175Y-105435200D01*
X187067138Y-105355286D01*
X187017072Y-105277482D01*
X186940680Y-105225285D01*
X186850000Y-105206922D01*
X185350000Y-105206922D01*
X185265286Y-105222862D01*
X185187482Y-105272928D01*
X185135285Y-105349320D01*
X185116922Y-105440000D01*
X184711052Y-105440000D01*
X185204081Y-104946971D01*
X185259320Y-104984715D01*
X185350000Y-105003078D01*
X186850000Y-105003078D01*
X186934714Y-104987138D01*
X187012518Y-104937072D01*
X187064715Y-104860680D01*
X187082106Y-104774800D01*
X187995182Y-104774800D01*
X188015224Y-104823306D01*
X188175849Y-104984211D01*
X188385823Y-105071400D01*
X188613180Y-105071599D01*
X188823306Y-104984776D01*
X188984211Y-104824151D01*
X189071400Y-104614177D01*
X189071599Y-104386820D01*
X188984776Y-104176694D01*
X188824151Y-104015789D01*
X188677273Y-103954800D01*
X189464148Y-103954800D01*
X189384474Y-104034474D01*
X189318402Y-104133358D01*
X189295200Y-104250000D01*
X189295200Y-105150000D01*
X189318402Y-105266642D01*
X189384474Y-105365526D01*
X189974474Y-105955526D01*
X190073358Y-106021598D01*
X190190000Y-106044800D01*
X190517825Y-106044800D01*
X190532862Y-106124714D01*
X190554655Y-106158581D01*
X190419077Y-106214739D01*
X190254739Y-106379078D01*
X190165800Y-106593796D01*
X190165800Y-106713950D01*
X190311850Y-106860000D01*
X191322200Y-106860000D01*
X191322200Y-106812200D01*
X191677800Y-106812200D01*
X191677800Y-106860000D01*
X192688150Y-106860000D01*
X192834200Y-106713950D01*
X192834200Y-106593796D01*
X192745261Y-106379078D01*
X192580923Y-106214739D01*
X192445583Y-106158680D01*
X192464715Y-106130680D01*
X192466675Y-106121000D01*
X194362184Y-106121000D01*
X196138529Y-107897344D01*
X196138401Y-108043180D01*
X196225224Y-108253306D01*
X196385849Y-108414211D01*
X196595823Y-108501400D01*
X196823180Y-108501599D01*
X197033306Y-108414776D01*
X197194211Y-108254151D01*
X197281400Y-108044177D01*
X197281599Y-107816820D01*
X197194776Y-107606694D01*
X197034151Y-107445789D01*
X196824177Y-107358600D01*
X196677287Y-107358471D01*
X194789408Y-105470592D01*
X194665803Y-105388002D01*
X194520000Y-105359000D01*
X192467837Y-105359000D01*
X192467138Y-105355286D01*
X192417072Y-105277482D01*
X192340680Y-105225285D01*
X192250000Y-105206922D01*
X190750000Y-105206922D01*
X190665286Y-105222862D01*
X190587482Y-105272928D01*
X190535285Y-105349320D01*
X190517894Y-105435200D01*
X190316252Y-105435200D01*
X189904800Y-105023748D01*
X189904800Y-104376252D01*
X190076252Y-104204800D01*
X190516922Y-104204800D01*
X190516922Y-104770000D01*
X190532862Y-104854714D01*
X190582928Y-104932518D01*
X190659320Y-104984715D01*
X190750000Y-105003078D01*
X192250000Y-105003078D01*
X192334714Y-104987138D01*
X192412518Y-104937072D01*
X192464715Y-104860680D01*
X192466675Y-104851000D01*
X198042184Y-104851000D01*
X201088529Y-107897345D01*
X201088401Y-108043180D01*
X201175224Y-108253306D01*
X201335849Y-108414211D01*
X201545823Y-108501400D01*
X201773180Y-108501599D01*
X201983306Y-108414776D01*
X202144211Y-108254151D01*
X202231400Y-108044177D01*
X202231599Y-107816820D01*
X202144776Y-107606694D01*
X201984151Y-107445789D01*
X201774177Y-107358600D01*
X201627287Y-107358471D01*
X199119816Y-104851000D01*
X202570000Y-104851000D01*
X202715803Y-104821998D01*
X202839408Y-104739408D01*
X208827970Y-98750845D01*
X209218869Y-98828600D01*
X209261131Y-98828600D01*
X209673893Y-98746496D01*
X210023816Y-98512685D01*
X210257627Y-98162762D01*
X210339731Y-97750000D01*
X210257627Y-97337238D01*
X210023816Y-96987315D01*
X209675833Y-96754800D01*
X212073748Y-96754800D01*
X212585870Y-97266922D01*
X211750000Y-97266922D01*
X211665286Y-97282862D01*
X211587482Y-97332928D01*
X211535285Y-97409320D01*
X211516922Y-97500000D01*
X211516922Y-98300000D01*
X211532862Y-98384714D01*
X211582928Y-98462518D01*
X211659320Y-98514715D01*
X211666600Y-98516189D01*
X211666600Y-98579058D01*
X211618275Y-98627383D01*
X211526694Y-98665224D01*
X211365789Y-98825849D01*
X211278600Y-99035823D01*
X211278401Y-99263180D01*
X211365224Y-99473306D01*
X211525849Y-99634211D01*
X211735823Y-99721400D01*
X211963180Y-99721599D01*
X212173306Y-99634776D01*
X212334211Y-99474151D01*
X212372570Y-99381772D01*
X212577171Y-99177171D01*
X212692797Y-99004123D01*
X212733401Y-98800000D01*
X212733400Y-98799995D01*
X212733400Y-98517385D01*
X212734714Y-98517138D01*
X212812518Y-98467072D01*
X212864715Y-98390680D01*
X212883078Y-98300000D01*
X212883078Y-97564130D01*
X213596240Y-98277292D01*
X213587482Y-98282928D01*
X213535285Y-98359320D01*
X213516922Y-98450000D01*
X213516922Y-99250000D01*
X213532862Y-99334714D01*
X213582928Y-99412518D01*
X213659320Y-99464715D01*
X213750000Y-99483078D01*
X214650000Y-99483078D01*
X214734714Y-99467138D01*
X214812518Y-99417072D01*
X214835525Y-99383400D01*
X216856922Y-99383400D01*
X216856922Y-99830000D01*
X216872862Y-99914714D01*
X216922928Y-99992518D01*
X216999320Y-100044715D01*
X217090000Y-100063078D01*
X217790000Y-100063078D01*
X217874714Y-100047138D01*
X217952518Y-99997072D01*
X218004715Y-99920680D01*
X218023078Y-99830000D01*
X218023078Y-99503850D01*
X218405800Y-99503850D01*
X218405800Y-99946204D01*
X218494739Y-100160922D01*
X218659077Y-100325261D01*
X218873795Y-100414200D01*
X219018950Y-100414200D01*
X219165000Y-100268150D01*
X219165000Y-99357800D01*
X219515000Y-99357800D01*
X219515000Y-100268150D01*
X219661050Y-100414200D01*
X219806205Y-100414200D01*
X220020923Y-100325261D01*
X220185261Y-100160922D01*
X220274200Y-99946204D01*
X220274200Y-99503850D01*
X220128150Y-99357800D01*
X219515000Y-99357800D01*
X219165000Y-99357800D01*
X218551850Y-99357800D01*
X218405800Y-99503850D01*
X218023078Y-99503850D01*
X218023078Y-98530000D01*
X218007138Y-98445286D01*
X217986875Y-98413796D01*
X218405800Y-98413796D01*
X218405800Y-98856150D01*
X218551850Y-99002200D01*
X219165000Y-99002200D01*
X219165000Y-98091850D01*
X219515000Y-98091850D01*
X219515000Y-99002200D01*
X220128150Y-99002200D01*
X220274200Y-98856150D01*
X220274200Y-98413796D01*
X220185261Y-98199078D01*
X220020923Y-98034739D01*
X219806205Y-97945800D01*
X219661050Y-97945800D01*
X219515000Y-98091850D01*
X219165000Y-98091850D01*
X219018950Y-97945800D01*
X218873795Y-97945800D01*
X218659077Y-98034739D01*
X218494739Y-98199078D01*
X218405800Y-98413796D01*
X217986875Y-98413796D01*
X217957072Y-98367482D01*
X217880680Y-98315285D01*
X217790000Y-98296922D01*
X217090000Y-98296922D01*
X217005286Y-98312862D01*
X216999477Y-98316600D01*
X214835809Y-98316600D01*
X214817072Y-98287482D01*
X214740680Y-98235285D01*
X214650000Y-98216922D01*
X214397974Y-98216922D01*
X213764130Y-97583078D01*
X214650000Y-97583078D01*
X214734714Y-97567138D01*
X214812518Y-97517072D01*
X214835525Y-97483400D01*
X216856922Y-97483400D01*
X216856922Y-97580000D01*
X216872862Y-97664714D01*
X216922928Y-97742518D01*
X216999320Y-97794715D01*
X217090000Y-97813078D01*
X217790000Y-97813078D01*
X217874714Y-97797138D01*
X217952518Y-97747072D01*
X218004715Y-97670680D01*
X218023078Y-97580000D01*
X218023078Y-96280000D01*
X218756922Y-96280000D01*
X218756922Y-97580000D01*
X218772862Y-97664714D01*
X218822928Y-97742518D01*
X218899320Y-97794715D01*
X218990000Y-97813078D01*
X219690000Y-97813078D01*
X219774714Y-97797138D01*
X219852518Y-97747072D01*
X219904715Y-97670680D01*
X219923078Y-97580000D01*
X219923078Y-97101264D01*
X220696768Y-96327573D01*
X220696771Y-96327571D01*
X220812397Y-96154523D01*
X220838228Y-96024665D01*
X220891000Y-95897577D01*
X220891199Y-95670220D01*
X220804376Y-95460094D01*
X220643751Y-95299189D01*
X220433777Y-95212000D01*
X220206420Y-95211801D01*
X219996294Y-95298624D01*
X219835389Y-95459249D01*
X219748200Y-95669223D01*
X219748114Y-95767545D01*
X219468737Y-96046922D01*
X218990000Y-96046922D01*
X218905286Y-96062862D01*
X218827482Y-96112928D01*
X218775285Y-96189320D01*
X218756922Y-96280000D01*
X218023078Y-96280000D01*
X218007138Y-96195286D01*
X217957072Y-96117482D01*
X217880680Y-96065285D01*
X217790000Y-96046922D01*
X217090000Y-96046922D01*
X217005286Y-96062862D01*
X216927482Y-96112928D01*
X216875285Y-96189320D01*
X216856922Y-96280000D01*
X216856922Y-96416600D01*
X214835809Y-96416600D01*
X214817072Y-96387482D01*
X214740680Y-96335285D01*
X214650000Y-96316922D01*
X214493683Y-96316922D01*
X214469408Y-96280592D01*
X214469405Y-96280590D01*
X213771471Y-95582656D01*
X213771599Y-95436820D01*
X213684776Y-95226694D01*
X213524151Y-95065789D01*
X213411881Y-95019171D01*
X213947974Y-94483078D01*
X214650000Y-94483078D01*
X214734714Y-94467138D01*
X214812518Y-94417072D01*
X214835525Y-94383400D01*
X216856922Y-94383400D01*
X216856922Y-94780000D01*
X216872862Y-94864714D01*
X216922928Y-94942518D01*
X216999320Y-94994715D01*
X217090000Y-95013078D01*
X217790000Y-95013078D01*
X217874714Y-94997138D01*
X217952518Y-94947072D01*
X218004715Y-94870680D01*
X218023078Y-94780000D01*
X218023078Y-94453850D01*
X218405800Y-94453850D01*
X218405800Y-94896204D01*
X218494739Y-95110922D01*
X218659077Y-95275261D01*
X218873795Y-95364200D01*
X219018950Y-95364200D01*
X219165000Y-95218150D01*
X219165000Y-94307800D01*
X219515000Y-94307800D01*
X219515000Y-95218150D01*
X219661050Y-95364200D01*
X219806205Y-95364200D01*
X220020923Y-95275261D01*
X220185261Y-95110922D01*
X220274200Y-94896204D01*
X220274200Y-94453850D01*
X220128150Y-94307800D01*
X219515000Y-94307800D01*
X219165000Y-94307800D01*
X218551850Y-94307800D01*
X218405800Y-94453850D01*
X218023078Y-94453850D01*
X218023078Y-93480000D01*
X218007138Y-93395286D01*
X217986875Y-93363796D01*
X218405800Y-93363796D01*
X218405800Y-93806150D01*
X218551850Y-93952200D01*
X219165000Y-93952200D01*
X219165000Y-93041850D01*
X219515000Y-93041850D01*
X219515000Y-93952200D01*
X220128150Y-93952200D01*
X220274200Y-93806150D01*
X220274200Y-93363796D01*
X220185261Y-93149078D01*
X220020923Y-92984739D01*
X219806205Y-92895800D01*
X219661050Y-92895800D01*
X219515000Y-93041850D01*
X219165000Y-93041850D01*
X219018950Y-92895800D01*
X218873795Y-92895800D01*
X218659077Y-92984739D01*
X218494739Y-93149078D01*
X218405800Y-93363796D01*
X217986875Y-93363796D01*
X217957072Y-93317482D01*
X217880680Y-93265285D01*
X217790000Y-93246922D01*
X217090000Y-93246922D01*
X217005286Y-93262862D01*
X216927482Y-93312928D01*
X216924973Y-93316600D01*
X214835809Y-93316600D01*
X214817072Y-93287482D01*
X214740680Y-93235285D01*
X214650000Y-93216922D01*
X213750000Y-93216922D01*
X213665286Y-93232862D01*
X213587482Y-93282928D01*
X213535285Y-93359320D01*
X213516922Y-93450000D01*
X213516922Y-94052026D01*
X212873748Y-94695200D01*
X211026252Y-94695200D01*
X210544232Y-94213180D01*
X211328401Y-94213180D01*
X211415224Y-94423306D01*
X211575849Y-94584211D01*
X211785823Y-94671400D01*
X212013180Y-94671599D01*
X212223306Y-94584776D01*
X212384211Y-94424151D01*
X212422570Y-94331772D01*
X212577171Y-94177171D01*
X212692797Y-94004123D01*
X212733400Y-93800000D01*
X212733400Y-93517385D01*
X212734714Y-93517138D01*
X212812518Y-93467072D01*
X212864715Y-93390680D01*
X212883078Y-93300000D01*
X212883078Y-92500000D01*
X212867138Y-92415286D01*
X212817072Y-92337482D01*
X212740680Y-92285285D01*
X212650000Y-92266922D01*
X211750000Y-92266922D01*
X211665286Y-92282862D01*
X211587482Y-92332928D01*
X211535285Y-92409320D01*
X211516922Y-92500000D01*
X211516922Y-93300000D01*
X211532862Y-93384714D01*
X211582928Y-93462518D01*
X211659320Y-93514715D01*
X211666600Y-93516189D01*
X211666600Y-93578075D01*
X211576694Y-93615224D01*
X211415789Y-93775849D01*
X211328600Y-93985823D01*
X211328401Y-94213180D01*
X210544232Y-94213180D01*
X210065526Y-93734474D01*
X209966642Y-93668402D01*
X209850000Y-93645200D01*
X209705765Y-93645200D01*
X210023816Y-93432685D01*
X210257627Y-93082762D01*
X210339731Y-92670000D01*
X210257627Y-92257238D01*
X210023816Y-91907315D01*
X209834772Y-91781000D01*
X212300000Y-91781000D01*
X212445803Y-91751998D01*
X212569408Y-91669408D01*
X212688816Y-91550000D01*
X213516922Y-91550000D01*
X213516922Y-92350000D01*
X213532862Y-92434714D01*
X213582928Y-92512518D01*
X213659320Y-92564715D01*
X213750000Y-92583078D01*
X214650000Y-92583078D01*
X214734714Y-92567138D01*
X214812518Y-92517072D01*
X214835525Y-92483400D01*
X216856922Y-92483400D01*
X216856922Y-92530000D01*
X216872862Y-92614714D01*
X216922928Y-92692518D01*
X216999320Y-92744715D01*
X217090000Y-92763078D01*
X217790000Y-92763078D01*
X217874714Y-92747138D01*
X217952518Y-92697072D01*
X218004715Y-92620680D01*
X218023078Y-92530000D01*
X218023078Y-91230000D01*
X218756922Y-91230000D01*
X218756922Y-92530000D01*
X218772862Y-92614714D01*
X218822928Y-92692518D01*
X218899320Y-92744715D01*
X218990000Y-92763078D01*
X219690000Y-92763078D01*
X219774714Y-92747138D01*
X219852518Y-92697072D01*
X219904715Y-92620680D01*
X219923078Y-92530000D01*
X219923078Y-92051264D01*
X220722168Y-91252173D01*
X220722171Y-91252171D01*
X220837797Y-91079123D01*
X220843987Y-91048003D01*
X220878401Y-90875000D01*
X220878400Y-90874995D01*
X220878400Y-90832891D01*
X220916400Y-90741377D01*
X220916599Y-90514020D01*
X220829776Y-90303894D01*
X220669151Y-90142989D01*
X220459177Y-90055800D01*
X220231820Y-90055601D01*
X220161546Y-90084638D01*
X220285261Y-89960922D01*
X220374200Y-89746204D01*
X220374200Y-89303850D01*
X220228150Y-89157800D01*
X219615000Y-89157800D01*
X219615000Y-90068150D01*
X219761050Y-90214200D01*
X219906205Y-90214200D01*
X219980706Y-90183341D01*
X219860789Y-90303049D01*
X219773600Y-90513023D01*
X219773443Y-90692216D01*
X219468737Y-90996922D01*
X218990000Y-90996922D01*
X218905286Y-91012862D01*
X218827482Y-91062928D01*
X218775285Y-91139320D01*
X218756922Y-91230000D01*
X218023078Y-91230000D01*
X218007138Y-91145286D01*
X217957072Y-91067482D01*
X217880680Y-91015285D01*
X217790000Y-90996922D01*
X217090000Y-90996922D01*
X217005286Y-91012862D01*
X216927482Y-91062928D01*
X216875285Y-91139320D01*
X216875012Y-91140670D01*
X216152617Y-90418275D01*
X216114776Y-90326694D01*
X215954151Y-90165789D01*
X215744177Y-90078600D01*
X215516820Y-90078401D01*
X215306694Y-90165224D01*
X215145789Y-90325849D01*
X215058600Y-90535823D01*
X215058401Y-90763180D01*
X215145224Y-90973306D01*
X215305849Y-91134211D01*
X215398228Y-91172570D01*
X215642258Y-91416600D01*
X214835809Y-91416600D01*
X214817072Y-91387482D01*
X214740680Y-91335285D01*
X214650000Y-91316922D01*
X213750000Y-91316922D01*
X213665286Y-91332862D01*
X213587482Y-91382928D01*
X213535285Y-91459320D01*
X213516922Y-91550000D01*
X212688816Y-91550000D01*
X214469408Y-89769408D01*
X214551998Y-89645802D01*
X214581001Y-89500000D01*
X214581000Y-89499995D01*
X214581000Y-89283078D01*
X214650000Y-89283078D01*
X214734714Y-89267138D01*
X214812518Y-89217072D01*
X214835525Y-89183400D01*
X216956922Y-89183400D01*
X216956922Y-89630000D01*
X216972862Y-89714714D01*
X217022928Y-89792518D01*
X217099320Y-89844715D01*
X217190000Y-89863078D01*
X217890000Y-89863078D01*
X217974714Y-89847138D01*
X218052518Y-89797072D01*
X218104715Y-89720680D01*
X218123078Y-89630000D01*
X218123078Y-89303850D01*
X218505800Y-89303850D01*
X218505800Y-89746204D01*
X218594739Y-89960922D01*
X218759077Y-90125261D01*
X218973795Y-90214200D01*
X219118950Y-90214200D01*
X219265000Y-90068150D01*
X219265000Y-89157800D01*
X218651850Y-89157800D01*
X218505800Y-89303850D01*
X218123078Y-89303850D01*
X218123078Y-88330000D01*
X218107138Y-88245286D01*
X218086875Y-88213796D01*
X218505800Y-88213796D01*
X218505800Y-88656150D01*
X218651850Y-88802200D01*
X219265000Y-88802200D01*
X219265000Y-87891850D01*
X219615000Y-87891850D01*
X219615000Y-88802200D01*
X220228150Y-88802200D01*
X220374200Y-88656150D01*
X220374200Y-88213796D01*
X220285261Y-87999078D01*
X220120923Y-87834739D01*
X219906205Y-87745800D01*
X219761050Y-87745800D01*
X219615000Y-87891850D01*
X219265000Y-87891850D01*
X219118950Y-87745800D01*
X218973795Y-87745800D01*
X218759077Y-87834739D01*
X218594739Y-87999078D01*
X218505800Y-88213796D01*
X218086875Y-88213796D01*
X218057072Y-88167482D01*
X217980680Y-88115285D01*
X217890000Y-88096922D01*
X217190000Y-88096922D01*
X217105286Y-88112862D01*
X217099477Y-88116600D01*
X214835809Y-88116600D01*
X214817072Y-88087482D01*
X214740680Y-88035285D01*
X214650000Y-88016922D01*
X213750000Y-88016922D01*
X213665286Y-88032862D01*
X213587482Y-88082928D01*
X213535285Y-88159320D01*
X213516922Y-88250000D01*
X213516922Y-89050000D01*
X213532862Y-89134714D01*
X213582928Y-89212518D01*
X213659320Y-89264715D01*
X213750000Y-89283078D01*
X213819000Y-89283078D01*
X213819000Y-89342184D01*
X212142184Y-91019000D01*
X209834772Y-91019000D01*
X210023816Y-90892685D01*
X210257627Y-90542762D01*
X210339731Y-90130000D01*
X210257627Y-89717238D01*
X210023816Y-89367315D01*
X209673893Y-89133504D01*
X209261131Y-89051400D01*
X209218869Y-89051400D01*
X208806107Y-89133504D01*
X208456184Y-89367315D01*
X208222373Y-89717238D01*
X208140269Y-90130000D01*
X208222373Y-90542762D01*
X208456184Y-90892685D01*
X208645228Y-91019000D01*
X207294772Y-91019000D01*
X207483816Y-90892685D01*
X207717627Y-90542762D01*
X207799731Y-90130000D01*
X207717627Y-89717238D01*
X207483816Y-89367315D01*
X207133893Y-89133504D01*
X206721131Y-89051400D01*
X206678869Y-89051400D01*
X206266107Y-89133504D01*
X205916184Y-89367315D01*
X205682373Y-89717238D01*
X205600269Y-90130000D01*
X205682373Y-90542762D01*
X205728856Y-90612328D01*
X198872184Y-97469000D01*
X190550005Y-97469000D01*
X190550000Y-97468999D01*
X190404198Y-97498002D01*
X190280592Y-97580592D01*
X190280590Y-97580595D01*
X189130592Y-98730592D01*
X189048002Y-98854197D01*
X189034331Y-98922928D01*
X189019000Y-99000000D01*
X189019000Y-101342184D01*
X188375000Y-101986184D01*
X188049408Y-101660592D01*
X187925803Y-101578002D01*
X187780000Y-101549000D01*
X187067837Y-101549000D01*
X187067138Y-101545286D01*
X187017072Y-101467482D01*
X186940680Y-101415285D01*
X186850000Y-101396922D01*
X185350000Y-101396922D01*
X185265286Y-101412862D01*
X185187482Y-101462928D01*
X185135285Y-101539320D01*
X185133325Y-101549000D01*
X184764815Y-101549000D01*
X183796815Y-100581000D01*
X185116922Y-100581000D01*
X185116922Y-100960000D01*
X185132862Y-101044714D01*
X185182928Y-101122518D01*
X185259320Y-101174715D01*
X185350000Y-101193078D01*
X186850000Y-101193078D01*
X186934714Y-101177138D01*
X187012518Y-101127072D01*
X187064715Y-101050680D01*
X187083078Y-100960000D01*
X187083078Y-100360000D01*
X187067138Y-100275286D01*
X187017072Y-100197482D01*
X186940680Y-100145285D01*
X186850000Y-100126922D01*
X186105738Y-100126922D01*
X185909408Y-99930592D01*
X185898162Y-99923078D01*
X186850000Y-99923078D01*
X186934714Y-99907138D01*
X187012518Y-99857072D01*
X187064715Y-99780680D01*
X187066675Y-99771000D01*
X187382184Y-99771000D01*
X188019000Y-100407815D01*
X188019000Y-100622818D01*
X187915789Y-100725849D01*
X187828600Y-100935823D01*
X187828401Y-101163180D01*
X187915224Y-101373306D01*
X188075849Y-101534211D01*
X188285823Y-101621400D01*
X188513180Y-101621599D01*
X188723306Y-101534776D01*
X188884211Y-101374151D01*
X188971400Y-101164177D01*
X188971599Y-100936820D01*
X188884776Y-100726694D01*
X188781000Y-100622737D01*
X188781000Y-100250005D01*
X188781001Y-100250000D01*
X188751998Y-100104198D01*
X188718589Y-100054198D01*
X188669408Y-99980592D01*
X188669405Y-99980590D01*
X187809408Y-99120592D01*
X187685803Y-99038002D01*
X187540000Y-99009000D01*
X187067837Y-99009000D01*
X187067138Y-99005286D01*
X187017072Y-98927482D01*
X186940680Y-98875285D01*
X186850000Y-98856922D01*
X185350000Y-98856922D01*
X185265286Y-98872862D01*
X185187482Y-98922928D01*
X185135285Y-98999320D01*
X185116922Y-99090000D01*
X185116922Y-99690000D01*
X185132862Y-99774714D01*
X185161360Y-99819000D01*
X183807816Y-99819000D01*
X182069408Y-98080592D01*
X181945803Y-97998002D01*
X181800000Y-97969000D01*
X175492698Y-97969000D01*
X175566574Y-97895124D01*
X175455103Y-97783653D01*
X175675604Y-97708885D01*
X175736334Y-97513180D01*
X182578401Y-97513180D01*
X182665224Y-97723306D01*
X182825849Y-97884211D01*
X183035823Y-97971400D01*
X183263180Y-97971599D01*
X183473306Y-97884776D01*
X183634211Y-97724151D01*
X183721400Y-97514177D01*
X183721462Y-97443448D01*
X183785950Y-97599521D01*
X183989408Y-97803335D01*
X184255376Y-97913774D01*
X184543361Y-97914025D01*
X184809521Y-97804050D01*
X185013335Y-97600592D01*
X185123774Y-97334624D01*
X185124025Y-97046639D01*
X185014050Y-96780479D01*
X184810592Y-96576665D01*
X184544624Y-96466226D01*
X184256639Y-96465975D01*
X183990479Y-96575950D01*
X183786665Y-96779408D01*
X183676226Y-97045376D01*
X183676112Y-97176733D01*
X183634776Y-97076694D01*
X183474151Y-96915789D01*
X183264177Y-96828600D01*
X183036820Y-96828401D01*
X182826694Y-96915224D01*
X182665789Y-97075849D01*
X182578600Y-97285823D01*
X182578401Y-97513180D01*
X175736334Y-97513180D01*
X175832912Y-97201954D01*
X175784251Y-96673411D01*
X175675604Y-96411115D01*
X175455101Y-96336346D01*
X174731447Y-97060000D01*
X174745590Y-97074143D01*
X174494143Y-97325590D01*
X174480000Y-97311447D01*
X174465858Y-97325590D01*
X174214411Y-97074143D01*
X174228553Y-97060000D01*
X173504899Y-96336346D01*
X173284396Y-96411115D01*
X173220669Y-96616479D01*
X173135604Y-96411115D01*
X172915101Y-96336346D01*
X172191447Y-97060000D01*
X172205590Y-97074143D01*
X171954143Y-97325590D01*
X171940000Y-97311447D01*
X171216346Y-98035101D01*
X171291115Y-98255604D01*
X171340313Y-98270871D01*
X170953201Y-98657983D01*
X170865510Y-98621570D01*
X170476198Y-98621230D01*
X170116392Y-98769899D01*
X169840867Y-99044944D01*
X169691570Y-99404490D01*
X169691230Y-99793802D01*
X169839899Y-100153608D01*
X170114944Y-100429133D01*
X170474490Y-100578430D01*
X170863802Y-100578770D01*
X171223608Y-100430101D01*
X171499133Y-100155056D01*
X171648430Y-99795510D01*
X171648770Y-99406198D01*
X171541714Y-99147102D01*
X171957816Y-98731000D01*
X172750535Y-98731000D01*
X172656392Y-98769899D01*
X172380867Y-99044944D01*
X172231570Y-99404490D01*
X172231230Y-99793802D01*
X172379899Y-100153608D01*
X172654944Y-100429133D01*
X172819000Y-100497255D01*
X172819000Y-103386922D01*
X172550000Y-103386922D01*
X172465286Y-103402862D01*
X172387482Y-103452928D01*
X172335285Y-103529320D01*
X172316922Y-103620000D01*
X172316922Y-104320000D01*
X172332862Y-104404714D01*
X172382928Y-104482518D01*
X172459320Y-104534715D01*
X172550000Y-104553078D01*
X173850000Y-104553078D01*
X173934714Y-104537138D01*
X174012518Y-104487072D01*
X174064715Y-104410680D01*
X174083078Y-104320000D01*
X174083078Y-103620000D01*
X174067138Y-103535286D01*
X174017072Y-103457482D01*
X173940680Y-103405285D01*
X173850000Y-103386922D01*
X173581000Y-103386922D01*
X173581000Y-100505553D01*
X173763608Y-100430101D01*
X174039133Y-100155056D01*
X174188430Y-99795510D01*
X174188770Y-99406198D01*
X174040101Y-99046392D01*
X173765056Y-98770867D01*
X173669046Y-98731000D01*
X175290535Y-98731000D01*
X175196392Y-98769899D01*
X174920867Y-99044944D01*
X174771570Y-99404490D01*
X174771230Y-99793802D01*
X174919899Y-100153608D01*
X175194944Y-100429133D01*
X175369000Y-100501408D01*
X175369000Y-103386922D01*
X175100000Y-103386922D01*
X175015286Y-103402862D01*
X174937482Y-103452928D01*
X174885285Y-103529320D01*
X174866922Y-103620000D01*
X174866922Y-104320000D01*
X174882862Y-104404714D01*
X174932928Y-104482518D01*
X175009320Y-104534715D01*
X175100000Y-104553078D01*
X176400000Y-104553078D01*
X176484714Y-104537138D01*
X176562518Y-104487072D01*
X176614715Y-104410680D01*
X176633078Y-104320000D01*
X176633078Y-103906796D01*
X179398800Y-103906796D01*
X179398800Y-104324150D01*
X179544850Y-104470200D01*
X180305200Y-104470200D01*
X180305200Y-103584850D01*
X180660800Y-103584850D01*
X180660800Y-104470200D01*
X181421150Y-104470200D01*
X181567200Y-104324150D01*
X181567200Y-103906796D01*
X181478261Y-103692078D01*
X181313923Y-103527739D01*
X181099205Y-103438800D01*
X180806850Y-103438800D01*
X180660800Y-103584850D01*
X180305200Y-103584850D01*
X180159150Y-103438800D01*
X179866795Y-103438800D01*
X179652077Y-103527739D01*
X179487739Y-103692078D01*
X179398800Y-103906796D01*
X176633078Y-103906796D01*
X176633078Y-103620000D01*
X176617138Y-103535286D01*
X176567072Y-103457482D01*
X176490680Y-103405285D01*
X176400000Y-103386922D01*
X176131000Y-103386922D01*
X176131000Y-102652980D01*
X178676201Y-102652980D01*
X178763024Y-102863106D01*
X178923649Y-103024011D01*
X179133623Y-103111200D01*
X179360980Y-103111399D01*
X179453428Y-103073200D01*
X179961438Y-103073200D01*
X179965862Y-103096714D01*
X180015928Y-103174518D01*
X180092320Y-103226715D01*
X180183000Y-103245078D01*
X180883000Y-103245078D01*
X180967714Y-103229138D01*
X181045518Y-103179072D01*
X181097715Y-103102680D01*
X181116078Y-103012000D01*
X181116078Y-101712000D01*
X181100138Y-101627286D01*
X181050072Y-101549482D01*
X180973680Y-101497285D01*
X180883000Y-101478922D01*
X180183000Y-101478922D01*
X180098286Y-101494862D01*
X180020482Y-101544928D01*
X179968285Y-101621320D01*
X179949922Y-101712000D01*
X179949922Y-102006400D01*
X179453491Y-102006400D01*
X179361977Y-101968400D01*
X179134620Y-101968201D01*
X178924494Y-102055024D01*
X178763589Y-102215649D01*
X178676400Y-102425623D01*
X178676201Y-102652980D01*
X176131000Y-102652980D01*
X176131000Y-100501421D01*
X176303608Y-100430101D01*
X176579133Y-100155056D01*
X176651408Y-99981000D01*
X182119184Y-99981000D01*
X184337590Y-102199405D01*
X184337592Y-102199408D01*
X184406362Y-102245358D01*
X184461198Y-102281998D01*
X184607000Y-102311001D01*
X184607005Y-102311000D01*
X185132163Y-102311000D01*
X185132862Y-102314714D01*
X185182928Y-102392518D01*
X185259320Y-102444715D01*
X185350000Y-102463078D01*
X186850000Y-102463078D01*
X186934714Y-102447138D01*
X187012518Y-102397072D01*
X187064715Y-102320680D01*
X187066675Y-102311000D01*
X187622184Y-102311000D01*
X187769000Y-102457816D01*
X187769000Y-102800000D01*
X187798002Y-102945802D01*
X187880592Y-103069408D01*
X188004198Y-103151998D01*
X188150000Y-103181000D01*
X188295802Y-103151998D01*
X188419408Y-103069408D01*
X188501998Y-102945802D01*
X188504229Y-102934587D01*
X189669408Y-101769408D01*
X189751998Y-101645803D01*
X189781000Y-101500000D01*
X189781000Y-99157816D01*
X190707815Y-98231000D01*
X198756766Y-98231000D01*
X197978766Y-99009000D01*
X192467837Y-99009000D01*
X192467138Y-99005286D01*
X192417072Y-98927482D01*
X192340680Y-98875285D01*
X192250000Y-98856922D01*
X190750000Y-98856922D01*
X190665286Y-98872862D01*
X190587482Y-98922928D01*
X190535285Y-98999320D01*
X190516922Y-99090000D01*
X190516922Y-99690000D01*
X190532862Y-99774714D01*
X190582928Y-99852518D01*
X190659320Y-99904715D01*
X190750000Y-99923078D01*
X192250000Y-99923078D01*
X192334714Y-99907138D01*
X192412518Y-99857072D01*
X192464715Y-99780680D01*
X192466675Y-99771000D01*
X198097948Y-99771000D01*
X197513748Y-100355200D01*
X192482175Y-100355200D01*
X192467138Y-100275286D01*
X192417072Y-100197482D01*
X192340680Y-100145285D01*
X192250000Y-100126922D01*
X190750000Y-100126922D01*
X190665286Y-100142862D01*
X190587482Y-100192928D01*
X190535285Y-100269320D01*
X190516922Y-100360000D01*
X190516922Y-100960000D01*
X190532862Y-101044714D01*
X190582928Y-101122518D01*
X190659320Y-101174715D01*
X190750000Y-101193078D01*
X192250000Y-101193078D01*
X192334714Y-101177138D01*
X192412518Y-101127072D01*
X192464715Y-101050680D01*
X192482106Y-100964800D01*
X197454148Y-100964800D01*
X196793748Y-101625200D01*
X192482175Y-101625200D01*
X192467138Y-101545286D01*
X192417072Y-101467482D01*
X192340680Y-101415285D01*
X192250000Y-101396922D01*
X190750000Y-101396922D01*
X190665286Y-101412862D01*
X190587482Y-101462928D01*
X190535285Y-101539320D01*
X190516922Y-101630000D01*
X190516922Y-102230000D01*
X190532862Y-102314714D01*
X190582928Y-102392518D01*
X190659320Y-102444715D01*
X190750000Y-102463078D01*
X192250000Y-102463078D01*
X192334714Y-102447138D01*
X192412518Y-102397072D01*
X192464715Y-102320680D01*
X192482106Y-102234800D01*
X196784148Y-102234800D01*
X195423748Y-103595200D01*
X193463038Y-103595200D01*
X193534211Y-103524151D01*
X193621400Y-103314177D01*
X193621599Y-103086820D01*
X193534776Y-102876694D01*
X193374151Y-102715789D01*
X193164177Y-102628600D01*
X192936820Y-102628401D01*
X192726694Y-102715224D01*
X192622737Y-102819000D01*
X192467837Y-102819000D01*
X192467138Y-102815286D01*
X192417072Y-102737482D01*
X192340680Y-102685285D01*
X192250000Y-102666922D01*
X190750000Y-102666922D01*
X190665286Y-102682862D01*
X190587482Y-102732928D01*
X190535285Y-102809320D01*
X190523871Y-102865683D01*
X190424151Y-102765789D01*
X190214177Y-102678600D01*
X189986820Y-102678401D01*
X189776694Y-102765224D01*
X189615789Y-102925849D01*
X189528600Y-103135823D01*
X189528417Y-103345200D01*
X188142423Y-103345200D01*
X188134776Y-103326694D01*
X187974151Y-103165789D01*
X187764177Y-103078600D01*
X187536820Y-103078401D01*
X187517455Y-103086403D01*
X187415526Y-102984474D01*
X187316642Y-102918402D01*
X187200000Y-102895200D01*
X187082175Y-102895200D01*
X187067138Y-102815286D01*
X187017072Y-102737482D01*
X186940680Y-102685285D01*
X186850000Y-102666922D01*
X185350000Y-102666922D01*
X185265286Y-102682862D01*
X185187482Y-102732928D01*
X185135285Y-102809320D01*
X185117894Y-102895200D01*
X183797252Y-102895200D01*
X183048526Y-102146474D01*
X183016078Y-102124793D01*
X183016078Y-101712000D01*
X183000138Y-101627286D01*
X182950072Y-101549482D01*
X182873680Y-101497285D01*
X182783000Y-101478922D01*
X182083000Y-101478922D01*
X181998286Y-101494862D01*
X181920482Y-101544928D01*
X181868285Y-101621320D01*
X181849922Y-101712000D01*
X181849922Y-103012000D01*
X181865862Y-103096714D01*
X181915928Y-103174518D01*
X181992320Y-103226715D01*
X182083000Y-103245078D01*
X182783000Y-103245078D01*
X182867714Y-103229138D01*
X182945518Y-103179072D01*
X182997715Y-103102680D01*
X183016078Y-103012000D01*
X183016078Y-102976130D01*
X183455474Y-103415526D01*
X183502800Y-103447148D01*
X183114067Y-103835881D01*
X183073680Y-103808285D01*
X182983000Y-103789922D01*
X181983000Y-103789922D01*
X181898286Y-103805862D01*
X181820482Y-103855928D01*
X181768285Y-103932320D01*
X181749922Y-104023000D01*
X181749922Y-105273000D01*
X181765862Y-105357714D01*
X181815928Y-105435518D01*
X181892320Y-105487715D01*
X181983000Y-105506078D01*
X182983000Y-105506078D01*
X183067714Y-105490138D01*
X183145518Y-105440072D01*
X183197715Y-105363680D01*
X183216078Y-105273000D01*
X183216078Y-104595974D01*
X184307252Y-103504800D01*
X185117825Y-103504800D01*
X185132862Y-103584714D01*
X185182928Y-103662518D01*
X185259320Y-103714715D01*
X185350000Y-103733078D01*
X186850000Y-103733078D01*
X186934714Y-103717138D01*
X187012518Y-103667072D01*
X187064715Y-103590680D01*
X187080698Y-103511750D01*
X187086279Y-103517331D01*
X187078600Y-103535823D01*
X187078401Y-103763180D01*
X187165224Y-103973306D01*
X187325849Y-104134211D01*
X187400479Y-104165200D01*
X187082175Y-104165200D01*
X187067138Y-104085286D01*
X187017072Y-104007482D01*
X186940680Y-103955285D01*
X186850000Y-103936922D01*
X185350000Y-103936922D01*
X185265286Y-103952862D01*
X185187482Y-104002928D01*
X185135285Y-104079320D01*
X185116922Y-104170000D01*
X185116922Y-104199384D01*
X185034474Y-104254474D01*
X183753748Y-105535200D01*
X181506727Y-105535200D01*
X181567200Y-105389204D01*
X181567200Y-104971850D01*
X181421150Y-104825800D01*
X180660800Y-104825800D01*
X180660800Y-104845800D01*
X180305200Y-104845800D01*
X180305200Y-104825800D01*
X179544850Y-104825800D01*
X179398800Y-104971850D01*
X179398800Y-105389204D01*
X179487739Y-105603922D01*
X179652077Y-105768261D01*
X179792516Y-105826432D01*
X178333748Y-107285200D01*
X169646252Y-107285200D01*
X168764130Y-106403078D01*
X168800000Y-106403078D01*
X168884714Y-106387138D01*
X168962518Y-106337072D01*
X169014715Y-106260680D01*
X169028815Y-106191050D01*
X171965800Y-106191050D01*
X171965800Y-106336205D01*
X172054739Y-106550923D01*
X172219078Y-106715261D01*
X172433796Y-106804200D01*
X172876150Y-106804200D01*
X173022200Y-106658150D01*
X173022200Y-106045000D01*
X173377800Y-106045000D01*
X173377800Y-106658150D01*
X173523850Y-106804200D01*
X173966204Y-106804200D01*
X174180922Y-106715261D01*
X174345261Y-106550923D01*
X174434200Y-106336205D01*
X174434200Y-106191050D01*
X174515800Y-106191050D01*
X174515800Y-106336205D01*
X174604739Y-106550923D01*
X174769078Y-106715261D01*
X174983796Y-106804200D01*
X175426150Y-106804200D01*
X175572200Y-106658150D01*
X175572200Y-106045000D01*
X175927800Y-106045000D01*
X175927800Y-106658150D01*
X176073850Y-106804200D01*
X176516204Y-106804200D01*
X176730922Y-106715261D01*
X176895261Y-106550923D01*
X176984200Y-106336205D01*
X176984200Y-106191050D01*
X176838150Y-106045000D01*
X175927800Y-106045000D01*
X175572200Y-106045000D01*
X174661850Y-106045000D01*
X174515800Y-106191050D01*
X174434200Y-106191050D01*
X174288150Y-106045000D01*
X173377800Y-106045000D01*
X173022200Y-106045000D01*
X172111850Y-106045000D01*
X171965800Y-106191050D01*
X169028815Y-106191050D01*
X169033078Y-106170000D01*
X169033078Y-105470000D01*
X169020621Y-105403795D01*
X171965800Y-105403795D01*
X171965800Y-105548950D01*
X172111850Y-105695000D01*
X173022200Y-105695000D01*
X173022200Y-105081850D01*
X173377800Y-105081850D01*
X173377800Y-105695000D01*
X174288150Y-105695000D01*
X174434200Y-105548950D01*
X174434200Y-105403795D01*
X174515800Y-105403795D01*
X174515800Y-105548950D01*
X174661850Y-105695000D01*
X175572200Y-105695000D01*
X175572200Y-105081850D01*
X175927800Y-105081850D01*
X175927800Y-105695000D01*
X176838150Y-105695000D01*
X176984200Y-105548950D01*
X176984200Y-105403795D01*
X176895261Y-105189077D01*
X176730922Y-105024739D01*
X176516204Y-104935800D01*
X176073850Y-104935800D01*
X175927800Y-105081850D01*
X175572200Y-105081850D01*
X175426150Y-104935800D01*
X174983796Y-104935800D01*
X174769078Y-105024739D01*
X174604739Y-105189077D01*
X174515800Y-105403795D01*
X174434200Y-105403795D01*
X174345261Y-105189077D01*
X174180922Y-105024739D01*
X173966204Y-104935800D01*
X173523850Y-104935800D01*
X173377800Y-105081850D01*
X173022200Y-105081850D01*
X172876150Y-104935800D01*
X172433796Y-104935800D01*
X172219078Y-105024739D01*
X172054739Y-105189077D01*
X171965800Y-105403795D01*
X169020621Y-105403795D01*
X169017138Y-105385286D01*
X168967072Y-105307482D01*
X168890680Y-105255285D01*
X168800000Y-105236922D01*
X167500000Y-105236922D01*
X167415286Y-105252862D01*
X167337482Y-105302928D01*
X167285285Y-105379320D01*
X167266922Y-105470000D01*
X160533078Y-105470000D01*
X160533078Y-104750000D01*
X160517138Y-104665286D01*
X160467072Y-104587482D01*
X160390680Y-104535285D01*
X160300000Y-104516922D01*
X158600000Y-104516922D01*
X158515286Y-104532862D01*
X158437482Y-104582928D01*
X158385285Y-104659320D01*
X158366922Y-104750000D01*
X157183400Y-104750000D01*
X157183400Y-103458239D01*
X158072199Y-103458239D01*
X158194138Y-103752663D01*
X158554806Y-104180535D01*
X159051759Y-104437815D01*
X159272200Y-104337100D01*
X159272200Y-103237800D01*
X159627800Y-103237800D01*
X159627800Y-104337100D01*
X159848241Y-104437815D01*
X160345194Y-104180535D01*
X160705862Y-103752663D01*
X160827801Y-103458239D01*
X160725820Y-103237800D01*
X159627800Y-103237800D01*
X159272200Y-103237800D01*
X158174180Y-103237800D01*
X158072199Y-103458239D01*
X157183400Y-103458239D01*
X157183400Y-102661761D01*
X158072199Y-102661761D01*
X158174180Y-102882200D01*
X159272200Y-102882200D01*
X159272200Y-101782900D01*
X159627800Y-101782900D01*
X159627800Y-102882200D01*
X160725820Y-102882200D01*
X160827801Y-102661761D01*
X160705862Y-102367337D01*
X160345194Y-101939465D01*
X159848241Y-101682185D01*
X159627800Y-101782900D01*
X159272200Y-101782900D01*
X159051759Y-101682185D01*
X158554806Y-101939465D01*
X158194138Y-102367337D01*
X158072199Y-102661761D01*
X157183400Y-102661761D01*
X157183400Y-99793802D01*
X167151230Y-99793802D01*
X167299899Y-100153608D01*
X167574944Y-100429133D01*
X167769000Y-100509712D01*
X167769000Y-103336922D01*
X167500000Y-103336922D01*
X167415286Y-103352862D01*
X167337482Y-103402928D01*
X167285285Y-103479320D01*
X167266922Y-103570000D01*
X167266922Y-104270000D01*
X167282862Y-104354714D01*
X167332928Y-104432518D01*
X167409320Y-104484715D01*
X167500000Y-104503078D01*
X168800000Y-104503078D01*
X168884714Y-104487138D01*
X168962518Y-104437072D01*
X169014715Y-104360680D01*
X169033078Y-104270000D01*
X169033078Y-103570000D01*
X169017138Y-103485286D01*
X168967072Y-103407482D01*
X168890680Y-103355285D01*
X168800000Y-103336922D01*
X168531000Y-103336922D01*
X168531000Y-100493157D01*
X168683608Y-100430101D01*
X168959133Y-100155056D01*
X169108430Y-99795510D01*
X169108770Y-99406198D01*
X168960101Y-99046392D01*
X168685056Y-98770867D01*
X168325510Y-98621570D01*
X167936198Y-98621230D01*
X167576392Y-98769899D01*
X167300867Y-99044944D01*
X167151570Y-99404490D01*
X167151230Y-99793802D01*
X157183400Y-99793802D01*
X157183400Y-97383850D01*
X165525800Y-97383850D01*
X165525800Y-97926204D01*
X165614739Y-98140922D01*
X165779077Y-98305261D01*
X165993795Y-98394200D01*
X166536150Y-98394200D01*
X166682200Y-98248150D01*
X166682200Y-97237800D01*
X165671850Y-97237800D01*
X165525800Y-97383850D01*
X157183400Y-97383850D01*
X157183400Y-96193796D01*
X165525800Y-96193796D01*
X165525800Y-96736150D01*
X165671850Y-96882200D01*
X166682200Y-96882200D01*
X166682200Y-95871850D01*
X167037800Y-95871850D01*
X167037800Y-96882200D01*
X167057800Y-96882200D01*
X167057800Y-97237800D01*
X167037800Y-97237800D01*
X167037800Y-98248150D01*
X167183850Y-98394200D01*
X167726205Y-98394200D01*
X167940923Y-98305261D01*
X168105261Y-98140922D01*
X168149093Y-98035101D01*
X168676346Y-98035101D01*
X168751115Y-98255604D01*
X169258046Y-98412912D01*
X169786589Y-98364251D01*
X170048885Y-98255604D01*
X170123654Y-98035101D01*
X169400000Y-97311447D01*
X168676346Y-98035101D01*
X168149093Y-98035101D01*
X168194200Y-97926204D01*
X168194200Y-97684270D01*
X168204396Y-97708885D01*
X168424899Y-97783654D01*
X169148553Y-97060000D01*
X169651447Y-97060000D01*
X170375101Y-97783654D01*
X170595604Y-97708885D01*
X170659331Y-97503521D01*
X170744396Y-97708885D01*
X170964899Y-97783654D01*
X171688553Y-97060000D01*
X170964899Y-96336346D01*
X170744396Y-96411115D01*
X170680669Y-96616479D01*
X170595604Y-96411115D01*
X170375101Y-96336346D01*
X169651447Y-97060000D01*
X169148553Y-97060000D01*
X168424899Y-96336346D01*
X168204396Y-96411115D01*
X168194200Y-96443972D01*
X168194200Y-96193796D01*
X168149094Y-96084899D01*
X168676346Y-96084899D01*
X169400000Y-96808553D01*
X170123654Y-96084899D01*
X171216346Y-96084899D01*
X171940000Y-96808553D01*
X172663654Y-96084899D01*
X173756346Y-96084899D01*
X174480000Y-96808553D01*
X175113452Y-96175101D01*
X192676346Y-96175101D01*
X192751115Y-96395604D01*
X193258046Y-96552912D01*
X193786589Y-96504251D01*
X194048885Y-96395604D01*
X194123654Y-96175101D01*
X193400000Y-95451447D01*
X192676346Y-96175101D01*
X175113452Y-96175101D01*
X175203654Y-96084899D01*
X175128885Y-95864396D01*
X174621954Y-95707088D01*
X174093411Y-95755749D01*
X173831115Y-95864396D01*
X173756346Y-96084899D01*
X172663654Y-96084899D01*
X172588885Y-95864396D01*
X172081954Y-95707088D01*
X171553411Y-95755749D01*
X171291115Y-95864396D01*
X171216346Y-96084899D01*
X170123654Y-96084899D01*
X170048885Y-95864396D01*
X169541954Y-95707088D01*
X169013411Y-95755749D01*
X168751115Y-95864396D01*
X168676346Y-96084899D01*
X168149094Y-96084899D01*
X168105261Y-95979078D01*
X167940923Y-95814739D01*
X167726205Y-95725800D01*
X167183850Y-95725800D01*
X167037800Y-95871850D01*
X166682200Y-95871850D01*
X166536150Y-95725800D01*
X165993795Y-95725800D01*
X165779077Y-95814739D01*
X165614739Y-95979078D01*
X165525800Y-96193796D01*
X157183400Y-96193796D01*
X157183400Y-95058046D01*
X192047088Y-95058046D01*
X192095749Y-95586589D01*
X192204396Y-95848885D01*
X192424899Y-95923654D01*
X193148553Y-95200000D01*
X193651447Y-95200000D01*
X194375101Y-95923654D01*
X194595604Y-95848885D01*
X194752912Y-95341954D01*
X194704251Y-94813411D01*
X194595604Y-94551115D01*
X194375101Y-94476346D01*
X193651447Y-95200000D01*
X193148553Y-95200000D01*
X192424899Y-94476346D01*
X192204396Y-94551115D01*
X192047088Y-95058046D01*
X157183400Y-95058046D01*
X157183400Y-94224899D01*
X192676346Y-94224899D01*
X193400000Y-94948553D01*
X194123654Y-94224899D01*
X194048885Y-94004396D01*
X193541954Y-93847088D01*
X193013411Y-93895749D01*
X192751115Y-94004396D01*
X192676346Y-94224899D01*
X157183400Y-94224899D01*
X157183400Y-92370942D01*
X158437648Y-91116694D01*
X163536045Y-91116694D01*
X163848028Y-91871751D01*
X164425210Y-92449942D01*
X165179722Y-92763242D01*
X165996694Y-92763955D01*
X166751751Y-92451972D01*
X167329942Y-91874790D01*
X167643242Y-91120278D01*
X167643245Y-91116694D01*
X174966045Y-91116694D01*
X175278028Y-91871751D01*
X175855210Y-92449942D01*
X176609722Y-92763242D01*
X177426694Y-92763955D01*
X178181751Y-92451972D01*
X178380709Y-92253361D01*
X182659975Y-92253361D01*
X182769950Y-92519521D01*
X182973408Y-92723335D01*
X183239376Y-92833774D01*
X183527361Y-92834025D01*
X183793521Y-92724050D01*
X183997335Y-92520592D01*
X184107774Y-92254624D01*
X184107775Y-92253361D01*
X184691975Y-92253361D01*
X184801950Y-92519521D01*
X185005408Y-92723335D01*
X185271376Y-92833774D01*
X185559361Y-92834025D01*
X185825521Y-92724050D01*
X186029335Y-92520592D01*
X186139774Y-92254624D01*
X186140025Y-91966639D01*
X186030050Y-91700479D01*
X185826592Y-91496665D01*
X185560624Y-91386226D01*
X185272639Y-91385975D01*
X185006479Y-91495950D01*
X184802665Y-91699408D01*
X184692226Y-91965376D01*
X184691975Y-92253361D01*
X184107775Y-92253361D01*
X184108025Y-91966639D01*
X183998050Y-91700479D01*
X183794592Y-91496665D01*
X183528624Y-91386226D01*
X183240639Y-91385975D01*
X182974479Y-91495950D01*
X182770665Y-91699408D01*
X182660226Y-91965376D01*
X182659975Y-92253361D01*
X178380709Y-92253361D01*
X178759942Y-91874790D01*
X179073242Y-91120278D01*
X179073955Y-90303306D01*
X178862709Y-89792050D01*
X187944600Y-89792050D01*
X187944600Y-90084405D01*
X188033539Y-90299123D01*
X188197878Y-90463461D01*
X188412596Y-90552400D01*
X188829950Y-90552400D01*
X188976000Y-90406350D01*
X188976000Y-89646000D01*
X189331600Y-89646000D01*
X189331600Y-90406350D01*
X189477650Y-90552400D01*
X189895004Y-90552400D01*
X190109722Y-90463461D01*
X190274061Y-90299123D01*
X190363000Y-90084405D01*
X190363000Y-89792050D01*
X190216950Y-89646000D01*
X189331600Y-89646000D01*
X188976000Y-89646000D01*
X188090650Y-89646000D01*
X187944600Y-89792050D01*
X178862709Y-89792050D01*
X178761972Y-89548249D01*
X178184790Y-88970058D01*
X177900463Y-88851995D01*
X187944600Y-88851995D01*
X187944600Y-89144350D01*
X188090650Y-89290400D01*
X188976000Y-89290400D01*
X188976000Y-88530050D01*
X189331600Y-88530050D01*
X189331600Y-89290400D01*
X190216950Y-89290400D01*
X190363000Y-89144350D01*
X190363000Y-88851995D01*
X190274061Y-88637277D01*
X190109722Y-88472939D01*
X189895004Y-88384000D01*
X189477650Y-88384000D01*
X189331600Y-88530050D01*
X188976000Y-88530050D01*
X188829950Y-88384000D01*
X188412596Y-88384000D01*
X188197878Y-88472939D01*
X188033539Y-88637277D01*
X187944600Y-88851995D01*
X177900463Y-88851995D01*
X177430278Y-88656758D01*
X176613306Y-88656045D01*
X175858249Y-88968028D01*
X175280058Y-89545210D01*
X174966758Y-90299722D01*
X174966045Y-91116694D01*
X167643245Y-91116694D01*
X167643955Y-90303306D01*
X167331972Y-89548249D01*
X166754790Y-88970058D01*
X166000278Y-88656758D01*
X165183306Y-88656045D01*
X164428249Y-88968028D01*
X163850058Y-89545210D01*
X163536758Y-90299722D01*
X163536045Y-91116694D01*
X158437648Y-91116694D01*
X161552742Y-88001600D01*
X188302007Y-88001600D01*
X188311662Y-88052914D01*
X188361728Y-88130718D01*
X188438120Y-88182915D01*
X188528800Y-88201278D01*
X189778800Y-88201278D01*
X189863514Y-88185338D01*
X189941318Y-88135272D01*
X189993515Y-88058880D01*
X190008800Y-87983400D01*
X191589219Y-87983400D01*
X191664320Y-88034715D01*
X191755000Y-88053078D01*
X192945000Y-88053078D01*
X193029714Y-88037138D01*
X193090800Y-87997830D01*
X193090800Y-88802947D01*
X193035680Y-88765285D01*
X192945000Y-88746922D01*
X191755000Y-88746922D01*
X191670286Y-88762862D01*
X191592482Y-88812928D01*
X191540285Y-88889320D01*
X191521922Y-88980000D01*
X191521922Y-89720000D01*
X191537862Y-89804714D01*
X191587928Y-89882518D01*
X191664320Y-89934715D01*
X191755000Y-89953078D01*
X192945000Y-89953078D01*
X193029714Y-89937138D01*
X193090800Y-89897830D01*
X193090800Y-90454859D01*
X192868737Y-90676922D01*
X192390000Y-90676922D01*
X192305286Y-90692862D01*
X192227482Y-90742928D01*
X192175285Y-90819320D01*
X192156922Y-90910000D01*
X192156922Y-92210000D01*
X192172862Y-92294714D01*
X192222928Y-92372518D01*
X192299320Y-92424715D01*
X192390000Y-92443078D01*
X193090000Y-92443078D01*
X193174714Y-92427138D01*
X193252518Y-92377072D01*
X193304715Y-92300680D01*
X193323078Y-92210000D01*
X193323078Y-91731264D01*
X194001368Y-91052973D01*
X194001371Y-91052971D01*
X194056922Y-90969832D01*
X194056922Y-92210000D01*
X194072862Y-92294714D01*
X194122928Y-92372518D01*
X194199320Y-92424715D01*
X194290000Y-92443078D01*
X194990000Y-92443078D01*
X195074714Y-92427138D01*
X195152518Y-92377072D01*
X195204715Y-92300680D01*
X195223078Y-92210000D01*
X195223078Y-91343850D01*
X196830800Y-91343850D01*
X196830800Y-91636205D01*
X196919739Y-91850923D01*
X197084078Y-92015261D01*
X197298796Y-92104200D01*
X197716150Y-92104200D01*
X197862200Y-91958150D01*
X197862200Y-91197800D01*
X198217800Y-91197800D01*
X198217800Y-91958150D01*
X198363850Y-92104200D01*
X198781204Y-92104200D01*
X198995922Y-92015261D01*
X199160261Y-91850923D01*
X199249200Y-91636205D01*
X199249200Y-91343850D01*
X199103150Y-91197800D01*
X198217800Y-91197800D01*
X197862200Y-91197800D01*
X196976850Y-91197800D01*
X196830800Y-91343850D01*
X195223078Y-91343850D01*
X195223078Y-90910000D01*
X195207138Y-90825286D01*
X195173400Y-90772856D01*
X195173400Y-90403795D01*
X196830800Y-90403795D01*
X196830800Y-90696150D01*
X196976850Y-90842200D01*
X197862200Y-90842200D01*
X197862200Y-90081850D01*
X198217800Y-90081850D01*
X198217800Y-90842200D01*
X199103150Y-90842200D01*
X199249200Y-90696150D01*
X199249200Y-90403795D01*
X199160261Y-90189077D01*
X198995922Y-90024739D01*
X198781204Y-89935800D01*
X198363850Y-89935800D01*
X198217800Y-90081850D01*
X197862200Y-90081850D01*
X197716150Y-89935800D01*
X197298796Y-89935800D01*
X197084078Y-90024739D01*
X196919739Y-90189077D01*
X196830800Y-90403795D01*
X195173400Y-90403795D01*
X195173400Y-89980942D01*
X195201264Y-89953078D01*
X195645000Y-89953078D01*
X195729714Y-89937138D01*
X195807518Y-89887072D01*
X195859715Y-89810680D01*
X195878078Y-89720000D01*
X195878078Y-89305789D01*
X195975922Y-89265261D01*
X196140261Y-89100923D01*
X196229200Y-88886205D01*
X196229200Y-88723850D01*
X196083150Y-88577800D01*
X195227800Y-88577800D01*
X195227800Y-88597800D01*
X194872200Y-88597800D01*
X194872200Y-88577800D01*
X194852200Y-88577800D01*
X194852200Y-88222200D01*
X194872200Y-88222200D01*
X194872200Y-88202200D01*
X195227800Y-88202200D01*
X195227800Y-88222200D01*
X196083150Y-88222200D01*
X196229200Y-88076150D01*
X196229200Y-87983400D01*
X196249058Y-87983400D01*
X197181922Y-88916264D01*
X197181922Y-89520000D01*
X197197862Y-89604714D01*
X197247928Y-89682518D01*
X197324320Y-89734715D01*
X197415000Y-89753078D01*
X197657398Y-89753078D01*
X197719235Y-89794396D01*
X198040000Y-89858200D01*
X198360765Y-89794396D01*
X198422602Y-89753078D01*
X198665000Y-89753078D01*
X198749714Y-89737138D01*
X198827518Y-89687072D01*
X198879715Y-89610680D01*
X198898078Y-89520000D01*
X198898078Y-89458800D01*
X199463709Y-89458800D01*
X199555223Y-89496800D01*
X199782580Y-89496999D01*
X199992706Y-89410176D01*
X200153611Y-89249551D01*
X200240800Y-89039577D01*
X200240999Y-88812220D01*
X200154176Y-88602094D01*
X199993551Y-88441189D01*
X199783577Y-88354000D01*
X199556220Y-88353801D01*
X199463772Y-88392000D01*
X198878200Y-88392000D01*
X198878200Y-87988239D01*
X205322199Y-87988239D01*
X205444138Y-88282663D01*
X205804806Y-88710535D01*
X206301759Y-88967815D01*
X206522200Y-88867100D01*
X206522200Y-87767800D01*
X206877800Y-87767800D01*
X206877800Y-88867100D01*
X207098241Y-88967815D01*
X207595194Y-88710535D01*
X207955862Y-88282663D01*
X208077801Y-87988239D01*
X207975820Y-87767800D01*
X206877800Y-87767800D01*
X206522200Y-87767800D01*
X205424180Y-87767800D01*
X205322199Y-87988239D01*
X198878200Y-87988239D01*
X198878200Y-87590000D01*
X208140269Y-87590000D01*
X208222373Y-88002762D01*
X208456184Y-88352685D01*
X208806107Y-88586496D01*
X209218869Y-88668600D01*
X209261131Y-88668600D01*
X209673893Y-88586496D01*
X210023816Y-88352685D01*
X210257627Y-88002762D01*
X210339731Y-87590000D01*
X210257627Y-87177238D01*
X210226732Y-87131000D01*
X211590478Y-87131000D01*
X211587482Y-87132928D01*
X211535285Y-87209320D01*
X211516922Y-87300000D01*
X211516922Y-88100000D01*
X211532862Y-88184714D01*
X211582928Y-88262518D01*
X211659320Y-88314715D01*
X211666600Y-88316189D01*
X211666600Y-88575213D01*
X211565789Y-88675849D01*
X211478600Y-88885823D01*
X211478401Y-89113180D01*
X211565224Y-89323306D01*
X211725849Y-89484211D01*
X211935823Y-89571400D01*
X212163180Y-89571599D01*
X212373306Y-89484776D01*
X212534211Y-89324151D01*
X212572570Y-89231772D01*
X212577171Y-89227171D01*
X212692797Y-89054123D01*
X212733400Y-88850000D01*
X212733400Y-88317385D01*
X212734714Y-88317138D01*
X212812518Y-88267072D01*
X212864715Y-88190680D01*
X212883078Y-88100000D01*
X212883078Y-87300000D01*
X212867138Y-87215286D01*
X212817072Y-87137482D01*
X212807585Y-87131000D01*
X213516922Y-87131000D01*
X213516922Y-87150000D01*
X213532862Y-87234714D01*
X213582928Y-87312518D01*
X213659320Y-87364715D01*
X213750000Y-87383078D01*
X214650000Y-87383078D01*
X214734714Y-87367138D01*
X214812518Y-87317072D01*
X214864715Y-87240680D01*
X214870239Y-87213400D01*
X216956922Y-87213400D01*
X216956922Y-87330000D01*
X216972862Y-87414714D01*
X217022928Y-87492518D01*
X217099320Y-87544715D01*
X217190000Y-87563078D01*
X217890000Y-87563078D01*
X217974714Y-87547138D01*
X218052518Y-87497072D01*
X218104715Y-87420680D01*
X218123078Y-87330000D01*
X218123078Y-86030000D01*
X218856922Y-86030000D01*
X218856922Y-87330000D01*
X218872862Y-87414714D01*
X218922928Y-87492518D01*
X218999320Y-87544715D01*
X219090000Y-87563078D01*
X219790000Y-87563078D01*
X219874714Y-87547138D01*
X219952518Y-87497072D01*
X220004715Y-87420680D01*
X220023078Y-87330000D01*
X220023078Y-86851264D01*
X220671371Y-86202971D01*
X220786997Y-86029924D01*
X220827600Y-85825800D01*
X220827600Y-85549691D01*
X220865600Y-85458177D01*
X220865799Y-85230820D01*
X220778976Y-85020694D01*
X220618351Y-84859789D01*
X220408377Y-84772600D01*
X220181020Y-84772401D01*
X219970894Y-84859224D01*
X219809989Y-85019849D01*
X219722800Y-85229823D01*
X219722601Y-85457180D01*
X219760800Y-85549628D01*
X219760800Y-85604858D01*
X219568736Y-85796922D01*
X219090000Y-85796922D01*
X219005286Y-85812862D01*
X218927482Y-85862928D01*
X218875285Y-85939320D01*
X218856922Y-86030000D01*
X218123078Y-86030000D01*
X218107138Y-85945286D01*
X218057072Y-85867482D01*
X217980680Y-85815285D01*
X217890000Y-85796922D01*
X217190000Y-85796922D01*
X217105286Y-85812862D01*
X217027482Y-85862928D01*
X216975285Y-85939320D01*
X216956922Y-86030000D01*
X216956922Y-86146600D01*
X214757240Y-86146600D01*
X214740680Y-86135285D01*
X214650000Y-86116922D01*
X213750000Y-86116922D01*
X213665286Y-86132862D01*
X213587482Y-86182928D01*
X213535285Y-86259320D01*
X213516922Y-86350000D01*
X213516922Y-86369000D01*
X210050000Y-86369000D01*
X209904197Y-86398002D01*
X209780592Y-86480592D01*
X209668711Y-86592473D01*
X209261131Y-86511400D01*
X209218869Y-86511400D01*
X208806107Y-86593504D01*
X208456184Y-86827315D01*
X208222373Y-87177238D01*
X208140269Y-87590000D01*
X198878200Y-87590000D01*
X198878200Y-87191761D01*
X205322199Y-87191761D01*
X205424180Y-87412200D01*
X206522200Y-87412200D01*
X206522200Y-86312900D01*
X206877800Y-86312900D01*
X206877800Y-87412200D01*
X207975820Y-87412200D01*
X208077801Y-87191761D01*
X207955862Y-86897337D01*
X207595194Y-86469465D01*
X207098241Y-86212185D01*
X206877800Y-86312900D01*
X206522200Y-86312900D01*
X206301759Y-86212185D01*
X205804806Y-86469465D01*
X205444138Y-86897337D01*
X205322199Y-87191761D01*
X198878200Y-87191761D01*
X198878200Y-85990000D01*
X198814396Y-85669235D01*
X198632697Y-85397303D01*
X197835394Y-84600000D01*
X198567697Y-83867697D01*
X198749396Y-83595766D01*
X198813200Y-83275000D01*
X198813200Y-83208078D01*
X199475000Y-83208078D01*
X199559714Y-83192138D01*
X199637518Y-83142072D01*
X199689715Y-83065680D01*
X199700342Y-83013200D01*
X204365000Y-83013200D01*
X204441024Y-82998078D01*
X204900000Y-82998078D01*
X204984714Y-82982138D01*
X205062518Y-82932072D01*
X205114715Y-82855680D01*
X205133078Y-82765000D01*
X205133078Y-82522601D01*
X205172334Y-82463850D01*
X205315800Y-82463850D01*
X205315800Y-82881204D01*
X205404739Y-83095922D01*
X205569077Y-83260261D01*
X205783795Y-83349200D01*
X206076150Y-83349200D01*
X206222200Y-83203150D01*
X206222200Y-82317800D01*
X206577800Y-82317800D01*
X206577800Y-83203150D01*
X206723850Y-83349200D01*
X207016205Y-83349200D01*
X207230923Y-83260261D01*
X207395261Y-83095922D01*
X207484200Y-82881204D01*
X207484200Y-82463850D01*
X207338150Y-82317800D01*
X206577800Y-82317800D01*
X206222200Y-82317800D01*
X205461850Y-82317800D01*
X205315800Y-82463850D01*
X205172334Y-82463850D01*
X205174395Y-82460766D01*
X205238200Y-82140000D01*
X205174395Y-81819235D01*
X205133078Y-81757399D01*
X205133078Y-81515000D01*
X205117138Y-81430286D01*
X205096875Y-81398796D01*
X205315800Y-81398796D01*
X205315800Y-81816150D01*
X205461850Y-81962200D01*
X206222200Y-81962200D01*
X206222200Y-81076850D01*
X206577800Y-81076850D01*
X206577800Y-81962200D01*
X207338150Y-81962200D01*
X207484200Y-81816150D01*
X207484200Y-81398796D01*
X207395261Y-81184078D01*
X207230923Y-81019739D01*
X207016205Y-80930800D01*
X206723850Y-80930800D01*
X206577800Y-81076850D01*
X206222200Y-81076850D01*
X206076150Y-80930800D01*
X205783795Y-80930800D01*
X205569077Y-81019739D01*
X205404739Y-81184078D01*
X205315800Y-81398796D01*
X205096875Y-81398796D01*
X205067072Y-81352482D01*
X204990680Y-81300285D01*
X204900000Y-81281922D01*
X203900000Y-81281922D01*
X203815286Y-81297862D01*
X203754775Y-81336800D01*
X199700890Y-81336800D01*
X199692138Y-81290286D01*
X199642072Y-81212482D01*
X199565680Y-81160285D01*
X199475000Y-81141922D01*
X196475000Y-81141922D01*
X196390286Y-81157862D01*
X196312482Y-81207928D01*
X196260285Y-81284320D01*
X196241922Y-81375000D01*
X196241922Y-82975000D01*
X196257862Y-83059714D01*
X196307928Y-83137518D01*
X196384320Y-83189715D01*
X196475000Y-83208078D01*
X196856528Y-83208078D01*
X196057303Y-84007303D01*
X195875604Y-84279234D01*
X195811800Y-84600000D01*
X195875604Y-84920766D01*
X196057303Y-85192697D01*
X197201800Y-86337194D01*
X197201800Y-87427458D01*
X196847171Y-87072829D01*
X196674123Y-86957203D01*
X196470000Y-86916600D01*
X195810781Y-86916600D01*
X195735680Y-86865285D01*
X195645000Y-86846922D01*
X194455000Y-86846922D01*
X194370286Y-86862862D01*
X194292482Y-86912928D01*
X194289973Y-86916600D01*
X193990000Y-86916600D01*
X193785877Y-86957203D01*
X193612829Y-87072829D01*
X193252829Y-87432829D01*
X193252827Y-87432832D01*
X193247029Y-87438629D01*
X193178078Y-87541822D01*
X193178078Y-87080000D01*
X193162138Y-86995286D01*
X193112072Y-86917482D01*
X193035680Y-86865285D01*
X192945000Y-86846922D01*
X191755000Y-86846922D01*
X191670286Y-86862862D01*
X191592482Y-86912928D01*
X191589973Y-86916600D01*
X190002169Y-86916600D01*
X189995938Y-86883486D01*
X189945872Y-86805682D01*
X189869480Y-86753485D01*
X189778800Y-86735122D01*
X188528800Y-86735122D01*
X188444086Y-86751062D01*
X188366282Y-86801128D01*
X188314085Y-86877520D01*
X188302486Y-86934800D01*
X161331800Y-86934800D01*
X161127677Y-86975403D01*
X160954629Y-87091029D01*
X156272829Y-91772829D01*
X156157203Y-91945877D01*
X156116600Y-92150000D01*
X155003600Y-92150000D01*
X155003600Y-80198850D01*
X187390800Y-80198850D01*
X187390800Y-83341204D01*
X187479739Y-83555922D01*
X187644077Y-83720261D01*
X187858795Y-83809200D01*
X191001150Y-83809200D01*
X191147200Y-83663150D01*
X191147200Y-80052800D01*
X191502800Y-80052800D01*
X191502800Y-83663150D01*
X191648850Y-83809200D01*
X194791205Y-83809200D01*
X195005923Y-83720261D01*
X195170261Y-83555922D01*
X195259200Y-83341204D01*
X195259200Y-80198850D01*
X195113150Y-80052800D01*
X191502800Y-80052800D01*
X191147200Y-80052800D01*
X187536850Y-80052800D01*
X187390800Y-80198850D01*
X155003600Y-80198850D01*
X155003600Y-76408796D01*
X187390800Y-76408796D01*
X187390800Y-79551150D01*
X187536850Y-79697200D01*
X191147200Y-79697200D01*
X191147200Y-76086850D01*
X191502800Y-76086850D01*
X191502800Y-79697200D01*
X195113150Y-79697200D01*
X195259200Y-79551150D01*
X195259200Y-76775000D01*
X196241922Y-76775000D01*
X196241922Y-78375000D01*
X196257862Y-78459714D01*
X196307928Y-78537518D01*
X196384320Y-78589715D01*
X196475000Y-78608078D01*
X197949250Y-78608078D01*
X197975000Y-78613200D01*
X198000750Y-78608078D01*
X199475000Y-78608078D01*
X199559714Y-78592138D01*
X199637518Y-78542072D01*
X199689715Y-78465680D01*
X199708078Y-78375000D01*
X199708078Y-78108400D01*
X203626922Y-78108400D01*
X203626922Y-78385000D01*
X203642862Y-78469714D01*
X203692928Y-78547518D01*
X203769320Y-78599715D01*
X203826600Y-78611314D01*
X203826600Y-79061800D01*
X203867203Y-79265923D01*
X203982829Y-79438971D01*
X204821029Y-80277171D01*
X204994077Y-80392797D01*
X205198200Y-80433400D01*
X211876922Y-80433400D01*
X211876922Y-80750000D01*
X211892862Y-80834714D01*
X211942928Y-80912518D01*
X212019320Y-80964715D01*
X212110000Y-80983078D01*
X213810000Y-80983078D01*
X213894714Y-80967138D01*
X213972518Y-80917072D01*
X214024715Y-80840680D01*
X214043078Y-80750000D01*
X214043078Y-80298241D01*
X214122185Y-80298241D01*
X214379465Y-80795194D01*
X214807337Y-81155862D01*
X215101761Y-81277801D01*
X215322200Y-81175820D01*
X215322200Y-80077800D01*
X215677800Y-80077800D01*
X215677800Y-81175820D01*
X215898239Y-81277801D01*
X216192663Y-81155862D01*
X216620535Y-80795194D01*
X216877815Y-80298241D01*
X216777100Y-80077800D01*
X215677800Y-80077800D01*
X215322200Y-80077800D01*
X214222900Y-80077800D01*
X214122185Y-80298241D01*
X214043078Y-80298241D01*
X214043078Y-79501759D01*
X214122185Y-79501759D01*
X214222900Y-79722200D01*
X215322200Y-79722200D01*
X215322200Y-78624180D01*
X215677800Y-78624180D01*
X215677800Y-79722200D01*
X216777100Y-79722200D01*
X216877815Y-79501759D01*
X216620535Y-79004806D01*
X216192663Y-78644138D01*
X215898239Y-78522199D01*
X215677800Y-78624180D01*
X215322200Y-78624180D01*
X215101761Y-78522199D01*
X214807337Y-78644138D01*
X214379465Y-79004806D01*
X214122185Y-79501759D01*
X214043078Y-79501759D01*
X214043078Y-79050000D01*
X214027138Y-78965286D01*
X213977072Y-78887482D01*
X213900680Y-78835285D01*
X213810000Y-78816922D01*
X212110000Y-78816922D01*
X212025286Y-78832862D01*
X211947482Y-78882928D01*
X211895285Y-78959320D01*
X211876922Y-79050000D01*
X211876922Y-79366600D01*
X205419142Y-79366600D01*
X204893400Y-78840858D01*
X204893400Y-78611793D01*
X204944714Y-78602138D01*
X205022518Y-78552072D01*
X205074715Y-78475680D01*
X205093078Y-78385000D01*
X205093078Y-78083850D01*
X205275800Y-78083850D01*
X205275800Y-78501204D01*
X205364739Y-78715922D01*
X205529077Y-78880261D01*
X205743795Y-78969200D01*
X206036150Y-78969200D01*
X206182200Y-78823150D01*
X206182200Y-77937800D01*
X206537800Y-77937800D01*
X206537800Y-78823150D01*
X206683850Y-78969200D01*
X206976205Y-78969200D01*
X207190923Y-78880261D01*
X207355261Y-78715922D01*
X207444200Y-78501204D01*
X207444200Y-78083850D01*
X207298150Y-77937800D01*
X206537800Y-77937800D01*
X206182200Y-77937800D01*
X205421850Y-77937800D01*
X205275800Y-78083850D01*
X205093078Y-78083850D01*
X205093078Y-77135000D01*
X205077138Y-77050286D01*
X205056875Y-77018796D01*
X205275800Y-77018796D01*
X205275800Y-77436150D01*
X205421850Y-77582200D01*
X206182200Y-77582200D01*
X206182200Y-76696850D01*
X206537800Y-76696850D01*
X206537800Y-77582200D01*
X207298150Y-77582200D01*
X207444200Y-77436150D01*
X207444200Y-77018796D01*
X207355261Y-76804078D01*
X207190923Y-76639739D01*
X206976205Y-76550800D01*
X206683850Y-76550800D01*
X206537800Y-76696850D01*
X206182200Y-76696850D01*
X206036150Y-76550800D01*
X205743795Y-76550800D01*
X205529077Y-76639739D01*
X205364739Y-76804078D01*
X205275800Y-77018796D01*
X205056875Y-77018796D01*
X205027072Y-76972482D01*
X204950680Y-76920285D01*
X204860000Y-76901922D01*
X203860000Y-76901922D01*
X203775286Y-76917862D01*
X203697482Y-76967928D01*
X203647144Y-77041600D01*
X199708078Y-77041600D01*
X199708078Y-76775000D01*
X199692138Y-76690286D01*
X199642072Y-76612482D01*
X199565680Y-76560285D01*
X199475000Y-76541922D01*
X196475000Y-76541922D01*
X196390286Y-76557862D01*
X196312482Y-76607928D01*
X196260285Y-76684320D01*
X196241922Y-76775000D01*
X195259200Y-76775000D01*
X195259200Y-76408796D01*
X195170261Y-76194078D01*
X195005923Y-76029739D01*
X194791205Y-75940800D01*
X191648850Y-75940800D01*
X191502800Y-76086850D01*
X191147200Y-76086850D01*
X191001150Y-75940800D01*
X187858795Y-75940800D01*
X187644077Y-76029739D01*
X187479739Y-76194078D01*
X187390800Y-76408796D01*
X155003600Y-76408796D01*
X155003600Y-74903600D01*
X221396400Y-74903600D01*
X221396400Y-131296400D01*
G36*
X208456184Y-96987315D02*
X208222373Y-97337238D01*
X208140269Y-97750000D01*
X208222373Y-98162762D01*
X208268856Y-98232329D01*
X202412184Y-104089000D01*
X195792052Y-104089000D01*
X201776252Y-98104800D01*
X205616922Y-98104800D01*
X205616922Y-98600000D01*
X205632862Y-98684714D01*
X205682928Y-98762518D01*
X205759320Y-98814715D01*
X205850000Y-98833078D01*
X207550000Y-98833078D01*
X207634714Y-98817138D01*
X207712518Y-98767072D01*
X207764715Y-98690680D01*
X207783078Y-98600000D01*
X207783078Y-96900000D01*
X207767138Y-96815286D01*
X207728216Y-96754800D01*
X208804167Y-96754800D01*
X208456184Y-96987315D01*
X208456184Y-96987315D01*
G37*
X208456184Y-96987315D02*
X208222373Y-97337238D01*
X208140269Y-97750000D01*
X208222373Y-98162762D01*
X208268856Y-98232329D01*
X202412184Y-104089000D01*
X195792052Y-104089000D01*
X201776252Y-98104800D01*
X205616922Y-98104800D01*
X205616922Y-98600000D01*
X205632862Y-98684714D01*
X205682928Y-98762518D01*
X205759320Y-98814715D01*
X205850000Y-98833078D01*
X207550000Y-98833078D01*
X207634714Y-98817138D01*
X207712518Y-98767072D01*
X207764715Y-98690680D01*
X207783078Y-98600000D01*
X207783078Y-96900000D01*
X207767138Y-96815286D01*
X207728216Y-96754800D01*
X208804167Y-96754800D01*
X208456184Y-96987315D01*
G36*
X205635285Y-96809320D02*
X205616922Y-96900000D01*
X205616922Y-97495200D01*
X201785852Y-97495200D01*
X202526252Y-96754800D01*
X205672537Y-96754800D01*
X205635285Y-96809320D01*
X205635285Y-96809320D01*
G37*
X205635285Y-96809320D02*
X205616922Y-96900000D01*
X205616922Y-97495200D01*
X201785852Y-97495200D01*
X202526252Y-96754800D01*
X205672537Y-96754800D01*
X205635285Y-96809320D01*
G36*
X205916184Y-94447315D02*
X205682373Y-94797238D01*
X205600269Y-95210000D01*
X205682373Y-95622762D01*
X205916184Y-95972685D01*
X206174371Y-96145200D01*
X202585852Y-96145200D01*
X204476252Y-94254800D01*
X206204303Y-94254800D01*
X205916184Y-94447315D01*
X205916184Y-94447315D01*
G37*
X205916184Y-94447315D02*
X205682373Y-94797238D01*
X205600269Y-95210000D01*
X205682373Y-95622762D01*
X205916184Y-95972685D01*
X206174371Y-96145200D01*
X202585852Y-96145200D01*
X204476252Y-94254800D01*
X206204303Y-94254800D01*
X205916184Y-94447315D01*
G36*
X208456184Y-94447315D02*
X208222373Y-94797238D01*
X208140269Y-95210000D01*
X208222373Y-95622762D01*
X208456184Y-95972685D01*
X208714371Y-96145200D01*
X207225629Y-96145200D01*
X207483816Y-95972685D01*
X207717627Y-95622762D01*
X207799731Y-95210000D01*
X207717627Y-94797238D01*
X207483816Y-94447315D01*
X207195697Y-94254800D01*
X208744303Y-94254800D01*
X208456184Y-94447315D01*
X208456184Y-94447315D01*
G37*
X208456184Y-94447315D02*
X208222373Y-94797238D01*
X208140269Y-95210000D01*
X208222373Y-95622762D01*
X208456184Y-95972685D01*
X208714371Y-96145200D01*
X207225629Y-96145200D01*
X207483816Y-95972685D01*
X207717627Y-95622762D01*
X207799731Y-95210000D01*
X207717627Y-94797238D01*
X207483816Y-94447315D01*
X207195697Y-94254800D01*
X208744303Y-94254800D01*
X208456184Y-94447315D01*
G36*
X208456184Y-91907315D02*
X208222373Y-92257238D01*
X208140269Y-92670000D01*
X208222373Y-93082762D01*
X208456184Y-93432685D01*
X208774235Y-93645200D01*
X207165765Y-93645200D01*
X207483816Y-93432685D01*
X207717627Y-93082762D01*
X207799731Y-92670000D01*
X207717627Y-92257238D01*
X207483816Y-91907315D01*
X207294772Y-91781000D01*
X208645228Y-91781000D01*
X208456184Y-91907315D01*
X208456184Y-91907315D01*
G37*
X208456184Y-91907315D02*
X208222373Y-92257238D01*
X208140269Y-92670000D01*
X208222373Y-93082762D01*
X208456184Y-93432685D01*
X208774235Y-93645200D01*
X207165765Y-93645200D01*
X207483816Y-93432685D01*
X207717627Y-93082762D01*
X207799731Y-92670000D01*
X207717627Y-92257238D01*
X207483816Y-91907315D01*
X207294772Y-91781000D01*
X208645228Y-91781000D01*
X208456184Y-91907315D01*
M02*
