G04 #@! TF.FileFunction,Paste,Bot*
%FSLAX46Y46*%
G04 Gerber Fmt 4.6, Leading zero omitted, Abs format (unit mm)*
G04 Created by KiCad (PCBNEW 4.0.0-rc1-stable) date 05/10/2017 19:39:07*
%MOMM*%
G01*
G04 APERTURE LIST*
%ADD10C,0.100000*%
%ADD11R,1.550800X0.650800*%
%ADD12R,0.950800X0.850800*%
%ADD13R,1.240800X0.790800*%
%ADD14R,6.750800X6.750800*%
%ADD15R,3.050800X1.650800*%
%ADD16R,1.050800X1.300800*%
%ADD17R,1.300800X1.050800*%
%ADD18R,0.750800X1.350800*%
%ADD19R,1.350800X0.750800*%
G04 APERTURE END LIST*
D10*
D11*
X186100000Y-107010000D03*
X186100000Y-105740000D03*
X186100000Y-104470000D03*
X186100000Y-103200000D03*
X186100000Y-101930000D03*
X186100000Y-100660000D03*
X186100000Y-99390000D03*
X191500000Y-99390000D03*
X191500000Y-100660000D03*
X191500000Y-101930000D03*
X191500000Y-103200000D03*
X191500000Y-104470000D03*
X191500000Y-105740000D03*
X191500000Y-107010000D03*
D12*
X214200000Y-96950000D03*
X214200000Y-98850000D03*
X212200000Y-97900000D03*
X214200000Y-91950000D03*
X214200000Y-93850000D03*
X212200000Y-92900000D03*
X214200000Y-86750000D03*
X214200000Y-88650000D03*
X212200000Y-87700000D03*
D13*
X192350000Y-87450000D03*
X192350000Y-89350000D03*
X195050000Y-88400000D03*
X195050000Y-87450000D03*
X195050000Y-89350000D03*
D14*
X191325000Y-79875000D03*
D15*
X197975000Y-82175000D03*
X197975000Y-77575000D03*
D16*
X182600000Y-108070000D03*
X180600000Y-108070000D03*
X182483000Y-104648000D03*
X180483000Y-104648000D03*
X204360000Y-77760000D03*
X206360000Y-77760000D03*
D17*
X198040000Y-89020000D03*
X198040000Y-91020000D03*
D16*
X204400000Y-82140000D03*
X206400000Y-82140000D03*
D17*
X189153800Y-87468200D03*
X189153800Y-89468200D03*
D18*
X182433000Y-102362000D03*
X180533000Y-102362000D03*
D19*
X168150000Y-103920000D03*
X168150000Y-105820000D03*
X173200000Y-105870000D03*
X173200000Y-103970000D03*
X175750000Y-105870000D03*
X175750000Y-103970000D03*
D18*
X194640000Y-91560000D03*
X192740000Y-91560000D03*
X219340000Y-99180000D03*
X217440000Y-99180000D03*
X219340000Y-94130000D03*
X217440000Y-94130000D03*
X219440000Y-88980000D03*
X217540000Y-88980000D03*
X217440000Y-96930000D03*
X219340000Y-96930000D03*
X217440000Y-91880000D03*
X219340000Y-91880000D03*
X217540000Y-86680000D03*
X219440000Y-86680000D03*
M02*
