G04 #@! TF.FileFunction,Legend,Top*
%FSLAX46Y46*%
G04 Gerber Fmt 4.6, Leading zero omitted, Abs format (unit mm)*
G04 Created by KiCad (PCBNEW 4.0.0-rc1-stable) date 05/10/2017 19:39:07*
%MOMM*%
G01*
G04 APERTURE LIST*
%ADD10C,0.100000*%
%ADD11C,0.127000*%
%ADD12C,0.300000*%
%ADD13C,0.177800*%
%ADD14C,0.120000*%
%ADD15C,0.010000*%
%ADD16C,0.150000*%
G04 APERTURE END LIST*
D10*
D11*
X183097381Y-90924524D02*
X183097381Y-89654524D01*
X183581190Y-89654524D01*
X183702143Y-89715000D01*
X183762619Y-89775476D01*
X183823095Y-89896429D01*
X183823095Y-90077857D01*
X183762619Y-90198810D01*
X183702143Y-90259286D01*
X183581190Y-90319762D01*
X183097381Y-90319762D01*
X185093095Y-90924524D02*
X184669762Y-90319762D01*
X184367381Y-90924524D02*
X184367381Y-89654524D01*
X184851190Y-89654524D01*
X184972143Y-89715000D01*
X185032619Y-89775476D01*
X185093095Y-89896429D01*
X185093095Y-90077857D01*
X185032619Y-90198810D01*
X184972143Y-90259286D01*
X184851190Y-90319762D01*
X184367381Y-90319762D01*
X186302619Y-89715000D02*
X186181667Y-89654524D01*
X186000238Y-89654524D01*
X185818810Y-89715000D01*
X185697857Y-89835952D01*
X185637381Y-89956905D01*
X185576905Y-90198810D01*
X185576905Y-90380238D01*
X185637381Y-90622143D01*
X185697857Y-90743095D01*
X185818810Y-90864048D01*
X186000238Y-90924524D01*
X186121190Y-90924524D01*
X186302619Y-90864048D01*
X186363095Y-90803571D01*
X186363095Y-90380238D01*
X186121190Y-90380238D01*
X158515858Y-99697814D02*
X158515858Y-98935814D01*
X158842429Y-99661529D02*
X158951286Y-99697814D01*
X159132715Y-99697814D01*
X159205286Y-99661529D01*
X159241572Y-99625243D01*
X159277857Y-99552671D01*
X159277857Y-99480100D01*
X159241572Y-99407529D01*
X159205286Y-99371243D01*
X159132715Y-99334957D01*
X158987572Y-99298671D01*
X158915000Y-99262386D01*
X158878715Y-99226100D01*
X158842429Y-99153529D01*
X158842429Y-99080957D01*
X158878715Y-99008386D01*
X158915000Y-98972100D01*
X158987572Y-98935814D01*
X159169000Y-98935814D01*
X159277857Y-98972100D01*
X159604429Y-99697814D02*
X159604429Y-98935814D01*
X159894714Y-98935814D01*
X159967286Y-98972100D01*
X160003571Y-99008386D01*
X160039857Y-99080957D01*
X160039857Y-99189814D01*
X160003571Y-99262386D01*
X159967286Y-99298671D01*
X159894714Y-99334957D01*
X159604429Y-99334957D01*
X158534001Y-100891614D02*
X158534001Y-100129614D01*
X158824286Y-100129614D01*
X158896858Y-100165900D01*
X158933143Y-100202186D01*
X158969429Y-100274757D01*
X158969429Y-100383614D01*
X158933143Y-100456186D01*
X158896858Y-100492471D01*
X158824286Y-100528757D01*
X158534001Y-100528757D01*
X159223429Y-100129614D02*
X159404858Y-100891614D01*
X159550001Y-100347329D01*
X159695143Y-100891614D01*
X159876572Y-100129614D01*
X160602286Y-100891614D02*
X160348286Y-100528757D01*
X160166858Y-100891614D02*
X160166858Y-100129614D01*
X160457143Y-100129614D01*
X160529715Y-100165900D01*
X160566000Y-100202186D01*
X160602286Y-100274757D01*
X160602286Y-100383614D01*
X160566000Y-100456186D01*
X160529715Y-100492471D01*
X160457143Y-100528757D01*
X160166858Y-100528757D01*
D12*
X212298572Y-77137143D02*
X213441429Y-77137143D01*
X212870000Y-77708571D02*
X212870000Y-76565714D01*
D13*
X212477048Y-83009619D02*
X211896477Y-83009619D01*
X212186763Y-83009619D02*
X212186763Y-81993619D01*
X212090001Y-82138762D01*
X211993239Y-82235524D01*
X211896477Y-82283905D01*
X212864096Y-82090381D02*
X212912477Y-82042000D01*
X213009239Y-81993619D01*
X213251143Y-81993619D01*
X213347905Y-82042000D01*
X213396286Y-82090381D01*
X213444667Y-82187143D01*
X213444667Y-82283905D01*
X213396286Y-82429048D01*
X212815715Y-83009619D01*
X213444667Y-83009619D01*
X213734953Y-81993619D02*
X214073620Y-83009619D01*
X214412286Y-81993619D01*
X214750953Y-83009619D02*
X214750953Y-81993619D01*
X214992858Y-81993619D01*
X215138000Y-82042000D01*
X215234762Y-82138762D01*
X215283143Y-82235524D01*
X215331524Y-82429048D01*
X215331524Y-82574190D01*
X215283143Y-82767714D01*
X215234762Y-82864476D01*
X215138000Y-82961238D01*
X214992858Y-83009619D01*
X214750953Y-83009619D01*
X216347524Y-82912857D02*
X216299143Y-82961238D01*
X216154000Y-83009619D01*
X216057238Y-83009619D01*
X215912096Y-82961238D01*
X215815334Y-82864476D01*
X215766953Y-82767714D01*
X215718572Y-82574190D01*
X215718572Y-82429048D01*
X215766953Y-82235524D01*
X215815334Y-82138762D01*
X215912096Y-82042000D01*
X216057238Y-81993619D01*
X216154000Y-81993619D01*
X216299143Y-82042000D01*
X216347524Y-82090381D01*
D11*
X161482714Y-105795142D02*
X161482714Y-106157999D01*
X161845571Y-106194285D01*
X161809286Y-106157999D01*
X161773000Y-106085428D01*
X161773000Y-105903999D01*
X161809286Y-105831428D01*
X161845571Y-105795142D01*
X161918143Y-105758857D01*
X162099571Y-105758857D01*
X162172143Y-105795142D01*
X162208429Y-105831428D01*
X162244714Y-105903999D01*
X162244714Y-106085428D01*
X162208429Y-106157999D01*
X162172143Y-106194285D01*
X161482714Y-105541143D02*
X162244714Y-105287143D01*
X161482714Y-105033143D01*
X162974524Y-115376190D02*
X162369762Y-115799523D01*
X162974524Y-116101904D02*
X161704524Y-116101904D01*
X161704524Y-115618095D01*
X161765000Y-115497142D01*
X161825476Y-115436666D01*
X161946429Y-115376190D01*
X162127857Y-115376190D01*
X162248810Y-115436666D01*
X162309286Y-115497142D01*
X162369762Y-115618095D01*
X162369762Y-116101904D01*
X161704524Y-114831904D02*
X162732619Y-114831904D01*
X162853571Y-114771428D01*
X162914048Y-114710952D01*
X162974524Y-114589999D01*
X162974524Y-114348095D01*
X162914048Y-114227142D01*
X162853571Y-114166666D01*
X162732619Y-114106190D01*
X161704524Y-114106190D01*
X162974524Y-113501428D02*
X161704524Y-113501428D01*
X162974524Y-112775714D01*
X161704524Y-112775714D01*
X162974524Y-111203333D02*
X161704524Y-111203333D01*
X161704524Y-110719524D01*
X161765000Y-110598571D01*
X161825476Y-110538095D01*
X161946429Y-110477619D01*
X162127857Y-110477619D01*
X162248810Y-110538095D01*
X162309286Y-110598571D01*
X162369762Y-110719524D01*
X162369762Y-111203333D01*
X162974524Y-109207619D02*
X162369762Y-109630952D01*
X162974524Y-109933333D02*
X161704524Y-109933333D01*
X161704524Y-109449524D01*
X161765000Y-109328571D01*
X161825476Y-109268095D01*
X161946429Y-109207619D01*
X162127857Y-109207619D01*
X162248810Y-109268095D01*
X162309286Y-109328571D01*
X162369762Y-109449524D01*
X162369762Y-109933333D01*
X161765000Y-107998095D02*
X161704524Y-108119047D01*
X161704524Y-108300476D01*
X161765000Y-108481904D01*
X161885952Y-108602857D01*
X162006905Y-108663333D01*
X162248810Y-108723809D01*
X162430238Y-108723809D01*
X162672143Y-108663333D01*
X162793095Y-108602857D01*
X162914048Y-108481904D01*
X162974524Y-108300476D01*
X162974524Y-108179524D01*
X162914048Y-107998095D01*
X162853571Y-107937619D01*
X162430238Y-107937619D01*
X162430238Y-108179524D01*
D12*
X182842858Y-122128571D02*
X182342858Y-121414286D01*
X181985715Y-122128571D02*
X181985715Y-120628571D01*
X182557143Y-120628571D01*
X182700001Y-120700000D01*
X182771429Y-120771429D01*
X182842858Y-120914286D01*
X182842858Y-121128571D01*
X182771429Y-121271429D01*
X182700001Y-121342857D01*
X182557143Y-121414286D01*
X181985715Y-121414286D01*
X184057143Y-122057143D02*
X183914286Y-122128571D01*
X183628572Y-122128571D01*
X183485715Y-122057143D01*
X183414286Y-121914286D01*
X183414286Y-121342857D01*
X183485715Y-121200000D01*
X183628572Y-121128571D01*
X183914286Y-121128571D01*
X184057143Y-121200000D01*
X184128572Y-121342857D01*
X184128572Y-121485714D01*
X183414286Y-121628571D01*
X184700000Y-122057143D02*
X184842857Y-122128571D01*
X185128572Y-122128571D01*
X185271429Y-122057143D01*
X185342857Y-121914286D01*
X185342857Y-121842857D01*
X185271429Y-121700000D01*
X185128572Y-121628571D01*
X184914286Y-121628571D01*
X184771429Y-121557143D01*
X184700000Y-121414286D01*
X184700000Y-121342857D01*
X184771429Y-121200000D01*
X184914286Y-121128571D01*
X185128572Y-121128571D01*
X185271429Y-121200000D01*
X186557143Y-122057143D02*
X186414286Y-122128571D01*
X186128572Y-122128571D01*
X185985715Y-122057143D01*
X185914286Y-121914286D01*
X185914286Y-121342857D01*
X185985715Y-121200000D01*
X186128572Y-121128571D01*
X186414286Y-121128571D01*
X186557143Y-121200000D01*
X186628572Y-121342857D01*
X186628572Y-121485714D01*
X185914286Y-121628571D01*
X187057143Y-121128571D02*
X187628572Y-121128571D01*
X187271429Y-120628571D02*
X187271429Y-121914286D01*
X187342857Y-122057143D01*
X187485715Y-122128571D01*
X187628572Y-122128571D01*
D11*
X206302428Y-120143814D02*
X206447571Y-120143814D01*
X206520143Y-120180100D01*
X206592714Y-120252671D01*
X206629000Y-120397814D01*
X206629000Y-120651814D01*
X206592714Y-120796957D01*
X206520143Y-120869529D01*
X206447571Y-120905814D01*
X206302428Y-120905814D01*
X206229857Y-120869529D01*
X206157286Y-120796957D01*
X206121000Y-120651814D01*
X206121000Y-120397814D01*
X206157286Y-120252671D01*
X206229857Y-120180100D01*
X206302428Y-120143814D01*
X207354714Y-120180100D02*
X207282143Y-120143814D01*
X207173286Y-120143814D01*
X207064429Y-120180100D01*
X206991857Y-120252671D01*
X206955572Y-120325243D01*
X206919286Y-120470386D01*
X206919286Y-120579243D01*
X206955572Y-120724386D01*
X206991857Y-120796957D01*
X207064429Y-120869529D01*
X207173286Y-120905814D01*
X207245857Y-120905814D01*
X207354714Y-120869529D01*
X207391000Y-120833243D01*
X207391000Y-120579243D01*
X207245857Y-120579243D01*
X206356857Y-122099614D02*
X206102857Y-121736757D01*
X205921429Y-122099614D02*
X205921429Y-121337614D01*
X206211714Y-121337614D01*
X206284286Y-121373900D01*
X206320571Y-121410186D01*
X206356857Y-121482757D01*
X206356857Y-121591614D01*
X206320571Y-121664186D01*
X206284286Y-121700471D01*
X206211714Y-121736757D01*
X205921429Y-121736757D01*
X207046286Y-122099614D02*
X206683429Y-122099614D01*
X206683429Y-121337614D01*
X207445428Y-121736757D02*
X207445428Y-122099614D01*
X207191428Y-121337614D02*
X207445428Y-121736757D01*
X207699428Y-121337614D01*
X201131715Y-120379671D02*
X201385715Y-120379671D01*
X201494572Y-120778814D02*
X201131715Y-120778814D01*
X201131715Y-120016814D01*
X201494572Y-120016814D01*
X202220286Y-120053100D02*
X202147715Y-120016814D01*
X202038858Y-120016814D01*
X201930001Y-120053100D01*
X201857429Y-120125671D01*
X201821144Y-120198243D01*
X201784858Y-120343386D01*
X201784858Y-120452243D01*
X201821144Y-120597386D01*
X201857429Y-120669957D01*
X201930001Y-120742529D01*
X202038858Y-120778814D01*
X202111429Y-120778814D01*
X202220286Y-120742529D01*
X202256572Y-120706243D01*
X202256572Y-120452243D01*
X202111429Y-120452243D01*
X201276857Y-121972614D02*
X201022857Y-121609757D01*
X200841429Y-121972614D02*
X200841429Y-121210614D01*
X201131714Y-121210614D01*
X201204286Y-121246900D01*
X201240571Y-121283186D01*
X201276857Y-121355757D01*
X201276857Y-121464614D01*
X201240571Y-121537186D01*
X201204286Y-121573471D01*
X201131714Y-121609757D01*
X200841429Y-121609757D01*
X201966286Y-121972614D02*
X201603429Y-121972614D01*
X201603429Y-121210614D01*
X202365428Y-121609757D02*
X202365428Y-121972614D01*
X202111428Y-121210614D02*
X202365428Y-121609757D01*
X202619428Y-121210614D01*
X196124286Y-120016814D02*
X196124286Y-120633671D01*
X196160571Y-120706243D01*
X196196857Y-120742529D01*
X196269428Y-120778814D01*
X196414571Y-120778814D01*
X196487143Y-120742529D01*
X196523428Y-120706243D01*
X196559714Y-120633671D01*
X196559714Y-120016814D01*
X197321714Y-120053100D02*
X197249143Y-120016814D01*
X197140286Y-120016814D01*
X197031429Y-120053100D01*
X196958857Y-120125671D01*
X196922572Y-120198243D01*
X196886286Y-120343386D01*
X196886286Y-120452243D01*
X196922572Y-120597386D01*
X196958857Y-120669957D01*
X197031429Y-120742529D01*
X197140286Y-120778814D01*
X197212857Y-120778814D01*
X197321714Y-120742529D01*
X197358000Y-120706243D01*
X197358000Y-120452243D01*
X197212857Y-120452243D01*
X196323857Y-121972614D02*
X196069857Y-121609757D01*
X195888429Y-121972614D02*
X195888429Y-121210614D01*
X196178714Y-121210614D01*
X196251286Y-121246900D01*
X196287571Y-121283186D01*
X196323857Y-121355757D01*
X196323857Y-121464614D01*
X196287571Y-121537186D01*
X196251286Y-121573471D01*
X196178714Y-121609757D01*
X195888429Y-121609757D01*
X197013286Y-121972614D02*
X196650429Y-121972614D01*
X196650429Y-121210614D01*
X197412428Y-121609757D02*
X197412428Y-121972614D01*
X197158428Y-121210614D02*
X197412428Y-121609757D01*
X197666428Y-121210614D01*
X190699572Y-120994714D02*
X191171286Y-120994714D01*
X190917286Y-121285000D01*
X191026144Y-121285000D01*
X191098715Y-121321286D01*
X191135001Y-121357571D01*
X191171286Y-121430143D01*
X191171286Y-121611571D01*
X191135001Y-121684143D01*
X191098715Y-121720429D01*
X191026144Y-121756714D01*
X190808429Y-121756714D01*
X190735858Y-121720429D01*
X190699572Y-121684143D01*
X191389000Y-120994714D02*
X191643000Y-121756714D01*
X191897000Y-120994714D01*
X192078429Y-120994714D02*
X192550143Y-120994714D01*
X192296143Y-121285000D01*
X192405001Y-121285000D01*
X192477572Y-121321286D01*
X192513858Y-121357571D01*
X192550143Y-121430143D01*
X192550143Y-121611571D01*
X192513858Y-121684143D01*
X192477572Y-121720429D01*
X192405001Y-121756714D01*
X192187286Y-121756714D01*
X192114715Y-121720429D01*
X192078429Y-121684143D01*
X163922571Y-76238914D02*
X164358000Y-76238914D01*
X164140286Y-77000914D02*
X164140286Y-76238914D01*
X164612000Y-77000914D02*
X164612000Y-76492914D01*
X164612000Y-76238914D02*
X164575714Y-76275200D01*
X164612000Y-76311486D01*
X164648285Y-76275200D01*
X164612000Y-76238914D01*
X164612000Y-76311486D01*
X164974857Y-77000914D02*
X164974857Y-76492914D01*
X164974857Y-76565486D02*
X165011142Y-76529200D01*
X165083714Y-76492914D01*
X165192571Y-76492914D01*
X165265142Y-76529200D01*
X165301428Y-76601771D01*
X165301428Y-77000914D01*
X165301428Y-76601771D02*
X165337714Y-76529200D01*
X165410285Y-76492914D01*
X165519142Y-76492914D01*
X165591714Y-76529200D01*
X165627999Y-76601771D01*
X165627999Y-77000914D01*
X166281142Y-76964629D02*
X166208571Y-77000914D01*
X166063428Y-77000914D01*
X165990857Y-76964629D01*
X165954571Y-76892057D01*
X165954571Y-76601771D01*
X165990857Y-76529200D01*
X166063428Y-76492914D01*
X166208571Y-76492914D01*
X166281142Y-76529200D01*
X166317428Y-76601771D01*
X166317428Y-76674343D01*
X165954571Y-76746914D01*
X166970571Y-77000914D02*
X166970571Y-76238914D01*
X166970571Y-76964629D02*
X166898000Y-77000914D01*
X166752857Y-77000914D01*
X166680285Y-76964629D01*
X166644000Y-76928343D01*
X166607714Y-76855771D01*
X166607714Y-76638057D01*
X166644000Y-76565486D01*
X166680285Y-76529200D01*
X166752857Y-76492914D01*
X166898000Y-76492914D01*
X166970571Y-76529200D01*
X168276857Y-77000914D02*
X167914000Y-77000914D01*
X167914000Y-76238914D01*
X168530857Y-76601771D02*
X168784857Y-76601771D01*
X168893714Y-77000914D02*
X168530857Y-77000914D01*
X168530857Y-76238914D01*
X168893714Y-76238914D01*
X169220286Y-77000914D02*
X169220286Y-76238914D01*
X169401714Y-76238914D01*
X169510571Y-76275200D01*
X169583143Y-76347771D01*
X169619428Y-76420343D01*
X169655714Y-76565486D01*
X169655714Y-76674343D01*
X169619428Y-76819486D01*
X169583143Y-76892057D01*
X169510571Y-76964629D01*
X169401714Y-77000914D01*
X169220286Y-77000914D01*
X170925714Y-77000914D02*
X170562857Y-77000914D01*
X170562857Y-76238914D01*
X171179714Y-77000914D02*
X171179714Y-76492914D01*
X171179714Y-76238914D02*
X171143428Y-76275200D01*
X171179714Y-76311486D01*
X171215999Y-76275200D01*
X171179714Y-76238914D01*
X171179714Y-76311486D01*
X171869142Y-76492914D02*
X171869142Y-77109771D01*
X171832856Y-77182343D01*
X171796571Y-77218629D01*
X171723999Y-77254914D01*
X171615142Y-77254914D01*
X171542571Y-77218629D01*
X171869142Y-76964629D02*
X171796571Y-77000914D01*
X171651428Y-77000914D01*
X171578856Y-76964629D01*
X171542571Y-76928343D01*
X171506285Y-76855771D01*
X171506285Y-76638057D01*
X171542571Y-76565486D01*
X171578856Y-76529200D01*
X171651428Y-76492914D01*
X171796571Y-76492914D01*
X171869142Y-76529200D01*
X172232000Y-77000914D02*
X172232000Y-76238914D01*
X172558571Y-77000914D02*
X172558571Y-76601771D01*
X172522285Y-76529200D01*
X172449714Y-76492914D01*
X172340857Y-76492914D01*
X172268285Y-76529200D01*
X172232000Y-76565486D01*
X172812571Y-76492914D02*
X173102857Y-76492914D01*
X172921429Y-76238914D02*
X172921429Y-76892057D01*
X172957714Y-76964629D01*
X173030286Y-77000914D01*
X173102857Y-77000914D01*
X173356858Y-77000914D02*
X173356858Y-76492914D01*
X173356858Y-76238914D02*
X173320572Y-76275200D01*
X173356858Y-76311486D01*
X173393143Y-76275200D01*
X173356858Y-76238914D01*
X173356858Y-76311486D01*
X173719715Y-76492914D02*
X173719715Y-77000914D01*
X173719715Y-76565486D02*
X173756000Y-76529200D01*
X173828572Y-76492914D01*
X173937429Y-76492914D01*
X174010000Y-76529200D01*
X174046286Y-76601771D01*
X174046286Y-77000914D01*
X174735715Y-76492914D02*
X174735715Y-77109771D01*
X174699429Y-77182343D01*
X174663144Y-77218629D01*
X174590572Y-77254914D01*
X174481715Y-77254914D01*
X174409144Y-77218629D01*
X174735715Y-76964629D02*
X174663144Y-77000914D01*
X174518001Y-77000914D01*
X174445429Y-76964629D01*
X174409144Y-76928343D01*
X174372858Y-76855771D01*
X174372858Y-76638057D01*
X174409144Y-76565486D01*
X174445429Y-76529200D01*
X174518001Y-76492914D01*
X174663144Y-76492914D01*
X174735715Y-76529200D01*
X164466857Y-78122143D02*
X164430571Y-78158429D01*
X164321714Y-78194714D01*
X164249143Y-78194714D01*
X164140286Y-78158429D01*
X164067714Y-78085857D01*
X164031429Y-78013286D01*
X163995143Y-77868143D01*
X163995143Y-77759286D01*
X164031429Y-77614143D01*
X164067714Y-77541571D01*
X164140286Y-77469000D01*
X164249143Y-77432714D01*
X164321714Y-77432714D01*
X164430571Y-77469000D01*
X164466857Y-77505286D01*
X164902286Y-78194714D02*
X164829714Y-78158429D01*
X164793429Y-78122143D01*
X164757143Y-78049571D01*
X164757143Y-77831857D01*
X164793429Y-77759286D01*
X164829714Y-77723000D01*
X164902286Y-77686714D01*
X165011143Y-77686714D01*
X165083714Y-77723000D01*
X165120000Y-77759286D01*
X165156286Y-77831857D01*
X165156286Y-78049571D01*
X165120000Y-78122143D01*
X165083714Y-78158429D01*
X165011143Y-78194714D01*
X164902286Y-78194714D01*
X165482858Y-77686714D02*
X165482858Y-78194714D01*
X165482858Y-77759286D02*
X165519143Y-77723000D01*
X165591715Y-77686714D01*
X165700572Y-77686714D01*
X165773143Y-77723000D01*
X165809429Y-77795571D01*
X165809429Y-78194714D01*
X166063429Y-77686714D02*
X166353715Y-77686714D01*
X166172287Y-77432714D02*
X166172287Y-78085857D01*
X166208572Y-78158429D01*
X166281144Y-78194714D01*
X166353715Y-78194714D01*
X166607716Y-78194714D02*
X166607716Y-77686714D01*
X166607716Y-77831857D02*
X166644001Y-77759286D01*
X166680287Y-77723000D01*
X166752858Y-77686714D01*
X166825430Y-77686714D01*
X167188287Y-78194714D02*
X167115715Y-78158429D01*
X167079430Y-78122143D01*
X167043144Y-78049571D01*
X167043144Y-77831857D01*
X167079430Y-77759286D01*
X167115715Y-77723000D01*
X167188287Y-77686714D01*
X167297144Y-77686714D01*
X167369715Y-77723000D01*
X167406001Y-77759286D01*
X167442287Y-77831857D01*
X167442287Y-78049571D01*
X167406001Y-78122143D01*
X167369715Y-78158429D01*
X167297144Y-78194714D01*
X167188287Y-78194714D01*
X167877716Y-78194714D02*
X167805144Y-78158429D01*
X167768859Y-78085857D01*
X167768859Y-77432714D01*
X168276859Y-78194714D02*
X168204287Y-78158429D01*
X168168002Y-78085857D01*
X168168002Y-77432714D01*
X168857430Y-78158429D02*
X168784859Y-78194714D01*
X168639716Y-78194714D01*
X168567145Y-78158429D01*
X168530859Y-78085857D01*
X168530859Y-77795571D01*
X168567145Y-77723000D01*
X168639716Y-77686714D01*
X168784859Y-77686714D01*
X168857430Y-77723000D01*
X168893716Y-77795571D01*
X168893716Y-77868143D01*
X168530859Y-77940714D01*
X169220288Y-78194714D02*
X169220288Y-77686714D01*
X169220288Y-77831857D02*
X169256573Y-77759286D01*
X169292859Y-77723000D01*
X169365430Y-77686714D01*
X169438002Y-77686714D01*
X170599144Y-77686714D02*
X170599144Y-78194714D01*
X170417715Y-77396429D02*
X170236287Y-77940714D01*
X170708001Y-77940714D01*
X171361144Y-78194714D02*
X170998287Y-78194714D01*
X170998287Y-77432714D01*
X171433715Y-78267286D02*
X172014286Y-78267286D01*
X172522286Y-77686714D02*
X172522286Y-78194714D01*
X172340857Y-77396429D02*
X172159429Y-77940714D01*
X172631143Y-77940714D01*
X172740000Y-78267286D02*
X173320571Y-78267286D01*
X173937428Y-78122143D02*
X173901142Y-78158429D01*
X173792285Y-78194714D01*
X173719714Y-78194714D01*
X173610857Y-78158429D01*
X173538285Y-78085857D01*
X173502000Y-78013286D01*
X173465714Y-77868143D01*
X173465714Y-77759286D01*
X173502000Y-77614143D01*
X173538285Y-77541571D01*
X173610857Y-77469000D01*
X173719714Y-77432714D01*
X173792285Y-77432714D01*
X173901142Y-77469000D01*
X173937428Y-77505286D01*
X174155142Y-77432714D02*
X174590571Y-77432714D01*
X174372857Y-78194714D02*
X174372857Y-77432714D01*
X175279999Y-78194714D02*
X175025999Y-77831857D01*
X174844571Y-78194714D02*
X174844571Y-77432714D01*
X175134856Y-77432714D01*
X175207428Y-77469000D01*
X175243713Y-77505286D01*
X175279999Y-77577857D01*
X175279999Y-77686714D01*
X175243713Y-77759286D01*
X175207428Y-77795571D01*
X175134856Y-77831857D01*
X174844571Y-77831857D01*
X175969428Y-78194714D02*
X175606571Y-78194714D01*
X175606571Y-77432714D01*
X164466857Y-79315943D02*
X164430571Y-79352229D01*
X164321714Y-79388514D01*
X164249143Y-79388514D01*
X164140286Y-79352229D01*
X164067714Y-79279657D01*
X164031429Y-79207086D01*
X163995143Y-79061943D01*
X163995143Y-78953086D01*
X164031429Y-78807943D01*
X164067714Y-78735371D01*
X164140286Y-78662800D01*
X164249143Y-78626514D01*
X164321714Y-78626514D01*
X164430571Y-78662800D01*
X164466857Y-78699086D01*
X164902286Y-79388514D02*
X164829714Y-79352229D01*
X164793429Y-79315943D01*
X164757143Y-79243371D01*
X164757143Y-79025657D01*
X164793429Y-78953086D01*
X164829714Y-78916800D01*
X164902286Y-78880514D01*
X165011143Y-78880514D01*
X165083714Y-78916800D01*
X165120000Y-78953086D01*
X165156286Y-79025657D01*
X165156286Y-79243371D01*
X165120000Y-79315943D01*
X165083714Y-79352229D01*
X165011143Y-79388514D01*
X164902286Y-79388514D01*
X165482858Y-78880514D02*
X165482858Y-79388514D01*
X165482858Y-78953086D02*
X165519143Y-78916800D01*
X165591715Y-78880514D01*
X165700572Y-78880514D01*
X165773143Y-78916800D01*
X165809429Y-78989371D01*
X165809429Y-79388514D01*
X166063429Y-78880514D02*
X166353715Y-78880514D01*
X166172287Y-78626514D02*
X166172287Y-79279657D01*
X166208572Y-79352229D01*
X166281144Y-79388514D01*
X166353715Y-79388514D01*
X166607716Y-79388514D02*
X166607716Y-78880514D01*
X166607716Y-79025657D02*
X166644001Y-78953086D01*
X166680287Y-78916800D01*
X166752858Y-78880514D01*
X166825430Y-78880514D01*
X167188287Y-79388514D02*
X167115715Y-79352229D01*
X167079430Y-79315943D01*
X167043144Y-79243371D01*
X167043144Y-79025657D01*
X167079430Y-78953086D01*
X167115715Y-78916800D01*
X167188287Y-78880514D01*
X167297144Y-78880514D01*
X167369715Y-78916800D01*
X167406001Y-78953086D01*
X167442287Y-79025657D01*
X167442287Y-79243371D01*
X167406001Y-79315943D01*
X167369715Y-79352229D01*
X167297144Y-79388514D01*
X167188287Y-79388514D01*
X167877716Y-79388514D02*
X167805144Y-79352229D01*
X167768859Y-79279657D01*
X167768859Y-78626514D01*
X169002573Y-78989371D02*
X169111430Y-79025657D01*
X169147715Y-79061943D01*
X169184001Y-79134514D01*
X169184001Y-79243371D01*
X169147715Y-79315943D01*
X169111430Y-79352229D01*
X169038858Y-79388514D01*
X168748573Y-79388514D01*
X168748573Y-78626514D01*
X169002573Y-78626514D01*
X169075144Y-78662800D01*
X169111430Y-78699086D01*
X169147715Y-78771657D01*
X169147715Y-78844229D01*
X169111430Y-78916800D01*
X169075144Y-78953086D01*
X169002573Y-78989371D01*
X168748573Y-78989371D01*
X169619430Y-79388514D02*
X169546858Y-79352229D01*
X169510573Y-79315943D01*
X169474287Y-79243371D01*
X169474287Y-79025657D01*
X169510573Y-78953086D01*
X169546858Y-78916800D01*
X169619430Y-78880514D01*
X169728287Y-78880514D01*
X169800858Y-78916800D01*
X169837144Y-78953086D01*
X169873430Y-79025657D01*
X169873430Y-79243371D01*
X169837144Y-79315943D01*
X169800858Y-79352229D01*
X169728287Y-79388514D01*
X169619430Y-79388514D01*
X170526573Y-79388514D02*
X170526573Y-78989371D01*
X170490287Y-78916800D01*
X170417716Y-78880514D01*
X170272573Y-78880514D01*
X170200002Y-78916800D01*
X170526573Y-79352229D02*
X170454002Y-79388514D01*
X170272573Y-79388514D01*
X170200002Y-79352229D01*
X170163716Y-79279657D01*
X170163716Y-79207086D01*
X170200002Y-79134514D01*
X170272573Y-79098229D01*
X170454002Y-79098229D01*
X170526573Y-79061943D01*
X170889431Y-79388514D02*
X170889431Y-78880514D01*
X170889431Y-79025657D02*
X170925716Y-78953086D01*
X170962002Y-78916800D01*
X171034573Y-78880514D01*
X171107145Y-78880514D01*
X171687716Y-79388514D02*
X171687716Y-78626514D01*
X171687716Y-79352229D02*
X171615145Y-79388514D01*
X171470002Y-79388514D01*
X171397430Y-79352229D01*
X171361145Y-79315943D01*
X171324859Y-79243371D01*
X171324859Y-79025657D01*
X171361145Y-78953086D01*
X171397430Y-78916800D01*
X171470002Y-78880514D01*
X171615145Y-78880514D01*
X171687716Y-78916800D01*
D14*
X160780000Y-104330000D02*
X160780000Y-101730000D01*
X160780000Y-101730000D02*
X158120000Y-101730000D01*
X158120000Y-101730000D02*
X158120000Y-104330000D01*
X158120000Y-104330000D02*
X160780000Y-104330000D01*
X160780000Y-105600000D02*
X160780000Y-106930000D01*
X160780000Y-106930000D02*
X159450000Y-106930000D01*
X158120000Y-110920000D02*
X158120000Y-116060000D01*
X158120000Y-116060000D02*
X160780000Y-116060000D01*
X160780000Y-116060000D02*
X160780000Y-110920000D01*
X160780000Y-110920000D02*
X158120000Y-110920000D01*
X158120000Y-109650000D02*
X158120000Y-108320000D01*
X158120000Y-108320000D02*
X159450000Y-108320000D01*
D10*
G36*
X162554378Y-77356418D02*
X162552238Y-77950076D01*
X162552000Y-78134945D01*
X162550032Y-78775217D01*
X162543365Y-79265453D01*
X162530856Y-79624914D01*
X162511361Y-79872861D01*
X162483735Y-80028554D01*
X162446835Y-80111252D01*
X162433831Y-80124670D01*
X162266596Y-80196142D01*
X162128667Y-80226474D01*
X162128667Y-79772748D01*
X162128667Y-78179371D01*
X162124611Y-77658909D01*
X162113250Y-77209332D01*
X162095795Y-76855665D01*
X162073453Y-76622937D01*
X162049275Y-76536926D01*
X161937827Y-76506092D01*
X161695552Y-76459619D01*
X161359493Y-76404095D01*
X161012108Y-76352485D01*
X160383640Y-76290536D01*
X159656051Y-76262245D01*
X158886137Y-76266497D01*
X158130692Y-76302179D01*
X157446514Y-76368176D01*
X157048667Y-76430237D01*
X156498333Y-76534859D01*
X156475366Y-78156143D01*
X156452399Y-79777426D01*
X157025699Y-79868198D01*
X157361613Y-79920928D01*
X157666424Y-79968002D01*
X157853000Y-79996091D01*
X158093169Y-80013739D01*
X158464525Y-80020161D01*
X158929383Y-80016617D01*
X159450057Y-80004364D01*
X159988862Y-79984660D01*
X160508112Y-79958761D01*
X160970122Y-79927926D01*
X161337206Y-79893412D01*
X161472500Y-79875306D01*
X162128667Y-79772748D01*
X162128667Y-80226474D01*
X161957275Y-80264166D01*
X161533113Y-80326037D01*
X161021356Y-80379051D01*
X160449249Y-80420504D01*
X159844039Y-80447692D01*
X159232969Y-80457910D01*
X159080667Y-80457483D01*
X158595669Y-80452260D01*
X158156889Y-80444201D01*
X157798154Y-80434183D01*
X157553292Y-80423080D01*
X157472000Y-80415816D01*
X156965428Y-80332236D01*
X156557639Y-80249708D01*
X156272462Y-80173632D01*
X156138500Y-80113674D01*
X156101465Y-80035849D01*
X156073306Y-79860790D01*
X156053198Y-79573075D01*
X156040317Y-79157284D01*
X156033837Y-78597996D01*
X156032667Y-78134945D01*
X156033618Y-77518599D01*
X156037577Y-77050164D01*
X156046200Y-76708224D01*
X156061144Y-76471362D01*
X156084066Y-76318160D01*
X156116622Y-76227203D01*
X156160468Y-76177073D01*
X156185312Y-76161597D01*
X156451200Y-76068179D01*
X156856761Y-75988175D01*
X157372773Y-75922830D01*
X157970015Y-75873389D01*
X158619264Y-75841099D01*
X159291298Y-75827204D01*
X159956896Y-75832950D01*
X160586834Y-75859582D01*
X161151891Y-75908346D01*
X161390193Y-75939783D01*
X161755658Y-75991423D01*
X162035762Y-76036352D01*
X162241766Y-76095847D01*
X162384929Y-76191182D01*
X162476512Y-76343632D01*
X162527775Y-76574471D01*
X162549977Y-76904975D01*
X162554378Y-77356418D01*
X162554378Y-77356418D01*
X162554378Y-77356418D01*
G37*
X162554378Y-77356418D02*
X162552238Y-77950076D01*
X162552000Y-78134945D01*
X162550032Y-78775217D01*
X162543365Y-79265453D01*
X162530856Y-79624914D01*
X162511361Y-79872861D01*
X162483735Y-80028554D01*
X162446835Y-80111252D01*
X162433831Y-80124670D01*
X162266596Y-80196142D01*
X162128667Y-80226474D01*
X162128667Y-79772748D01*
X162128667Y-78179371D01*
X162124611Y-77658909D01*
X162113250Y-77209332D01*
X162095795Y-76855665D01*
X162073453Y-76622937D01*
X162049275Y-76536926D01*
X161937827Y-76506092D01*
X161695552Y-76459619D01*
X161359493Y-76404095D01*
X161012108Y-76352485D01*
X160383640Y-76290536D01*
X159656051Y-76262245D01*
X158886137Y-76266497D01*
X158130692Y-76302179D01*
X157446514Y-76368176D01*
X157048667Y-76430237D01*
X156498333Y-76534859D01*
X156475366Y-78156143D01*
X156452399Y-79777426D01*
X157025699Y-79868198D01*
X157361613Y-79920928D01*
X157666424Y-79968002D01*
X157853000Y-79996091D01*
X158093169Y-80013739D01*
X158464525Y-80020161D01*
X158929383Y-80016617D01*
X159450057Y-80004364D01*
X159988862Y-79984660D01*
X160508112Y-79958761D01*
X160970122Y-79927926D01*
X161337206Y-79893412D01*
X161472500Y-79875306D01*
X162128667Y-79772748D01*
X162128667Y-80226474D01*
X161957275Y-80264166D01*
X161533113Y-80326037D01*
X161021356Y-80379051D01*
X160449249Y-80420504D01*
X159844039Y-80447692D01*
X159232969Y-80457910D01*
X159080667Y-80457483D01*
X158595669Y-80452260D01*
X158156889Y-80444201D01*
X157798154Y-80434183D01*
X157553292Y-80423080D01*
X157472000Y-80415816D01*
X156965428Y-80332236D01*
X156557639Y-80249708D01*
X156272462Y-80173632D01*
X156138500Y-80113674D01*
X156101465Y-80035849D01*
X156073306Y-79860790D01*
X156053198Y-79573075D01*
X156040317Y-79157284D01*
X156033837Y-78597996D01*
X156032667Y-78134945D01*
X156033618Y-77518599D01*
X156037577Y-77050164D01*
X156046200Y-76708224D01*
X156061144Y-76471362D01*
X156084066Y-76318160D01*
X156116622Y-76227203D01*
X156160468Y-76177073D01*
X156185312Y-76161597D01*
X156451200Y-76068179D01*
X156856761Y-75988175D01*
X157372773Y-75922830D01*
X157970015Y-75873389D01*
X158619264Y-75841099D01*
X159291298Y-75827204D01*
X159956896Y-75832950D01*
X160586834Y-75859582D01*
X161151891Y-75908346D01*
X161390193Y-75939783D01*
X161755658Y-75991423D01*
X162035762Y-76036352D01*
X162241766Y-76095847D01*
X162384929Y-76191182D01*
X162476512Y-76343632D01*
X162527775Y-76574471D01*
X162549977Y-76904975D01*
X162554378Y-77356418D01*
X162554378Y-77356418D01*
G36*
X159592670Y-78501396D02*
X159545189Y-78884950D01*
X159380447Y-79234481D01*
X159106161Y-79503811D01*
X158964903Y-79577168D01*
X158776567Y-79627105D01*
X158505715Y-79658878D01*
X158116911Y-79677742D01*
X157895333Y-79683393D01*
X157498939Y-79687691D01*
X157160647Y-79683729D01*
X156918870Y-79672450D01*
X156815833Y-79656953D01*
X156726971Y-79539885D01*
X156718884Y-79361760D01*
X156786694Y-79207596D01*
X156843925Y-79167391D01*
X156982727Y-79145378D01*
X157246799Y-79128077D01*
X157592093Y-79117813D01*
X157817591Y-79116000D01*
X158299135Y-79100429D01*
X158635671Y-79046481D01*
X158849272Y-78943299D01*
X158962013Y-78780028D01*
X158995967Y-78545811D01*
X158996000Y-78536455D01*
X158929502Y-78272492D01*
X158724858Y-78085644D01*
X158374342Y-77970320D01*
X158172924Y-77940904D01*
X157897361Y-77905063D01*
X157750693Y-77859056D01*
X157692873Y-77781255D01*
X157683667Y-77676666D01*
X157694631Y-77562268D01*
X157752964Y-77495955D01*
X157896824Y-77461166D01*
X158164369Y-77441341D01*
X158234000Y-77437817D01*
X158650280Y-77441844D01*
X158949980Y-77506245D01*
X159044279Y-77548786D01*
X159340942Y-77793094D01*
X159524163Y-78124037D01*
X159592670Y-78501396D01*
X159592670Y-78501396D01*
X159592670Y-78501396D01*
G37*
X159592670Y-78501396D02*
X159545189Y-78884950D01*
X159380447Y-79234481D01*
X159106161Y-79503811D01*
X158964903Y-79577168D01*
X158776567Y-79627105D01*
X158505715Y-79658878D01*
X158116911Y-79677742D01*
X157895333Y-79683393D01*
X157498939Y-79687691D01*
X157160647Y-79683729D01*
X156918870Y-79672450D01*
X156815833Y-79656953D01*
X156726971Y-79539885D01*
X156718884Y-79361760D01*
X156786694Y-79207596D01*
X156843925Y-79167391D01*
X156982727Y-79145378D01*
X157246799Y-79128077D01*
X157592093Y-79117813D01*
X157817591Y-79116000D01*
X158299135Y-79100429D01*
X158635671Y-79046481D01*
X158849272Y-78943299D01*
X158962013Y-78780028D01*
X158995967Y-78545811D01*
X158996000Y-78536455D01*
X158929502Y-78272492D01*
X158724858Y-78085644D01*
X158374342Y-77970320D01*
X158172924Y-77940904D01*
X157897361Y-77905063D01*
X157750693Y-77859056D01*
X157692873Y-77781255D01*
X157683667Y-77676666D01*
X157694631Y-77562268D01*
X157752964Y-77495955D01*
X157896824Y-77461166D01*
X158164369Y-77441341D01*
X158234000Y-77437817D01*
X158650280Y-77441844D01*
X158949980Y-77506245D01*
X159044279Y-77548786D01*
X159340942Y-77793094D01*
X159524163Y-78124037D01*
X159592670Y-78501396D01*
X159592670Y-78501396D01*
G36*
X161789068Y-78592399D02*
X161769138Y-79115157D01*
X161708339Y-79478069D01*
X161607294Y-79679846D01*
X161466624Y-79719203D01*
X161298933Y-79607066D01*
X161245682Y-79461488D01*
X161211686Y-79154882D01*
X161197676Y-78694537D01*
X161197333Y-78595050D01*
X161188764Y-78197735D01*
X161165630Y-77845407D01*
X161131790Y-77583877D01*
X161103241Y-77478124D01*
X160959675Y-77308654D01*
X160725328Y-77161565D01*
X160679908Y-77142284D01*
X160458838Y-77031786D01*
X160364007Y-76905972D01*
X160350667Y-76800685D01*
X160414639Y-76624243D01*
X160582569Y-76540667D01*
X160818475Y-76547481D01*
X161086374Y-76642205D01*
X161350284Y-76822361D01*
X161404278Y-76873255D01*
X161555560Y-77049985D01*
X161662216Y-77249797D01*
X161731517Y-77505186D01*
X161770737Y-77848649D01*
X161787149Y-78312682D01*
X161789068Y-78592399D01*
X161789068Y-78592399D01*
X161789068Y-78592399D01*
G37*
X161789068Y-78592399D02*
X161769138Y-79115157D01*
X161708339Y-79478069D01*
X161607294Y-79679846D01*
X161466624Y-79719203D01*
X161298933Y-79607066D01*
X161245682Y-79461488D01*
X161211686Y-79154882D01*
X161197676Y-78694537D01*
X161197333Y-78595050D01*
X161188764Y-78197735D01*
X161165630Y-77845407D01*
X161131790Y-77583877D01*
X161103241Y-77478124D01*
X160959675Y-77308654D01*
X160725328Y-77161565D01*
X160679908Y-77142284D01*
X160458838Y-77031786D01*
X160364007Y-76905972D01*
X160350667Y-76800685D01*
X160414639Y-76624243D01*
X160582569Y-76540667D01*
X160818475Y-76547481D01*
X161086374Y-76642205D01*
X161350284Y-76822361D01*
X161404278Y-76873255D01*
X161555560Y-77049985D01*
X161662216Y-77249797D01*
X161731517Y-77505186D01*
X161770737Y-77848649D01*
X161787149Y-78312682D01*
X161789068Y-78592399D01*
X161789068Y-78592399D01*
G36*
X160445199Y-78226520D02*
X160421174Y-78523519D01*
X160369217Y-78733327D01*
X160308333Y-78807951D01*
X160116305Y-78838023D01*
X159995857Y-78741621D01*
X159937111Y-78504874D01*
X159927333Y-78272909D01*
X159892254Y-77777412D01*
X159784985Y-77427937D01*
X159602479Y-77215931D01*
X159538135Y-77180336D01*
X159360694Y-77137401D01*
X159065586Y-77104319D01*
X158704408Y-77086058D01*
X158537767Y-77084000D01*
X158146142Y-77089548D01*
X157881346Y-77111080D01*
X157701098Y-77155927D01*
X157563114Y-77231422D01*
X157525751Y-77259478D01*
X157346754Y-77488739D01*
X157309202Y-77751950D01*
X157416386Y-77998950D01*
X157473312Y-78058854D01*
X157696206Y-78173454D01*
X158045642Y-78244508D01*
X158129479Y-78252644D01*
X158493848Y-78309077D01*
X158694648Y-78406606D01*
X158732808Y-78546155D01*
X158609257Y-78728647D01*
X158608952Y-78728952D01*
X158411853Y-78826949D01*
X158089223Y-78844715D01*
X157629121Y-78782860D01*
X157612751Y-78779719D01*
X157233002Y-78633080D01*
X156954556Y-78381501D01*
X156781496Y-78058686D01*
X156717901Y-77698335D01*
X156767854Y-77334151D01*
X156935435Y-76999837D01*
X157224726Y-76729094D01*
X157355528Y-76655569D01*
X157538860Y-76576187D01*
X157722289Y-76525824D01*
X157947337Y-76499875D01*
X158255528Y-76493734D01*
X158688384Y-76502796D01*
X158723491Y-76503852D01*
X159216486Y-76526266D01*
X159574435Y-76566823D01*
X159831523Y-76637716D01*
X160021932Y-76751137D01*
X160179845Y-76919277D01*
X160277625Y-77058171D01*
X160357505Y-77258154D01*
X160412582Y-77549259D01*
X160442074Y-77886907D01*
X160445199Y-78226520D01*
X160445199Y-78226520D01*
X160445199Y-78226520D01*
G37*
X160445199Y-78226520D02*
X160421174Y-78523519D01*
X160369217Y-78733327D01*
X160308333Y-78807951D01*
X160116305Y-78838023D01*
X159995857Y-78741621D01*
X159937111Y-78504874D01*
X159927333Y-78272909D01*
X159892254Y-77777412D01*
X159784985Y-77427937D01*
X159602479Y-77215931D01*
X159538135Y-77180336D01*
X159360694Y-77137401D01*
X159065586Y-77104319D01*
X158704408Y-77086058D01*
X158537767Y-77084000D01*
X158146142Y-77089548D01*
X157881346Y-77111080D01*
X157701098Y-77155927D01*
X157563114Y-77231422D01*
X157525751Y-77259478D01*
X157346754Y-77488739D01*
X157309202Y-77751950D01*
X157416386Y-77998950D01*
X157473312Y-78058854D01*
X157696206Y-78173454D01*
X158045642Y-78244508D01*
X158129479Y-78252644D01*
X158493848Y-78309077D01*
X158694648Y-78406606D01*
X158732808Y-78546155D01*
X158609257Y-78728647D01*
X158608952Y-78728952D01*
X158411853Y-78826949D01*
X158089223Y-78844715D01*
X157629121Y-78782860D01*
X157612751Y-78779719D01*
X157233002Y-78633080D01*
X156954556Y-78381501D01*
X156781496Y-78058686D01*
X156717901Y-77698335D01*
X156767854Y-77334151D01*
X156935435Y-76999837D01*
X157224726Y-76729094D01*
X157355528Y-76655569D01*
X157538860Y-76576187D01*
X157722289Y-76525824D01*
X157947337Y-76499875D01*
X158255528Y-76493734D01*
X158688384Y-76502796D01*
X158723491Y-76503852D01*
X159216486Y-76526266D01*
X159574435Y-76566823D01*
X159831523Y-76637716D01*
X160021932Y-76751137D01*
X160179845Y-76919277D01*
X160277625Y-77058171D01*
X160357505Y-77258154D01*
X160412582Y-77549259D01*
X160442074Y-77886907D01*
X160445199Y-78226520D01*
X160445199Y-78226520D01*
D15*
G36*
X215551391Y-121672937D02*
X215807102Y-121673434D01*
X216033137Y-121674298D01*
X216228686Y-121675524D01*
X216392937Y-121677107D01*
X216525079Y-121679043D01*
X216624302Y-121681325D01*
X216689793Y-121683950D01*
X216719314Y-121686617D01*
X216791788Y-121705817D01*
X216870649Y-121735189D01*
X216908910Y-121753057D01*
X216933480Y-121770316D01*
X216982714Y-121808967D01*
X217054613Y-121867301D01*
X217147180Y-121943608D01*
X217258415Y-122036178D01*
X217386320Y-122143304D01*
X217528899Y-122263274D01*
X217684152Y-122394380D01*
X217850081Y-122534913D01*
X218024688Y-122683163D01*
X218205974Y-122837420D01*
X218391943Y-122995975D01*
X218580595Y-123157119D01*
X218769932Y-123319143D01*
X218957956Y-123480336D01*
X219142670Y-123638990D01*
X219322074Y-123793396D01*
X219494170Y-123941843D01*
X219656961Y-124082623D01*
X219808448Y-124214026D01*
X219946633Y-124334342D01*
X220069518Y-124441863D01*
X220175104Y-124534879D01*
X220261394Y-124611681D01*
X220326389Y-124670558D01*
X220368091Y-124709802D01*
X220381779Y-124723994D01*
X220397870Y-124742168D01*
X220412409Y-124758405D01*
X220425473Y-124774491D01*
X220437141Y-124792212D01*
X220447493Y-124813355D01*
X220456605Y-124839704D01*
X220464557Y-124873048D01*
X220471428Y-124915170D01*
X220477296Y-124967857D01*
X220482239Y-125032896D01*
X220486336Y-125112072D01*
X220489667Y-125207171D01*
X220492308Y-125319979D01*
X220494340Y-125452283D01*
X220495840Y-125605867D01*
X220496887Y-125782519D01*
X220497559Y-125984024D01*
X220497936Y-126212168D01*
X220498096Y-126468738D01*
X220498117Y-126755518D01*
X220498077Y-127074295D01*
X220498056Y-127366945D01*
X220498019Y-127710331D01*
X220497896Y-128020202D01*
X220497667Y-128298318D01*
X220497315Y-128546440D01*
X220496818Y-128766332D01*
X220496160Y-128959754D01*
X220495320Y-129128467D01*
X220494279Y-129274234D01*
X220493019Y-129398816D01*
X220491520Y-129503974D01*
X220489763Y-129591470D01*
X220487730Y-129663066D01*
X220485401Y-129720523D01*
X220482757Y-129765603D01*
X220479779Y-129800068D01*
X220476448Y-129825678D01*
X220472745Y-129844196D01*
X220471210Y-129849828D01*
X220427188Y-129944902D01*
X220355305Y-130038163D01*
X220262531Y-130122193D01*
X220155833Y-130189573D01*
X220148680Y-130193151D01*
X220031372Y-130250903D01*
X216353290Y-130254218D01*
X215916803Y-130254577D01*
X215514294Y-130254833D01*
X215144467Y-130254979D01*
X214806024Y-130255007D01*
X214497665Y-130254911D01*
X214218094Y-130254684D01*
X213966011Y-130254319D01*
X213740120Y-130253808D01*
X213539121Y-130253146D01*
X213361717Y-130252324D01*
X213206609Y-130251337D01*
X213072499Y-130250178D01*
X212958090Y-130248838D01*
X212862083Y-130247312D01*
X212783180Y-130245593D01*
X212720083Y-130243673D01*
X212671494Y-130241545D01*
X212636114Y-130239204D01*
X212612646Y-130236641D01*
X212600879Y-130234218D01*
X212483838Y-130183827D01*
X212376040Y-130111742D01*
X212284298Y-130024249D01*
X212215426Y-129927633D01*
X212181070Y-129846959D01*
X212178039Y-129833465D01*
X212175253Y-129813774D01*
X212172704Y-129786511D01*
X212170384Y-129750303D01*
X212168286Y-129703775D01*
X212166401Y-129645553D01*
X212164722Y-129574264D01*
X212163242Y-129488532D01*
X212161952Y-129386985D01*
X212160845Y-129268247D01*
X212159913Y-129130944D01*
X212159149Y-128973703D01*
X212158544Y-128795150D01*
X212158092Y-128593910D01*
X212157784Y-128368608D01*
X212157613Y-128117872D01*
X212157570Y-127840326D01*
X212157650Y-127534598D01*
X212157842Y-127199311D01*
X212158141Y-126833093D01*
X212158538Y-126434570D01*
X212159025Y-126002366D01*
X212159112Y-125928726D01*
X212163544Y-122216389D01*
X212789861Y-122216389D01*
X212789861Y-129712917D01*
X219863056Y-129712917D01*
X219863056Y-124975610D01*
X219743993Y-124878239D01*
X219711842Y-124851299D01*
X219655355Y-124803235D01*
X219576847Y-124736037D01*
X219478629Y-124651699D01*
X219363014Y-124552213D01*
X219232317Y-124439570D01*
X219088848Y-124315763D01*
X218934921Y-124182785D01*
X218772850Y-124042627D01*
X218604946Y-123897281D01*
X218566597Y-123864064D01*
X218387845Y-123709224D01*
X218207135Y-123552703D01*
X218027691Y-123397291D01*
X217852734Y-123245779D01*
X217685486Y-123100956D01*
X217529169Y-122965611D01*
X217387005Y-122842536D01*
X217262217Y-122734519D01*
X217158025Y-122644350D01*
X217085752Y-122581825D01*
X216663240Y-122216389D01*
X212789861Y-122216389D01*
X212163544Y-122216389D01*
X212163681Y-122101736D01*
X212213263Y-122000767D01*
X212288633Y-121887026D01*
X212393603Y-121791665D01*
X212507639Y-121724712D01*
X212604653Y-121678403D01*
X214614318Y-121673698D01*
X214954189Y-121673064D01*
X215266817Y-121672812D01*
X215551391Y-121672937D01*
X215551391Y-121672937D01*
G37*
X215551391Y-121672937D02*
X215807102Y-121673434D01*
X216033137Y-121674298D01*
X216228686Y-121675524D01*
X216392937Y-121677107D01*
X216525079Y-121679043D01*
X216624302Y-121681325D01*
X216689793Y-121683950D01*
X216719314Y-121686617D01*
X216791788Y-121705817D01*
X216870649Y-121735189D01*
X216908910Y-121753057D01*
X216933480Y-121770316D01*
X216982714Y-121808967D01*
X217054613Y-121867301D01*
X217147180Y-121943608D01*
X217258415Y-122036178D01*
X217386320Y-122143304D01*
X217528899Y-122263274D01*
X217684152Y-122394380D01*
X217850081Y-122534913D01*
X218024688Y-122683163D01*
X218205974Y-122837420D01*
X218391943Y-122995975D01*
X218580595Y-123157119D01*
X218769932Y-123319143D01*
X218957956Y-123480336D01*
X219142670Y-123638990D01*
X219322074Y-123793396D01*
X219494170Y-123941843D01*
X219656961Y-124082623D01*
X219808448Y-124214026D01*
X219946633Y-124334342D01*
X220069518Y-124441863D01*
X220175104Y-124534879D01*
X220261394Y-124611681D01*
X220326389Y-124670558D01*
X220368091Y-124709802D01*
X220381779Y-124723994D01*
X220397870Y-124742168D01*
X220412409Y-124758405D01*
X220425473Y-124774491D01*
X220437141Y-124792212D01*
X220447493Y-124813355D01*
X220456605Y-124839704D01*
X220464557Y-124873048D01*
X220471428Y-124915170D01*
X220477296Y-124967857D01*
X220482239Y-125032896D01*
X220486336Y-125112072D01*
X220489667Y-125207171D01*
X220492308Y-125319979D01*
X220494340Y-125452283D01*
X220495840Y-125605867D01*
X220496887Y-125782519D01*
X220497559Y-125984024D01*
X220497936Y-126212168D01*
X220498096Y-126468738D01*
X220498117Y-126755518D01*
X220498077Y-127074295D01*
X220498056Y-127366945D01*
X220498019Y-127710331D01*
X220497896Y-128020202D01*
X220497667Y-128298318D01*
X220497315Y-128546440D01*
X220496818Y-128766332D01*
X220496160Y-128959754D01*
X220495320Y-129128467D01*
X220494279Y-129274234D01*
X220493019Y-129398816D01*
X220491520Y-129503974D01*
X220489763Y-129591470D01*
X220487730Y-129663066D01*
X220485401Y-129720523D01*
X220482757Y-129765603D01*
X220479779Y-129800068D01*
X220476448Y-129825678D01*
X220472745Y-129844196D01*
X220471210Y-129849828D01*
X220427188Y-129944902D01*
X220355305Y-130038163D01*
X220262531Y-130122193D01*
X220155833Y-130189573D01*
X220148680Y-130193151D01*
X220031372Y-130250903D01*
X216353290Y-130254218D01*
X215916803Y-130254577D01*
X215514294Y-130254833D01*
X215144467Y-130254979D01*
X214806024Y-130255007D01*
X214497665Y-130254911D01*
X214218094Y-130254684D01*
X213966011Y-130254319D01*
X213740120Y-130253808D01*
X213539121Y-130253146D01*
X213361717Y-130252324D01*
X213206609Y-130251337D01*
X213072499Y-130250178D01*
X212958090Y-130248838D01*
X212862083Y-130247312D01*
X212783180Y-130245593D01*
X212720083Y-130243673D01*
X212671494Y-130241545D01*
X212636114Y-130239204D01*
X212612646Y-130236641D01*
X212600879Y-130234218D01*
X212483838Y-130183827D01*
X212376040Y-130111742D01*
X212284298Y-130024249D01*
X212215426Y-129927633D01*
X212181070Y-129846959D01*
X212178039Y-129833465D01*
X212175253Y-129813774D01*
X212172704Y-129786511D01*
X212170384Y-129750303D01*
X212168286Y-129703775D01*
X212166401Y-129645553D01*
X212164722Y-129574264D01*
X212163242Y-129488532D01*
X212161952Y-129386985D01*
X212160845Y-129268247D01*
X212159913Y-129130944D01*
X212159149Y-128973703D01*
X212158544Y-128795150D01*
X212158092Y-128593910D01*
X212157784Y-128368608D01*
X212157613Y-128117872D01*
X212157570Y-127840326D01*
X212157650Y-127534598D01*
X212157842Y-127199311D01*
X212158141Y-126833093D01*
X212158538Y-126434570D01*
X212159025Y-126002366D01*
X212159112Y-125928726D01*
X212163544Y-122216389D01*
X212789861Y-122216389D01*
X212789861Y-129712917D01*
X219863056Y-129712917D01*
X219863056Y-124975610D01*
X219743993Y-124878239D01*
X219711842Y-124851299D01*
X219655355Y-124803235D01*
X219576847Y-124736037D01*
X219478629Y-124651699D01*
X219363014Y-124552213D01*
X219232317Y-124439570D01*
X219088848Y-124315763D01*
X218934921Y-124182785D01*
X218772850Y-124042627D01*
X218604946Y-123897281D01*
X218566597Y-123864064D01*
X218387845Y-123709224D01*
X218207135Y-123552703D01*
X218027691Y-123397291D01*
X217852734Y-123245779D01*
X217685486Y-123100956D01*
X217529169Y-122965611D01*
X217387005Y-122842536D01*
X217262217Y-122734519D01*
X217158025Y-122644350D01*
X217085752Y-122581825D01*
X216663240Y-122216389D01*
X212789861Y-122216389D01*
X212163544Y-122216389D01*
X212163681Y-122101736D01*
X212213263Y-122000767D01*
X212288633Y-121887026D01*
X212393603Y-121791665D01*
X212507639Y-121724712D01*
X212604653Y-121678403D01*
X214614318Y-121673698D01*
X214954189Y-121673064D01*
X215266817Y-121672812D01*
X215551391Y-121672937D01*
G36*
X218866852Y-121672139D02*
X219059999Y-121672818D01*
X219231594Y-121673579D01*
X219448675Y-121674650D01*
X219633321Y-121675730D01*
X219788373Y-121676920D01*
X219916673Y-121678317D01*
X220021063Y-121680021D01*
X220104385Y-121682131D01*
X220169482Y-121684746D01*
X220219195Y-121687965D01*
X220256366Y-121691888D01*
X220283836Y-121696612D01*
X220304449Y-121702237D01*
X220321046Y-121708863D01*
X220327072Y-121711753D01*
X220382492Y-121748717D01*
X220433621Y-121797406D01*
X220441725Y-121807378D01*
X220489236Y-121869653D01*
X220494130Y-122730346D01*
X220495292Y-122937132D01*
X220495999Y-123111651D01*
X220495896Y-123256916D01*
X220494631Y-123375938D01*
X220491852Y-123471728D01*
X220487205Y-123547299D01*
X220480337Y-123605661D01*
X220470896Y-123649826D01*
X220458529Y-123682806D01*
X220442883Y-123707613D01*
X220423604Y-123727257D01*
X220400341Y-123744751D01*
X220373153Y-123762832D01*
X220299205Y-123797397D01*
X220211189Y-123817227D01*
X220121042Y-123821475D01*
X220040702Y-123809292D01*
X219995347Y-123789690D01*
X219968572Y-123769593D01*
X219918402Y-123728898D01*
X219847484Y-123669898D01*
X219758463Y-123594885D01*
X219653986Y-123506153D01*
X219536698Y-123405994D01*
X219409246Y-123296701D01*
X219274275Y-123180566D01*
X219134431Y-123059883D01*
X218992362Y-122936943D01*
X218850711Y-122814039D01*
X218712127Y-122693465D01*
X218579253Y-122577513D01*
X218454738Y-122468475D01*
X218341226Y-122368645D01*
X218241363Y-122280315D01*
X218157796Y-122205777D01*
X218093171Y-122147325D01*
X218050133Y-122107251D01*
X218031460Y-122088032D01*
X218006625Y-122046388D01*
X217996118Y-122002553D01*
X217996530Y-121941161D01*
X217997072Y-121933013D01*
X218017559Y-121832037D01*
X218063614Y-121754985D01*
X218135878Y-121700817D01*
X218142045Y-121697802D01*
X218157724Y-121691649D01*
X218178573Y-121686458D01*
X218207386Y-121682168D01*
X218246958Y-121678716D01*
X218300084Y-121676041D01*
X218369559Y-121674081D01*
X218458179Y-121672772D01*
X218568738Y-121672054D01*
X218704030Y-121671864D01*
X218866852Y-121672139D01*
X218866852Y-121672139D01*
G37*
X218866852Y-121672139D02*
X219059999Y-121672818D01*
X219231594Y-121673579D01*
X219448675Y-121674650D01*
X219633321Y-121675730D01*
X219788373Y-121676920D01*
X219916673Y-121678317D01*
X220021063Y-121680021D01*
X220104385Y-121682131D01*
X220169482Y-121684746D01*
X220219195Y-121687965D01*
X220256366Y-121691888D01*
X220283836Y-121696612D01*
X220304449Y-121702237D01*
X220321046Y-121708863D01*
X220327072Y-121711753D01*
X220382492Y-121748717D01*
X220433621Y-121797406D01*
X220441725Y-121807378D01*
X220489236Y-121869653D01*
X220494130Y-122730346D01*
X220495292Y-122937132D01*
X220495999Y-123111651D01*
X220495896Y-123256916D01*
X220494631Y-123375938D01*
X220491852Y-123471728D01*
X220487205Y-123547299D01*
X220480337Y-123605661D01*
X220470896Y-123649826D01*
X220458529Y-123682806D01*
X220442883Y-123707613D01*
X220423604Y-123727257D01*
X220400341Y-123744751D01*
X220373153Y-123762832D01*
X220299205Y-123797397D01*
X220211189Y-123817227D01*
X220121042Y-123821475D01*
X220040702Y-123809292D01*
X219995347Y-123789690D01*
X219968572Y-123769593D01*
X219918402Y-123728898D01*
X219847484Y-123669898D01*
X219758463Y-123594885D01*
X219653986Y-123506153D01*
X219536698Y-123405994D01*
X219409246Y-123296701D01*
X219274275Y-123180566D01*
X219134431Y-123059883D01*
X218992362Y-122936943D01*
X218850711Y-122814039D01*
X218712127Y-122693465D01*
X218579253Y-122577513D01*
X218454738Y-122468475D01*
X218341226Y-122368645D01*
X218241363Y-122280315D01*
X218157796Y-122205777D01*
X218093171Y-122147325D01*
X218050133Y-122107251D01*
X218031460Y-122088032D01*
X218006625Y-122046388D01*
X217996118Y-122002553D01*
X217996530Y-121941161D01*
X217997072Y-121933013D01*
X218017559Y-121832037D01*
X218063614Y-121754985D01*
X218135878Y-121700817D01*
X218142045Y-121697802D01*
X218157724Y-121691649D01*
X218178573Y-121686458D01*
X218207386Y-121682168D01*
X218246958Y-121678716D01*
X218300084Y-121676041D01*
X218369559Y-121674081D01*
X218458179Y-121672772D01*
X218568738Y-121672054D01*
X218704030Y-121671864D01*
X218866852Y-121672139D01*
G36*
X219455969Y-127741771D02*
X219454218Y-127800113D01*
X219450853Y-127838187D01*
X219446541Y-127849133D01*
X219445679Y-127847604D01*
X219436789Y-127842953D01*
X219412723Y-127838957D01*
X219371344Y-127835575D01*
X219310513Y-127832765D01*
X219228093Y-127830486D01*
X219121946Y-127828695D01*
X218989934Y-127827350D01*
X218829919Y-127826410D01*
X218639764Y-127825833D01*
X218417331Y-127825577D01*
X218318183Y-127825556D01*
X217199583Y-127825556D01*
X217199583Y-129025000D01*
X216987917Y-129025000D01*
X216987917Y-127613889D01*
X219457361Y-127613889D01*
X219455969Y-127741771D01*
X219455969Y-127741771D01*
G37*
X219455969Y-127741771D02*
X219454218Y-127800113D01*
X219450853Y-127838187D01*
X219446541Y-127849133D01*
X219445679Y-127847604D01*
X219436789Y-127842953D01*
X219412723Y-127838957D01*
X219371344Y-127835575D01*
X219310513Y-127832765D01*
X219228093Y-127830486D01*
X219121946Y-127828695D01*
X218989934Y-127827350D01*
X218829919Y-127826410D01*
X218639764Y-127825833D01*
X218417331Y-127825577D01*
X218318183Y-127825556D01*
X217199583Y-127825556D01*
X217199583Y-129025000D01*
X216987917Y-129025000D01*
X216987917Y-127613889D01*
X219457361Y-127613889D01*
X219455969Y-127741771D01*
G36*
X219422083Y-128989722D02*
X218751806Y-128989722D01*
X218751806Y-128619306D01*
X219422083Y-128619306D01*
X219422083Y-128989722D01*
X219422083Y-128989722D01*
G37*
X219422083Y-128989722D02*
X218751806Y-128989722D01*
X218751806Y-128619306D01*
X219422083Y-128619306D01*
X219422083Y-128989722D01*
G36*
X215612083Y-123839167D02*
X215964861Y-123839167D01*
X215964861Y-125479583D01*
X215594445Y-125479583D01*
X215594445Y-125867639D01*
X217287778Y-125867639D01*
X217287778Y-125500241D01*
X218112396Y-125493704D01*
X218280134Y-125492597D01*
X218437380Y-125491988D01*
X218580554Y-125491859D01*
X218706072Y-125492195D01*
X218810355Y-125492978D01*
X218889820Y-125494191D01*
X218940887Y-125495819D01*
X218959710Y-125497668D01*
X218980117Y-125512680D01*
X219020794Y-125546817D01*
X219077059Y-125595826D01*
X219144232Y-125655454D01*
X219217630Y-125721447D01*
X219292574Y-125789551D01*
X219364380Y-125855513D01*
X219428368Y-125915078D01*
X219479858Y-125963993D01*
X219514166Y-125998004D01*
X219526609Y-126012784D01*
X219514300Y-126027676D01*
X219479143Y-126062050D01*
X219424995Y-126112340D01*
X219355718Y-126174983D01*
X219275170Y-126246413D01*
X219244884Y-126272958D01*
X218961851Y-126520278D01*
X218471609Y-126520278D01*
X218319259Y-126519805D01*
X218156485Y-126518477D01*
X217993173Y-126516433D01*
X217839206Y-126513808D01*
X217704469Y-126510740D01*
X217634573Y-126508663D01*
X217287778Y-126497049D01*
X217287778Y-126220417D01*
X215589531Y-126220417D01*
X215602400Y-126313021D01*
X215609007Y-126359099D01*
X215613124Y-126397570D01*
X215612435Y-126431618D01*
X215604626Y-126464422D01*
X215587381Y-126499164D01*
X215558386Y-126539026D01*
X215515324Y-126587189D01*
X215455881Y-126646834D01*
X215377741Y-126721143D01*
X215278589Y-126813297D01*
X215156109Y-126926479D01*
X215155640Y-126926913D01*
X214954960Y-127112482D01*
X215266439Y-127400663D01*
X215354691Y-127483007D01*
X215434767Y-127559042D01*
X215502820Y-127625006D01*
X215554998Y-127677137D01*
X215587451Y-127711671D01*
X215596115Y-127722843D01*
X215602051Y-127752107D01*
X215606794Y-127813593D01*
X215610236Y-127904261D01*
X215612267Y-128021072D01*
X215612779Y-128160985D01*
X215612703Y-128188075D01*
X215611094Y-128619306D01*
X215982500Y-128619306D01*
X215982500Y-128954445D01*
X214959445Y-128954445D01*
X214959445Y-128619306D01*
X215294583Y-128619306D01*
X215293673Y-128253299D01*
X215292762Y-127887292D01*
X215112874Y-127725089D01*
X214932986Y-127562885D01*
X214927980Y-127747137D01*
X214922973Y-127931389D01*
X214571389Y-127931389D01*
X214571389Y-127243472D01*
X213283750Y-127243472D01*
X213283750Y-126890695D01*
X214571389Y-126890695D01*
X214571389Y-126220417D01*
X214923113Y-126220417D01*
X214928049Y-126441327D01*
X214932986Y-126662238D01*
X215095274Y-126516293D01*
X215257562Y-126370347D01*
X215257993Y-126149861D01*
X217640556Y-126149861D01*
X218235868Y-126149335D01*
X218831181Y-126148808D01*
X218989931Y-126008344D01*
X218901736Y-125929535D01*
X218813542Y-125850726D01*
X217640556Y-125850000D01*
X217640556Y-126149861D01*
X215257993Y-126149861D01*
X215259306Y-125479583D01*
X214941806Y-125479583D01*
X214941806Y-124191945D01*
X215276945Y-124191945D01*
X215276945Y-125126806D01*
X215612083Y-125126806D01*
X215612083Y-124191945D01*
X215276945Y-124191945D01*
X214941806Y-124191945D01*
X214941806Y-123839167D01*
X215276945Y-123839167D01*
X215276945Y-122586806D01*
X215612083Y-122586806D01*
X215612083Y-123839167D01*
X215612083Y-123839167D01*
G37*
X215612083Y-123839167D02*
X215964861Y-123839167D01*
X215964861Y-125479583D01*
X215594445Y-125479583D01*
X215594445Y-125867639D01*
X217287778Y-125867639D01*
X217287778Y-125500241D01*
X218112396Y-125493704D01*
X218280134Y-125492597D01*
X218437380Y-125491988D01*
X218580554Y-125491859D01*
X218706072Y-125492195D01*
X218810355Y-125492978D01*
X218889820Y-125494191D01*
X218940887Y-125495819D01*
X218959710Y-125497668D01*
X218980117Y-125512680D01*
X219020794Y-125546817D01*
X219077059Y-125595826D01*
X219144232Y-125655454D01*
X219217630Y-125721447D01*
X219292574Y-125789551D01*
X219364380Y-125855513D01*
X219428368Y-125915078D01*
X219479858Y-125963993D01*
X219514166Y-125998004D01*
X219526609Y-126012784D01*
X219514300Y-126027676D01*
X219479143Y-126062050D01*
X219424995Y-126112340D01*
X219355718Y-126174983D01*
X219275170Y-126246413D01*
X219244884Y-126272958D01*
X218961851Y-126520278D01*
X218471609Y-126520278D01*
X218319259Y-126519805D01*
X218156485Y-126518477D01*
X217993173Y-126516433D01*
X217839206Y-126513808D01*
X217704469Y-126510740D01*
X217634573Y-126508663D01*
X217287778Y-126497049D01*
X217287778Y-126220417D01*
X215589531Y-126220417D01*
X215602400Y-126313021D01*
X215609007Y-126359099D01*
X215613124Y-126397570D01*
X215612435Y-126431618D01*
X215604626Y-126464422D01*
X215587381Y-126499164D01*
X215558386Y-126539026D01*
X215515324Y-126587189D01*
X215455881Y-126646834D01*
X215377741Y-126721143D01*
X215278589Y-126813297D01*
X215156109Y-126926479D01*
X215155640Y-126926913D01*
X214954960Y-127112482D01*
X215266439Y-127400663D01*
X215354691Y-127483007D01*
X215434767Y-127559042D01*
X215502820Y-127625006D01*
X215554998Y-127677137D01*
X215587451Y-127711671D01*
X215596115Y-127722843D01*
X215602051Y-127752107D01*
X215606794Y-127813593D01*
X215610236Y-127904261D01*
X215612267Y-128021072D01*
X215612779Y-128160985D01*
X215612703Y-128188075D01*
X215611094Y-128619306D01*
X215982500Y-128619306D01*
X215982500Y-128954445D01*
X214959445Y-128954445D01*
X214959445Y-128619306D01*
X215294583Y-128619306D01*
X215293673Y-128253299D01*
X215292762Y-127887292D01*
X215112874Y-127725089D01*
X214932986Y-127562885D01*
X214927980Y-127747137D01*
X214922973Y-127931389D01*
X214571389Y-127931389D01*
X214571389Y-127243472D01*
X213283750Y-127243472D01*
X213283750Y-126890695D01*
X214571389Y-126890695D01*
X214571389Y-126220417D01*
X214923113Y-126220417D01*
X214928049Y-126441327D01*
X214932986Y-126662238D01*
X215095274Y-126516293D01*
X215257562Y-126370347D01*
X215257993Y-126149861D01*
X217640556Y-126149861D01*
X218235868Y-126149335D01*
X218831181Y-126148808D01*
X218989931Y-126008344D01*
X218901736Y-125929535D01*
X218813542Y-125850726D01*
X217640556Y-125850000D01*
X217640556Y-126149861D01*
X215257993Y-126149861D01*
X215259306Y-125479583D01*
X214941806Y-125479583D01*
X214941806Y-124191945D01*
X215276945Y-124191945D01*
X215276945Y-125126806D01*
X215612083Y-125126806D01*
X215612083Y-124191945D01*
X215276945Y-124191945D01*
X214941806Y-124191945D01*
X214941806Y-123839167D01*
X215276945Y-123839167D01*
X215276945Y-122586806D01*
X215612083Y-122586806D01*
X215612083Y-123839167D01*
G36*
X218063889Y-128954445D02*
X217323056Y-128954445D01*
X217323056Y-128636945D01*
X218063889Y-128636945D01*
X218063889Y-128954445D01*
X218063889Y-128954445D01*
G37*
X218063889Y-128954445D02*
X217323056Y-128954445D01*
X217323056Y-128636945D01*
X218063889Y-128636945D01*
X218063889Y-128954445D01*
G36*
X219404445Y-128266528D02*
X218416667Y-128266528D01*
X218416667Y-127984306D01*
X219404445Y-127984306D01*
X219404445Y-128266528D01*
X219404445Y-128266528D01*
G37*
X219404445Y-128266528D02*
X218416667Y-128266528D01*
X218416667Y-127984306D01*
X219404445Y-127984306D01*
X219404445Y-128266528D01*
G36*
X217724340Y-127970669D02*
X218037431Y-127975486D01*
X218037431Y-128240070D01*
X217724340Y-128244886D01*
X217411250Y-128249703D01*
X217411250Y-127965853D01*
X217724340Y-127970669D01*
X217724340Y-127970669D01*
G37*
X217724340Y-127970669D02*
X218037431Y-127975486D01*
X218037431Y-128240070D01*
X217724340Y-128244886D01*
X217411250Y-128249703D01*
X217411250Y-127965853D01*
X217724340Y-127970669D01*
D16*
X180700000Y-113150000D02*
X177700000Y-113150000D01*
X177700000Y-113150000D02*
X177700000Y-116150000D01*
X180700000Y-120150000D02*
X180700000Y-114150000D01*
X180700000Y-114150000D02*
X186700000Y-114150000D01*
X186700000Y-114150000D02*
X186700000Y-120150000D01*
X186700000Y-120150000D02*
X180700000Y-120150000D01*
X185936068Y-117150000D02*
G75*
G03X185936068Y-117150000I-2236068J0D01*
G01*
D14*
X185670000Y-96555000D02*
X185035000Y-96555000D01*
X185670000Y-95920000D02*
X185670000Y-96555000D01*
X197450000Y-116100000D02*
X197450000Y-119300000D01*
X195950000Y-119300000D02*
X195950000Y-116100000D01*
X195950000Y-119300000D02*
X197450000Y-119300000D01*
X202450000Y-116100000D02*
X202450000Y-119300000D01*
X200950000Y-119300000D02*
X200950000Y-116100000D01*
X200950000Y-119300000D02*
X202450000Y-119300000D01*
X207450000Y-116100000D02*
X207450000Y-119300000D01*
X205950000Y-119300000D02*
X205950000Y-116100000D01*
X205950000Y-119300000D02*
X207450000Y-119300000D01*
X192450000Y-116100000D02*
X192450000Y-119300000D01*
X190950000Y-119300000D02*
X190950000Y-116100000D01*
X190950000Y-119300000D02*
X192450000Y-119300000D01*
X195833000Y-111540000D02*
X195833000Y-110340000D01*
X197593000Y-110340000D02*
X197593000Y-111540000D01*
X200781000Y-111540000D02*
X200781000Y-110340000D01*
X202541000Y-110340000D02*
X202541000Y-111540000D01*
X205829000Y-111540000D02*
X205829000Y-110340000D01*
X207589000Y-110340000D02*
X207589000Y-111540000D01*
X190790000Y-111540000D02*
X190790000Y-110340000D01*
X192550000Y-110340000D02*
X192550000Y-111540000D01*
D11*
X181958287Y-113458429D02*
X182067144Y-113494714D01*
X182248573Y-113494714D01*
X182321144Y-113458429D01*
X182357430Y-113422143D01*
X182393715Y-113349571D01*
X182393715Y-113277000D01*
X182357430Y-113204429D01*
X182321144Y-113168143D01*
X182248573Y-113131857D01*
X182103430Y-113095571D01*
X182030858Y-113059286D01*
X181994573Y-113023000D01*
X181958287Y-112950429D01*
X181958287Y-112877857D01*
X181994573Y-112805286D01*
X182030858Y-112769000D01*
X182103430Y-112732714D01*
X182284858Y-112732714D01*
X182393715Y-112769000D01*
X182647715Y-112732714D02*
X182829144Y-113494714D01*
X182974287Y-112950429D01*
X183119429Y-113494714D01*
X183300858Y-112732714D01*
X183990286Y-113494714D02*
X183554858Y-113494714D01*
X183772572Y-113494714D02*
X183772572Y-112732714D01*
X183700001Y-112841571D01*
X183627429Y-112914143D01*
X183554858Y-112950429D01*
X184462000Y-112732714D02*
X184534572Y-112732714D01*
X184607143Y-112769000D01*
X184643429Y-112805286D01*
X184679715Y-112877857D01*
X184716000Y-113023000D01*
X184716000Y-113204429D01*
X184679715Y-113349571D01*
X184643429Y-113422143D01*
X184607143Y-113458429D01*
X184534572Y-113494714D01*
X184462000Y-113494714D01*
X184389429Y-113458429D01*
X184353143Y-113422143D01*
X184316858Y-113349571D01*
X184280572Y-113204429D01*
X184280572Y-113023000D01*
X184316858Y-112877857D01*
X184353143Y-112805286D01*
X184389429Y-112769000D01*
X184462000Y-112732714D01*
X185441714Y-113494714D02*
X185006286Y-113494714D01*
X185224000Y-113494714D02*
X185224000Y-112732714D01*
X185151429Y-112841571D01*
X185078857Y-112914143D01*
X185006286Y-112950429D01*
X187444714Y-95938142D02*
X186682714Y-95938142D01*
X186682714Y-95647857D01*
X186719000Y-95575285D01*
X186755286Y-95539000D01*
X186827857Y-95502714D01*
X186936714Y-95502714D01*
X187009286Y-95539000D01*
X187045571Y-95575285D01*
X187081857Y-95647857D01*
X187081857Y-95938142D01*
X187444714Y-94777000D02*
X187444714Y-95212428D01*
X187444714Y-94994714D02*
X186682714Y-94994714D01*
X186791571Y-95067285D01*
X186864143Y-95139857D01*
X186900429Y-95212428D01*
X186682714Y-94305286D02*
X186682714Y-94232714D01*
X186719000Y-94160143D01*
X186755286Y-94123857D01*
X186827857Y-94087571D01*
X186973000Y-94051286D01*
X187154429Y-94051286D01*
X187299571Y-94087571D01*
X187372143Y-94123857D01*
X187408429Y-94160143D01*
X187444714Y-94232714D01*
X187444714Y-94305286D01*
X187408429Y-94377857D01*
X187372143Y-94414143D01*
X187299571Y-94450428D01*
X187154429Y-94486714D01*
X186973000Y-94486714D01*
X186827857Y-94450428D01*
X186755286Y-94414143D01*
X186719000Y-94377857D01*
X186682714Y-94305286D01*
X186936714Y-93398143D02*
X187444714Y-93398143D01*
X186646429Y-93579572D02*
X187190714Y-93761000D01*
X187190714Y-93289286D01*
X195344714Y-118388142D02*
X194582714Y-118388142D01*
X194582714Y-118206714D01*
X194619000Y-118097857D01*
X194691571Y-118025285D01*
X194764143Y-117989000D01*
X194909286Y-117952714D01*
X195018143Y-117952714D01*
X195163286Y-117989000D01*
X195235857Y-118025285D01*
X195308429Y-118097857D01*
X195344714Y-118206714D01*
X195344714Y-118388142D01*
X195344714Y-117227000D02*
X195344714Y-117662428D01*
X195344714Y-117444714D02*
X194582714Y-117444714D01*
X194691571Y-117517285D01*
X194764143Y-117589857D01*
X194800429Y-117662428D01*
X194582714Y-116755286D02*
X194582714Y-116682714D01*
X194619000Y-116610143D01*
X194655286Y-116573857D01*
X194727857Y-116537571D01*
X194873000Y-116501286D01*
X195054429Y-116501286D01*
X195199571Y-116537571D01*
X195272143Y-116573857D01*
X195308429Y-116610143D01*
X195344714Y-116682714D01*
X195344714Y-116755286D01*
X195308429Y-116827857D01*
X195272143Y-116864143D01*
X195199571Y-116900428D01*
X195054429Y-116936714D01*
X194873000Y-116936714D01*
X194727857Y-116900428D01*
X194655286Y-116864143D01*
X194619000Y-116827857D01*
X194582714Y-116755286D01*
X195344714Y-115775572D02*
X195344714Y-116211000D01*
X195344714Y-115993286D02*
X194582714Y-115993286D01*
X194691571Y-116065857D01*
X194764143Y-116138429D01*
X194800429Y-116211000D01*
X200344714Y-118388142D02*
X199582714Y-118388142D01*
X199582714Y-118206714D01*
X199619000Y-118097857D01*
X199691571Y-118025285D01*
X199764143Y-117989000D01*
X199909286Y-117952714D01*
X200018143Y-117952714D01*
X200163286Y-117989000D01*
X200235857Y-118025285D01*
X200308429Y-118097857D01*
X200344714Y-118206714D01*
X200344714Y-118388142D01*
X200344714Y-117227000D02*
X200344714Y-117662428D01*
X200344714Y-117444714D02*
X199582714Y-117444714D01*
X199691571Y-117517285D01*
X199764143Y-117589857D01*
X199800429Y-117662428D01*
X199582714Y-116755286D02*
X199582714Y-116682714D01*
X199619000Y-116610143D01*
X199655286Y-116573857D01*
X199727857Y-116537571D01*
X199873000Y-116501286D01*
X200054429Y-116501286D01*
X200199571Y-116537571D01*
X200272143Y-116573857D01*
X200308429Y-116610143D01*
X200344714Y-116682714D01*
X200344714Y-116755286D01*
X200308429Y-116827857D01*
X200272143Y-116864143D01*
X200199571Y-116900428D01*
X200054429Y-116936714D01*
X199873000Y-116936714D01*
X199727857Y-116900428D01*
X199655286Y-116864143D01*
X199619000Y-116827857D01*
X199582714Y-116755286D01*
X199655286Y-116211000D02*
X199619000Y-116174714D01*
X199582714Y-116102143D01*
X199582714Y-115920714D01*
X199619000Y-115848143D01*
X199655286Y-115811857D01*
X199727857Y-115775572D01*
X199800429Y-115775572D01*
X199909286Y-115811857D01*
X200344714Y-116247286D01*
X200344714Y-115775572D01*
X205344714Y-118388142D02*
X204582714Y-118388142D01*
X204582714Y-118206714D01*
X204619000Y-118097857D01*
X204691571Y-118025285D01*
X204764143Y-117989000D01*
X204909286Y-117952714D01*
X205018143Y-117952714D01*
X205163286Y-117989000D01*
X205235857Y-118025285D01*
X205308429Y-118097857D01*
X205344714Y-118206714D01*
X205344714Y-118388142D01*
X205344714Y-117227000D02*
X205344714Y-117662428D01*
X205344714Y-117444714D02*
X204582714Y-117444714D01*
X204691571Y-117517285D01*
X204764143Y-117589857D01*
X204800429Y-117662428D01*
X204582714Y-116755286D02*
X204582714Y-116682714D01*
X204619000Y-116610143D01*
X204655286Y-116573857D01*
X204727857Y-116537571D01*
X204873000Y-116501286D01*
X205054429Y-116501286D01*
X205199571Y-116537571D01*
X205272143Y-116573857D01*
X205308429Y-116610143D01*
X205344714Y-116682714D01*
X205344714Y-116755286D01*
X205308429Y-116827857D01*
X205272143Y-116864143D01*
X205199571Y-116900428D01*
X205054429Y-116936714D01*
X204873000Y-116936714D01*
X204727857Y-116900428D01*
X204655286Y-116864143D01*
X204619000Y-116827857D01*
X204582714Y-116755286D01*
X204582714Y-116247286D02*
X204582714Y-115775572D01*
X204873000Y-116029572D01*
X204873000Y-115920714D01*
X204909286Y-115848143D01*
X204945571Y-115811857D01*
X205018143Y-115775572D01*
X205199571Y-115775572D01*
X205272143Y-115811857D01*
X205308429Y-115848143D01*
X205344714Y-115920714D01*
X205344714Y-116138429D01*
X205308429Y-116211000D01*
X205272143Y-116247286D01*
X190344714Y-118388142D02*
X189582714Y-118388142D01*
X189582714Y-118206714D01*
X189619000Y-118097857D01*
X189691571Y-118025285D01*
X189764143Y-117989000D01*
X189909286Y-117952714D01*
X190018143Y-117952714D01*
X190163286Y-117989000D01*
X190235857Y-118025285D01*
X190308429Y-118097857D01*
X190344714Y-118206714D01*
X190344714Y-118388142D01*
X189655286Y-117662428D02*
X189619000Y-117626142D01*
X189582714Y-117553571D01*
X189582714Y-117372142D01*
X189619000Y-117299571D01*
X189655286Y-117263285D01*
X189727857Y-117227000D01*
X189800429Y-117227000D01*
X189909286Y-117263285D01*
X190344714Y-117698714D01*
X190344714Y-117227000D01*
X189582714Y-116755286D02*
X189582714Y-116682714D01*
X189619000Y-116610143D01*
X189655286Y-116573857D01*
X189727857Y-116537571D01*
X189873000Y-116501286D01*
X190054429Y-116501286D01*
X190199571Y-116537571D01*
X190272143Y-116573857D01*
X190308429Y-116610143D01*
X190344714Y-116682714D01*
X190344714Y-116755286D01*
X190308429Y-116827857D01*
X190272143Y-116864143D01*
X190199571Y-116900428D01*
X190054429Y-116936714D01*
X189873000Y-116936714D01*
X189727857Y-116900428D01*
X189655286Y-116864143D01*
X189619000Y-116827857D01*
X189582714Y-116755286D01*
X189655286Y-116211000D02*
X189619000Y-116174714D01*
X189582714Y-116102143D01*
X189582714Y-115920714D01*
X189619000Y-115848143D01*
X189655286Y-115811857D01*
X189727857Y-115775572D01*
X189800429Y-115775572D01*
X189909286Y-115811857D01*
X190344714Y-116247286D01*
X190344714Y-115775572D01*
X198757714Y-111792714D02*
X198394857Y-112046714D01*
X198757714Y-112228142D02*
X197995714Y-112228142D01*
X197995714Y-111937857D01*
X198032000Y-111865285D01*
X198068286Y-111829000D01*
X198140857Y-111792714D01*
X198249714Y-111792714D01*
X198322286Y-111829000D01*
X198358571Y-111865285D01*
X198394857Y-111937857D01*
X198394857Y-112228142D01*
X198757714Y-111067000D02*
X198757714Y-111502428D01*
X198757714Y-111284714D02*
X197995714Y-111284714D01*
X198104571Y-111357285D01*
X198177143Y-111429857D01*
X198213429Y-111502428D01*
X197995714Y-110595286D02*
X197995714Y-110522714D01*
X198032000Y-110450143D01*
X198068286Y-110413857D01*
X198140857Y-110377571D01*
X198286000Y-110341286D01*
X198467429Y-110341286D01*
X198612571Y-110377571D01*
X198685143Y-110413857D01*
X198721429Y-110450143D01*
X198757714Y-110522714D01*
X198757714Y-110595286D01*
X198721429Y-110667857D01*
X198685143Y-110704143D01*
X198612571Y-110740428D01*
X198467429Y-110776714D01*
X198286000Y-110776714D01*
X198140857Y-110740428D01*
X198068286Y-110704143D01*
X198032000Y-110667857D01*
X197995714Y-110595286D01*
X197995714Y-109688143D02*
X197995714Y-109833286D01*
X198032000Y-109905857D01*
X198068286Y-109942143D01*
X198177143Y-110014714D01*
X198322286Y-110051000D01*
X198612571Y-110051000D01*
X198685143Y-110014714D01*
X198721429Y-109978429D01*
X198757714Y-109905857D01*
X198757714Y-109760714D01*
X198721429Y-109688143D01*
X198685143Y-109651857D01*
X198612571Y-109615572D01*
X198431143Y-109615572D01*
X198358571Y-109651857D01*
X198322286Y-109688143D01*
X198286000Y-109760714D01*
X198286000Y-109905857D01*
X198322286Y-109978429D01*
X198358571Y-110014714D01*
X198431143Y-110051000D01*
X203705714Y-111792714D02*
X203342857Y-112046714D01*
X203705714Y-112228142D02*
X202943714Y-112228142D01*
X202943714Y-111937857D01*
X202980000Y-111865285D01*
X203016286Y-111829000D01*
X203088857Y-111792714D01*
X203197714Y-111792714D01*
X203270286Y-111829000D01*
X203306571Y-111865285D01*
X203342857Y-111937857D01*
X203342857Y-112228142D01*
X203705714Y-111067000D02*
X203705714Y-111502428D01*
X203705714Y-111284714D02*
X202943714Y-111284714D01*
X203052571Y-111357285D01*
X203125143Y-111429857D01*
X203161429Y-111502428D01*
X202943714Y-110595286D02*
X202943714Y-110522714D01*
X202980000Y-110450143D01*
X203016286Y-110413857D01*
X203088857Y-110377571D01*
X203234000Y-110341286D01*
X203415429Y-110341286D01*
X203560571Y-110377571D01*
X203633143Y-110413857D01*
X203669429Y-110450143D01*
X203705714Y-110522714D01*
X203705714Y-110595286D01*
X203669429Y-110667857D01*
X203633143Y-110704143D01*
X203560571Y-110740428D01*
X203415429Y-110776714D01*
X203234000Y-110776714D01*
X203088857Y-110740428D01*
X203016286Y-110704143D01*
X202980000Y-110667857D01*
X202943714Y-110595286D01*
X202943714Y-110087286D02*
X202943714Y-109579286D01*
X203705714Y-109905857D01*
X208753714Y-111792714D02*
X208390857Y-112046714D01*
X208753714Y-112228142D02*
X207991714Y-112228142D01*
X207991714Y-111937857D01*
X208028000Y-111865285D01*
X208064286Y-111829000D01*
X208136857Y-111792714D01*
X208245714Y-111792714D01*
X208318286Y-111829000D01*
X208354571Y-111865285D01*
X208390857Y-111937857D01*
X208390857Y-112228142D01*
X208753714Y-111067000D02*
X208753714Y-111502428D01*
X208753714Y-111284714D02*
X207991714Y-111284714D01*
X208100571Y-111357285D01*
X208173143Y-111429857D01*
X208209429Y-111502428D01*
X207991714Y-110595286D02*
X207991714Y-110522714D01*
X208028000Y-110450143D01*
X208064286Y-110413857D01*
X208136857Y-110377571D01*
X208282000Y-110341286D01*
X208463429Y-110341286D01*
X208608571Y-110377571D01*
X208681143Y-110413857D01*
X208717429Y-110450143D01*
X208753714Y-110522714D01*
X208753714Y-110595286D01*
X208717429Y-110667857D01*
X208681143Y-110704143D01*
X208608571Y-110740428D01*
X208463429Y-110776714D01*
X208282000Y-110776714D01*
X208136857Y-110740428D01*
X208064286Y-110704143D01*
X208028000Y-110667857D01*
X207991714Y-110595286D01*
X208318286Y-109905857D02*
X208282000Y-109978429D01*
X208245714Y-110014714D01*
X208173143Y-110051000D01*
X208136857Y-110051000D01*
X208064286Y-110014714D01*
X208028000Y-109978429D01*
X207991714Y-109905857D01*
X207991714Y-109760714D01*
X208028000Y-109688143D01*
X208064286Y-109651857D01*
X208136857Y-109615572D01*
X208173143Y-109615572D01*
X208245714Y-109651857D01*
X208282000Y-109688143D01*
X208318286Y-109760714D01*
X208318286Y-109905857D01*
X208354571Y-109978429D01*
X208390857Y-110014714D01*
X208463429Y-110051000D01*
X208608571Y-110051000D01*
X208681143Y-110014714D01*
X208717429Y-109978429D01*
X208753714Y-109905857D01*
X208753714Y-109760714D01*
X208717429Y-109688143D01*
X208681143Y-109651857D01*
X208608571Y-109615572D01*
X208463429Y-109615572D01*
X208390857Y-109651857D01*
X208354571Y-109688143D01*
X208318286Y-109760714D01*
X193714714Y-111792714D02*
X193351857Y-112046714D01*
X193714714Y-112228142D02*
X192952714Y-112228142D01*
X192952714Y-111937857D01*
X192989000Y-111865285D01*
X193025286Y-111829000D01*
X193097857Y-111792714D01*
X193206714Y-111792714D01*
X193279286Y-111829000D01*
X193315571Y-111865285D01*
X193351857Y-111937857D01*
X193351857Y-112228142D01*
X193025286Y-111502428D02*
X192989000Y-111466142D01*
X192952714Y-111393571D01*
X192952714Y-111212142D01*
X192989000Y-111139571D01*
X193025286Y-111103285D01*
X193097857Y-111067000D01*
X193170429Y-111067000D01*
X193279286Y-111103285D01*
X193714714Y-111538714D01*
X193714714Y-111067000D01*
X192952714Y-110595286D02*
X192952714Y-110522714D01*
X192989000Y-110450143D01*
X193025286Y-110413857D01*
X193097857Y-110377571D01*
X193243000Y-110341286D01*
X193424429Y-110341286D01*
X193569571Y-110377571D01*
X193642143Y-110413857D01*
X193678429Y-110450143D01*
X193714714Y-110522714D01*
X193714714Y-110595286D01*
X193678429Y-110667857D01*
X193642143Y-110704143D01*
X193569571Y-110740428D01*
X193424429Y-110776714D01*
X193243000Y-110776714D01*
X193097857Y-110740428D01*
X193025286Y-110704143D01*
X192989000Y-110667857D01*
X192952714Y-110595286D01*
X193206714Y-109688143D02*
X193714714Y-109688143D01*
X192916429Y-109869572D02*
X193460714Y-110051000D01*
X193460714Y-109579286D01*
M02*
