G04 #@! TF.FileFunction,Legend,Bot*
%FSLAX46Y46*%
G04 Gerber Fmt 4.6, Leading zero omitted, Abs format (unit mm)*
G04 Created by KiCad (PCBNEW 4.0.0-rc1-stable) date 19/06/2017 22:48:09*
%MOMM*%
G01*
G04 APERTURE LIST*
%ADD10C,0.076200*%
%ADD11C,0.127000*%
%ADD12C,0.120000*%
G04 APERTURE END LIST*
D10*
D11*
X170009714Y-67559619D02*
X170590285Y-67559619D01*
X170299999Y-67559619D02*
X170299999Y-66543619D01*
X170396761Y-66688762D01*
X170493523Y-66785524D01*
X170590285Y-66833905D01*
D12*
X169330000Y-68370000D02*
X169330000Y-116690000D01*
X169330000Y-116690000D02*
X164130000Y-116690000D01*
X164130000Y-116690000D02*
X164130000Y-65770000D01*
X164130000Y-65770000D02*
X166730000Y-65770000D01*
X166730000Y-65770000D02*
X166730000Y-68370000D01*
X166730000Y-68370000D02*
X169330000Y-68370000D01*
X169330000Y-67100000D02*
X169330000Y-65770000D01*
X169330000Y-65770000D02*
X168000000Y-65770000D01*
D11*
X168126999Y-65114714D02*
X168126999Y-64352714D01*
X167872999Y-64897000D01*
X167618999Y-64352714D01*
X167618999Y-65114714D01*
X166820714Y-65042143D02*
X166857000Y-65078429D01*
X166965857Y-65114714D01*
X167038428Y-65114714D01*
X167147285Y-65078429D01*
X167219857Y-65005857D01*
X167256142Y-64933286D01*
X167292428Y-64788143D01*
X167292428Y-64679286D01*
X167256142Y-64534143D01*
X167219857Y-64461571D01*
X167147285Y-64389000D01*
X167038428Y-64352714D01*
X166965857Y-64352714D01*
X166857000Y-64389000D01*
X166820714Y-64425286D01*
X166494142Y-64352714D02*
X166494142Y-64969571D01*
X166457857Y-65042143D01*
X166421571Y-65078429D01*
X166349000Y-65114714D01*
X166203857Y-65114714D01*
X166131285Y-65078429D01*
X166095000Y-65042143D01*
X166058714Y-64969571D01*
X166058714Y-64352714D01*
X165296714Y-65114714D02*
X165732142Y-65114714D01*
X165514428Y-65114714D02*
X165514428Y-64352714D01*
X165586999Y-64461571D01*
X165659571Y-64534143D01*
X165732142Y-64570429D01*
M02*
