G04 #@! TF.FileFunction,Soldermask,Bot*
%FSLAX46Y46*%
G04 Gerber Fmt 4.6, Leading zero omitted, Abs format (unit mm)*
G04 Created by KiCad (PCBNEW 4.0.0-rc1-stable) date 19/06/2017 22:48:09*
%MOMM*%
G01*
G04 APERTURE LIST*
%ADD10C,0.076200*%
%ADD11R,1.700000X1.700000*%
%ADD12O,1.700000X1.700000*%
%ADD13C,3.200000*%
G04 APERTURE END LIST*
D10*
D11*
X194300000Y-56000000D03*
D12*
X191760000Y-56000000D03*
X191760000Y-58540000D03*
X189220000Y-56000000D03*
X189220000Y-58540000D03*
X186680000Y-56000000D03*
X186680000Y-58540000D03*
X184140000Y-58540000D03*
X181600000Y-58540000D03*
X179060000Y-56000000D03*
X179060000Y-58540000D03*
X176520000Y-56000000D03*
X176520000Y-58540000D03*
X173980000Y-56000000D03*
X173980000Y-58540000D03*
X171440000Y-56000000D03*
D11*
X168000000Y-67100000D03*
D12*
X165460000Y-67100000D03*
X168000000Y-69640000D03*
X165460000Y-69640000D03*
X168000000Y-72180000D03*
X165460000Y-72180000D03*
X168000000Y-74720000D03*
X165460000Y-74720000D03*
X168000000Y-77260000D03*
X165460000Y-77260000D03*
X168000000Y-79800000D03*
X165460000Y-79800000D03*
X168000000Y-82340000D03*
X165460000Y-82340000D03*
X168000000Y-84880000D03*
X165460000Y-84880000D03*
X168000000Y-87420000D03*
X165460000Y-87420000D03*
X168000000Y-89960000D03*
X165460000Y-89960000D03*
X168000000Y-92500000D03*
X165460000Y-92500000D03*
X168000000Y-95040000D03*
X165460000Y-95040000D03*
X168000000Y-97580000D03*
X165460000Y-97580000D03*
X168000000Y-100120000D03*
X165460000Y-100120000D03*
X168000000Y-102660000D03*
X165460000Y-102660000D03*
X168000000Y-105200000D03*
X165460000Y-105200000D03*
X168000000Y-107740000D03*
X165460000Y-107740000D03*
X168000000Y-110280000D03*
X165460000Y-110280000D03*
X168000000Y-112820000D03*
X165460000Y-112820000D03*
X168000000Y-115360000D03*
X165460000Y-115360000D03*
D11*
X197700000Y-67100000D03*
D12*
X200240000Y-67100000D03*
X197700000Y-69640000D03*
X200240000Y-69640000D03*
X197700000Y-72180000D03*
X200240000Y-72180000D03*
X197700000Y-74720000D03*
X200240000Y-74720000D03*
X197700000Y-77260000D03*
X200240000Y-77260000D03*
X197700000Y-79800000D03*
X200240000Y-79800000D03*
X197700000Y-82340000D03*
X200240000Y-82340000D03*
X197700000Y-84880000D03*
X200240000Y-84880000D03*
X197700000Y-87420000D03*
X200240000Y-87420000D03*
X197700000Y-89960000D03*
X200240000Y-89960000D03*
X197700000Y-92500000D03*
X200240000Y-92500000D03*
X197700000Y-95040000D03*
X200240000Y-95040000D03*
X197700000Y-97580000D03*
X200240000Y-97580000D03*
X197700000Y-100120000D03*
X200240000Y-100120000D03*
X197700000Y-102660000D03*
X200240000Y-102660000D03*
X197700000Y-105200000D03*
X200240000Y-105200000D03*
X197700000Y-107740000D03*
X200240000Y-107740000D03*
X197700000Y-110280000D03*
X200240000Y-110280000D03*
X197700000Y-112820000D03*
X200240000Y-112820000D03*
X197700000Y-115360000D03*
X200240000Y-115360000D03*
D11*
X185600000Y-117300000D03*
D12*
X185600000Y-119840000D03*
X183060000Y-117300000D03*
X183060000Y-119840000D03*
X180520000Y-117300000D03*
X180520000Y-119840000D03*
D13*
X199100000Y-52200000D03*
X166800000Y-52200000D03*
X166600000Y-121300000D03*
X199000000Y-121400000D03*
M02*
