G04 #@! TF.FileFunction,Copper,L1,Top,Signal*
%FSLAX46Y46*%
G04 Gerber Fmt 4.6, Leading zero omitted, Abs format (unit mm)*
G04 Created by KiCad (PCBNEW 4.0.0-rc1-stable) date 17/10/2017 17:51:27*
%MOMM*%
G01*
G04 APERTURE LIST*
%ADD10C,0.076200*%
%ADD11C,0.685800*%
%ADD12R,1.700000X1.700000*%
%ADD13O,1.700000X1.700000*%
%ADD14C,3.650000*%
%ADD15R,1.500000X1.500000*%
%ADD16C,1.500000*%
%ADD17C,0.304800*%
%ADD18C,0.254000*%
G04 APERTURE END LIST*
D10*
D11*
X215300000Y-48500000D03*
X215300000Y-50000000D03*
X161960000Y-48500000D03*
X161960000Y-50000000D03*
X212760000Y-50000000D03*
X210220000Y-50000000D03*
X207680000Y-50000000D03*
X205140000Y-50000000D03*
X202600000Y-50000000D03*
X200060000Y-50000000D03*
X197520000Y-50000000D03*
X194980000Y-50000000D03*
X192440000Y-50000000D03*
X189900000Y-50000000D03*
X187360000Y-50000000D03*
X184820000Y-50000000D03*
X182280000Y-50000000D03*
X179740000Y-50000000D03*
X177200000Y-50000000D03*
X174660000Y-50000000D03*
X172120000Y-50000000D03*
X169580000Y-50000000D03*
X167040000Y-50000000D03*
X164500000Y-50000000D03*
X212760000Y-48500000D03*
X210220000Y-48500000D03*
X207680000Y-48500000D03*
X205140000Y-48500000D03*
X202600000Y-48500000D03*
X200060000Y-48500000D03*
X197520000Y-48500000D03*
X194980000Y-48500000D03*
X192440000Y-48500000D03*
X189900000Y-48500000D03*
X187360000Y-48500000D03*
X184820000Y-48500000D03*
X182280000Y-48500000D03*
X179740000Y-48500000D03*
X177200000Y-48500000D03*
X174660000Y-48500000D03*
X172120000Y-48500000D03*
X169580000Y-48500000D03*
X167040000Y-48500000D03*
X164500000Y-48500000D03*
D12*
X164490000Y-54420000D03*
D13*
X164490000Y-51880000D03*
X167030000Y-54420000D03*
X167030000Y-51880000D03*
X169570000Y-54420000D03*
X169570000Y-51880000D03*
X172110000Y-54420000D03*
X172110000Y-51880000D03*
X174650000Y-54420000D03*
X174650000Y-51880000D03*
X177190000Y-54420000D03*
X177190000Y-51880000D03*
X179730000Y-54420000D03*
X179730000Y-51880000D03*
X182270000Y-54420000D03*
X182270000Y-51880000D03*
X184810000Y-54420000D03*
X184810000Y-51880000D03*
X187350000Y-54420000D03*
X187350000Y-51880000D03*
X189890000Y-54420000D03*
X189890000Y-51880000D03*
X192430000Y-54420000D03*
X192430000Y-51880000D03*
X194970000Y-54420000D03*
X194970000Y-51880000D03*
X197510000Y-54420000D03*
X197510000Y-51880000D03*
X200050000Y-54420000D03*
X200050000Y-51880000D03*
X202590000Y-54420000D03*
X202590000Y-51880000D03*
X205130000Y-54420000D03*
X205130000Y-51880000D03*
X207670000Y-54420000D03*
X207670000Y-51880000D03*
X210210000Y-54420000D03*
X210210000Y-51880000D03*
X212750000Y-54420000D03*
X212750000Y-51880000D03*
D14*
X175864600Y-29862000D03*
X164434600Y-29862000D03*
D15*
X165704600Y-36212000D03*
D16*
X166974600Y-38752000D03*
X168244600Y-36212000D03*
X169514600Y-38752000D03*
X170784600Y-36212000D03*
X172054600Y-38752000D03*
X173324600Y-36212000D03*
X174594600Y-38752000D03*
D12*
X164470000Y-46230000D03*
D13*
X164470000Y-43690000D03*
X167010000Y-46230000D03*
X167010000Y-43690000D03*
X169550000Y-46230000D03*
X169550000Y-43690000D03*
X172090000Y-46230000D03*
X172090000Y-43690000D03*
X174630000Y-46230000D03*
X174630000Y-43690000D03*
X177170000Y-46230000D03*
X177170000Y-43690000D03*
X179710000Y-46230000D03*
X179710000Y-43690000D03*
X182250000Y-46230000D03*
X182250000Y-43690000D03*
X184790000Y-46230000D03*
X184790000Y-43690000D03*
X187330000Y-46230000D03*
X187330000Y-43690000D03*
X189870000Y-46230000D03*
X189870000Y-43690000D03*
X192410000Y-46230000D03*
X192410000Y-43690000D03*
X194950000Y-46230000D03*
X194950000Y-43690000D03*
X197490000Y-46230000D03*
X197490000Y-43690000D03*
X200030000Y-46230000D03*
X200030000Y-43690000D03*
X202570000Y-46230000D03*
X202570000Y-43690000D03*
X205110000Y-46230000D03*
X205110000Y-43690000D03*
X207650000Y-46230000D03*
X207650000Y-43690000D03*
X210190000Y-46230000D03*
X210190000Y-43690000D03*
X212730000Y-46230000D03*
X212730000Y-43690000D03*
D17*
X187230000Y-46270000D02*
X186055000Y-47445000D01*
X186055000Y-47445000D02*
X186055000Y-53235000D01*
X186055000Y-53235000D02*
X187360000Y-54540000D01*
X184810000Y-54420000D02*
X184810000Y-55765400D01*
X167287800Y-57217800D02*
X164490000Y-54420000D01*
X183357600Y-57217800D02*
X167287800Y-57217800D01*
X184810000Y-55765400D02*
X183357600Y-57217800D01*
X163068000Y-53108000D02*
X164500000Y-54540000D01*
X164370000Y-46270000D02*
X163068000Y-47572000D01*
X163068000Y-47572000D02*
X163068000Y-53108000D01*
X184690000Y-46270000D02*
X183515000Y-47445000D01*
X183515000Y-53235000D02*
X184820000Y-54540000D01*
X183515000Y-47445000D02*
X183515000Y-53235000D01*
X168275000Y-53235000D02*
X169580000Y-54540000D01*
X169450000Y-46270000D02*
X168275000Y-47445000D01*
X168275000Y-47445000D02*
X168275000Y-53235000D01*
X165735000Y-53235000D02*
X167040000Y-54540000D01*
X165735000Y-47445000D02*
X165735000Y-53235000D01*
X166910000Y-46270000D02*
X165735000Y-47445000D01*
X177070000Y-46270000D02*
X175895000Y-47445000D01*
X175895000Y-47445000D02*
X175895000Y-53235000D01*
X175895000Y-53235000D02*
X177200000Y-54540000D01*
X170815000Y-53235000D02*
X172120000Y-54540000D01*
X170815000Y-47445000D02*
X170815000Y-53235000D01*
X171990000Y-46270000D02*
X170815000Y-47445000D01*
X178435000Y-53235000D02*
X179740000Y-54540000D01*
X179610000Y-46270000D02*
X178435000Y-47445000D01*
X178435000Y-47445000D02*
X178435000Y-53235000D01*
X182150000Y-46270000D02*
X180975000Y-47445000D01*
X180975000Y-47445000D02*
X180975000Y-53235000D01*
X180975000Y-53235000D02*
X182280000Y-54540000D01*
X198755000Y-53235000D02*
X200060000Y-54540000D01*
X199930000Y-46270000D02*
X198755000Y-47445000D01*
X198755000Y-47445000D02*
X198755000Y-53235000D01*
X189770000Y-46270000D02*
X188595000Y-47445000D01*
X188595000Y-47445000D02*
X188595000Y-53235000D01*
X188595000Y-53235000D02*
X189900000Y-54540000D01*
X192310000Y-46270000D02*
X191135000Y-47445000D01*
X191135000Y-47445000D02*
X191135000Y-53235000D01*
X191135000Y-53235000D02*
X192440000Y-54540000D01*
X202470000Y-46270000D02*
X201295000Y-47445000D01*
X201295000Y-47445000D02*
X201295000Y-53235000D01*
X201295000Y-53235000D02*
X202600000Y-54540000D01*
X203835000Y-53235000D02*
X205140000Y-54540000D01*
X205010000Y-46270000D02*
X203835000Y-47445000D01*
X203835000Y-47445000D02*
X203835000Y-53235000D01*
X207550000Y-46270000D02*
X206375000Y-47445000D01*
X206375000Y-47445000D02*
X206375000Y-53235000D01*
X206375000Y-53235000D02*
X207680000Y-54540000D01*
X210090000Y-46270000D02*
X208915000Y-47445000D01*
X208915000Y-47445000D02*
X208915000Y-53235000D01*
X208915000Y-53235000D02*
X210220000Y-54540000D01*
D18*
G36*
X182952400Y-40131980D02*
X182952396Y-40132000D01*
X182975506Y-40248183D01*
X183041318Y-40346678D01*
X183139813Y-40412490D01*
X183255996Y-40435600D01*
X220696400Y-40435600D01*
X220696400Y-63696400D01*
X156361200Y-63696400D01*
X156361200Y-47572000D01*
X162636200Y-47572000D01*
X162636200Y-53108000D01*
X162669069Y-53273243D01*
X162741709Y-53381957D01*
X162762671Y-53413329D01*
X163355127Y-54005785D01*
X163355127Y-55270000D01*
X163374609Y-55373539D01*
X163435801Y-55468634D01*
X163529168Y-55532429D01*
X163640000Y-55554873D01*
X165014215Y-55554873D01*
X166982469Y-57523126D01*
X166982471Y-57523129D01*
X167122557Y-57616731D01*
X167149973Y-57622185D01*
X167287800Y-57649601D01*
X167287805Y-57649600D01*
X183357600Y-57649600D01*
X183522843Y-57616731D01*
X183662929Y-57523129D01*
X185115329Y-56070729D01*
X185208931Y-55930643D01*
X185214385Y-55903226D01*
X185241801Y-55765400D01*
X185241800Y-55765395D01*
X185241800Y-55485636D01*
X185242203Y-55485556D01*
X185608606Y-55240732D01*
X185853430Y-54874329D01*
X185939400Y-54442126D01*
X185939400Y-54397874D01*
X185853430Y-53965671D01*
X185608606Y-53599268D01*
X185242203Y-53354444D01*
X184810000Y-53268474D01*
X184377797Y-53354444D01*
X184298252Y-53407594D01*
X183946800Y-53056142D01*
X183946800Y-52604061D01*
X184011394Y-52700732D01*
X184377797Y-52945556D01*
X184810000Y-53031526D01*
X185242203Y-52945556D01*
X185608606Y-52700732D01*
X185623200Y-52678891D01*
X185623200Y-53235000D01*
X185656069Y-53400243D01*
X185708562Y-53478805D01*
X185749671Y-53540329D01*
X186284743Y-54075401D01*
X186220600Y-54397874D01*
X186220600Y-54442126D01*
X186306570Y-54874329D01*
X186551394Y-55240732D01*
X186917797Y-55485556D01*
X187350000Y-55571526D01*
X187782203Y-55485556D01*
X188148606Y-55240732D01*
X188393430Y-54874329D01*
X188479400Y-54442126D01*
X188479400Y-54397874D01*
X188393430Y-53965671D01*
X188148606Y-53599268D01*
X187782203Y-53354444D01*
X187350000Y-53268474D01*
X186917797Y-53354444D01*
X186838252Y-53407594D01*
X186486800Y-53056142D01*
X186486800Y-52515992D01*
X186503086Y-52547939D01*
X186823163Y-52821195D01*
X187057007Y-52918043D01*
X187223000Y-52893524D01*
X187223000Y-52007000D01*
X187203000Y-52007000D01*
X187203000Y-51753000D01*
X187223000Y-51753000D01*
X187223000Y-50866476D01*
X187477000Y-50866476D01*
X187477000Y-51753000D01*
X187497000Y-51753000D01*
X187497000Y-52007000D01*
X187477000Y-52007000D01*
X187477000Y-52893524D01*
X187642993Y-52918043D01*
X187876837Y-52821195D01*
X188163200Y-52576721D01*
X188163200Y-53235000D01*
X188196069Y-53400243D01*
X188248562Y-53478805D01*
X188289671Y-53540329D01*
X188824743Y-54075401D01*
X188760600Y-54397874D01*
X188760600Y-54442126D01*
X188846570Y-54874329D01*
X189091394Y-55240732D01*
X189457797Y-55485556D01*
X189890000Y-55571526D01*
X190322203Y-55485556D01*
X190688606Y-55240732D01*
X190933430Y-54874329D01*
X191019400Y-54442126D01*
X191019400Y-54397874D01*
X190933430Y-53965671D01*
X190688606Y-53599268D01*
X190322203Y-53354444D01*
X189890000Y-53268474D01*
X189457797Y-53354444D01*
X189378252Y-53407594D01*
X189026800Y-53056142D01*
X189026800Y-52604061D01*
X189091394Y-52700732D01*
X189457797Y-52945556D01*
X189890000Y-53031526D01*
X190322203Y-52945556D01*
X190688606Y-52700732D01*
X190703200Y-52678891D01*
X190703200Y-53235000D01*
X190736069Y-53400243D01*
X190788562Y-53478805D01*
X190829671Y-53540329D01*
X191364743Y-54075401D01*
X191300600Y-54397874D01*
X191300600Y-54442126D01*
X191386570Y-54874329D01*
X191631394Y-55240732D01*
X191997797Y-55485556D01*
X192430000Y-55571526D01*
X192862203Y-55485556D01*
X193228606Y-55240732D01*
X193473430Y-54874329D01*
X193505521Y-54712995D01*
X193931944Y-54712995D01*
X194123086Y-55087939D01*
X194443163Y-55361195D01*
X194677007Y-55458043D01*
X194843000Y-55433524D01*
X194843000Y-54547000D01*
X195097000Y-54547000D01*
X195097000Y-55433524D01*
X195262993Y-55458043D01*
X195496837Y-55361195D01*
X195816914Y-55087939D01*
X196008056Y-54712995D01*
X195983960Y-54547000D01*
X195097000Y-54547000D01*
X194843000Y-54547000D01*
X193956040Y-54547000D01*
X193931944Y-54712995D01*
X193505521Y-54712995D01*
X193559400Y-54442126D01*
X193559400Y-54397874D01*
X196380600Y-54397874D01*
X196380600Y-54442126D01*
X196466570Y-54874329D01*
X196711394Y-55240732D01*
X197077797Y-55485556D01*
X197510000Y-55571526D01*
X197942203Y-55485556D01*
X198308606Y-55240732D01*
X198553430Y-54874329D01*
X198639400Y-54442126D01*
X198639400Y-54397874D01*
X198553430Y-53965671D01*
X198308606Y-53599268D01*
X197942203Y-53354444D01*
X197510000Y-53268474D01*
X197077797Y-53354444D01*
X196711394Y-53599268D01*
X196466570Y-53965671D01*
X196380600Y-54397874D01*
X193559400Y-54397874D01*
X193505522Y-54127005D01*
X193931944Y-54127005D01*
X193956040Y-54293000D01*
X194843000Y-54293000D01*
X194843000Y-53406476D01*
X195097000Y-53406476D01*
X195097000Y-54293000D01*
X195983960Y-54293000D01*
X196008056Y-54127005D01*
X195816914Y-53752061D01*
X195496837Y-53478805D01*
X195262993Y-53381957D01*
X195097000Y-53406476D01*
X194843000Y-53406476D01*
X194677007Y-53381957D01*
X194443163Y-53478805D01*
X194123086Y-53752061D01*
X193931944Y-54127005D01*
X193505522Y-54127005D01*
X193473430Y-53965671D01*
X193228606Y-53599268D01*
X192862203Y-53354444D01*
X192430000Y-53268474D01*
X191997797Y-53354444D01*
X191918252Y-53407594D01*
X191566800Y-53056142D01*
X191566800Y-52604061D01*
X191631394Y-52700732D01*
X191997797Y-52945556D01*
X192430000Y-53031526D01*
X192862203Y-52945556D01*
X193228606Y-52700732D01*
X193473430Y-52334329D01*
X193559400Y-51902126D01*
X193559400Y-51857874D01*
X193840600Y-51857874D01*
X193840600Y-51902126D01*
X193926570Y-52334329D01*
X194171394Y-52700732D01*
X194537797Y-52945556D01*
X194970000Y-53031526D01*
X195402203Y-52945556D01*
X195768606Y-52700732D01*
X196013430Y-52334329D01*
X196099400Y-51902126D01*
X196099400Y-51857874D01*
X196380600Y-51857874D01*
X196380600Y-51902126D01*
X196466570Y-52334329D01*
X196711394Y-52700732D01*
X197077797Y-52945556D01*
X197510000Y-53031526D01*
X197942203Y-52945556D01*
X198308606Y-52700732D01*
X198323200Y-52678891D01*
X198323200Y-53235000D01*
X198356069Y-53400243D01*
X198408562Y-53478805D01*
X198449671Y-53540329D01*
X198984743Y-54075401D01*
X198920600Y-54397874D01*
X198920600Y-54442126D01*
X199006570Y-54874329D01*
X199251394Y-55240732D01*
X199617797Y-55485556D01*
X200050000Y-55571526D01*
X200482203Y-55485556D01*
X200848606Y-55240732D01*
X201093430Y-54874329D01*
X201179400Y-54442126D01*
X201179400Y-54397874D01*
X201093430Y-53965671D01*
X200848606Y-53599268D01*
X200482203Y-53354444D01*
X200050000Y-53268474D01*
X199617797Y-53354444D01*
X199538252Y-53407594D01*
X199186800Y-53056142D01*
X199186800Y-52515992D01*
X199203086Y-52547939D01*
X199523163Y-52821195D01*
X199757007Y-52918043D01*
X199923000Y-52893524D01*
X199923000Y-52007000D01*
X199903000Y-52007000D01*
X199903000Y-51753000D01*
X199923000Y-51753000D01*
X199923000Y-50866476D01*
X200177000Y-50866476D01*
X200177000Y-51753000D01*
X200197000Y-51753000D01*
X200197000Y-52007000D01*
X200177000Y-52007000D01*
X200177000Y-52893524D01*
X200342993Y-52918043D01*
X200576837Y-52821195D01*
X200863200Y-52576721D01*
X200863200Y-53235000D01*
X200896069Y-53400243D01*
X200948562Y-53478805D01*
X200989671Y-53540329D01*
X201524743Y-54075401D01*
X201460600Y-54397874D01*
X201460600Y-54442126D01*
X201546570Y-54874329D01*
X201791394Y-55240732D01*
X202157797Y-55485556D01*
X202590000Y-55571526D01*
X203022203Y-55485556D01*
X203388606Y-55240732D01*
X203633430Y-54874329D01*
X203719400Y-54442126D01*
X203719400Y-54397874D01*
X203633430Y-53965671D01*
X203388606Y-53599268D01*
X203022203Y-53354444D01*
X202590000Y-53268474D01*
X202157797Y-53354444D01*
X202078252Y-53407594D01*
X201726800Y-53056142D01*
X201726800Y-52604061D01*
X201791394Y-52700732D01*
X202157797Y-52945556D01*
X202590000Y-53031526D01*
X203022203Y-52945556D01*
X203388606Y-52700732D01*
X203403200Y-52678891D01*
X203403200Y-53235000D01*
X203436069Y-53400243D01*
X203488562Y-53478805D01*
X203529671Y-53540329D01*
X204064743Y-54075401D01*
X204000600Y-54397874D01*
X204000600Y-54442126D01*
X204086570Y-54874329D01*
X204331394Y-55240732D01*
X204697797Y-55485556D01*
X205130000Y-55571526D01*
X205562203Y-55485556D01*
X205928606Y-55240732D01*
X206173430Y-54874329D01*
X206259400Y-54442126D01*
X206259400Y-54397874D01*
X206173430Y-53965671D01*
X205928606Y-53599268D01*
X205562203Y-53354444D01*
X205130000Y-53268474D01*
X204697797Y-53354444D01*
X204618252Y-53407594D01*
X204266800Y-53056142D01*
X204266800Y-52515992D01*
X204283086Y-52547939D01*
X204603163Y-52821195D01*
X204837007Y-52918043D01*
X205003000Y-52893524D01*
X205003000Y-52007000D01*
X204983000Y-52007000D01*
X204983000Y-51753000D01*
X205003000Y-51753000D01*
X205003000Y-50866476D01*
X205257000Y-50866476D01*
X205257000Y-51753000D01*
X205277000Y-51753000D01*
X205277000Y-52007000D01*
X205257000Y-52007000D01*
X205257000Y-52893524D01*
X205422993Y-52918043D01*
X205656837Y-52821195D01*
X205943200Y-52576721D01*
X205943200Y-53235000D01*
X205976069Y-53400243D01*
X206028562Y-53478805D01*
X206069671Y-53540329D01*
X206604743Y-54075401D01*
X206540600Y-54397874D01*
X206540600Y-54442126D01*
X206626570Y-54874329D01*
X206871394Y-55240732D01*
X207237797Y-55485556D01*
X207670000Y-55571526D01*
X208102203Y-55485556D01*
X208468606Y-55240732D01*
X208713430Y-54874329D01*
X208799400Y-54442126D01*
X208799400Y-54397874D01*
X208713430Y-53965671D01*
X208468606Y-53599268D01*
X208102203Y-53354444D01*
X207670000Y-53268474D01*
X207237797Y-53354444D01*
X207158252Y-53407594D01*
X206806800Y-53056142D01*
X206806800Y-52604061D01*
X206871394Y-52700732D01*
X207237797Y-52945556D01*
X207670000Y-53031526D01*
X208102203Y-52945556D01*
X208468606Y-52700732D01*
X208483200Y-52678891D01*
X208483200Y-53235000D01*
X208516069Y-53400243D01*
X208568562Y-53478805D01*
X208609671Y-53540329D01*
X209144743Y-54075401D01*
X209080600Y-54397874D01*
X209080600Y-54442126D01*
X209166570Y-54874329D01*
X209411394Y-55240732D01*
X209777797Y-55485556D01*
X210210000Y-55571526D01*
X210642203Y-55485556D01*
X211008606Y-55240732D01*
X211253430Y-54874329D01*
X211285521Y-54712995D01*
X211711944Y-54712995D01*
X211903086Y-55087939D01*
X212223163Y-55361195D01*
X212457007Y-55458043D01*
X212623000Y-55433524D01*
X212623000Y-54547000D01*
X212877000Y-54547000D01*
X212877000Y-55433524D01*
X213042993Y-55458043D01*
X213276837Y-55361195D01*
X213596914Y-55087939D01*
X213788056Y-54712995D01*
X213763960Y-54547000D01*
X212877000Y-54547000D01*
X212623000Y-54547000D01*
X211736040Y-54547000D01*
X211711944Y-54712995D01*
X211285521Y-54712995D01*
X211339400Y-54442126D01*
X211339400Y-54397874D01*
X211285522Y-54127005D01*
X211711944Y-54127005D01*
X211736040Y-54293000D01*
X212623000Y-54293000D01*
X212623000Y-53406476D01*
X212877000Y-53406476D01*
X212877000Y-54293000D01*
X213763960Y-54293000D01*
X213788056Y-54127005D01*
X213596914Y-53752061D01*
X213276837Y-53478805D01*
X213042993Y-53381957D01*
X212877000Y-53406476D01*
X212623000Y-53406476D01*
X212457007Y-53381957D01*
X212223163Y-53478805D01*
X211903086Y-53752061D01*
X211711944Y-54127005D01*
X211285522Y-54127005D01*
X211253430Y-53965671D01*
X211008606Y-53599268D01*
X210642203Y-53354444D01*
X210210000Y-53268474D01*
X209777797Y-53354444D01*
X209698252Y-53407594D01*
X209346800Y-53056142D01*
X209346800Y-52604061D01*
X209411394Y-52700732D01*
X209777797Y-52945556D01*
X210210000Y-53031526D01*
X210642203Y-52945556D01*
X211008606Y-52700732D01*
X211253430Y-52334329D01*
X211339400Y-51902126D01*
X211339400Y-51857874D01*
X211620600Y-51857874D01*
X211620600Y-51902126D01*
X211706570Y-52334329D01*
X211951394Y-52700732D01*
X212317797Y-52945556D01*
X212750000Y-53031526D01*
X213182203Y-52945556D01*
X213548606Y-52700732D01*
X213793430Y-52334329D01*
X213879400Y-51902126D01*
X213879400Y-51857874D01*
X213793430Y-51425671D01*
X213548606Y-51059268D01*
X213182203Y-50814444D01*
X212750000Y-50728474D01*
X212317797Y-50814444D01*
X211951394Y-51059268D01*
X211706570Y-51425671D01*
X211620600Y-51857874D01*
X211339400Y-51857874D01*
X211253430Y-51425671D01*
X211008606Y-51059268D01*
X210642203Y-50814444D01*
X210210000Y-50728474D01*
X209777797Y-50814444D01*
X209411394Y-51059268D01*
X209346800Y-51155939D01*
X209346800Y-47623858D01*
X209708225Y-47262433D01*
X209757797Y-47295556D01*
X210190000Y-47381526D01*
X210622203Y-47295556D01*
X210988606Y-47050732D01*
X211233430Y-46684329D01*
X211265521Y-46522995D01*
X211691944Y-46522995D01*
X211883086Y-46897939D01*
X212203163Y-47171195D01*
X212437007Y-47268043D01*
X212603000Y-47243524D01*
X212603000Y-46357000D01*
X212857000Y-46357000D01*
X212857000Y-47243524D01*
X213022993Y-47268043D01*
X213256837Y-47171195D01*
X213576914Y-46897939D01*
X213768056Y-46522995D01*
X213743960Y-46357000D01*
X212857000Y-46357000D01*
X212603000Y-46357000D01*
X211716040Y-46357000D01*
X211691944Y-46522995D01*
X211265521Y-46522995D01*
X211319400Y-46252126D01*
X211319400Y-46207874D01*
X211265522Y-45937005D01*
X211691944Y-45937005D01*
X211716040Y-46103000D01*
X212603000Y-46103000D01*
X212603000Y-45216476D01*
X212857000Y-45216476D01*
X212857000Y-46103000D01*
X213743960Y-46103000D01*
X213768056Y-45937005D01*
X213709778Y-45822686D01*
X215870318Y-45822686D01*
X216117856Y-46421775D01*
X216575814Y-46880533D01*
X217174470Y-47129117D01*
X217822686Y-47129682D01*
X218421775Y-46882144D01*
X218880533Y-46424186D01*
X219129117Y-45825530D01*
X219129682Y-45177314D01*
X218882144Y-44578225D01*
X218424186Y-44119467D01*
X217825530Y-43870883D01*
X217177314Y-43870318D01*
X216578225Y-44117856D01*
X216119467Y-44575814D01*
X215870883Y-45174470D01*
X215870318Y-45822686D01*
X213709778Y-45822686D01*
X213576914Y-45562061D01*
X213256837Y-45288805D01*
X213022993Y-45191957D01*
X212857000Y-45216476D01*
X212603000Y-45216476D01*
X212437007Y-45191957D01*
X212203163Y-45288805D01*
X211883086Y-45562061D01*
X211691944Y-45937005D01*
X211265522Y-45937005D01*
X211233430Y-45775671D01*
X210988606Y-45409268D01*
X210622203Y-45164444D01*
X210190000Y-45078474D01*
X209757797Y-45164444D01*
X209391394Y-45409268D01*
X209146570Y-45775671D01*
X209060600Y-46207874D01*
X209060600Y-46252126D01*
X209133039Y-46616303D01*
X208609671Y-47139671D01*
X208516069Y-47279757D01*
X208483200Y-47445000D01*
X208483200Y-51081109D01*
X208468606Y-51059268D01*
X208102203Y-50814444D01*
X207670000Y-50728474D01*
X207237797Y-50814444D01*
X206871394Y-51059268D01*
X206806800Y-51155939D01*
X206806800Y-47623858D01*
X207168225Y-47262433D01*
X207217797Y-47295556D01*
X207650000Y-47381526D01*
X208082203Y-47295556D01*
X208448606Y-47050732D01*
X208693430Y-46684329D01*
X208779400Y-46252126D01*
X208779400Y-46207874D01*
X208693430Y-45775671D01*
X208448606Y-45409268D01*
X208082203Y-45164444D01*
X207650000Y-45078474D01*
X207217797Y-45164444D01*
X206851394Y-45409268D01*
X206606570Y-45775671D01*
X206520600Y-46207874D01*
X206520600Y-46252126D01*
X206593039Y-46616303D01*
X206069671Y-47139671D01*
X205976069Y-47279757D01*
X205943200Y-47445000D01*
X205943200Y-51183279D01*
X205656837Y-50938805D01*
X205422993Y-50841957D01*
X205257000Y-50866476D01*
X205003000Y-50866476D01*
X204837007Y-50841957D01*
X204603163Y-50938805D01*
X204283086Y-51212061D01*
X204266800Y-51244008D01*
X204266800Y-47623858D01*
X204628225Y-47262433D01*
X204677797Y-47295556D01*
X205110000Y-47381526D01*
X205542203Y-47295556D01*
X205908606Y-47050732D01*
X206153430Y-46684329D01*
X206239400Y-46252126D01*
X206239400Y-46207874D01*
X206153430Y-45775671D01*
X205908606Y-45409268D01*
X205542203Y-45164444D01*
X205110000Y-45078474D01*
X204677797Y-45164444D01*
X204311394Y-45409268D01*
X204066570Y-45775671D01*
X203980600Y-46207874D01*
X203980600Y-46252126D01*
X204053039Y-46616303D01*
X203529671Y-47139671D01*
X203436069Y-47279757D01*
X203403200Y-47445000D01*
X203403200Y-51081109D01*
X203388606Y-51059268D01*
X203022203Y-50814444D01*
X202590000Y-50728474D01*
X202157797Y-50814444D01*
X201791394Y-51059268D01*
X201726800Y-51155939D01*
X201726800Y-47623858D01*
X202088225Y-47262433D01*
X202137797Y-47295556D01*
X202570000Y-47381526D01*
X203002203Y-47295556D01*
X203368606Y-47050732D01*
X203613430Y-46684329D01*
X203699400Y-46252126D01*
X203699400Y-46207874D01*
X203613430Y-45775671D01*
X203368606Y-45409268D01*
X203002203Y-45164444D01*
X202570000Y-45078474D01*
X202137797Y-45164444D01*
X201771394Y-45409268D01*
X201526570Y-45775671D01*
X201440600Y-46207874D01*
X201440600Y-46252126D01*
X201513039Y-46616303D01*
X200989671Y-47139671D01*
X200896069Y-47279757D01*
X200863200Y-47445000D01*
X200863200Y-51183279D01*
X200576837Y-50938805D01*
X200342993Y-50841957D01*
X200177000Y-50866476D01*
X199923000Y-50866476D01*
X199757007Y-50841957D01*
X199523163Y-50938805D01*
X199203086Y-51212061D01*
X199186800Y-51244008D01*
X199186800Y-47623858D01*
X199548225Y-47262433D01*
X199597797Y-47295556D01*
X200030000Y-47381526D01*
X200462203Y-47295556D01*
X200828606Y-47050732D01*
X201073430Y-46684329D01*
X201159400Y-46252126D01*
X201159400Y-46207874D01*
X201073430Y-45775671D01*
X200828606Y-45409268D01*
X200462203Y-45164444D01*
X200030000Y-45078474D01*
X199597797Y-45164444D01*
X199231394Y-45409268D01*
X198986570Y-45775671D01*
X198900600Y-46207874D01*
X198900600Y-46252126D01*
X198973039Y-46616303D01*
X198449671Y-47139671D01*
X198356069Y-47279757D01*
X198323200Y-47445000D01*
X198323200Y-51081109D01*
X198308606Y-51059268D01*
X197942203Y-50814444D01*
X197510000Y-50728474D01*
X197077797Y-50814444D01*
X196711394Y-51059268D01*
X196466570Y-51425671D01*
X196380600Y-51857874D01*
X196099400Y-51857874D01*
X196013430Y-51425671D01*
X195768606Y-51059268D01*
X195402203Y-50814444D01*
X194970000Y-50728474D01*
X194537797Y-50814444D01*
X194171394Y-51059268D01*
X193926570Y-51425671D01*
X193840600Y-51857874D01*
X193559400Y-51857874D01*
X193473430Y-51425671D01*
X193228606Y-51059268D01*
X192862203Y-50814444D01*
X192430000Y-50728474D01*
X191997797Y-50814444D01*
X191631394Y-51059268D01*
X191566800Y-51155939D01*
X191566800Y-47623858D01*
X191928225Y-47262433D01*
X191977797Y-47295556D01*
X192410000Y-47381526D01*
X192842203Y-47295556D01*
X193208606Y-47050732D01*
X193453430Y-46684329D01*
X193485521Y-46522995D01*
X193911944Y-46522995D01*
X194103086Y-46897939D01*
X194423163Y-47171195D01*
X194657007Y-47268043D01*
X194823000Y-47243524D01*
X194823000Y-46357000D01*
X195077000Y-46357000D01*
X195077000Y-47243524D01*
X195242993Y-47268043D01*
X195476837Y-47171195D01*
X195796914Y-46897939D01*
X195988056Y-46522995D01*
X195963960Y-46357000D01*
X195077000Y-46357000D01*
X194823000Y-46357000D01*
X193936040Y-46357000D01*
X193911944Y-46522995D01*
X193485521Y-46522995D01*
X193539400Y-46252126D01*
X193539400Y-46207874D01*
X196360600Y-46207874D01*
X196360600Y-46252126D01*
X196446570Y-46684329D01*
X196691394Y-47050732D01*
X197057797Y-47295556D01*
X197490000Y-47381526D01*
X197922203Y-47295556D01*
X198288606Y-47050732D01*
X198533430Y-46684329D01*
X198619400Y-46252126D01*
X198619400Y-46207874D01*
X198533430Y-45775671D01*
X198288606Y-45409268D01*
X197922203Y-45164444D01*
X197490000Y-45078474D01*
X197057797Y-45164444D01*
X196691394Y-45409268D01*
X196446570Y-45775671D01*
X196360600Y-46207874D01*
X193539400Y-46207874D01*
X193485522Y-45937005D01*
X193911944Y-45937005D01*
X193936040Y-46103000D01*
X194823000Y-46103000D01*
X194823000Y-45216476D01*
X195077000Y-45216476D01*
X195077000Y-46103000D01*
X195963960Y-46103000D01*
X195988056Y-45937005D01*
X195796914Y-45562061D01*
X195476837Y-45288805D01*
X195242993Y-45191957D01*
X195077000Y-45216476D01*
X194823000Y-45216476D01*
X194657007Y-45191957D01*
X194423163Y-45288805D01*
X194103086Y-45562061D01*
X193911944Y-45937005D01*
X193485522Y-45937005D01*
X193453430Y-45775671D01*
X193208606Y-45409268D01*
X192842203Y-45164444D01*
X192410000Y-45078474D01*
X191977797Y-45164444D01*
X191611394Y-45409268D01*
X191366570Y-45775671D01*
X191280600Y-46207874D01*
X191280600Y-46252126D01*
X191353039Y-46616303D01*
X190829671Y-47139671D01*
X190736069Y-47279757D01*
X190703200Y-47445000D01*
X190703200Y-51081109D01*
X190688606Y-51059268D01*
X190322203Y-50814444D01*
X189890000Y-50728474D01*
X189457797Y-50814444D01*
X189091394Y-51059268D01*
X189026800Y-51155939D01*
X189026800Y-47623858D01*
X189388225Y-47262433D01*
X189437797Y-47295556D01*
X189870000Y-47381526D01*
X190302203Y-47295556D01*
X190668606Y-47050732D01*
X190913430Y-46684329D01*
X190999400Y-46252126D01*
X190999400Y-46207874D01*
X190913430Y-45775671D01*
X190668606Y-45409268D01*
X190302203Y-45164444D01*
X189870000Y-45078474D01*
X189437797Y-45164444D01*
X189071394Y-45409268D01*
X188826570Y-45775671D01*
X188740600Y-46207874D01*
X188740600Y-46252126D01*
X188813039Y-46616303D01*
X188289671Y-47139671D01*
X188196069Y-47279757D01*
X188163200Y-47445000D01*
X188163200Y-51183279D01*
X187876837Y-50938805D01*
X187642993Y-50841957D01*
X187477000Y-50866476D01*
X187223000Y-50866476D01*
X187057007Y-50841957D01*
X186823163Y-50938805D01*
X186503086Y-51212061D01*
X186486800Y-51244008D01*
X186486800Y-47623858D01*
X186848225Y-47262433D01*
X186897797Y-47295556D01*
X187330000Y-47381526D01*
X187762203Y-47295556D01*
X188128606Y-47050732D01*
X188373430Y-46684329D01*
X188459400Y-46252126D01*
X188459400Y-46207874D01*
X188373430Y-45775671D01*
X188128606Y-45409268D01*
X187762203Y-45164444D01*
X187330000Y-45078474D01*
X186897797Y-45164444D01*
X186531394Y-45409268D01*
X186286570Y-45775671D01*
X186200600Y-46207874D01*
X186200600Y-46252126D01*
X186273039Y-46616303D01*
X185749671Y-47139671D01*
X185656069Y-47279757D01*
X185623200Y-47445000D01*
X185623200Y-51081109D01*
X185608606Y-51059268D01*
X185242203Y-50814444D01*
X184810000Y-50728474D01*
X184377797Y-50814444D01*
X184011394Y-51059268D01*
X183946800Y-51155939D01*
X183946800Y-47623858D01*
X184308225Y-47262433D01*
X184357797Y-47295556D01*
X184790000Y-47381526D01*
X185222203Y-47295556D01*
X185588606Y-47050732D01*
X185833430Y-46684329D01*
X185919400Y-46252126D01*
X185919400Y-46207874D01*
X185833430Y-45775671D01*
X185588606Y-45409268D01*
X185222203Y-45164444D01*
X184790000Y-45078474D01*
X184357797Y-45164444D01*
X183991394Y-45409268D01*
X183746570Y-45775671D01*
X183660600Y-46207874D01*
X183660600Y-46252126D01*
X183733039Y-46616303D01*
X183209671Y-47139671D01*
X183116069Y-47279757D01*
X183083200Y-47445000D01*
X183083200Y-51081109D01*
X183068606Y-51059268D01*
X182702203Y-50814444D01*
X182270000Y-50728474D01*
X181837797Y-50814444D01*
X181471394Y-51059268D01*
X181406800Y-51155939D01*
X181406800Y-47623858D01*
X181768225Y-47262433D01*
X181817797Y-47295556D01*
X182250000Y-47381526D01*
X182682203Y-47295556D01*
X183048606Y-47050732D01*
X183293430Y-46684329D01*
X183379400Y-46252126D01*
X183379400Y-46207874D01*
X183293430Y-45775671D01*
X183048606Y-45409268D01*
X182682203Y-45164444D01*
X182250000Y-45078474D01*
X181817797Y-45164444D01*
X181451394Y-45409268D01*
X181206570Y-45775671D01*
X181120600Y-46207874D01*
X181120600Y-46252126D01*
X181193039Y-46616303D01*
X180669671Y-47139671D01*
X180576069Y-47279757D01*
X180543200Y-47445000D01*
X180543200Y-51183279D01*
X180256837Y-50938805D01*
X180022993Y-50841957D01*
X179857000Y-50866476D01*
X179857000Y-51753000D01*
X179877000Y-51753000D01*
X179877000Y-52007000D01*
X179857000Y-52007000D01*
X179857000Y-52893524D01*
X180022993Y-52918043D01*
X180256837Y-52821195D01*
X180543200Y-52576721D01*
X180543200Y-53235000D01*
X180576069Y-53400243D01*
X180628562Y-53478805D01*
X180669671Y-53540329D01*
X181204743Y-54075401D01*
X181140600Y-54397874D01*
X181140600Y-54442126D01*
X181226570Y-54874329D01*
X181471394Y-55240732D01*
X181837797Y-55485556D01*
X182270000Y-55571526D01*
X182702203Y-55485556D01*
X183068606Y-55240732D01*
X183313430Y-54874329D01*
X183399400Y-54442126D01*
X183399400Y-54397874D01*
X183313430Y-53965671D01*
X183068606Y-53599268D01*
X182702203Y-53354444D01*
X182270000Y-53268474D01*
X181837797Y-53354444D01*
X181758252Y-53407594D01*
X181406800Y-53056142D01*
X181406800Y-52604061D01*
X181471394Y-52700732D01*
X181837797Y-52945556D01*
X182270000Y-53031526D01*
X182702203Y-52945556D01*
X183068606Y-52700732D01*
X183083200Y-52678891D01*
X183083200Y-53235000D01*
X183116069Y-53400243D01*
X183168562Y-53478805D01*
X183209671Y-53540329D01*
X183744743Y-54075401D01*
X183680600Y-54397874D01*
X183680600Y-54442126D01*
X183766570Y-54874329D01*
X184011394Y-55240732D01*
X184377797Y-55485556D01*
X184378200Y-55485636D01*
X184378200Y-55586542D01*
X183178742Y-56786000D01*
X167466657Y-56786000D01*
X165624873Y-54944215D01*
X165624873Y-53735531D01*
X165964743Y-54075401D01*
X165900600Y-54397874D01*
X165900600Y-54442126D01*
X165986570Y-54874329D01*
X166231394Y-55240732D01*
X166597797Y-55485556D01*
X167030000Y-55571526D01*
X167462203Y-55485556D01*
X167828606Y-55240732D01*
X168073430Y-54874329D01*
X168159400Y-54442126D01*
X168159400Y-54397874D01*
X168073430Y-53965671D01*
X167828606Y-53599268D01*
X167462203Y-53354444D01*
X167030000Y-53268474D01*
X166597797Y-53354444D01*
X166518252Y-53407594D01*
X166166800Y-53056142D01*
X166166800Y-52604061D01*
X166231394Y-52700732D01*
X166597797Y-52945556D01*
X167030000Y-53031526D01*
X167462203Y-52945556D01*
X167828606Y-52700732D01*
X167843200Y-52678891D01*
X167843200Y-53235000D01*
X167876069Y-53400243D01*
X167928562Y-53478805D01*
X167969671Y-53540329D01*
X168504743Y-54075401D01*
X168440600Y-54397874D01*
X168440600Y-54442126D01*
X168526570Y-54874329D01*
X168771394Y-55240732D01*
X169137797Y-55485556D01*
X169570000Y-55571526D01*
X170002203Y-55485556D01*
X170368606Y-55240732D01*
X170613430Y-54874329D01*
X170699400Y-54442126D01*
X170699400Y-54397874D01*
X170613430Y-53965671D01*
X170368606Y-53599268D01*
X170002203Y-53354444D01*
X169570000Y-53268474D01*
X169137797Y-53354444D01*
X169058252Y-53407594D01*
X168706800Y-53056142D01*
X168706800Y-52515992D01*
X168723086Y-52547939D01*
X169043163Y-52821195D01*
X169277007Y-52918043D01*
X169443000Y-52893524D01*
X169443000Y-52007000D01*
X169423000Y-52007000D01*
X169423000Y-51753000D01*
X169443000Y-51753000D01*
X169443000Y-50866476D01*
X169697000Y-50866476D01*
X169697000Y-51753000D01*
X169717000Y-51753000D01*
X169717000Y-52007000D01*
X169697000Y-52007000D01*
X169697000Y-52893524D01*
X169862993Y-52918043D01*
X170096837Y-52821195D01*
X170383200Y-52576721D01*
X170383200Y-53235000D01*
X170416069Y-53400243D01*
X170468562Y-53478805D01*
X170509671Y-53540329D01*
X171044743Y-54075401D01*
X170980600Y-54397874D01*
X170980600Y-54442126D01*
X171066570Y-54874329D01*
X171311394Y-55240732D01*
X171677797Y-55485556D01*
X172110000Y-55571526D01*
X172542203Y-55485556D01*
X172908606Y-55240732D01*
X173153430Y-54874329D01*
X173185521Y-54712995D01*
X173611944Y-54712995D01*
X173803086Y-55087939D01*
X174123163Y-55361195D01*
X174357007Y-55458043D01*
X174523000Y-55433524D01*
X174523000Y-54547000D01*
X174777000Y-54547000D01*
X174777000Y-55433524D01*
X174942993Y-55458043D01*
X175176837Y-55361195D01*
X175496914Y-55087939D01*
X175688056Y-54712995D01*
X175663960Y-54547000D01*
X174777000Y-54547000D01*
X174523000Y-54547000D01*
X173636040Y-54547000D01*
X173611944Y-54712995D01*
X173185521Y-54712995D01*
X173239400Y-54442126D01*
X173239400Y-54397874D01*
X173185522Y-54127005D01*
X173611944Y-54127005D01*
X173636040Y-54293000D01*
X174523000Y-54293000D01*
X174523000Y-53406476D01*
X174777000Y-53406476D01*
X174777000Y-54293000D01*
X175663960Y-54293000D01*
X175688056Y-54127005D01*
X175496914Y-53752061D01*
X175176837Y-53478805D01*
X174942993Y-53381957D01*
X174777000Y-53406476D01*
X174523000Y-53406476D01*
X174357007Y-53381957D01*
X174123163Y-53478805D01*
X173803086Y-53752061D01*
X173611944Y-54127005D01*
X173185522Y-54127005D01*
X173153430Y-53965671D01*
X172908606Y-53599268D01*
X172542203Y-53354444D01*
X172110000Y-53268474D01*
X171677797Y-53354444D01*
X171598252Y-53407594D01*
X171246800Y-53056142D01*
X171246800Y-52604061D01*
X171311394Y-52700732D01*
X171677797Y-52945556D01*
X172110000Y-53031526D01*
X172542203Y-52945556D01*
X172908606Y-52700732D01*
X173153430Y-52334329D01*
X173239400Y-51902126D01*
X173239400Y-51857874D01*
X173520600Y-51857874D01*
X173520600Y-51902126D01*
X173606570Y-52334329D01*
X173851394Y-52700732D01*
X174217797Y-52945556D01*
X174650000Y-53031526D01*
X175082203Y-52945556D01*
X175448606Y-52700732D01*
X175463200Y-52678891D01*
X175463200Y-53235000D01*
X175496069Y-53400243D01*
X175548562Y-53478805D01*
X175589671Y-53540329D01*
X176124743Y-54075401D01*
X176060600Y-54397874D01*
X176060600Y-54442126D01*
X176146570Y-54874329D01*
X176391394Y-55240732D01*
X176757797Y-55485556D01*
X177190000Y-55571526D01*
X177622203Y-55485556D01*
X177988606Y-55240732D01*
X178233430Y-54874329D01*
X178319400Y-54442126D01*
X178319400Y-54397874D01*
X178233430Y-53965671D01*
X177988606Y-53599268D01*
X177622203Y-53354444D01*
X177190000Y-53268474D01*
X176757797Y-53354444D01*
X176678252Y-53407594D01*
X176326800Y-53056142D01*
X176326800Y-52604061D01*
X176391394Y-52700732D01*
X176757797Y-52945556D01*
X177190000Y-53031526D01*
X177622203Y-52945556D01*
X177988606Y-52700732D01*
X178003200Y-52678891D01*
X178003200Y-53235000D01*
X178036069Y-53400243D01*
X178088562Y-53478805D01*
X178129671Y-53540329D01*
X178664743Y-54075401D01*
X178600600Y-54397874D01*
X178600600Y-54442126D01*
X178686570Y-54874329D01*
X178931394Y-55240732D01*
X179297797Y-55485556D01*
X179730000Y-55571526D01*
X180162203Y-55485556D01*
X180528606Y-55240732D01*
X180773430Y-54874329D01*
X180859400Y-54442126D01*
X180859400Y-54397874D01*
X180773430Y-53965671D01*
X180528606Y-53599268D01*
X180162203Y-53354444D01*
X179730000Y-53268474D01*
X179297797Y-53354444D01*
X179218252Y-53407594D01*
X178866800Y-53056142D01*
X178866800Y-52515992D01*
X178883086Y-52547939D01*
X179203163Y-52821195D01*
X179437007Y-52918043D01*
X179603000Y-52893524D01*
X179603000Y-52007000D01*
X179583000Y-52007000D01*
X179583000Y-51753000D01*
X179603000Y-51753000D01*
X179603000Y-50866476D01*
X179437007Y-50841957D01*
X179203163Y-50938805D01*
X178883086Y-51212061D01*
X178866800Y-51244008D01*
X178866800Y-47623858D01*
X179228225Y-47262433D01*
X179277797Y-47295556D01*
X179710000Y-47381526D01*
X180142203Y-47295556D01*
X180508606Y-47050732D01*
X180753430Y-46684329D01*
X180839400Y-46252126D01*
X180839400Y-46207874D01*
X180753430Y-45775671D01*
X180508606Y-45409268D01*
X180142203Y-45164444D01*
X179710000Y-45078474D01*
X179277797Y-45164444D01*
X178911394Y-45409268D01*
X178666570Y-45775671D01*
X178580600Y-46207874D01*
X178580600Y-46252126D01*
X178653039Y-46616303D01*
X178129671Y-47139671D01*
X178036069Y-47279757D01*
X178003200Y-47445000D01*
X178003200Y-51081109D01*
X177988606Y-51059268D01*
X177622203Y-50814444D01*
X177190000Y-50728474D01*
X176757797Y-50814444D01*
X176391394Y-51059268D01*
X176326800Y-51155939D01*
X176326800Y-47623858D01*
X176688225Y-47262433D01*
X176737797Y-47295556D01*
X177170000Y-47381526D01*
X177602203Y-47295556D01*
X177968606Y-47050732D01*
X178213430Y-46684329D01*
X178299400Y-46252126D01*
X178299400Y-46207874D01*
X178213430Y-45775671D01*
X177968606Y-45409268D01*
X177602203Y-45164444D01*
X177170000Y-45078474D01*
X176737797Y-45164444D01*
X176371394Y-45409268D01*
X176126570Y-45775671D01*
X176040600Y-46207874D01*
X176040600Y-46252126D01*
X176113039Y-46616303D01*
X175589671Y-47139671D01*
X175496069Y-47279757D01*
X175463200Y-47445000D01*
X175463200Y-51081109D01*
X175448606Y-51059268D01*
X175082203Y-50814444D01*
X174650000Y-50728474D01*
X174217797Y-50814444D01*
X173851394Y-51059268D01*
X173606570Y-51425671D01*
X173520600Y-51857874D01*
X173239400Y-51857874D01*
X173153430Y-51425671D01*
X172908606Y-51059268D01*
X172542203Y-50814444D01*
X172110000Y-50728474D01*
X171677797Y-50814444D01*
X171311394Y-51059268D01*
X171246800Y-51155939D01*
X171246800Y-47623858D01*
X171608225Y-47262433D01*
X171657797Y-47295556D01*
X172090000Y-47381526D01*
X172522203Y-47295556D01*
X172888606Y-47050732D01*
X173133430Y-46684329D01*
X173165521Y-46522995D01*
X173591944Y-46522995D01*
X173783086Y-46897939D01*
X174103163Y-47171195D01*
X174337007Y-47268043D01*
X174503000Y-47243524D01*
X174503000Y-46357000D01*
X174757000Y-46357000D01*
X174757000Y-47243524D01*
X174922993Y-47268043D01*
X175156837Y-47171195D01*
X175476914Y-46897939D01*
X175668056Y-46522995D01*
X175643960Y-46357000D01*
X174757000Y-46357000D01*
X174503000Y-46357000D01*
X173616040Y-46357000D01*
X173591944Y-46522995D01*
X173165521Y-46522995D01*
X173219400Y-46252126D01*
X173219400Y-46207874D01*
X173165522Y-45937005D01*
X173591944Y-45937005D01*
X173616040Y-46103000D01*
X174503000Y-46103000D01*
X174503000Y-45216476D01*
X174757000Y-45216476D01*
X174757000Y-46103000D01*
X175643960Y-46103000D01*
X175668056Y-45937005D01*
X175476914Y-45562061D01*
X175156837Y-45288805D01*
X174922993Y-45191957D01*
X174757000Y-45216476D01*
X174503000Y-45216476D01*
X174337007Y-45191957D01*
X174103163Y-45288805D01*
X173783086Y-45562061D01*
X173591944Y-45937005D01*
X173165522Y-45937005D01*
X173133430Y-45775671D01*
X172888606Y-45409268D01*
X172522203Y-45164444D01*
X172090000Y-45078474D01*
X171657797Y-45164444D01*
X171291394Y-45409268D01*
X171046570Y-45775671D01*
X170960600Y-46207874D01*
X170960600Y-46252126D01*
X171033039Y-46616303D01*
X170509671Y-47139671D01*
X170416069Y-47279757D01*
X170383200Y-47445000D01*
X170383200Y-51183279D01*
X170096837Y-50938805D01*
X169862993Y-50841957D01*
X169697000Y-50866476D01*
X169443000Y-50866476D01*
X169277007Y-50841957D01*
X169043163Y-50938805D01*
X168723086Y-51212061D01*
X168706800Y-51244008D01*
X168706800Y-47623858D01*
X169068225Y-47262433D01*
X169117797Y-47295556D01*
X169550000Y-47381526D01*
X169982203Y-47295556D01*
X170348606Y-47050732D01*
X170593430Y-46684329D01*
X170679400Y-46252126D01*
X170679400Y-46207874D01*
X170593430Y-45775671D01*
X170348606Y-45409268D01*
X169982203Y-45164444D01*
X169550000Y-45078474D01*
X169117797Y-45164444D01*
X168751394Y-45409268D01*
X168506570Y-45775671D01*
X168420600Y-46207874D01*
X168420600Y-46252126D01*
X168493039Y-46616303D01*
X167969671Y-47139671D01*
X167876069Y-47279757D01*
X167843200Y-47445000D01*
X167843200Y-51081109D01*
X167828606Y-51059268D01*
X167462203Y-50814444D01*
X167030000Y-50728474D01*
X166597797Y-50814444D01*
X166231394Y-51059268D01*
X166166800Y-51155939D01*
X166166800Y-47623858D01*
X166528225Y-47262433D01*
X166577797Y-47295556D01*
X167010000Y-47381526D01*
X167442203Y-47295556D01*
X167808606Y-47050732D01*
X168053430Y-46684329D01*
X168139400Y-46252126D01*
X168139400Y-46207874D01*
X168053430Y-45775671D01*
X167808606Y-45409268D01*
X167442203Y-45164444D01*
X167010000Y-45078474D01*
X166577797Y-45164444D01*
X166211394Y-45409268D01*
X165966570Y-45775671D01*
X165880600Y-46207874D01*
X165880600Y-46252126D01*
X165953039Y-46616303D01*
X165604873Y-46964469D01*
X165604873Y-45380000D01*
X165585391Y-45276461D01*
X165524199Y-45181366D01*
X165430832Y-45117571D01*
X165320000Y-45095127D01*
X163620000Y-45095127D01*
X163516461Y-45114609D01*
X163421366Y-45175801D01*
X163357571Y-45269168D01*
X163335127Y-45380000D01*
X163335127Y-46694215D01*
X162762671Y-47266671D01*
X162669069Y-47406757D01*
X162636200Y-47572000D01*
X156361200Y-47572000D01*
X156361200Y-45822686D01*
X157870318Y-45822686D01*
X158117856Y-46421775D01*
X158575814Y-46880533D01*
X159174470Y-47129117D01*
X159822686Y-47129682D01*
X160421775Y-46882144D01*
X160880533Y-46424186D01*
X161129117Y-45825530D01*
X161129682Y-45177314D01*
X160882144Y-44578225D01*
X160424186Y-44119467D01*
X159825530Y-43870883D01*
X159177314Y-43870318D01*
X158578225Y-44117856D01*
X158119467Y-44575814D01*
X157870883Y-45174470D01*
X157870318Y-45822686D01*
X156361200Y-45822686D01*
X156361200Y-43667874D01*
X163340600Y-43667874D01*
X163340600Y-43712126D01*
X163426570Y-44144329D01*
X163671394Y-44510732D01*
X164037797Y-44755556D01*
X164470000Y-44841526D01*
X164902203Y-44755556D01*
X165268606Y-44510732D01*
X165513430Y-44144329D01*
X165599400Y-43712126D01*
X165599400Y-43667874D01*
X165880600Y-43667874D01*
X165880600Y-43712126D01*
X165966570Y-44144329D01*
X166211394Y-44510732D01*
X166577797Y-44755556D01*
X167010000Y-44841526D01*
X167442203Y-44755556D01*
X167808606Y-44510732D01*
X168053430Y-44144329D01*
X168085521Y-43982995D01*
X168511944Y-43982995D01*
X168703086Y-44357939D01*
X169023163Y-44631195D01*
X169257007Y-44728043D01*
X169423000Y-44703524D01*
X169423000Y-43817000D01*
X169677000Y-43817000D01*
X169677000Y-44703524D01*
X169842993Y-44728043D01*
X170076837Y-44631195D01*
X170396914Y-44357939D01*
X170588056Y-43982995D01*
X170563960Y-43817000D01*
X169677000Y-43817000D01*
X169423000Y-43817000D01*
X168536040Y-43817000D01*
X168511944Y-43982995D01*
X168085521Y-43982995D01*
X168139400Y-43712126D01*
X168139400Y-43667874D01*
X170960600Y-43667874D01*
X170960600Y-43712126D01*
X171046570Y-44144329D01*
X171291394Y-44510732D01*
X171657797Y-44755556D01*
X172090000Y-44841526D01*
X172522203Y-44755556D01*
X172888606Y-44510732D01*
X173133430Y-44144329D01*
X173219400Y-43712126D01*
X173219400Y-43667874D01*
X173500600Y-43667874D01*
X173500600Y-43712126D01*
X173586570Y-44144329D01*
X173831394Y-44510732D01*
X174197797Y-44755556D01*
X174630000Y-44841526D01*
X175062203Y-44755556D01*
X175428606Y-44510732D01*
X175673430Y-44144329D01*
X175759400Y-43712126D01*
X175759400Y-43667874D01*
X176040600Y-43667874D01*
X176040600Y-43712126D01*
X176126570Y-44144329D01*
X176371394Y-44510732D01*
X176737797Y-44755556D01*
X177170000Y-44841526D01*
X177602203Y-44755556D01*
X177968606Y-44510732D01*
X178213430Y-44144329D01*
X178245521Y-43982995D01*
X178671944Y-43982995D01*
X178863086Y-44357939D01*
X179183163Y-44631195D01*
X179417007Y-44728043D01*
X179583000Y-44703524D01*
X179583000Y-43817000D01*
X179837000Y-43817000D01*
X179837000Y-44703524D01*
X180002993Y-44728043D01*
X180236837Y-44631195D01*
X180556914Y-44357939D01*
X180748056Y-43982995D01*
X180723960Y-43817000D01*
X179837000Y-43817000D01*
X179583000Y-43817000D01*
X178696040Y-43817000D01*
X178671944Y-43982995D01*
X178245521Y-43982995D01*
X178299400Y-43712126D01*
X178299400Y-43667874D01*
X181120600Y-43667874D01*
X181120600Y-43712126D01*
X181206570Y-44144329D01*
X181451394Y-44510732D01*
X181817797Y-44755556D01*
X182250000Y-44841526D01*
X182682203Y-44755556D01*
X183048606Y-44510732D01*
X183293430Y-44144329D01*
X183379400Y-43712126D01*
X183379400Y-43667874D01*
X183660600Y-43667874D01*
X183660600Y-43712126D01*
X183746570Y-44144329D01*
X183991394Y-44510732D01*
X184357797Y-44755556D01*
X184790000Y-44841526D01*
X185222203Y-44755556D01*
X185588606Y-44510732D01*
X185833430Y-44144329D01*
X185865521Y-43982995D01*
X186291944Y-43982995D01*
X186483086Y-44357939D01*
X186803163Y-44631195D01*
X187037007Y-44728043D01*
X187203000Y-44703524D01*
X187203000Y-43817000D01*
X187457000Y-43817000D01*
X187457000Y-44703524D01*
X187622993Y-44728043D01*
X187856837Y-44631195D01*
X188176914Y-44357939D01*
X188368056Y-43982995D01*
X188343960Y-43817000D01*
X187457000Y-43817000D01*
X187203000Y-43817000D01*
X186316040Y-43817000D01*
X186291944Y-43982995D01*
X185865521Y-43982995D01*
X185919400Y-43712126D01*
X185919400Y-43667874D01*
X188740600Y-43667874D01*
X188740600Y-43712126D01*
X188826570Y-44144329D01*
X189071394Y-44510732D01*
X189437797Y-44755556D01*
X189870000Y-44841526D01*
X190302203Y-44755556D01*
X190668606Y-44510732D01*
X190913430Y-44144329D01*
X190999400Y-43712126D01*
X190999400Y-43667874D01*
X191280600Y-43667874D01*
X191280600Y-43712126D01*
X191366570Y-44144329D01*
X191611394Y-44510732D01*
X191977797Y-44755556D01*
X192410000Y-44841526D01*
X192842203Y-44755556D01*
X193208606Y-44510732D01*
X193453430Y-44144329D01*
X193539400Y-43712126D01*
X193539400Y-43667874D01*
X193820600Y-43667874D01*
X193820600Y-43712126D01*
X193906570Y-44144329D01*
X194151394Y-44510732D01*
X194517797Y-44755556D01*
X194950000Y-44841526D01*
X195382203Y-44755556D01*
X195748606Y-44510732D01*
X195993430Y-44144329D01*
X196079400Y-43712126D01*
X196079400Y-43667874D01*
X196360600Y-43667874D01*
X196360600Y-43712126D01*
X196446570Y-44144329D01*
X196691394Y-44510732D01*
X197057797Y-44755556D01*
X197490000Y-44841526D01*
X197922203Y-44755556D01*
X198288606Y-44510732D01*
X198533430Y-44144329D01*
X198565521Y-43982995D01*
X198991944Y-43982995D01*
X199183086Y-44357939D01*
X199503163Y-44631195D01*
X199737007Y-44728043D01*
X199903000Y-44703524D01*
X199903000Y-43817000D01*
X200157000Y-43817000D01*
X200157000Y-44703524D01*
X200322993Y-44728043D01*
X200556837Y-44631195D01*
X200876914Y-44357939D01*
X201068056Y-43982995D01*
X201043960Y-43817000D01*
X200157000Y-43817000D01*
X199903000Y-43817000D01*
X199016040Y-43817000D01*
X198991944Y-43982995D01*
X198565521Y-43982995D01*
X198619400Y-43712126D01*
X198619400Y-43667874D01*
X201440600Y-43667874D01*
X201440600Y-43712126D01*
X201526570Y-44144329D01*
X201771394Y-44510732D01*
X202137797Y-44755556D01*
X202570000Y-44841526D01*
X203002203Y-44755556D01*
X203368606Y-44510732D01*
X203613430Y-44144329D01*
X203645521Y-43982995D01*
X204071944Y-43982995D01*
X204263086Y-44357939D01*
X204583163Y-44631195D01*
X204817007Y-44728043D01*
X204983000Y-44703524D01*
X204983000Y-43817000D01*
X205237000Y-43817000D01*
X205237000Y-44703524D01*
X205402993Y-44728043D01*
X205636837Y-44631195D01*
X205956914Y-44357939D01*
X206148056Y-43982995D01*
X206123960Y-43817000D01*
X205237000Y-43817000D01*
X204983000Y-43817000D01*
X204096040Y-43817000D01*
X204071944Y-43982995D01*
X203645521Y-43982995D01*
X203699400Y-43712126D01*
X203699400Y-43667874D01*
X206520600Y-43667874D01*
X206520600Y-43712126D01*
X206606570Y-44144329D01*
X206851394Y-44510732D01*
X207217797Y-44755556D01*
X207650000Y-44841526D01*
X208082203Y-44755556D01*
X208448606Y-44510732D01*
X208693430Y-44144329D01*
X208779400Y-43712126D01*
X208779400Y-43667874D01*
X209060600Y-43667874D01*
X209060600Y-43712126D01*
X209146570Y-44144329D01*
X209391394Y-44510732D01*
X209757797Y-44755556D01*
X210190000Y-44841526D01*
X210622203Y-44755556D01*
X210988606Y-44510732D01*
X211233430Y-44144329D01*
X211319400Y-43712126D01*
X211319400Y-43667874D01*
X211600600Y-43667874D01*
X211600600Y-43712126D01*
X211686570Y-44144329D01*
X211931394Y-44510732D01*
X212297797Y-44755556D01*
X212730000Y-44841526D01*
X213162203Y-44755556D01*
X213528606Y-44510732D01*
X213773430Y-44144329D01*
X213859400Y-43712126D01*
X213859400Y-43667874D01*
X213773430Y-43235671D01*
X213528606Y-42869268D01*
X213162203Y-42624444D01*
X212730000Y-42538474D01*
X212297797Y-42624444D01*
X211931394Y-42869268D01*
X211686570Y-43235671D01*
X211600600Y-43667874D01*
X211319400Y-43667874D01*
X211233430Y-43235671D01*
X210988606Y-42869268D01*
X210622203Y-42624444D01*
X210190000Y-42538474D01*
X209757797Y-42624444D01*
X209391394Y-42869268D01*
X209146570Y-43235671D01*
X209060600Y-43667874D01*
X208779400Y-43667874D01*
X208693430Y-43235671D01*
X208448606Y-42869268D01*
X208082203Y-42624444D01*
X207650000Y-42538474D01*
X207217797Y-42624444D01*
X206851394Y-42869268D01*
X206606570Y-43235671D01*
X206520600Y-43667874D01*
X203699400Y-43667874D01*
X203645522Y-43397005D01*
X204071944Y-43397005D01*
X204096040Y-43563000D01*
X204983000Y-43563000D01*
X204983000Y-42676476D01*
X205237000Y-42676476D01*
X205237000Y-43563000D01*
X206123960Y-43563000D01*
X206148056Y-43397005D01*
X205956914Y-43022061D01*
X205636837Y-42748805D01*
X205402993Y-42651957D01*
X205237000Y-42676476D01*
X204983000Y-42676476D01*
X204817007Y-42651957D01*
X204583163Y-42748805D01*
X204263086Y-43022061D01*
X204071944Y-43397005D01*
X203645522Y-43397005D01*
X203613430Y-43235671D01*
X203368606Y-42869268D01*
X203002203Y-42624444D01*
X202570000Y-42538474D01*
X202137797Y-42624444D01*
X201771394Y-42869268D01*
X201526570Y-43235671D01*
X201440600Y-43667874D01*
X198619400Y-43667874D01*
X198565522Y-43397005D01*
X198991944Y-43397005D01*
X199016040Y-43563000D01*
X199903000Y-43563000D01*
X199903000Y-42676476D01*
X200157000Y-42676476D01*
X200157000Y-43563000D01*
X201043960Y-43563000D01*
X201068056Y-43397005D01*
X200876914Y-43022061D01*
X200556837Y-42748805D01*
X200322993Y-42651957D01*
X200157000Y-42676476D01*
X199903000Y-42676476D01*
X199737007Y-42651957D01*
X199503163Y-42748805D01*
X199183086Y-43022061D01*
X198991944Y-43397005D01*
X198565522Y-43397005D01*
X198533430Y-43235671D01*
X198288606Y-42869268D01*
X197922203Y-42624444D01*
X197490000Y-42538474D01*
X197057797Y-42624444D01*
X196691394Y-42869268D01*
X196446570Y-43235671D01*
X196360600Y-43667874D01*
X196079400Y-43667874D01*
X195993430Y-43235671D01*
X195748606Y-42869268D01*
X195382203Y-42624444D01*
X194950000Y-42538474D01*
X194517797Y-42624444D01*
X194151394Y-42869268D01*
X193906570Y-43235671D01*
X193820600Y-43667874D01*
X193539400Y-43667874D01*
X193453430Y-43235671D01*
X193208606Y-42869268D01*
X192842203Y-42624444D01*
X192410000Y-42538474D01*
X191977797Y-42624444D01*
X191611394Y-42869268D01*
X191366570Y-43235671D01*
X191280600Y-43667874D01*
X190999400Y-43667874D01*
X190913430Y-43235671D01*
X190668606Y-42869268D01*
X190302203Y-42624444D01*
X189870000Y-42538474D01*
X189437797Y-42624444D01*
X189071394Y-42869268D01*
X188826570Y-43235671D01*
X188740600Y-43667874D01*
X185919400Y-43667874D01*
X185865522Y-43397005D01*
X186291944Y-43397005D01*
X186316040Y-43563000D01*
X187203000Y-43563000D01*
X187203000Y-42676476D01*
X187457000Y-42676476D01*
X187457000Y-43563000D01*
X188343960Y-43563000D01*
X188368056Y-43397005D01*
X188176914Y-43022061D01*
X187856837Y-42748805D01*
X187622993Y-42651957D01*
X187457000Y-42676476D01*
X187203000Y-42676476D01*
X187037007Y-42651957D01*
X186803163Y-42748805D01*
X186483086Y-43022061D01*
X186291944Y-43397005D01*
X185865522Y-43397005D01*
X185833430Y-43235671D01*
X185588606Y-42869268D01*
X185222203Y-42624444D01*
X184790000Y-42538474D01*
X184357797Y-42624444D01*
X183991394Y-42869268D01*
X183746570Y-43235671D01*
X183660600Y-43667874D01*
X183379400Y-43667874D01*
X183293430Y-43235671D01*
X183048606Y-42869268D01*
X182682203Y-42624444D01*
X182250000Y-42538474D01*
X181817797Y-42624444D01*
X181451394Y-42869268D01*
X181206570Y-43235671D01*
X181120600Y-43667874D01*
X178299400Y-43667874D01*
X178245522Y-43397005D01*
X178671944Y-43397005D01*
X178696040Y-43563000D01*
X179583000Y-43563000D01*
X179583000Y-42676476D01*
X179837000Y-42676476D01*
X179837000Y-43563000D01*
X180723960Y-43563000D01*
X180748056Y-43397005D01*
X180556914Y-43022061D01*
X180236837Y-42748805D01*
X180002993Y-42651957D01*
X179837000Y-42676476D01*
X179583000Y-42676476D01*
X179417007Y-42651957D01*
X179183163Y-42748805D01*
X178863086Y-43022061D01*
X178671944Y-43397005D01*
X178245522Y-43397005D01*
X178213430Y-43235671D01*
X177968606Y-42869268D01*
X177602203Y-42624444D01*
X177170000Y-42538474D01*
X176737797Y-42624444D01*
X176371394Y-42869268D01*
X176126570Y-43235671D01*
X176040600Y-43667874D01*
X175759400Y-43667874D01*
X175673430Y-43235671D01*
X175428606Y-42869268D01*
X175062203Y-42624444D01*
X174630000Y-42538474D01*
X174197797Y-42624444D01*
X173831394Y-42869268D01*
X173586570Y-43235671D01*
X173500600Y-43667874D01*
X173219400Y-43667874D01*
X173133430Y-43235671D01*
X172888606Y-42869268D01*
X172522203Y-42624444D01*
X172090000Y-42538474D01*
X171657797Y-42624444D01*
X171291394Y-42869268D01*
X171046570Y-43235671D01*
X170960600Y-43667874D01*
X168139400Y-43667874D01*
X168085522Y-43397005D01*
X168511944Y-43397005D01*
X168536040Y-43563000D01*
X169423000Y-43563000D01*
X169423000Y-42676476D01*
X169677000Y-42676476D01*
X169677000Y-43563000D01*
X170563960Y-43563000D01*
X170588056Y-43397005D01*
X170396914Y-43022061D01*
X170076837Y-42748805D01*
X169842993Y-42651957D01*
X169677000Y-42676476D01*
X169423000Y-42676476D01*
X169257007Y-42651957D01*
X169023163Y-42748805D01*
X168703086Y-43022061D01*
X168511944Y-43397005D01*
X168085522Y-43397005D01*
X168053430Y-43235671D01*
X167808606Y-42869268D01*
X167442203Y-42624444D01*
X167010000Y-42538474D01*
X166577797Y-42624444D01*
X166211394Y-42869268D01*
X165966570Y-43235671D01*
X165880600Y-43667874D01*
X165599400Y-43667874D01*
X165513430Y-43235671D01*
X165268606Y-42869268D01*
X164902203Y-42624444D01*
X164470000Y-42538474D01*
X164037797Y-42624444D01*
X163671394Y-42869268D01*
X163426570Y-43235671D01*
X163340600Y-43667874D01*
X156361200Y-43667874D01*
X156361200Y-38955862D01*
X165945022Y-38955862D01*
X166101408Y-39334346D01*
X166390730Y-39624174D01*
X166768941Y-39781221D01*
X167178462Y-39781578D01*
X167556946Y-39625192D01*
X167846774Y-39335870D01*
X168003821Y-38957659D01*
X168003822Y-38955862D01*
X168485022Y-38955862D01*
X168641408Y-39334346D01*
X168930730Y-39624174D01*
X169308941Y-39781221D01*
X169718462Y-39781578D01*
X170096946Y-39625192D01*
X170386774Y-39335870D01*
X170543821Y-38957659D01*
X170543822Y-38955862D01*
X171025022Y-38955862D01*
X171181408Y-39334346D01*
X171470730Y-39624174D01*
X171848941Y-39781221D01*
X172258462Y-39781578D01*
X172636946Y-39625192D01*
X172926774Y-39335870D01*
X173083821Y-38957659D01*
X173083822Y-38955862D01*
X173565022Y-38955862D01*
X173721408Y-39334346D01*
X174010730Y-39624174D01*
X174388941Y-39781221D01*
X174798462Y-39781578D01*
X175176946Y-39625192D01*
X175466774Y-39335870D01*
X175623821Y-38957659D01*
X175624178Y-38548138D01*
X175467792Y-38169654D01*
X175178470Y-37879826D01*
X174800259Y-37722779D01*
X174390738Y-37722422D01*
X174012254Y-37878808D01*
X173722426Y-38168130D01*
X173565379Y-38546341D01*
X173565022Y-38955862D01*
X173083822Y-38955862D01*
X173084178Y-38548138D01*
X172927792Y-38169654D01*
X172638470Y-37879826D01*
X172260259Y-37722779D01*
X171850738Y-37722422D01*
X171472254Y-37878808D01*
X171182426Y-38168130D01*
X171025379Y-38546341D01*
X171025022Y-38955862D01*
X170543822Y-38955862D01*
X170544178Y-38548138D01*
X170387792Y-38169654D01*
X170098470Y-37879826D01*
X169720259Y-37722779D01*
X169310738Y-37722422D01*
X168932254Y-37878808D01*
X168642426Y-38168130D01*
X168485379Y-38546341D01*
X168485022Y-38955862D01*
X168003822Y-38955862D01*
X168004178Y-38548138D01*
X167847792Y-38169654D01*
X167558470Y-37879826D01*
X167180259Y-37722779D01*
X166770738Y-37722422D01*
X166392254Y-37878808D01*
X166102426Y-38168130D01*
X165945379Y-38546341D01*
X165945022Y-38955862D01*
X156361200Y-38955862D01*
X156361200Y-36396150D01*
X164726000Y-36396150D01*
X164726000Y-37007472D01*
X164760803Y-37091492D01*
X164825109Y-37155798D01*
X164909129Y-37190600D01*
X165520450Y-37190600D01*
X165577600Y-37133450D01*
X165577600Y-36339000D01*
X165831600Y-36339000D01*
X165831600Y-37133450D01*
X165888750Y-37190600D01*
X166500071Y-37190600D01*
X166584091Y-37155798D01*
X166648397Y-37091492D01*
X166683200Y-37007472D01*
X166683200Y-36960832D01*
X167675373Y-36960832D01*
X167765640Y-37087298D01*
X168137061Y-37203960D01*
X168524853Y-37169605D01*
X168723560Y-37087298D01*
X168813827Y-36960832D01*
X170215373Y-36960832D01*
X170305640Y-37087298D01*
X170677061Y-37203960D01*
X171064853Y-37169605D01*
X171263560Y-37087298D01*
X171353827Y-36960832D01*
X172755373Y-36960832D01*
X172845640Y-37087298D01*
X173217061Y-37203960D01*
X173604853Y-37169605D01*
X173803560Y-37087298D01*
X173893827Y-36960832D01*
X173324600Y-36391605D01*
X172755373Y-36960832D01*
X171353827Y-36960832D01*
X170784600Y-36391605D01*
X170215373Y-36960832D01*
X168813827Y-36960832D01*
X168244600Y-36391605D01*
X167675373Y-36960832D01*
X166683200Y-36960832D01*
X166683200Y-36396150D01*
X166626050Y-36339000D01*
X165831600Y-36339000D01*
X165577600Y-36339000D01*
X164783150Y-36339000D01*
X164726000Y-36396150D01*
X156361200Y-36396150D01*
X156361200Y-36104461D01*
X167252640Y-36104461D01*
X167286995Y-36492253D01*
X167369302Y-36690960D01*
X167495768Y-36781227D01*
X168064995Y-36212000D01*
X168424205Y-36212000D01*
X168993432Y-36781227D01*
X169119898Y-36690960D01*
X169236560Y-36319539D01*
X169217506Y-36104461D01*
X169792640Y-36104461D01*
X169826995Y-36492253D01*
X169909302Y-36690960D01*
X170035768Y-36781227D01*
X170604995Y-36212000D01*
X170964205Y-36212000D01*
X171533432Y-36781227D01*
X171659898Y-36690960D01*
X171776560Y-36319539D01*
X171757506Y-36104461D01*
X172332640Y-36104461D01*
X172366995Y-36492253D01*
X172449302Y-36690960D01*
X172575768Y-36781227D01*
X173144995Y-36212000D01*
X173504205Y-36212000D01*
X174073432Y-36781227D01*
X174199898Y-36690960D01*
X174316560Y-36319539D01*
X174282205Y-35931747D01*
X174199898Y-35733040D01*
X174073432Y-35642773D01*
X173504205Y-36212000D01*
X173144995Y-36212000D01*
X172575768Y-35642773D01*
X172449302Y-35733040D01*
X172332640Y-36104461D01*
X171757506Y-36104461D01*
X171742205Y-35931747D01*
X171659898Y-35733040D01*
X171533432Y-35642773D01*
X170964205Y-36212000D01*
X170604995Y-36212000D01*
X170035768Y-35642773D01*
X169909302Y-35733040D01*
X169792640Y-36104461D01*
X169217506Y-36104461D01*
X169202205Y-35931747D01*
X169119898Y-35733040D01*
X168993432Y-35642773D01*
X168424205Y-36212000D01*
X168064995Y-36212000D01*
X167495768Y-35642773D01*
X167369302Y-35733040D01*
X167252640Y-36104461D01*
X156361200Y-36104461D01*
X156361200Y-35416528D01*
X164726000Y-35416528D01*
X164726000Y-36027850D01*
X164783150Y-36085000D01*
X165577600Y-36085000D01*
X165577600Y-35290550D01*
X165831600Y-35290550D01*
X165831600Y-36085000D01*
X166626050Y-36085000D01*
X166683200Y-36027850D01*
X166683200Y-35463168D01*
X167675373Y-35463168D01*
X168244600Y-36032395D01*
X168813827Y-35463168D01*
X170215373Y-35463168D01*
X170784600Y-36032395D01*
X171353827Y-35463168D01*
X172755373Y-35463168D01*
X173324600Y-36032395D01*
X173893827Y-35463168D01*
X173803560Y-35336702D01*
X173432139Y-35220040D01*
X173044347Y-35254395D01*
X172845640Y-35336702D01*
X172755373Y-35463168D01*
X171353827Y-35463168D01*
X171263560Y-35336702D01*
X170892139Y-35220040D01*
X170504347Y-35254395D01*
X170305640Y-35336702D01*
X170215373Y-35463168D01*
X168813827Y-35463168D01*
X168723560Y-35336702D01*
X168352139Y-35220040D01*
X167964347Y-35254395D01*
X167765640Y-35336702D01*
X167675373Y-35463168D01*
X166683200Y-35463168D01*
X166683200Y-35416528D01*
X166648397Y-35332508D01*
X166584091Y-35268202D01*
X166500071Y-35233400D01*
X165888750Y-35233400D01*
X165831600Y-35290550D01*
X165577600Y-35290550D01*
X165520450Y-35233400D01*
X164909129Y-35233400D01*
X164825109Y-35268202D01*
X164760803Y-35332508D01*
X164726000Y-35416528D01*
X156361200Y-35416528D01*
X156361200Y-30278755D01*
X162329835Y-30278755D01*
X162649536Y-31052490D01*
X163240997Y-31644984D01*
X164014172Y-31966034D01*
X164851355Y-31966765D01*
X165625090Y-31647064D01*
X166217584Y-31055603D01*
X166538634Y-30282428D01*
X166538637Y-30278755D01*
X173759835Y-30278755D01*
X174079536Y-31052490D01*
X174670997Y-31644984D01*
X175444172Y-31966034D01*
X176281355Y-31966765D01*
X177055090Y-31647064D01*
X177647584Y-31055603D01*
X177968634Y-30282428D01*
X177969365Y-29445245D01*
X177649664Y-28671510D01*
X177058203Y-28079016D01*
X176285028Y-27757966D01*
X175447845Y-27757235D01*
X174674110Y-28076936D01*
X174081616Y-28668397D01*
X173760566Y-29441572D01*
X173759835Y-30278755D01*
X166538637Y-30278755D01*
X166539365Y-29445245D01*
X166219664Y-28671510D01*
X165628203Y-28079016D01*
X164855028Y-27757966D01*
X164017845Y-27757235D01*
X163244110Y-28076936D01*
X162651616Y-28668397D01*
X162330566Y-29441572D01*
X162329835Y-30278755D01*
X156361200Y-30278755D01*
X156361200Y-21148600D01*
X182952400Y-21148600D01*
X182952400Y-40131980D01*
X182952400Y-40131980D01*
G37*
X182952400Y-40131980D02*
X182952396Y-40132000D01*
X182975506Y-40248183D01*
X183041318Y-40346678D01*
X183139813Y-40412490D01*
X183255996Y-40435600D01*
X220696400Y-40435600D01*
X220696400Y-63696400D01*
X156361200Y-63696400D01*
X156361200Y-47572000D01*
X162636200Y-47572000D01*
X162636200Y-53108000D01*
X162669069Y-53273243D01*
X162741709Y-53381957D01*
X162762671Y-53413329D01*
X163355127Y-54005785D01*
X163355127Y-55270000D01*
X163374609Y-55373539D01*
X163435801Y-55468634D01*
X163529168Y-55532429D01*
X163640000Y-55554873D01*
X165014215Y-55554873D01*
X166982469Y-57523126D01*
X166982471Y-57523129D01*
X167122557Y-57616731D01*
X167149973Y-57622185D01*
X167287800Y-57649601D01*
X167287805Y-57649600D01*
X183357600Y-57649600D01*
X183522843Y-57616731D01*
X183662929Y-57523129D01*
X185115329Y-56070729D01*
X185208931Y-55930643D01*
X185214385Y-55903226D01*
X185241801Y-55765400D01*
X185241800Y-55765395D01*
X185241800Y-55485636D01*
X185242203Y-55485556D01*
X185608606Y-55240732D01*
X185853430Y-54874329D01*
X185939400Y-54442126D01*
X185939400Y-54397874D01*
X185853430Y-53965671D01*
X185608606Y-53599268D01*
X185242203Y-53354444D01*
X184810000Y-53268474D01*
X184377797Y-53354444D01*
X184298252Y-53407594D01*
X183946800Y-53056142D01*
X183946800Y-52604061D01*
X184011394Y-52700732D01*
X184377797Y-52945556D01*
X184810000Y-53031526D01*
X185242203Y-52945556D01*
X185608606Y-52700732D01*
X185623200Y-52678891D01*
X185623200Y-53235000D01*
X185656069Y-53400243D01*
X185708562Y-53478805D01*
X185749671Y-53540329D01*
X186284743Y-54075401D01*
X186220600Y-54397874D01*
X186220600Y-54442126D01*
X186306570Y-54874329D01*
X186551394Y-55240732D01*
X186917797Y-55485556D01*
X187350000Y-55571526D01*
X187782203Y-55485556D01*
X188148606Y-55240732D01*
X188393430Y-54874329D01*
X188479400Y-54442126D01*
X188479400Y-54397874D01*
X188393430Y-53965671D01*
X188148606Y-53599268D01*
X187782203Y-53354444D01*
X187350000Y-53268474D01*
X186917797Y-53354444D01*
X186838252Y-53407594D01*
X186486800Y-53056142D01*
X186486800Y-52515992D01*
X186503086Y-52547939D01*
X186823163Y-52821195D01*
X187057007Y-52918043D01*
X187223000Y-52893524D01*
X187223000Y-52007000D01*
X187203000Y-52007000D01*
X187203000Y-51753000D01*
X187223000Y-51753000D01*
X187223000Y-50866476D01*
X187477000Y-50866476D01*
X187477000Y-51753000D01*
X187497000Y-51753000D01*
X187497000Y-52007000D01*
X187477000Y-52007000D01*
X187477000Y-52893524D01*
X187642993Y-52918043D01*
X187876837Y-52821195D01*
X188163200Y-52576721D01*
X188163200Y-53235000D01*
X188196069Y-53400243D01*
X188248562Y-53478805D01*
X188289671Y-53540329D01*
X188824743Y-54075401D01*
X188760600Y-54397874D01*
X188760600Y-54442126D01*
X188846570Y-54874329D01*
X189091394Y-55240732D01*
X189457797Y-55485556D01*
X189890000Y-55571526D01*
X190322203Y-55485556D01*
X190688606Y-55240732D01*
X190933430Y-54874329D01*
X191019400Y-54442126D01*
X191019400Y-54397874D01*
X190933430Y-53965671D01*
X190688606Y-53599268D01*
X190322203Y-53354444D01*
X189890000Y-53268474D01*
X189457797Y-53354444D01*
X189378252Y-53407594D01*
X189026800Y-53056142D01*
X189026800Y-52604061D01*
X189091394Y-52700732D01*
X189457797Y-52945556D01*
X189890000Y-53031526D01*
X190322203Y-52945556D01*
X190688606Y-52700732D01*
X190703200Y-52678891D01*
X190703200Y-53235000D01*
X190736069Y-53400243D01*
X190788562Y-53478805D01*
X190829671Y-53540329D01*
X191364743Y-54075401D01*
X191300600Y-54397874D01*
X191300600Y-54442126D01*
X191386570Y-54874329D01*
X191631394Y-55240732D01*
X191997797Y-55485556D01*
X192430000Y-55571526D01*
X192862203Y-55485556D01*
X193228606Y-55240732D01*
X193473430Y-54874329D01*
X193505521Y-54712995D01*
X193931944Y-54712995D01*
X194123086Y-55087939D01*
X194443163Y-55361195D01*
X194677007Y-55458043D01*
X194843000Y-55433524D01*
X194843000Y-54547000D01*
X195097000Y-54547000D01*
X195097000Y-55433524D01*
X195262993Y-55458043D01*
X195496837Y-55361195D01*
X195816914Y-55087939D01*
X196008056Y-54712995D01*
X195983960Y-54547000D01*
X195097000Y-54547000D01*
X194843000Y-54547000D01*
X193956040Y-54547000D01*
X193931944Y-54712995D01*
X193505521Y-54712995D01*
X193559400Y-54442126D01*
X193559400Y-54397874D01*
X196380600Y-54397874D01*
X196380600Y-54442126D01*
X196466570Y-54874329D01*
X196711394Y-55240732D01*
X197077797Y-55485556D01*
X197510000Y-55571526D01*
X197942203Y-55485556D01*
X198308606Y-55240732D01*
X198553430Y-54874329D01*
X198639400Y-54442126D01*
X198639400Y-54397874D01*
X198553430Y-53965671D01*
X198308606Y-53599268D01*
X197942203Y-53354444D01*
X197510000Y-53268474D01*
X197077797Y-53354444D01*
X196711394Y-53599268D01*
X196466570Y-53965671D01*
X196380600Y-54397874D01*
X193559400Y-54397874D01*
X193505522Y-54127005D01*
X193931944Y-54127005D01*
X193956040Y-54293000D01*
X194843000Y-54293000D01*
X194843000Y-53406476D01*
X195097000Y-53406476D01*
X195097000Y-54293000D01*
X195983960Y-54293000D01*
X196008056Y-54127005D01*
X195816914Y-53752061D01*
X195496837Y-53478805D01*
X195262993Y-53381957D01*
X195097000Y-53406476D01*
X194843000Y-53406476D01*
X194677007Y-53381957D01*
X194443163Y-53478805D01*
X194123086Y-53752061D01*
X193931944Y-54127005D01*
X193505522Y-54127005D01*
X193473430Y-53965671D01*
X193228606Y-53599268D01*
X192862203Y-53354444D01*
X192430000Y-53268474D01*
X191997797Y-53354444D01*
X191918252Y-53407594D01*
X191566800Y-53056142D01*
X191566800Y-52604061D01*
X191631394Y-52700732D01*
X191997797Y-52945556D01*
X192430000Y-53031526D01*
X192862203Y-52945556D01*
X193228606Y-52700732D01*
X193473430Y-52334329D01*
X193559400Y-51902126D01*
X193559400Y-51857874D01*
X193840600Y-51857874D01*
X193840600Y-51902126D01*
X193926570Y-52334329D01*
X194171394Y-52700732D01*
X194537797Y-52945556D01*
X194970000Y-53031526D01*
X195402203Y-52945556D01*
X195768606Y-52700732D01*
X196013430Y-52334329D01*
X196099400Y-51902126D01*
X196099400Y-51857874D01*
X196380600Y-51857874D01*
X196380600Y-51902126D01*
X196466570Y-52334329D01*
X196711394Y-52700732D01*
X197077797Y-52945556D01*
X197510000Y-53031526D01*
X197942203Y-52945556D01*
X198308606Y-52700732D01*
X198323200Y-52678891D01*
X198323200Y-53235000D01*
X198356069Y-53400243D01*
X198408562Y-53478805D01*
X198449671Y-53540329D01*
X198984743Y-54075401D01*
X198920600Y-54397874D01*
X198920600Y-54442126D01*
X199006570Y-54874329D01*
X199251394Y-55240732D01*
X199617797Y-55485556D01*
X200050000Y-55571526D01*
X200482203Y-55485556D01*
X200848606Y-55240732D01*
X201093430Y-54874329D01*
X201179400Y-54442126D01*
X201179400Y-54397874D01*
X201093430Y-53965671D01*
X200848606Y-53599268D01*
X200482203Y-53354444D01*
X200050000Y-53268474D01*
X199617797Y-53354444D01*
X199538252Y-53407594D01*
X199186800Y-53056142D01*
X199186800Y-52515992D01*
X199203086Y-52547939D01*
X199523163Y-52821195D01*
X199757007Y-52918043D01*
X199923000Y-52893524D01*
X199923000Y-52007000D01*
X199903000Y-52007000D01*
X199903000Y-51753000D01*
X199923000Y-51753000D01*
X199923000Y-50866476D01*
X200177000Y-50866476D01*
X200177000Y-51753000D01*
X200197000Y-51753000D01*
X200197000Y-52007000D01*
X200177000Y-52007000D01*
X200177000Y-52893524D01*
X200342993Y-52918043D01*
X200576837Y-52821195D01*
X200863200Y-52576721D01*
X200863200Y-53235000D01*
X200896069Y-53400243D01*
X200948562Y-53478805D01*
X200989671Y-53540329D01*
X201524743Y-54075401D01*
X201460600Y-54397874D01*
X201460600Y-54442126D01*
X201546570Y-54874329D01*
X201791394Y-55240732D01*
X202157797Y-55485556D01*
X202590000Y-55571526D01*
X203022203Y-55485556D01*
X203388606Y-55240732D01*
X203633430Y-54874329D01*
X203719400Y-54442126D01*
X203719400Y-54397874D01*
X203633430Y-53965671D01*
X203388606Y-53599268D01*
X203022203Y-53354444D01*
X202590000Y-53268474D01*
X202157797Y-53354444D01*
X202078252Y-53407594D01*
X201726800Y-53056142D01*
X201726800Y-52604061D01*
X201791394Y-52700732D01*
X202157797Y-52945556D01*
X202590000Y-53031526D01*
X203022203Y-52945556D01*
X203388606Y-52700732D01*
X203403200Y-52678891D01*
X203403200Y-53235000D01*
X203436069Y-53400243D01*
X203488562Y-53478805D01*
X203529671Y-53540329D01*
X204064743Y-54075401D01*
X204000600Y-54397874D01*
X204000600Y-54442126D01*
X204086570Y-54874329D01*
X204331394Y-55240732D01*
X204697797Y-55485556D01*
X205130000Y-55571526D01*
X205562203Y-55485556D01*
X205928606Y-55240732D01*
X206173430Y-54874329D01*
X206259400Y-54442126D01*
X206259400Y-54397874D01*
X206173430Y-53965671D01*
X205928606Y-53599268D01*
X205562203Y-53354444D01*
X205130000Y-53268474D01*
X204697797Y-53354444D01*
X204618252Y-53407594D01*
X204266800Y-53056142D01*
X204266800Y-52515992D01*
X204283086Y-52547939D01*
X204603163Y-52821195D01*
X204837007Y-52918043D01*
X205003000Y-52893524D01*
X205003000Y-52007000D01*
X204983000Y-52007000D01*
X204983000Y-51753000D01*
X205003000Y-51753000D01*
X205003000Y-50866476D01*
X205257000Y-50866476D01*
X205257000Y-51753000D01*
X205277000Y-51753000D01*
X205277000Y-52007000D01*
X205257000Y-52007000D01*
X205257000Y-52893524D01*
X205422993Y-52918043D01*
X205656837Y-52821195D01*
X205943200Y-52576721D01*
X205943200Y-53235000D01*
X205976069Y-53400243D01*
X206028562Y-53478805D01*
X206069671Y-53540329D01*
X206604743Y-54075401D01*
X206540600Y-54397874D01*
X206540600Y-54442126D01*
X206626570Y-54874329D01*
X206871394Y-55240732D01*
X207237797Y-55485556D01*
X207670000Y-55571526D01*
X208102203Y-55485556D01*
X208468606Y-55240732D01*
X208713430Y-54874329D01*
X208799400Y-54442126D01*
X208799400Y-54397874D01*
X208713430Y-53965671D01*
X208468606Y-53599268D01*
X208102203Y-53354444D01*
X207670000Y-53268474D01*
X207237797Y-53354444D01*
X207158252Y-53407594D01*
X206806800Y-53056142D01*
X206806800Y-52604061D01*
X206871394Y-52700732D01*
X207237797Y-52945556D01*
X207670000Y-53031526D01*
X208102203Y-52945556D01*
X208468606Y-52700732D01*
X208483200Y-52678891D01*
X208483200Y-53235000D01*
X208516069Y-53400243D01*
X208568562Y-53478805D01*
X208609671Y-53540329D01*
X209144743Y-54075401D01*
X209080600Y-54397874D01*
X209080600Y-54442126D01*
X209166570Y-54874329D01*
X209411394Y-55240732D01*
X209777797Y-55485556D01*
X210210000Y-55571526D01*
X210642203Y-55485556D01*
X211008606Y-55240732D01*
X211253430Y-54874329D01*
X211285521Y-54712995D01*
X211711944Y-54712995D01*
X211903086Y-55087939D01*
X212223163Y-55361195D01*
X212457007Y-55458043D01*
X212623000Y-55433524D01*
X212623000Y-54547000D01*
X212877000Y-54547000D01*
X212877000Y-55433524D01*
X213042993Y-55458043D01*
X213276837Y-55361195D01*
X213596914Y-55087939D01*
X213788056Y-54712995D01*
X213763960Y-54547000D01*
X212877000Y-54547000D01*
X212623000Y-54547000D01*
X211736040Y-54547000D01*
X211711944Y-54712995D01*
X211285521Y-54712995D01*
X211339400Y-54442126D01*
X211339400Y-54397874D01*
X211285522Y-54127005D01*
X211711944Y-54127005D01*
X211736040Y-54293000D01*
X212623000Y-54293000D01*
X212623000Y-53406476D01*
X212877000Y-53406476D01*
X212877000Y-54293000D01*
X213763960Y-54293000D01*
X213788056Y-54127005D01*
X213596914Y-53752061D01*
X213276837Y-53478805D01*
X213042993Y-53381957D01*
X212877000Y-53406476D01*
X212623000Y-53406476D01*
X212457007Y-53381957D01*
X212223163Y-53478805D01*
X211903086Y-53752061D01*
X211711944Y-54127005D01*
X211285522Y-54127005D01*
X211253430Y-53965671D01*
X211008606Y-53599268D01*
X210642203Y-53354444D01*
X210210000Y-53268474D01*
X209777797Y-53354444D01*
X209698252Y-53407594D01*
X209346800Y-53056142D01*
X209346800Y-52604061D01*
X209411394Y-52700732D01*
X209777797Y-52945556D01*
X210210000Y-53031526D01*
X210642203Y-52945556D01*
X211008606Y-52700732D01*
X211253430Y-52334329D01*
X211339400Y-51902126D01*
X211339400Y-51857874D01*
X211620600Y-51857874D01*
X211620600Y-51902126D01*
X211706570Y-52334329D01*
X211951394Y-52700732D01*
X212317797Y-52945556D01*
X212750000Y-53031526D01*
X213182203Y-52945556D01*
X213548606Y-52700732D01*
X213793430Y-52334329D01*
X213879400Y-51902126D01*
X213879400Y-51857874D01*
X213793430Y-51425671D01*
X213548606Y-51059268D01*
X213182203Y-50814444D01*
X212750000Y-50728474D01*
X212317797Y-50814444D01*
X211951394Y-51059268D01*
X211706570Y-51425671D01*
X211620600Y-51857874D01*
X211339400Y-51857874D01*
X211253430Y-51425671D01*
X211008606Y-51059268D01*
X210642203Y-50814444D01*
X210210000Y-50728474D01*
X209777797Y-50814444D01*
X209411394Y-51059268D01*
X209346800Y-51155939D01*
X209346800Y-47623858D01*
X209708225Y-47262433D01*
X209757797Y-47295556D01*
X210190000Y-47381526D01*
X210622203Y-47295556D01*
X210988606Y-47050732D01*
X211233430Y-46684329D01*
X211265521Y-46522995D01*
X211691944Y-46522995D01*
X211883086Y-46897939D01*
X212203163Y-47171195D01*
X212437007Y-47268043D01*
X212603000Y-47243524D01*
X212603000Y-46357000D01*
X212857000Y-46357000D01*
X212857000Y-47243524D01*
X213022993Y-47268043D01*
X213256837Y-47171195D01*
X213576914Y-46897939D01*
X213768056Y-46522995D01*
X213743960Y-46357000D01*
X212857000Y-46357000D01*
X212603000Y-46357000D01*
X211716040Y-46357000D01*
X211691944Y-46522995D01*
X211265521Y-46522995D01*
X211319400Y-46252126D01*
X211319400Y-46207874D01*
X211265522Y-45937005D01*
X211691944Y-45937005D01*
X211716040Y-46103000D01*
X212603000Y-46103000D01*
X212603000Y-45216476D01*
X212857000Y-45216476D01*
X212857000Y-46103000D01*
X213743960Y-46103000D01*
X213768056Y-45937005D01*
X213709778Y-45822686D01*
X215870318Y-45822686D01*
X216117856Y-46421775D01*
X216575814Y-46880533D01*
X217174470Y-47129117D01*
X217822686Y-47129682D01*
X218421775Y-46882144D01*
X218880533Y-46424186D01*
X219129117Y-45825530D01*
X219129682Y-45177314D01*
X218882144Y-44578225D01*
X218424186Y-44119467D01*
X217825530Y-43870883D01*
X217177314Y-43870318D01*
X216578225Y-44117856D01*
X216119467Y-44575814D01*
X215870883Y-45174470D01*
X215870318Y-45822686D01*
X213709778Y-45822686D01*
X213576914Y-45562061D01*
X213256837Y-45288805D01*
X213022993Y-45191957D01*
X212857000Y-45216476D01*
X212603000Y-45216476D01*
X212437007Y-45191957D01*
X212203163Y-45288805D01*
X211883086Y-45562061D01*
X211691944Y-45937005D01*
X211265522Y-45937005D01*
X211233430Y-45775671D01*
X210988606Y-45409268D01*
X210622203Y-45164444D01*
X210190000Y-45078474D01*
X209757797Y-45164444D01*
X209391394Y-45409268D01*
X209146570Y-45775671D01*
X209060600Y-46207874D01*
X209060600Y-46252126D01*
X209133039Y-46616303D01*
X208609671Y-47139671D01*
X208516069Y-47279757D01*
X208483200Y-47445000D01*
X208483200Y-51081109D01*
X208468606Y-51059268D01*
X208102203Y-50814444D01*
X207670000Y-50728474D01*
X207237797Y-50814444D01*
X206871394Y-51059268D01*
X206806800Y-51155939D01*
X206806800Y-47623858D01*
X207168225Y-47262433D01*
X207217797Y-47295556D01*
X207650000Y-47381526D01*
X208082203Y-47295556D01*
X208448606Y-47050732D01*
X208693430Y-46684329D01*
X208779400Y-46252126D01*
X208779400Y-46207874D01*
X208693430Y-45775671D01*
X208448606Y-45409268D01*
X208082203Y-45164444D01*
X207650000Y-45078474D01*
X207217797Y-45164444D01*
X206851394Y-45409268D01*
X206606570Y-45775671D01*
X206520600Y-46207874D01*
X206520600Y-46252126D01*
X206593039Y-46616303D01*
X206069671Y-47139671D01*
X205976069Y-47279757D01*
X205943200Y-47445000D01*
X205943200Y-51183279D01*
X205656837Y-50938805D01*
X205422993Y-50841957D01*
X205257000Y-50866476D01*
X205003000Y-50866476D01*
X204837007Y-50841957D01*
X204603163Y-50938805D01*
X204283086Y-51212061D01*
X204266800Y-51244008D01*
X204266800Y-47623858D01*
X204628225Y-47262433D01*
X204677797Y-47295556D01*
X205110000Y-47381526D01*
X205542203Y-47295556D01*
X205908606Y-47050732D01*
X206153430Y-46684329D01*
X206239400Y-46252126D01*
X206239400Y-46207874D01*
X206153430Y-45775671D01*
X205908606Y-45409268D01*
X205542203Y-45164444D01*
X205110000Y-45078474D01*
X204677797Y-45164444D01*
X204311394Y-45409268D01*
X204066570Y-45775671D01*
X203980600Y-46207874D01*
X203980600Y-46252126D01*
X204053039Y-46616303D01*
X203529671Y-47139671D01*
X203436069Y-47279757D01*
X203403200Y-47445000D01*
X203403200Y-51081109D01*
X203388606Y-51059268D01*
X203022203Y-50814444D01*
X202590000Y-50728474D01*
X202157797Y-50814444D01*
X201791394Y-51059268D01*
X201726800Y-51155939D01*
X201726800Y-47623858D01*
X202088225Y-47262433D01*
X202137797Y-47295556D01*
X202570000Y-47381526D01*
X203002203Y-47295556D01*
X203368606Y-47050732D01*
X203613430Y-46684329D01*
X203699400Y-46252126D01*
X203699400Y-46207874D01*
X203613430Y-45775671D01*
X203368606Y-45409268D01*
X203002203Y-45164444D01*
X202570000Y-45078474D01*
X202137797Y-45164444D01*
X201771394Y-45409268D01*
X201526570Y-45775671D01*
X201440600Y-46207874D01*
X201440600Y-46252126D01*
X201513039Y-46616303D01*
X200989671Y-47139671D01*
X200896069Y-47279757D01*
X200863200Y-47445000D01*
X200863200Y-51183279D01*
X200576837Y-50938805D01*
X200342993Y-50841957D01*
X200177000Y-50866476D01*
X199923000Y-50866476D01*
X199757007Y-50841957D01*
X199523163Y-50938805D01*
X199203086Y-51212061D01*
X199186800Y-51244008D01*
X199186800Y-47623858D01*
X199548225Y-47262433D01*
X199597797Y-47295556D01*
X200030000Y-47381526D01*
X200462203Y-47295556D01*
X200828606Y-47050732D01*
X201073430Y-46684329D01*
X201159400Y-46252126D01*
X201159400Y-46207874D01*
X201073430Y-45775671D01*
X200828606Y-45409268D01*
X200462203Y-45164444D01*
X200030000Y-45078474D01*
X199597797Y-45164444D01*
X199231394Y-45409268D01*
X198986570Y-45775671D01*
X198900600Y-46207874D01*
X198900600Y-46252126D01*
X198973039Y-46616303D01*
X198449671Y-47139671D01*
X198356069Y-47279757D01*
X198323200Y-47445000D01*
X198323200Y-51081109D01*
X198308606Y-51059268D01*
X197942203Y-50814444D01*
X197510000Y-50728474D01*
X197077797Y-50814444D01*
X196711394Y-51059268D01*
X196466570Y-51425671D01*
X196380600Y-51857874D01*
X196099400Y-51857874D01*
X196013430Y-51425671D01*
X195768606Y-51059268D01*
X195402203Y-50814444D01*
X194970000Y-50728474D01*
X194537797Y-50814444D01*
X194171394Y-51059268D01*
X193926570Y-51425671D01*
X193840600Y-51857874D01*
X193559400Y-51857874D01*
X193473430Y-51425671D01*
X193228606Y-51059268D01*
X192862203Y-50814444D01*
X192430000Y-50728474D01*
X191997797Y-50814444D01*
X191631394Y-51059268D01*
X191566800Y-51155939D01*
X191566800Y-47623858D01*
X191928225Y-47262433D01*
X191977797Y-47295556D01*
X192410000Y-47381526D01*
X192842203Y-47295556D01*
X193208606Y-47050732D01*
X193453430Y-46684329D01*
X193485521Y-46522995D01*
X193911944Y-46522995D01*
X194103086Y-46897939D01*
X194423163Y-47171195D01*
X194657007Y-47268043D01*
X194823000Y-47243524D01*
X194823000Y-46357000D01*
X195077000Y-46357000D01*
X195077000Y-47243524D01*
X195242993Y-47268043D01*
X195476837Y-47171195D01*
X195796914Y-46897939D01*
X195988056Y-46522995D01*
X195963960Y-46357000D01*
X195077000Y-46357000D01*
X194823000Y-46357000D01*
X193936040Y-46357000D01*
X193911944Y-46522995D01*
X193485521Y-46522995D01*
X193539400Y-46252126D01*
X193539400Y-46207874D01*
X196360600Y-46207874D01*
X196360600Y-46252126D01*
X196446570Y-46684329D01*
X196691394Y-47050732D01*
X197057797Y-47295556D01*
X197490000Y-47381526D01*
X197922203Y-47295556D01*
X198288606Y-47050732D01*
X198533430Y-46684329D01*
X198619400Y-46252126D01*
X198619400Y-46207874D01*
X198533430Y-45775671D01*
X198288606Y-45409268D01*
X197922203Y-45164444D01*
X197490000Y-45078474D01*
X197057797Y-45164444D01*
X196691394Y-45409268D01*
X196446570Y-45775671D01*
X196360600Y-46207874D01*
X193539400Y-46207874D01*
X193485522Y-45937005D01*
X193911944Y-45937005D01*
X193936040Y-46103000D01*
X194823000Y-46103000D01*
X194823000Y-45216476D01*
X195077000Y-45216476D01*
X195077000Y-46103000D01*
X195963960Y-46103000D01*
X195988056Y-45937005D01*
X195796914Y-45562061D01*
X195476837Y-45288805D01*
X195242993Y-45191957D01*
X195077000Y-45216476D01*
X194823000Y-45216476D01*
X194657007Y-45191957D01*
X194423163Y-45288805D01*
X194103086Y-45562061D01*
X193911944Y-45937005D01*
X193485522Y-45937005D01*
X193453430Y-45775671D01*
X193208606Y-45409268D01*
X192842203Y-45164444D01*
X192410000Y-45078474D01*
X191977797Y-45164444D01*
X191611394Y-45409268D01*
X191366570Y-45775671D01*
X191280600Y-46207874D01*
X191280600Y-46252126D01*
X191353039Y-46616303D01*
X190829671Y-47139671D01*
X190736069Y-47279757D01*
X190703200Y-47445000D01*
X190703200Y-51081109D01*
X190688606Y-51059268D01*
X190322203Y-50814444D01*
X189890000Y-50728474D01*
X189457797Y-50814444D01*
X189091394Y-51059268D01*
X189026800Y-51155939D01*
X189026800Y-47623858D01*
X189388225Y-47262433D01*
X189437797Y-47295556D01*
X189870000Y-47381526D01*
X190302203Y-47295556D01*
X190668606Y-47050732D01*
X190913430Y-46684329D01*
X190999400Y-46252126D01*
X190999400Y-46207874D01*
X190913430Y-45775671D01*
X190668606Y-45409268D01*
X190302203Y-45164444D01*
X189870000Y-45078474D01*
X189437797Y-45164444D01*
X189071394Y-45409268D01*
X188826570Y-45775671D01*
X188740600Y-46207874D01*
X188740600Y-46252126D01*
X188813039Y-46616303D01*
X188289671Y-47139671D01*
X188196069Y-47279757D01*
X188163200Y-47445000D01*
X188163200Y-51183279D01*
X187876837Y-50938805D01*
X187642993Y-50841957D01*
X187477000Y-50866476D01*
X187223000Y-50866476D01*
X187057007Y-50841957D01*
X186823163Y-50938805D01*
X186503086Y-51212061D01*
X186486800Y-51244008D01*
X186486800Y-47623858D01*
X186848225Y-47262433D01*
X186897797Y-47295556D01*
X187330000Y-47381526D01*
X187762203Y-47295556D01*
X188128606Y-47050732D01*
X188373430Y-46684329D01*
X188459400Y-46252126D01*
X188459400Y-46207874D01*
X188373430Y-45775671D01*
X188128606Y-45409268D01*
X187762203Y-45164444D01*
X187330000Y-45078474D01*
X186897797Y-45164444D01*
X186531394Y-45409268D01*
X186286570Y-45775671D01*
X186200600Y-46207874D01*
X186200600Y-46252126D01*
X186273039Y-46616303D01*
X185749671Y-47139671D01*
X185656069Y-47279757D01*
X185623200Y-47445000D01*
X185623200Y-51081109D01*
X185608606Y-51059268D01*
X185242203Y-50814444D01*
X184810000Y-50728474D01*
X184377797Y-50814444D01*
X184011394Y-51059268D01*
X183946800Y-51155939D01*
X183946800Y-47623858D01*
X184308225Y-47262433D01*
X184357797Y-47295556D01*
X184790000Y-47381526D01*
X185222203Y-47295556D01*
X185588606Y-47050732D01*
X185833430Y-46684329D01*
X185919400Y-46252126D01*
X185919400Y-46207874D01*
X185833430Y-45775671D01*
X185588606Y-45409268D01*
X185222203Y-45164444D01*
X184790000Y-45078474D01*
X184357797Y-45164444D01*
X183991394Y-45409268D01*
X183746570Y-45775671D01*
X183660600Y-46207874D01*
X183660600Y-46252126D01*
X183733039Y-46616303D01*
X183209671Y-47139671D01*
X183116069Y-47279757D01*
X183083200Y-47445000D01*
X183083200Y-51081109D01*
X183068606Y-51059268D01*
X182702203Y-50814444D01*
X182270000Y-50728474D01*
X181837797Y-50814444D01*
X181471394Y-51059268D01*
X181406800Y-51155939D01*
X181406800Y-47623858D01*
X181768225Y-47262433D01*
X181817797Y-47295556D01*
X182250000Y-47381526D01*
X182682203Y-47295556D01*
X183048606Y-47050732D01*
X183293430Y-46684329D01*
X183379400Y-46252126D01*
X183379400Y-46207874D01*
X183293430Y-45775671D01*
X183048606Y-45409268D01*
X182682203Y-45164444D01*
X182250000Y-45078474D01*
X181817797Y-45164444D01*
X181451394Y-45409268D01*
X181206570Y-45775671D01*
X181120600Y-46207874D01*
X181120600Y-46252126D01*
X181193039Y-46616303D01*
X180669671Y-47139671D01*
X180576069Y-47279757D01*
X180543200Y-47445000D01*
X180543200Y-51183279D01*
X180256837Y-50938805D01*
X180022993Y-50841957D01*
X179857000Y-50866476D01*
X179857000Y-51753000D01*
X179877000Y-51753000D01*
X179877000Y-52007000D01*
X179857000Y-52007000D01*
X179857000Y-52893524D01*
X180022993Y-52918043D01*
X180256837Y-52821195D01*
X180543200Y-52576721D01*
X180543200Y-53235000D01*
X180576069Y-53400243D01*
X180628562Y-53478805D01*
X180669671Y-53540329D01*
X181204743Y-54075401D01*
X181140600Y-54397874D01*
X181140600Y-54442126D01*
X181226570Y-54874329D01*
X181471394Y-55240732D01*
X181837797Y-55485556D01*
X182270000Y-55571526D01*
X182702203Y-55485556D01*
X183068606Y-55240732D01*
X183313430Y-54874329D01*
X183399400Y-54442126D01*
X183399400Y-54397874D01*
X183313430Y-53965671D01*
X183068606Y-53599268D01*
X182702203Y-53354444D01*
X182270000Y-53268474D01*
X181837797Y-53354444D01*
X181758252Y-53407594D01*
X181406800Y-53056142D01*
X181406800Y-52604061D01*
X181471394Y-52700732D01*
X181837797Y-52945556D01*
X182270000Y-53031526D01*
X182702203Y-52945556D01*
X183068606Y-52700732D01*
X183083200Y-52678891D01*
X183083200Y-53235000D01*
X183116069Y-53400243D01*
X183168562Y-53478805D01*
X183209671Y-53540329D01*
X183744743Y-54075401D01*
X183680600Y-54397874D01*
X183680600Y-54442126D01*
X183766570Y-54874329D01*
X184011394Y-55240732D01*
X184377797Y-55485556D01*
X184378200Y-55485636D01*
X184378200Y-55586542D01*
X183178742Y-56786000D01*
X167466657Y-56786000D01*
X165624873Y-54944215D01*
X165624873Y-53735531D01*
X165964743Y-54075401D01*
X165900600Y-54397874D01*
X165900600Y-54442126D01*
X165986570Y-54874329D01*
X166231394Y-55240732D01*
X166597797Y-55485556D01*
X167030000Y-55571526D01*
X167462203Y-55485556D01*
X167828606Y-55240732D01*
X168073430Y-54874329D01*
X168159400Y-54442126D01*
X168159400Y-54397874D01*
X168073430Y-53965671D01*
X167828606Y-53599268D01*
X167462203Y-53354444D01*
X167030000Y-53268474D01*
X166597797Y-53354444D01*
X166518252Y-53407594D01*
X166166800Y-53056142D01*
X166166800Y-52604061D01*
X166231394Y-52700732D01*
X166597797Y-52945556D01*
X167030000Y-53031526D01*
X167462203Y-52945556D01*
X167828606Y-52700732D01*
X167843200Y-52678891D01*
X167843200Y-53235000D01*
X167876069Y-53400243D01*
X167928562Y-53478805D01*
X167969671Y-53540329D01*
X168504743Y-54075401D01*
X168440600Y-54397874D01*
X168440600Y-54442126D01*
X168526570Y-54874329D01*
X168771394Y-55240732D01*
X169137797Y-55485556D01*
X169570000Y-55571526D01*
X170002203Y-55485556D01*
X170368606Y-55240732D01*
X170613430Y-54874329D01*
X170699400Y-54442126D01*
X170699400Y-54397874D01*
X170613430Y-53965671D01*
X170368606Y-53599268D01*
X170002203Y-53354444D01*
X169570000Y-53268474D01*
X169137797Y-53354444D01*
X169058252Y-53407594D01*
X168706800Y-53056142D01*
X168706800Y-52515992D01*
X168723086Y-52547939D01*
X169043163Y-52821195D01*
X169277007Y-52918043D01*
X169443000Y-52893524D01*
X169443000Y-52007000D01*
X169423000Y-52007000D01*
X169423000Y-51753000D01*
X169443000Y-51753000D01*
X169443000Y-50866476D01*
X169697000Y-50866476D01*
X169697000Y-51753000D01*
X169717000Y-51753000D01*
X169717000Y-52007000D01*
X169697000Y-52007000D01*
X169697000Y-52893524D01*
X169862993Y-52918043D01*
X170096837Y-52821195D01*
X170383200Y-52576721D01*
X170383200Y-53235000D01*
X170416069Y-53400243D01*
X170468562Y-53478805D01*
X170509671Y-53540329D01*
X171044743Y-54075401D01*
X170980600Y-54397874D01*
X170980600Y-54442126D01*
X171066570Y-54874329D01*
X171311394Y-55240732D01*
X171677797Y-55485556D01*
X172110000Y-55571526D01*
X172542203Y-55485556D01*
X172908606Y-55240732D01*
X173153430Y-54874329D01*
X173185521Y-54712995D01*
X173611944Y-54712995D01*
X173803086Y-55087939D01*
X174123163Y-55361195D01*
X174357007Y-55458043D01*
X174523000Y-55433524D01*
X174523000Y-54547000D01*
X174777000Y-54547000D01*
X174777000Y-55433524D01*
X174942993Y-55458043D01*
X175176837Y-55361195D01*
X175496914Y-55087939D01*
X175688056Y-54712995D01*
X175663960Y-54547000D01*
X174777000Y-54547000D01*
X174523000Y-54547000D01*
X173636040Y-54547000D01*
X173611944Y-54712995D01*
X173185521Y-54712995D01*
X173239400Y-54442126D01*
X173239400Y-54397874D01*
X173185522Y-54127005D01*
X173611944Y-54127005D01*
X173636040Y-54293000D01*
X174523000Y-54293000D01*
X174523000Y-53406476D01*
X174777000Y-53406476D01*
X174777000Y-54293000D01*
X175663960Y-54293000D01*
X175688056Y-54127005D01*
X175496914Y-53752061D01*
X175176837Y-53478805D01*
X174942993Y-53381957D01*
X174777000Y-53406476D01*
X174523000Y-53406476D01*
X174357007Y-53381957D01*
X174123163Y-53478805D01*
X173803086Y-53752061D01*
X173611944Y-54127005D01*
X173185522Y-54127005D01*
X173153430Y-53965671D01*
X172908606Y-53599268D01*
X172542203Y-53354444D01*
X172110000Y-53268474D01*
X171677797Y-53354444D01*
X171598252Y-53407594D01*
X171246800Y-53056142D01*
X171246800Y-52604061D01*
X171311394Y-52700732D01*
X171677797Y-52945556D01*
X172110000Y-53031526D01*
X172542203Y-52945556D01*
X172908606Y-52700732D01*
X173153430Y-52334329D01*
X173239400Y-51902126D01*
X173239400Y-51857874D01*
X173520600Y-51857874D01*
X173520600Y-51902126D01*
X173606570Y-52334329D01*
X173851394Y-52700732D01*
X174217797Y-52945556D01*
X174650000Y-53031526D01*
X175082203Y-52945556D01*
X175448606Y-52700732D01*
X175463200Y-52678891D01*
X175463200Y-53235000D01*
X175496069Y-53400243D01*
X175548562Y-53478805D01*
X175589671Y-53540329D01*
X176124743Y-54075401D01*
X176060600Y-54397874D01*
X176060600Y-54442126D01*
X176146570Y-54874329D01*
X176391394Y-55240732D01*
X176757797Y-55485556D01*
X177190000Y-55571526D01*
X177622203Y-55485556D01*
X177988606Y-55240732D01*
X178233430Y-54874329D01*
X178319400Y-54442126D01*
X178319400Y-54397874D01*
X178233430Y-53965671D01*
X177988606Y-53599268D01*
X177622203Y-53354444D01*
X177190000Y-53268474D01*
X176757797Y-53354444D01*
X176678252Y-53407594D01*
X176326800Y-53056142D01*
X176326800Y-52604061D01*
X176391394Y-52700732D01*
X176757797Y-52945556D01*
X177190000Y-53031526D01*
X177622203Y-52945556D01*
X177988606Y-52700732D01*
X178003200Y-52678891D01*
X178003200Y-53235000D01*
X178036069Y-53400243D01*
X178088562Y-53478805D01*
X178129671Y-53540329D01*
X178664743Y-54075401D01*
X178600600Y-54397874D01*
X178600600Y-54442126D01*
X178686570Y-54874329D01*
X178931394Y-55240732D01*
X179297797Y-55485556D01*
X179730000Y-55571526D01*
X180162203Y-55485556D01*
X180528606Y-55240732D01*
X180773430Y-54874329D01*
X180859400Y-54442126D01*
X180859400Y-54397874D01*
X180773430Y-53965671D01*
X180528606Y-53599268D01*
X180162203Y-53354444D01*
X179730000Y-53268474D01*
X179297797Y-53354444D01*
X179218252Y-53407594D01*
X178866800Y-53056142D01*
X178866800Y-52515992D01*
X178883086Y-52547939D01*
X179203163Y-52821195D01*
X179437007Y-52918043D01*
X179603000Y-52893524D01*
X179603000Y-52007000D01*
X179583000Y-52007000D01*
X179583000Y-51753000D01*
X179603000Y-51753000D01*
X179603000Y-50866476D01*
X179437007Y-50841957D01*
X179203163Y-50938805D01*
X178883086Y-51212061D01*
X178866800Y-51244008D01*
X178866800Y-47623858D01*
X179228225Y-47262433D01*
X179277797Y-47295556D01*
X179710000Y-47381526D01*
X180142203Y-47295556D01*
X180508606Y-47050732D01*
X180753430Y-46684329D01*
X180839400Y-46252126D01*
X180839400Y-46207874D01*
X180753430Y-45775671D01*
X180508606Y-45409268D01*
X180142203Y-45164444D01*
X179710000Y-45078474D01*
X179277797Y-45164444D01*
X178911394Y-45409268D01*
X178666570Y-45775671D01*
X178580600Y-46207874D01*
X178580600Y-46252126D01*
X178653039Y-46616303D01*
X178129671Y-47139671D01*
X178036069Y-47279757D01*
X178003200Y-47445000D01*
X178003200Y-51081109D01*
X177988606Y-51059268D01*
X177622203Y-50814444D01*
X177190000Y-50728474D01*
X176757797Y-50814444D01*
X176391394Y-51059268D01*
X176326800Y-51155939D01*
X176326800Y-47623858D01*
X176688225Y-47262433D01*
X176737797Y-47295556D01*
X177170000Y-47381526D01*
X177602203Y-47295556D01*
X177968606Y-47050732D01*
X178213430Y-46684329D01*
X178299400Y-46252126D01*
X178299400Y-46207874D01*
X178213430Y-45775671D01*
X177968606Y-45409268D01*
X177602203Y-45164444D01*
X177170000Y-45078474D01*
X176737797Y-45164444D01*
X176371394Y-45409268D01*
X176126570Y-45775671D01*
X176040600Y-46207874D01*
X176040600Y-46252126D01*
X176113039Y-46616303D01*
X175589671Y-47139671D01*
X175496069Y-47279757D01*
X175463200Y-47445000D01*
X175463200Y-51081109D01*
X175448606Y-51059268D01*
X175082203Y-50814444D01*
X174650000Y-50728474D01*
X174217797Y-50814444D01*
X173851394Y-51059268D01*
X173606570Y-51425671D01*
X173520600Y-51857874D01*
X173239400Y-51857874D01*
X173153430Y-51425671D01*
X172908606Y-51059268D01*
X172542203Y-50814444D01*
X172110000Y-50728474D01*
X171677797Y-50814444D01*
X171311394Y-51059268D01*
X171246800Y-51155939D01*
X171246800Y-47623858D01*
X171608225Y-47262433D01*
X171657797Y-47295556D01*
X172090000Y-47381526D01*
X172522203Y-47295556D01*
X172888606Y-47050732D01*
X173133430Y-46684329D01*
X173165521Y-46522995D01*
X173591944Y-46522995D01*
X173783086Y-46897939D01*
X174103163Y-47171195D01*
X174337007Y-47268043D01*
X174503000Y-47243524D01*
X174503000Y-46357000D01*
X174757000Y-46357000D01*
X174757000Y-47243524D01*
X174922993Y-47268043D01*
X175156837Y-47171195D01*
X175476914Y-46897939D01*
X175668056Y-46522995D01*
X175643960Y-46357000D01*
X174757000Y-46357000D01*
X174503000Y-46357000D01*
X173616040Y-46357000D01*
X173591944Y-46522995D01*
X173165521Y-46522995D01*
X173219400Y-46252126D01*
X173219400Y-46207874D01*
X173165522Y-45937005D01*
X173591944Y-45937005D01*
X173616040Y-46103000D01*
X174503000Y-46103000D01*
X174503000Y-45216476D01*
X174757000Y-45216476D01*
X174757000Y-46103000D01*
X175643960Y-46103000D01*
X175668056Y-45937005D01*
X175476914Y-45562061D01*
X175156837Y-45288805D01*
X174922993Y-45191957D01*
X174757000Y-45216476D01*
X174503000Y-45216476D01*
X174337007Y-45191957D01*
X174103163Y-45288805D01*
X173783086Y-45562061D01*
X173591944Y-45937005D01*
X173165522Y-45937005D01*
X173133430Y-45775671D01*
X172888606Y-45409268D01*
X172522203Y-45164444D01*
X172090000Y-45078474D01*
X171657797Y-45164444D01*
X171291394Y-45409268D01*
X171046570Y-45775671D01*
X170960600Y-46207874D01*
X170960600Y-46252126D01*
X171033039Y-46616303D01*
X170509671Y-47139671D01*
X170416069Y-47279757D01*
X170383200Y-47445000D01*
X170383200Y-51183279D01*
X170096837Y-50938805D01*
X169862993Y-50841957D01*
X169697000Y-50866476D01*
X169443000Y-50866476D01*
X169277007Y-50841957D01*
X169043163Y-50938805D01*
X168723086Y-51212061D01*
X168706800Y-51244008D01*
X168706800Y-47623858D01*
X169068225Y-47262433D01*
X169117797Y-47295556D01*
X169550000Y-47381526D01*
X169982203Y-47295556D01*
X170348606Y-47050732D01*
X170593430Y-46684329D01*
X170679400Y-46252126D01*
X170679400Y-46207874D01*
X170593430Y-45775671D01*
X170348606Y-45409268D01*
X169982203Y-45164444D01*
X169550000Y-45078474D01*
X169117797Y-45164444D01*
X168751394Y-45409268D01*
X168506570Y-45775671D01*
X168420600Y-46207874D01*
X168420600Y-46252126D01*
X168493039Y-46616303D01*
X167969671Y-47139671D01*
X167876069Y-47279757D01*
X167843200Y-47445000D01*
X167843200Y-51081109D01*
X167828606Y-51059268D01*
X167462203Y-50814444D01*
X167030000Y-50728474D01*
X166597797Y-50814444D01*
X166231394Y-51059268D01*
X166166800Y-51155939D01*
X166166800Y-47623858D01*
X166528225Y-47262433D01*
X166577797Y-47295556D01*
X167010000Y-47381526D01*
X167442203Y-47295556D01*
X167808606Y-47050732D01*
X168053430Y-46684329D01*
X168139400Y-46252126D01*
X168139400Y-46207874D01*
X168053430Y-45775671D01*
X167808606Y-45409268D01*
X167442203Y-45164444D01*
X167010000Y-45078474D01*
X166577797Y-45164444D01*
X166211394Y-45409268D01*
X165966570Y-45775671D01*
X165880600Y-46207874D01*
X165880600Y-46252126D01*
X165953039Y-46616303D01*
X165604873Y-46964469D01*
X165604873Y-45380000D01*
X165585391Y-45276461D01*
X165524199Y-45181366D01*
X165430832Y-45117571D01*
X165320000Y-45095127D01*
X163620000Y-45095127D01*
X163516461Y-45114609D01*
X163421366Y-45175801D01*
X163357571Y-45269168D01*
X163335127Y-45380000D01*
X163335127Y-46694215D01*
X162762671Y-47266671D01*
X162669069Y-47406757D01*
X162636200Y-47572000D01*
X156361200Y-47572000D01*
X156361200Y-45822686D01*
X157870318Y-45822686D01*
X158117856Y-46421775D01*
X158575814Y-46880533D01*
X159174470Y-47129117D01*
X159822686Y-47129682D01*
X160421775Y-46882144D01*
X160880533Y-46424186D01*
X161129117Y-45825530D01*
X161129682Y-45177314D01*
X160882144Y-44578225D01*
X160424186Y-44119467D01*
X159825530Y-43870883D01*
X159177314Y-43870318D01*
X158578225Y-44117856D01*
X158119467Y-44575814D01*
X157870883Y-45174470D01*
X157870318Y-45822686D01*
X156361200Y-45822686D01*
X156361200Y-43667874D01*
X163340600Y-43667874D01*
X163340600Y-43712126D01*
X163426570Y-44144329D01*
X163671394Y-44510732D01*
X164037797Y-44755556D01*
X164470000Y-44841526D01*
X164902203Y-44755556D01*
X165268606Y-44510732D01*
X165513430Y-44144329D01*
X165599400Y-43712126D01*
X165599400Y-43667874D01*
X165880600Y-43667874D01*
X165880600Y-43712126D01*
X165966570Y-44144329D01*
X166211394Y-44510732D01*
X166577797Y-44755556D01*
X167010000Y-44841526D01*
X167442203Y-44755556D01*
X167808606Y-44510732D01*
X168053430Y-44144329D01*
X168085521Y-43982995D01*
X168511944Y-43982995D01*
X168703086Y-44357939D01*
X169023163Y-44631195D01*
X169257007Y-44728043D01*
X169423000Y-44703524D01*
X169423000Y-43817000D01*
X169677000Y-43817000D01*
X169677000Y-44703524D01*
X169842993Y-44728043D01*
X170076837Y-44631195D01*
X170396914Y-44357939D01*
X170588056Y-43982995D01*
X170563960Y-43817000D01*
X169677000Y-43817000D01*
X169423000Y-43817000D01*
X168536040Y-43817000D01*
X168511944Y-43982995D01*
X168085521Y-43982995D01*
X168139400Y-43712126D01*
X168139400Y-43667874D01*
X170960600Y-43667874D01*
X170960600Y-43712126D01*
X171046570Y-44144329D01*
X171291394Y-44510732D01*
X171657797Y-44755556D01*
X172090000Y-44841526D01*
X172522203Y-44755556D01*
X172888606Y-44510732D01*
X173133430Y-44144329D01*
X173219400Y-43712126D01*
X173219400Y-43667874D01*
X173500600Y-43667874D01*
X173500600Y-43712126D01*
X173586570Y-44144329D01*
X173831394Y-44510732D01*
X174197797Y-44755556D01*
X174630000Y-44841526D01*
X175062203Y-44755556D01*
X175428606Y-44510732D01*
X175673430Y-44144329D01*
X175759400Y-43712126D01*
X175759400Y-43667874D01*
X176040600Y-43667874D01*
X176040600Y-43712126D01*
X176126570Y-44144329D01*
X176371394Y-44510732D01*
X176737797Y-44755556D01*
X177170000Y-44841526D01*
X177602203Y-44755556D01*
X177968606Y-44510732D01*
X178213430Y-44144329D01*
X178245521Y-43982995D01*
X178671944Y-43982995D01*
X178863086Y-44357939D01*
X179183163Y-44631195D01*
X179417007Y-44728043D01*
X179583000Y-44703524D01*
X179583000Y-43817000D01*
X179837000Y-43817000D01*
X179837000Y-44703524D01*
X180002993Y-44728043D01*
X180236837Y-44631195D01*
X180556914Y-44357939D01*
X180748056Y-43982995D01*
X180723960Y-43817000D01*
X179837000Y-43817000D01*
X179583000Y-43817000D01*
X178696040Y-43817000D01*
X178671944Y-43982995D01*
X178245521Y-43982995D01*
X178299400Y-43712126D01*
X178299400Y-43667874D01*
X181120600Y-43667874D01*
X181120600Y-43712126D01*
X181206570Y-44144329D01*
X181451394Y-44510732D01*
X181817797Y-44755556D01*
X182250000Y-44841526D01*
X182682203Y-44755556D01*
X183048606Y-44510732D01*
X183293430Y-44144329D01*
X183379400Y-43712126D01*
X183379400Y-43667874D01*
X183660600Y-43667874D01*
X183660600Y-43712126D01*
X183746570Y-44144329D01*
X183991394Y-44510732D01*
X184357797Y-44755556D01*
X184790000Y-44841526D01*
X185222203Y-44755556D01*
X185588606Y-44510732D01*
X185833430Y-44144329D01*
X185865521Y-43982995D01*
X186291944Y-43982995D01*
X186483086Y-44357939D01*
X186803163Y-44631195D01*
X187037007Y-44728043D01*
X187203000Y-44703524D01*
X187203000Y-43817000D01*
X187457000Y-43817000D01*
X187457000Y-44703524D01*
X187622993Y-44728043D01*
X187856837Y-44631195D01*
X188176914Y-44357939D01*
X188368056Y-43982995D01*
X188343960Y-43817000D01*
X187457000Y-43817000D01*
X187203000Y-43817000D01*
X186316040Y-43817000D01*
X186291944Y-43982995D01*
X185865521Y-43982995D01*
X185919400Y-43712126D01*
X185919400Y-43667874D01*
X188740600Y-43667874D01*
X188740600Y-43712126D01*
X188826570Y-44144329D01*
X189071394Y-44510732D01*
X189437797Y-44755556D01*
X189870000Y-44841526D01*
X190302203Y-44755556D01*
X190668606Y-44510732D01*
X190913430Y-44144329D01*
X190999400Y-43712126D01*
X190999400Y-43667874D01*
X191280600Y-43667874D01*
X191280600Y-43712126D01*
X191366570Y-44144329D01*
X191611394Y-44510732D01*
X191977797Y-44755556D01*
X192410000Y-44841526D01*
X192842203Y-44755556D01*
X193208606Y-44510732D01*
X193453430Y-44144329D01*
X193539400Y-43712126D01*
X193539400Y-43667874D01*
X193820600Y-43667874D01*
X193820600Y-43712126D01*
X193906570Y-44144329D01*
X194151394Y-44510732D01*
X194517797Y-44755556D01*
X194950000Y-44841526D01*
X195382203Y-44755556D01*
X195748606Y-44510732D01*
X195993430Y-44144329D01*
X196079400Y-43712126D01*
X196079400Y-43667874D01*
X196360600Y-43667874D01*
X196360600Y-43712126D01*
X196446570Y-44144329D01*
X196691394Y-44510732D01*
X197057797Y-44755556D01*
X197490000Y-44841526D01*
X197922203Y-44755556D01*
X198288606Y-44510732D01*
X198533430Y-44144329D01*
X198565521Y-43982995D01*
X198991944Y-43982995D01*
X199183086Y-44357939D01*
X199503163Y-44631195D01*
X199737007Y-44728043D01*
X199903000Y-44703524D01*
X199903000Y-43817000D01*
X200157000Y-43817000D01*
X200157000Y-44703524D01*
X200322993Y-44728043D01*
X200556837Y-44631195D01*
X200876914Y-44357939D01*
X201068056Y-43982995D01*
X201043960Y-43817000D01*
X200157000Y-43817000D01*
X199903000Y-43817000D01*
X199016040Y-43817000D01*
X198991944Y-43982995D01*
X198565521Y-43982995D01*
X198619400Y-43712126D01*
X198619400Y-43667874D01*
X201440600Y-43667874D01*
X201440600Y-43712126D01*
X201526570Y-44144329D01*
X201771394Y-44510732D01*
X202137797Y-44755556D01*
X202570000Y-44841526D01*
X203002203Y-44755556D01*
X203368606Y-44510732D01*
X203613430Y-44144329D01*
X203645521Y-43982995D01*
X204071944Y-43982995D01*
X204263086Y-44357939D01*
X204583163Y-44631195D01*
X204817007Y-44728043D01*
X204983000Y-44703524D01*
X204983000Y-43817000D01*
X205237000Y-43817000D01*
X205237000Y-44703524D01*
X205402993Y-44728043D01*
X205636837Y-44631195D01*
X205956914Y-44357939D01*
X206148056Y-43982995D01*
X206123960Y-43817000D01*
X205237000Y-43817000D01*
X204983000Y-43817000D01*
X204096040Y-43817000D01*
X204071944Y-43982995D01*
X203645521Y-43982995D01*
X203699400Y-43712126D01*
X203699400Y-43667874D01*
X206520600Y-43667874D01*
X206520600Y-43712126D01*
X206606570Y-44144329D01*
X206851394Y-44510732D01*
X207217797Y-44755556D01*
X207650000Y-44841526D01*
X208082203Y-44755556D01*
X208448606Y-44510732D01*
X208693430Y-44144329D01*
X208779400Y-43712126D01*
X208779400Y-43667874D01*
X209060600Y-43667874D01*
X209060600Y-43712126D01*
X209146570Y-44144329D01*
X209391394Y-44510732D01*
X209757797Y-44755556D01*
X210190000Y-44841526D01*
X210622203Y-44755556D01*
X210988606Y-44510732D01*
X211233430Y-44144329D01*
X211319400Y-43712126D01*
X211319400Y-43667874D01*
X211600600Y-43667874D01*
X211600600Y-43712126D01*
X211686570Y-44144329D01*
X211931394Y-44510732D01*
X212297797Y-44755556D01*
X212730000Y-44841526D01*
X213162203Y-44755556D01*
X213528606Y-44510732D01*
X213773430Y-44144329D01*
X213859400Y-43712126D01*
X213859400Y-43667874D01*
X213773430Y-43235671D01*
X213528606Y-42869268D01*
X213162203Y-42624444D01*
X212730000Y-42538474D01*
X212297797Y-42624444D01*
X211931394Y-42869268D01*
X211686570Y-43235671D01*
X211600600Y-43667874D01*
X211319400Y-43667874D01*
X211233430Y-43235671D01*
X210988606Y-42869268D01*
X210622203Y-42624444D01*
X210190000Y-42538474D01*
X209757797Y-42624444D01*
X209391394Y-42869268D01*
X209146570Y-43235671D01*
X209060600Y-43667874D01*
X208779400Y-43667874D01*
X208693430Y-43235671D01*
X208448606Y-42869268D01*
X208082203Y-42624444D01*
X207650000Y-42538474D01*
X207217797Y-42624444D01*
X206851394Y-42869268D01*
X206606570Y-43235671D01*
X206520600Y-43667874D01*
X203699400Y-43667874D01*
X203645522Y-43397005D01*
X204071944Y-43397005D01*
X204096040Y-43563000D01*
X204983000Y-43563000D01*
X204983000Y-42676476D01*
X205237000Y-42676476D01*
X205237000Y-43563000D01*
X206123960Y-43563000D01*
X206148056Y-43397005D01*
X205956914Y-43022061D01*
X205636837Y-42748805D01*
X205402993Y-42651957D01*
X205237000Y-42676476D01*
X204983000Y-42676476D01*
X204817007Y-42651957D01*
X204583163Y-42748805D01*
X204263086Y-43022061D01*
X204071944Y-43397005D01*
X203645522Y-43397005D01*
X203613430Y-43235671D01*
X203368606Y-42869268D01*
X203002203Y-42624444D01*
X202570000Y-42538474D01*
X202137797Y-42624444D01*
X201771394Y-42869268D01*
X201526570Y-43235671D01*
X201440600Y-43667874D01*
X198619400Y-43667874D01*
X198565522Y-43397005D01*
X198991944Y-43397005D01*
X199016040Y-43563000D01*
X199903000Y-43563000D01*
X199903000Y-42676476D01*
X200157000Y-42676476D01*
X200157000Y-43563000D01*
X201043960Y-43563000D01*
X201068056Y-43397005D01*
X200876914Y-43022061D01*
X200556837Y-42748805D01*
X200322993Y-42651957D01*
X200157000Y-42676476D01*
X199903000Y-42676476D01*
X199737007Y-42651957D01*
X199503163Y-42748805D01*
X199183086Y-43022061D01*
X198991944Y-43397005D01*
X198565522Y-43397005D01*
X198533430Y-43235671D01*
X198288606Y-42869268D01*
X197922203Y-42624444D01*
X197490000Y-42538474D01*
X197057797Y-42624444D01*
X196691394Y-42869268D01*
X196446570Y-43235671D01*
X196360600Y-43667874D01*
X196079400Y-43667874D01*
X195993430Y-43235671D01*
X195748606Y-42869268D01*
X195382203Y-42624444D01*
X194950000Y-42538474D01*
X194517797Y-42624444D01*
X194151394Y-42869268D01*
X193906570Y-43235671D01*
X193820600Y-43667874D01*
X193539400Y-43667874D01*
X193453430Y-43235671D01*
X193208606Y-42869268D01*
X192842203Y-42624444D01*
X192410000Y-42538474D01*
X191977797Y-42624444D01*
X191611394Y-42869268D01*
X191366570Y-43235671D01*
X191280600Y-43667874D01*
X190999400Y-43667874D01*
X190913430Y-43235671D01*
X190668606Y-42869268D01*
X190302203Y-42624444D01*
X189870000Y-42538474D01*
X189437797Y-42624444D01*
X189071394Y-42869268D01*
X188826570Y-43235671D01*
X188740600Y-43667874D01*
X185919400Y-43667874D01*
X185865522Y-43397005D01*
X186291944Y-43397005D01*
X186316040Y-43563000D01*
X187203000Y-43563000D01*
X187203000Y-42676476D01*
X187457000Y-42676476D01*
X187457000Y-43563000D01*
X188343960Y-43563000D01*
X188368056Y-43397005D01*
X188176914Y-43022061D01*
X187856837Y-42748805D01*
X187622993Y-42651957D01*
X187457000Y-42676476D01*
X187203000Y-42676476D01*
X187037007Y-42651957D01*
X186803163Y-42748805D01*
X186483086Y-43022061D01*
X186291944Y-43397005D01*
X185865522Y-43397005D01*
X185833430Y-43235671D01*
X185588606Y-42869268D01*
X185222203Y-42624444D01*
X184790000Y-42538474D01*
X184357797Y-42624444D01*
X183991394Y-42869268D01*
X183746570Y-43235671D01*
X183660600Y-43667874D01*
X183379400Y-43667874D01*
X183293430Y-43235671D01*
X183048606Y-42869268D01*
X182682203Y-42624444D01*
X182250000Y-42538474D01*
X181817797Y-42624444D01*
X181451394Y-42869268D01*
X181206570Y-43235671D01*
X181120600Y-43667874D01*
X178299400Y-43667874D01*
X178245522Y-43397005D01*
X178671944Y-43397005D01*
X178696040Y-43563000D01*
X179583000Y-43563000D01*
X179583000Y-42676476D01*
X179837000Y-42676476D01*
X179837000Y-43563000D01*
X180723960Y-43563000D01*
X180748056Y-43397005D01*
X180556914Y-43022061D01*
X180236837Y-42748805D01*
X180002993Y-42651957D01*
X179837000Y-42676476D01*
X179583000Y-42676476D01*
X179417007Y-42651957D01*
X179183163Y-42748805D01*
X178863086Y-43022061D01*
X178671944Y-43397005D01*
X178245522Y-43397005D01*
X178213430Y-43235671D01*
X177968606Y-42869268D01*
X177602203Y-42624444D01*
X177170000Y-42538474D01*
X176737797Y-42624444D01*
X176371394Y-42869268D01*
X176126570Y-43235671D01*
X176040600Y-43667874D01*
X175759400Y-43667874D01*
X175673430Y-43235671D01*
X175428606Y-42869268D01*
X175062203Y-42624444D01*
X174630000Y-42538474D01*
X174197797Y-42624444D01*
X173831394Y-42869268D01*
X173586570Y-43235671D01*
X173500600Y-43667874D01*
X173219400Y-43667874D01*
X173133430Y-43235671D01*
X172888606Y-42869268D01*
X172522203Y-42624444D01*
X172090000Y-42538474D01*
X171657797Y-42624444D01*
X171291394Y-42869268D01*
X171046570Y-43235671D01*
X170960600Y-43667874D01*
X168139400Y-43667874D01*
X168085522Y-43397005D01*
X168511944Y-43397005D01*
X168536040Y-43563000D01*
X169423000Y-43563000D01*
X169423000Y-42676476D01*
X169677000Y-42676476D01*
X169677000Y-43563000D01*
X170563960Y-43563000D01*
X170588056Y-43397005D01*
X170396914Y-43022061D01*
X170076837Y-42748805D01*
X169842993Y-42651957D01*
X169677000Y-42676476D01*
X169423000Y-42676476D01*
X169257007Y-42651957D01*
X169023163Y-42748805D01*
X168703086Y-43022061D01*
X168511944Y-43397005D01*
X168085522Y-43397005D01*
X168053430Y-43235671D01*
X167808606Y-42869268D01*
X167442203Y-42624444D01*
X167010000Y-42538474D01*
X166577797Y-42624444D01*
X166211394Y-42869268D01*
X165966570Y-43235671D01*
X165880600Y-43667874D01*
X165599400Y-43667874D01*
X165513430Y-43235671D01*
X165268606Y-42869268D01*
X164902203Y-42624444D01*
X164470000Y-42538474D01*
X164037797Y-42624444D01*
X163671394Y-42869268D01*
X163426570Y-43235671D01*
X163340600Y-43667874D01*
X156361200Y-43667874D01*
X156361200Y-38955862D01*
X165945022Y-38955862D01*
X166101408Y-39334346D01*
X166390730Y-39624174D01*
X166768941Y-39781221D01*
X167178462Y-39781578D01*
X167556946Y-39625192D01*
X167846774Y-39335870D01*
X168003821Y-38957659D01*
X168003822Y-38955862D01*
X168485022Y-38955862D01*
X168641408Y-39334346D01*
X168930730Y-39624174D01*
X169308941Y-39781221D01*
X169718462Y-39781578D01*
X170096946Y-39625192D01*
X170386774Y-39335870D01*
X170543821Y-38957659D01*
X170543822Y-38955862D01*
X171025022Y-38955862D01*
X171181408Y-39334346D01*
X171470730Y-39624174D01*
X171848941Y-39781221D01*
X172258462Y-39781578D01*
X172636946Y-39625192D01*
X172926774Y-39335870D01*
X173083821Y-38957659D01*
X173083822Y-38955862D01*
X173565022Y-38955862D01*
X173721408Y-39334346D01*
X174010730Y-39624174D01*
X174388941Y-39781221D01*
X174798462Y-39781578D01*
X175176946Y-39625192D01*
X175466774Y-39335870D01*
X175623821Y-38957659D01*
X175624178Y-38548138D01*
X175467792Y-38169654D01*
X175178470Y-37879826D01*
X174800259Y-37722779D01*
X174390738Y-37722422D01*
X174012254Y-37878808D01*
X173722426Y-38168130D01*
X173565379Y-38546341D01*
X173565022Y-38955862D01*
X173083822Y-38955862D01*
X173084178Y-38548138D01*
X172927792Y-38169654D01*
X172638470Y-37879826D01*
X172260259Y-37722779D01*
X171850738Y-37722422D01*
X171472254Y-37878808D01*
X171182426Y-38168130D01*
X171025379Y-38546341D01*
X171025022Y-38955862D01*
X170543822Y-38955862D01*
X170544178Y-38548138D01*
X170387792Y-38169654D01*
X170098470Y-37879826D01*
X169720259Y-37722779D01*
X169310738Y-37722422D01*
X168932254Y-37878808D01*
X168642426Y-38168130D01*
X168485379Y-38546341D01*
X168485022Y-38955862D01*
X168003822Y-38955862D01*
X168004178Y-38548138D01*
X167847792Y-38169654D01*
X167558470Y-37879826D01*
X167180259Y-37722779D01*
X166770738Y-37722422D01*
X166392254Y-37878808D01*
X166102426Y-38168130D01*
X165945379Y-38546341D01*
X165945022Y-38955862D01*
X156361200Y-38955862D01*
X156361200Y-36396150D01*
X164726000Y-36396150D01*
X164726000Y-37007472D01*
X164760803Y-37091492D01*
X164825109Y-37155798D01*
X164909129Y-37190600D01*
X165520450Y-37190600D01*
X165577600Y-37133450D01*
X165577600Y-36339000D01*
X165831600Y-36339000D01*
X165831600Y-37133450D01*
X165888750Y-37190600D01*
X166500071Y-37190600D01*
X166584091Y-37155798D01*
X166648397Y-37091492D01*
X166683200Y-37007472D01*
X166683200Y-36960832D01*
X167675373Y-36960832D01*
X167765640Y-37087298D01*
X168137061Y-37203960D01*
X168524853Y-37169605D01*
X168723560Y-37087298D01*
X168813827Y-36960832D01*
X170215373Y-36960832D01*
X170305640Y-37087298D01*
X170677061Y-37203960D01*
X171064853Y-37169605D01*
X171263560Y-37087298D01*
X171353827Y-36960832D01*
X172755373Y-36960832D01*
X172845640Y-37087298D01*
X173217061Y-37203960D01*
X173604853Y-37169605D01*
X173803560Y-37087298D01*
X173893827Y-36960832D01*
X173324600Y-36391605D01*
X172755373Y-36960832D01*
X171353827Y-36960832D01*
X170784600Y-36391605D01*
X170215373Y-36960832D01*
X168813827Y-36960832D01*
X168244600Y-36391605D01*
X167675373Y-36960832D01*
X166683200Y-36960832D01*
X166683200Y-36396150D01*
X166626050Y-36339000D01*
X165831600Y-36339000D01*
X165577600Y-36339000D01*
X164783150Y-36339000D01*
X164726000Y-36396150D01*
X156361200Y-36396150D01*
X156361200Y-36104461D01*
X167252640Y-36104461D01*
X167286995Y-36492253D01*
X167369302Y-36690960D01*
X167495768Y-36781227D01*
X168064995Y-36212000D01*
X168424205Y-36212000D01*
X168993432Y-36781227D01*
X169119898Y-36690960D01*
X169236560Y-36319539D01*
X169217506Y-36104461D01*
X169792640Y-36104461D01*
X169826995Y-36492253D01*
X169909302Y-36690960D01*
X170035768Y-36781227D01*
X170604995Y-36212000D01*
X170964205Y-36212000D01*
X171533432Y-36781227D01*
X171659898Y-36690960D01*
X171776560Y-36319539D01*
X171757506Y-36104461D01*
X172332640Y-36104461D01*
X172366995Y-36492253D01*
X172449302Y-36690960D01*
X172575768Y-36781227D01*
X173144995Y-36212000D01*
X173504205Y-36212000D01*
X174073432Y-36781227D01*
X174199898Y-36690960D01*
X174316560Y-36319539D01*
X174282205Y-35931747D01*
X174199898Y-35733040D01*
X174073432Y-35642773D01*
X173504205Y-36212000D01*
X173144995Y-36212000D01*
X172575768Y-35642773D01*
X172449302Y-35733040D01*
X172332640Y-36104461D01*
X171757506Y-36104461D01*
X171742205Y-35931747D01*
X171659898Y-35733040D01*
X171533432Y-35642773D01*
X170964205Y-36212000D01*
X170604995Y-36212000D01*
X170035768Y-35642773D01*
X169909302Y-35733040D01*
X169792640Y-36104461D01*
X169217506Y-36104461D01*
X169202205Y-35931747D01*
X169119898Y-35733040D01*
X168993432Y-35642773D01*
X168424205Y-36212000D01*
X168064995Y-36212000D01*
X167495768Y-35642773D01*
X167369302Y-35733040D01*
X167252640Y-36104461D01*
X156361200Y-36104461D01*
X156361200Y-35416528D01*
X164726000Y-35416528D01*
X164726000Y-36027850D01*
X164783150Y-36085000D01*
X165577600Y-36085000D01*
X165577600Y-35290550D01*
X165831600Y-35290550D01*
X165831600Y-36085000D01*
X166626050Y-36085000D01*
X166683200Y-36027850D01*
X166683200Y-35463168D01*
X167675373Y-35463168D01*
X168244600Y-36032395D01*
X168813827Y-35463168D01*
X170215373Y-35463168D01*
X170784600Y-36032395D01*
X171353827Y-35463168D01*
X172755373Y-35463168D01*
X173324600Y-36032395D01*
X173893827Y-35463168D01*
X173803560Y-35336702D01*
X173432139Y-35220040D01*
X173044347Y-35254395D01*
X172845640Y-35336702D01*
X172755373Y-35463168D01*
X171353827Y-35463168D01*
X171263560Y-35336702D01*
X170892139Y-35220040D01*
X170504347Y-35254395D01*
X170305640Y-35336702D01*
X170215373Y-35463168D01*
X168813827Y-35463168D01*
X168723560Y-35336702D01*
X168352139Y-35220040D01*
X167964347Y-35254395D01*
X167765640Y-35336702D01*
X167675373Y-35463168D01*
X166683200Y-35463168D01*
X166683200Y-35416528D01*
X166648397Y-35332508D01*
X166584091Y-35268202D01*
X166500071Y-35233400D01*
X165888750Y-35233400D01*
X165831600Y-35290550D01*
X165577600Y-35290550D01*
X165520450Y-35233400D01*
X164909129Y-35233400D01*
X164825109Y-35268202D01*
X164760803Y-35332508D01*
X164726000Y-35416528D01*
X156361200Y-35416528D01*
X156361200Y-30278755D01*
X162329835Y-30278755D01*
X162649536Y-31052490D01*
X163240997Y-31644984D01*
X164014172Y-31966034D01*
X164851355Y-31966765D01*
X165625090Y-31647064D01*
X166217584Y-31055603D01*
X166538634Y-30282428D01*
X166538637Y-30278755D01*
X173759835Y-30278755D01*
X174079536Y-31052490D01*
X174670997Y-31644984D01*
X175444172Y-31966034D01*
X176281355Y-31966765D01*
X177055090Y-31647064D01*
X177647584Y-31055603D01*
X177968634Y-30282428D01*
X177969365Y-29445245D01*
X177649664Y-28671510D01*
X177058203Y-28079016D01*
X176285028Y-27757966D01*
X175447845Y-27757235D01*
X174674110Y-28076936D01*
X174081616Y-28668397D01*
X173760566Y-29441572D01*
X173759835Y-30278755D01*
X166538637Y-30278755D01*
X166539365Y-29445245D01*
X166219664Y-28671510D01*
X165628203Y-28079016D01*
X164855028Y-27757966D01*
X164017845Y-27757235D01*
X163244110Y-28076936D01*
X162651616Y-28668397D01*
X162330566Y-29441572D01*
X162329835Y-30278755D01*
X156361200Y-30278755D01*
X156361200Y-21148600D01*
X182952400Y-21148600D01*
X182952400Y-40131980D01*
G36*
X165303200Y-47445000D02*
X165303200Y-51081109D01*
X165288606Y-51059268D01*
X164922203Y-50814444D01*
X164490000Y-50728474D01*
X164057797Y-50814444D01*
X163691394Y-51059268D01*
X163499800Y-51346007D01*
X163499800Y-47750858D01*
X163885785Y-47364873D01*
X165319138Y-47364873D01*
X165303200Y-47445000D01*
X165303200Y-47445000D01*
G37*
X165303200Y-47445000D02*
X165303200Y-51081109D01*
X165288606Y-51059268D01*
X164922203Y-50814444D01*
X164490000Y-50728474D01*
X164057797Y-50814444D01*
X163691394Y-51059268D01*
X163499800Y-51346007D01*
X163499800Y-47750858D01*
X163885785Y-47364873D01*
X165319138Y-47364873D01*
X165303200Y-47445000D01*
M02*
