G04 #@! TF.FileFunction,Copper,L1,Top,Signal*
%FSLAX46Y46*%
G04 Gerber Fmt 4.6, Leading zero omitted, Abs format (unit mm)*
G04 Created by KiCad (PCBNEW 4.0.0-rc1-stable) date 19/06/2017 22:48:09*
%MOMM*%
G01*
G04 APERTURE LIST*
%ADD10C,0.076200*%
%ADD11C,0.685800*%
%ADD12R,1.700000X1.700000*%
%ADD13O,1.700000X1.700000*%
%ADD14R,1.300000X0.700000*%
%ADD15R,0.700000X1.300000*%
%ADD16C,0.609600*%
%ADD17C,0.304800*%
%ADD18C,0.152400*%
%ADD19C,0.254000*%
G04 APERTURE END LIST*
D10*
D11*
X195900000Y-99940000D03*
X190820000Y-99940000D03*
X180660000Y-99940000D03*
X170500000Y-99940000D03*
X195900000Y-97400000D03*
X190820000Y-97400000D03*
X180660000Y-97400000D03*
X170500000Y-97400000D03*
X194680000Y-62500000D03*
X169280000Y-62500000D03*
X164200000Y-62500000D03*
X199760000Y-59960000D03*
X194680000Y-59960000D03*
X169280000Y-59960000D03*
X164200000Y-59960000D03*
X199760000Y-57420000D03*
X169280000Y-57420000D03*
X164200000Y-57420000D03*
X184520000Y-54880000D03*
X169280000Y-54880000D03*
X164200000Y-54880000D03*
X194680000Y-52340000D03*
X189600000Y-52340000D03*
X184520000Y-52340000D03*
X179440000Y-52340000D03*
X174360000Y-52340000D03*
X194680000Y-49800000D03*
X189600000Y-49800000D03*
X179440000Y-49800000D03*
X174360000Y-49800000D03*
D12*
X194300000Y-56000000D03*
D13*
X191760000Y-56000000D03*
X191760000Y-58540000D03*
X189220000Y-56000000D03*
X189220000Y-58540000D03*
X186680000Y-56000000D03*
X186680000Y-58540000D03*
X184140000Y-58540000D03*
X181600000Y-58540000D03*
X179060000Y-56000000D03*
X179060000Y-58540000D03*
X176520000Y-56000000D03*
X176520000Y-58540000D03*
X173980000Y-56000000D03*
X173980000Y-58540000D03*
X171440000Y-56000000D03*
D12*
X168000000Y-67100000D03*
D13*
X165460000Y-67100000D03*
X168000000Y-69640000D03*
X165460000Y-69640000D03*
X168000000Y-72180000D03*
X165460000Y-72180000D03*
X168000000Y-74720000D03*
X165460000Y-74720000D03*
X168000000Y-77260000D03*
X165460000Y-77260000D03*
X168000000Y-79800000D03*
X165460000Y-79800000D03*
X168000000Y-82340000D03*
X165460000Y-82340000D03*
X168000000Y-84880000D03*
X165460000Y-84880000D03*
X168000000Y-87420000D03*
X165460000Y-87420000D03*
X168000000Y-89960000D03*
X165460000Y-89960000D03*
X168000000Y-92500000D03*
X165460000Y-92500000D03*
X168000000Y-95040000D03*
X165460000Y-95040000D03*
X168000000Y-97580000D03*
X165460000Y-97580000D03*
X168000000Y-100120000D03*
X165460000Y-100120000D03*
X168000000Y-102660000D03*
X165460000Y-102660000D03*
X168000000Y-105200000D03*
X165460000Y-105200000D03*
X168000000Y-107740000D03*
X165460000Y-107740000D03*
X168000000Y-110280000D03*
X165460000Y-110280000D03*
X168000000Y-112820000D03*
X165460000Y-112820000D03*
X168000000Y-115360000D03*
X165460000Y-115360000D03*
D12*
X197700000Y-67100000D03*
D13*
X200240000Y-67100000D03*
X197700000Y-69640000D03*
X200240000Y-69640000D03*
X197700000Y-72180000D03*
X200240000Y-72180000D03*
X197700000Y-74720000D03*
X200240000Y-74720000D03*
X197700000Y-77260000D03*
X200240000Y-77260000D03*
X197700000Y-79800000D03*
X200240000Y-79800000D03*
X197700000Y-82340000D03*
X200240000Y-82340000D03*
X197700000Y-84880000D03*
X200240000Y-84880000D03*
X197700000Y-87420000D03*
X200240000Y-87420000D03*
X197700000Y-89960000D03*
X200240000Y-89960000D03*
X197700000Y-92500000D03*
X200240000Y-92500000D03*
X197700000Y-95040000D03*
X200240000Y-95040000D03*
X197700000Y-97580000D03*
X200240000Y-97580000D03*
X197700000Y-100120000D03*
X200240000Y-100120000D03*
X197700000Y-102660000D03*
X200240000Y-102660000D03*
X197700000Y-105200000D03*
X200240000Y-105200000D03*
X197700000Y-107740000D03*
X200240000Y-107740000D03*
X197700000Y-110280000D03*
X200240000Y-110280000D03*
X197700000Y-112820000D03*
X200240000Y-112820000D03*
X197700000Y-115360000D03*
X200240000Y-115360000D03*
D12*
X185600000Y-117300000D03*
D13*
X185600000Y-119840000D03*
X183060000Y-117300000D03*
X183060000Y-119840000D03*
X180520000Y-117300000D03*
X180520000Y-119840000D03*
D14*
X179200000Y-51350000D03*
X179200000Y-53250000D03*
X191800000Y-51350000D03*
X191800000Y-53250000D03*
X189200000Y-51350000D03*
X189200000Y-53250000D03*
X191800000Y-63250000D03*
X191800000Y-61350000D03*
X189200000Y-63250000D03*
X189200000Y-61350000D03*
X179100000Y-63250000D03*
X179100000Y-61350000D03*
X186700000Y-53350000D03*
X186700000Y-51450000D03*
D15*
X184750000Y-61700000D03*
X186650000Y-61700000D03*
D11*
X191000000Y-72800000D03*
X188100000Y-59900000D03*
X191000000Y-75500000D03*
X183300000Y-62200000D03*
X188000000Y-87400000D03*
X186400000Y-68200000D03*
X182200000Y-66100000D03*
X178700000Y-71500000D03*
X184800000Y-70200000D03*
X178700000Y-69000000D03*
X178800000Y-103300000D03*
X175000000Y-106800000D03*
X183900000Y-75400000D03*
X182400000Y-103300000D03*
X177300000Y-106800000D03*
D16*
X165460000Y-67100000D02*
X165460000Y-69640000D01*
X200240000Y-67100000D02*
X200240000Y-69640000D01*
X165460000Y-67100000D02*
X167560000Y-65000000D01*
X198140000Y-65000000D02*
X200240000Y-67100000D01*
X167560000Y-65000000D02*
X198140000Y-65000000D01*
D17*
X191800000Y-53250000D02*
X191760000Y-53290000D01*
X191760000Y-53290000D02*
X191760000Y-56000000D01*
D18*
X168000000Y-89960000D02*
X197700000Y-89960000D01*
D17*
X191760000Y-58540000D02*
X191800000Y-58580000D01*
X191800000Y-58580000D02*
X191800000Y-61350000D01*
D18*
X168000000Y-92500000D02*
X197700000Y-92500000D01*
D17*
X189200000Y-53250000D02*
X189220000Y-53270000D01*
X189220000Y-53270000D02*
X189220000Y-56000000D01*
D18*
X168000000Y-95040000D02*
X197700000Y-95040000D01*
D17*
X189220000Y-58540000D02*
X189200000Y-58560000D01*
X189200000Y-58560000D02*
X189200000Y-61350000D01*
D18*
X165460000Y-95040000D02*
X166700000Y-93800000D01*
X166700000Y-93800000D02*
X199000000Y-93800000D01*
X199000000Y-93800000D02*
X200240000Y-95040000D01*
X186700000Y-51450000D02*
X188100000Y-52850000D01*
X191700000Y-73500000D02*
X191900000Y-73500000D01*
X191000000Y-72800000D02*
X191700000Y-73500000D01*
X188100000Y-52850000D02*
X188100000Y-59900000D01*
X165460000Y-74720000D02*
X166680000Y-73500000D01*
X199020000Y-73500000D02*
X200240000Y-74720000D01*
X166680000Y-73500000D02*
X190500000Y-73500000D01*
X190500000Y-73500000D02*
X191900000Y-73500000D01*
X191900000Y-73500000D02*
X199020000Y-73500000D01*
X184750000Y-61700000D02*
X183800000Y-61700000D01*
X191500000Y-76000000D02*
X192400000Y-76000000D01*
X191000000Y-75500000D02*
X191500000Y-76000000D01*
X183800000Y-61700000D02*
X183300000Y-62200000D01*
X165460000Y-77260000D02*
X166720000Y-76000000D01*
X198980000Y-76000000D02*
X200240000Y-77260000D01*
X166720000Y-76000000D02*
X189800000Y-76000000D01*
X189800000Y-76000000D02*
X190300000Y-76000000D01*
X190300000Y-76000000D02*
X192400000Y-76000000D01*
X192400000Y-76000000D02*
X198980000Y-76000000D01*
X165460000Y-89960000D02*
X166720000Y-88700000D01*
X198980000Y-88700000D02*
X200240000Y-89960000D01*
X166720000Y-88700000D02*
X198980000Y-88700000D01*
X165460000Y-82340000D02*
X166600000Y-81200000D01*
X199100000Y-81200000D02*
X200240000Y-82340000D01*
X166600000Y-81200000D02*
X199100000Y-81200000D01*
X165460000Y-72180000D02*
X166740000Y-70900000D01*
X198960000Y-70900000D02*
X200240000Y-72180000D01*
X166740000Y-70900000D02*
X198960000Y-70900000D01*
X168000000Y-115360000D02*
X197700000Y-115360000D01*
D16*
X179100000Y-63250000D02*
X189200000Y-63250000D01*
X179100000Y-63250000D02*
X179650000Y-63250000D01*
X179650000Y-63250000D02*
X181600000Y-61300000D01*
X181600000Y-61300000D02*
X181600000Y-58540000D01*
X179200000Y-51350000D02*
X180550000Y-50000000D01*
X187850000Y-50000000D02*
X189200000Y-51350000D01*
X180550000Y-50000000D02*
X187850000Y-50000000D01*
X184400000Y-67100000D02*
X185300000Y-67100000D01*
X185300000Y-67100000D02*
X186400000Y-68200000D01*
X188000000Y-87400000D02*
X188000000Y-87420000D01*
X188000000Y-87420000D02*
X188000000Y-87400000D01*
X188000000Y-87400000D02*
X188000000Y-87420000D01*
X168000000Y-87420000D02*
X188000000Y-87420000D01*
X188000000Y-87420000D02*
X197700000Y-87420000D01*
X180500000Y-67100000D02*
X181200000Y-67100000D01*
X181200000Y-67100000D02*
X182200000Y-66100000D01*
X189200000Y-51350000D02*
X191800000Y-51350000D01*
X181600000Y-58540000D02*
X181600000Y-52600000D01*
X180350000Y-51350000D02*
X179200000Y-51350000D01*
X181600000Y-52600000D02*
X180350000Y-51350000D01*
X191800000Y-63250000D02*
X189200000Y-63250000D01*
X168000000Y-67100000D02*
X180500000Y-67100000D01*
X180500000Y-67100000D02*
X184400000Y-67100000D01*
X184400000Y-67100000D02*
X197700000Y-67100000D01*
D18*
X177600000Y-72200000D02*
X177600000Y-72180000D01*
X177620000Y-72180000D02*
X177600000Y-72200000D01*
X178020000Y-72180000D02*
X177620000Y-72180000D01*
X178700000Y-71500000D02*
X178020000Y-72180000D01*
D17*
X179200000Y-53250000D02*
X179060000Y-53390000D01*
X179060000Y-53390000D02*
X179060000Y-56000000D01*
D18*
X168000000Y-72180000D02*
X177600000Y-72180000D01*
X177600000Y-72180000D02*
X197700000Y-72180000D01*
X184800000Y-70200000D02*
X184240000Y-69640000D01*
X184240000Y-69640000D02*
X183640000Y-69640000D01*
X178060000Y-69640000D02*
X177440000Y-69640000D01*
X178700000Y-69000000D02*
X178060000Y-69640000D01*
D17*
X179060000Y-58540000D02*
X179100000Y-58580000D01*
X179100000Y-58580000D02*
X179100000Y-61350000D01*
D18*
X168000000Y-69640000D02*
X177400000Y-69640000D01*
X177400000Y-69640000D02*
X183600000Y-69640000D01*
X183600000Y-69640000D02*
X187000000Y-69640000D01*
X187000000Y-69640000D02*
X197700000Y-69640000D01*
X179400000Y-103900000D02*
X180300000Y-103900000D01*
X178800000Y-103300000D02*
X179400000Y-103900000D01*
X165460000Y-105200000D02*
X166760000Y-103900000D01*
X198940000Y-103900000D02*
X200240000Y-105200000D01*
X166760000Y-103900000D02*
X180300000Y-103900000D01*
X180300000Y-103900000D02*
X198940000Y-103900000D01*
X173600000Y-107700000D02*
X173600000Y-107740000D01*
X173640000Y-107740000D02*
X173600000Y-107700000D01*
X174060000Y-107740000D02*
X173640000Y-107740000D01*
X175000000Y-106800000D02*
X174060000Y-107740000D01*
X168000000Y-107740000D02*
X173600000Y-107740000D01*
X173600000Y-107740000D02*
X197700000Y-107740000D01*
X165460000Y-110280000D02*
X166740000Y-109000000D01*
X198960000Y-109000000D02*
X200240000Y-110280000D01*
X166740000Y-109000000D02*
X198960000Y-109000000D01*
X168000000Y-79800000D02*
X197700000Y-79800000D01*
X183900000Y-75400000D02*
X183220000Y-74720000D01*
X183220000Y-74720000D02*
X182920000Y-74720000D01*
X182920000Y-74720000D02*
X182900000Y-74700000D01*
X182900000Y-74720000D02*
X182900000Y-74700000D01*
X168000000Y-74720000D02*
X182900000Y-74720000D01*
X182900000Y-74720000D02*
X186800000Y-74720000D01*
X186800000Y-74720000D02*
X197700000Y-74720000D01*
X165460000Y-79800000D02*
X166760000Y-78500000D01*
X198940000Y-78500000D02*
X200240000Y-79800000D01*
X166760000Y-78500000D02*
X198940000Y-78500000D01*
X168000000Y-82340000D02*
X197700000Y-82340000D01*
X168000000Y-84880000D02*
X197700000Y-84880000D01*
X165460000Y-84880000D02*
X166740000Y-83600000D01*
X198960000Y-83600000D02*
X200240000Y-84880000D01*
X166740000Y-83600000D02*
X198960000Y-83600000D01*
X165460000Y-87420000D02*
X166780000Y-86100000D01*
X198920000Y-86100000D02*
X200240000Y-87420000D01*
X166780000Y-86100000D02*
X198920000Y-86100000D01*
X165460000Y-92500000D02*
X166660000Y-91300000D01*
X199040000Y-91300000D02*
X200240000Y-92500000D01*
X166660000Y-91300000D02*
X199040000Y-91300000D01*
X165460000Y-97580000D02*
X166740000Y-96300000D01*
X198960000Y-96300000D02*
X200240000Y-97580000D01*
X166740000Y-96300000D02*
X198960000Y-96300000D01*
X182400000Y-103300000D02*
X183040000Y-102660000D01*
X183040000Y-102660000D02*
X183660000Y-102660000D01*
X183660000Y-102660000D02*
X183700000Y-102700000D01*
X183700000Y-102700000D02*
X183700000Y-102660000D01*
X168000000Y-102660000D02*
X183700000Y-102660000D01*
X183700000Y-102660000D02*
X197700000Y-102660000D01*
X177300000Y-106800000D02*
X178900000Y-105200000D01*
X178900000Y-105200000D02*
X179500000Y-105200000D01*
X168000000Y-105200000D02*
X179500000Y-105200000D01*
X179500000Y-105200000D02*
X197700000Y-105200000D01*
X168000000Y-110280000D02*
X197700000Y-110280000D01*
X168000000Y-112820000D02*
X197700000Y-112820000D01*
X165460000Y-112820000D02*
X166780000Y-111500000D01*
X198920000Y-111500000D02*
X200240000Y-112820000D01*
X166780000Y-111500000D02*
X198920000Y-111500000D01*
X165460000Y-115360000D02*
X166720000Y-114100000D01*
X198980000Y-114100000D02*
X200240000Y-115360000D01*
X166720000Y-114100000D02*
X198980000Y-114100000D01*
X186700000Y-53350000D02*
X186680000Y-53370000D01*
X186680000Y-53370000D02*
X186680000Y-56000000D01*
X186680000Y-58540000D02*
X186680000Y-61670000D01*
X186680000Y-61670000D02*
X186650000Y-61700000D01*
D19*
G36*
X202044000Y-124344000D02*
X163656000Y-124344000D01*
X163656000Y-121692316D01*
X164618657Y-121692316D01*
X164919611Y-122420680D01*
X165476389Y-122978431D01*
X166204226Y-123280655D01*
X166992316Y-123281343D01*
X167720680Y-122980389D01*
X168278431Y-122423611D01*
X168540567Y-121792316D01*
X197018657Y-121792316D01*
X197319611Y-122520680D01*
X197876389Y-123078431D01*
X198604226Y-123380655D01*
X199392316Y-123381343D01*
X200120680Y-123080389D01*
X200678431Y-122523611D01*
X200980655Y-121795774D01*
X200981343Y-121007684D01*
X200680389Y-120279320D01*
X200123611Y-119721569D01*
X199395774Y-119419345D01*
X198607684Y-119418657D01*
X197879320Y-119719611D01*
X197321569Y-120276389D01*
X197019345Y-121004226D01*
X197018657Y-121792316D01*
X168540567Y-121792316D01*
X168580655Y-121695774D01*
X168581343Y-120907684D01*
X168280389Y-120179320D01*
X167917587Y-119815883D01*
X179289000Y-119815883D01*
X179289000Y-119864117D01*
X179382704Y-120335200D01*
X179649552Y-120734565D01*
X180048917Y-121001413D01*
X180520000Y-121095117D01*
X180991083Y-121001413D01*
X181390448Y-120734565D01*
X181657296Y-120335200D01*
X181751000Y-119864117D01*
X181751000Y-119815883D01*
X181829000Y-119815883D01*
X181829000Y-119864117D01*
X181922704Y-120335200D01*
X182189552Y-120734565D01*
X182588917Y-121001413D01*
X183060000Y-121095117D01*
X183531083Y-121001413D01*
X183930448Y-120734565D01*
X184197296Y-120335200D01*
X184291000Y-119864117D01*
X184291000Y-119815883D01*
X184369000Y-119815883D01*
X184369000Y-119864117D01*
X184462704Y-120335200D01*
X184729552Y-120734565D01*
X185128917Y-121001413D01*
X185600000Y-121095117D01*
X186071083Y-121001413D01*
X186470448Y-120734565D01*
X186737296Y-120335200D01*
X186831000Y-119864117D01*
X186831000Y-119815883D01*
X186737296Y-119344800D01*
X186470448Y-118945435D01*
X186071083Y-118678587D01*
X185600000Y-118584883D01*
X185128917Y-118678587D01*
X184729552Y-118945435D01*
X184462704Y-119344800D01*
X184369000Y-119815883D01*
X184291000Y-119815883D01*
X184197296Y-119344800D01*
X183930448Y-118945435D01*
X183531083Y-118678587D01*
X183060000Y-118584883D01*
X182588917Y-118678587D01*
X182189552Y-118945435D01*
X181922704Y-119344800D01*
X181829000Y-119815883D01*
X181751000Y-119815883D01*
X181657296Y-119344800D01*
X181390448Y-118945435D01*
X180991083Y-118678587D01*
X180520000Y-118584883D01*
X180048917Y-118678587D01*
X179649552Y-118945435D01*
X179382704Y-119344800D01*
X179289000Y-119815883D01*
X167917587Y-119815883D01*
X167723611Y-119621569D01*
X166995774Y-119319345D01*
X166207684Y-119318657D01*
X165479320Y-119619611D01*
X164921569Y-120176389D01*
X164619345Y-120904226D01*
X164618657Y-121692316D01*
X163656000Y-121692316D01*
X163656000Y-117616982D01*
X179330499Y-117616982D01*
X179542348Y-118048056D01*
X179903036Y-118365245D01*
X180203020Y-118489489D01*
X180393000Y-118428627D01*
X180393000Y-117427000D01*
X180647000Y-117427000D01*
X180647000Y-118428627D01*
X180836980Y-118489489D01*
X181136964Y-118365245D01*
X181497652Y-118048056D01*
X181709501Y-117616982D01*
X181649193Y-117427000D01*
X180647000Y-117427000D01*
X180393000Y-117427000D01*
X179390807Y-117427000D01*
X179330499Y-117616982D01*
X163656000Y-117616982D01*
X163656000Y-117275883D01*
X181829000Y-117275883D01*
X181829000Y-117324117D01*
X181922704Y-117795200D01*
X182189552Y-118194565D01*
X182588917Y-118461413D01*
X183060000Y-118555117D01*
X183531083Y-118461413D01*
X183930448Y-118194565D01*
X184197296Y-117795200D01*
X184291000Y-117324117D01*
X184291000Y-117275883D01*
X184197296Y-116804800D01*
X183960226Y-116450000D01*
X184361536Y-116450000D01*
X184361536Y-118150000D01*
X184388103Y-118291190D01*
X184471546Y-118420865D01*
X184598866Y-118507859D01*
X184750000Y-118538464D01*
X186450000Y-118538464D01*
X186591190Y-118511897D01*
X186720865Y-118428454D01*
X186807859Y-118301134D01*
X186838464Y-118150000D01*
X186838464Y-116450000D01*
X186811897Y-116308810D01*
X186728454Y-116179135D01*
X186601134Y-116092141D01*
X186450000Y-116061536D01*
X184750000Y-116061536D01*
X184608810Y-116088103D01*
X184479135Y-116171546D01*
X184392141Y-116298866D01*
X184361536Y-116450000D01*
X183960226Y-116450000D01*
X183930448Y-116405435D01*
X183531083Y-116138587D01*
X183060000Y-116044883D01*
X182588917Y-116138587D01*
X182189552Y-116405435D01*
X181922704Y-116804800D01*
X181829000Y-117275883D01*
X163656000Y-117275883D01*
X163656000Y-116983018D01*
X179330499Y-116983018D01*
X179390807Y-117173000D01*
X180393000Y-117173000D01*
X180393000Y-116171373D01*
X180647000Y-116171373D01*
X180647000Y-117173000D01*
X181649193Y-117173000D01*
X181709501Y-116983018D01*
X181497652Y-116551944D01*
X181136964Y-116234755D01*
X180836980Y-116110511D01*
X180647000Y-116171373D01*
X180393000Y-116171373D01*
X180203020Y-116110511D01*
X179903036Y-116234755D01*
X179542348Y-116551944D01*
X179330499Y-116983018D01*
X163656000Y-116983018D01*
X163656000Y-108056980D01*
X164270511Y-108056980D01*
X164394755Y-108356964D01*
X164711944Y-108717652D01*
X165143018Y-108929501D01*
X165333000Y-108869193D01*
X165333000Y-107867000D01*
X165587000Y-107867000D01*
X165587000Y-108869193D01*
X165776982Y-108929501D01*
X166208056Y-108717652D01*
X166525245Y-108356964D01*
X166649489Y-108056980D01*
X166588627Y-107867000D01*
X165587000Y-107867000D01*
X165333000Y-107867000D01*
X164331373Y-107867000D01*
X164270511Y-108056980D01*
X163656000Y-108056980D01*
X163656000Y-107423020D01*
X164270511Y-107423020D01*
X164331373Y-107613000D01*
X165333000Y-107613000D01*
X165333000Y-106610807D01*
X165587000Y-106610807D01*
X165587000Y-107613000D01*
X166588627Y-107613000D01*
X166649489Y-107423020D01*
X166525245Y-107123036D01*
X166208056Y-106762348D01*
X165776982Y-106550499D01*
X165587000Y-106610807D01*
X165333000Y-106610807D01*
X165143018Y-106550499D01*
X164711944Y-106762348D01*
X164394755Y-107123036D01*
X164270511Y-107423020D01*
X163656000Y-107423020D01*
X163656000Y-105200000D01*
X164204883Y-105200000D01*
X164298587Y-105671083D01*
X164565435Y-106070448D01*
X164964800Y-106337296D01*
X165435883Y-106431000D01*
X165484117Y-106431000D01*
X165955200Y-106337296D01*
X166354565Y-106070448D01*
X166621413Y-105671083D01*
X166715117Y-105200000D01*
X166621413Y-104728917D01*
X166603888Y-104702690D01*
X166949378Y-104357200D01*
X167086961Y-104357200D01*
X166838587Y-104728917D01*
X166744883Y-105200000D01*
X166838587Y-105671083D01*
X167105435Y-106070448D01*
X167504800Y-106337296D01*
X167975883Y-106431000D01*
X168024117Y-106431000D01*
X168495200Y-106337296D01*
X168894565Y-106070448D01*
X169161413Y-105671083D01*
X169164174Y-105657200D01*
X177796222Y-105657200D01*
X177377255Y-106076167D01*
X177156639Y-106075975D01*
X176890479Y-106185950D01*
X176686665Y-106389408D01*
X176576226Y-106655376D01*
X176575975Y-106943361D01*
X176685950Y-107209521D01*
X176759101Y-107282800D01*
X175541001Y-107282800D01*
X175613335Y-107210592D01*
X175723774Y-106944624D01*
X175724025Y-106656639D01*
X175614050Y-106390479D01*
X175410592Y-106186665D01*
X175144624Y-106076226D01*
X174856639Y-106075975D01*
X174590479Y-106185950D01*
X174386665Y-106389408D01*
X174276226Y-106655376D01*
X174276032Y-106877390D01*
X173870622Y-107282800D01*
X173782742Y-107282800D01*
X173774963Y-107277602D01*
X173600000Y-107242800D01*
X173425037Y-107277602D01*
X173417258Y-107282800D01*
X169164174Y-107282800D01*
X169161413Y-107268917D01*
X168894565Y-106869552D01*
X168495200Y-106602704D01*
X168024117Y-106509000D01*
X167975883Y-106509000D01*
X167504800Y-106602704D01*
X167105435Y-106869552D01*
X166838587Y-107268917D01*
X166744883Y-107740000D01*
X166838587Y-108211083D01*
X167060234Y-108542800D01*
X166740000Y-108542800D01*
X166565037Y-108577602D01*
X166416711Y-108676711D01*
X165951462Y-109141960D01*
X165484117Y-109049000D01*
X165435883Y-109049000D01*
X164964800Y-109142704D01*
X164565435Y-109409552D01*
X164298587Y-109808917D01*
X164204883Y-110280000D01*
X164298587Y-110751083D01*
X164565435Y-111150448D01*
X164964800Y-111417296D01*
X165435883Y-111511000D01*
X165484117Y-111511000D01*
X165955200Y-111417296D01*
X166354565Y-111150448D01*
X166621413Y-110751083D01*
X166715117Y-110280000D01*
X166621413Y-109808917D01*
X166603888Y-109782690D01*
X166929378Y-109457200D01*
X167073598Y-109457200D01*
X166838587Y-109808917D01*
X166744883Y-110280000D01*
X166838587Y-110751083D01*
X167033507Y-111042800D01*
X166780000Y-111042800D01*
X166605037Y-111077602D01*
X166456711Y-111176711D01*
X165951462Y-111681960D01*
X165484117Y-111589000D01*
X165435883Y-111589000D01*
X164964800Y-111682704D01*
X164565435Y-111949552D01*
X164298587Y-112348917D01*
X164204883Y-112820000D01*
X164298587Y-113291083D01*
X164565435Y-113690448D01*
X164964800Y-113957296D01*
X165435883Y-114051000D01*
X165484117Y-114051000D01*
X165955200Y-113957296D01*
X166354565Y-113690448D01*
X166621413Y-113291083D01*
X166715117Y-112820000D01*
X166621413Y-112348917D01*
X166603888Y-112322690D01*
X166969378Y-111957200D01*
X167100325Y-111957200D01*
X166838587Y-112348917D01*
X166744883Y-112820000D01*
X166838587Y-113291083D01*
X167073598Y-113642800D01*
X166720000Y-113642800D01*
X166545037Y-113677602D01*
X166396711Y-113776711D01*
X165951462Y-114221960D01*
X165484117Y-114129000D01*
X165435883Y-114129000D01*
X164964800Y-114222704D01*
X164565435Y-114489552D01*
X164298587Y-114888917D01*
X164204883Y-115360000D01*
X164298587Y-115831083D01*
X164565435Y-116230448D01*
X164964800Y-116497296D01*
X165435883Y-116591000D01*
X165484117Y-116591000D01*
X165955200Y-116497296D01*
X166354565Y-116230448D01*
X166621413Y-115831083D01*
X166652065Y-115676980D01*
X166810511Y-115676980D01*
X166934755Y-115976964D01*
X167251944Y-116337652D01*
X167683018Y-116549501D01*
X167873000Y-116489193D01*
X167873000Y-115487000D01*
X168127000Y-115487000D01*
X168127000Y-116489193D01*
X168316982Y-116549501D01*
X168748056Y-116337652D01*
X169065245Y-115976964D01*
X169189489Y-115676980D01*
X196510511Y-115676980D01*
X196634755Y-115976964D01*
X196951944Y-116337652D01*
X197383018Y-116549501D01*
X197573000Y-116489193D01*
X197573000Y-115487000D01*
X197827000Y-115487000D01*
X197827000Y-116489193D01*
X198016982Y-116549501D01*
X198448056Y-116337652D01*
X198765245Y-115976964D01*
X198889489Y-115676980D01*
X198828627Y-115487000D01*
X197827000Y-115487000D01*
X197573000Y-115487000D01*
X196571373Y-115487000D01*
X196510511Y-115676980D01*
X169189489Y-115676980D01*
X169128627Y-115487000D01*
X168127000Y-115487000D01*
X167873000Y-115487000D01*
X166871373Y-115487000D01*
X166810511Y-115676980D01*
X166652065Y-115676980D01*
X166715117Y-115360000D01*
X166621413Y-114888917D01*
X166603888Y-114862690D01*
X166909378Y-114557200D01*
X167098179Y-114557200D01*
X166934755Y-114743036D01*
X166810511Y-115043020D01*
X166871373Y-115233000D01*
X167873000Y-115233000D01*
X167873000Y-115213000D01*
X168127000Y-115213000D01*
X168127000Y-115233000D01*
X169128627Y-115233000D01*
X169189489Y-115043020D01*
X169065245Y-114743036D01*
X168901821Y-114557200D01*
X196798179Y-114557200D01*
X196634755Y-114743036D01*
X196510511Y-115043020D01*
X196571373Y-115233000D01*
X197573000Y-115233000D01*
X197573000Y-115213000D01*
X197827000Y-115213000D01*
X197827000Y-115233000D01*
X198828627Y-115233000D01*
X198889489Y-115043020D01*
X198765245Y-114743036D01*
X198601821Y-114557200D01*
X198790622Y-114557200D01*
X199096112Y-114862690D01*
X199078587Y-114888917D01*
X198984883Y-115360000D01*
X199078587Y-115831083D01*
X199345435Y-116230448D01*
X199744800Y-116497296D01*
X200215883Y-116591000D01*
X200264117Y-116591000D01*
X200735200Y-116497296D01*
X201134565Y-116230448D01*
X201401413Y-115831083D01*
X201495117Y-115360000D01*
X201401413Y-114888917D01*
X201134565Y-114489552D01*
X200735200Y-114222704D01*
X200264117Y-114129000D01*
X200215883Y-114129000D01*
X199748538Y-114221960D01*
X199303289Y-113776711D01*
X199154963Y-113677602D01*
X198980000Y-113642800D01*
X198626402Y-113642800D01*
X198861413Y-113291083D01*
X198955117Y-112820000D01*
X198861413Y-112348917D01*
X198599675Y-111957200D01*
X198730622Y-111957200D01*
X199096112Y-112322690D01*
X199078587Y-112348917D01*
X198984883Y-112820000D01*
X199078587Y-113291083D01*
X199345435Y-113690448D01*
X199744800Y-113957296D01*
X200215883Y-114051000D01*
X200264117Y-114051000D01*
X200735200Y-113957296D01*
X201134565Y-113690448D01*
X201401413Y-113291083D01*
X201495117Y-112820000D01*
X201401413Y-112348917D01*
X201134565Y-111949552D01*
X200735200Y-111682704D01*
X200264117Y-111589000D01*
X200215883Y-111589000D01*
X199748538Y-111681960D01*
X199243289Y-111176711D01*
X199094963Y-111077602D01*
X198920000Y-111042800D01*
X198666493Y-111042800D01*
X198861413Y-110751083D01*
X198955117Y-110280000D01*
X198861413Y-109808917D01*
X198626402Y-109457200D01*
X198770622Y-109457200D01*
X199096112Y-109782690D01*
X199078587Y-109808917D01*
X198984883Y-110280000D01*
X199078587Y-110751083D01*
X199345435Y-111150448D01*
X199744800Y-111417296D01*
X200215883Y-111511000D01*
X200264117Y-111511000D01*
X200735200Y-111417296D01*
X201134565Y-111150448D01*
X201401413Y-110751083D01*
X201495117Y-110280000D01*
X201401413Y-109808917D01*
X201134565Y-109409552D01*
X200735200Y-109142704D01*
X200264117Y-109049000D01*
X200215883Y-109049000D01*
X199748538Y-109141960D01*
X199283289Y-108676711D01*
X199134963Y-108577602D01*
X198960000Y-108542800D01*
X198639766Y-108542800D01*
X198861413Y-108211083D01*
X198892065Y-108056980D01*
X199050511Y-108056980D01*
X199174755Y-108356964D01*
X199491944Y-108717652D01*
X199923018Y-108929501D01*
X200113000Y-108869193D01*
X200113000Y-107867000D01*
X200367000Y-107867000D01*
X200367000Y-108869193D01*
X200556982Y-108929501D01*
X200988056Y-108717652D01*
X201305245Y-108356964D01*
X201429489Y-108056980D01*
X201368627Y-107867000D01*
X200367000Y-107867000D01*
X200113000Y-107867000D01*
X199111373Y-107867000D01*
X199050511Y-108056980D01*
X198892065Y-108056980D01*
X198955117Y-107740000D01*
X198892066Y-107423020D01*
X199050511Y-107423020D01*
X199111373Y-107613000D01*
X200113000Y-107613000D01*
X200113000Y-106610807D01*
X200367000Y-106610807D01*
X200367000Y-107613000D01*
X201368627Y-107613000D01*
X201429489Y-107423020D01*
X201305245Y-107123036D01*
X200988056Y-106762348D01*
X200556982Y-106550499D01*
X200367000Y-106610807D01*
X200113000Y-106610807D01*
X199923018Y-106550499D01*
X199491944Y-106762348D01*
X199174755Y-107123036D01*
X199050511Y-107423020D01*
X198892066Y-107423020D01*
X198861413Y-107268917D01*
X198594565Y-106869552D01*
X198195200Y-106602704D01*
X197724117Y-106509000D01*
X197675883Y-106509000D01*
X197204800Y-106602704D01*
X196805435Y-106869552D01*
X196538587Y-107268917D01*
X196535826Y-107282800D01*
X177841001Y-107282800D01*
X177913335Y-107210592D01*
X178023774Y-106944624D01*
X178023968Y-106722610D01*
X179089378Y-105657200D01*
X196535826Y-105657200D01*
X196538587Y-105671083D01*
X196805435Y-106070448D01*
X197204800Y-106337296D01*
X197675883Y-106431000D01*
X197724117Y-106431000D01*
X198195200Y-106337296D01*
X198594565Y-106070448D01*
X198861413Y-105671083D01*
X198955117Y-105200000D01*
X198861413Y-104728917D01*
X198613039Y-104357200D01*
X198750622Y-104357200D01*
X199096112Y-104702690D01*
X199078587Y-104728917D01*
X198984883Y-105200000D01*
X199078587Y-105671083D01*
X199345435Y-106070448D01*
X199744800Y-106337296D01*
X200215883Y-106431000D01*
X200264117Y-106431000D01*
X200735200Y-106337296D01*
X201134565Y-106070448D01*
X201401413Y-105671083D01*
X201495117Y-105200000D01*
X201401413Y-104728917D01*
X201134565Y-104329552D01*
X200735200Y-104062704D01*
X200264117Y-103969000D01*
X200215883Y-103969000D01*
X199748538Y-104061960D01*
X199263289Y-103576711D01*
X199114963Y-103477602D01*
X198940000Y-103442800D01*
X198653130Y-103442800D01*
X198861413Y-103131083D01*
X198892065Y-102976980D01*
X199050511Y-102976980D01*
X199174755Y-103276964D01*
X199491944Y-103637652D01*
X199923018Y-103849501D01*
X200113000Y-103789193D01*
X200113000Y-102787000D01*
X200367000Y-102787000D01*
X200367000Y-103789193D01*
X200556982Y-103849501D01*
X200988056Y-103637652D01*
X201305245Y-103276964D01*
X201429489Y-102976980D01*
X201368627Y-102787000D01*
X200367000Y-102787000D01*
X200113000Y-102787000D01*
X199111373Y-102787000D01*
X199050511Y-102976980D01*
X198892065Y-102976980D01*
X198955117Y-102660000D01*
X198892066Y-102343020D01*
X199050511Y-102343020D01*
X199111373Y-102533000D01*
X200113000Y-102533000D01*
X200113000Y-101530807D01*
X200367000Y-101530807D01*
X200367000Y-102533000D01*
X201368627Y-102533000D01*
X201429489Y-102343020D01*
X201305245Y-102043036D01*
X200988056Y-101682348D01*
X200556982Y-101470499D01*
X200367000Y-101530807D01*
X200113000Y-101530807D01*
X199923018Y-101470499D01*
X199491944Y-101682348D01*
X199174755Y-102043036D01*
X199050511Y-102343020D01*
X198892066Y-102343020D01*
X198861413Y-102188917D01*
X198594565Y-101789552D01*
X198195200Y-101522704D01*
X197724117Y-101429000D01*
X197675883Y-101429000D01*
X197204800Y-101522704D01*
X196805435Y-101789552D01*
X196538587Y-102188917D01*
X196535826Y-102202800D01*
X169164174Y-102202800D01*
X169161413Y-102188917D01*
X168894565Y-101789552D01*
X168495200Y-101522704D01*
X168024117Y-101429000D01*
X167975883Y-101429000D01*
X167504800Y-101522704D01*
X167105435Y-101789552D01*
X166838587Y-102188917D01*
X166744883Y-102660000D01*
X166838587Y-103131083D01*
X167046870Y-103442800D01*
X166760000Y-103442800D01*
X166585037Y-103477602D01*
X166436711Y-103576711D01*
X165951462Y-104061960D01*
X165484117Y-103969000D01*
X165435883Y-103969000D01*
X164964800Y-104062704D01*
X164565435Y-104329552D01*
X164298587Y-104728917D01*
X164204883Y-105200000D01*
X163656000Y-105200000D01*
X163656000Y-102976980D01*
X164270511Y-102976980D01*
X164394755Y-103276964D01*
X164711944Y-103637652D01*
X165143018Y-103849501D01*
X165333000Y-103789193D01*
X165333000Y-102787000D01*
X165587000Y-102787000D01*
X165587000Y-103789193D01*
X165776982Y-103849501D01*
X166208056Y-103637652D01*
X166525245Y-103276964D01*
X166649489Y-102976980D01*
X166588627Y-102787000D01*
X165587000Y-102787000D01*
X165333000Y-102787000D01*
X164331373Y-102787000D01*
X164270511Y-102976980D01*
X163656000Y-102976980D01*
X163656000Y-102343020D01*
X164270511Y-102343020D01*
X164331373Y-102533000D01*
X165333000Y-102533000D01*
X165333000Y-101530807D01*
X165587000Y-101530807D01*
X165587000Y-102533000D01*
X166588627Y-102533000D01*
X166649489Y-102343020D01*
X166525245Y-102043036D01*
X166208056Y-101682348D01*
X165776982Y-101470499D01*
X165587000Y-101530807D01*
X165333000Y-101530807D01*
X165143018Y-101470499D01*
X164711944Y-101682348D01*
X164394755Y-102043036D01*
X164270511Y-102343020D01*
X163656000Y-102343020D01*
X163656000Y-100120000D01*
X164204883Y-100120000D01*
X164298587Y-100591083D01*
X164565435Y-100990448D01*
X164964800Y-101257296D01*
X165435883Y-101351000D01*
X165484117Y-101351000D01*
X165955200Y-101257296D01*
X166354565Y-100990448D01*
X166621413Y-100591083D01*
X166715117Y-100120000D01*
X166744883Y-100120000D01*
X166838587Y-100591083D01*
X167105435Y-100990448D01*
X167504800Y-101257296D01*
X167975883Y-101351000D01*
X168024117Y-101351000D01*
X168495200Y-101257296D01*
X168894565Y-100990448D01*
X169161413Y-100591083D01*
X169255117Y-100120000D01*
X196444883Y-100120000D01*
X196538587Y-100591083D01*
X196805435Y-100990448D01*
X197204800Y-101257296D01*
X197675883Y-101351000D01*
X197724117Y-101351000D01*
X198195200Y-101257296D01*
X198594565Y-100990448D01*
X198861413Y-100591083D01*
X198955117Y-100120000D01*
X198984883Y-100120000D01*
X199078587Y-100591083D01*
X199345435Y-100990448D01*
X199744800Y-101257296D01*
X200215883Y-101351000D01*
X200264117Y-101351000D01*
X200735200Y-101257296D01*
X201134565Y-100990448D01*
X201401413Y-100591083D01*
X201495117Y-100120000D01*
X201401413Y-99648917D01*
X201134565Y-99249552D01*
X200735200Y-98982704D01*
X200264117Y-98889000D01*
X200215883Y-98889000D01*
X199744800Y-98982704D01*
X199345435Y-99249552D01*
X199078587Y-99648917D01*
X198984883Y-100120000D01*
X198955117Y-100120000D01*
X198861413Y-99648917D01*
X198594565Y-99249552D01*
X198195200Y-98982704D01*
X197724117Y-98889000D01*
X197675883Y-98889000D01*
X197204800Y-98982704D01*
X196805435Y-99249552D01*
X196538587Y-99648917D01*
X196444883Y-100120000D01*
X169255117Y-100120000D01*
X169161413Y-99648917D01*
X168894565Y-99249552D01*
X168495200Y-98982704D01*
X168024117Y-98889000D01*
X167975883Y-98889000D01*
X167504800Y-98982704D01*
X167105435Y-99249552D01*
X166838587Y-99648917D01*
X166744883Y-100120000D01*
X166715117Y-100120000D01*
X166621413Y-99648917D01*
X166354565Y-99249552D01*
X165955200Y-98982704D01*
X165484117Y-98889000D01*
X165435883Y-98889000D01*
X164964800Y-98982704D01*
X164565435Y-99249552D01*
X164298587Y-99648917D01*
X164204883Y-100120000D01*
X163656000Y-100120000D01*
X163656000Y-92500000D01*
X164204883Y-92500000D01*
X164298587Y-92971083D01*
X164565435Y-93370448D01*
X164964800Y-93637296D01*
X165435883Y-93731000D01*
X165484117Y-93731000D01*
X165955200Y-93637296D01*
X166354565Y-93370448D01*
X166621413Y-92971083D01*
X166715117Y-92500000D01*
X166621413Y-92028917D01*
X166603888Y-92002690D01*
X166849378Y-91757200D01*
X167020143Y-91757200D01*
X166838587Y-92028917D01*
X166744883Y-92500000D01*
X166838587Y-92971083D01*
X167086961Y-93342800D01*
X166700000Y-93342800D01*
X166525037Y-93377602D01*
X166376711Y-93476711D01*
X165951462Y-93901960D01*
X165484117Y-93809000D01*
X165435883Y-93809000D01*
X164964800Y-93902704D01*
X164565435Y-94169552D01*
X164298587Y-94568917D01*
X164204883Y-95040000D01*
X164298587Y-95511083D01*
X164565435Y-95910448D01*
X164964800Y-96177296D01*
X165435883Y-96271000D01*
X165484117Y-96271000D01*
X165955200Y-96177296D01*
X166354565Y-95910448D01*
X166621413Y-95511083D01*
X166715117Y-95040000D01*
X166621413Y-94568917D01*
X166603888Y-94542690D01*
X166889378Y-94257200D01*
X167046870Y-94257200D01*
X166838587Y-94568917D01*
X166744883Y-95040000D01*
X166838587Y-95511083D01*
X167060234Y-95842800D01*
X166740000Y-95842800D01*
X166565037Y-95877602D01*
X166416711Y-95976711D01*
X165951462Y-96441960D01*
X165484117Y-96349000D01*
X165435883Y-96349000D01*
X164964800Y-96442704D01*
X164565435Y-96709552D01*
X164298587Y-97108917D01*
X164204883Y-97580000D01*
X164298587Y-98051083D01*
X164565435Y-98450448D01*
X164964800Y-98717296D01*
X165435883Y-98811000D01*
X165484117Y-98811000D01*
X165955200Y-98717296D01*
X166354565Y-98450448D01*
X166621413Y-98051083D01*
X166652065Y-97896980D01*
X166810511Y-97896980D01*
X166934755Y-98196964D01*
X167251944Y-98557652D01*
X167683018Y-98769501D01*
X167873000Y-98709193D01*
X167873000Y-97707000D01*
X168127000Y-97707000D01*
X168127000Y-98709193D01*
X168316982Y-98769501D01*
X168748056Y-98557652D01*
X169065245Y-98196964D01*
X169189489Y-97896980D01*
X196510511Y-97896980D01*
X196634755Y-98196964D01*
X196951944Y-98557652D01*
X197383018Y-98769501D01*
X197573000Y-98709193D01*
X197573000Y-97707000D01*
X197827000Y-97707000D01*
X197827000Y-98709193D01*
X198016982Y-98769501D01*
X198448056Y-98557652D01*
X198765245Y-98196964D01*
X198889489Y-97896980D01*
X198828627Y-97707000D01*
X197827000Y-97707000D01*
X197573000Y-97707000D01*
X196571373Y-97707000D01*
X196510511Y-97896980D01*
X169189489Y-97896980D01*
X169128627Y-97707000D01*
X168127000Y-97707000D01*
X167873000Y-97707000D01*
X166871373Y-97707000D01*
X166810511Y-97896980D01*
X166652065Y-97896980D01*
X166715117Y-97580000D01*
X166621413Y-97108917D01*
X166603888Y-97082690D01*
X166929378Y-96757200D01*
X167115767Y-96757200D01*
X166934755Y-96963036D01*
X166810511Y-97263020D01*
X166871373Y-97453000D01*
X167873000Y-97453000D01*
X167873000Y-97433000D01*
X168127000Y-97433000D01*
X168127000Y-97453000D01*
X169128627Y-97453000D01*
X169189489Y-97263020D01*
X169065245Y-96963036D01*
X168884233Y-96757200D01*
X196815767Y-96757200D01*
X196634755Y-96963036D01*
X196510511Y-97263020D01*
X196571373Y-97453000D01*
X197573000Y-97453000D01*
X197573000Y-97433000D01*
X197827000Y-97433000D01*
X197827000Y-97453000D01*
X198828627Y-97453000D01*
X198889489Y-97263020D01*
X198765245Y-96963036D01*
X198584233Y-96757200D01*
X198770622Y-96757200D01*
X199096112Y-97082690D01*
X199078587Y-97108917D01*
X198984883Y-97580000D01*
X199078587Y-98051083D01*
X199345435Y-98450448D01*
X199744800Y-98717296D01*
X200215883Y-98811000D01*
X200264117Y-98811000D01*
X200735200Y-98717296D01*
X201134565Y-98450448D01*
X201401413Y-98051083D01*
X201495117Y-97580000D01*
X201401413Y-97108917D01*
X201134565Y-96709552D01*
X200735200Y-96442704D01*
X200264117Y-96349000D01*
X200215883Y-96349000D01*
X199748538Y-96441960D01*
X199283289Y-95976711D01*
X199134963Y-95877602D01*
X198960000Y-95842800D01*
X198639766Y-95842800D01*
X198861413Y-95511083D01*
X198955117Y-95040000D01*
X198861413Y-94568917D01*
X198653130Y-94257200D01*
X198810622Y-94257200D01*
X199096112Y-94542690D01*
X199078587Y-94568917D01*
X198984883Y-95040000D01*
X199078587Y-95511083D01*
X199345435Y-95910448D01*
X199744800Y-96177296D01*
X200215883Y-96271000D01*
X200264117Y-96271000D01*
X200735200Y-96177296D01*
X201134565Y-95910448D01*
X201401413Y-95511083D01*
X201495117Y-95040000D01*
X201401413Y-94568917D01*
X201134565Y-94169552D01*
X200735200Y-93902704D01*
X200264117Y-93809000D01*
X200215883Y-93809000D01*
X199748538Y-93901960D01*
X199323289Y-93476711D01*
X199174963Y-93377602D01*
X199000000Y-93342800D01*
X198613039Y-93342800D01*
X198861413Y-92971083D01*
X198955117Y-92500000D01*
X198861413Y-92028917D01*
X198679857Y-91757200D01*
X198850622Y-91757200D01*
X199096112Y-92002690D01*
X199078587Y-92028917D01*
X198984883Y-92500000D01*
X199078587Y-92971083D01*
X199345435Y-93370448D01*
X199744800Y-93637296D01*
X200215883Y-93731000D01*
X200264117Y-93731000D01*
X200735200Y-93637296D01*
X201134565Y-93370448D01*
X201401413Y-92971083D01*
X201495117Y-92500000D01*
X201401413Y-92028917D01*
X201134565Y-91629552D01*
X200735200Y-91362704D01*
X200264117Y-91269000D01*
X200215883Y-91269000D01*
X199748538Y-91361960D01*
X199363289Y-90976711D01*
X199214963Y-90877602D01*
X199040000Y-90842800D01*
X198576079Y-90842800D01*
X198594565Y-90830448D01*
X198861413Y-90431083D01*
X198892065Y-90276980D01*
X199050511Y-90276980D01*
X199174755Y-90576964D01*
X199491944Y-90937652D01*
X199923018Y-91149501D01*
X200113000Y-91089193D01*
X200113000Y-90087000D01*
X200367000Y-90087000D01*
X200367000Y-91089193D01*
X200556982Y-91149501D01*
X200988056Y-90937652D01*
X201305245Y-90576964D01*
X201429489Y-90276980D01*
X201368627Y-90087000D01*
X200367000Y-90087000D01*
X200113000Y-90087000D01*
X199111373Y-90087000D01*
X199050511Y-90276980D01*
X198892065Y-90276980D01*
X198955117Y-89960000D01*
X198892066Y-89643020D01*
X199050511Y-89643020D01*
X199111373Y-89833000D01*
X200113000Y-89833000D01*
X200113000Y-88830807D01*
X200367000Y-88830807D01*
X200367000Y-89833000D01*
X201368627Y-89833000D01*
X201429489Y-89643020D01*
X201305245Y-89343036D01*
X200988056Y-88982348D01*
X200556982Y-88770499D01*
X200367000Y-88830807D01*
X200113000Y-88830807D01*
X199923018Y-88770499D01*
X199491944Y-88982348D01*
X199174755Y-89343036D01*
X199050511Y-89643020D01*
X198892066Y-89643020D01*
X198861413Y-89488917D01*
X198594565Y-89089552D01*
X198195200Y-88822704D01*
X197724117Y-88729000D01*
X197675883Y-88729000D01*
X197204800Y-88822704D01*
X196805435Y-89089552D01*
X196538587Y-89488917D01*
X196535826Y-89502800D01*
X169164174Y-89502800D01*
X169161413Y-89488917D01*
X168894565Y-89089552D01*
X168495200Y-88822704D01*
X168024117Y-88729000D01*
X167975883Y-88729000D01*
X167504800Y-88822704D01*
X167105435Y-89089552D01*
X166838587Y-89488917D01*
X166744883Y-89960000D01*
X166838587Y-90431083D01*
X167105435Y-90830448D01*
X167123921Y-90842800D01*
X166660000Y-90842800D01*
X166485037Y-90877602D01*
X166336711Y-90976711D01*
X165951462Y-91361960D01*
X165484117Y-91269000D01*
X165435883Y-91269000D01*
X164964800Y-91362704D01*
X164565435Y-91629552D01*
X164298587Y-92028917D01*
X164204883Y-92500000D01*
X163656000Y-92500000D01*
X163656000Y-90276980D01*
X164270511Y-90276980D01*
X164394755Y-90576964D01*
X164711944Y-90937652D01*
X165143018Y-91149501D01*
X165333000Y-91089193D01*
X165333000Y-90087000D01*
X165587000Y-90087000D01*
X165587000Y-91089193D01*
X165776982Y-91149501D01*
X166208056Y-90937652D01*
X166525245Y-90576964D01*
X166649489Y-90276980D01*
X166588627Y-90087000D01*
X165587000Y-90087000D01*
X165333000Y-90087000D01*
X164331373Y-90087000D01*
X164270511Y-90276980D01*
X163656000Y-90276980D01*
X163656000Y-89643020D01*
X164270511Y-89643020D01*
X164331373Y-89833000D01*
X165333000Y-89833000D01*
X165333000Y-88830807D01*
X165587000Y-88830807D01*
X165587000Y-89833000D01*
X166588627Y-89833000D01*
X166649489Y-89643020D01*
X166525245Y-89343036D01*
X166208056Y-88982348D01*
X165776982Y-88770499D01*
X165587000Y-88830807D01*
X165333000Y-88830807D01*
X165143018Y-88770499D01*
X164711944Y-88982348D01*
X164394755Y-89343036D01*
X164270511Y-89643020D01*
X163656000Y-89643020D01*
X163656000Y-84880000D01*
X164204883Y-84880000D01*
X164298587Y-85351083D01*
X164565435Y-85750448D01*
X164964800Y-86017296D01*
X165435883Y-86111000D01*
X165484117Y-86111000D01*
X165955200Y-86017296D01*
X166354565Y-85750448D01*
X166621413Y-85351083D01*
X166715117Y-84880000D01*
X166621413Y-84408917D01*
X166603888Y-84382690D01*
X166929378Y-84057200D01*
X167073598Y-84057200D01*
X166838587Y-84408917D01*
X166744883Y-84880000D01*
X166838587Y-85351083D01*
X167033507Y-85642800D01*
X166780000Y-85642800D01*
X166605037Y-85677602D01*
X166456711Y-85776711D01*
X165951462Y-86281960D01*
X165484117Y-86189000D01*
X165435883Y-86189000D01*
X164964800Y-86282704D01*
X164565435Y-86549552D01*
X164298587Y-86948917D01*
X164204883Y-87420000D01*
X164298587Y-87891083D01*
X164565435Y-88290448D01*
X164964800Y-88557296D01*
X165435883Y-88651000D01*
X165484117Y-88651000D01*
X165955200Y-88557296D01*
X166354565Y-88290448D01*
X166621413Y-87891083D01*
X166715117Y-87420000D01*
X166621413Y-86948917D01*
X166603888Y-86922690D01*
X166969378Y-86557200D01*
X167100325Y-86557200D01*
X166838587Y-86948917D01*
X166744883Y-87420000D01*
X166838587Y-87891083D01*
X167105435Y-88290448D01*
X167504800Y-88557296D01*
X167975883Y-88651000D01*
X168024117Y-88651000D01*
X168495200Y-88557296D01*
X168894565Y-88290448D01*
X169017943Y-88105800D01*
X187812090Y-88105800D01*
X187855376Y-88123774D01*
X188143361Y-88124025D01*
X188187469Y-88105800D01*
X196682057Y-88105800D01*
X196805435Y-88290448D01*
X197204800Y-88557296D01*
X197675883Y-88651000D01*
X197724117Y-88651000D01*
X198195200Y-88557296D01*
X198594565Y-88290448D01*
X198861413Y-87891083D01*
X198955117Y-87420000D01*
X198861413Y-86948917D01*
X198599675Y-86557200D01*
X198730622Y-86557200D01*
X199096112Y-86922690D01*
X199078587Y-86948917D01*
X198984883Y-87420000D01*
X199078587Y-87891083D01*
X199345435Y-88290448D01*
X199744800Y-88557296D01*
X200215883Y-88651000D01*
X200264117Y-88651000D01*
X200735200Y-88557296D01*
X201134565Y-88290448D01*
X201401413Y-87891083D01*
X201495117Y-87420000D01*
X201401413Y-86948917D01*
X201134565Y-86549552D01*
X200735200Y-86282704D01*
X200264117Y-86189000D01*
X200215883Y-86189000D01*
X199748538Y-86281960D01*
X199243289Y-85776711D01*
X199094963Y-85677602D01*
X198920000Y-85642800D01*
X198666493Y-85642800D01*
X198861413Y-85351083D01*
X198955117Y-84880000D01*
X198861413Y-84408917D01*
X198626402Y-84057200D01*
X198770622Y-84057200D01*
X199096112Y-84382690D01*
X199078587Y-84408917D01*
X198984883Y-84880000D01*
X199078587Y-85351083D01*
X199345435Y-85750448D01*
X199744800Y-86017296D01*
X200215883Y-86111000D01*
X200264117Y-86111000D01*
X200735200Y-86017296D01*
X201134565Y-85750448D01*
X201401413Y-85351083D01*
X201495117Y-84880000D01*
X201401413Y-84408917D01*
X201134565Y-84009552D01*
X200735200Y-83742704D01*
X200264117Y-83649000D01*
X200215883Y-83649000D01*
X199748538Y-83741960D01*
X199283289Y-83276711D01*
X199134963Y-83177602D01*
X198960000Y-83142800D01*
X198639766Y-83142800D01*
X198861413Y-82811083D01*
X198892065Y-82656980D01*
X199050511Y-82656980D01*
X199174755Y-82956964D01*
X199491944Y-83317652D01*
X199923018Y-83529501D01*
X200113000Y-83469193D01*
X200113000Y-82467000D01*
X200367000Y-82467000D01*
X200367000Y-83469193D01*
X200556982Y-83529501D01*
X200988056Y-83317652D01*
X201305245Y-82956964D01*
X201429489Y-82656980D01*
X201368627Y-82467000D01*
X200367000Y-82467000D01*
X200113000Y-82467000D01*
X199111373Y-82467000D01*
X199050511Y-82656980D01*
X198892065Y-82656980D01*
X198955117Y-82340000D01*
X198892066Y-82023020D01*
X199050511Y-82023020D01*
X199111373Y-82213000D01*
X200113000Y-82213000D01*
X200113000Y-81210807D01*
X200367000Y-81210807D01*
X200367000Y-82213000D01*
X201368627Y-82213000D01*
X201429489Y-82023020D01*
X201305245Y-81723036D01*
X200988056Y-81362348D01*
X200556982Y-81150499D01*
X200367000Y-81210807D01*
X200113000Y-81210807D01*
X199923018Y-81150499D01*
X199491944Y-81362348D01*
X199174755Y-81723036D01*
X199050511Y-82023020D01*
X198892066Y-82023020D01*
X198861413Y-81868917D01*
X198594565Y-81469552D01*
X198195200Y-81202704D01*
X197724117Y-81109000D01*
X197675883Y-81109000D01*
X197204800Y-81202704D01*
X196805435Y-81469552D01*
X196538587Y-81868917D01*
X196535826Y-81882800D01*
X169164174Y-81882800D01*
X169161413Y-81868917D01*
X168894565Y-81469552D01*
X168495200Y-81202704D01*
X168024117Y-81109000D01*
X167975883Y-81109000D01*
X167504800Y-81202704D01*
X167105435Y-81469552D01*
X166838587Y-81868917D01*
X166744883Y-82340000D01*
X166838587Y-82811083D01*
X167060234Y-83142800D01*
X166740000Y-83142800D01*
X166565037Y-83177602D01*
X166416711Y-83276711D01*
X165951462Y-83741960D01*
X165484117Y-83649000D01*
X165435883Y-83649000D01*
X164964800Y-83742704D01*
X164565435Y-84009552D01*
X164298587Y-84408917D01*
X164204883Y-84880000D01*
X163656000Y-84880000D01*
X163656000Y-82656980D01*
X164270511Y-82656980D01*
X164394755Y-82956964D01*
X164711944Y-83317652D01*
X165143018Y-83529501D01*
X165333000Y-83469193D01*
X165333000Y-82467000D01*
X165587000Y-82467000D01*
X165587000Y-83469193D01*
X165776982Y-83529501D01*
X166208056Y-83317652D01*
X166525245Y-82956964D01*
X166649489Y-82656980D01*
X166588627Y-82467000D01*
X165587000Y-82467000D01*
X165333000Y-82467000D01*
X164331373Y-82467000D01*
X164270511Y-82656980D01*
X163656000Y-82656980D01*
X163656000Y-82023020D01*
X164270511Y-82023020D01*
X164331373Y-82213000D01*
X165333000Y-82213000D01*
X165333000Y-81210807D01*
X165587000Y-81210807D01*
X165587000Y-82213000D01*
X166588627Y-82213000D01*
X166649489Y-82023020D01*
X166525245Y-81723036D01*
X166208056Y-81362348D01*
X165776982Y-81150499D01*
X165587000Y-81210807D01*
X165333000Y-81210807D01*
X165143018Y-81150499D01*
X164711944Y-81362348D01*
X164394755Y-81723036D01*
X164270511Y-82023020D01*
X163656000Y-82023020D01*
X163656000Y-79800000D01*
X164204883Y-79800000D01*
X164298587Y-80271083D01*
X164565435Y-80670448D01*
X164964800Y-80937296D01*
X165435883Y-81031000D01*
X165484117Y-81031000D01*
X165955200Y-80937296D01*
X166354565Y-80670448D01*
X166621413Y-80271083D01*
X166715117Y-79800000D01*
X166621413Y-79328917D01*
X166603888Y-79302690D01*
X166949378Y-78957200D01*
X167086961Y-78957200D01*
X166838587Y-79328917D01*
X166744883Y-79800000D01*
X166838587Y-80271083D01*
X167105435Y-80670448D01*
X167504800Y-80937296D01*
X167975883Y-81031000D01*
X168024117Y-81031000D01*
X168495200Y-80937296D01*
X168894565Y-80670448D01*
X169161413Y-80271083D01*
X169164174Y-80257200D01*
X196535826Y-80257200D01*
X196538587Y-80271083D01*
X196805435Y-80670448D01*
X197204800Y-80937296D01*
X197675883Y-81031000D01*
X197724117Y-81031000D01*
X198195200Y-80937296D01*
X198594565Y-80670448D01*
X198861413Y-80271083D01*
X198955117Y-79800000D01*
X198861413Y-79328917D01*
X198613039Y-78957200D01*
X198750622Y-78957200D01*
X199096112Y-79302690D01*
X199078587Y-79328917D01*
X198984883Y-79800000D01*
X199078587Y-80271083D01*
X199345435Y-80670448D01*
X199744800Y-80937296D01*
X200215883Y-81031000D01*
X200264117Y-81031000D01*
X200735200Y-80937296D01*
X201134565Y-80670448D01*
X201401413Y-80271083D01*
X201495117Y-79800000D01*
X201401413Y-79328917D01*
X201134565Y-78929552D01*
X200735200Y-78662704D01*
X200264117Y-78569000D01*
X200215883Y-78569000D01*
X199748538Y-78661960D01*
X199263289Y-78176711D01*
X199114963Y-78077602D01*
X198940000Y-78042800D01*
X198619409Y-78042800D01*
X198765245Y-77876964D01*
X198889489Y-77576980D01*
X198828627Y-77387000D01*
X197827000Y-77387000D01*
X197827000Y-77407000D01*
X197573000Y-77407000D01*
X197573000Y-77387000D01*
X196571373Y-77387000D01*
X196510511Y-77576980D01*
X196634755Y-77876964D01*
X196780591Y-78042800D01*
X168919409Y-78042800D01*
X169065245Y-77876964D01*
X169189489Y-77576980D01*
X169128627Y-77387000D01*
X168127000Y-77387000D01*
X168127000Y-77407000D01*
X167873000Y-77407000D01*
X167873000Y-77387000D01*
X166871373Y-77387000D01*
X166810511Y-77576980D01*
X166934755Y-77876964D01*
X167080591Y-78042800D01*
X166760000Y-78042800D01*
X166585037Y-78077602D01*
X166436711Y-78176711D01*
X165951462Y-78661960D01*
X165484117Y-78569000D01*
X165435883Y-78569000D01*
X164964800Y-78662704D01*
X164565435Y-78929552D01*
X164298587Y-79328917D01*
X164204883Y-79800000D01*
X163656000Y-79800000D01*
X163656000Y-74720000D01*
X164204883Y-74720000D01*
X164298587Y-75191083D01*
X164565435Y-75590448D01*
X164964800Y-75857296D01*
X165435883Y-75951000D01*
X165484117Y-75951000D01*
X165955200Y-75857296D01*
X166354565Y-75590448D01*
X166621413Y-75191083D01*
X166715117Y-74720000D01*
X166621413Y-74248917D01*
X166603889Y-74222690D01*
X166869379Y-73957200D01*
X167033507Y-73957200D01*
X166838587Y-74248917D01*
X166744883Y-74720000D01*
X166838587Y-75191083D01*
X167073598Y-75542800D01*
X166720000Y-75542800D01*
X166545037Y-75577602D01*
X166396711Y-75676711D01*
X165951462Y-76121960D01*
X165484117Y-76029000D01*
X165435883Y-76029000D01*
X164964800Y-76122704D01*
X164565435Y-76389552D01*
X164298587Y-76788917D01*
X164204883Y-77260000D01*
X164298587Y-77731083D01*
X164565435Y-78130448D01*
X164964800Y-78397296D01*
X165435883Y-78491000D01*
X165484117Y-78491000D01*
X165955200Y-78397296D01*
X166354565Y-78130448D01*
X166621413Y-77731083D01*
X166715117Y-77260000D01*
X166621413Y-76788917D01*
X166603888Y-76762690D01*
X166909378Y-76457200D01*
X167098179Y-76457200D01*
X166934755Y-76643036D01*
X166810511Y-76943020D01*
X166871373Y-77133000D01*
X167873000Y-77133000D01*
X167873000Y-77113000D01*
X168127000Y-77113000D01*
X168127000Y-77133000D01*
X169128627Y-77133000D01*
X169189489Y-76943020D01*
X169065245Y-76643036D01*
X168901821Y-76457200D01*
X196798179Y-76457200D01*
X196634755Y-76643036D01*
X196510511Y-76943020D01*
X196571373Y-77133000D01*
X197573000Y-77133000D01*
X197573000Y-77113000D01*
X197827000Y-77113000D01*
X197827000Y-77133000D01*
X198828627Y-77133000D01*
X198889489Y-76943020D01*
X198765245Y-76643036D01*
X198601821Y-76457200D01*
X198790622Y-76457200D01*
X199096112Y-76762690D01*
X199078587Y-76788917D01*
X198984883Y-77260000D01*
X199078587Y-77731083D01*
X199345435Y-78130448D01*
X199744800Y-78397296D01*
X200215883Y-78491000D01*
X200264117Y-78491000D01*
X200735200Y-78397296D01*
X201134565Y-78130448D01*
X201401413Y-77731083D01*
X201495117Y-77260000D01*
X201401413Y-76788917D01*
X201134565Y-76389552D01*
X200735200Y-76122704D01*
X200264117Y-76029000D01*
X200215883Y-76029000D01*
X199748538Y-76121960D01*
X199303289Y-75676711D01*
X199154963Y-75577602D01*
X198980000Y-75542800D01*
X198626402Y-75542800D01*
X198861413Y-75191083D01*
X198955117Y-74720000D01*
X198861413Y-74248917D01*
X198666493Y-73957200D01*
X198830622Y-73957200D01*
X199096111Y-74222690D01*
X199078587Y-74248917D01*
X198984883Y-74720000D01*
X199078587Y-75191083D01*
X199345435Y-75590448D01*
X199744800Y-75857296D01*
X200215883Y-75951000D01*
X200264117Y-75951000D01*
X200735200Y-75857296D01*
X201134565Y-75590448D01*
X201401413Y-75191083D01*
X201495117Y-74720000D01*
X201401413Y-74248917D01*
X201134565Y-73849552D01*
X200735200Y-73582704D01*
X200264117Y-73489000D01*
X200215883Y-73489000D01*
X199748539Y-73581960D01*
X199343289Y-73176711D01*
X199194963Y-73077602D01*
X199020000Y-73042800D01*
X198599675Y-73042800D01*
X198861413Y-72651083D01*
X198892065Y-72496980D01*
X199050511Y-72496980D01*
X199174755Y-72796964D01*
X199491944Y-73157652D01*
X199923018Y-73369501D01*
X200113000Y-73309193D01*
X200113000Y-72307000D01*
X200367000Y-72307000D01*
X200367000Y-73309193D01*
X200556982Y-73369501D01*
X200988056Y-73157652D01*
X201305245Y-72796964D01*
X201429489Y-72496980D01*
X201368627Y-72307000D01*
X200367000Y-72307000D01*
X200113000Y-72307000D01*
X199111373Y-72307000D01*
X199050511Y-72496980D01*
X198892065Y-72496980D01*
X198955117Y-72180000D01*
X198892066Y-71863020D01*
X199050511Y-71863020D01*
X199111373Y-72053000D01*
X200113000Y-72053000D01*
X200113000Y-71050807D01*
X200367000Y-71050807D01*
X200367000Y-72053000D01*
X201368627Y-72053000D01*
X201429489Y-71863020D01*
X201305245Y-71563036D01*
X200988056Y-71202348D01*
X200556982Y-70990499D01*
X200367000Y-71050807D01*
X200113000Y-71050807D01*
X199923018Y-70990499D01*
X199491944Y-71202348D01*
X199174755Y-71563036D01*
X199050511Y-71863020D01*
X198892066Y-71863020D01*
X198861413Y-71708917D01*
X198594565Y-71309552D01*
X198195200Y-71042704D01*
X197724117Y-70949000D01*
X197675883Y-70949000D01*
X197204800Y-71042704D01*
X196805435Y-71309552D01*
X196538587Y-71708917D01*
X196535826Y-71722800D01*
X179391313Y-71722800D01*
X179423774Y-71644624D01*
X179424025Y-71356639D01*
X179314050Y-71090479D01*
X179110592Y-70886665D01*
X178844624Y-70776226D01*
X178556639Y-70775975D01*
X178290479Y-70885950D01*
X178086665Y-71089408D01*
X177976226Y-71355376D01*
X177976032Y-71577390D01*
X177830622Y-71722800D01*
X169164174Y-71722800D01*
X169161413Y-71708917D01*
X168894565Y-71309552D01*
X168495200Y-71042704D01*
X168024117Y-70949000D01*
X167975883Y-70949000D01*
X167504800Y-71042704D01*
X167105435Y-71309552D01*
X166838587Y-71708917D01*
X166744883Y-72180000D01*
X166838587Y-72651083D01*
X167100325Y-73042800D01*
X166680000Y-73042800D01*
X166505037Y-73077602D01*
X166356711Y-73176710D01*
X165951461Y-73581960D01*
X165484117Y-73489000D01*
X165435883Y-73489000D01*
X164964800Y-73582704D01*
X164565435Y-73849552D01*
X164298587Y-74248917D01*
X164204883Y-74720000D01*
X163656000Y-74720000D01*
X163656000Y-72496980D01*
X164270511Y-72496980D01*
X164394755Y-72796964D01*
X164711944Y-73157652D01*
X165143018Y-73369501D01*
X165333000Y-73309193D01*
X165333000Y-72307000D01*
X165587000Y-72307000D01*
X165587000Y-73309193D01*
X165776982Y-73369501D01*
X166208056Y-73157652D01*
X166525245Y-72796964D01*
X166649489Y-72496980D01*
X166588627Y-72307000D01*
X165587000Y-72307000D01*
X165333000Y-72307000D01*
X164331373Y-72307000D01*
X164270511Y-72496980D01*
X163656000Y-72496980D01*
X163656000Y-71863020D01*
X164270511Y-71863020D01*
X164331373Y-72053000D01*
X165333000Y-72053000D01*
X165333000Y-71050807D01*
X165587000Y-71050807D01*
X165587000Y-72053000D01*
X166588627Y-72053000D01*
X166649489Y-71863020D01*
X166525245Y-71563036D01*
X166208056Y-71202348D01*
X165776982Y-70990499D01*
X165587000Y-71050807D01*
X165333000Y-71050807D01*
X165143018Y-70990499D01*
X164711944Y-71202348D01*
X164394755Y-71563036D01*
X164270511Y-71863020D01*
X163656000Y-71863020D01*
X163656000Y-67100000D01*
X164204883Y-67100000D01*
X164298587Y-67571083D01*
X164565435Y-67970448D01*
X164774200Y-68109941D01*
X164774200Y-68630059D01*
X164565435Y-68769552D01*
X164298587Y-69168917D01*
X164204883Y-69640000D01*
X164298587Y-70111083D01*
X164565435Y-70510448D01*
X164964800Y-70777296D01*
X165435883Y-70871000D01*
X165484117Y-70871000D01*
X165955200Y-70777296D01*
X166354565Y-70510448D01*
X166621413Y-70111083D01*
X166715117Y-69640000D01*
X166744883Y-69640000D01*
X166838587Y-70111083D01*
X167105435Y-70510448D01*
X167504800Y-70777296D01*
X167975883Y-70871000D01*
X168024117Y-70871000D01*
X168495200Y-70777296D01*
X168894565Y-70510448D01*
X169161413Y-70111083D01*
X169164174Y-70097200D01*
X184050622Y-70097200D01*
X184076167Y-70122746D01*
X184075975Y-70343361D01*
X184185950Y-70609521D01*
X184389408Y-70813335D01*
X184655376Y-70923774D01*
X184943361Y-70924025D01*
X185209521Y-70814050D01*
X185413335Y-70610592D01*
X185523774Y-70344624D01*
X185523990Y-70097200D01*
X196535826Y-70097200D01*
X196538587Y-70111083D01*
X196805435Y-70510448D01*
X197204800Y-70777296D01*
X197675883Y-70871000D01*
X197724117Y-70871000D01*
X198195200Y-70777296D01*
X198594565Y-70510448D01*
X198861413Y-70111083D01*
X198955117Y-69640000D01*
X198861413Y-69168917D01*
X198594565Y-68769552D01*
X198195200Y-68502704D01*
X197724117Y-68409000D01*
X197675883Y-68409000D01*
X197204800Y-68502704D01*
X196805435Y-68769552D01*
X196538587Y-69168917D01*
X196535826Y-69182800D01*
X179407922Y-69182800D01*
X179423774Y-69144624D01*
X179424025Y-68856639D01*
X179314050Y-68590479D01*
X179110592Y-68386665D01*
X178844624Y-68276226D01*
X178556639Y-68275975D01*
X178290479Y-68385950D01*
X178086665Y-68589408D01*
X177976226Y-68855376D01*
X177976032Y-69077390D01*
X177870622Y-69182800D01*
X169164174Y-69182800D01*
X169161413Y-69168917D01*
X168894565Y-68769552D01*
X168495200Y-68502704D01*
X168024117Y-68409000D01*
X167975883Y-68409000D01*
X167504800Y-68502704D01*
X167105435Y-68769552D01*
X166838587Y-69168917D01*
X166744883Y-69640000D01*
X166715117Y-69640000D01*
X166621413Y-69168917D01*
X166354565Y-68769552D01*
X166145800Y-68630059D01*
X166145800Y-68109941D01*
X166354565Y-67970448D01*
X166621413Y-67571083D01*
X166715117Y-67100000D01*
X166667791Y-66862076D01*
X166761536Y-66768332D01*
X166761536Y-67950000D01*
X166788103Y-68091190D01*
X166871546Y-68220865D01*
X166998866Y-68307859D01*
X167150000Y-68338464D01*
X168850000Y-68338464D01*
X168991190Y-68311897D01*
X169120865Y-68228454D01*
X169207859Y-68101134D01*
X169238464Y-67950000D01*
X169238464Y-67785800D01*
X185015932Y-67785800D01*
X185748136Y-68518004D01*
X185785950Y-68609521D01*
X185989408Y-68813335D01*
X186255376Y-68923774D01*
X186543361Y-68924025D01*
X186809521Y-68814050D01*
X187013335Y-68610592D01*
X187123774Y-68344624D01*
X187124025Y-68056639D01*
X187014050Y-67790479D01*
X187009379Y-67785800D01*
X196461536Y-67785800D01*
X196461536Y-67950000D01*
X196488103Y-68091190D01*
X196571546Y-68220865D01*
X196698866Y-68307859D01*
X196850000Y-68338464D01*
X198550000Y-68338464D01*
X198691190Y-68311897D01*
X198820865Y-68228454D01*
X198907859Y-68101134D01*
X198938464Y-67950000D01*
X198938464Y-66768331D01*
X199032209Y-66862076D01*
X198984883Y-67100000D01*
X199078587Y-67571083D01*
X199345435Y-67970448D01*
X199554200Y-68109941D01*
X199554200Y-68630059D01*
X199345435Y-68769552D01*
X199078587Y-69168917D01*
X198984883Y-69640000D01*
X199078587Y-70111083D01*
X199345435Y-70510448D01*
X199744800Y-70777296D01*
X200215883Y-70871000D01*
X200264117Y-70871000D01*
X200735200Y-70777296D01*
X201134565Y-70510448D01*
X201401413Y-70111083D01*
X201495117Y-69640000D01*
X201401413Y-69168917D01*
X201134565Y-68769552D01*
X200925800Y-68630059D01*
X200925800Y-68109941D01*
X201134565Y-67970448D01*
X201401413Y-67571083D01*
X201495117Y-67100000D01*
X201401413Y-66628917D01*
X201134565Y-66229552D01*
X200735200Y-65962704D01*
X200264117Y-65869000D01*
X200215883Y-65869000D01*
X200018191Y-65908323D01*
X198624934Y-64515066D01*
X198402445Y-64366403D01*
X198140000Y-64314200D01*
X167560000Y-64314200D01*
X167297556Y-64366403D01*
X167075066Y-64515066D01*
X167075064Y-64515069D01*
X165681809Y-65908323D01*
X165484117Y-65869000D01*
X165435883Y-65869000D01*
X164964800Y-65962704D01*
X164565435Y-66229552D01*
X164298587Y-66628917D01*
X164204883Y-67100000D01*
X163656000Y-67100000D01*
X163656000Y-58515883D01*
X172749000Y-58515883D01*
X172749000Y-58564117D01*
X172842704Y-59035200D01*
X173109552Y-59434565D01*
X173508917Y-59701413D01*
X173980000Y-59795117D01*
X174451083Y-59701413D01*
X174850448Y-59434565D01*
X175117296Y-59035200D01*
X175211000Y-58564117D01*
X175211000Y-58515883D01*
X175289000Y-58515883D01*
X175289000Y-58564117D01*
X175382704Y-59035200D01*
X175649552Y-59434565D01*
X176048917Y-59701413D01*
X176520000Y-59795117D01*
X176991083Y-59701413D01*
X177390448Y-59434565D01*
X177657296Y-59035200D01*
X177751000Y-58564117D01*
X177751000Y-58515883D01*
X177829000Y-58515883D01*
X177829000Y-58564117D01*
X177922704Y-59035200D01*
X178189552Y-59434565D01*
X178566600Y-59686501D01*
X178566600Y-60611536D01*
X178450000Y-60611536D01*
X178308810Y-60638103D01*
X178179135Y-60721546D01*
X178092141Y-60848866D01*
X178061536Y-61000000D01*
X178061536Y-61700000D01*
X178088103Y-61841190D01*
X178171546Y-61970865D01*
X178298866Y-62057859D01*
X178450000Y-62088464D01*
X179750000Y-62088464D01*
X179862915Y-62067217D01*
X179418596Y-62511536D01*
X178450000Y-62511536D01*
X178308810Y-62538103D01*
X178179135Y-62621546D01*
X178092141Y-62748866D01*
X178061536Y-62900000D01*
X178061536Y-63600000D01*
X178088103Y-63741190D01*
X178171546Y-63870865D01*
X178298866Y-63957859D01*
X178450000Y-63988464D01*
X179750000Y-63988464D01*
X179891190Y-63961897D01*
X179931746Y-63935800D01*
X188366582Y-63935800D01*
X188398866Y-63957859D01*
X188550000Y-63988464D01*
X189850000Y-63988464D01*
X189991190Y-63961897D01*
X190031746Y-63935800D01*
X190966582Y-63935800D01*
X190998866Y-63957859D01*
X191150000Y-63988464D01*
X192450000Y-63988464D01*
X192591190Y-63961897D01*
X192720865Y-63878454D01*
X192807859Y-63751134D01*
X192838464Y-63600000D01*
X192838464Y-62900000D01*
X192811897Y-62758810D01*
X192728454Y-62629135D01*
X192601134Y-62542141D01*
X192450000Y-62511536D01*
X191150000Y-62511536D01*
X191008810Y-62538103D01*
X190968254Y-62564200D01*
X190033418Y-62564200D01*
X190001134Y-62542141D01*
X189850000Y-62511536D01*
X188550000Y-62511536D01*
X188408810Y-62538103D01*
X188368254Y-62564200D01*
X187314768Y-62564200D01*
X187357859Y-62501134D01*
X187388464Y-62350000D01*
X187388464Y-61050000D01*
X187361897Y-60908810D01*
X187278454Y-60779135D01*
X187151134Y-60692141D01*
X187137200Y-60689319D01*
X187137200Y-59704174D01*
X187151083Y-59701413D01*
X187523701Y-59452437D01*
X187486665Y-59489408D01*
X187376226Y-59755376D01*
X187375975Y-60043361D01*
X187485950Y-60309521D01*
X187689408Y-60513335D01*
X187955376Y-60623774D01*
X188243361Y-60624025D01*
X188509521Y-60514050D01*
X188666600Y-60357245D01*
X188666600Y-60611536D01*
X188550000Y-60611536D01*
X188408810Y-60638103D01*
X188279135Y-60721546D01*
X188192141Y-60848866D01*
X188161536Y-61000000D01*
X188161536Y-61700000D01*
X188188103Y-61841190D01*
X188271546Y-61970865D01*
X188398866Y-62057859D01*
X188550000Y-62088464D01*
X189850000Y-62088464D01*
X189991190Y-62061897D01*
X190120865Y-61978454D01*
X190207859Y-61851134D01*
X190238464Y-61700000D01*
X190238464Y-61000000D01*
X190211897Y-60858810D01*
X190128454Y-60729135D01*
X190001134Y-60642141D01*
X189850000Y-60611536D01*
X189733400Y-60611536D01*
X189733400Y-59673138D01*
X190090448Y-59434565D01*
X190357296Y-59035200D01*
X190451000Y-58564117D01*
X190451000Y-58515883D01*
X190529000Y-58515883D01*
X190529000Y-58564117D01*
X190622704Y-59035200D01*
X190889552Y-59434565D01*
X191266600Y-59686501D01*
X191266600Y-60611536D01*
X191150000Y-60611536D01*
X191008810Y-60638103D01*
X190879135Y-60721546D01*
X190792141Y-60848866D01*
X190761536Y-61000000D01*
X190761536Y-61700000D01*
X190788103Y-61841190D01*
X190871546Y-61970865D01*
X190998866Y-62057859D01*
X191150000Y-62088464D01*
X192450000Y-62088464D01*
X192591190Y-62061897D01*
X192720865Y-61978454D01*
X192807859Y-61851134D01*
X192838464Y-61700000D01*
X192838464Y-61000000D01*
X192811897Y-60858810D01*
X192728454Y-60729135D01*
X192601134Y-60642141D01*
X192450000Y-60611536D01*
X192333400Y-60611536D01*
X192333400Y-59633047D01*
X192630448Y-59434565D01*
X192897296Y-59035200D01*
X192991000Y-58564117D01*
X192991000Y-58515883D01*
X192897296Y-58044800D01*
X192630448Y-57645435D01*
X192231083Y-57378587D01*
X191760000Y-57284883D01*
X191288917Y-57378587D01*
X190889552Y-57645435D01*
X190622704Y-58044800D01*
X190529000Y-58515883D01*
X190451000Y-58515883D01*
X190357296Y-58044800D01*
X190090448Y-57645435D01*
X189691083Y-57378587D01*
X189220000Y-57284883D01*
X188748917Y-57378587D01*
X188557200Y-57506689D01*
X188557200Y-57033311D01*
X188748917Y-57161413D01*
X189220000Y-57255117D01*
X189691083Y-57161413D01*
X190090448Y-56894565D01*
X190357296Y-56495200D01*
X190451000Y-56024117D01*
X190451000Y-55975883D01*
X190529000Y-55975883D01*
X190529000Y-56024117D01*
X190622704Y-56495200D01*
X190889552Y-56894565D01*
X191288917Y-57161413D01*
X191760000Y-57255117D01*
X192231083Y-57161413D01*
X192630448Y-56894565D01*
X192897296Y-56495200D01*
X192991000Y-56024117D01*
X192991000Y-55975883D01*
X192897296Y-55504800D01*
X192660226Y-55150000D01*
X193061536Y-55150000D01*
X193061536Y-56850000D01*
X193088103Y-56991190D01*
X193171546Y-57120865D01*
X193298866Y-57207859D01*
X193450000Y-57238464D01*
X195150000Y-57238464D01*
X195291190Y-57211897D01*
X195420865Y-57128454D01*
X195507859Y-57001134D01*
X195538464Y-56850000D01*
X195538464Y-55150000D01*
X195511897Y-55008810D01*
X195428454Y-54879135D01*
X195301134Y-54792141D01*
X195150000Y-54761536D01*
X193450000Y-54761536D01*
X193308810Y-54788103D01*
X193179135Y-54871546D01*
X193092141Y-54998866D01*
X193061536Y-55150000D01*
X192660226Y-55150000D01*
X192630448Y-55105435D01*
X192293400Y-54880226D01*
X192293400Y-53988464D01*
X192450000Y-53988464D01*
X192591190Y-53961897D01*
X192720865Y-53878454D01*
X192807859Y-53751134D01*
X192838464Y-53600000D01*
X192838464Y-52900000D01*
X192811897Y-52758810D01*
X192728454Y-52629135D01*
X192674568Y-52592316D01*
X197118657Y-52592316D01*
X197419611Y-53320680D01*
X197976389Y-53878431D01*
X198704226Y-54180655D01*
X199492316Y-54181343D01*
X200220680Y-53880389D01*
X200778431Y-53323611D01*
X201080655Y-52595774D01*
X201081343Y-51807684D01*
X200780389Y-51079320D01*
X200223611Y-50521569D01*
X199495774Y-50219345D01*
X198707684Y-50218657D01*
X197979320Y-50519611D01*
X197421569Y-51076389D01*
X197119345Y-51804226D01*
X197118657Y-52592316D01*
X192674568Y-52592316D01*
X192601134Y-52542141D01*
X192450000Y-52511536D01*
X191150000Y-52511536D01*
X191008810Y-52538103D01*
X190879135Y-52621546D01*
X190792141Y-52748866D01*
X190761536Y-52900000D01*
X190761536Y-53600000D01*
X190788103Y-53741190D01*
X190871546Y-53870865D01*
X190998866Y-53957859D01*
X191150000Y-53988464D01*
X191226600Y-53988464D01*
X191226600Y-54880226D01*
X190889552Y-55105435D01*
X190622704Y-55504800D01*
X190529000Y-55975883D01*
X190451000Y-55975883D01*
X190357296Y-55504800D01*
X190090448Y-55105435D01*
X189753400Y-54880226D01*
X189753400Y-53988464D01*
X189850000Y-53988464D01*
X189991190Y-53961897D01*
X190120865Y-53878454D01*
X190207859Y-53751134D01*
X190238464Y-53600000D01*
X190238464Y-52900000D01*
X190211897Y-52758810D01*
X190128454Y-52629135D01*
X190001134Y-52542141D01*
X189850000Y-52511536D01*
X188550000Y-52511536D01*
X188428434Y-52534411D01*
X188423289Y-52526711D01*
X187731410Y-51834832D01*
X187738464Y-51800000D01*
X187738464Y-51100000D01*
X187711897Y-50958810D01*
X187628454Y-50829135D01*
X187501134Y-50742141D01*
X187350000Y-50711536D01*
X186050000Y-50711536D01*
X185908810Y-50738103D01*
X185779135Y-50821546D01*
X185692141Y-50948866D01*
X185661536Y-51100000D01*
X185661536Y-51800000D01*
X185688103Y-51941190D01*
X185771546Y-52070865D01*
X185898866Y-52157859D01*
X186050000Y-52188464D01*
X186791886Y-52188464D01*
X187214958Y-52611536D01*
X186050000Y-52611536D01*
X185908810Y-52638103D01*
X185779135Y-52721546D01*
X185692141Y-52848866D01*
X185661536Y-53000000D01*
X185661536Y-53700000D01*
X185688103Y-53841190D01*
X185771546Y-53970865D01*
X185898866Y-54057859D01*
X186050000Y-54088464D01*
X186222800Y-54088464D01*
X186222800Y-54835826D01*
X186208917Y-54838587D01*
X185809552Y-55105435D01*
X185542704Y-55504800D01*
X185449000Y-55975883D01*
X185449000Y-56024117D01*
X185542704Y-56495200D01*
X185809552Y-56894565D01*
X186208917Y-57161413D01*
X186680000Y-57255117D01*
X187151083Y-57161413D01*
X187550448Y-56894565D01*
X187642800Y-56756351D01*
X187642800Y-57783649D01*
X187550448Y-57645435D01*
X187151083Y-57378587D01*
X186680000Y-57284883D01*
X186208917Y-57378587D01*
X185809552Y-57645435D01*
X185542704Y-58044800D01*
X185449000Y-58515883D01*
X185449000Y-58564117D01*
X185542704Y-59035200D01*
X185809552Y-59434565D01*
X186208917Y-59701413D01*
X186222800Y-59704174D01*
X186222800Y-60676062D01*
X186158810Y-60688103D01*
X186029135Y-60771546D01*
X185942141Y-60898866D01*
X185911536Y-61050000D01*
X185911536Y-62350000D01*
X185938103Y-62491190D01*
X185985083Y-62564200D01*
X185414768Y-62564200D01*
X185457859Y-62501134D01*
X185488464Y-62350000D01*
X185488464Y-61050000D01*
X185461897Y-60908810D01*
X185378454Y-60779135D01*
X185251134Y-60692141D01*
X185100000Y-60661536D01*
X184400000Y-60661536D01*
X184258810Y-60688103D01*
X184129135Y-60771546D01*
X184042141Y-60898866D01*
X184011536Y-61050000D01*
X184011536Y-61242800D01*
X183800000Y-61242800D01*
X183625037Y-61277602D01*
X183476711Y-61376711D01*
X183377255Y-61476167D01*
X183156639Y-61475975D01*
X182890479Y-61585950D01*
X182686665Y-61789408D01*
X182576226Y-62055376D01*
X182575975Y-62343361D01*
X182667224Y-62564200D01*
X181305668Y-62564200D01*
X182084934Y-61784934D01*
X182233596Y-61562445D01*
X182233597Y-61562444D01*
X182285800Y-61300000D01*
X182285800Y-59557943D01*
X182470448Y-59434565D01*
X182737296Y-59035200D01*
X182772745Y-58856982D01*
X182950499Y-58856982D01*
X183162348Y-59288056D01*
X183523036Y-59605245D01*
X183823020Y-59729489D01*
X184013000Y-59668627D01*
X184013000Y-58667000D01*
X184267000Y-58667000D01*
X184267000Y-59668627D01*
X184456980Y-59729489D01*
X184756964Y-59605245D01*
X185117652Y-59288056D01*
X185329501Y-58856982D01*
X185269193Y-58667000D01*
X184267000Y-58667000D01*
X184013000Y-58667000D01*
X183010807Y-58667000D01*
X182950499Y-58856982D01*
X182772745Y-58856982D01*
X182831000Y-58564117D01*
X182831000Y-58515883D01*
X182772746Y-58223018D01*
X182950499Y-58223018D01*
X183010807Y-58413000D01*
X184013000Y-58413000D01*
X184013000Y-57411373D01*
X184267000Y-57411373D01*
X184267000Y-58413000D01*
X185269193Y-58413000D01*
X185329501Y-58223018D01*
X185117652Y-57791944D01*
X184756964Y-57474755D01*
X184456980Y-57350511D01*
X184267000Y-57411373D01*
X184013000Y-57411373D01*
X183823020Y-57350511D01*
X183523036Y-57474755D01*
X183162348Y-57791944D01*
X182950499Y-58223018D01*
X182772746Y-58223018D01*
X182737296Y-58044800D01*
X182470448Y-57645435D01*
X182285800Y-57522057D01*
X182285800Y-52600000D01*
X182233597Y-52337556D01*
X182233597Y-52337555D01*
X182084934Y-52115066D01*
X180834934Y-50865066D01*
X180726953Y-50792915D01*
X180834068Y-50685800D01*
X187565932Y-50685800D01*
X188161536Y-51281404D01*
X188161536Y-51700000D01*
X188188103Y-51841190D01*
X188271546Y-51970865D01*
X188398866Y-52057859D01*
X188550000Y-52088464D01*
X189850000Y-52088464D01*
X189991190Y-52061897D01*
X190031746Y-52035800D01*
X190966582Y-52035800D01*
X190998866Y-52057859D01*
X191150000Y-52088464D01*
X192450000Y-52088464D01*
X192591190Y-52061897D01*
X192720865Y-51978454D01*
X192807859Y-51851134D01*
X192838464Y-51700000D01*
X192838464Y-51000000D01*
X192811897Y-50858810D01*
X192728454Y-50729135D01*
X192601134Y-50642141D01*
X192450000Y-50611536D01*
X191150000Y-50611536D01*
X191008810Y-50638103D01*
X190968254Y-50664200D01*
X190033418Y-50664200D01*
X190001134Y-50642141D01*
X189850000Y-50611536D01*
X189431404Y-50611536D01*
X188334934Y-49515066D01*
X188112445Y-49366403D01*
X187850000Y-49314200D01*
X180550000Y-49314200D01*
X180287556Y-49366403D01*
X180287554Y-49366404D01*
X180287555Y-49366404D01*
X180065066Y-49515066D01*
X178968596Y-50611536D01*
X178550000Y-50611536D01*
X178408810Y-50638103D01*
X178279135Y-50721546D01*
X178192141Y-50848866D01*
X178161536Y-51000000D01*
X178161536Y-51700000D01*
X178188103Y-51841190D01*
X178271546Y-51970865D01*
X178398866Y-52057859D01*
X178550000Y-52088464D01*
X179850000Y-52088464D01*
X179991190Y-52061897D01*
X180031746Y-52035800D01*
X180065932Y-52035800D01*
X180914200Y-52884068D01*
X180914200Y-57522057D01*
X180729552Y-57645435D01*
X180462704Y-58044800D01*
X180369000Y-58515883D01*
X180369000Y-58564117D01*
X180462704Y-59035200D01*
X180729552Y-59434565D01*
X180914200Y-59557943D01*
X180914200Y-61015932D01*
X180115187Y-61814945D01*
X180138464Y-61700000D01*
X180138464Y-61000000D01*
X180111897Y-60858810D01*
X180028454Y-60729135D01*
X179901134Y-60642141D01*
X179750000Y-60611536D01*
X179633400Y-60611536D01*
X179633400Y-59633047D01*
X179930448Y-59434565D01*
X180197296Y-59035200D01*
X180291000Y-58564117D01*
X180291000Y-58515883D01*
X180197296Y-58044800D01*
X179930448Y-57645435D01*
X179531083Y-57378587D01*
X179060000Y-57284883D01*
X178588917Y-57378587D01*
X178189552Y-57645435D01*
X177922704Y-58044800D01*
X177829000Y-58515883D01*
X177751000Y-58515883D01*
X177657296Y-58044800D01*
X177390448Y-57645435D01*
X176991083Y-57378587D01*
X176520000Y-57284883D01*
X176048917Y-57378587D01*
X175649552Y-57645435D01*
X175382704Y-58044800D01*
X175289000Y-58515883D01*
X175211000Y-58515883D01*
X175117296Y-58044800D01*
X174850448Y-57645435D01*
X174451083Y-57378587D01*
X173980000Y-57284883D01*
X173508917Y-57378587D01*
X173109552Y-57645435D01*
X172842704Y-58044800D01*
X172749000Y-58515883D01*
X163656000Y-58515883D01*
X163656000Y-56316982D01*
X170250499Y-56316982D01*
X170462348Y-56748056D01*
X170823036Y-57065245D01*
X171123020Y-57189489D01*
X171313000Y-57128627D01*
X171313000Y-56127000D01*
X171567000Y-56127000D01*
X171567000Y-57128627D01*
X171756980Y-57189489D01*
X172056964Y-57065245D01*
X172417652Y-56748056D01*
X172629501Y-56316982D01*
X172569193Y-56127000D01*
X171567000Y-56127000D01*
X171313000Y-56127000D01*
X170310807Y-56127000D01*
X170250499Y-56316982D01*
X163656000Y-56316982D01*
X163656000Y-55975883D01*
X172749000Y-55975883D01*
X172749000Y-56024117D01*
X172842704Y-56495200D01*
X173109552Y-56894565D01*
X173508917Y-57161413D01*
X173980000Y-57255117D01*
X174451083Y-57161413D01*
X174850448Y-56894565D01*
X175117296Y-56495200D01*
X175211000Y-56024117D01*
X175211000Y-55975883D01*
X175289000Y-55975883D01*
X175289000Y-56024117D01*
X175382704Y-56495200D01*
X175649552Y-56894565D01*
X176048917Y-57161413D01*
X176520000Y-57255117D01*
X176991083Y-57161413D01*
X177390448Y-56894565D01*
X177657296Y-56495200D01*
X177751000Y-56024117D01*
X177751000Y-55975883D01*
X177829000Y-55975883D01*
X177829000Y-56024117D01*
X177922704Y-56495200D01*
X178189552Y-56894565D01*
X178588917Y-57161413D01*
X179060000Y-57255117D01*
X179531083Y-57161413D01*
X179930448Y-56894565D01*
X180197296Y-56495200D01*
X180291000Y-56024117D01*
X180291000Y-55975883D01*
X180197296Y-55504800D01*
X179930448Y-55105435D01*
X179593400Y-54880226D01*
X179593400Y-53988464D01*
X179850000Y-53988464D01*
X179991190Y-53961897D01*
X180120865Y-53878454D01*
X180207859Y-53751134D01*
X180238464Y-53600000D01*
X180238464Y-52900000D01*
X180211897Y-52758810D01*
X180128454Y-52629135D01*
X180001134Y-52542141D01*
X179850000Y-52511536D01*
X178550000Y-52511536D01*
X178408810Y-52538103D01*
X178279135Y-52621546D01*
X178192141Y-52748866D01*
X178161536Y-52900000D01*
X178161536Y-53600000D01*
X178188103Y-53741190D01*
X178271546Y-53870865D01*
X178398866Y-53957859D01*
X178526600Y-53983725D01*
X178526600Y-54880226D01*
X178189552Y-55105435D01*
X177922704Y-55504800D01*
X177829000Y-55975883D01*
X177751000Y-55975883D01*
X177657296Y-55504800D01*
X177390448Y-55105435D01*
X176991083Y-54838587D01*
X176520000Y-54744883D01*
X176048917Y-54838587D01*
X175649552Y-55105435D01*
X175382704Y-55504800D01*
X175289000Y-55975883D01*
X175211000Y-55975883D01*
X175117296Y-55504800D01*
X174850448Y-55105435D01*
X174451083Y-54838587D01*
X173980000Y-54744883D01*
X173508917Y-54838587D01*
X173109552Y-55105435D01*
X172842704Y-55504800D01*
X172749000Y-55975883D01*
X163656000Y-55975883D01*
X163656000Y-55683018D01*
X170250499Y-55683018D01*
X170310807Y-55873000D01*
X171313000Y-55873000D01*
X171313000Y-54871373D01*
X171567000Y-54871373D01*
X171567000Y-55873000D01*
X172569193Y-55873000D01*
X172629501Y-55683018D01*
X172417652Y-55251944D01*
X172056964Y-54934755D01*
X171756980Y-54810511D01*
X171567000Y-54871373D01*
X171313000Y-54871373D01*
X171123020Y-54810511D01*
X170823036Y-54934755D01*
X170462348Y-55251944D01*
X170250499Y-55683018D01*
X163656000Y-55683018D01*
X163656000Y-52592316D01*
X164818657Y-52592316D01*
X165119611Y-53320680D01*
X165676389Y-53878431D01*
X166404226Y-54180655D01*
X167192316Y-54181343D01*
X167920680Y-53880389D01*
X168478431Y-53323611D01*
X168780655Y-52595774D01*
X168781343Y-51807684D01*
X168480389Y-51079320D01*
X167923611Y-50521569D01*
X167195774Y-50219345D01*
X166407684Y-50218657D01*
X165679320Y-50519611D01*
X165121569Y-51076389D01*
X164819345Y-51804226D01*
X164818657Y-52592316D01*
X163656000Y-52592316D01*
X163656000Y-49256000D01*
X202044000Y-49256000D01*
X202044000Y-124344000D01*
X202044000Y-124344000D01*
G37*
X202044000Y-124344000D02*
X163656000Y-124344000D01*
X163656000Y-121692316D01*
X164618657Y-121692316D01*
X164919611Y-122420680D01*
X165476389Y-122978431D01*
X166204226Y-123280655D01*
X166992316Y-123281343D01*
X167720680Y-122980389D01*
X168278431Y-122423611D01*
X168540567Y-121792316D01*
X197018657Y-121792316D01*
X197319611Y-122520680D01*
X197876389Y-123078431D01*
X198604226Y-123380655D01*
X199392316Y-123381343D01*
X200120680Y-123080389D01*
X200678431Y-122523611D01*
X200980655Y-121795774D01*
X200981343Y-121007684D01*
X200680389Y-120279320D01*
X200123611Y-119721569D01*
X199395774Y-119419345D01*
X198607684Y-119418657D01*
X197879320Y-119719611D01*
X197321569Y-120276389D01*
X197019345Y-121004226D01*
X197018657Y-121792316D01*
X168540567Y-121792316D01*
X168580655Y-121695774D01*
X168581343Y-120907684D01*
X168280389Y-120179320D01*
X167917587Y-119815883D01*
X179289000Y-119815883D01*
X179289000Y-119864117D01*
X179382704Y-120335200D01*
X179649552Y-120734565D01*
X180048917Y-121001413D01*
X180520000Y-121095117D01*
X180991083Y-121001413D01*
X181390448Y-120734565D01*
X181657296Y-120335200D01*
X181751000Y-119864117D01*
X181751000Y-119815883D01*
X181829000Y-119815883D01*
X181829000Y-119864117D01*
X181922704Y-120335200D01*
X182189552Y-120734565D01*
X182588917Y-121001413D01*
X183060000Y-121095117D01*
X183531083Y-121001413D01*
X183930448Y-120734565D01*
X184197296Y-120335200D01*
X184291000Y-119864117D01*
X184291000Y-119815883D01*
X184369000Y-119815883D01*
X184369000Y-119864117D01*
X184462704Y-120335200D01*
X184729552Y-120734565D01*
X185128917Y-121001413D01*
X185600000Y-121095117D01*
X186071083Y-121001413D01*
X186470448Y-120734565D01*
X186737296Y-120335200D01*
X186831000Y-119864117D01*
X186831000Y-119815883D01*
X186737296Y-119344800D01*
X186470448Y-118945435D01*
X186071083Y-118678587D01*
X185600000Y-118584883D01*
X185128917Y-118678587D01*
X184729552Y-118945435D01*
X184462704Y-119344800D01*
X184369000Y-119815883D01*
X184291000Y-119815883D01*
X184197296Y-119344800D01*
X183930448Y-118945435D01*
X183531083Y-118678587D01*
X183060000Y-118584883D01*
X182588917Y-118678587D01*
X182189552Y-118945435D01*
X181922704Y-119344800D01*
X181829000Y-119815883D01*
X181751000Y-119815883D01*
X181657296Y-119344800D01*
X181390448Y-118945435D01*
X180991083Y-118678587D01*
X180520000Y-118584883D01*
X180048917Y-118678587D01*
X179649552Y-118945435D01*
X179382704Y-119344800D01*
X179289000Y-119815883D01*
X167917587Y-119815883D01*
X167723611Y-119621569D01*
X166995774Y-119319345D01*
X166207684Y-119318657D01*
X165479320Y-119619611D01*
X164921569Y-120176389D01*
X164619345Y-120904226D01*
X164618657Y-121692316D01*
X163656000Y-121692316D01*
X163656000Y-117616982D01*
X179330499Y-117616982D01*
X179542348Y-118048056D01*
X179903036Y-118365245D01*
X180203020Y-118489489D01*
X180393000Y-118428627D01*
X180393000Y-117427000D01*
X180647000Y-117427000D01*
X180647000Y-118428627D01*
X180836980Y-118489489D01*
X181136964Y-118365245D01*
X181497652Y-118048056D01*
X181709501Y-117616982D01*
X181649193Y-117427000D01*
X180647000Y-117427000D01*
X180393000Y-117427000D01*
X179390807Y-117427000D01*
X179330499Y-117616982D01*
X163656000Y-117616982D01*
X163656000Y-117275883D01*
X181829000Y-117275883D01*
X181829000Y-117324117D01*
X181922704Y-117795200D01*
X182189552Y-118194565D01*
X182588917Y-118461413D01*
X183060000Y-118555117D01*
X183531083Y-118461413D01*
X183930448Y-118194565D01*
X184197296Y-117795200D01*
X184291000Y-117324117D01*
X184291000Y-117275883D01*
X184197296Y-116804800D01*
X183960226Y-116450000D01*
X184361536Y-116450000D01*
X184361536Y-118150000D01*
X184388103Y-118291190D01*
X184471546Y-118420865D01*
X184598866Y-118507859D01*
X184750000Y-118538464D01*
X186450000Y-118538464D01*
X186591190Y-118511897D01*
X186720865Y-118428454D01*
X186807859Y-118301134D01*
X186838464Y-118150000D01*
X186838464Y-116450000D01*
X186811897Y-116308810D01*
X186728454Y-116179135D01*
X186601134Y-116092141D01*
X186450000Y-116061536D01*
X184750000Y-116061536D01*
X184608810Y-116088103D01*
X184479135Y-116171546D01*
X184392141Y-116298866D01*
X184361536Y-116450000D01*
X183960226Y-116450000D01*
X183930448Y-116405435D01*
X183531083Y-116138587D01*
X183060000Y-116044883D01*
X182588917Y-116138587D01*
X182189552Y-116405435D01*
X181922704Y-116804800D01*
X181829000Y-117275883D01*
X163656000Y-117275883D01*
X163656000Y-116983018D01*
X179330499Y-116983018D01*
X179390807Y-117173000D01*
X180393000Y-117173000D01*
X180393000Y-116171373D01*
X180647000Y-116171373D01*
X180647000Y-117173000D01*
X181649193Y-117173000D01*
X181709501Y-116983018D01*
X181497652Y-116551944D01*
X181136964Y-116234755D01*
X180836980Y-116110511D01*
X180647000Y-116171373D01*
X180393000Y-116171373D01*
X180203020Y-116110511D01*
X179903036Y-116234755D01*
X179542348Y-116551944D01*
X179330499Y-116983018D01*
X163656000Y-116983018D01*
X163656000Y-108056980D01*
X164270511Y-108056980D01*
X164394755Y-108356964D01*
X164711944Y-108717652D01*
X165143018Y-108929501D01*
X165333000Y-108869193D01*
X165333000Y-107867000D01*
X165587000Y-107867000D01*
X165587000Y-108869193D01*
X165776982Y-108929501D01*
X166208056Y-108717652D01*
X166525245Y-108356964D01*
X166649489Y-108056980D01*
X166588627Y-107867000D01*
X165587000Y-107867000D01*
X165333000Y-107867000D01*
X164331373Y-107867000D01*
X164270511Y-108056980D01*
X163656000Y-108056980D01*
X163656000Y-107423020D01*
X164270511Y-107423020D01*
X164331373Y-107613000D01*
X165333000Y-107613000D01*
X165333000Y-106610807D01*
X165587000Y-106610807D01*
X165587000Y-107613000D01*
X166588627Y-107613000D01*
X166649489Y-107423020D01*
X166525245Y-107123036D01*
X166208056Y-106762348D01*
X165776982Y-106550499D01*
X165587000Y-106610807D01*
X165333000Y-106610807D01*
X165143018Y-106550499D01*
X164711944Y-106762348D01*
X164394755Y-107123036D01*
X164270511Y-107423020D01*
X163656000Y-107423020D01*
X163656000Y-105200000D01*
X164204883Y-105200000D01*
X164298587Y-105671083D01*
X164565435Y-106070448D01*
X164964800Y-106337296D01*
X165435883Y-106431000D01*
X165484117Y-106431000D01*
X165955200Y-106337296D01*
X166354565Y-106070448D01*
X166621413Y-105671083D01*
X166715117Y-105200000D01*
X166621413Y-104728917D01*
X166603888Y-104702690D01*
X166949378Y-104357200D01*
X167086961Y-104357200D01*
X166838587Y-104728917D01*
X166744883Y-105200000D01*
X166838587Y-105671083D01*
X167105435Y-106070448D01*
X167504800Y-106337296D01*
X167975883Y-106431000D01*
X168024117Y-106431000D01*
X168495200Y-106337296D01*
X168894565Y-106070448D01*
X169161413Y-105671083D01*
X169164174Y-105657200D01*
X177796222Y-105657200D01*
X177377255Y-106076167D01*
X177156639Y-106075975D01*
X176890479Y-106185950D01*
X176686665Y-106389408D01*
X176576226Y-106655376D01*
X176575975Y-106943361D01*
X176685950Y-107209521D01*
X176759101Y-107282800D01*
X175541001Y-107282800D01*
X175613335Y-107210592D01*
X175723774Y-106944624D01*
X175724025Y-106656639D01*
X175614050Y-106390479D01*
X175410592Y-106186665D01*
X175144624Y-106076226D01*
X174856639Y-106075975D01*
X174590479Y-106185950D01*
X174386665Y-106389408D01*
X174276226Y-106655376D01*
X174276032Y-106877390D01*
X173870622Y-107282800D01*
X173782742Y-107282800D01*
X173774963Y-107277602D01*
X173600000Y-107242800D01*
X173425037Y-107277602D01*
X173417258Y-107282800D01*
X169164174Y-107282800D01*
X169161413Y-107268917D01*
X168894565Y-106869552D01*
X168495200Y-106602704D01*
X168024117Y-106509000D01*
X167975883Y-106509000D01*
X167504800Y-106602704D01*
X167105435Y-106869552D01*
X166838587Y-107268917D01*
X166744883Y-107740000D01*
X166838587Y-108211083D01*
X167060234Y-108542800D01*
X166740000Y-108542800D01*
X166565037Y-108577602D01*
X166416711Y-108676711D01*
X165951462Y-109141960D01*
X165484117Y-109049000D01*
X165435883Y-109049000D01*
X164964800Y-109142704D01*
X164565435Y-109409552D01*
X164298587Y-109808917D01*
X164204883Y-110280000D01*
X164298587Y-110751083D01*
X164565435Y-111150448D01*
X164964800Y-111417296D01*
X165435883Y-111511000D01*
X165484117Y-111511000D01*
X165955200Y-111417296D01*
X166354565Y-111150448D01*
X166621413Y-110751083D01*
X166715117Y-110280000D01*
X166621413Y-109808917D01*
X166603888Y-109782690D01*
X166929378Y-109457200D01*
X167073598Y-109457200D01*
X166838587Y-109808917D01*
X166744883Y-110280000D01*
X166838587Y-110751083D01*
X167033507Y-111042800D01*
X166780000Y-111042800D01*
X166605037Y-111077602D01*
X166456711Y-111176711D01*
X165951462Y-111681960D01*
X165484117Y-111589000D01*
X165435883Y-111589000D01*
X164964800Y-111682704D01*
X164565435Y-111949552D01*
X164298587Y-112348917D01*
X164204883Y-112820000D01*
X164298587Y-113291083D01*
X164565435Y-113690448D01*
X164964800Y-113957296D01*
X165435883Y-114051000D01*
X165484117Y-114051000D01*
X165955200Y-113957296D01*
X166354565Y-113690448D01*
X166621413Y-113291083D01*
X166715117Y-112820000D01*
X166621413Y-112348917D01*
X166603888Y-112322690D01*
X166969378Y-111957200D01*
X167100325Y-111957200D01*
X166838587Y-112348917D01*
X166744883Y-112820000D01*
X166838587Y-113291083D01*
X167073598Y-113642800D01*
X166720000Y-113642800D01*
X166545037Y-113677602D01*
X166396711Y-113776711D01*
X165951462Y-114221960D01*
X165484117Y-114129000D01*
X165435883Y-114129000D01*
X164964800Y-114222704D01*
X164565435Y-114489552D01*
X164298587Y-114888917D01*
X164204883Y-115360000D01*
X164298587Y-115831083D01*
X164565435Y-116230448D01*
X164964800Y-116497296D01*
X165435883Y-116591000D01*
X165484117Y-116591000D01*
X165955200Y-116497296D01*
X166354565Y-116230448D01*
X166621413Y-115831083D01*
X166652065Y-115676980D01*
X166810511Y-115676980D01*
X166934755Y-115976964D01*
X167251944Y-116337652D01*
X167683018Y-116549501D01*
X167873000Y-116489193D01*
X167873000Y-115487000D01*
X168127000Y-115487000D01*
X168127000Y-116489193D01*
X168316982Y-116549501D01*
X168748056Y-116337652D01*
X169065245Y-115976964D01*
X169189489Y-115676980D01*
X196510511Y-115676980D01*
X196634755Y-115976964D01*
X196951944Y-116337652D01*
X197383018Y-116549501D01*
X197573000Y-116489193D01*
X197573000Y-115487000D01*
X197827000Y-115487000D01*
X197827000Y-116489193D01*
X198016982Y-116549501D01*
X198448056Y-116337652D01*
X198765245Y-115976964D01*
X198889489Y-115676980D01*
X198828627Y-115487000D01*
X197827000Y-115487000D01*
X197573000Y-115487000D01*
X196571373Y-115487000D01*
X196510511Y-115676980D01*
X169189489Y-115676980D01*
X169128627Y-115487000D01*
X168127000Y-115487000D01*
X167873000Y-115487000D01*
X166871373Y-115487000D01*
X166810511Y-115676980D01*
X166652065Y-115676980D01*
X166715117Y-115360000D01*
X166621413Y-114888917D01*
X166603888Y-114862690D01*
X166909378Y-114557200D01*
X167098179Y-114557200D01*
X166934755Y-114743036D01*
X166810511Y-115043020D01*
X166871373Y-115233000D01*
X167873000Y-115233000D01*
X167873000Y-115213000D01*
X168127000Y-115213000D01*
X168127000Y-115233000D01*
X169128627Y-115233000D01*
X169189489Y-115043020D01*
X169065245Y-114743036D01*
X168901821Y-114557200D01*
X196798179Y-114557200D01*
X196634755Y-114743036D01*
X196510511Y-115043020D01*
X196571373Y-115233000D01*
X197573000Y-115233000D01*
X197573000Y-115213000D01*
X197827000Y-115213000D01*
X197827000Y-115233000D01*
X198828627Y-115233000D01*
X198889489Y-115043020D01*
X198765245Y-114743036D01*
X198601821Y-114557200D01*
X198790622Y-114557200D01*
X199096112Y-114862690D01*
X199078587Y-114888917D01*
X198984883Y-115360000D01*
X199078587Y-115831083D01*
X199345435Y-116230448D01*
X199744800Y-116497296D01*
X200215883Y-116591000D01*
X200264117Y-116591000D01*
X200735200Y-116497296D01*
X201134565Y-116230448D01*
X201401413Y-115831083D01*
X201495117Y-115360000D01*
X201401413Y-114888917D01*
X201134565Y-114489552D01*
X200735200Y-114222704D01*
X200264117Y-114129000D01*
X200215883Y-114129000D01*
X199748538Y-114221960D01*
X199303289Y-113776711D01*
X199154963Y-113677602D01*
X198980000Y-113642800D01*
X198626402Y-113642800D01*
X198861413Y-113291083D01*
X198955117Y-112820000D01*
X198861413Y-112348917D01*
X198599675Y-111957200D01*
X198730622Y-111957200D01*
X199096112Y-112322690D01*
X199078587Y-112348917D01*
X198984883Y-112820000D01*
X199078587Y-113291083D01*
X199345435Y-113690448D01*
X199744800Y-113957296D01*
X200215883Y-114051000D01*
X200264117Y-114051000D01*
X200735200Y-113957296D01*
X201134565Y-113690448D01*
X201401413Y-113291083D01*
X201495117Y-112820000D01*
X201401413Y-112348917D01*
X201134565Y-111949552D01*
X200735200Y-111682704D01*
X200264117Y-111589000D01*
X200215883Y-111589000D01*
X199748538Y-111681960D01*
X199243289Y-111176711D01*
X199094963Y-111077602D01*
X198920000Y-111042800D01*
X198666493Y-111042800D01*
X198861413Y-110751083D01*
X198955117Y-110280000D01*
X198861413Y-109808917D01*
X198626402Y-109457200D01*
X198770622Y-109457200D01*
X199096112Y-109782690D01*
X199078587Y-109808917D01*
X198984883Y-110280000D01*
X199078587Y-110751083D01*
X199345435Y-111150448D01*
X199744800Y-111417296D01*
X200215883Y-111511000D01*
X200264117Y-111511000D01*
X200735200Y-111417296D01*
X201134565Y-111150448D01*
X201401413Y-110751083D01*
X201495117Y-110280000D01*
X201401413Y-109808917D01*
X201134565Y-109409552D01*
X200735200Y-109142704D01*
X200264117Y-109049000D01*
X200215883Y-109049000D01*
X199748538Y-109141960D01*
X199283289Y-108676711D01*
X199134963Y-108577602D01*
X198960000Y-108542800D01*
X198639766Y-108542800D01*
X198861413Y-108211083D01*
X198892065Y-108056980D01*
X199050511Y-108056980D01*
X199174755Y-108356964D01*
X199491944Y-108717652D01*
X199923018Y-108929501D01*
X200113000Y-108869193D01*
X200113000Y-107867000D01*
X200367000Y-107867000D01*
X200367000Y-108869193D01*
X200556982Y-108929501D01*
X200988056Y-108717652D01*
X201305245Y-108356964D01*
X201429489Y-108056980D01*
X201368627Y-107867000D01*
X200367000Y-107867000D01*
X200113000Y-107867000D01*
X199111373Y-107867000D01*
X199050511Y-108056980D01*
X198892065Y-108056980D01*
X198955117Y-107740000D01*
X198892066Y-107423020D01*
X199050511Y-107423020D01*
X199111373Y-107613000D01*
X200113000Y-107613000D01*
X200113000Y-106610807D01*
X200367000Y-106610807D01*
X200367000Y-107613000D01*
X201368627Y-107613000D01*
X201429489Y-107423020D01*
X201305245Y-107123036D01*
X200988056Y-106762348D01*
X200556982Y-106550499D01*
X200367000Y-106610807D01*
X200113000Y-106610807D01*
X199923018Y-106550499D01*
X199491944Y-106762348D01*
X199174755Y-107123036D01*
X199050511Y-107423020D01*
X198892066Y-107423020D01*
X198861413Y-107268917D01*
X198594565Y-106869552D01*
X198195200Y-106602704D01*
X197724117Y-106509000D01*
X197675883Y-106509000D01*
X197204800Y-106602704D01*
X196805435Y-106869552D01*
X196538587Y-107268917D01*
X196535826Y-107282800D01*
X177841001Y-107282800D01*
X177913335Y-107210592D01*
X178023774Y-106944624D01*
X178023968Y-106722610D01*
X179089378Y-105657200D01*
X196535826Y-105657200D01*
X196538587Y-105671083D01*
X196805435Y-106070448D01*
X197204800Y-106337296D01*
X197675883Y-106431000D01*
X197724117Y-106431000D01*
X198195200Y-106337296D01*
X198594565Y-106070448D01*
X198861413Y-105671083D01*
X198955117Y-105200000D01*
X198861413Y-104728917D01*
X198613039Y-104357200D01*
X198750622Y-104357200D01*
X199096112Y-104702690D01*
X199078587Y-104728917D01*
X198984883Y-105200000D01*
X199078587Y-105671083D01*
X199345435Y-106070448D01*
X199744800Y-106337296D01*
X200215883Y-106431000D01*
X200264117Y-106431000D01*
X200735200Y-106337296D01*
X201134565Y-106070448D01*
X201401413Y-105671083D01*
X201495117Y-105200000D01*
X201401413Y-104728917D01*
X201134565Y-104329552D01*
X200735200Y-104062704D01*
X200264117Y-103969000D01*
X200215883Y-103969000D01*
X199748538Y-104061960D01*
X199263289Y-103576711D01*
X199114963Y-103477602D01*
X198940000Y-103442800D01*
X198653130Y-103442800D01*
X198861413Y-103131083D01*
X198892065Y-102976980D01*
X199050511Y-102976980D01*
X199174755Y-103276964D01*
X199491944Y-103637652D01*
X199923018Y-103849501D01*
X200113000Y-103789193D01*
X200113000Y-102787000D01*
X200367000Y-102787000D01*
X200367000Y-103789193D01*
X200556982Y-103849501D01*
X200988056Y-103637652D01*
X201305245Y-103276964D01*
X201429489Y-102976980D01*
X201368627Y-102787000D01*
X200367000Y-102787000D01*
X200113000Y-102787000D01*
X199111373Y-102787000D01*
X199050511Y-102976980D01*
X198892065Y-102976980D01*
X198955117Y-102660000D01*
X198892066Y-102343020D01*
X199050511Y-102343020D01*
X199111373Y-102533000D01*
X200113000Y-102533000D01*
X200113000Y-101530807D01*
X200367000Y-101530807D01*
X200367000Y-102533000D01*
X201368627Y-102533000D01*
X201429489Y-102343020D01*
X201305245Y-102043036D01*
X200988056Y-101682348D01*
X200556982Y-101470499D01*
X200367000Y-101530807D01*
X200113000Y-101530807D01*
X199923018Y-101470499D01*
X199491944Y-101682348D01*
X199174755Y-102043036D01*
X199050511Y-102343020D01*
X198892066Y-102343020D01*
X198861413Y-102188917D01*
X198594565Y-101789552D01*
X198195200Y-101522704D01*
X197724117Y-101429000D01*
X197675883Y-101429000D01*
X197204800Y-101522704D01*
X196805435Y-101789552D01*
X196538587Y-102188917D01*
X196535826Y-102202800D01*
X169164174Y-102202800D01*
X169161413Y-102188917D01*
X168894565Y-101789552D01*
X168495200Y-101522704D01*
X168024117Y-101429000D01*
X167975883Y-101429000D01*
X167504800Y-101522704D01*
X167105435Y-101789552D01*
X166838587Y-102188917D01*
X166744883Y-102660000D01*
X166838587Y-103131083D01*
X167046870Y-103442800D01*
X166760000Y-103442800D01*
X166585037Y-103477602D01*
X166436711Y-103576711D01*
X165951462Y-104061960D01*
X165484117Y-103969000D01*
X165435883Y-103969000D01*
X164964800Y-104062704D01*
X164565435Y-104329552D01*
X164298587Y-104728917D01*
X164204883Y-105200000D01*
X163656000Y-105200000D01*
X163656000Y-102976980D01*
X164270511Y-102976980D01*
X164394755Y-103276964D01*
X164711944Y-103637652D01*
X165143018Y-103849501D01*
X165333000Y-103789193D01*
X165333000Y-102787000D01*
X165587000Y-102787000D01*
X165587000Y-103789193D01*
X165776982Y-103849501D01*
X166208056Y-103637652D01*
X166525245Y-103276964D01*
X166649489Y-102976980D01*
X166588627Y-102787000D01*
X165587000Y-102787000D01*
X165333000Y-102787000D01*
X164331373Y-102787000D01*
X164270511Y-102976980D01*
X163656000Y-102976980D01*
X163656000Y-102343020D01*
X164270511Y-102343020D01*
X164331373Y-102533000D01*
X165333000Y-102533000D01*
X165333000Y-101530807D01*
X165587000Y-101530807D01*
X165587000Y-102533000D01*
X166588627Y-102533000D01*
X166649489Y-102343020D01*
X166525245Y-102043036D01*
X166208056Y-101682348D01*
X165776982Y-101470499D01*
X165587000Y-101530807D01*
X165333000Y-101530807D01*
X165143018Y-101470499D01*
X164711944Y-101682348D01*
X164394755Y-102043036D01*
X164270511Y-102343020D01*
X163656000Y-102343020D01*
X163656000Y-100120000D01*
X164204883Y-100120000D01*
X164298587Y-100591083D01*
X164565435Y-100990448D01*
X164964800Y-101257296D01*
X165435883Y-101351000D01*
X165484117Y-101351000D01*
X165955200Y-101257296D01*
X166354565Y-100990448D01*
X166621413Y-100591083D01*
X166715117Y-100120000D01*
X166744883Y-100120000D01*
X166838587Y-100591083D01*
X167105435Y-100990448D01*
X167504800Y-101257296D01*
X167975883Y-101351000D01*
X168024117Y-101351000D01*
X168495200Y-101257296D01*
X168894565Y-100990448D01*
X169161413Y-100591083D01*
X169255117Y-100120000D01*
X196444883Y-100120000D01*
X196538587Y-100591083D01*
X196805435Y-100990448D01*
X197204800Y-101257296D01*
X197675883Y-101351000D01*
X197724117Y-101351000D01*
X198195200Y-101257296D01*
X198594565Y-100990448D01*
X198861413Y-100591083D01*
X198955117Y-100120000D01*
X198984883Y-100120000D01*
X199078587Y-100591083D01*
X199345435Y-100990448D01*
X199744800Y-101257296D01*
X200215883Y-101351000D01*
X200264117Y-101351000D01*
X200735200Y-101257296D01*
X201134565Y-100990448D01*
X201401413Y-100591083D01*
X201495117Y-100120000D01*
X201401413Y-99648917D01*
X201134565Y-99249552D01*
X200735200Y-98982704D01*
X200264117Y-98889000D01*
X200215883Y-98889000D01*
X199744800Y-98982704D01*
X199345435Y-99249552D01*
X199078587Y-99648917D01*
X198984883Y-100120000D01*
X198955117Y-100120000D01*
X198861413Y-99648917D01*
X198594565Y-99249552D01*
X198195200Y-98982704D01*
X197724117Y-98889000D01*
X197675883Y-98889000D01*
X197204800Y-98982704D01*
X196805435Y-99249552D01*
X196538587Y-99648917D01*
X196444883Y-100120000D01*
X169255117Y-100120000D01*
X169161413Y-99648917D01*
X168894565Y-99249552D01*
X168495200Y-98982704D01*
X168024117Y-98889000D01*
X167975883Y-98889000D01*
X167504800Y-98982704D01*
X167105435Y-99249552D01*
X166838587Y-99648917D01*
X166744883Y-100120000D01*
X166715117Y-100120000D01*
X166621413Y-99648917D01*
X166354565Y-99249552D01*
X165955200Y-98982704D01*
X165484117Y-98889000D01*
X165435883Y-98889000D01*
X164964800Y-98982704D01*
X164565435Y-99249552D01*
X164298587Y-99648917D01*
X164204883Y-100120000D01*
X163656000Y-100120000D01*
X163656000Y-92500000D01*
X164204883Y-92500000D01*
X164298587Y-92971083D01*
X164565435Y-93370448D01*
X164964800Y-93637296D01*
X165435883Y-93731000D01*
X165484117Y-93731000D01*
X165955200Y-93637296D01*
X166354565Y-93370448D01*
X166621413Y-92971083D01*
X166715117Y-92500000D01*
X166621413Y-92028917D01*
X166603888Y-92002690D01*
X166849378Y-91757200D01*
X167020143Y-91757200D01*
X166838587Y-92028917D01*
X166744883Y-92500000D01*
X166838587Y-92971083D01*
X167086961Y-93342800D01*
X166700000Y-93342800D01*
X166525037Y-93377602D01*
X166376711Y-93476711D01*
X165951462Y-93901960D01*
X165484117Y-93809000D01*
X165435883Y-93809000D01*
X164964800Y-93902704D01*
X164565435Y-94169552D01*
X164298587Y-94568917D01*
X164204883Y-95040000D01*
X164298587Y-95511083D01*
X164565435Y-95910448D01*
X164964800Y-96177296D01*
X165435883Y-96271000D01*
X165484117Y-96271000D01*
X165955200Y-96177296D01*
X166354565Y-95910448D01*
X166621413Y-95511083D01*
X166715117Y-95040000D01*
X166621413Y-94568917D01*
X166603888Y-94542690D01*
X166889378Y-94257200D01*
X167046870Y-94257200D01*
X166838587Y-94568917D01*
X166744883Y-95040000D01*
X166838587Y-95511083D01*
X167060234Y-95842800D01*
X166740000Y-95842800D01*
X166565037Y-95877602D01*
X166416711Y-95976711D01*
X165951462Y-96441960D01*
X165484117Y-96349000D01*
X165435883Y-96349000D01*
X164964800Y-96442704D01*
X164565435Y-96709552D01*
X164298587Y-97108917D01*
X164204883Y-97580000D01*
X164298587Y-98051083D01*
X164565435Y-98450448D01*
X164964800Y-98717296D01*
X165435883Y-98811000D01*
X165484117Y-98811000D01*
X165955200Y-98717296D01*
X166354565Y-98450448D01*
X166621413Y-98051083D01*
X166652065Y-97896980D01*
X166810511Y-97896980D01*
X166934755Y-98196964D01*
X167251944Y-98557652D01*
X167683018Y-98769501D01*
X167873000Y-98709193D01*
X167873000Y-97707000D01*
X168127000Y-97707000D01*
X168127000Y-98709193D01*
X168316982Y-98769501D01*
X168748056Y-98557652D01*
X169065245Y-98196964D01*
X169189489Y-97896980D01*
X196510511Y-97896980D01*
X196634755Y-98196964D01*
X196951944Y-98557652D01*
X197383018Y-98769501D01*
X197573000Y-98709193D01*
X197573000Y-97707000D01*
X197827000Y-97707000D01*
X197827000Y-98709193D01*
X198016982Y-98769501D01*
X198448056Y-98557652D01*
X198765245Y-98196964D01*
X198889489Y-97896980D01*
X198828627Y-97707000D01*
X197827000Y-97707000D01*
X197573000Y-97707000D01*
X196571373Y-97707000D01*
X196510511Y-97896980D01*
X169189489Y-97896980D01*
X169128627Y-97707000D01*
X168127000Y-97707000D01*
X167873000Y-97707000D01*
X166871373Y-97707000D01*
X166810511Y-97896980D01*
X166652065Y-97896980D01*
X166715117Y-97580000D01*
X166621413Y-97108917D01*
X166603888Y-97082690D01*
X166929378Y-96757200D01*
X167115767Y-96757200D01*
X166934755Y-96963036D01*
X166810511Y-97263020D01*
X166871373Y-97453000D01*
X167873000Y-97453000D01*
X167873000Y-97433000D01*
X168127000Y-97433000D01*
X168127000Y-97453000D01*
X169128627Y-97453000D01*
X169189489Y-97263020D01*
X169065245Y-96963036D01*
X168884233Y-96757200D01*
X196815767Y-96757200D01*
X196634755Y-96963036D01*
X196510511Y-97263020D01*
X196571373Y-97453000D01*
X197573000Y-97453000D01*
X197573000Y-97433000D01*
X197827000Y-97433000D01*
X197827000Y-97453000D01*
X198828627Y-97453000D01*
X198889489Y-97263020D01*
X198765245Y-96963036D01*
X198584233Y-96757200D01*
X198770622Y-96757200D01*
X199096112Y-97082690D01*
X199078587Y-97108917D01*
X198984883Y-97580000D01*
X199078587Y-98051083D01*
X199345435Y-98450448D01*
X199744800Y-98717296D01*
X200215883Y-98811000D01*
X200264117Y-98811000D01*
X200735200Y-98717296D01*
X201134565Y-98450448D01*
X201401413Y-98051083D01*
X201495117Y-97580000D01*
X201401413Y-97108917D01*
X201134565Y-96709552D01*
X200735200Y-96442704D01*
X200264117Y-96349000D01*
X200215883Y-96349000D01*
X199748538Y-96441960D01*
X199283289Y-95976711D01*
X199134963Y-95877602D01*
X198960000Y-95842800D01*
X198639766Y-95842800D01*
X198861413Y-95511083D01*
X198955117Y-95040000D01*
X198861413Y-94568917D01*
X198653130Y-94257200D01*
X198810622Y-94257200D01*
X199096112Y-94542690D01*
X199078587Y-94568917D01*
X198984883Y-95040000D01*
X199078587Y-95511083D01*
X199345435Y-95910448D01*
X199744800Y-96177296D01*
X200215883Y-96271000D01*
X200264117Y-96271000D01*
X200735200Y-96177296D01*
X201134565Y-95910448D01*
X201401413Y-95511083D01*
X201495117Y-95040000D01*
X201401413Y-94568917D01*
X201134565Y-94169552D01*
X200735200Y-93902704D01*
X200264117Y-93809000D01*
X200215883Y-93809000D01*
X199748538Y-93901960D01*
X199323289Y-93476711D01*
X199174963Y-93377602D01*
X199000000Y-93342800D01*
X198613039Y-93342800D01*
X198861413Y-92971083D01*
X198955117Y-92500000D01*
X198861413Y-92028917D01*
X198679857Y-91757200D01*
X198850622Y-91757200D01*
X199096112Y-92002690D01*
X199078587Y-92028917D01*
X198984883Y-92500000D01*
X199078587Y-92971083D01*
X199345435Y-93370448D01*
X199744800Y-93637296D01*
X200215883Y-93731000D01*
X200264117Y-93731000D01*
X200735200Y-93637296D01*
X201134565Y-93370448D01*
X201401413Y-92971083D01*
X201495117Y-92500000D01*
X201401413Y-92028917D01*
X201134565Y-91629552D01*
X200735200Y-91362704D01*
X200264117Y-91269000D01*
X200215883Y-91269000D01*
X199748538Y-91361960D01*
X199363289Y-90976711D01*
X199214963Y-90877602D01*
X199040000Y-90842800D01*
X198576079Y-90842800D01*
X198594565Y-90830448D01*
X198861413Y-90431083D01*
X198892065Y-90276980D01*
X199050511Y-90276980D01*
X199174755Y-90576964D01*
X199491944Y-90937652D01*
X199923018Y-91149501D01*
X200113000Y-91089193D01*
X200113000Y-90087000D01*
X200367000Y-90087000D01*
X200367000Y-91089193D01*
X200556982Y-91149501D01*
X200988056Y-90937652D01*
X201305245Y-90576964D01*
X201429489Y-90276980D01*
X201368627Y-90087000D01*
X200367000Y-90087000D01*
X200113000Y-90087000D01*
X199111373Y-90087000D01*
X199050511Y-90276980D01*
X198892065Y-90276980D01*
X198955117Y-89960000D01*
X198892066Y-89643020D01*
X199050511Y-89643020D01*
X199111373Y-89833000D01*
X200113000Y-89833000D01*
X200113000Y-88830807D01*
X200367000Y-88830807D01*
X200367000Y-89833000D01*
X201368627Y-89833000D01*
X201429489Y-89643020D01*
X201305245Y-89343036D01*
X200988056Y-88982348D01*
X200556982Y-88770499D01*
X200367000Y-88830807D01*
X200113000Y-88830807D01*
X199923018Y-88770499D01*
X199491944Y-88982348D01*
X199174755Y-89343036D01*
X199050511Y-89643020D01*
X198892066Y-89643020D01*
X198861413Y-89488917D01*
X198594565Y-89089552D01*
X198195200Y-88822704D01*
X197724117Y-88729000D01*
X197675883Y-88729000D01*
X197204800Y-88822704D01*
X196805435Y-89089552D01*
X196538587Y-89488917D01*
X196535826Y-89502800D01*
X169164174Y-89502800D01*
X169161413Y-89488917D01*
X168894565Y-89089552D01*
X168495200Y-88822704D01*
X168024117Y-88729000D01*
X167975883Y-88729000D01*
X167504800Y-88822704D01*
X167105435Y-89089552D01*
X166838587Y-89488917D01*
X166744883Y-89960000D01*
X166838587Y-90431083D01*
X167105435Y-90830448D01*
X167123921Y-90842800D01*
X166660000Y-90842800D01*
X166485037Y-90877602D01*
X166336711Y-90976711D01*
X165951462Y-91361960D01*
X165484117Y-91269000D01*
X165435883Y-91269000D01*
X164964800Y-91362704D01*
X164565435Y-91629552D01*
X164298587Y-92028917D01*
X164204883Y-92500000D01*
X163656000Y-92500000D01*
X163656000Y-90276980D01*
X164270511Y-90276980D01*
X164394755Y-90576964D01*
X164711944Y-90937652D01*
X165143018Y-91149501D01*
X165333000Y-91089193D01*
X165333000Y-90087000D01*
X165587000Y-90087000D01*
X165587000Y-91089193D01*
X165776982Y-91149501D01*
X166208056Y-90937652D01*
X166525245Y-90576964D01*
X166649489Y-90276980D01*
X166588627Y-90087000D01*
X165587000Y-90087000D01*
X165333000Y-90087000D01*
X164331373Y-90087000D01*
X164270511Y-90276980D01*
X163656000Y-90276980D01*
X163656000Y-89643020D01*
X164270511Y-89643020D01*
X164331373Y-89833000D01*
X165333000Y-89833000D01*
X165333000Y-88830807D01*
X165587000Y-88830807D01*
X165587000Y-89833000D01*
X166588627Y-89833000D01*
X166649489Y-89643020D01*
X166525245Y-89343036D01*
X166208056Y-88982348D01*
X165776982Y-88770499D01*
X165587000Y-88830807D01*
X165333000Y-88830807D01*
X165143018Y-88770499D01*
X164711944Y-88982348D01*
X164394755Y-89343036D01*
X164270511Y-89643020D01*
X163656000Y-89643020D01*
X163656000Y-84880000D01*
X164204883Y-84880000D01*
X164298587Y-85351083D01*
X164565435Y-85750448D01*
X164964800Y-86017296D01*
X165435883Y-86111000D01*
X165484117Y-86111000D01*
X165955200Y-86017296D01*
X166354565Y-85750448D01*
X166621413Y-85351083D01*
X166715117Y-84880000D01*
X166621413Y-84408917D01*
X166603888Y-84382690D01*
X166929378Y-84057200D01*
X167073598Y-84057200D01*
X166838587Y-84408917D01*
X166744883Y-84880000D01*
X166838587Y-85351083D01*
X167033507Y-85642800D01*
X166780000Y-85642800D01*
X166605037Y-85677602D01*
X166456711Y-85776711D01*
X165951462Y-86281960D01*
X165484117Y-86189000D01*
X165435883Y-86189000D01*
X164964800Y-86282704D01*
X164565435Y-86549552D01*
X164298587Y-86948917D01*
X164204883Y-87420000D01*
X164298587Y-87891083D01*
X164565435Y-88290448D01*
X164964800Y-88557296D01*
X165435883Y-88651000D01*
X165484117Y-88651000D01*
X165955200Y-88557296D01*
X166354565Y-88290448D01*
X166621413Y-87891083D01*
X166715117Y-87420000D01*
X166621413Y-86948917D01*
X166603888Y-86922690D01*
X166969378Y-86557200D01*
X167100325Y-86557200D01*
X166838587Y-86948917D01*
X166744883Y-87420000D01*
X166838587Y-87891083D01*
X167105435Y-88290448D01*
X167504800Y-88557296D01*
X167975883Y-88651000D01*
X168024117Y-88651000D01*
X168495200Y-88557296D01*
X168894565Y-88290448D01*
X169017943Y-88105800D01*
X187812090Y-88105800D01*
X187855376Y-88123774D01*
X188143361Y-88124025D01*
X188187469Y-88105800D01*
X196682057Y-88105800D01*
X196805435Y-88290448D01*
X197204800Y-88557296D01*
X197675883Y-88651000D01*
X197724117Y-88651000D01*
X198195200Y-88557296D01*
X198594565Y-88290448D01*
X198861413Y-87891083D01*
X198955117Y-87420000D01*
X198861413Y-86948917D01*
X198599675Y-86557200D01*
X198730622Y-86557200D01*
X199096112Y-86922690D01*
X199078587Y-86948917D01*
X198984883Y-87420000D01*
X199078587Y-87891083D01*
X199345435Y-88290448D01*
X199744800Y-88557296D01*
X200215883Y-88651000D01*
X200264117Y-88651000D01*
X200735200Y-88557296D01*
X201134565Y-88290448D01*
X201401413Y-87891083D01*
X201495117Y-87420000D01*
X201401413Y-86948917D01*
X201134565Y-86549552D01*
X200735200Y-86282704D01*
X200264117Y-86189000D01*
X200215883Y-86189000D01*
X199748538Y-86281960D01*
X199243289Y-85776711D01*
X199094963Y-85677602D01*
X198920000Y-85642800D01*
X198666493Y-85642800D01*
X198861413Y-85351083D01*
X198955117Y-84880000D01*
X198861413Y-84408917D01*
X198626402Y-84057200D01*
X198770622Y-84057200D01*
X199096112Y-84382690D01*
X199078587Y-84408917D01*
X198984883Y-84880000D01*
X199078587Y-85351083D01*
X199345435Y-85750448D01*
X199744800Y-86017296D01*
X200215883Y-86111000D01*
X200264117Y-86111000D01*
X200735200Y-86017296D01*
X201134565Y-85750448D01*
X201401413Y-85351083D01*
X201495117Y-84880000D01*
X201401413Y-84408917D01*
X201134565Y-84009552D01*
X200735200Y-83742704D01*
X200264117Y-83649000D01*
X200215883Y-83649000D01*
X199748538Y-83741960D01*
X199283289Y-83276711D01*
X199134963Y-83177602D01*
X198960000Y-83142800D01*
X198639766Y-83142800D01*
X198861413Y-82811083D01*
X198892065Y-82656980D01*
X199050511Y-82656980D01*
X199174755Y-82956964D01*
X199491944Y-83317652D01*
X199923018Y-83529501D01*
X200113000Y-83469193D01*
X200113000Y-82467000D01*
X200367000Y-82467000D01*
X200367000Y-83469193D01*
X200556982Y-83529501D01*
X200988056Y-83317652D01*
X201305245Y-82956964D01*
X201429489Y-82656980D01*
X201368627Y-82467000D01*
X200367000Y-82467000D01*
X200113000Y-82467000D01*
X199111373Y-82467000D01*
X199050511Y-82656980D01*
X198892065Y-82656980D01*
X198955117Y-82340000D01*
X198892066Y-82023020D01*
X199050511Y-82023020D01*
X199111373Y-82213000D01*
X200113000Y-82213000D01*
X200113000Y-81210807D01*
X200367000Y-81210807D01*
X200367000Y-82213000D01*
X201368627Y-82213000D01*
X201429489Y-82023020D01*
X201305245Y-81723036D01*
X200988056Y-81362348D01*
X200556982Y-81150499D01*
X200367000Y-81210807D01*
X200113000Y-81210807D01*
X199923018Y-81150499D01*
X199491944Y-81362348D01*
X199174755Y-81723036D01*
X199050511Y-82023020D01*
X198892066Y-82023020D01*
X198861413Y-81868917D01*
X198594565Y-81469552D01*
X198195200Y-81202704D01*
X197724117Y-81109000D01*
X197675883Y-81109000D01*
X197204800Y-81202704D01*
X196805435Y-81469552D01*
X196538587Y-81868917D01*
X196535826Y-81882800D01*
X169164174Y-81882800D01*
X169161413Y-81868917D01*
X168894565Y-81469552D01*
X168495200Y-81202704D01*
X168024117Y-81109000D01*
X167975883Y-81109000D01*
X167504800Y-81202704D01*
X167105435Y-81469552D01*
X166838587Y-81868917D01*
X166744883Y-82340000D01*
X166838587Y-82811083D01*
X167060234Y-83142800D01*
X166740000Y-83142800D01*
X166565037Y-83177602D01*
X166416711Y-83276711D01*
X165951462Y-83741960D01*
X165484117Y-83649000D01*
X165435883Y-83649000D01*
X164964800Y-83742704D01*
X164565435Y-84009552D01*
X164298587Y-84408917D01*
X164204883Y-84880000D01*
X163656000Y-84880000D01*
X163656000Y-82656980D01*
X164270511Y-82656980D01*
X164394755Y-82956964D01*
X164711944Y-83317652D01*
X165143018Y-83529501D01*
X165333000Y-83469193D01*
X165333000Y-82467000D01*
X165587000Y-82467000D01*
X165587000Y-83469193D01*
X165776982Y-83529501D01*
X166208056Y-83317652D01*
X166525245Y-82956964D01*
X166649489Y-82656980D01*
X166588627Y-82467000D01*
X165587000Y-82467000D01*
X165333000Y-82467000D01*
X164331373Y-82467000D01*
X164270511Y-82656980D01*
X163656000Y-82656980D01*
X163656000Y-82023020D01*
X164270511Y-82023020D01*
X164331373Y-82213000D01*
X165333000Y-82213000D01*
X165333000Y-81210807D01*
X165587000Y-81210807D01*
X165587000Y-82213000D01*
X166588627Y-82213000D01*
X166649489Y-82023020D01*
X166525245Y-81723036D01*
X166208056Y-81362348D01*
X165776982Y-81150499D01*
X165587000Y-81210807D01*
X165333000Y-81210807D01*
X165143018Y-81150499D01*
X164711944Y-81362348D01*
X164394755Y-81723036D01*
X164270511Y-82023020D01*
X163656000Y-82023020D01*
X163656000Y-79800000D01*
X164204883Y-79800000D01*
X164298587Y-80271083D01*
X164565435Y-80670448D01*
X164964800Y-80937296D01*
X165435883Y-81031000D01*
X165484117Y-81031000D01*
X165955200Y-80937296D01*
X166354565Y-80670448D01*
X166621413Y-80271083D01*
X166715117Y-79800000D01*
X166621413Y-79328917D01*
X166603888Y-79302690D01*
X166949378Y-78957200D01*
X167086961Y-78957200D01*
X166838587Y-79328917D01*
X166744883Y-79800000D01*
X166838587Y-80271083D01*
X167105435Y-80670448D01*
X167504800Y-80937296D01*
X167975883Y-81031000D01*
X168024117Y-81031000D01*
X168495200Y-80937296D01*
X168894565Y-80670448D01*
X169161413Y-80271083D01*
X169164174Y-80257200D01*
X196535826Y-80257200D01*
X196538587Y-80271083D01*
X196805435Y-80670448D01*
X197204800Y-80937296D01*
X197675883Y-81031000D01*
X197724117Y-81031000D01*
X198195200Y-80937296D01*
X198594565Y-80670448D01*
X198861413Y-80271083D01*
X198955117Y-79800000D01*
X198861413Y-79328917D01*
X198613039Y-78957200D01*
X198750622Y-78957200D01*
X199096112Y-79302690D01*
X199078587Y-79328917D01*
X198984883Y-79800000D01*
X199078587Y-80271083D01*
X199345435Y-80670448D01*
X199744800Y-80937296D01*
X200215883Y-81031000D01*
X200264117Y-81031000D01*
X200735200Y-80937296D01*
X201134565Y-80670448D01*
X201401413Y-80271083D01*
X201495117Y-79800000D01*
X201401413Y-79328917D01*
X201134565Y-78929552D01*
X200735200Y-78662704D01*
X200264117Y-78569000D01*
X200215883Y-78569000D01*
X199748538Y-78661960D01*
X199263289Y-78176711D01*
X199114963Y-78077602D01*
X198940000Y-78042800D01*
X198619409Y-78042800D01*
X198765245Y-77876964D01*
X198889489Y-77576980D01*
X198828627Y-77387000D01*
X197827000Y-77387000D01*
X197827000Y-77407000D01*
X197573000Y-77407000D01*
X197573000Y-77387000D01*
X196571373Y-77387000D01*
X196510511Y-77576980D01*
X196634755Y-77876964D01*
X196780591Y-78042800D01*
X168919409Y-78042800D01*
X169065245Y-77876964D01*
X169189489Y-77576980D01*
X169128627Y-77387000D01*
X168127000Y-77387000D01*
X168127000Y-77407000D01*
X167873000Y-77407000D01*
X167873000Y-77387000D01*
X166871373Y-77387000D01*
X166810511Y-77576980D01*
X166934755Y-77876964D01*
X167080591Y-78042800D01*
X166760000Y-78042800D01*
X166585037Y-78077602D01*
X166436711Y-78176711D01*
X165951462Y-78661960D01*
X165484117Y-78569000D01*
X165435883Y-78569000D01*
X164964800Y-78662704D01*
X164565435Y-78929552D01*
X164298587Y-79328917D01*
X164204883Y-79800000D01*
X163656000Y-79800000D01*
X163656000Y-74720000D01*
X164204883Y-74720000D01*
X164298587Y-75191083D01*
X164565435Y-75590448D01*
X164964800Y-75857296D01*
X165435883Y-75951000D01*
X165484117Y-75951000D01*
X165955200Y-75857296D01*
X166354565Y-75590448D01*
X166621413Y-75191083D01*
X166715117Y-74720000D01*
X166621413Y-74248917D01*
X166603889Y-74222690D01*
X166869379Y-73957200D01*
X167033507Y-73957200D01*
X166838587Y-74248917D01*
X166744883Y-74720000D01*
X166838587Y-75191083D01*
X167073598Y-75542800D01*
X166720000Y-75542800D01*
X166545037Y-75577602D01*
X166396711Y-75676711D01*
X165951462Y-76121960D01*
X165484117Y-76029000D01*
X165435883Y-76029000D01*
X164964800Y-76122704D01*
X164565435Y-76389552D01*
X164298587Y-76788917D01*
X164204883Y-77260000D01*
X164298587Y-77731083D01*
X164565435Y-78130448D01*
X164964800Y-78397296D01*
X165435883Y-78491000D01*
X165484117Y-78491000D01*
X165955200Y-78397296D01*
X166354565Y-78130448D01*
X166621413Y-77731083D01*
X166715117Y-77260000D01*
X166621413Y-76788917D01*
X166603888Y-76762690D01*
X166909378Y-76457200D01*
X167098179Y-76457200D01*
X166934755Y-76643036D01*
X166810511Y-76943020D01*
X166871373Y-77133000D01*
X167873000Y-77133000D01*
X167873000Y-77113000D01*
X168127000Y-77113000D01*
X168127000Y-77133000D01*
X169128627Y-77133000D01*
X169189489Y-76943020D01*
X169065245Y-76643036D01*
X168901821Y-76457200D01*
X196798179Y-76457200D01*
X196634755Y-76643036D01*
X196510511Y-76943020D01*
X196571373Y-77133000D01*
X197573000Y-77133000D01*
X197573000Y-77113000D01*
X197827000Y-77113000D01*
X197827000Y-77133000D01*
X198828627Y-77133000D01*
X198889489Y-76943020D01*
X198765245Y-76643036D01*
X198601821Y-76457200D01*
X198790622Y-76457200D01*
X199096112Y-76762690D01*
X199078587Y-76788917D01*
X198984883Y-77260000D01*
X199078587Y-77731083D01*
X199345435Y-78130448D01*
X199744800Y-78397296D01*
X200215883Y-78491000D01*
X200264117Y-78491000D01*
X200735200Y-78397296D01*
X201134565Y-78130448D01*
X201401413Y-77731083D01*
X201495117Y-77260000D01*
X201401413Y-76788917D01*
X201134565Y-76389552D01*
X200735200Y-76122704D01*
X200264117Y-76029000D01*
X200215883Y-76029000D01*
X199748538Y-76121960D01*
X199303289Y-75676711D01*
X199154963Y-75577602D01*
X198980000Y-75542800D01*
X198626402Y-75542800D01*
X198861413Y-75191083D01*
X198955117Y-74720000D01*
X198861413Y-74248917D01*
X198666493Y-73957200D01*
X198830622Y-73957200D01*
X199096111Y-74222690D01*
X199078587Y-74248917D01*
X198984883Y-74720000D01*
X199078587Y-75191083D01*
X199345435Y-75590448D01*
X199744800Y-75857296D01*
X200215883Y-75951000D01*
X200264117Y-75951000D01*
X200735200Y-75857296D01*
X201134565Y-75590448D01*
X201401413Y-75191083D01*
X201495117Y-74720000D01*
X201401413Y-74248917D01*
X201134565Y-73849552D01*
X200735200Y-73582704D01*
X200264117Y-73489000D01*
X200215883Y-73489000D01*
X199748539Y-73581960D01*
X199343289Y-73176711D01*
X199194963Y-73077602D01*
X199020000Y-73042800D01*
X198599675Y-73042800D01*
X198861413Y-72651083D01*
X198892065Y-72496980D01*
X199050511Y-72496980D01*
X199174755Y-72796964D01*
X199491944Y-73157652D01*
X199923018Y-73369501D01*
X200113000Y-73309193D01*
X200113000Y-72307000D01*
X200367000Y-72307000D01*
X200367000Y-73309193D01*
X200556982Y-73369501D01*
X200988056Y-73157652D01*
X201305245Y-72796964D01*
X201429489Y-72496980D01*
X201368627Y-72307000D01*
X200367000Y-72307000D01*
X200113000Y-72307000D01*
X199111373Y-72307000D01*
X199050511Y-72496980D01*
X198892065Y-72496980D01*
X198955117Y-72180000D01*
X198892066Y-71863020D01*
X199050511Y-71863020D01*
X199111373Y-72053000D01*
X200113000Y-72053000D01*
X200113000Y-71050807D01*
X200367000Y-71050807D01*
X200367000Y-72053000D01*
X201368627Y-72053000D01*
X201429489Y-71863020D01*
X201305245Y-71563036D01*
X200988056Y-71202348D01*
X200556982Y-70990499D01*
X200367000Y-71050807D01*
X200113000Y-71050807D01*
X199923018Y-70990499D01*
X199491944Y-71202348D01*
X199174755Y-71563036D01*
X199050511Y-71863020D01*
X198892066Y-71863020D01*
X198861413Y-71708917D01*
X198594565Y-71309552D01*
X198195200Y-71042704D01*
X197724117Y-70949000D01*
X197675883Y-70949000D01*
X197204800Y-71042704D01*
X196805435Y-71309552D01*
X196538587Y-71708917D01*
X196535826Y-71722800D01*
X179391313Y-71722800D01*
X179423774Y-71644624D01*
X179424025Y-71356639D01*
X179314050Y-71090479D01*
X179110592Y-70886665D01*
X178844624Y-70776226D01*
X178556639Y-70775975D01*
X178290479Y-70885950D01*
X178086665Y-71089408D01*
X177976226Y-71355376D01*
X177976032Y-71577390D01*
X177830622Y-71722800D01*
X169164174Y-71722800D01*
X169161413Y-71708917D01*
X168894565Y-71309552D01*
X168495200Y-71042704D01*
X168024117Y-70949000D01*
X167975883Y-70949000D01*
X167504800Y-71042704D01*
X167105435Y-71309552D01*
X166838587Y-71708917D01*
X166744883Y-72180000D01*
X166838587Y-72651083D01*
X167100325Y-73042800D01*
X166680000Y-73042800D01*
X166505037Y-73077602D01*
X166356711Y-73176710D01*
X165951461Y-73581960D01*
X165484117Y-73489000D01*
X165435883Y-73489000D01*
X164964800Y-73582704D01*
X164565435Y-73849552D01*
X164298587Y-74248917D01*
X164204883Y-74720000D01*
X163656000Y-74720000D01*
X163656000Y-72496980D01*
X164270511Y-72496980D01*
X164394755Y-72796964D01*
X164711944Y-73157652D01*
X165143018Y-73369501D01*
X165333000Y-73309193D01*
X165333000Y-72307000D01*
X165587000Y-72307000D01*
X165587000Y-73309193D01*
X165776982Y-73369501D01*
X166208056Y-73157652D01*
X166525245Y-72796964D01*
X166649489Y-72496980D01*
X166588627Y-72307000D01*
X165587000Y-72307000D01*
X165333000Y-72307000D01*
X164331373Y-72307000D01*
X164270511Y-72496980D01*
X163656000Y-72496980D01*
X163656000Y-71863020D01*
X164270511Y-71863020D01*
X164331373Y-72053000D01*
X165333000Y-72053000D01*
X165333000Y-71050807D01*
X165587000Y-71050807D01*
X165587000Y-72053000D01*
X166588627Y-72053000D01*
X166649489Y-71863020D01*
X166525245Y-71563036D01*
X166208056Y-71202348D01*
X165776982Y-70990499D01*
X165587000Y-71050807D01*
X165333000Y-71050807D01*
X165143018Y-70990499D01*
X164711944Y-71202348D01*
X164394755Y-71563036D01*
X164270511Y-71863020D01*
X163656000Y-71863020D01*
X163656000Y-67100000D01*
X164204883Y-67100000D01*
X164298587Y-67571083D01*
X164565435Y-67970448D01*
X164774200Y-68109941D01*
X164774200Y-68630059D01*
X164565435Y-68769552D01*
X164298587Y-69168917D01*
X164204883Y-69640000D01*
X164298587Y-70111083D01*
X164565435Y-70510448D01*
X164964800Y-70777296D01*
X165435883Y-70871000D01*
X165484117Y-70871000D01*
X165955200Y-70777296D01*
X166354565Y-70510448D01*
X166621413Y-70111083D01*
X166715117Y-69640000D01*
X166744883Y-69640000D01*
X166838587Y-70111083D01*
X167105435Y-70510448D01*
X167504800Y-70777296D01*
X167975883Y-70871000D01*
X168024117Y-70871000D01*
X168495200Y-70777296D01*
X168894565Y-70510448D01*
X169161413Y-70111083D01*
X169164174Y-70097200D01*
X184050622Y-70097200D01*
X184076167Y-70122746D01*
X184075975Y-70343361D01*
X184185950Y-70609521D01*
X184389408Y-70813335D01*
X184655376Y-70923774D01*
X184943361Y-70924025D01*
X185209521Y-70814050D01*
X185413335Y-70610592D01*
X185523774Y-70344624D01*
X185523990Y-70097200D01*
X196535826Y-70097200D01*
X196538587Y-70111083D01*
X196805435Y-70510448D01*
X197204800Y-70777296D01*
X197675883Y-70871000D01*
X197724117Y-70871000D01*
X198195200Y-70777296D01*
X198594565Y-70510448D01*
X198861413Y-70111083D01*
X198955117Y-69640000D01*
X198861413Y-69168917D01*
X198594565Y-68769552D01*
X198195200Y-68502704D01*
X197724117Y-68409000D01*
X197675883Y-68409000D01*
X197204800Y-68502704D01*
X196805435Y-68769552D01*
X196538587Y-69168917D01*
X196535826Y-69182800D01*
X179407922Y-69182800D01*
X179423774Y-69144624D01*
X179424025Y-68856639D01*
X179314050Y-68590479D01*
X179110592Y-68386665D01*
X178844624Y-68276226D01*
X178556639Y-68275975D01*
X178290479Y-68385950D01*
X178086665Y-68589408D01*
X177976226Y-68855376D01*
X177976032Y-69077390D01*
X177870622Y-69182800D01*
X169164174Y-69182800D01*
X169161413Y-69168917D01*
X168894565Y-68769552D01*
X168495200Y-68502704D01*
X168024117Y-68409000D01*
X167975883Y-68409000D01*
X167504800Y-68502704D01*
X167105435Y-68769552D01*
X166838587Y-69168917D01*
X166744883Y-69640000D01*
X166715117Y-69640000D01*
X166621413Y-69168917D01*
X166354565Y-68769552D01*
X166145800Y-68630059D01*
X166145800Y-68109941D01*
X166354565Y-67970448D01*
X166621413Y-67571083D01*
X166715117Y-67100000D01*
X166667791Y-66862076D01*
X166761536Y-66768332D01*
X166761536Y-67950000D01*
X166788103Y-68091190D01*
X166871546Y-68220865D01*
X166998866Y-68307859D01*
X167150000Y-68338464D01*
X168850000Y-68338464D01*
X168991190Y-68311897D01*
X169120865Y-68228454D01*
X169207859Y-68101134D01*
X169238464Y-67950000D01*
X169238464Y-67785800D01*
X185015932Y-67785800D01*
X185748136Y-68518004D01*
X185785950Y-68609521D01*
X185989408Y-68813335D01*
X186255376Y-68923774D01*
X186543361Y-68924025D01*
X186809521Y-68814050D01*
X187013335Y-68610592D01*
X187123774Y-68344624D01*
X187124025Y-68056639D01*
X187014050Y-67790479D01*
X187009379Y-67785800D01*
X196461536Y-67785800D01*
X196461536Y-67950000D01*
X196488103Y-68091190D01*
X196571546Y-68220865D01*
X196698866Y-68307859D01*
X196850000Y-68338464D01*
X198550000Y-68338464D01*
X198691190Y-68311897D01*
X198820865Y-68228454D01*
X198907859Y-68101134D01*
X198938464Y-67950000D01*
X198938464Y-66768331D01*
X199032209Y-66862076D01*
X198984883Y-67100000D01*
X199078587Y-67571083D01*
X199345435Y-67970448D01*
X199554200Y-68109941D01*
X199554200Y-68630059D01*
X199345435Y-68769552D01*
X199078587Y-69168917D01*
X198984883Y-69640000D01*
X199078587Y-70111083D01*
X199345435Y-70510448D01*
X199744800Y-70777296D01*
X200215883Y-70871000D01*
X200264117Y-70871000D01*
X200735200Y-70777296D01*
X201134565Y-70510448D01*
X201401413Y-70111083D01*
X201495117Y-69640000D01*
X201401413Y-69168917D01*
X201134565Y-68769552D01*
X200925800Y-68630059D01*
X200925800Y-68109941D01*
X201134565Y-67970448D01*
X201401413Y-67571083D01*
X201495117Y-67100000D01*
X201401413Y-66628917D01*
X201134565Y-66229552D01*
X200735200Y-65962704D01*
X200264117Y-65869000D01*
X200215883Y-65869000D01*
X200018191Y-65908323D01*
X198624934Y-64515066D01*
X198402445Y-64366403D01*
X198140000Y-64314200D01*
X167560000Y-64314200D01*
X167297556Y-64366403D01*
X167075066Y-64515066D01*
X167075064Y-64515069D01*
X165681809Y-65908323D01*
X165484117Y-65869000D01*
X165435883Y-65869000D01*
X164964800Y-65962704D01*
X164565435Y-66229552D01*
X164298587Y-66628917D01*
X164204883Y-67100000D01*
X163656000Y-67100000D01*
X163656000Y-58515883D01*
X172749000Y-58515883D01*
X172749000Y-58564117D01*
X172842704Y-59035200D01*
X173109552Y-59434565D01*
X173508917Y-59701413D01*
X173980000Y-59795117D01*
X174451083Y-59701413D01*
X174850448Y-59434565D01*
X175117296Y-59035200D01*
X175211000Y-58564117D01*
X175211000Y-58515883D01*
X175289000Y-58515883D01*
X175289000Y-58564117D01*
X175382704Y-59035200D01*
X175649552Y-59434565D01*
X176048917Y-59701413D01*
X176520000Y-59795117D01*
X176991083Y-59701413D01*
X177390448Y-59434565D01*
X177657296Y-59035200D01*
X177751000Y-58564117D01*
X177751000Y-58515883D01*
X177829000Y-58515883D01*
X177829000Y-58564117D01*
X177922704Y-59035200D01*
X178189552Y-59434565D01*
X178566600Y-59686501D01*
X178566600Y-60611536D01*
X178450000Y-60611536D01*
X178308810Y-60638103D01*
X178179135Y-60721546D01*
X178092141Y-60848866D01*
X178061536Y-61000000D01*
X178061536Y-61700000D01*
X178088103Y-61841190D01*
X178171546Y-61970865D01*
X178298866Y-62057859D01*
X178450000Y-62088464D01*
X179750000Y-62088464D01*
X179862915Y-62067217D01*
X179418596Y-62511536D01*
X178450000Y-62511536D01*
X178308810Y-62538103D01*
X178179135Y-62621546D01*
X178092141Y-62748866D01*
X178061536Y-62900000D01*
X178061536Y-63600000D01*
X178088103Y-63741190D01*
X178171546Y-63870865D01*
X178298866Y-63957859D01*
X178450000Y-63988464D01*
X179750000Y-63988464D01*
X179891190Y-63961897D01*
X179931746Y-63935800D01*
X188366582Y-63935800D01*
X188398866Y-63957859D01*
X188550000Y-63988464D01*
X189850000Y-63988464D01*
X189991190Y-63961897D01*
X190031746Y-63935800D01*
X190966582Y-63935800D01*
X190998866Y-63957859D01*
X191150000Y-63988464D01*
X192450000Y-63988464D01*
X192591190Y-63961897D01*
X192720865Y-63878454D01*
X192807859Y-63751134D01*
X192838464Y-63600000D01*
X192838464Y-62900000D01*
X192811897Y-62758810D01*
X192728454Y-62629135D01*
X192601134Y-62542141D01*
X192450000Y-62511536D01*
X191150000Y-62511536D01*
X191008810Y-62538103D01*
X190968254Y-62564200D01*
X190033418Y-62564200D01*
X190001134Y-62542141D01*
X189850000Y-62511536D01*
X188550000Y-62511536D01*
X188408810Y-62538103D01*
X188368254Y-62564200D01*
X187314768Y-62564200D01*
X187357859Y-62501134D01*
X187388464Y-62350000D01*
X187388464Y-61050000D01*
X187361897Y-60908810D01*
X187278454Y-60779135D01*
X187151134Y-60692141D01*
X187137200Y-60689319D01*
X187137200Y-59704174D01*
X187151083Y-59701413D01*
X187523701Y-59452437D01*
X187486665Y-59489408D01*
X187376226Y-59755376D01*
X187375975Y-60043361D01*
X187485950Y-60309521D01*
X187689408Y-60513335D01*
X187955376Y-60623774D01*
X188243361Y-60624025D01*
X188509521Y-60514050D01*
X188666600Y-60357245D01*
X188666600Y-60611536D01*
X188550000Y-60611536D01*
X188408810Y-60638103D01*
X188279135Y-60721546D01*
X188192141Y-60848866D01*
X188161536Y-61000000D01*
X188161536Y-61700000D01*
X188188103Y-61841190D01*
X188271546Y-61970865D01*
X188398866Y-62057859D01*
X188550000Y-62088464D01*
X189850000Y-62088464D01*
X189991190Y-62061897D01*
X190120865Y-61978454D01*
X190207859Y-61851134D01*
X190238464Y-61700000D01*
X190238464Y-61000000D01*
X190211897Y-60858810D01*
X190128454Y-60729135D01*
X190001134Y-60642141D01*
X189850000Y-60611536D01*
X189733400Y-60611536D01*
X189733400Y-59673138D01*
X190090448Y-59434565D01*
X190357296Y-59035200D01*
X190451000Y-58564117D01*
X190451000Y-58515883D01*
X190529000Y-58515883D01*
X190529000Y-58564117D01*
X190622704Y-59035200D01*
X190889552Y-59434565D01*
X191266600Y-59686501D01*
X191266600Y-60611536D01*
X191150000Y-60611536D01*
X191008810Y-60638103D01*
X190879135Y-60721546D01*
X190792141Y-60848866D01*
X190761536Y-61000000D01*
X190761536Y-61700000D01*
X190788103Y-61841190D01*
X190871546Y-61970865D01*
X190998866Y-62057859D01*
X191150000Y-62088464D01*
X192450000Y-62088464D01*
X192591190Y-62061897D01*
X192720865Y-61978454D01*
X192807859Y-61851134D01*
X192838464Y-61700000D01*
X192838464Y-61000000D01*
X192811897Y-60858810D01*
X192728454Y-60729135D01*
X192601134Y-60642141D01*
X192450000Y-60611536D01*
X192333400Y-60611536D01*
X192333400Y-59633047D01*
X192630448Y-59434565D01*
X192897296Y-59035200D01*
X192991000Y-58564117D01*
X192991000Y-58515883D01*
X192897296Y-58044800D01*
X192630448Y-57645435D01*
X192231083Y-57378587D01*
X191760000Y-57284883D01*
X191288917Y-57378587D01*
X190889552Y-57645435D01*
X190622704Y-58044800D01*
X190529000Y-58515883D01*
X190451000Y-58515883D01*
X190357296Y-58044800D01*
X190090448Y-57645435D01*
X189691083Y-57378587D01*
X189220000Y-57284883D01*
X188748917Y-57378587D01*
X188557200Y-57506689D01*
X188557200Y-57033311D01*
X188748917Y-57161413D01*
X189220000Y-57255117D01*
X189691083Y-57161413D01*
X190090448Y-56894565D01*
X190357296Y-56495200D01*
X190451000Y-56024117D01*
X190451000Y-55975883D01*
X190529000Y-55975883D01*
X190529000Y-56024117D01*
X190622704Y-56495200D01*
X190889552Y-56894565D01*
X191288917Y-57161413D01*
X191760000Y-57255117D01*
X192231083Y-57161413D01*
X192630448Y-56894565D01*
X192897296Y-56495200D01*
X192991000Y-56024117D01*
X192991000Y-55975883D01*
X192897296Y-55504800D01*
X192660226Y-55150000D01*
X193061536Y-55150000D01*
X193061536Y-56850000D01*
X193088103Y-56991190D01*
X193171546Y-57120865D01*
X193298866Y-57207859D01*
X193450000Y-57238464D01*
X195150000Y-57238464D01*
X195291190Y-57211897D01*
X195420865Y-57128454D01*
X195507859Y-57001134D01*
X195538464Y-56850000D01*
X195538464Y-55150000D01*
X195511897Y-55008810D01*
X195428454Y-54879135D01*
X195301134Y-54792141D01*
X195150000Y-54761536D01*
X193450000Y-54761536D01*
X193308810Y-54788103D01*
X193179135Y-54871546D01*
X193092141Y-54998866D01*
X193061536Y-55150000D01*
X192660226Y-55150000D01*
X192630448Y-55105435D01*
X192293400Y-54880226D01*
X192293400Y-53988464D01*
X192450000Y-53988464D01*
X192591190Y-53961897D01*
X192720865Y-53878454D01*
X192807859Y-53751134D01*
X192838464Y-53600000D01*
X192838464Y-52900000D01*
X192811897Y-52758810D01*
X192728454Y-52629135D01*
X192674568Y-52592316D01*
X197118657Y-52592316D01*
X197419611Y-53320680D01*
X197976389Y-53878431D01*
X198704226Y-54180655D01*
X199492316Y-54181343D01*
X200220680Y-53880389D01*
X200778431Y-53323611D01*
X201080655Y-52595774D01*
X201081343Y-51807684D01*
X200780389Y-51079320D01*
X200223611Y-50521569D01*
X199495774Y-50219345D01*
X198707684Y-50218657D01*
X197979320Y-50519611D01*
X197421569Y-51076389D01*
X197119345Y-51804226D01*
X197118657Y-52592316D01*
X192674568Y-52592316D01*
X192601134Y-52542141D01*
X192450000Y-52511536D01*
X191150000Y-52511536D01*
X191008810Y-52538103D01*
X190879135Y-52621546D01*
X190792141Y-52748866D01*
X190761536Y-52900000D01*
X190761536Y-53600000D01*
X190788103Y-53741190D01*
X190871546Y-53870865D01*
X190998866Y-53957859D01*
X191150000Y-53988464D01*
X191226600Y-53988464D01*
X191226600Y-54880226D01*
X190889552Y-55105435D01*
X190622704Y-55504800D01*
X190529000Y-55975883D01*
X190451000Y-55975883D01*
X190357296Y-55504800D01*
X190090448Y-55105435D01*
X189753400Y-54880226D01*
X189753400Y-53988464D01*
X189850000Y-53988464D01*
X189991190Y-53961897D01*
X190120865Y-53878454D01*
X190207859Y-53751134D01*
X190238464Y-53600000D01*
X190238464Y-52900000D01*
X190211897Y-52758810D01*
X190128454Y-52629135D01*
X190001134Y-52542141D01*
X189850000Y-52511536D01*
X188550000Y-52511536D01*
X188428434Y-52534411D01*
X188423289Y-52526711D01*
X187731410Y-51834832D01*
X187738464Y-51800000D01*
X187738464Y-51100000D01*
X187711897Y-50958810D01*
X187628454Y-50829135D01*
X187501134Y-50742141D01*
X187350000Y-50711536D01*
X186050000Y-50711536D01*
X185908810Y-50738103D01*
X185779135Y-50821546D01*
X185692141Y-50948866D01*
X185661536Y-51100000D01*
X185661536Y-51800000D01*
X185688103Y-51941190D01*
X185771546Y-52070865D01*
X185898866Y-52157859D01*
X186050000Y-52188464D01*
X186791886Y-52188464D01*
X187214958Y-52611536D01*
X186050000Y-52611536D01*
X185908810Y-52638103D01*
X185779135Y-52721546D01*
X185692141Y-52848866D01*
X185661536Y-53000000D01*
X185661536Y-53700000D01*
X185688103Y-53841190D01*
X185771546Y-53970865D01*
X185898866Y-54057859D01*
X186050000Y-54088464D01*
X186222800Y-54088464D01*
X186222800Y-54835826D01*
X186208917Y-54838587D01*
X185809552Y-55105435D01*
X185542704Y-55504800D01*
X185449000Y-55975883D01*
X185449000Y-56024117D01*
X185542704Y-56495200D01*
X185809552Y-56894565D01*
X186208917Y-57161413D01*
X186680000Y-57255117D01*
X187151083Y-57161413D01*
X187550448Y-56894565D01*
X187642800Y-56756351D01*
X187642800Y-57783649D01*
X187550448Y-57645435D01*
X187151083Y-57378587D01*
X186680000Y-57284883D01*
X186208917Y-57378587D01*
X185809552Y-57645435D01*
X185542704Y-58044800D01*
X185449000Y-58515883D01*
X185449000Y-58564117D01*
X185542704Y-59035200D01*
X185809552Y-59434565D01*
X186208917Y-59701413D01*
X186222800Y-59704174D01*
X186222800Y-60676062D01*
X186158810Y-60688103D01*
X186029135Y-60771546D01*
X185942141Y-60898866D01*
X185911536Y-61050000D01*
X185911536Y-62350000D01*
X185938103Y-62491190D01*
X185985083Y-62564200D01*
X185414768Y-62564200D01*
X185457859Y-62501134D01*
X185488464Y-62350000D01*
X185488464Y-61050000D01*
X185461897Y-60908810D01*
X185378454Y-60779135D01*
X185251134Y-60692141D01*
X185100000Y-60661536D01*
X184400000Y-60661536D01*
X184258810Y-60688103D01*
X184129135Y-60771546D01*
X184042141Y-60898866D01*
X184011536Y-61050000D01*
X184011536Y-61242800D01*
X183800000Y-61242800D01*
X183625037Y-61277602D01*
X183476711Y-61376711D01*
X183377255Y-61476167D01*
X183156639Y-61475975D01*
X182890479Y-61585950D01*
X182686665Y-61789408D01*
X182576226Y-62055376D01*
X182575975Y-62343361D01*
X182667224Y-62564200D01*
X181305668Y-62564200D01*
X182084934Y-61784934D01*
X182233596Y-61562445D01*
X182233597Y-61562444D01*
X182285800Y-61300000D01*
X182285800Y-59557943D01*
X182470448Y-59434565D01*
X182737296Y-59035200D01*
X182772745Y-58856982D01*
X182950499Y-58856982D01*
X183162348Y-59288056D01*
X183523036Y-59605245D01*
X183823020Y-59729489D01*
X184013000Y-59668627D01*
X184013000Y-58667000D01*
X184267000Y-58667000D01*
X184267000Y-59668627D01*
X184456980Y-59729489D01*
X184756964Y-59605245D01*
X185117652Y-59288056D01*
X185329501Y-58856982D01*
X185269193Y-58667000D01*
X184267000Y-58667000D01*
X184013000Y-58667000D01*
X183010807Y-58667000D01*
X182950499Y-58856982D01*
X182772745Y-58856982D01*
X182831000Y-58564117D01*
X182831000Y-58515883D01*
X182772746Y-58223018D01*
X182950499Y-58223018D01*
X183010807Y-58413000D01*
X184013000Y-58413000D01*
X184013000Y-57411373D01*
X184267000Y-57411373D01*
X184267000Y-58413000D01*
X185269193Y-58413000D01*
X185329501Y-58223018D01*
X185117652Y-57791944D01*
X184756964Y-57474755D01*
X184456980Y-57350511D01*
X184267000Y-57411373D01*
X184013000Y-57411373D01*
X183823020Y-57350511D01*
X183523036Y-57474755D01*
X183162348Y-57791944D01*
X182950499Y-58223018D01*
X182772746Y-58223018D01*
X182737296Y-58044800D01*
X182470448Y-57645435D01*
X182285800Y-57522057D01*
X182285800Y-52600000D01*
X182233597Y-52337556D01*
X182233597Y-52337555D01*
X182084934Y-52115066D01*
X180834934Y-50865066D01*
X180726953Y-50792915D01*
X180834068Y-50685800D01*
X187565932Y-50685800D01*
X188161536Y-51281404D01*
X188161536Y-51700000D01*
X188188103Y-51841190D01*
X188271546Y-51970865D01*
X188398866Y-52057859D01*
X188550000Y-52088464D01*
X189850000Y-52088464D01*
X189991190Y-52061897D01*
X190031746Y-52035800D01*
X190966582Y-52035800D01*
X190998866Y-52057859D01*
X191150000Y-52088464D01*
X192450000Y-52088464D01*
X192591190Y-52061897D01*
X192720865Y-51978454D01*
X192807859Y-51851134D01*
X192838464Y-51700000D01*
X192838464Y-51000000D01*
X192811897Y-50858810D01*
X192728454Y-50729135D01*
X192601134Y-50642141D01*
X192450000Y-50611536D01*
X191150000Y-50611536D01*
X191008810Y-50638103D01*
X190968254Y-50664200D01*
X190033418Y-50664200D01*
X190001134Y-50642141D01*
X189850000Y-50611536D01*
X189431404Y-50611536D01*
X188334934Y-49515066D01*
X188112445Y-49366403D01*
X187850000Y-49314200D01*
X180550000Y-49314200D01*
X180287556Y-49366403D01*
X180287554Y-49366404D01*
X180287555Y-49366404D01*
X180065066Y-49515066D01*
X178968596Y-50611536D01*
X178550000Y-50611536D01*
X178408810Y-50638103D01*
X178279135Y-50721546D01*
X178192141Y-50848866D01*
X178161536Y-51000000D01*
X178161536Y-51700000D01*
X178188103Y-51841190D01*
X178271546Y-51970865D01*
X178398866Y-52057859D01*
X178550000Y-52088464D01*
X179850000Y-52088464D01*
X179991190Y-52061897D01*
X180031746Y-52035800D01*
X180065932Y-52035800D01*
X180914200Y-52884068D01*
X180914200Y-57522057D01*
X180729552Y-57645435D01*
X180462704Y-58044800D01*
X180369000Y-58515883D01*
X180369000Y-58564117D01*
X180462704Y-59035200D01*
X180729552Y-59434565D01*
X180914200Y-59557943D01*
X180914200Y-61015932D01*
X180115187Y-61814945D01*
X180138464Y-61700000D01*
X180138464Y-61000000D01*
X180111897Y-60858810D01*
X180028454Y-60729135D01*
X179901134Y-60642141D01*
X179750000Y-60611536D01*
X179633400Y-60611536D01*
X179633400Y-59633047D01*
X179930448Y-59434565D01*
X180197296Y-59035200D01*
X180291000Y-58564117D01*
X180291000Y-58515883D01*
X180197296Y-58044800D01*
X179930448Y-57645435D01*
X179531083Y-57378587D01*
X179060000Y-57284883D01*
X178588917Y-57378587D01*
X178189552Y-57645435D01*
X177922704Y-58044800D01*
X177829000Y-58515883D01*
X177751000Y-58515883D01*
X177657296Y-58044800D01*
X177390448Y-57645435D01*
X176991083Y-57378587D01*
X176520000Y-57284883D01*
X176048917Y-57378587D01*
X175649552Y-57645435D01*
X175382704Y-58044800D01*
X175289000Y-58515883D01*
X175211000Y-58515883D01*
X175117296Y-58044800D01*
X174850448Y-57645435D01*
X174451083Y-57378587D01*
X173980000Y-57284883D01*
X173508917Y-57378587D01*
X173109552Y-57645435D01*
X172842704Y-58044800D01*
X172749000Y-58515883D01*
X163656000Y-58515883D01*
X163656000Y-56316982D01*
X170250499Y-56316982D01*
X170462348Y-56748056D01*
X170823036Y-57065245D01*
X171123020Y-57189489D01*
X171313000Y-57128627D01*
X171313000Y-56127000D01*
X171567000Y-56127000D01*
X171567000Y-57128627D01*
X171756980Y-57189489D01*
X172056964Y-57065245D01*
X172417652Y-56748056D01*
X172629501Y-56316982D01*
X172569193Y-56127000D01*
X171567000Y-56127000D01*
X171313000Y-56127000D01*
X170310807Y-56127000D01*
X170250499Y-56316982D01*
X163656000Y-56316982D01*
X163656000Y-55975883D01*
X172749000Y-55975883D01*
X172749000Y-56024117D01*
X172842704Y-56495200D01*
X173109552Y-56894565D01*
X173508917Y-57161413D01*
X173980000Y-57255117D01*
X174451083Y-57161413D01*
X174850448Y-56894565D01*
X175117296Y-56495200D01*
X175211000Y-56024117D01*
X175211000Y-55975883D01*
X175289000Y-55975883D01*
X175289000Y-56024117D01*
X175382704Y-56495200D01*
X175649552Y-56894565D01*
X176048917Y-57161413D01*
X176520000Y-57255117D01*
X176991083Y-57161413D01*
X177390448Y-56894565D01*
X177657296Y-56495200D01*
X177751000Y-56024117D01*
X177751000Y-55975883D01*
X177829000Y-55975883D01*
X177829000Y-56024117D01*
X177922704Y-56495200D01*
X178189552Y-56894565D01*
X178588917Y-57161413D01*
X179060000Y-57255117D01*
X179531083Y-57161413D01*
X179930448Y-56894565D01*
X180197296Y-56495200D01*
X180291000Y-56024117D01*
X180291000Y-55975883D01*
X180197296Y-55504800D01*
X179930448Y-55105435D01*
X179593400Y-54880226D01*
X179593400Y-53988464D01*
X179850000Y-53988464D01*
X179991190Y-53961897D01*
X180120865Y-53878454D01*
X180207859Y-53751134D01*
X180238464Y-53600000D01*
X180238464Y-52900000D01*
X180211897Y-52758810D01*
X180128454Y-52629135D01*
X180001134Y-52542141D01*
X179850000Y-52511536D01*
X178550000Y-52511536D01*
X178408810Y-52538103D01*
X178279135Y-52621546D01*
X178192141Y-52748866D01*
X178161536Y-52900000D01*
X178161536Y-53600000D01*
X178188103Y-53741190D01*
X178271546Y-53870865D01*
X178398866Y-53957859D01*
X178526600Y-53983725D01*
X178526600Y-54880226D01*
X178189552Y-55105435D01*
X177922704Y-55504800D01*
X177829000Y-55975883D01*
X177751000Y-55975883D01*
X177657296Y-55504800D01*
X177390448Y-55105435D01*
X176991083Y-54838587D01*
X176520000Y-54744883D01*
X176048917Y-54838587D01*
X175649552Y-55105435D01*
X175382704Y-55504800D01*
X175289000Y-55975883D01*
X175211000Y-55975883D01*
X175117296Y-55504800D01*
X174850448Y-55105435D01*
X174451083Y-54838587D01*
X173980000Y-54744883D01*
X173508917Y-54838587D01*
X173109552Y-55105435D01*
X172842704Y-55504800D01*
X172749000Y-55975883D01*
X163656000Y-55975883D01*
X163656000Y-55683018D01*
X170250499Y-55683018D01*
X170310807Y-55873000D01*
X171313000Y-55873000D01*
X171313000Y-54871373D01*
X171567000Y-54871373D01*
X171567000Y-55873000D01*
X172569193Y-55873000D01*
X172629501Y-55683018D01*
X172417652Y-55251944D01*
X172056964Y-54934755D01*
X171756980Y-54810511D01*
X171567000Y-54871373D01*
X171313000Y-54871373D01*
X171123020Y-54810511D01*
X170823036Y-54934755D01*
X170462348Y-55251944D01*
X170250499Y-55683018D01*
X163656000Y-55683018D01*
X163656000Y-52592316D01*
X164818657Y-52592316D01*
X165119611Y-53320680D01*
X165676389Y-53878431D01*
X166404226Y-54180655D01*
X167192316Y-54181343D01*
X167920680Y-53880389D01*
X168478431Y-53323611D01*
X168780655Y-52595774D01*
X168781343Y-51807684D01*
X168480389Y-51079320D01*
X167923611Y-50521569D01*
X167195774Y-50219345D01*
X166407684Y-50218657D01*
X165679320Y-50519611D01*
X165121569Y-51076389D01*
X164819345Y-51804226D01*
X164818657Y-52592316D01*
X163656000Y-52592316D01*
X163656000Y-49256000D01*
X202044000Y-49256000D01*
X202044000Y-124344000D01*
M02*
