G04 #@! TF.FileFunction,Copper,L2,Bot,Signal*
%FSLAX46Y46*%
G04 Gerber Fmt 4.6, Leading zero omitted, Abs format (unit mm)*
G04 Created by KiCad (PCBNEW 4.0.0-rc1-stable) date 08/08/2017 21:18:02*
%MOMM*%
G01*
G04 APERTURE LIST*
%ADD10C,0.076200*%
%ADD11C,0.685800*%
%ADD12R,1.700000X1.700000*%
%ADD13O,1.700000X1.700000*%
%ADD14C,0.304800*%
%ADD15C,0.254000*%
G04 APERTURE END LIST*
D10*
D11*
X215300000Y-48500000D03*
X215300000Y-50000000D03*
X161960000Y-48500000D03*
X161960000Y-50000000D03*
X212760000Y-50000000D03*
X210220000Y-50000000D03*
X207680000Y-50000000D03*
X205140000Y-50000000D03*
X202600000Y-50000000D03*
X200060000Y-50000000D03*
X197520000Y-50000000D03*
X194980000Y-50000000D03*
X192440000Y-50000000D03*
X189900000Y-50000000D03*
X187360000Y-50000000D03*
X184820000Y-50000000D03*
X182280000Y-50000000D03*
X179740000Y-50000000D03*
X177200000Y-50000000D03*
X174660000Y-50000000D03*
X172120000Y-50000000D03*
X169580000Y-50000000D03*
X167040000Y-50000000D03*
X164500000Y-50000000D03*
X212760000Y-48500000D03*
X210220000Y-48500000D03*
X207680000Y-48500000D03*
X205140000Y-48500000D03*
X202600000Y-48500000D03*
X200060000Y-48500000D03*
X197520000Y-48500000D03*
X194980000Y-48500000D03*
X192440000Y-48500000D03*
X189900000Y-48500000D03*
X187360000Y-48500000D03*
X184820000Y-48500000D03*
X182280000Y-48500000D03*
X179740000Y-48500000D03*
X177200000Y-48500000D03*
X174660000Y-48500000D03*
X172120000Y-48500000D03*
X169580000Y-48500000D03*
X167040000Y-48500000D03*
X164500000Y-48500000D03*
D12*
X164370000Y-46270000D03*
D13*
X164370000Y-43730000D03*
X166910000Y-46270000D03*
X166910000Y-43730000D03*
X169450000Y-46270000D03*
X169450000Y-43730000D03*
X171990000Y-46270000D03*
X171990000Y-43730000D03*
X174530000Y-46270000D03*
X174530000Y-43730000D03*
X177070000Y-46270000D03*
X177070000Y-43730000D03*
X179610000Y-46270000D03*
X179610000Y-43730000D03*
X182150000Y-46270000D03*
X182150000Y-43730000D03*
X184690000Y-46270000D03*
X184690000Y-43730000D03*
X187230000Y-46270000D03*
X187230000Y-43730000D03*
X189770000Y-46270000D03*
X189770000Y-43730000D03*
X192310000Y-46270000D03*
X192310000Y-43730000D03*
X194850000Y-46270000D03*
X194850000Y-43730000D03*
X197390000Y-46270000D03*
X197390000Y-43730000D03*
X199930000Y-46270000D03*
X199930000Y-43730000D03*
X202470000Y-46270000D03*
X202470000Y-43730000D03*
X205010000Y-46270000D03*
X205010000Y-43730000D03*
X207550000Y-46270000D03*
X207550000Y-43730000D03*
X210090000Y-46270000D03*
X210090000Y-43730000D03*
X212630000Y-46270000D03*
X212630000Y-43730000D03*
D12*
X186000000Y-61500000D03*
D13*
X186000000Y-58960000D03*
X188540000Y-61500000D03*
X188540000Y-58960000D03*
X191080000Y-61500000D03*
X191080000Y-58960000D03*
D12*
X164500000Y-52000000D03*
D13*
X164500000Y-54540000D03*
X167040000Y-52000000D03*
X167040000Y-54540000D03*
X169580000Y-52000000D03*
X169580000Y-54540000D03*
X172120000Y-52000000D03*
X172120000Y-54540000D03*
X174660000Y-52000000D03*
X174660000Y-54540000D03*
X177200000Y-52000000D03*
X177200000Y-54540000D03*
X179740000Y-52000000D03*
X179740000Y-54540000D03*
X182280000Y-52000000D03*
X182280000Y-54540000D03*
X184820000Y-52000000D03*
X184820000Y-54540000D03*
X187360000Y-52000000D03*
X187360000Y-54540000D03*
X189900000Y-52000000D03*
X189900000Y-54540000D03*
X192440000Y-52000000D03*
X192440000Y-54540000D03*
X194980000Y-52000000D03*
X194980000Y-54540000D03*
X197520000Y-52000000D03*
X197520000Y-54540000D03*
X200060000Y-52000000D03*
X200060000Y-54540000D03*
X202600000Y-52000000D03*
X202600000Y-54540000D03*
X205140000Y-52000000D03*
X205140000Y-54540000D03*
X207680000Y-52000000D03*
X207680000Y-54540000D03*
X210220000Y-52000000D03*
X210220000Y-54540000D03*
X212760000Y-52000000D03*
X212760000Y-54540000D03*
D14*
X164370000Y-43730000D02*
X166910000Y-43730000D01*
X164370000Y-43730000D02*
X165735000Y-45095000D01*
X165735000Y-50765000D02*
X164500000Y-52000000D01*
X165735000Y-45095000D02*
X165735000Y-50765000D01*
X166910000Y-43730000D02*
X168148000Y-44968000D01*
X168148000Y-44968000D02*
X168148000Y-50892000D01*
X168148000Y-50892000D02*
X167040000Y-52000000D01*
X192310000Y-43730000D02*
X193548000Y-44968000D01*
X193548000Y-50892000D02*
X192440000Y-52000000D01*
X193548000Y-44968000D02*
X193548000Y-50892000D01*
X171990000Y-43730000D02*
X173355000Y-45095000D01*
X173355000Y-50765000D02*
X172120000Y-52000000D01*
X173355000Y-45095000D02*
X173355000Y-50765000D01*
X174530000Y-43730000D02*
X175768000Y-44968000D01*
X175768000Y-50892000D02*
X174660000Y-52000000D01*
X175768000Y-44968000D02*
X175768000Y-50892000D01*
X202470000Y-43730000D02*
X203708000Y-44968000D01*
X203708000Y-50892000D02*
X202600000Y-52000000D01*
X203708000Y-44968000D02*
X203708000Y-50892000D01*
X207550000Y-43730000D02*
X208788000Y-44968000D01*
X208788000Y-50892000D02*
X207680000Y-52000000D01*
X208788000Y-44968000D02*
X208788000Y-50892000D01*
X177070000Y-43730000D02*
X178435000Y-45095000D01*
X178435000Y-50765000D02*
X177200000Y-52000000D01*
X178435000Y-45095000D02*
X178435000Y-50765000D01*
X182150000Y-43730000D02*
X183388000Y-44968000D01*
X183388000Y-50892000D02*
X182280000Y-52000000D01*
X183388000Y-44968000D02*
X183388000Y-50892000D01*
X184690000Y-43730000D02*
X185928000Y-44968000D01*
X185928000Y-50892000D02*
X184820000Y-52000000D01*
X185928000Y-44968000D02*
X185928000Y-50892000D01*
X189770000Y-43730000D02*
X191008000Y-44968000D01*
X191008000Y-50892000D02*
X189900000Y-52000000D01*
X191008000Y-44968000D02*
X191008000Y-50892000D01*
X194850000Y-43730000D02*
X196088000Y-44968000D01*
X196088000Y-50892000D02*
X194980000Y-52000000D01*
X196088000Y-50292000D02*
X196088000Y-50892000D01*
X196088000Y-44968000D02*
X196088000Y-50292000D01*
X210090000Y-43730000D02*
X211328000Y-44968000D01*
X211328000Y-50892000D02*
X210220000Y-52000000D01*
X211328000Y-44968000D02*
X211328000Y-50892000D01*
X212630000Y-43730000D02*
X213868000Y-44968000D01*
X213868000Y-50892000D02*
X212760000Y-52000000D01*
X213868000Y-44968000D02*
X213868000Y-50892000D01*
D15*
G36*
X220696400Y-63696400D02*
X156303600Y-63696400D01*
X156303600Y-60650000D01*
X184865127Y-60650000D01*
X184865127Y-62350000D01*
X184884609Y-62453539D01*
X184945801Y-62548634D01*
X185039168Y-62612429D01*
X185150000Y-62634873D01*
X186850000Y-62634873D01*
X186953539Y-62615391D01*
X187048634Y-62554199D01*
X187112429Y-62460832D01*
X187134873Y-62350000D01*
X187134873Y-61477874D01*
X187410600Y-61477874D01*
X187410600Y-61522126D01*
X187496570Y-61954329D01*
X187741394Y-62320732D01*
X188107797Y-62565556D01*
X188540000Y-62651526D01*
X188972203Y-62565556D01*
X189338606Y-62320732D01*
X189583430Y-61954329D01*
X189615521Y-61792995D01*
X190041944Y-61792995D01*
X190233086Y-62167939D01*
X190553163Y-62441195D01*
X190787007Y-62538043D01*
X190953000Y-62513524D01*
X190953000Y-61627000D01*
X191207000Y-61627000D01*
X191207000Y-62513524D01*
X191372993Y-62538043D01*
X191606837Y-62441195D01*
X191926914Y-62167939D01*
X192118056Y-61792995D01*
X192093960Y-61627000D01*
X191207000Y-61627000D01*
X190953000Y-61627000D01*
X190066040Y-61627000D01*
X190041944Y-61792995D01*
X189615521Y-61792995D01*
X189669400Y-61522126D01*
X189669400Y-61477874D01*
X189615522Y-61207005D01*
X190041944Y-61207005D01*
X190066040Y-61373000D01*
X190953000Y-61373000D01*
X190953000Y-60486476D01*
X191207000Y-60486476D01*
X191207000Y-61373000D01*
X192093960Y-61373000D01*
X192118056Y-61207005D01*
X191926914Y-60832061D01*
X191606837Y-60558805D01*
X191372993Y-60461957D01*
X191207000Y-60486476D01*
X190953000Y-60486476D01*
X190787007Y-60461957D01*
X190553163Y-60558805D01*
X190233086Y-60832061D01*
X190041944Y-61207005D01*
X189615522Y-61207005D01*
X189583430Y-61045671D01*
X189338606Y-60679268D01*
X188972203Y-60434444D01*
X188540000Y-60348474D01*
X188107797Y-60434444D01*
X187741394Y-60679268D01*
X187496570Y-61045671D01*
X187410600Y-61477874D01*
X187134873Y-61477874D01*
X187134873Y-60650000D01*
X187115391Y-60546461D01*
X187054199Y-60451366D01*
X186960832Y-60387571D01*
X186850000Y-60365127D01*
X185150000Y-60365127D01*
X185046461Y-60384609D01*
X184951366Y-60445801D01*
X184887571Y-60539168D01*
X184865127Y-60650000D01*
X156303600Y-60650000D01*
X156303600Y-58937874D01*
X184870600Y-58937874D01*
X184870600Y-58982126D01*
X184956570Y-59414329D01*
X185201394Y-59780732D01*
X185567797Y-60025556D01*
X186000000Y-60111526D01*
X186432203Y-60025556D01*
X186798606Y-59780732D01*
X187043430Y-59414329D01*
X187129400Y-58982126D01*
X187129400Y-58937874D01*
X187410600Y-58937874D01*
X187410600Y-58982126D01*
X187496570Y-59414329D01*
X187741394Y-59780732D01*
X188107797Y-60025556D01*
X188540000Y-60111526D01*
X188972203Y-60025556D01*
X189338606Y-59780732D01*
X189583430Y-59414329D01*
X189669400Y-58982126D01*
X189669400Y-58937874D01*
X189950600Y-58937874D01*
X189950600Y-58982126D01*
X190036570Y-59414329D01*
X190281394Y-59780732D01*
X190647797Y-60025556D01*
X191080000Y-60111526D01*
X191512203Y-60025556D01*
X191878606Y-59780732D01*
X192123430Y-59414329D01*
X192209400Y-58982126D01*
X192209400Y-58937874D01*
X192123430Y-58505671D01*
X191878606Y-58139268D01*
X191512203Y-57894444D01*
X191080000Y-57808474D01*
X190647797Y-57894444D01*
X190281394Y-58139268D01*
X190036570Y-58505671D01*
X189950600Y-58937874D01*
X189669400Y-58937874D01*
X189583430Y-58505671D01*
X189338606Y-58139268D01*
X188972203Y-57894444D01*
X188540000Y-57808474D01*
X188107797Y-57894444D01*
X187741394Y-58139268D01*
X187496570Y-58505671D01*
X187410600Y-58937874D01*
X187129400Y-58937874D01*
X187043430Y-58505671D01*
X186798606Y-58139268D01*
X186432203Y-57894444D01*
X186000000Y-57808474D01*
X185567797Y-57894444D01*
X185201394Y-58139268D01*
X184956570Y-58505671D01*
X184870600Y-58937874D01*
X156303600Y-58937874D01*
X156303600Y-54517874D01*
X163370600Y-54517874D01*
X163370600Y-54562126D01*
X163456570Y-54994329D01*
X163701394Y-55360732D01*
X164067797Y-55605556D01*
X164500000Y-55691526D01*
X164932203Y-55605556D01*
X165298606Y-55360732D01*
X165543430Y-54994329D01*
X165629400Y-54562126D01*
X165629400Y-54517874D01*
X165910600Y-54517874D01*
X165910600Y-54562126D01*
X165996570Y-54994329D01*
X166241394Y-55360732D01*
X166607797Y-55605556D01*
X167040000Y-55691526D01*
X167472203Y-55605556D01*
X167838606Y-55360732D01*
X168083430Y-54994329D01*
X168169400Y-54562126D01*
X168169400Y-54517874D01*
X168450600Y-54517874D01*
X168450600Y-54562126D01*
X168536570Y-54994329D01*
X168781394Y-55360732D01*
X169147797Y-55605556D01*
X169580000Y-55691526D01*
X170012203Y-55605556D01*
X170378606Y-55360732D01*
X170623430Y-54994329D01*
X170709400Y-54562126D01*
X170709400Y-54517874D01*
X170990600Y-54517874D01*
X170990600Y-54562126D01*
X171076570Y-54994329D01*
X171321394Y-55360732D01*
X171687797Y-55605556D01*
X172120000Y-55691526D01*
X172552203Y-55605556D01*
X172918606Y-55360732D01*
X173163430Y-54994329D01*
X173195521Y-54832995D01*
X173621944Y-54832995D01*
X173813086Y-55207939D01*
X174133163Y-55481195D01*
X174367007Y-55578043D01*
X174533000Y-55553524D01*
X174533000Y-54667000D01*
X174787000Y-54667000D01*
X174787000Y-55553524D01*
X174952993Y-55578043D01*
X175186837Y-55481195D01*
X175506914Y-55207939D01*
X175698056Y-54832995D01*
X175673960Y-54667000D01*
X174787000Y-54667000D01*
X174533000Y-54667000D01*
X173646040Y-54667000D01*
X173621944Y-54832995D01*
X173195521Y-54832995D01*
X173249400Y-54562126D01*
X173249400Y-54517874D01*
X176070600Y-54517874D01*
X176070600Y-54562126D01*
X176156570Y-54994329D01*
X176401394Y-55360732D01*
X176767797Y-55605556D01*
X177200000Y-55691526D01*
X177632203Y-55605556D01*
X177998606Y-55360732D01*
X178243430Y-54994329D01*
X178329400Y-54562126D01*
X178329400Y-54517874D01*
X178610600Y-54517874D01*
X178610600Y-54562126D01*
X178696570Y-54994329D01*
X178941394Y-55360732D01*
X179307797Y-55605556D01*
X179740000Y-55691526D01*
X180172203Y-55605556D01*
X180538606Y-55360732D01*
X180783430Y-54994329D01*
X180869400Y-54562126D01*
X180869400Y-54517874D01*
X181150600Y-54517874D01*
X181150600Y-54562126D01*
X181236570Y-54994329D01*
X181481394Y-55360732D01*
X181847797Y-55605556D01*
X182280000Y-55691526D01*
X182712203Y-55605556D01*
X183078606Y-55360732D01*
X183323430Y-54994329D01*
X183409400Y-54562126D01*
X183409400Y-54517874D01*
X183690600Y-54517874D01*
X183690600Y-54562126D01*
X183776570Y-54994329D01*
X184021394Y-55360732D01*
X184387797Y-55605556D01*
X184820000Y-55691526D01*
X185252203Y-55605556D01*
X185618606Y-55360732D01*
X185863430Y-54994329D01*
X185949400Y-54562126D01*
X185949400Y-54517874D01*
X186230600Y-54517874D01*
X186230600Y-54562126D01*
X186316570Y-54994329D01*
X186561394Y-55360732D01*
X186927797Y-55605556D01*
X187360000Y-55691526D01*
X187792203Y-55605556D01*
X188158606Y-55360732D01*
X188403430Y-54994329D01*
X188489400Y-54562126D01*
X188489400Y-54517874D01*
X188770600Y-54517874D01*
X188770600Y-54562126D01*
X188856570Y-54994329D01*
X189101394Y-55360732D01*
X189467797Y-55605556D01*
X189900000Y-55691526D01*
X190332203Y-55605556D01*
X190698606Y-55360732D01*
X190943430Y-54994329D01*
X191029400Y-54562126D01*
X191029400Y-54517874D01*
X191310600Y-54517874D01*
X191310600Y-54562126D01*
X191396570Y-54994329D01*
X191641394Y-55360732D01*
X192007797Y-55605556D01*
X192440000Y-55691526D01*
X192872203Y-55605556D01*
X193238606Y-55360732D01*
X193483430Y-54994329D01*
X193515521Y-54832995D01*
X193941944Y-54832995D01*
X194133086Y-55207939D01*
X194453163Y-55481195D01*
X194687007Y-55578043D01*
X194853000Y-55553524D01*
X194853000Y-54667000D01*
X195107000Y-54667000D01*
X195107000Y-55553524D01*
X195272993Y-55578043D01*
X195506837Y-55481195D01*
X195826914Y-55207939D01*
X196018056Y-54832995D01*
X195993960Y-54667000D01*
X195107000Y-54667000D01*
X194853000Y-54667000D01*
X193966040Y-54667000D01*
X193941944Y-54832995D01*
X193515521Y-54832995D01*
X193569400Y-54562126D01*
X193569400Y-54517874D01*
X196390600Y-54517874D01*
X196390600Y-54562126D01*
X196476570Y-54994329D01*
X196721394Y-55360732D01*
X197087797Y-55605556D01*
X197520000Y-55691526D01*
X197952203Y-55605556D01*
X198318606Y-55360732D01*
X198563430Y-54994329D01*
X198649400Y-54562126D01*
X198649400Y-54517874D01*
X198930600Y-54517874D01*
X198930600Y-54562126D01*
X199016570Y-54994329D01*
X199261394Y-55360732D01*
X199627797Y-55605556D01*
X200060000Y-55691526D01*
X200492203Y-55605556D01*
X200858606Y-55360732D01*
X201103430Y-54994329D01*
X201189400Y-54562126D01*
X201189400Y-54517874D01*
X201470600Y-54517874D01*
X201470600Y-54562126D01*
X201556570Y-54994329D01*
X201801394Y-55360732D01*
X202167797Y-55605556D01*
X202600000Y-55691526D01*
X203032203Y-55605556D01*
X203398606Y-55360732D01*
X203643430Y-54994329D01*
X203729400Y-54562126D01*
X203729400Y-54517874D01*
X204010600Y-54517874D01*
X204010600Y-54562126D01*
X204096570Y-54994329D01*
X204341394Y-55360732D01*
X204707797Y-55605556D01*
X205140000Y-55691526D01*
X205572203Y-55605556D01*
X205938606Y-55360732D01*
X206183430Y-54994329D01*
X206269400Y-54562126D01*
X206269400Y-54517874D01*
X206550600Y-54517874D01*
X206550600Y-54562126D01*
X206636570Y-54994329D01*
X206881394Y-55360732D01*
X207247797Y-55605556D01*
X207680000Y-55691526D01*
X208112203Y-55605556D01*
X208478606Y-55360732D01*
X208723430Y-54994329D01*
X208809400Y-54562126D01*
X208809400Y-54517874D01*
X209090600Y-54517874D01*
X209090600Y-54562126D01*
X209176570Y-54994329D01*
X209421394Y-55360732D01*
X209787797Y-55605556D01*
X210220000Y-55691526D01*
X210652203Y-55605556D01*
X211018606Y-55360732D01*
X211263430Y-54994329D01*
X211295521Y-54832995D01*
X211721944Y-54832995D01*
X211913086Y-55207939D01*
X212233163Y-55481195D01*
X212467007Y-55578043D01*
X212633000Y-55553524D01*
X212633000Y-54667000D01*
X212887000Y-54667000D01*
X212887000Y-55553524D01*
X213052993Y-55578043D01*
X213286837Y-55481195D01*
X213606914Y-55207939D01*
X213798056Y-54832995D01*
X213773960Y-54667000D01*
X212887000Y-54667000D01*
X212633000Y-54667000D01*
X211746040Y-54667000D01*
X211721944Y-54832995D01*
X211295521Y-54832995D01*
X211349400Y-54562126D01*
X211349400Y-54517874D01*
X211295522Y-54247005D01*
X211721944Y-54247005D01*
X211746040Y-54413000D01*
X212633000Y-54413000D01*
X212633000Y-53526476D01*
X212887000Y-53526476D01*
X212887000Y-54413000D01*
X213773960Y-54413000D01*
X213798056Y-54247005D01*
X213606914Y-53872061D01*
X213286837Y-53598805D01*
X213052993Y-53501957D01*
X212887000Y-53526476D01*
X212633000Y-53526476D01*
X212467007Y-53501957D01*
X212233163Y-53598805D01*
X211913086Y-53872061D01*
X211721944Y-54247005D01*
X211295522Y-54247005D01*
X211263430Y-54085671D01*
X211018606Y-53719268D01*
X210652203Y-53474444D01*
X210220000Y-53388474D01*
X209787797Y-53474444D01*
X209421394Y-53719268D01*
X209176570Y-54085671D01*
X209090600Y-54517874D01*
X208809400Y-54517874D01*
X208723430Y-54085671D01*
X208478606Y-53719268D01*
X208112203Y-53474444D01*
X207680000Y-53388474D01*
X207247797Y-53474444D01*
X206881394Y-53719268D01*
X206636570Y-54085671D01*
X206550600Y-54517874D01*
X206269400Y-54517874D01*
X206183430Y-54085671D01*
X205938606Y-53719268D01*
X205572203Y-53474444D01*
X205140000Y-53388474D01*
X204707797Y-53474444D01*
X204341394Y-53719268D01*
X204096570Y-54085671D01*
X204010600Y-54517874D01*
X203729400Y-54517874D01*
X203643430Y-54085671D01*
X203398606Y-53719268D01*
X203032203Y-53474444D01*
X202600000Y-53388474D01*
X202167797Y-53474444D01*
X201801394Y-53719268D01*
X201556570Y-54085671D01*
X201470600Y-54517874D01*
X201189400Y-54517874D01*
X201103430Y-54085671D01*
X200858606Y-53719268D01*
X200492203Y-53474444D01*
X200060000Y-53388474D01*
X199627797Y-53474444D01*
X199261394Y-53719268D01*
X199016570Y-54085671D01*
X198930600Y-54517874D01*
X198649400Y-54517874D01*
X198563430Y-54085671D01*
X198318606Y-53719268D01*
X197952203Y-53474444D01*
X197520000Y-53388474D01*
X197087797Y-53474444D01*
X196721394Y-53719268D01*
X196476570Y-54085671D01*
X196390600Y-54517874D01*
X193569400Y-54517874D01*
X193515522Y-54247005D01*
X193941944Y-54247005D01*
X193966040Y-54413000D01*
X194853000Y-54413000D01*
X194853000Y-53526476D01*
X195107000Y-53526476D01*
X195107000Y-54413000D01*
X195993960Y-54413000D01*
X196018056Y-54247005D01*
X195826914Y-53872061D01*
X195506837Y-53598805D01*
X195272993Y-53501957D01*
X195107000Y-53526476D01*
X194853000Y-53526476D01*
X194687007Y-53501957D01*
X194453163Y-53598805D01*
X194133086Y-53872061D01*
X193941944Y-54247005D01*
X193515522Y-54247005D01*
X193483430Y-54085671D01*
X193238606Y-53719268D01*
X192872203Y-53474444D01*
X192440000Y-53388474D01*
X192007797Y-53474444D01*
X191641394Y-53719268D01*
X191396570Y-54085671D01*
X191310600Y-54517874D01*
X191029400Y-54517874D01*
X190943430Y-54085671D01*
X190698606Y-53719268D01*
X190332203Y-53474444D01*
X189900000Y-53388474D01*
X189467797Y-53474444D01*
X189101394Y-53719268D01*
X188856570Y-54085671D01*
X188770600Y-54517874D01*
X188489400Y-54517874D01*
X188403430Y-54085671D01*
X188158606Y-53719268D01*
X187792203Y-53474444D01*
X187360000Y-53388474D01*
X186927797Y-53474444D01*
X186561394Y-53719268D01*
X186316570Y-54085671D01*
X186230600Y-54517874D01*
X185949400Y-54517874D01*
X185863430Y-54085671D01*
X185618606Y-53719268D01*
X185252203Y-53474444D01*
X184820000Y-53388474D01*
X184387797Y-53474444D01*
X184021394Y-53719268D01*
X183776570Y-54085671D01*
X183690600Y-54517874D01*
X183409400Y-54517874D01*
X183323430Y-54085671D01*
X183078606Y-53719268D01*
X182712203Y-53474444D01*
X182280000Y-53388474D01*
X181847797Y-53474444D01*
X181481394Y-53719268D01*
X181236570Y-54085671D01*
X181150600Y-54517874D01*
X180869400Y-54517874D01*
X180783430Y-54085671D01*
X180538606Y-53719268D01*
X180172203Y-53474444D01*
X179740000Y-53388474D01*
X179307797Y-53474444D01*
X178941394Y-53719268D01*
X178696570Y-54085671D01*
X178610600Y-54517874D01*
X178329400Y-54517874D01*
X178243430Y-54085671D01*
X177998606Y-53719268D01*
X177632203Y-53474444D01*
X177200000Y-53388474D01*
X176767797Y-53474444D01*
X176401394Y-53719268D01*
X176156570Y-54085671D01*
X176070600Y-54517874D01*
X173249400Y-54517874D01*
X173195522Y-54247005D01*
X173621944Y-54247005D01*
X173646040Y-54413000D01*
X174533000Y-54413000D01*
X174533000Y-53526476D01*
X174787000Y-53526476D01*
X174787000Y-54413000D01*
X175673960Y-54413000D01*
X175698056Y-54247005D01*
X175506914Y-53872061D01*
X175186837Y-53598805D01*
X174952993Y-53501957D01*
X174787000Y-53526476D01*
X174533000Y-53526476D01*
X174367007Y-53501957D01*
X174133163Y-53598805D01*
X173813086Y-53872061D01*
X173621944Y-54247005D01*
X173195522Y-54247005D01*
X173163430Y-54085671D01*
X172918606Y-53719268D01*
X172552203Y-53474444D01*
X172120000Y-53388474D01*
X171687797Y-53474444D01*
X171321394Y-53719268D01*
X171076570Y-54085671D01*
X170990600Y-54517874D01*
X170709400Y-54517874D01*
X170623430Y-54085671D01*
X170378606Y-53719268D01*
X170012203Y-53474444D01*
X169580000Y-53388474D01*
X169147797Y-53474444D01*
X168781394Y-53719268D01*
X168536570Y-54085671D01*
X168450600Y-54517874D01*
X168169400Y-54517874D01*
X168083430Y-54085671D01*
X167838606Y-53719268D01*
X167472203Y-53474444D01*
X167040000Y-53388474D01*
X166607797Y-53474444D01*
X166241394Y-53719268D01*
X165996570Y-54085671D01*
X165910600Y-54517874D01*
X165629400Y-54517874D01*
X165543430Y-54085671D01*
X165298606Y-53719268D01*
X164932203Y-53474444D01*
X164500000Y-53388474D01*
X164067797Y-53474444D01*
X163701394Y-53719268D01*
X163456570Y-54085671D01*
X163370600Y-54517874D01*
X156303600Y-54517874D01*
X156303600Y-45822686D01*
X157870318Y-45822686D01*
X158117856Y-46421775D01*
X158575814Y-46880533D01*
X159174470Y-47129117D01*
X159822686Y-47129682D01*
X160421775Y-46882144D01*
X160880533Y-46424186D01*
X161129117Y-45825530D01*
X161129470Y-45420000D01*
X163235127Y-45420000D01*
X163235127Y-47120000D01*
X163254609Y-47223539D01*
X163315801Y-47318634D01*
X163409168Y-47382429D01*
X163520000Y-47404873D01*
X165220000Y-47404873D01*
X165303200Y-47389218D01*
X165303200Y-50586142D01*
X165024215Y-50865127D01*
X163650000Y-50865127D01*
X163546461Y-50884609D01*
X163451366Y-50945801D01*
X163387571Y-51039168D01*
X163365127Y-51150000D01*
X163365127Y-52850000D01*
X163384609Y-52953539D01*
X163445801Y-53048634D01*
X163539168Y-53112429D01*
X163650000Y-53134873D01*
X165350000Y-53134873D01*
X165453539Y-53115391D01*
X165548634Y-53054199D01*
X165612429Y-52960832D01*
X165634873Y-52850000D01*
X165634873Y-51475785D01*
X166040329Y-51070329D01*
X166061150Y-51039168D01*
X166133931Y-50930243D01*
X166143008Y-50884609D01*
X166166801Y-50765000D01*
X166166800Y-50764995D01*
X166166800Y-47127753D01*
X166477797Y-47335556D01*
X166910000Y-47421526D01*
X167342203Y-47335556D01*
X167708606Y-47090732D01*
X167716200Y-47079367D01*
X167716200Y-50713143D01*
X167485808Y-50943535D01*
X167472203Y-50934444D01*
X167040000Y-50848474D01*
X166607797Y-50934444D01*
X166241394Y-51179268D01*
X165996570Y-51545671D01*
X165910600Y-51977874D01*
X165910600Y-52022126D01*
X165996570Y-52454329D01*
X166241394Y-52820732D01*
X166607797Y-53065556D01*
X167040000Y-53151526D01*
X167472203Y-53065556D01*
X167838606Y-52820732D01*
X168083430Y-52454329D01*
X168115521Y-52292995D01*
X168541944Y-52292995D01*
X168733086Y-52667939D01*
X169053163Y-52941195D01*
X169287007Y-53038043D01*
X169453000Y-53013524D01*
X169453000Y-52127000D01*
X169707000Y-52127000D01*
X169707000Y-53013524D01*
X169872993Y-53038043D01*
X170106837Y-52941195D01*
X170426914Y-52667939D01*
X170618056Y-52292995D01*
X170593960Y-52127000D01*
X169707000Y-52127000D01*
X169453000Y-52127000D01*
X168566040Y-52127000D01*
X168541944Y-52292995D01*
X168115521Y-52292995D01*
X168169400Y-52022126D01*
X168169400Y-51977874D01*
X168115521Y-51707005D01*
X168541944Y-51707005D01*
X168566040Y-51873000D01*
X169453000Y-51873000D01*
X169453000Y-50986476D01*
X169707000Y-50986476D01*
X169707000Y-51873000D01*
X170593960Y-51873000D01*
X170618056Y-51707005D01*
X170426914Y-51332061D01*
X170106837Y-51058805D01*
X169872993Y-50961957D01*
X169707000Y-50986476D01*
X169453000Y-50986476D01*
X169287007Y-50961957D01*
X169053163Y-51058805D01*
X168733086Y-51332061D01*
X168541944Y-51707005D01*
X168115521Y-51707005D01*
X168087006Y-51563651D01*
X168453326Y-51197331D01*
X168453329Y-51197329D01*
X168538187Y-51070329D01*
X168546932Y-51057242D01*
X168579801Y-50892000D01*
X168579800Y-50891995D01*
X168579800Y-46983585D01*
X168651394Y-47090732D01*
X169017797Y-47335556D01*
X169450000Y-47421526D01*
X169882203Y-47335556D01*
X170248606Y-47090732D01*
X170493430Y-46724329D01*
X170579400Y-46292126D01*
X170579400Y-46247874D01*
X170493430Y-45815671D01*
X170248606Y-45449268D01*
X169882203Y-45204444D01*
X169450000Y-45118474D01*
X169017797Y-45204444D01*
X168651394Y-45449268D01*
X168579800Y-45556415D01*
X168579800Y-44968000D01*
X168546931Y-44802757D01*
X168453329Y-44662671D01*
X168453326Y-44662669D01*
X167957006Y-44166349D01*
X167985520Y-44022995D01*
X168411944Y-44022995D01*
X168603086Y-44397939D01*
X168923163Y-44671195D01*
X169157007Y-44768043D01*
X169323000Y-44743524D01*
X169323000Y-43857000D01*
X169577000Y-43857000D01*
X169577000Y-44743524D01*
X169742993Y-44768043D01*
X169976837Y-44671195D01*
X170296914Y-44397939D01*
X170488056Y-44022995D01*
X170463960Y-43857000D01*
X169577000Y-43857000D01*
X169323000Y-43857000D01*
X168436040Y-43857000D01*
X168411944Y-44022995D01*
X167985520Y-44022995D01*
X168039400Y-43752126D01*
X168039400Y-43707874D01*
X170860600Y-43707874D01*
X170860600Y-43752126D01*
X170946570Y-44184329D01*
X171191394Y-44550732D01*
X171557797Y-44795556D01*
X171990000Y-44881526D01*
X172422203Y-44795556D01*
X172435808Y-44786465D01*
X172923200Y-45273857D01*
X172923200Y-45650701D01*
X172788606Y-45449268D01*
X172422203Y-45204444D01*
X171990000Y-45118474D01*
X171557797Y-45204444D01*
X171191394Y-45449268D01*
X170946570Y-45815671D01*
X170860600Y-46247874D01*
X170860600Y-46292126D01*
X170946570Y-46724329D01*
X171191394Y-47090732D01*
X171557797Y-47335556D01*
X171990000Y-47421526D01*
X172422203Y-47335556D01*
X172788606Y-47090732D01*
X172923200Y-46889299D01*
X172923200Y-50586142D01*
X172565808Y-50943534D01*
X172552203Y-50934444D01*
X172120000Y-50848474D01*
X171687797Y-50934444D01*
X171321394Y-51179268D01*
X171076570Y-51545671D01*
X170990600Y-51977874D01*
X170990600Y-52022126D01*
X171076570Y-52454329D01*
X171321394Y-52820732D01*
X171687797Y-53065556D01*
X172120000Y-53151526D01*
X172552203Y-53065556D01*
X172918606Y-52820732D01*
X173163430Y-52454329D01*
X173249400Y-52022126D01*
X173249400Y-51977874D01*
X173167007Y-51563651D01*
X173660329Y-51070329D01*
X173681150Y-51039168D01*
X173753931Y-50930243D01*
X173763008Y-50884609D01*
X173786801Y-50765000D01*
X173786800Y-50764995D01*
X173786800Y-47026482D01*
X174003163Y-47211195D01*
X174237007Y-47308043D01*
X174403000Y-47283524D01*
X174403000Y-46397000D01*
X174383000Y-46397000D01*
X174383000Y-46143000D01*
X174403000Y-46143000D01*
X174403000Y-45256476D01*
X174237007Y-45231957D01*
X174003163Y-45328805D01*
X173786800Y-45513518D01*
X173786800Y-45095005D01*
X173786801Y-45095000D01*
X173753932Y-44929758D01*
X173721704Y-44881526D01*
X173660329Y-44789671D01*
X173660326Y-44789669D01*
X173037006Y-44166349D01*
X173119400Y-43752126D01*
X173119400Y-43707874D01*
X173400600Y-43707874D01*
X173400600Y-43752126D01*
X173486570Y-44184329D01*
X173731394Y-44550732D01*
X174097797Y-44795556D01*
X174530000Y-44881526D01*
X174962203Y-44795556D01*
X174975808Y-44786465D01*
X175336200Y-45146857D01*
X175336200Y-45567303D01*
X175056837Y-45328805D01*
X174822993Y-45231957D01*
X174657000Y-45256476D01*
X174657000Y-46143000D01*
X174677000Y-46143000D01*
X174677000Y-46397000D01*
X174657000Y-46397000D01*
X174657000Y-47283524D01*
X174822993Y-47308043D01*
X175056837Y-47211195D01*
X175336200Y-46972697D01*
X175336200Y-50713143D01*
X175105808Y-50943535D01*
X175092203Y-50934444D01*
X174660000Y-50848474D01*
X174227797Y-50934444D01*
X173861394Y-51179268D01*
X173616570Y-51545671D01*
X173530600Y-51977874D01*
X173530600Y-52022126D01*
X173616570Y-52454329D01*
X173861394Y-52820732D01*
X174227797Y-53065556D01*
X174660000Y-53151526D01*
X175092203Y-53065556D01*
X175458606Y-52820732D01*
X175703430Y-52454329D01*
X175789400Y-52022126D01*
X175789400Y-51977874D01*
X175707006Y-51563651D01*
X176073326Y-51197331D01*
X176073329Y-51197329D01*
X176158187Y-51070329D01*
X176166932Y-51057242D01*
X176199801Y-50892000D01*
X176199800Y-50891995D01*
X176199800Y-46983585D01*
X176271394Y-47090732D01*
X176637797Y-47335556D01*
X177070000Y-47421526D01*
X177502203Y-47335556D01*
X177868606Y-47090732D01*
X178003200Y-46889299D01*
X178003200Y-50586142D01*
X177645808Y-50943534D01*
X177632203Y-50934444D01*
X177200000Y-50848474D01*
X176767797Y-50934444D01*
X176401394Y-51179268D01*
X176156570Y-51545671D01*
X176070600Y-51977874D01*
X176070600Y-52022126D01*
X176156570Y-52454329D01*
X176401394Y-52820732D01*
X176767797Y-53065556D01*
X177200000Y-53151526D01*
X177632203Y-53065556D01*
X177998606Y-52820732D01*
X178243430Y-52454329D01*
X178275521Y-52292995D01*
X178701944Y-52292995D01*
X178893086Y-52667939D01*
X179213163Y-52941195D01*
X179447007Y-53038043D01*
X179613000Y-53013524D01*
X179613000Y-52127000D01*
X179867000Y-52127000D01*
X179867000Y-53013524D01*
X180032993Y-53038043D01*
X180266837Y-52941195D01*
X180586914Y-52667939D01*
X180778056Y-52292995D01*
X180753960Y-52127000D01*
X179867000Y-52127000D01*
X179613000Y-52127000D01*
X178726040Y-52127000D01*
X178701944Y-52292995D01*
X178275521Y-52292995D01*
X178329400Y-52022126D01*
X178329400Y-51977874D01*
X178275522Y-51707005D01*
X178701944Y-51707005D01*
X178726040Y-51873000D01*
X179613000Y-51873000D01*
X179613000Y-50986476D01*
X179867000Y-50986476D01*
X179867000Y-51873000D01*
X180753960Y-51873000D01*
X180778056Y-51707005D01*
X180586914Y-51332061D01*
X180266837Y-51058805D01*
X180032993Y-50961957D01*
X179867000Y-50986476D01*
X179613000Y-50986476D01*
X179447007Y-50961957D01*
X179213163Y-51058805D01*
X178893086Y-51332061D01*
X178701944Y-51707005D01*
X178275522Y-51707005D01*
X178247007Y-51563651D01*
X178740329Y-51070329D01*
X178761150Y-51039168D01*
X178833931Y-50930243D01*
X178843008Y-50884609D01*
X178866801Y-50765000D01*
X178866800Y-50764995D01*
X178866800Y-47127753D01*
X179177797Y-47335556D01*
X179610000Y-47421526D01*
X180042203Y-47335556D01*
X180408606Y-47090732D01*
X180653430Y-46724329D01*
X180739400Y-46292126D01*
X180739400Y-46247874D01*
X180653430Y-45815671D01*
X180408606Y-45449268D01*
X180042203Y-45204444D01*
X179610000Y-45118474D01*
X179177797Y-45204444D01*
X178866800Y-45412247D01*
X178866800Y-45095005D01*
X178866801Y-45095000D01*
X178833932Y-44929758D01*
X178801704Y-44881526D01*
X178740329Y-44789671D01*
X178740326Y-44789669D01*
X178117006Y-44166349D01*
X178145520Y-44022995D01*
X178571944Y-44022995D01*
X178763086Y-44397939D01*
X179083163Y-44671195D01*
X179317007Y-44768043D01*
X179483000Y-44743524D01*
X179483000Y-43857000D01*
X179737000Y-43857000D01*
X179737000Y-44743524D01*
X179902993Y-44768043D01*
X180136837Y-44671195D01*
X180456914Y-44397939D01*
X180648056Y-44022995D01*
X180623960Y-43857000D01*
X179737000Y-43857000D01*
X179483000Y-43857000D01*
X178596040Y-43857000D01*
X178571944Y-44022995D01*
X178145520Y-44022995D01*
X178199400Y-43752126D01*
X178199400Y-43707874D01*
X181020600Y-43707874D01*
X181020600Y-43752126D01*
X181106570Y-44184329D01*
X181351394Y-44550732D01*
X181717797Y-44795556D01*
X182150000Y-44881526D01*
X182582203Y-44795556D01*
X182595808Y-44786465D01*
X182956200Y-45146857D01*
X182956200Y-45460633D01*
X182948606Y-45449268D01*
X182582203Y-45204444D01*
X182150000Y-45118474D01*
X181717797Y-45204444D01*
X181351394Y-45449268D01*
X181106570Y-45815671D01*
X181020600Y-46247874D01*
X181020600Y-46292126D01*
X181106570Y-46724329D01*
X181351394Y-47090732D01*
X181717797Y-47335556D01*
X182150000Y-47421526D01*
X182582203Y-47335556D01*
X182948606Y-47090732D01*
X182956200Y-47079367D01*
X182956200Y-50713143D01*
X182725808Y-50943535D01*
X182712203Y-50934444D01*
X182280000Y-50848474D01*
X181847797Y-50934444D01*
X181481394Y-51179268D01*
X181236570Y-51545671D01*
X181150600Y-51977874D01*
X181150600Y-52022126D01*
X181236570Y-52454329D01*
X181481394Y-52820732D01*
X181847797Y-53065556D01*
X182280000Y-53151526D01*
X182712203Y-53065556D01*
X183078606Y-52820732D01*
X183323430Y-52454329D01*
X183409400Y-52022126D01*
X183409400Y-51977874D01*
X183327006Y-51563651D01*
X183693326Y-51197331D01*
X183693329Y-51197329D01*
X183778187Y-51070329D01*
X183786932Y-51057242D01*
X183819801Y-50892000D01*
X183819800Y-50891995D01*
X183819800Y-46983585D01*
X183891394Y-47090732D01*
X184257797Y-47335556D01*
X184690000Y-47421526D01*
X185122203Y-47335556D01*
X185488606Y-47090732D01*
X185496200Y-47079367D01*
X185496200Y-50713143D01*
X185265808Y-50943535D01*
X185252203Y-50934444D01*
X184820000Y-50848474D01*
X184387797Y-50934444D01*
X184021394Y-51179268D01*
X183776570Y-51545671D01*
X183690600Y-51977874D01*
X183690600Y-52022126D01*
X183776570Y-52454329D01*
X184021394Y-52820732D01*
X184387797Y-53065556D01*
X184820000Y-53151526D01*
X185252203Y-53065556D01*
X185618606Y-52820732D01*
X185863430Y-52454329D01*
X185895521Y-52292995D01*
X186321944Y-52292995D01*
X186513086Y-52667939D01*
X186833163Y-52941195D01*
X187067007Y-53038043D01*
X187233000Y-53013524D01*
X187233000Y-52127000D01*
X187487000Y-52127000D01*
X187487000Y-53013524D01*
X187652993Y-53038043D01*
X187886837Y-52941195D01*
X188206914Y-52667939D01*
X188398056Y-52292995D01*
X188373960Y-52127000D01*
X187487000Y-52127000D01*
X187233000Y-52127000D01*
X186346040Y-52127000D01*
X186321944Y-52292995D01*
X185895521Y-52292995D01*
X185949400Y-52022126D01*
X185949400Y-51977874D01*
X185895521Y-51707005D01*
X186321944Y-51707005D01*
X186346040Y-51873000D01*
X187233000Y-51873000D01*
X187233000Y-50986476D01*
X187487000Y-50986476D01*
X187487000Y-51873000D01*
X188373960Y-51873000D01*
X188398056Y-51707005D01*
X188206914Y-51332061D01*
X187886837Y-51058805D01*
X187652993Y-50961957D01*
X187487000Y-50986476D01*
X187233000Y-50986476D01*
X187067007Y-50961957D01*
X186833163Y-51058805D01*
X186513086Y-51332061D01*
X186321944Y-51707005D01*
X185895521Y-51707005D01*
X185867006Y-51563651D01*
X186233326Y-51197331D01*
X186233329Y-51197329D01*
X186318187Y-51070329D01*
X186326932Y-51057242D01*
X186359801Y-50892000D01*
X186359800Y-50891995D01*
X186359800Y-46983585D01*
X186431394Y-47090732D01*
X186797797Y-47335556D01*
X187230000Y-47421526D01*
X187662203Y-47335556D01*
X188028606Y-47090732D01*
X188273430Y-46724329D01*
X188359400Y-46292126D01*
X188359400Y-46247874D01*
X188273430Y-45815671D01*
X188028606Y-45449268D01*
X187662203Y-45204444D01*
X187230000Y-45118474D01*
X186797797Y-45204444D01*
X186431394Y-45449268D01*
X186359800Y-45556415D01*
X186359800Y-44968000D01*
X186326931Y-44802757D01*
X186233329Y-44662671D01*
X186233326Y-44662669D01*
X185737006Y-44166349D01*
X185765520Y-44022995D01*
X186191944Y-44022995D01*
X186383086Y-44397939D01*
X186703163Y-44671195D01*
X186937007Y-44768043D01*
X187103000Y-44743524D01*
X187103000Y-43857000D01*
X187357000Y-43857000D01*
X187357000Y-44743524D01*
X187522993Y-44768043D01*
X187756837Y-44671195D01*
X188076914Y-44397939D01*
X188268056Y-44022995D01*
X188243960Y-43857000D01*
X187357000Y-43857000D01*
X187103000Y-43857000D01*
X186216040Y-43857000D01*
X186191944Y-44022995D01*
X185765520Y-44022995D01*
X185819400Y-43752126D01*
X185819400Y-43707874D01*
X188640600Y-43707874D01*
X188640600Y-43752126D01*
X188726570Y-44184329D01*
X188971394Y-44550732D01*
X189337797Y-44795556D01*
X189770000Y-44881526D01*
X190202203Y-44795556D01*
X190215808Y-44786465D01*
X190576200Y-45146857D01*
X190576200Y-45460633D01*
X190568606Y-45449268D01*
X190202203Y-45204444D01*
X189770000Y-45118474D01*
X189337797Y-45204444D01*
X188971394Y-45449268D01*
X188726570Y-45815671D01*
X188640600Y-46247874D01*
X188640600Y-46292126D01*
X188726570Y-46724329D01*
X188971394Y-47090732D01*
X189337797Y-47335556D01*
X189770000Y-47421526D01*
X190202203Y-47335556D01*
X190568606Y-47090732D01*
X190576200Y-47079367D01*
X190576200Y-50713143D01*
X190345808Y-50943535D01*
X190332203Y-50934444D01*
X189900000Y-50848474D01*
X189467797Y-50934444D01*
X189101394Y-51179268D01*
X188856570Y-51545671D01*
X188770600Y-51977874D01*
X188770600Y-52022126D01*
X188856570Y-52454329D01*
X189101394Y-52820732D01*
X189467797Y-53065556D01*
X189900000Y-53151526D01*
X190332203Y-53065556D01*
X190698606Y-52820732D01*
X190943430Y-52454329D01*
X191029400Y-52022126D01*
X191029400Y-51977874D01*
X190947006Y-51563651D01*
X191313326Y-51197331D01*
X191313329Y-51197329D01*
X191398187Y-51070329D01*
X191406932Y-51057242D01*
X191439801Y-50892000D01*
X191439800Y-50891995D01*
X191439800Y-46983585D01*
X191511394Y-47090732D01*
X191877797Y-47335556D01*
X192310000Y-47421526D01*
X192742203Y-47335556D01*
X193108606Y-47090732D01*
X193116200Y-47079367D01*
X193116200Y-50713143D01*
X192885808Y-50943535D01*
X192872203Y-50934444D01*
X192440000Y-50848474D01*
X192007797Y-50934444D01*
X191641394Y-51179268D01*
X191396570Y-51545671D01*
X191310600Y-51977874D01*
X191310600Y-52022126D01*
X191396570Y-52454329D01*
X191641394Y-52820732D01*
X192007797Y-53065556D01*
X192440000Y-53151526D01*
X192872203Y-53065556D01*
X193238606Y-52820732D01*
X193483430Y-52454329D01*
X193569400Y-52022126D01*
X193569400Y-51977874D01*
X193487006Y-51563651D01*
X193853326Y-51197331D01*
X193853329Y-51197329D01*
X193938187Y-51070329D01*
X193946932Y-51057242D01*
X193979801Y-50892000D01*
X193979800Y-50891995D01*
X193979800Y-46892261D01*
X194003086Y-46937939D01*
X194323163Y-47211195D01*
X194557007Y-47308043D01*
X194723000Y-47283524D01*
X194723000Y-46397000D01*
X194703000Y-46397000D01*
X194703000Y-46143000D01*
X194723000Y-46143000D01*
X194723000Y-45256476D01*
X194557007Y-45231957D01*
X194323163Y-45328805D01*
X194003086Y-45602061D01*
X193979800Y-45647739D01*
X193979800Y-44968000D01*
X193946931Y-44802757D01*
X193853329Y-44662671D01*
X193853326Y-44662669D01*
X193357006Y-44166349D01*
X193439400Y-43752126D01*
X193439400Y-43707874D01*
X193720600Y-43707874D01*
X193720600Y-43752126D01*
X193806570Y-44184329D01*
X194051394Y-44550732D01*
X194417797Y-44795556D01*
X194850000Y-44881526D01*
X195282203Y-44795556D01*
X195295808Y-44786465D01*
X195656200Y-45146857D01*
X195656200Y-45567303D01*
X195376837Y-45328805D01*
X195142993Y-45231957D01*
X194977000Y-45256476D01*
X194977000Y-46143000D01*
X194997000Y-46143000D01*
X194997000Y-46397000D01*
X194977000Y-46397000D01*
X194977000Y-47283524D01*
X195142993Y-47308043D01*
X195376837Y-47211195D01*
X195656200Y-46972697D01*
X195656200Y-50713143D01*
X195425808Y-50943535D01*
X195412203Y-50934444D01*
X194980000Y-50848474D01*
X194547797Y-50934444D01*
X194181394Y-51179268D01*
X193936570Y-51545671D01*
X193850600Y-51977874D01*
X193850600Y-52022126D01*
X193936570Y-52454329D01*
X194181394Y-52820732D01*
X194547797Y-53065556D01*
X194980000Y-53151526D01*
X195412203Y-53065556D01*
X195778606Y-52820732D01*
X196023430Y-52454329D01*
X196109400Y-52022126D01*
X196109400Y-51977874D01*
X196390600Y-51977874D01*
X196390600Y-52022126D01*
X196476570Y-52454329D01*
X196721394Y-52820732D01*
X197087797Y-53065556D01*
X197520000Y-53151526D01*
X197952203Y-53065556D01*
X198318606Y-52820732D01*
X198563430Y-52454329D01*
X198595521Y-52292995D01*
X199021944Y-52292995D01*
X199213086Y-52667939D01*
X199533163Y-52941195D01*
X199767007Y-53038043D01*
X199933000Y-53013524D01*
X199933000Y-52127000D01*
X200187000Y-52127000D01*
X200187000Y-53013524D01*
X200352993Y-53038043D01*
X200586837Y-52941195D01*
X200906914Y-52667939D01*
X201098056Y-52292995D01*
X201073960Y-52127000D01*
X200187000Y-52127000D01*
X199933000Y-52127000D01*
X199046040Y-52127000D01*
X199021944Y-52292995D01*
X198595521Y-52292995D01*
X198649400Y-52022126D01*
X198649400Y-51977874D01*
X198595522Y-51707005D01*
X199021944Y-51707005D01*
X199046040Y-51873000D01*
X199933000Y-51873000D01*
X199933000Y-50986476D01*
X200187000Y-50986476D01*
X200187000Y-51873000D01*
X201073960Y-51873000D01*
X201098056Y-51707005D01*
X200906914Y-51332061D01*
X200586837Y-51058805D01*
X200352993Y-50961957D01*
X200187000Y-50986476D01*
X199933000Y-50986476D01*
X199767007Y-50961957D01*
X199533163Y-51058805D01*
X199213086Y-51332061D01*
X199021944Y-51707005D01*
X198595522Y-51707005D01*
X198563430Y-51545671D01*
X198318606Y-51179268D01*
X197952203Y-50934444D01*
X197520000Y-50848474D01*
X197087797Y-50934444D01*
X196721394Y-51179268D01*
X196476570Y-51545671D01*
X196390600Y-51977874D01*
X196109400Y-51977874D01*
X196027006Y-51563651D01*
X196393326Y-51197331D01*
X196393329Y-51197329D01*
X196478187Y-51070329D01*
X196486932Y-51057242D01*
X196519801Y-50892000D01*
X196519800Y-50891995D01*
X196519800Y-46983585D01*
X196591394Y-47090732D01*
X196957797Y-47335556D01*
X197390000Y-47421526D01*
X197822203Y-47335556D01*
X198188606Y-47090732D01*
X198433430Y-46724329D01*
X198519400Y-46292126D01*
X198519400Y-46247874D01*
X198800600Y-46247874D01*
X198800600Y-46292126D01*
X198886570Y-46724329D01*
X199131394Y-47090732D01*
X199497797Y-47335556D01*
X199930000Y-47421526D01*
X200362203Y-47335556D01*
X200728606Y-47090732D01*
X200973430Y-46724329D01*
X201059400Y-46292126D01*
X201059400Y-46247874D01*
X200973430Y-45815671D01*
X200728606Y-45449268D01*
X200362203Y-45204444D01*
X199930000Y-45118474D01*
X199497797Y-45204444D01*
X199131394Y-45449268D01*
X198886570Y-45815671D01*
X198800600Y-46247874D01*
X198519400Y-46247874D01*
X198433430Y-45815671D01*
X198188606Y-45449268D01*
X197822203Y-45204444D01*
X197390000Y-45118474D01*
X196957797Y-45204444D01*
X196591394Y-45449268D01*
X196519800Y-45556415D01*
X196519800Y-44968000D01*
X196486931Y-44802757D01*
X196393329Y-44662671D01*
X196393326Y-44662669D01*
X195897006Y-44166349D01*
X195979400Y-43752126D01*
X195979400Y-43707874D01*
X196260600Y-43707874D01*
X196260600Y-43752126D01*
X196346570Y-44184329D01*
X196591394Y-44550732D01*
X196957797Y-44795556D01*
X197390000Y-44881526D01*
X197822203Y-44795556D01*
X198188606Y-44550732D01*
X198433430Y-44184329D01*
X198465521Y-44022995D01*
X198891944Y-44022995D01*
X199083086Y-44397939D01*
X199403163Y-44671195D01*
X199637007Y-44768043D01*
X199803000Y-44743524D01*
X199803000Y-43857000D01*
X200057000Y-43857000D01*
X200057000Y-44743524D01*
X200222993Y-44768043D01*
X200456837Y-44671195D01*
X200776914Y-44397939D01*
X200968056Y-44022995D01*
X200943960Y-43857000D01*
X200057000Y-43857000D01*
X199803000Y-43857000D01*
X198916040Y-43857000D01*
X198891944Y-44022995D01*
X198465521Y-44022995D01*
X198519400Y-43752126D01*
X198519400Y-43707874D01*
X201340600Y-43707874D01*
X201340600Y-43752126D01*
X201426570Y-44184329D01*
X201671394Y-44550732D01*
X202037797Y-44795556D01*
X202470000Y-44881526D01*
X202902203Y-44795556D01*
X202915808Y-44786465D01*
X203276200Y-45146857D01*
X203276200Y-45460633D01*
X203268606Y-45449268D01*
X202902203Y-45204444D01*
X202470000Y-45118474D01*
X202037797Y-45204444D01*
X201671394Y-45449268D01*
X201426570Y-45815671D01*
X201340600Y-46247874D01*
X201340600Y-46292126D01*
X201426570Y-46724329D01*
X201671394Y-47090732D01*
X202037797Y-47335556D01*
X202470000Y-47421526D01*
X202902203Y-47335556D01*
X203268606Y-47090732D01*
X203276200Y-47079367D01*
X203276200Y-50713143D01*
X203045808Y-50943535D01*
X203032203Y-50934444D01*
X202600000Y-50848474D01*
X202167797Y-50934444D01*
X201801394Y-51179268D01*
X201556570Y-51545671D01*
X201470600Y-51977874D01*
X201470600Y-52022126D01*
X201556570Y-52454329D01*
X201801394Y-52820732D01*
X202167797Y-53065556D01*
X202600000Y-53151526D01*
X203032203Y-53065556D01*
X203398606Y-52820732D01*
X203643430Y-52454329D01*
X203675521Y-52292995D01*
X204101944Y-52292995D01*
X204293086Y-52667939D01*
X204613163Y-52941195D01*
X204847007Y-53038043D01*
X205013000Y-53013524D01*
X205013000Y-52127000D01*
X205267000Y-52127000D01*
X205267000Y-53013524D01*
X205432993Y-53038043D01*
X205666837Y-52941195D01*
X205986914Y-52667939D01*
X206178056Y-52292995D01*
X206153960Y-52127000D01*
X205267000Y-52127000D01*
X205013000Y-52127000D01*
X204126040Y-52127000D01*
X204101944Y-52292995D01*
X203675521Y-52292995D01*
X203729400Y-52022126D01*
X203729400Y-51977874D01*
X203675521Y-51707005D01*
X204101944Y-51707005D01*
X204126040Y-51873000D01*
X205013000Y-51873000D01*
X205013000Y-50986476D01*
X205267000Y-50986476D01*
X205267000Y-51873000D01*
X206153960Y-51873000D01*
X206178056Y-51707005D01*
X205986914Y-51332061D01*
X205666837Y-51058805D01*
X205432993Y-50961957D01*
X205267000Y-50986476D01*
X205013000Y-50986476D01*
X204847007Y-50961957D01*
X204613163Y-51058805D01*
X204293086Y-51332061D01*
X204101944Y-51707005D01*
X203675521Y-51707005D01*
X203647006Y-51563651D01*
X204013326Y-51197331D01*
X204013329Y-51197329D01*
X204098187Y-51070329D01*
X204106932Y-51057242D01*
X204139801Y-50892000D01*
X204139800Y-50891995D01*
X204139800Y-46983585D01*
X204211394Y-47090732D01*
X204577797Y-47335556D01*
X205010000Y-47421526D01*
X205442203Y-47335556D01*
X205808606Y-47090732D01*
X206053430Y-46724329D01*
X206139400Y-46292126D01*
X206139400Y-46247874D01*
X206053430Y-45815671D01*
X205808606Y-45449268D01*
X205442203Y-45204444D01*
X205010000Y-45118474D01*
X204577797Y-45204444D01*
X204211394Y-45449268D01*
X204139800Y-45556415D01*
X204139800Y-44968000D01*
X204106931Y-44802757D01*
X204013329Y-44662671D01*
X204013326Y-44662669D01*
X203517006Y-44166349D01*
X203545520Y-44022995D01*
X203971944Y-44022995D01*
X204163086Y-44397939D01*
X204483163Y-44671195D01*
X204717007Y-44768043D01*
X204883000Y-44743524D01*
X204883000Y-43857000D01*
X205137000Y-43857000D01*
X205137000Y-44743524D01*
X205302993Y-44768043D01*
X205536837Y-44671195D01*
X205856914Y-44397939D01*
X206048056Y-44022995D01*
X206023960Y-43857000D01*
X205137000Y-43857000D01*
X204883000Y-43857000D01*
X203996040Y-43857000D01*
X203971944Y-44022995D01*
X203545520Y-44022995D01*
X203599400Y-43752126D01*
X203599400Y-43707874D01*
X206420600Y-43707874D01*
X206420600Y-43752126D01*
X206506570Y-44184329D01*
X206751394Y-44550732D01*
X207117797Y-44795556D01*
X207550000Y-44881526D01*
X207982203Y-44795556D01*
X207995808Y-44786465D01*
X208356200Y-45146857D01*
X208356200Y-45460633D01*
X208348606Y-45449268D01*
X207982203Y-45204444D01*
X207550000Y-45118474D01*
X207117797Y-45204444D01*
X206751394Y-45449268D01*
X206506570Y-45815671D01*
X206420600Y-46247874D01*
X206420600Y-46292126D01*
X206506570Y-46724329D01*
X206751394Y-47090732D01*
X207117797Y-47335556D01*
X207550000Y-47421526D01*
X207982203Y-47335556D01*
X208348606Y-47090732D01*
X208356200Y-47079367D01*
X208356200Y-50713143D01*
X208125808Y-50943535D01*
X208112203Y-50934444D01*
X207680000Y-50848474D01*
X207247797Y-50934444D01*
X206881394Y-51179268D01*
X206636570Y-51545671D01*
X206550600Y-51977874D01*
X206550600Y-52022126D01*
X206636570Y-52454329D01*
X206881394Y-52820732D01*
X207247797Y-53065556D01*
X207680000Y-53151526D01*
X208112203Y-53065556D01*
X208478606Y-52820732D01*
X208723430Y-52454329D01*
X208809400Y-52022126D01*
X208809400Y-51977874D01*
X208727006Y-51563651D01*
X209093326Y-51197331D01*
X209093329Y-51197329D01*
X209178187Y-51070329D01*
X209186932Y-51057242D01*
X209219801Y-50892000D01*
X209219800Y-50891995D01*
X209219800Y-46983585D01*
X209291394Y-47090732D01*
X209657797Y-47335556D01*
X210090000Y-47421526D01*
X210522203Y-47335556D01*
X210888606Y-47090732D01*
X210896200Y-47079367D01*
X210896200Y-50713143D01*
X210665808Y-50943535D01*
X210652203Y-50934444D01*
X210220000Y-50848474D01*
X209787797Y-50934444D01*
X209421394Y-51179268D01*
X209176570Y-51545671D01*
X209090600Y-51977874D01*
X209090600Y-52022126D01*
X209176570Y-52454329D01*
X209421394Y-52820732D01*
X209787797Y-53065556D01*
X210220000Y-53151526D01*
X210652203Y-53065556D01*
X211018606Y-52820732D01*
X211263430Y-52454329D01*
X211349400Y-52022126D01*
X211349400Y-51977874D01*
X211267006Y-51563651D01*
X211633326Y-51197331D01*
X211633329Y-51197329D01*
X211718187Y-51070329D01*
X211726932Y-51057242D01*
X211759801Y-50892000D01*
X211759800Y-50891995D01*
X211759800Y-46892261D01*
X211783086Y-46937939D01*
X212103163Y-47211195D01*
X212337007Y-47308043D01*
X212503000Y-47283524D01*
X212503000Y-46397000D01*
X212483000Y-46397000D01*
X212483000Y-46143000D01*
X212503000Y-46143000D01*
X212503000Y-45256476D01*
X212337007Y-45231957D01*
X212103163Y-45328805D01*
X211783086Y-45602061D01*
X211759800Y-45647739D01*
X211759800Y-44968000D01*
X211726931Y-44802757D01*
X211633329Y-44662671D01*
X211633326Y-44662669D01*
X211137006Y-44166349D01*
X211219400Y-43752126D01*
X211219400Y-43707874D01*
X211500600Y-43707874D01*
X211500600Y-43752126D01*
X211586570Y-44184329D01*
X211831394Y-44550732D01*
X212197797Y-44795556D01*
X212630000Y-44881526D01*
X213062203Y-44795556D01*
X213075808Y-44786465D01*
X213436200Y-45146857D01*
X213436200Y-45567303D01*
X213156837Y-45328805D01*
X212922993Y-45231957D01*
X212757000Y-45256476D01*
X212757000Y-46143000D01*
X212777000Y-46143000D01*
X212777000Y-46397000D01*
X212757000Y-46397000D01*
X212757000Y-47283524D01*
X212922993Y-47308043D01*
X213156837Y-47211195D01*
X213436200Y-46972697D01*
X213436200Y-50713143D01*
X213205808Y-50943535D01*
X213192203Y-50934444D01*
X212760000Y-50848474D01*
X212327797Y-50934444D01*
X211961394Y-51179268D01*
X211716570Y-51545671D01*
X211630600Y-51977874D01*
X211630600Y-52022126D01*
X211716570Y-52454329D01*
X211961394Y-52820732D01*
X212327797Y-53065556D01*
X212760000Y-53151526D01*
X213192203Y-53065556D01*
X213558606Y-52820732D01*
X213803430Y-52454329D01*
X213889400Y-52022126D01*
X213889400Y-51977874D01*
X213807006Y-51563651D01*
X214173326Y-51197331D01*
X214173329Y-51197329D01*
X214258187Y-51070329D01*
X214266932Y-51057242D01*
X214299801Y-50892000D01*
X214299800Y-50891995D01*
X214299800Y-45822686D01*
X215870318Y-45822686D01*
X216117856Y-46421775D01*
X216575814Y-46880533D01*
X217174470Y-47129117D01*
X217822686Y-47129682D01*
X218421775Y-46882144D01*
X218880533Y-46424186D01*
X219129117Y-45825530D01*
X219129682Y-45177314D01*
X218882144Y-44578225D01*
X218424186Y-44119467D01*
X217825530Y-43870883D01*
X217177314Y-43870318D01*
X216578225Y-44117856D01*
X216119467Y-44575814D01*
X215870883Y-45174470D01*
X215870318Y-45822686D01*
X214299800Y-45822686D01*
X214299800Y-44968000D01*
X214266931Y-44802757D01*
X214173329Y-44662671D01*
X214173326Y-44662669D01*
X213677006Y-44166349D01*
X213759400Y-43752126D01*
X213759400Y-43707874D01*
X213673430Y-43275671D01*
X213428606Y-42909268D01*
X213062203Y-42664444D01*
X212630000Y-42578474D01*
X212197797Y-42664444D01*
X211831394Y-42909268D01*
X211586570Y-43275671D01*
X211500600Y-43707874D01*
X211219400Y-43707874D01*
X211133430Y-43275671D01*
X210888606Y-42909268D01*
X210522203Y-42664444D01*
X210090000Y-42578474D01*
X209657797Y-42664444D01*
X209291394Y-42909268D01*
X209046570Y-43275671D01*
X208960600Y-43707874D01*
X208960600Y-43752126D01*
X209046570Y-44184329D01*
X209291394Y-44550732D01*
X209657797Y-44795556D01*
X210090000Y-44881526D01*
X210522203Y-44795556D01*
X210535808Y-44786465D01*
X210896200Y-45146857D01*
X210896200Y-45460633D01*
X210888606Y-45449268D01*
X210522203Y-45204444D01*
X210090000Y-45118474D01*
X209657797Y-45204444D01*
X209291394Y-45449268D01*
X209219800Y-45556415D01*
X209219800Y-44968000D01*
X209186931Y-44802757D01*
X209093329Y-44662671D01*
X209093326Y-44662669D01*
X208597006Y-44166349D01*
X208679400Y-43752126D01*
X208679400Y-43707874D01*
X208593430Y-43275671D01*
X208348606Y-42909268D01*
X207982203Y-42664444D01*
X207550000Y-42578474D01*
X207117797Y-42664444D01*
X206751394Y-42909268D01*
X206506570Y-43275671D01*
X206420600Y-43707874D01*
X203599400Y-43707874D01*
X203545522Y-43437005D01*
X203971944Y-43437005D01*
X203996040Y-43603000D01*
X204883000Y-43603000D01*
X204883000Y-42716476D01*
X205137000Y-42716476D01*
X205137000Y-43603000D01*
X206023960Y-43603000D01*
X206048056Y-43437005D01*
X205856914Y-43062061D01*
X205536837Y-42788805D01*
X205302993Y-42691957D01*
X205137000Y-42716476D01*
X204883000Y-42716476D01*
X204717007Y-42691957D01*
X204483163Y-42788805D01*
X204163086Y-43062061D01*
X203971944Y-43437005D01*
X203545522Y-43437005D01*
X203513430Y-43275671D01*
X203268606Y-42909268D01*
X202902203Y-42664444D01*
X202470000Y-42578474D01*
X202037797Y-42664444D01*
X201671394Y-42909268D01*
X201426570Y-43275671D01*
X201340600Y-43707874D01*
X198519400Y-43707874D01*
X198465522Y-43437005D01*
X198891944Y-43437005D01*
X198916040Y-43603000D01*
X199803000Y-43603000D01*
X199803000Y-42716476D01*
X200057000Y-42716476D01*
X200057000Y-43603000D01*
X200943960Y-43603000D01*
X200968056Y-43437005D01*
X200776914Y-43062061D01*
X200456837Y-42788805D01*
X200222993Y-42691957D01*
X200057000Y-42716476D01*
X199803000Y-42716476D01*
X199637007Y-42691957D01*
X199403163Y-42788805D01*
X199083086Y-43062061D01*
X198891944Y-43437005D01*
X198465522Y-43437005D01*
X198433430Y-43275671D01*
X198188606Y-42909268D01*
X197822203Y-42664444D01*
X197390000Y-42578474D01*
X196957797Y-42664444D01*
X196591394Y-42909268D01*
X196346570Y-43275671D01*
X196260600Y-43707874D01*
X195979400Y-43707874D01*
X195893430Y-43275671D01*
X195648606Y-42909268D01*
X195282203Y-42664444D01*
X194850000Y-42578474D01*
X194417797Y-42664444D01*
X194051394Y-42909268D01*
X193806570Y-43275671D01*
X193720600Y-43707874D01*
X193439400Y-43707874D01*
X193353430Y-43275671D01*
X193108606Y-42909268D01*
X192742203Y-42664444D01*
X192310000Y-42578474D01*
X191877797Y-42664444D01*
X191511394Y-42909268D01*
X191266570Y-43275671D01*
X191180600Y-43707874D01*
X191180600Y-43752126D01*
X191266570Y-44184329D01*
X191511394Y-44550732D01*
X191877797Y-44795556D01*
X192310000Y-44881526D01*
X192742203Y-44795556D01*
X192755808Y-44786465D01*
X193116200Y-45146857D01*
X193116200Y-45460633D01*
X193108606Y-45449268D01*
X192742203Y-45204444D01*
X192310000Y-45118474D01*
X191877797Y-45204444D01*
X191511394Y-45449268D01*
X191439800Y-45556415D01*
X191439800Y-44968000D01*
X191406931Y-44802757D01*
X191313329Y-44662671D01*
X191313326Y-44662669D01*
X190817006Y-44166349D01*
X190899400Y-43752126D01*
X190899400Y-43707874D01*
X190813430Y-43275671D01*
X190568606Y-42909268D01*
X190202203Y-42664444D01*
X189770000Y-42578474D01*
X189337797Y-42664444D01*
X188971394Y-42909268D01*
X188726570Y-43275671D01*
X188640600Y-43707874D01*
X185819400Y-43707874D01*
X185765522Y-43437005D01*
X186191944Y-43437005D01*
X186216040Y-43603000D01*
X187103000Y-43603000D01*
X187103000Y-42716476D01*
X187357000Y-42716476D01*
X187357000Y-43603000D01*
X188243960Y-43603000D01*
X188268056Y-43437005D01*
X188076914Y-43062061D01*
X187756837Y-42788805D01*
X187522993Y-42691957D01*
X187357000Y-42716476D01*
X187103000Y-42716476D01*
X186937007Y-42691957D01*
X186703163Y-42788805D01*
X186383086Y-43062061D01*
X186191944Y-43437005D01*
X185765522Y-43437005D01*
X185733430Y-43275671D01*
X185488606Y-42909268D01*
X185122203Y-42664444D01*
X184690000Y-42578474D01*
X184257797Y-42664444D01*
X183891394Y-42909268D01*
X183646570Y-43275671D01*
X183560600Y-43707874D01*
X183560600Y-43752126D01*
X183646570Y-44184329D01*
X183891394Y-44550732D01*
X184257797Y-44795556D01*
X184690000Y-44881526D01*
X185122203Y-44795556D01*
X185135808Y-44786465D01*
X185496200Y-45146857D01*
X185496200Y-45460633D01*
X185488606Y-45449268D01*
X185122203Y-45204444D01*
X184690000Y-45118474D01*
X184257797Y-45204444D01*
X183891394Y-45449268D01*
X183819800Y-45556415D01*
X183819800Y-44968000D01*
X183786931Y-44802757D01*
X183693329Y-44662671D01*
X183693326Y-44662669D01*
X183197006Y-44166349D01*
X183279400Y-43752126D01*
X183279400Y-43707874D01*
X183193430Y-43275671D01*
X182948606Y-42909268D01*
X182582203Y-42664444D01*
X182150000Y-42578474D01*
X181717797Y-42664444D01*
X181351394Y-42909268D01*
X181106570Y-43275671D01*
X181020600Y-43707874D01*
X178199400Y-43707874D01*
X178145522Y-43437005D01*
X178571944Y-43437005D01*
X178596040Y-43603000D01*
X179483000Y-43603000D01*
X179483000Y-42716476D01*
X179737000Y-42716476D01*
X179737000Y-43603000D01*
X180623960Y-43603000D01*
X180648056Y-43437005D01*
X180456914Y-43062061D01*
X180136837Y-42788805D01*
X179902993Y-42691957D01*
X179737000Y-42716476D01*
X179483000Y-42716476D01*
X179317007Y-42691957D01*
X179083163Y-42788805D01*
X178763086Y-43062061D01*
X178571944Y-43437005D01*
X178145522Y-43437005D01*
X178113430Y-43275671D01*
X177868606Y-42909268D01*
X177502203Y-42664444D01*
X177070000Y-42578474D01*
X176637797Y-42664444D01*
X176271394Y-42909268D01*
X176026570Y-43275671D01*
X175940600Y-43707874D01*
X175940600Y-43752126D01*
X176026570Y-44184329D01*
X176271394Y-44550732D01*
X176637797Y-44795556D01*
X177070000Y-44881526D01*
X177502203Y-44795556D01*
X177515808Y-44786465D01*
X178003200Y-45273857D01*
X178003200Y-45650701D01*
X177868606Y-45449268D01*
X177502203Y-45204444D01*
X177070000Y-45118474D01*
X176637797Y-45204444D01*
X176271394Y-45449268D01*
X176199800Y-45556415D01*
X176199800Y-44968000D01*
X176166931Y-44802757D01*
X176073329Y-44662671D01*
X176073326Y-44662669D01*
X175577006Y-44166349D01*
X175659400Y-43752126D01*
X175659400Y-43707874D01*
X175573430Y-43275671D01*
X175328606Y-42909268D01*
X174962203Y-42664444D01*
X174530000Y-42578474D01*
X174097797Y-42664444D01*
X173731394Y-42909268D01*
X173486570Y-43275671D01*
X173400600Y-43707874D01*
X173119400Y-43707874D01*
X173033430Y-43275671D01*
X172788606Y-42909268D01*
X172422203Y-42664444D01*
X171990000Y-42578474D01*
X171557797Y-42664444D01*
X171191394Y-42909268D01*
X170946570Y-43275671D01*
X170860600Y-43707874D01*
X168039400Y-43707874D01*
X167985522Y-43437005D01*
X168411944Y-43437005D01*
X168436040Y-43603000D01*
X169323000Y-43603000D01*
X169323000Y-42716476D01*
X169577000Y-42716476D01*
X169577000Y-43603000D01*
X170463960Y-43603000D01*
X170488056Y-43437005D01*
X170296914Y-43062061D01*
X169976837Y-42788805D01*
X169742993Y-42691957D01*
X169577000Y-42716476D01*
X169323000Y-42716476D01*
X169157007Y-42691957D01*
X168923163Y-42788805D01*
X168603086Y-43062061D01*
X168411944Y-43437005D01*
X167985522Y-43437005D01*
X167953430Y-43275671D01*
X167708606Y-42909268D01*
X167342203Y-42664444D01*
X166910000Y-42578474D01*
X166477797Y-42664444D01*
X166111394Y-42909268D01*
X165866570Y-43275671D01*
X165862089Y-43298200D01*
X165417911Y-43298200D01*
X165413430Y-43275671D01*
X165168606Y-42909268D01*
X164802203Y-42664444D01*
X164370000Y-42578474D01*
X163937797Y-42664444D01*
X163571394Y-42909268D01*
X163326570Y-43275671D01*
X163240600Y-43707874D01*
X163240600Y-43752126D01*
X163326570Y-44184329D01*
X163571394Y-44550732D01*
X163937797Y-44795556D01*
X164370000Y-44881526D01*
X164802203Y-44795556D01*
X164815808Y-44786465D01*
X165164470Y-45135127D01*
X163520000Y-45135127D01*
X163416461Y-45154609D01*
X163321366Y-45215801D01*
X163257571Y-45309168D01*
X163235127Y-45420000D01*
X161129470Y-45420000D01*
X161129682Y-45177314D01*
X160882144Y-44578225D01*
X160424186Y-44119467D01*
X159825530Y-43870883D01*
X159177314Y-43870318D01*
X158578225Y-44117856D01*
X158119467Y-44575814D01*
X157870883Y-45174470D01*
X157870318Y-45822686D01*
X156303600Y-45822686D01*
X156303600Y-42303600D01*
X220696400Y-42303600D01*
X220696400Y-63696400D01*
X220696400Y-63696400D01*
G37*
X220696400Y-63696400D02*
X156303600Y-63696400D01*
X156303600Y-60650000D01*
X184865127Y-60650000D01*
X184865127Y-62350000D01*
X184884609Y-62453539D01*
X184945801Y-62548634D01*
X185039168Y-62612429D01*
X185150000Y-62634873D01*
X186850000Y-62634873D01*
X186953539Y-62615391D01*
X187048634Y-62554199D01*
X187112429Y-62460832D01*
X187134873Y-62350000D01*
X187134873Y-61477874D01*
X187410600Y-61477874D01*
X187410600Y-61522126D01*
X187496570Y-61954329D01*
X187741394Y-62320732D01*
X188107797Y-62565556D01*
X188540000Y-62651526D01*
X188972203Y-62565556D01*
X189338606Y-62320732D01*
X189583430Y-61954329D01*
X189615521Y-61792995D01*
X190041944Y-61792995D01*
X190233086Y-62167939D01*
X190553163Y-62441195D01*
X190787007Y-62538043D01*
X190953000Y-62513524D01*
X190953000Y-61627000D01*
X191207000Y-61627000D01*
X191207000Y-62513524D01*
X191372993Y-62538043D01*
X191606837Y-62441195D01*
X191926914Y-62167939D01*
X192118056Y-61792995D01*
X192093960Y-61627000D01*
X191207000Y-61627000D01*
X190953000Y-61627000D01*
X190066040Y-61627000D01*
X190041944Y-61792995D01*
X189615521Y-61792995D01*
X189669400Y-61522126D01*
X189669400Y-61477874D01*
X189615522Y-61207005D01*
X190041944Y-61207005D01*
X190066040Y-61373000D01*
X190953000Y-61373000D01*
X190953000Y-60486476D01*
X191207000Y-60486476D01*
X191207000Y-61373000D01*
X192093960Y-61373000D01*
X192118056Y-61207005D01*
X191926914Y-60832061D01*
X191606837Y-60558805D01*
X191372993Y-60461957D01*
X191207000Y-60486476D01*
X190953000Y-60486476D01*
X190787007Y-60461957D01*
X190553163Y-60558805D01*
X190233086Y-60832061D01*
X190041944Y-61207005D01*
X189615522Y-61207005D01*
X189583430Y-61045671D01*
X189338606Y-60679268D01*
X188972203Y-60434444D01*
X188540000Y-60348474D01*
X188107797Y-60434444D01*
X187741394Y-60679268D01*
X187496570Y-61045671D01*
X187410600Y-61477874D01*
X187134873Y-61477874D01*
X187134873Y-60650000D01*
X187115391Y-60546461D01*
X187054199Y-60451366D01*
X186960832Y-60387571D01*
X186850000Y-60365127D01*
X185150000Y-60365127D01*
X185046461Y-60384609D01*
X184951366Y-60445801D01*
X184887571Y-60539168D01*
X184865127Y-60650000D01*
X156303600Y-60650000D01*
X156303600Y-58937874D01*
X184870600Y-58937874D01*
X184870600Y-58982126D01*
X184956570Y-59414329D01*
X185201394Y-59780732D01*
X185567797Y-60025556D01*
X186000000Y-60111526D01*
X186432203Y-60025556D01*
X186798606Y-59780732D01*
X187043430Y-59414329D01*
X187129400Y-58982126D01*
X187129400Y-58937874D01*
X187410600Y-58937874D01*
X187410600Y-58982126D01*
X187496570Y-59414329D01*
X187741394Y-59780732D01*
X188107797Y-60025556D01*
X188540000Y-60111526D01*
X188972203Y-60025556D01*
X189338606Y-59780732D01*
X189583430Y-59414329D01*
X189669400Y-58982126D01*
X189669400Y-58937874D01*
X189950600Y-58937874D01*
X189950600Y-58982126D01*
X190036570Y-59414329D01*
X190281394Y-59780732D01*
X190647797Y-60025556D01*
X191080000Y-60111526D01*
X191512203Y-60025556D01*
X191878606Y-59780732D01*
X192123430Y-59414329D01*
X192209400Y-58982126D01*
X192209400Y-58937874D01*
X192123430Y-58505671D01*
X191878606Y-58139268D01*
X191512203Y-57894444D01*
X191080000Y-57808474D01*
X190647797Y-57894444D01*
X190281394Y-58139268D01*
X190036570Y-58505671D01*
X189950600Y-58937874D01*
X189669400Y-58937874D01*
X189583430Y-58505671D01*
X189338606Y-58139268D01*
X188972203Y-57894444D01*
X188540000Y-57808474D01*
X188107797Y-57894444D01*
X187741394Y-58139268D01*
X187496570Y-58505671D01*
X187410600Y-58937874D01*
X187129400Y-58937874D01*
X187043430Y-58505671D01*
X186798606Y-58139268D01*
X186432203Y-57894444D01*
X186000000Y-57808474D01*
X185567797Y-57894444D01*
X185201394Y-58139268D01*
X184956570Y-58505671D01*
X184870600Y-58937874D01*
X156303600Y-58937874D01*
X156303600Y-54517874D01*
X163370600Y-54517874D01*
X163370600Y-54562126D01*
X163456570Y-54994329D01*
X163701394Y-55360732D01*
X164067797Y-55605556D01*
X164500000Y-55691526D01*
X164932203Y-55605556D01*
X165298606Y-55360732D01*
X165543430Y-54994329D01*
X165629400Y-54562126D01*
X165629400Y-54517874D01*
X165910600Y-54517874D01*
X165910600Y-54562126D01*
X165996570Y-54994329D01*
X166241394Y-55360732D01*
X166607797Y-55605556D01*
X167040000Y-55691526D01*
X167472203Y-55605556D01*
X167838606Y-55360732D01*
X168083430Y-54994329D01*
X168169400Y-54562126D01*
X168169400Y-54517874D01*
X168450600Y-54517874D01*
X168450600Y-54562126D01*
X168536570Y-54994329D01*
X168781394Y-55360732D01*
X169147797Y-55605556D01*
X169580000Y-55691526D01*
X170012203Y-55605556D01*
X170378606Y-55360732D01*
X170623430Y-54994329D01*
X170709400Y-54562126D01*
X170709400Y-54517874D01*
X170990600Y-54517874D01*
X170990600Y-54562126D01*
X171076570Y-54994329D01*
X171321394Y-55360732D01*
X171687797Y-55605556D01*
X172120000Y-55691526D01*
X172552203Y-55605556D01*
X172918606Y-55360732D01*
X173163430Y-54994329D01*
X173195521Y-54832995D01*
X173621944Y-54832995D01*
X173813086Y-55207939D01*
X174133163Y-55481195D01*
X174367007Y-55578043D01*
X174533000Y-55553524D01*
X174533000Y-54667000D01*
X174787000Y-54667000D01*
X174787000Y-55553524D01*
X174952993Y-55578043D01*
X175186837Y-55481195D01*
X175506914Y-55207939D01*
X175698056Y-54832995D01*
X175673960Y-54667000D01*
X174787000Y-54667000D01*
X174533000Y-54667000D01*
X173646040Y-54667000D01*
X173621944Y-54832995D01*
X173195521Y-54832995D01*
X173249400Y-54562126D01*
X173249400Y-54517874D01*
X176070600Y-54517874D01*
X176070600Y-54562126D01*
X176156570Y-54994329D01*
X176401394Y-55360732D01*
X176767797Y-55605556D01*
X177200000Y-55691526D01*
X177632203Y-55605556D01*
X177998606Y-55360732D01*
X178243430Y-54994329D01*
X178329400Y-54562126D01*
X178329400Y-54517874D01*
X178610600Y-54517874D01*
X178610600Y-54562126D01*
X178696570Y-54994329D01*
X178941394Y-55360732D01*
X179307797Y-55605556D01*
X179740000Y-55691526D01*
X180172203Y-55605556D01*
X180538606Y-55360732D01*
X180783430Y-54994329D01*
X180869400Y-54562126D01*
X180869400Y-54517874D01*
X181150600Y-54517874D01*
X181150600Y-54562126D01*
X181236570Y-54994329D01*
X181481394Y-55360732D01*
X181847797Y-55605556D01*
X182280000Y-55691526D01*
X182712203Y-55605556D01*
X183078606Y-55360732D01*
X183323430Y-54994329D01*
X183409400Y-54562126D01*
X183409400Y-54517874D01*
X183690600Y-54517874D01*
X183690600Y-54562126D01*
X183776570Y-54994329D01*
X184021394Y-55360732D01*
X184387797Y-55605556D01*
X184820000Y-55691526D01*
X185252203Y-55605556D01*
X185618606Y-55360732D01*
X185863430Y-54994329D01*
X185949400Y-54562126D01*
X185949400Y-54517874D01*
X186230600Y-54517874D01*
X186230600Y-54562126D01*
X186316570Y-54994329D01*
X186561394Y-55360732D01*
X186927797Y-55605556D01*
X187360000Y-55691526D01*
X187792203Y-55605556D01*
X188158606Y-55360732D01*
X188403430Y-54994329D01*
X188489400Y-54562126D01*
X188489400Y-54517874D01*
X188770600Y-54517874D01*
X188770600Y-54562126D01*
X188856570Y-54994329D01*
X189101394Y-55360732D01*
X189467797Y-55605556D01*
X189900000Y-55691526D01*
X190332203Y-55605556D01*
X190698606Y-55360732D01*
X190943430Y-54994329D01*
X191029400Y-54562126D01*
X191029400Y-54517874D01*
X191310600Y-54517874D01*
X191310600Y-54562126D01*
X191396570Y-54994329D01*
X191641394Y-55360732D01*
X192007797Y-55605556D01*
X192440000Y-55691526D01*
X192872203Y-55605556D01*
X193238606Y-55360732D01*
X193483430Y-54994329D01*
X193515521Y-54832995D01*
X193941944Y-54832995D01*
X194133086Y-55207939D01*
X194453163Y-55481195D01*
X194687007Y-55578043D01*
X194853000Y-55553524D01*
X194853000Y-54667000D01*
X195107000Y-54667000D01*
X195107000Y-55553524D01*
X195272993Y-55578043D01*
X195506837Y-55481195D01*
X195826914Y-55207939D01*
X196018056Y-54832995D01*
X195993960Y-54667000D01*
X195107000Y-54667000D01*
X194853000Y-54667000D01*
X193966040Y-54667000D01*
X193941944Y-54832995D01*
X193515521Y-54832995D01*
X193569400Y-54562126D01*
X193569400Y-54517874D01*
X196390600Y-54517874D01*
X196390600Y-54562126D01*
X196476570Y-54994329D01*
X196721394Y-55360732D01*
X197087797Y-55605556D01*
X197520000Y-55691526D01*
X197952203Y-55605556D01*
X198318606Y-55360732D01*
X198563430Y-54994329D01*
X198649400Y-54562126D01*
X198649400Y-54517874D01*
X198930600Y-54517874D01*
X198930600Y-54562126D01*
X199016570Y-54994329D01*
X199261394Y-55360732D01*
X199627797Y-55605556D01*
X200060000Y-55691526D01*
X200492203Y-55605556D01*
X200858606Y-55360732D01*
X201103430Y-54994329D01*
X201189400Y-54562126D01*
X201189400Y-54517874D01*
X201470600Y-54517874D01*
X201470600Y-54562126D01*
X201556570Y-54994329D01*
X201801394Y-55360732D01*
X202167797Y-55605556D01*
X202600000Y-55691526D01*
X203032203Y-55605556D01*
X203398606Y-55360732D01*
X203643430Y-54994329D01*
X203729400Y-54562126D01*
X203729400Y-54517874D01*
X204010600Y-54517874D01*
X204010600Y-54562126D01*
X204096570Y-54994329D01*
X204341394Y-55360732D01*
X204707797Y-55605556D01*
X205140000Y-55691526D01*
X205572203Y-55605556D01*
X205938606Y-55360732D01*
X206183430Y-54994329D01*
X206269400Y-54562126D01*
X206269400Y-54517874D01*
X206550600Y-54517874D01*
X206550600Y-54562126D01*
X206636570Y-54994329D01*
X206881394Y-55360732D01*
X207247797Y-55605556D01*
X207680000Y-55691526D01*
X208112203Y-55605556D01*
X208478606Y-55360732D01*
X208723430Y-54994329D01*
X208809400Y-54562126D01*
X208809400Y-54517874D01*
X209090600Y-54517874D01*
X209090600Y-54562126D01*
X209176570Y-54994329D01*
X209421394Y-55360732D01*
X209787797Y-55605556D01*
X210220000Y-55691526D01*
X210652203Y-55605556D01*
X211018606Y-55360732D01*
X211263430Y-54994329D01*
X211295521Y-54832995D01*
X211721944Y-54832995D01*
X211913086Y-55207939D01*
X212233163Y-55481195D01*
X212467007Y-55578043D01*
X212633000Y-55553524D01*
X212633000Y-54667000D01*
X212887000Y-54667000D01*
X212887000Y-55553524D01*
X213052993Y-55578043D01*
X213286837Y-55481195D01*
X213606914Y-55207939D01*
X213798056Y-54832995D01*
X213773960Y-54667000D01*
X212887000Y-54667000D01*
X212633000Y-54667000D01*
X211746040Y-54667000D01*
X211721944Y-54832995D01*
X211295521Y-54832995D01*
X211349400Y-54562126D01*
X211349400Y-54517874D01*
X211295522Y-54247005D01*
X211721944Y-54247005D01*
X211746040Y-54413000D01*
X212633000Y-54413000D01*
X212633000Y-53526476D01*
X212887000Y-53526476D01*
X212887000Y-54413000D01*
X213773960Y-54413000D01*
X213798056Y-54247005D01*
X213606914Y-53872061D01*
X213286837Y-53598805D01*
X213052993Y-53501957D01*
X212887000Y-53526476D01*
X212633000Y-53526476D01*
X212467007Y-53501957D01*
X212233163Y-53598805D01*
X211913086Y-53872061D01*
X211721944Y-54247005D01*
X211295522Y-54247005D01*
X211263430Y-54085671D01*
X211018606Y-53719268D01*
X210652203Y-53474444D01*
X210220000Y-53388474D01*
X209787797Y-53474444D01*
X209421394Y-53719268D01*
X209176570Y-54085671D01*
X209090600Y-54517874D01*
X208809400Y-54517874D01*
X208723430Y-54085671D01*
X208478606Y-53719268D01*
X208112203Y-53474444D01*
X207680000Y-53388474D01*
X207247797Y-53474444D01*
X206881394Y-53719268D01*
X206636570Y-54085671D01*
X206550600Y-54517874D01*
X206269400Y-54517874D01*
X206183430Y-54085671D01*
X205938606Y-53719268D01*
X205572203Y-53474444D01*
X205140000Y-53388474D01*
X204707797Y-53474444D01*
X204341394Y-53719268D01*
X204096570Y-54085671D01*
X204010600Y-54517874D01*
X203729400Y-54517874D01*
X203643430Y-54085671D01*
X203398606Y-53719268D01*
X203032203Y-53474444D01*
X202600000Y-53388474D01*
X202167797Y-53474444D01*
X201801394Y-53719268D01*
X201556570Y-54085671D01*
X201470600Y-54517874D01*
X201189400Y-54517874D01*
X201103430Y-54085671D01*
X200858606Y-53719268D01*
X200492203Y-53474444D01*
X200060000Y-53388474D01*
X199627797Y-53474444D01*
X199261394Y-53719268D01*
X199016570Y-54085671D01*
X198930600Y-54517874D01*
X198649400Y-54517874D01*
X198563430Y-54085671D01*
X198318606Y-53719268D01*
X197952203Y-53474444D01*
X197520000Y-53388474D01*
X197087797Y-53474444D01*
X196721394Y-53719268D01*
X196476570Y-54085671D01*
X196390600Y-54517874D01*
X193569400Y-54517874D01*
X193515522Y-54247005D01*
X193941944Y-54247005D01*
X193966040Y-54413000D01*
X194853000Y-54413000D01*
X194853000Y-53526476D01*
X195107000Y-53526476D01*
X195107000Y-54413000D01*
X195993960Y-54413000D01*
X196018056Y-54247005D01*
X195826914Y-53872061D01*
X195506837Y-53598805D01*
X195272993Y-53501957D01*
X195107000Y-53526476D01*
X194853000Y-53526476D01*
X194687007Y-53501957D01*
X194453163Y-53598805D01*
X194133086Y-53872061D01*
X193941944Y-54247005D01*
X193515522Y-54247005D01*
X193483430Y-54085671D01*
X193238606Y-53719268D01*
X192872203Y-53474444D01*
X192440000Y-53388474D01*
X192007797Y-53474444D01*
X191641394Y-53719268D01*
X191396570Y-54085671D01*
X191310600Y-54517874D01*
X191029400Y-54517874D01*
X190943430Y-54085671D01*
X190698606Y-53719268D01*
X190332203Y-53474444D01*
X189900000Y-53388474D01*
X189467797Y-53474444D01*
X189101394Y-53719268D01*
X188856570Y-54085671D01*
X188770600Y-54517874D01*
X188489400Y-54517874D01*
X188403430Y-54085671D01*
X188158606Y-53719268D01*
X187792203Y-53474444D01*
X187360000Y-53388474D01*
X186927797Y-53474444D01*
X186561394Y-53719268D01*
X186316570Y-54085671D01*
X186230600Y-54517874D01*
X185949400Y-54517874D01*
X185863430Y-54085671D01*
X185618606Y-53719268D01*
X185252203Y-53474444D01*
X184820000Y-53388474D01*
X184387797Y-53474444D01*
X184021394Y-53719268D01*
X183776570Y-54085671D01*
X183690600Y-54517874D01*
X183409400Y-54517874D01*
X183323430Y-54085671D01*
X183078606Y-53719268D01*
X182712203Y-53474444D01*
X182280000Y-53388474D01*
X181847797Y-53474444D01*
X181481394Y-53719268D01*
X181236570Y-54085671D01*
X181150600Y-54517874D01*
X180869400Y-54517874D01*
X180783430Y-54085671D01*
X180538606Y-53719268D01*
X180172203Y-53474444D01*
X179740000Y-53388474D01*
X179307797Y-53474444D01*
X178941394Y-53719268D01*
X178696570Y-54085671D01*
X178610600Y-54517874D01*
X178329400Y-54517874D01*
X178243430Y-54085671D01*
X177998606Y-53719268D01*
X177632203Y-53474444D01*
X177200000Y-53388474D01*
X176767797Y-53474444D01*
X176401394Y-53719268D01*
X176156570Y-54085671D01*
X176070600Y-54517874D01*
X173249400Y-54517874D01*
X173195522Y-54247005D01*
X173621944Y-54247005D01*
X173646040Y-54413000D01*
X174533000Y-54413000D01*
X174533000Y-53526476D01*
X174787000Y-53526476D01*
X174787000Y-54413000D01*
X175673960Y-54413000D01*
X175698056Y-54247005D01*
X175506914Y-53872061D01*
X175186837Y-53598805D01*
X174952993Y-53501957D01*
X174787000Y-53526476D01*
X174533000Y-53526476D01*
X174367007Y-53501957D01*
X174133163Y-53598805D01*
X173813086Y-53872061D01*
X173621944Y-54247005D01*
X173195522Y-54247005D01*
X173163430Y-54085671D01*
X172918606Y-53719268D01*
X172552203Y-53474444D01*
X172120000Y-53388474D01*
X171687797Y-53474444D01*
X171321394Y-53719268D01*
X171076570Y-54085671D01*
X170990600Y-54517874D01*
X170709400Y-54517874D01*
X170623430Y-54085671D01*
X170378606Y-53719268D01*
X170012203Y-53474444D01*
X169580000Y-53388474D01*
X169147797Y-53474444D01*
X168781394Y-53719268D01*
X168536570Y-54085671D01*
X168450600Y-54517874D01*
X168169400Y-54517874D01*
X168083430Y-54085671D01*
X167838606Y-53719268D01*
X167472203Y-53474444D01*
X167040000Y-53388474D01*
X166607797Y-53474444D01*
X166241394Y-53719268D01*
X165996570Y-54085671D01*
X165910600Y-54517874D01*
X165629400Y-54517874D01*
X165543430Y-54085671D01*
X165298606Y-53719268D01*
X164932203Y-53474444D01*
X164500000Y-53388474D01*
X164067797Y-53474444D01*
X163701394Y-53719268D01*
X163456570Y-54085671D01*
X163370600Y-54517874D01*
X156303600Y-54517874D01*
X156303600Y-45822686D01*
X157870318Y-45822686D01*
X158117856Y-46421775D01*
X158575814Y-46880533D01*
X159174470Y-47129117D01*
X159822686Y-47129682D01*
X160421775Y-46882144D01*
X160880533Y-46424186D01*
X161129117Y-45825530D01*
X161129470Y-45420000D01*
X163235127Y-45420000D01*
X163235127Y-47120000D01*
X163254609Y-47223539D01*
X163315801Y-47318634D01*
X163409168Y-47382429D01*
X163520000Y-47404873D01*
X165220000Y-47404873D01*
X165303200Y-47389218D01*
X165303200Y-50586142D01*
X165024215Y-50865127D01*
X163650000Y-50865127D01*
X163546461Y-50884609D01*
X163451366Y-50945801D01*
X163387571Y-51039168D01*
X163365127Y-51150000D01*
X163365127Y-52850000D01*
X163384609Y-52953539D01*
X163445801Y-53048634D01*
X163539168Y-53112429D01*
X163650000Y-53134873D01*
X165350000Y-53134873D01*
X165453539Y-53115391D01*
X165548634Y-53054199D01*
X165612429Y-52960832D01*
X165634873Y-52850000D01*
X165634873Y-51475785D01*
X166040329Y-51070329D01*
X166061150Y-51039168D01*
X166133931Y-50930243D01*
X166143008Y-50884609D01*
X166166801Y-50765000D01*
X166166800Y-50764995D01*
X166166800Y-47127753D01*
X166477797Y-47335556D01*
X166910000Y-47421526D01*
X167342203Y-47335556D01*
X167708606Y-47090732D01*
X167716200Y-47079367D01*
X167716200Y-50713143D01*
X167485808Y-50943535D01*
X167472203Y-50934444D01*
X167040000Y-50848474D01*
X166607797Y-50934444D01*
X166241394Y-51179268D01*
X165996570Y-51545671D01*
X165910600Y-51977874D01*
X165910600Y-52022126D01*
X165996570Y-52454329D01*
X166241394Y-52820732D01*
X166607797Y-53065556D01*
X167040000Y-53151526D01*
X167472203Y-53065556D01*
X167838606Y-52820732D01*
X168083430Y-52454329D01*
X168115521Y-52292995D01*
X168541944Y-52292995D01*
X168733086Y-52667939D01*
X169053163Y-52941195D01*
X169287007Y-53038043D01*
X169453000Y-53013524D01*
X169453000Y-52127000D01*
X169707000Y-52127000D01*
X169707000Y-53013524D01*
X169872993Y-53038043D01*
X170106837Y-52941195D01*
X170426914Y-52667939D01*
X170618056Y-52292995D01*
X170593960Y-52127000D01*
X169707000Y-52127000D01*
X169453000Y-52127000D01*
X168566040Y-52127000D01*
X168541944Y-52292995D01*
X168115521Y-52292995D01*
X168169400Y-52022126D01*
X168169400Y-51977874D01*
X168115521Y-51707005D01*
X168541944Y-51707005D01*
X168566040Y-51873000D01*
X169453000Y-51873000D01*
X169453000Y-50986476D01*
X169707000Y-50986476D01*
X169707000Y-51873000D01*
X170593960Y-51873000D01*
X170618056Y-51707005D01*
X170426914Y-51332061D01*
X170106837Y-51058805D01*
X169872993Y-50961957D01*
X169707000Y-50986476D01*
X169453000Y-50986476D01*
X169287007Y-50961957D01*
X169053163Y-51058805D01*
X168733086Y-51332061D01*
X168541944Y-51707005D01*
X168115521Y-51707005D01*
X168087006Y-51563651D01*
X168453326Y-51197331D01*
X168453329Y-51197329D01*
X168538187Y-51070329D01*
X168546932Y-51057242D01*
X168579801Y-50892000D01*
X168579800Y-50891995D01*
X168579800Y-46983585D01*
X168651394Y-47090732D01*
X169017797Y-47335556D01*
X169450000Y-47421526D01*
X169882203Y-47335556D01*
X170248606Y-47090732D01*
X170493430Y-46724329D01*
X170579400Y-46292126D01*
X170579400Y-46247874D01*
X170493430Y-45815671D01*
X170248606Y-45449268D01*
X169882203Y-45204444D01*
X169450000Y-45118474D01*
X169017797Y-45204444D01*
X168651394Y-45449268D01*
X168579800Y-45556415D01*
X168579800Y-44968000D01*
X168546931Y-44802757D01*
X168453329Y-44662671D01*
X168453326Y-44662669D01*
X167957006Y-44166349D01*
X167985520Y-44022995D01*
X168411944Y-44022995D01*
X168603086Y-44397939D01*
X168923163Y-44671195D01*
X169157007Y-44768043D01*
X169323000Y-44743524D01*
X169323000Y-43857000D01*
X169577000Y-43857000D01*
X169577000Y-44743524D01*
X169742993Y-44768043D01*
X169976837Y-44671195D01*
X170296914Y-44397939D01*
X170488056Y-44022995D01*
X170463960Y-43857000D01*
X169577000Y-43857000D01*
X169323000Y-43857000D01*
X168436040Y-43857000D01*
X168411944Y-44022995D01*
X167985520Y-44022995D01*
X168039400Y-43752126D01*
X168039400Y-43707874D01*
X170860600Y-43707874D01*
X170860600Y-43752126D01*
X170946570Y-44184329D01*
X171191394Y-44550732D01*
X171557797Y-44795556D01*
X171990000Y-44881526D01*
X172422203Y-44795556D01*
X172435808Y-44786465D01*
X172923200Y-45273857D01*
X172923200Y-45650701D01*
X172788606Y-45449268D01*
X172422203Y-45204444D01*
X171990000Y-45118474D01*
X171557797Y-45204444D01*
X171191394Y-45449268D01*
X170946570Y-45815671D01*
X170860600Y-46247874D01*
X170860600Y-46292126D01*
X170946570Y-46724329D01*
X171191394Y-47090732D01*
X171557797Y-47335556D01*
X171990000Y-47421526D01*
X172422203Y-47335556D01*
X172788606Y-47090732D01*
X172923200Y-46889299D01*
X172923200Y-50586142D01*
X172565808Y-50943534D01*
X172552203Y-50934444D01*
X172120000Y-50848474D01*
X171687797Y-50934444D01*
X171321394Y-51179268D01*
X171076570Y-51545671D01*
X170990600Y-51977874D01*
X170990600Y-52022126D01*
X171076570Y-52454329D01*
X171321394Y-52820732D01*
X171687797Y-53065556D01*
X172120000Y-53151526D01*
X172552203Y-53065556D01*
X172918606Y-52820732D01*
X173163430Y-52454329D01*
X173249400Y-52022126D01*
X173249400Y-51977874D01*
X173167007Y-51563651D01*
X173660329Y-51070329D01*
X173681150Y-51039168D01*
X173753931Y-50930243D01*
X173763008Y-50884609D01*
X173786801Y-50765000D01*
X173786800Y-50764995D01*
X173786800Y-47026482D01*
X174003163Y-47211195D01*
X174237007Y-47308043D01*
X174403000Y-47283524D01*
X174403000Y-46397000D01*
X174383000Y-46397000D01*
X174383000Y-46143000D01*
X174403000Y-46143000D01*
X174403000Y-45256476D01*
X174237007Y-45231957D01*
X174003163Y-45328805D01*
X173786800Y-45513518D01*
X173786800Y-45095005D01*
X173786801Y-45095000D01*
X173753932Y-44929758D01*
X173721704Y-44881526D01*
X173660329Y-44789671D01*
X173660326Y-44789669D01*
X173037006Y-44166349D01*
X173119400Y-43752126D01*
X173119400Y-43707874D01*
X173400600Y-43707874D01*
X173400600Y-43752126D01*
X173486570Y-44184329D01*
X173731394Y-44550732D01*
X174097797Y-44795556D01*
X174530000Y-44881526D01*
X174962203Y-44795556D01*
X174975808Y-44786465D01*
X175336200Y-45146857D01*
X175336200Y-45567303D01*
X175056837Y-45328805D01*
X174822993Y-45231957D01*
X174657000Y-45256476D01*
X174657000Y-46143000D01*
X174677000Y-46143000D01*
X174677000Y-46397000D01*
X174657000Y-46397000D01*
X174657000Y-47283524D01*
X174822993Y-47308043D01*
X175056837Y-47211195D01*
X175336200Y-46972697D01*
X175336200Y-50713143D01*
X175105808Y-50943535D01*
X175092203Y-50934444D01*
X174660000Y-50848474D01*
X174227797Y-50934444D01*
X173861394Y-51179268D01*
X173616570Y-51545671D01*
X173530600Y-51977874D01*
X173530600Y-52022126D01*
X173616570Y-52454329D01*
X173861394Y-52820732D01*
X174227797Y-53065556D01*
X174660000Y-53151526D01*
X175092203Y-53065556D01*
X175458606Y-52820732D01*
X175703430Y-52454329D01*
X175789400Y-52022126D01*
X175789400Y-51977874D01*
X175707006Y-51563651D01*
X176073326Y-51197331D01*
X176073329Y-51197329D01*
X176158187Y-51070329D01*
X176166932Y-51057242D01*
X176199801Y-50892000D01*
X176199800Y-50891995D01*
X176199800Y-46983585D01*
X176271394Y-47090732D01*
X176637797Y-47335556D01*
X177070000Y-47421526D01*
X177502203Y-47335556D01*
X177868606Y-47090732D01*
X178003200Y-46889299D01*
X178003200Y-50586142D01*
X177645808Y-50943534D01*
X177632203Y-50934444D01*
X177200000Y-50848474D01*
X176767797Y-50934444D01*
X176401394Y-51179268D01*
X176156570Y-51545671D01*
X176070600Y-51977874D01*
X176070600Y-52022126D01*
X176156570Y-52454329D01*
X176401394Y-52820732D01*
X176767797Y-53065556D01*
X177200000Y-53151526D01*
X177632203Y-53065556D01*
X177998606Y-52820732D01*
X178243430Y-52454329D01*
X178275521Y-52292995D01*
X178701944Y-52292995D01*
X178893086Y-52667939D01*
X179213163Y-52941195D01*
X179447007Y-53038043D01*
X179613000Y-53013524D01*
X179613000Y-52127000D01*
X179867000Y-52127000D01*
X179867000Y-53013524D01*
X180032993Y-53038043D01*
X180266837Y-52941195D01*
X180586914Y-52667939D01*
X180778056Y-52292995D01*
X180753960Y-52127000D01*
X179867000Y-52127000D01*
X179613000Y-52127000D01*
X178726040Y-52127000D01*
X178701944Y-52292995D01*
X178275521Y-52292995D01*
X178329400Y-52022126D01*
X178329400Y-51977874D01*
X178275522Y-51707005D01*
X178701944Y-51707005D01*
X178726040Y-51873000D01*
X179613000Y-51873000D01*
X179613000Y-50986476D01*
X179867000Y-50986476D01*
X179867000Y-51873000D01*
X180753960Y-51873000D01*
X180778056Y-51707005D01*
X180586914Y-51332061D01*
X180266837Y-51058805D01*
X180032993Y-50961957D01*
X179867000Y-50986476D01*
X179613000Y-50986476D01*
X179447007Y-50961957D01*
X179213163Y-51058805D01*
X178893086Y-51332061D01*
X178701944Y-51707005D01*
X178275522Y-51707005D01*
X178247007Y-51563651D01*
X178740329Y-51070329D01*
X178761150Y-51039168D01*
X178833931Y-50930243D01*
X178843008Y-50884609D01*
X178866801Y-50765000D01*
X178866800Y-50764995D01*
X178866800Y-47127753D01*
X179177797Y-47335556D01*
X179610000Y-47421526D01*
X180042203Y-47335556D01*
X180408606Y-47090732D01*
X180653430Y-46724329D01*
X180739400Y-46292126D01*
X180739400Y-46247874D01*
X180653430Y-45815671D01*
X180408606Y-45449268D01*
X180042203Y-45204444D01*
X179610000Y-45118474D01*
X179177797Y-45204444D01*
X178866800Y-45412247D01*
X178866800Y-45095005D01*
X178866801Y-45095000D01*
X178833932Y-44929758D01*
X178801704Y-44881526D01*
X178740329Y-44789671D01*
X178740326Y-44789669D01*
X178117006Y-44166349D01*
X178145520Y-44022995D01*
X178571944Y-44022995D01*
X178763086Y-44397939D01*
X179083163Y-44671195D01*
X179317007Y-44768043D01*
X179483000Y-44743524D01*
X179483000Y-43857000D01*
X179737000Y-43857000D01*
X179737000Y-44743524D01*
X179902993Y-44768043D01*
X180136837Y-44671195D01*
X180456914Y-44397939D01*
X180648056Y-44022995D01*
X180623960Y-43857000D01*
X179737000Y-43857000D01*
X179483000Y-43857000D01*
X178596040Y-43857000D01*
X178571944Y-44022995D01*
X178145520Y-44022995D01*
X178199400Y-43752126D01*
X178199400Y-43707874D01*
X181020600Y-43707874D01*
X181020600Y-43752126D01*
X181106570Y-44184329D01*
X181351394Y-44550732D01*
X181717797Y-44795556D01*
X182150000Y-44881526D01*
X182582203Y-44795556D01*
X182595808Y-44786465D01*
X182956200Y-45146857D01*
X182956200Y-45460633D01*
X182948606Y-45449268D01*
X182582203Y-45204444D01*
X182150000Y-45118474D01*
X181717797Y-45204444D01*
X181351394Y-45449268D01*
X181106570Y-45815671D01*
X181020600Y-46247874D01*
X181020600Y-46292126D01*
X181106570Y-46724329D01*
X181351394Y-47090732D01*
X181717797Y-47335556D01*
X182150000Y-47421526D01*
X182582203Y-47335556D01*
X182948606Y-47090732D01*
X182956200Y-47079367D01*
X182956200Y-50713143D01*
X182725808Y-50943535D01*
X182712203Y-50934444D01*
X182280000Y-50848474D01*
X181847797Y-50934444D01*
X181481394Y-51179268D01*
X181236570Y-51545671D01*
X181150600Y-51977874D01*
X181150600Y-52022126D01*
X181236570Y-52454329D01*
X181481394Y-52820732D01*
X181847797Y-53065556D01*
X182280000Y-53151526D01*
X182712203Y-53065556D01*
X183078606Y-52820732D01*
X183323430Y-52454329D01*
X183409400Y-52022126D01*
X183409400Y-51977874D01*
X183327006Y-51563651D01*
X183693326Y-51197331D01*
X183693329Y-51197329D01*
X183778187Y-51070329D01*
X183786932Y-51057242D01*
X183819801Y-50892000D01*
X183819800Y-50891995D01*
X183819800Y-46983585D01*
X183891394Y-47090732D01*
X184257797Y-47335556D01*
X184690000Y-47421526D01*
X185122203Y-47335556D01*
X185488606Y-47090732D01*
X185496200Y-47079367D01*
X185496200Y-50713143D01*
X185265808Y-50943535D01*
X185252203Y-50934444D01*
X184820000Y-50848474D01*
X184387797Y-50934444D01*
X184021394Y-51179268D01*
X183776570Y-51545671D01*
X183690600Y-51977874D01*
X183690600Y-52022126D01*
X183776570Y-52454329D01*
X184021394Y-52820732D01*
X184387797Y-53065556D01*
X184820000Y-53151526D01*
X185252203Y-53065556D01*
X185618606Y-52820732D01*
X185863430Y-52454329D01*
X185895521Y-52292995D01*
X186321944Y-52292995D01*
X186513086Y-52667939D01*
X186833163Y-52941195D01*
X187067007Y-53038043D01*
X187233000Y-53013524D01*
X187233000Y-52127000D01*
X187487000Y-52127000D01*
X187487000Y-53013524D01*
X187652993Y-53038043D01*
X187886837Y-52941195D01*
X188206914Y-52667939D01*
X188398056Y-52292995D01*
X188373960Y-52127000D01*
X187487000Y-52127000D01*
X187233000Y-52127000D01*
X186346040Y-52127000D01*
X186321944Y-52292995D01*
X185895521Y-52292995D01*
X185949400Y-52022126D01*
X185949400Y-51977874D01*
X185895521Y-51707005D01*
X186321944Y-51707005D01*
X186346040Y-51873000D01*
X187233000Y-51873000D01*
X187233000Y-50986476D01*
X187487000Y-50986476D01*
X187487000Y-51873000D01*
X188373960Y-51873000D01*
X188398056Y-51707005D01*
X188206914Y-51332061D01*
X187886837Y-51058805D01*
X187652993Y-50961957D01*
X187487000Y-50986476D01*
X187233000Y-50986476D01*
X187067007Y-50961957D01*
X186833163Y-51058805D01*
X186513086Y-51332061D01*
X186321944Y-51707005D01*
X185895521Y-51707005D01*
X185867006Y-51563651D01*
X186233326Y-51197331D01*
X186233329Y-51197329D01*
X186318187Y-51070329D01*
X186326932Y-51057242D01*
X186359801Y-50892000D01*
X186359800Y-50891995D01*
X186359800Y-46983585D01*
X186431394Y-47090732D01*
X186797797Y-47335556D01*
X187230000Y-47421526D01*
X187662203Y-47335556D01*
X188028606Y-47090732D01*
X188273430Y-46724329D01*
X188359400Y-46292126D01*
X188359400Y-46247874D01*
X188273430Y-45815671D01*
X188028606Y-45449268D01*
X187662203Y-45204444D01*
X187230000Y-45118474D01*
X186797797Y-45204444D01*
X186431394Y-45449268D01*
X186359800Y-45556415D01*
X186359800Y-44968000D01*
X186326931Y-44802757D01*
X186233329Y-44662671D01*
X186233326Y-44662669D01*
X185737006Y-44166349D01*
X185765520Y-44022995D01*
X186191944Y-44022995D01*
X186383086Y-44397939D01*
X186703163Y-44671195D01*
X186937007Y-44768043D01*
X187103000Y-44743524D01*
X187103000Y-43857000D01*
X187357000Y-43857000D01*
X187357000Y-44743524D01*
X187522993Y-44768043D01*
X187756837Y-44671195D01*
X188076914Y-44397939D01*
X188268056Y-44022995D01*
X188243960Y-43857000D01*
X187357000Y-43857000D01*
X187103000Y-43857000D01*
X186216040Y-43857000D01*
X186191944Y-44022995D01*
X185765520Y-44022995D01*
X185819400Y-43752126D01*
X185819400Y-43707874D01*
X188640600Y-43707874D01*
X188640600Y-43752126D01*
X188726570Y-44184329D01*
X188971394Y-44550732D01*
X189337797Y-44795556D01*
X189770000Y-44881526D01*
X190202203Y-44795556D01*
X190215808Y-44786465D01*
X190576200Y-45146857D01*
X190576200Y-45460633D01*
X190568606Y-45449268D01*
X190202203Y-45204444D01*
X189770000Y-45118474D01*
X189337797Y-45204444D01*
X188971394Y-45449268D01*
X188726570Y-45815671D01*
X188640600Y-46247874D01*
X188640600Y-46292126D01*
X188726570Y-46724329D01*
X188971394Y-47090732D01*
X189337797Y-47335556D01*
X189770000Y-47421526D01*
X190202203Y-47335556D01*
X190568606Y-47090732D01*
X190576200Y-47079367D01*
X190576200Y-50713143D01*
X190345808Y-50943535D01*
X190332203Y-50934444D01*
X189900000Y-50848474D01*
X189467797Y-50934444D01*
X189101394Y-51179268D01*
X188856570Y-51545671D01*
X188770600Y-51977874D01*
X188770600Y-52022126D01*
X188856570Y-52454329D01*
X189101394Y-52820732D01*
X189467797Y-53065556D01*
X189900000Y-53151526D01*
X190332203Y-53065556D01*
X190698606Y-52820732D01*
X190943430Y-52454329D01*
X191029400Y-52022126D01*
X191029400Y-51977874D01*
X190947006Y-51563651D01*
X191313326Y-51197331D01*
X191313329Y-51197329D01*
X191398187Y-51070329D01*
X191406932Y-51057242D01*
X191439801Y-50892000D01*
X191439800Y-50891995D01*
X191439800Y-46983585D01*
X191511394Y-47090732D01*
X191877797Y-47335556D01*
X192310000Y-47421526D01*
X192742203Y-47335556D01*
X193108606Y-47090732D01*
X193116200Y-47079367D01*
X193116200Y-50713143D01*
X192885808Y-50943535D01*
X192872203Y-50934444D01*
X192440000Y-50848474D01*
X192007797Y-50934444D01*
X191641394Y-51179268D01*
X191396570Y-51545671D01*
X191310600Y-51977874D01*
X191310600Y-52022126D01*
X191396570Y-52454329D01*
X191641394Y-52820732D01*
X192007797Y-53065556D01*
X192440000Y-53151526D01*
X192872203Y-53065556D01*
X193238606Y-52820732D01*
X193483430Y-52454329D01*
X193569400Y-52022126D01*
X193569400Y-51977874D01*
X193487006Y-51563651D01*
X193853326Y-51197331D01*
X193853329Y-51197329D01*
X193938187Y-51070329D01*
X193946932Y-51057242D01*
X193979801Y-50892000D01*
X193979800Y-50891995D01*
X193979800Y-46892261D01*
X194003086Y-46937939D01*
X194323163Y-47211195D01*
X194557007Y-47308043D01*
X194723000Y-47283524D01*
X194723000Y-46397000D01*
X194703000Y-46397000D01*
X194703000Y-46143000D01*
X194723000Y-46143000D01*
X194723000Y-45256476D01*
X194557007Y-45231957D01*
X194323163Y-45328805D01*
X194003086Y-45602061D01*
X193979800Y-45647739D01*
X193979800Y-44968000D01*
X193946931Y-44802757D01*
X193853329Y-44662671D01*
X193853326Y-44662669D01*
X193357006Y-44166349D01*
X193439400Y-43752126D01*
X193439400Y-43707874D01*
X193720600Y-43707874D01*
X193720600Y-43752126D01*
X193806570Y-44184329D01*
X194051394Y-44550732D01*
X194417797Y-44795556D01*
X194850000Y-44881526D01*
X195282203Y-44795556D01*
X195295808Y-44786465D01*
X195656200Y-45146857D01*
X195656200Y-45567303D01*
X195376837Y-45328805D01*
X195142993Y-45231957D01*
X194977000Y-45256476D01*
X194977000Y-46143000D01*
X194997000Y-46143000D01*
X194997000Y-46397000D01*
X194977000Y-46397000D01*
X194977000Y-47283524D01*
X195142993Y-47308043D01*
X195376837Y-47211195D01*
X195656200Y-46972697D01*
X195656200Y-50713143D01*
X195425808Y-50943535D01*
X195412203Y-50934444D01*
X194980000Y-50848474D01*
X194547797Y-50934444D01*
X194181394Y-51179268D01*
X193936570Y-51545671D01*
X193850600Y-51977874D01*
X193850600Y-52022126D01*
X193936570Y-52454329D01*
X194181394Y-52820732D01*
X194547797Y-53065556D01*
X194980000Y-53151526D01*
X195412203Y-53065556D01*
X195778606Y-52820732D01*
X196023430Y-52454329D01*
X196109400Y-52022126D01*
X196109400Y-51977874D01*
X196390600Y-51977874D01*
X196390600Y-52022126D01*
X196476570Y-52454329D01*
X196721394Y-52820732D01*
X197087797Y-53065556D01*
X197520000Y-53151526D01*
X197952203Y-53065556D01*
X198318606Y-52820732D01*
X198563430Y-52454329D01*
X198595521Y-52292995D01*
X199021944Y-52292995D01*
X199213086Y-52667939D01*
X199533163Y-52941195D01*
X199767007Y-53038043D01*
X199933000Y-53013524D01*
X199933000Y-52127000D01*
X200187000Y-52127000D01*
X200187000Y-53013524D01*
X200352993Y-53038043D01*
X200586837Y-52941195D01*
X200906914Y-52667939D01*
X201098056Y-52292995D01*
X201073960Y-52127000D01*
X200187000Y-52127000D01*
X199933000Y-52127000D01*
X199046040Y-52127000D01*
X199021944Y-52292995D01*
X198595521Y-52292995D01*
X198649400Y-52022126D01*
X198649400Y-51977874D01*
X198595522Y-51707005D01*
X199021944Y-51707005D01*
X199046040Y-51873000D01*
X199933000Y-51873000D01*
X199933000Y-50986476D01*
X200187000Y-50986476D01*
X200187000Y-51873000D01*
X201073960Y-51873000D01*
X201098056Y-51707005D01*
X200906914Y-51332061D01*
X200586837Y-51058805D01*
X200352993Y-50961957D01*
X200187000Y-50986476D01*
X199933000Y-50986476D01*
X199767007Y-50961957D01*
X199533163Y-51058805D01*
X199213086Y-51332061D01*
X199021944Y-51707005D01*
X198595522Y-51707005D01*
X198563430Y-51545671D01*
X198318606Y-51179268D01*
X197952203Y-50934444D01*
X197520000Y-50848474D01*
X197087797Y-50934444D01*
X196721394Y-51179268D01*
X196476570Y-51545671D01*
X196390600Y-51977874D01*
X196109400Y-51977874D01*
X196027006Y-51563651D01*
X196393326Y-51197331D01*
X196393329Y-51197329D01*
X196478187Y-51070329D01*
X196486932Y-51057242D01*
X196519801Y-50892000D01*
X196519800Y-50891995D01*
X196519800Y-46983585D01*
X196591394Y-47090732D01*
X196957797Y-47335556D01*
X197390000Y-47421526D01*
X197822203Y-47335556D01*
X198188606Y-47090732D01*
X198433430Y-46724329D01*
X198519400Y-46292126D01*
X198519400Y-46247874D01*
X198800600Y-46247874D01*
X198800600Y-46292126D01*
X198886570Y-46724329D01*
X199131394Y-47090732D01*
X199497797Y-47335556D01*
X199930000Y-47421526D01*
X200362203Y-47335556D01*
X200728606Y-47090732D01*
X200973430Y-46724329D01*
X201059400Y-46292126D01*
X201059400Y-46247874D01*
X200973430Y-45815671D01*
X200728606Y-45449268D01*
X200362203Y-45204444D01*
X199930000Y-45118474D01*
X199497797Y-45204444D01*
X199131394Y-45449268D01*
X198886570Y-45815671D01*
X198800600Y-46247874D01*
X198519400Y-46247874D01*
X198433430Y-45815671D01*
X198188606Y-45449268D01*
X197822203Y-45204444D01*
X197390000Y-45118474D01*
X196957797Y-45204444D01*
X196591394Y-45449268D01*
X196519800Y-45556415D01*
X196519800Y-44968000D01*
X196486931Y-44802757D01*
X196393329Y-44662671D01*
X196393326Y-44662669D01*
X195897006Y-44166349D01*
X195979400Y-43752126D01*
X195979400Y-43707874D01*
X196260600Y-43707874D01*
X196260600Y-43752126D01*
X196346570Y-44184329D01*
X196591394Y-44550732D01*
X196957797Y-44795556D01*
X197390000Y-44881526D01*
X197822203Y-44795556D01*
X198188606Y-44550732D01*
X198433430Y-44184329D01*
X198465521Y-44022995D01*
X198891944Y-44022995D01*
X199083086Y-44397939D01*
X199403163Y-44671195D01*
X199637007Y-44768043D01*
X199803000Y-44743524D01*
X199803000Y-43857000D01*
X200057000Y-43857000D01*
X200057000Y-44743524D01*
X200222993Y-44768043D01*
X200456837Y-44671195D01*
X200776914Y-44397939D01*
X200968056Y-44022995D01*
X200943960Y-43857000D01*
X200057000Y-43857000D01*
X199803000Y-43857000D01*
X198916040Y-43857000D01*
X198891944Y-44022995D01*
X198465521Y-44022995D01*
X198519400Y-43752126D01*
X198519400Y-43707874D01*
X201340600Y-43707874D01*
X201340600Y-43752126D01*
X201426570Y-44184329D01*
X201671394Y-44550732D01*
X202037797Y-44795556D01*
X202470000Y-44881526D01*
X202902203Y-44795556D01*
X202915808Y-44786465D01*
X203276200Y-45146857D01*
X203276200Y-45460633D01*
X203268606Y-45449268D01*
X202902203Y-45204444D01*
X202470000Y-45118474D01*
X202037797Y-45204444D01*
X201671394Y-45449268D01*
X201426570Y-45815671D01*
X201340600Y-46247874D01*
X201340600Y-46292126D01*
X201426570Y-46724329D01*
X201671394Y-47090732D01*
X202037797Y-47335556D01*
X202470000Y-47421526D01*
X202902203Y-47335556D01*
X203268606Y-47090732D01*
X203276200Y-47079367D01*
X203276200Y-50713143D01*
X203045808Y-50943535D01*
X203032203Y-50934444D01*
X202600000Y-50848474D01*
X202167797Y-50934444D01*
X201801394Y-51179268D01*
X201556570Y-51545671D01*
X201470600Y-51977874D01*
X201470600Y-52022126D01*
X201556570Y-52454329D01*
X201801394Y-52820732D01*
X202167797Y-53065556D01*
X202600000Y-53151526D01*
X203032203Y-53065556D01*
X203398606Y-52820732D01*
X203643430Y-52454329D01*
X203675521Y-52292995D01*
X204101944Y-52292995D01*
X204293086Y-52667939D01*
X204613163Y-52941195D01*
X204847007Y-53038043D01*
X205013000Y-53013524D01*
X205013000Y-52127000D01*
X205267000Y-52127000D01*
X205267000Y-53013524D01*
X205432993Y-53038043D01*
X205666837Y-52941195D01*
X205986914Y-52667939D01*
X206178056Y-52292995D01*
X206153960Y-52127000D01*
X205267000Y-52127000D01*
X205013000Y-52127000D01*
X204126040Y-52127000D01*
X204101944Y-52292995D01*
X203675521Y-52292995D01*
X203729400Y-52022126D01*
X203729400Y-51977874D01*
X203675521Y-51707005D01*
X204101944Y-51707005D01*
X204126040Y-51873000D01*
X205013000Y-51873000D01*
X205013000Y-50986476D01*
X205267000Y-50986476D01*
X205267000Y-51873000D01*
X206153960Y-51873000D01*
X206178056Y-51707005D01*
X205986914Y-51332061D01*
X205666837Y-51058805D01*
X205432993Y-50961957D01*
X205267000Y-50986476D01*
X205013000Y-50986476D01*
X204847007Y-50961957D01*
X204613163Y-51058805D01*
X204293086Y-51332061D01*
X204101944Y-51707005D01*
X203675521Y-51707005D01*
X203647006Y-51563651D01*
X204013326Y-51197331D01*
X204013329Y-51197329D01*
X204098187Y-51070329D01*
X204106932Y-51057242D01*
X204139801Y-50892000D01*
X204139800Y-50891995D01*
X204139800Y-46983585D01*
X204211394Y-47090732D01*
X204577797Y-47335556D01*
X205010000Y-47421526D01*
X205442203Y-47335556D01*
X205808606Y-47090732D01*
X206053430Y-46724329D01*
X206139400Y-46292126D01*
X206139400Y-46247874D01*
X206053430Y-45815671D01*
X205808606Y-45449268D01*
X205442203Y-45204444D01*
X205010000Y-45118474D01*
X204577797Y-45204444D01*
X204211394Y-45449268D01*
X204139800Y-45556415D01*
X204139800Y-44968000D01*
X204106931Y-44802757D01*
X204013329Y-44662671D01*
X204013326Y-44662669D01*
X203517006Y-44166349D01*
X203545520Y-44022995D01*
X203971944Y-44022995D01*
X204163086Y-44397939D01*
X204483163Y-44671195D01*
X204717007Y-44768043D01*
X204883000Y-44743524D01*
X204883000Y-43857000D01*
X205137000Y-43857000D01*
X205137000Y-44743524D01*
X205302993Y-44768043D01*
X205536837Y-44671195D01*
X205856914Y-44397939D01*
X206048056Y-44022995D01*
X206023960Y-43857000D01*
X205137000Y-43857000D01*
X204883000Y-43857000D01*
X203996040Y-43857000D01*
X203971944Y-44022995D01*
X203545520Y-44022995D01*
X203599400Y-43752126D01*
X203599400Y-43707874D01*
X206420600Y-43707874D01*
X206420600Y-43752126D01*
X206506570Y-44184329D01*
X206751394Y-44550732D01*
X207117797Y-44795556D01*
X207550000Y-44881526D01*
X207982203Y-44795556D01*
X207995808Y-44786465D01*
X208356200Y-45146857D01*
X208356200Y-45460633D01*
X208348606Y-45449268D01*
X207982203Y-45204444D01*
X207550000Y-45118474D01*
X207117797Y-45204444D01*
X206751394Y-45449268D01*
X206506570Y-45815671D01*
X206420600Y-46247874D01*
X206420600Y-46292126D01*
X206506570Y-46724329D01*
X206751394Y-47090732D01*
X207117797Y-47335556D01*
X207550000Y-47421526D01*
X207982203Y-47335556D01*
X208348606Y-47090732D01*
X208356200Y-47079367D01*
X208356200Y-50713143D01*
X208125808Y-50943535D01*
X208112203Y-50934444D01*
X207680000Y-50848474D01*
X207247797Y-50934444D01*
X206881394Y-51179268D01*
X206636570Y-51545671D01*
X206550600Y-51977874D01*
X206550600Y-52022126D01*
X206636570Y-52454329D01*
X206881394Y-52820732D01*
X207247797Y-53065556D01*
X207680000Y-53151526D01*
X208112203Y-53065556D01*
X208478606Y-52820732D01*
X208723430Y-52454329D01*
X208809400Y-52022126D01*
X208809400Y-51977874D01*
X208727006Y-51563651D01*
X209093326Y-51197331D01*
X209093329Y-51197329D01*
X209178187Y-51070329D01*
X209186932Y-51057242D01*
X209219801Y-50892000D01*
X209219800Y-50891995D01*
X209219800Y-46983585D01*
X209291394Y-47090732D01*
X209657797Y-47335556D01*
X210090000Y-47421526D01*
X210522203Y-47335556D01*
X210888606Y-47090732D01*
X210896200Y-47079367D01*
X210896200Y-50713143D01*
X210665808Y-50943535D01*
X210652203Y-50934444D01*
X210220000Y-50848474D01*
X209787797Y-50934444D01*
X209421394Y-51179268D01*
X209176570Y-51545671D01*
X209090600Y-51977874D01*
X209090600Y-52022126D01*
X209176570Y-52454329D01*
X209421394Y-52820732D01*
X209787797Y-53065556D01*
X210220000Y-53151526D01*
X210652203Y-53065556D01*
X211018606Y-52820732D01*
X211263430Y-52454329D01*
X211349400Y-52022126D01*
X211349400Y-51977874D01*
X211267006Y-51563651D01*
X211633326Y-51197331D01*
X211633329Y-51197329D01*
X211718187Y-51070329D01*
X211726932Y-51057242D01*
X211759801Y-50892000D01*
X211759800Y-50891995D01*
X211759800Y-46892261D01*
X211783086Y-46937939D01*
X212103163Y-47211195D01*
X212337007Y-47308043D01*
X212503000Y-47283524D01*
X212503000Y-46397000D01*
X212483000Y-46397000D01*
X212483000Y-46143000D01*
X212503000Y-46143000D01*
X212503000Y-45256476D01*
X212337007Y-45231957D01*
X212103163Y-45328805D01*
X211783086Y-45602061D01*
X211759800Y-45647739D01*
X211759800Y-44968000D01*
X211726931Y-44802757D01*
X211633329Y-44662671D01*
X211633326Y-44662669D01*
X211137006Y-44166349D01*
X211219400Y-43752126D01*
X211219400Y-43707874D01*
X211500600Y-43707874D01*
X211500600Y-43752126D01*
X211586570Y-44184329D01*
X211831394Y-44550732D01*
X212197797Y-44795556D01*
X212630000Y-44881526D01*
X213062203Y-44795556D01*
X213075808Y-44786465D01*
X213436200Y-45146857D01*
X213436200Y-45567303D01*
X213156837Y-45328805D01*
X212922993Y-45231957D01*
X212757000Y-45256476D01*
X212757000Y-46143000D01*
X212777000Y-46143000D01*
X212777000Y-46397000D01*
X212757000Y-46397000D01*
X212757000Y-47283524D01*
X212922993Y-47308043D01*
X213156837Y-47211195D01*
X213436200Y-46972697D01*
X213436200Y-50713143D01*
X213205808Y-50943535D01*
X213192203Y-50934444D01*
X212760000Y-50848474D01*
X212327797Y-50934444D01*
X211961394Y-51179268D01*
X211716570Y-51545671D01*
X211630600Y-51977874D01*
X211630600Y-52022126D01*
X211716570Y-52454329D01*
X211961394Y-52820732D01*
X212327797Y-53065556D01*
X212760000Y-53151526D01*
X213192203Y-53065556D01*
X213558606Y-52820732D01*
X213803430Y-52454329D01*
X213889400Y-52022126D01*
X213889400Y-51977874D01*
X213807006Y-51563651D01*
X214173326Y-51197331D01*
X214173329Y-51197329D01*
X214258187Y-51070329D01*
X214266932Y-51057242D01*
X214299801Y-50892000D01*
X214299800Y-50891995D01*
X214299800Y-45822686D01*
X215870318Y-45822686D01*
X216117856Y-46421775D01*
X216575814Y-46880533D01*
X217174470Y-47129117D01*
X217822686Y-47129682D01*
X218421775Y-46882144D01*
X218880533Y-46424186D01*
X219129117Y-45825530D01*
X219129682Y-45177314D01*
X218882144Y-44578225D01*
X218424186Y-44119467D01*
X217825530Y-43870883D01*
X217177314Y-43870318D01*
X216578225Y-44117856D01*
X216119467Y-44575814D01*
X215870883Y-45174470D01*
X215870318Y-45822686D01*
X214299800Y-45822686D01*
X214299800Y-44968000D01*
X214266931Y-44802757D01*
X214173329Y-44662671D01*
X214173326Y-44662669D01*
X213677006Y-44166349D01*
X213759400Y-43752126D01*
X213759400Y-43707874D01*
X213673430Y-43275671D01*
X213428606Y-42909268D01*
X213062203Y-42664444D01*
X212630000Y-42578474D01*
X212197797Y-42664444D01*
X211831394Y-42909268D01*
X211586570Y-43275671D01*
X211500600Y-43707874D01*
X211219400Y-43707874D01*
X211133430Y-43275671D01*
X210888606Y-42909268D01*
X210522203Y-42664444D01*
X210090000Y-42578474D01*
X209657797Y-42664444D01*
X209291394Y-42909268D01*
X209046570Y-43275671D01*
X208960600Y-43707874D01*
X208960600Y-43752126D01*
X209046570Y-44184329D01*
X209291394Y-44550732D01*
X209657797Y-44795556D01*
X210090000Y-44881526D01*
X210522203Y-44795556D01*
X210535808Y-44786465D01*
X210896200Y-45146857D01*
X210896200Y-45460633D01*
X210888606Y-45449268D01*
X210522203Y-45204444D01*
X210090000Y-45118474D01*
X209657797Y-45204444D01*
X209291394Y-45449268D01*
X209219800Y-45556415D01*
X209219800Y-44968000D01*
X209186931Y-44802757D01*
X209093329Y-44662671D01*
X209093326Y-44662669D01*
X208597006Y-44166349D01*
X208679400Y-43752126D01*
X208679400Y-43707874D01*
X208593430Y-43275671D01*
X208348606Y-42909268D01*
X207982203Y-42664444D01*
X207550000Y-42578474D01*
X207117797Y-42664444D01*
X206751394Y-42909268D01*
X206506570Y-43275671D01*
X206420600Y-43707874D01*
X203599400Y-43707874D01*
X203545522Y-43437005D01*
X203971944Y-43437005D01*
X203996040Y-43603000D01*
X204883000Y-43603000D01*
X204883000Y-42716476D01*
X205137000Y-42716476D01*
X205137000Y-43603000D01*
X206023960Y-43603000D01*
X206048056Y-43437005D01*
X205856914Y-43062061D01*
X205536837Y-42788805D01*
X205302993Y-42691957D01*
X205137000Y-42716476D01*
X204883000Y-42716476D01*
X204717007Y-42691957D01*
X204483163Y-42788805D01*
X204163086Y-43062061D01*
X203971944Y-43437005D01*
X203545522Y-43437005D01*
X203513430Y-43275671D01*
X203268606Y-42909268D01*
X202902203Y-42664444D01*
X202470000Y-42578474D01*
X202037797Y-42664444D01*
X201671394Y-42909268D01*
X201426570Y-43275671D01*
X201340600Y-43707874D01*
X198519400Y-43707874D01*
X198465522Y-43437005D01*
X198891944Y-43437005D01*
X198916040Y-43603000D01*
X199803000Y-43603000D01*
X199803000Y-42716476D01*
X200057000Y-42716476D01*
X200057000Y-43603000D01*
X200943960Y-43603000D01*
X200968056Y-43437005D01*
X200776914Y-43062061D01*
X200456837Y-42788805D01*
X200222993Y-42691957D01*
X200057000Y-42716476D01*
X199803000Y-42716476D01*
X199637007Y-42691957D01*
X199403163Y-42788805D01*
X199083086Y-43062061D01*
X198891944Y-43437005D01*
X198465522Y-43437005D01*
X198433430Y-43275671D01*
X198188606Y-42909268D01*
X197822203Y-42664444D01*
X197390000Y-42578474D01*
X196957797Y-42664444D01*
X196591394Y-42909268D01*
X196346570Y-43275671D01*
X196260600Y-43707874D01*
X195979400Y-43707874D01*
X195893430Y-43275671D01*
X195648606Y-42909268D01*
X195282203Y-42664444D01*
X194850000Y-42578474D01*
X194417797Y-42664444D01*
X194051394Y-42909268D01*
X193806570Y-43275671D01*
X193720600Y-43707874D01*
X193439400Y-43707874D01*
X193353430Y-43275671D01*
X193108606Y-42909268D01*
X192742203Y-42664444D01*
X192310000Y-42578474D01*
X191877797Y-42664444D01*
X191511394Y-42909268D01*
X191266570Y-43275671D01*
X191180600Y-43707874D01*
X191180600Y-43752126D01*
X191266570Y-44184329D01*
X191511394Y-44550732D01*
X191877797Y-44795556D01*
X192310000Y-44881526D01*
X192742203Y-44795556D01*
X192755808Y-44786465D01*
X193116200Y-45146857D01*
X193116200Y-45460633D01*
X193108606Y-45449268D01*
X192742203Y-45204444D01*
X192310000Y-45118474D01*
X191877797Y-45204444D01*
X191511394Y-45449268D01*
X191439800Y-45556415D01*
X191439800Y-44968000D01*
X191406931Y-44802757D01*
X191313329Y-44662671D01*
X191313326Y-44662669D01*
X190817006Y-44166349D01*
X190899400Y-43752126D01*
X190899400Y-43707874D01*
X190813430Y-43275671D01*
X190568606Y-42909268D01*
X190202203Y-42664444D01*
X189770000Y-42578474D01*
X189337797Y-42664444D01*
X188971394Y-42909268D01*
X188726570Y-43275671D01*
X188640600Y-43707874D01*
X185819400Y-43707874D01*
X185765522Y-43437005D01*
X186191944Y-43437005D01*
X186216040Y-43603000D01*
X187103000Y-43603000D01*
X187103000Y-42716476D01*
X187357000Y-42716476D01*
X187357000Y-43603000D01*
X188243960Y-43603000D01*
X188268056Y-43437005D01*
X188076914Y-43062061D01*
X187756837Y-42788805D01*
X187522993Y-42691957D01*
X187357000Y-42716476D01*
X187103000Y-42716476D01*
X186937007Y-42691957D01*
X186703163Y-42788805D01*
X186383086Y-43062061D01*
X186191944Y-43437005D01*
X185765522Y-43437005D01*
X185733430Y-43275671D01*
X185488606Y-42909268D01*
X185122203Y-42664444D01*
X184690000Y-42578474D01*
X184257797Y-42664444D01*
X183891394Y-42909268D01*
X183646570Y-43275671D01*
X183560600Y-43707874D01*
X183560600Y-43752126D01*
X183646570Y-44184329D01*
X183891394Y-44550732D01*
X184257797Y-44795556D01*
X184690000Y-44881526D01*
X185122203Y-44795556D01*
X185135808Y-44786465D01*
X185496200Y-45146857D01*
X185496200Y-45460633D01*
X185488606Y-45449268D01*
X185122203Y-45204444D01*
X184690000Y-45118474D01*
X184257797Y-45204444D01*
X183891394Y-45449268D01*
X183819800Y-45556415D01*
X183819800Y-44968000D01*
X183786931Y-44802757D01*
X183693329Y-44662671D01*
X183693326Y-44662669D01*
X183197006Y-44166349D01*
X183279400Y-43752126D01*
X183279400Y-43707874D01*
X183193430Y-43275671D01*
X182948606Y-42909268D01*
X182582203Y-42664444D01*
X182150000Y-42578474D01*
X181717797Y-42664444D01*
X181351394Y-42909268D01*
X181106570Y-43275671D01*
X181020600Y-43707874D01*
X178199400Y-43707874D01*
X178145522Y-43437005D01*
X178571944Y-43437005D01*
X178596040Y-43603000D01*
X179483000Y-43603000D01*
X179483000Y-42716476D01*
X179737000Y-42716476D01*
X179737000Y-43603000D01*
X180623960Y-43603000D01*
X180648056Y-43437005D01*
X180456914Y-43062061D01*
X180136837Y-42788805D01*
X179902993Y-42691957D01*
X179737000Y-42716476D01*
X179483000Y-42716476D01*
X179317007Y-42691957D01*
X179083163Y-42788805D01*
X178763086Y-43062061D01*
X178571944Y-43437005D01*
X178145522Y-43437005D01*
X178113430Y-43275671D01*
X177868606Y-42909268D01*
X177502203Y-42664444D01*
X177070000Y-42578474D01*
X176637797Y-42664444D01*
X176271394Y-42909268D01*
X176026570Y-43275671D01*
X175940600Y-43707874D01*
X175940600Y-43752126D01*
X176026570Y-44184329D01*
X176271394Y-44550732D01*
X176637797Y-44795556D01*
X177070000Y-44881526D01*
X177502203Y-44795556D01*
X177515808Y-44786465D01*
X178003200Y-45273857D01*
X178003200Y-45650701D01*
X177868606Y-45449268D01*
X177502203Y-45204444D01*
X177070000Y-45118474D01*
X176637797Y-45204444D01*
X176271394Y-45449268D01*
X176199800Y-45556415D01*
X176199800Y-44968000D01*
X176166931Y-44802757D01*
X176073329Y-44662671D01*
X176073326Y-44662669D01*
X175577006Y-44166349D01*
X175659400Y-43752126D01*
X175659400Y-43707874D01*
X175573430Y-43275671D01*
X175328606Y-42909268D01*
X174962203Y-42664444D01*
X174530000Y-42578474D01*
X174097797Y-42664444D01*
X173731394Y-42909268D01*
X173486570Y-43275671D01*
X173400600Y-43707874D01*
X173119400Y-43707874D01*
X173033430Y-43275671D01*
X172788606Y-42909268D01*
X172422203Y-42664444D01*
X171990000Y-42578474D01*
X171557797Y-42664444D01*
X171191394Y-42909268D01*
X170946570Y-43275671D01*
X170860600Y-43707874D01*
X168039400Y-43707874D01*
X167985522Y-43437005D01*
X168411944Y-43437005D01*
X168436040Y-43603000D01*
X169323000Y-43603000D01*
X169323000Y-42716476D01*
X169577000Y-42716476D01*
X169577000Y-43603000D01*
X170463960Y-43603000D01*
X170488056Y-43437005D01*
X170296914Y-43062061D01*
X169976837Y-42788805D01*
X169742993Y-42691957D01*
X169577000Y-42716476D01*
X169323000Y-42716476D01*
X169157007Y-42691957D01*
X168923163Y-42788805D01*
X168603086Y-43062061D01*
X168411944Y-43437005D01*
X167985522Y-43437005D01*
X167953430Y-43275671D01*
X167708606Y-42909268D01*
X167342203Y-42664444D01*
X166910000Y-42578474D01*
X166477797Y-42664444D01*
X166111394Y-42909268D01*
X165866570Y-43275671D01*
X165862089Y-43298200D01*
X165417911Y-43298200D01*
X165413430Y-43275671D01*
X165168606Y-42909268D01*
X164802203Y-42664444D01*
X164370000Y-42578474D01*
X163937797Y-42664444D01*
X163571394Y-42909268D01*
X163326570Y-43275671D01*
X163240600Y-43707874D01*
X163240600Y-43752126D01*
X163326570Y-44184329D01*
X163571394Y-44550732D01*
X163937797Y-44795556D01*
X164370000Y-44881526D01*
X164802203Y-44795556D01*
X164815808Y-44786465D01*
X165164470Y-45135127D01*
X163520000Y-45135127D01*
X163416461Y-45154609D01*
X163321366Y-45215801D01*
X163257571Y-45309168D01*
X163235127Y-45420000D01*
X161129470Y-45420000D01*
X161129682Y-45177314D01*
X160882144Y-44578225D01*
X160424186Y-44119467D01*
X159825530Y-43870883D01*
X159177314Y-43870318D01*
X158578225Y-44117856D01*
X158119467Y-44575814D01*
X157870883Y-45174470D01*
X157870318Y-45822686D01*
X156303600Y-45822686D01*
X156303600Y-42303600D01*
X220696400Y-42303600D01*
X220696400Y-63696400D01*
M02*
