M48
;DRILL file {KiCad 4.0.7} date 11/27/17 08:23:04
;FORMAT={2:4/ absolute / inch / suppress leading zeros}
FMAT,2
INCH,TZ
T1C0.035
T2C0.039
T3C0.128
%
G90
G05
M72
T1
X65238Y-14257
X65738Y-15257
X66238Y-14257
X66738Y-15257
X67238Y-14257
X67738Y-15257
X68238Y-14257
X68738Y-15257
T2
X64752Y-17201
X64752Y-18201
X65752Y-17201
X65752Y-18201
X66752Y-17201
X66752Y-18201
X67752Y-17201
X67752Y-18201
X68752Y-17201
X68752Y-18201
X69752Y-17201
X69752Y-18201
X70752Y-17201
X70752Y-18201
X71752Y-17201
X71752Y-18201
X72752Y-17201
X72752Y-18201
X73752Y-17201
X73752Y-18201
X74752Y-17201
X74752Y-18201
X75752Y-17201
X75752Y-18201
X76752Y-17201
X76752Y-18201
X77752Y-17201
X77752Y-18201
X78752Y-17201
X78752Y-18201
X79752Y-17201
X79752Y-18201
X80752Y-17201
X80752Y-18201
X81752Y-17201
X81752Y-18201
X82752Y-17201
X82752Y-18201
X83752Y-17201
X83752Y-18201
T3
X64738Y-11757
X69238Y-11757
T0
M30
