G04 #@! TF.FileFunction,Soldermask,Bot*
%FSLAX46Y46*%
G04 Gerber Fmt 4.6, Leading zero omitted, Abs format (unit mm)*
G04 Created by KiCad (PCBNEW 4.0.0-rc1-stable) date 17/10/2017 17:51:27*
%MOMM*%
G01*
G04 APERTURE LIST*
%ADD10C,0.076200*%
%ADD11C,2.700000*%
%ADD12R,1.700000X1.700000*%
%ADD13O,1.700000X1.700000*%
%ADD14C,3.650000*%
%ADD15R,1.500000X1.500000*%
%ADD16C,1.500000*%
G04 APERTURE END LIST*
D10*
D11*
X217500000Y-45500000D03*
X159500000Y-45500000D03*
D12*
X164490000Y-54420000D03*
D13*
X164490000Y-51880000D03*
X167030000Y-54420000D03*
X167030000Y-51880000D03*
X169570000Y-54420000D03*
X169570000Y-51880000D03*
X172110000Y-54420000D03*
X172110000Y-51880000D03*
X174650000Y-54420000D03*
X174650000Y-51880000D03*
X177190000Y-54420000D03*
X177190000Y-51880000D03*
X179730000Y-54420000D03*
X179730000Y-51880000D03*
X182270000Y-54420000D03*
X182270000Y-51880000D03*
X184810000Y-54420000D03*
X184810000Y-51880000D03*
X187350000Y-54420000D03*
X187350000Y-51880000D03*
X189890000Y-54420000D03*
X189890000Y-51880000D03*
X192430000Y-54420000D03*
X192430000Y-51880000D03*
X194970000Y-54420000D03*
X194970000Y-51880000D03*
X197510000Y-54420000D03*
X197510000Y-51880000D03*
X200050000Y-54420000D03*
X200050000Y-51880000D03*
X202590000Y-54420000D03*
X202590000Y-51880000D03*
X205130000Y-54420000D03*
X205130000Y-51880000D03*
X207670000Y-54420000D03*
X207670000Y-51880000D03*
X210210000Y-54420000D03*
X210210000Y-51880000D03*
X212750000Y-54420000D03*
X212750000Y-51880000D03*
D14*
X175864600Y-29862000D03*
X164434600Y-29862000D03*
D15*
X165704600Y-36212000D03*
D16*
X166974600Y-38752000D03*
X168244600Y-36212000D03*
X169514600Y-38752000D03*
X170784600Y-36212000D03*
X172054600Y-38752000D03*
X173324600Y-36212000D03*
X174594600Y-38752000D03*
D12*
X164470000Y-46230000D03*
D13*
X164470000Y-43690000D03*
X167010000Y-46230000D03*
X167010000Y-43690000D03*
X169550000Y-46230000D03*
X169550000Y-43690000D03*
X172090000Y-46230000D03*
X172090000Y-43690000D03*
X174630000Y-46230000D03*
X174630000Y-43690000D03*
X177170000Y-46230000D03*
X177170000Y-43690000D03*
X179710000Y-46230000D03*
X179710000Y-43690000D03*
X182250000Y-46230000D03*
X182250000Y-43690000D03*
X184790000Y-46230000D03*
X184790000Y-43690000D03*
X187330000Y-46230000D03*
X187330000Y-43690000D03*
X189870000Y-46230000D03*
X189870000Y-43690000D03*
X192410000Y-46230000D03*
X192410000Y-43690000D03*
X194950000Y-46230000D03*
X194950000Y-43690000D03*
X197490000Y-46230000D03*
X197490000Y-43690000D03*
X200030000Y-46230000D03*
X200030000Y-43690000D03*
X202570000Y-46230000D03*
X202570000Y-43690000D03*
X205110000Y-46230000D03*
X205110000Y-43690000D03*
X207650000Y-46230000D03*
X207650000Y-43690000D03*
X210190000Y-46230000D03*
X210190000Y-43690000D03*
X212730000Y-46230000D03*
X212730000Y-43690000D03*
M02*
