M48
;DRILL file {KiCad 4.0.0-rc1-stable} date 17/10/2017 17:51:29
;FORMAT={2:4/ absolute / inch / suppress leading zeros}
FMAT,2
INCH,TZ
T1C0.013
T2C0.035
T3C0.039
T4C0.106
T5C0.128
%
G90
G05
M72
T1
X63764Y-19094
X63764Y-19685
X64764Y-19094
X64764Y-19685
X65764Y-19094
X65764Y-19685
X66764Y-19094
X66764Y-19685
X67764Y-19094
X67764Y-19685
X68764Y-19094
X68764Y-19685
X69764Y-19094
X69764Y-19685
X70764Y-19094
X70764Y-19685
X71764Y-19094
X71764Y-19685
X72764Y-19094
X72764Y-19685
X73764Y-19094
X73764Y-19685
X74764Y-19094
X74764Y-19685
X75764Y-19094
X75764Y-19685
X76764Y-19094
X76764Y-19685
X77764Y-19094
X77764Y-19685
X78764Y-19094
X78764Y-19685
X79764Y-19094
X79764Y-19685
X80764Y-19094
X80764Y-19685
X81764Y-19094
X81764Y-19685
X82764Y-19094
X82764Y-19685
X83764Y-19094
X83764Y-19685
X84764Y-19094
X84764Y-19685
T2
X65238Y-14257
X65738Y-15257
X66238Y-14257
X66738Y-15257
X67238Y-14257
X67738Y-15257
X68238Y-14257
X68738Y-15257
T3
X64752Y-17201
X64752Y-18201
X64760Y-20425
X64760Y-21425
X65752Y-17201
X65752Y-18201
X65760Y-20425
X65760Y-21425
X66752Y-17201
X66752Y-18201
X66760Y-20425
X66760Y-21425
X67752Y-17201
X67752Y-18201
X67760Y-20425
X67760Y-21425
X68752Y-17201
X68752Y-18201
X68760Y-20425
X68760Y-21425
X69752Y-17201
X69752Y-18201
X69760Y-20425
X69760Y-21425
X70752Y-17201
X70752Y-18201
X70760Y-20425
X70760Y-21425
X71752Y-17201
X71752Y-18201
X71760Y-20425
X71760Y-21425
X72752Y-17201
X72752Y-18201
X72760Y-20425
X72760Y-21425
X73752Y-17201
X73752Y-18201
X73760Y-20425
X73760Y-21425
X74752Y-17201
X74752Y-18201
X74760Y-20425
X74760Y-21425
X75752Y-17201
X75752Y-18201
X75760Y-20425
X75760Y-21425
X76752Y-17201
X76752Y-18201
X76760Y-20425
X76760Y-21425
X77752Y-17201
X77752Y-18201
X77760Y-20425
X77760Y-21425
X78752Y-17201
X78752Y-18201
X78760Y-20425
X78760Y-21425
X79752Y-17201
X79752Y-18201
X79760Y-20425
X79760Y-21425
X80752Y-17201
X80752Y-18201
X80760Y-20425
X80760Y-21425
X81752Y-17201
X81752Y-18201
X81760Y-20425
X81760Y-21425
X82752Y-17201
X82752Y-18201
X82760Y-20425
X82760Y-21425
X83752Y-17201
X83752Y-18201
X83760Y-20425
X83760Y-21425
T4
X62795Y-17913
X85630Y-17913
T5
X64738Y-11757
X69238Y-11757
T0
M30
