G04 #@! TF.FileFunction,Copper,L2,Bot,Signal*
%FSLAX46Y46*%
G04 Gerber Fmt 4.6, Leading zero omitted, Abs format (unit mm)*
G04 Created by KiCad (PCBNEW 4.0.0-rc1-stable) date 19/06/2017 22:48:09*
%MOMM*%
G01*
G04 APERTURE LIST*
%ADD10C,0.076200*%
%ADD11C,0.685800*%
%ADD12R,1.700000X1.700000*%
%ADD13O,1.700000X1.700000*%
%ADD14C,0.609600*%
%ADD15C,0.152400*%
%ADD16C,0.254000*%
G04 APERTURE END LIST*
D10*
D11*
X195900000Y-99940000D03*
X190820000Y-99940000D03*
X180660000Y-99940000D03*
X170500000Y-99940000D03*
X195900000Y-97400000D03*
X190820000Y-97400000D03*
X180660000Y-97400000D03*
X170500000Y-97400000D03*
X194680000Y-62500000D03*
X169280000Y-62500000D03*
X164200000Y-62500000D03*
X199760000Y-59960000D03*
X194680000Y-59960000D03*
X169280000Y-59960000D03*
X164200000Y-59960000D03*
X199760000Y-57420000D03*
X169280000Y-57420000D03*
X164200000Y-57420000D03*
X184520000Y-54880000D03*
X169280000Y-54880000D03*
X164200000Y-54880000D03*
X194680000Y-52340000D03*
X189600000Y-52340000D03*
X184520000Y-52340000D03*
X179440000Y-52340000D03*
X174360000Y-52340000D03*
X194680000Y-49800000D03*
X189600000Y-49800000D03*
X179440000Y-49800000D03*
X174360000Y-49800000D03*
D12*
X194300000Y-56000000D03*
D13*
X191760000Y-56000000D03*
X191760000Y-58540000D03*
X189220000Y-56000000D03*
X189220000Y-58540000D03*
X186680000Y-56000000D03*
X186680000Y-58540000D03*
X184140000Y-58540000D03*
X181600000Y-58540000D03*
X179060000Y-56000000D03*
X179060000Y-58540000D03*
X176520000Y-56000000D03*
X176520000Y-58540000D03*
X173980000Y-56000000D03*
X173980000Y-58540000D03*
X171440000Y-56000000D03*
D12*
X168000000Y-67100000D03*
D13*
X165460000Y-67100000D03*
X168000000Y-69640000D03*
X165460000Y-69640000D03*
X168000000Y-72180000D03*
X165460000Y-72180000D03*
X168000000Y-74720000D03*
X165460000Y-74720000D03*
X168000000Y-77260000D03*
X165460000Y-77260000D03*
X168000000Y-79800000D03*
X165460000Y-79800000D03*
X168000000Y-82340000D03*
X165460000Y-82340000D03*
X168000000Y-84880000D03*
X165460000Y-84880000D03*
X168000000Y-87420000D03*
X165460000Y-87420000D03*
X168000000Y-89960000D03*
X165460000Y-89960000D03*
X168000000Y-92500000D03*
X165460000Y-92500000D03*
X168000000Y-95040000D03*
X165460000Y-95040000D03*
X168000000Y-97580000D03*
X165460000Y-97580000D03*
X168000000Y-100120000D03*
X165460000Y-100120000D03*
X168000000Y-102660000D03*
X165460000Y-102660000D03*
X168000000Y-105200000D03*
X165460000Y-105200000D03*
X168000000Y-107740000D03*
X165460000Y-107740000D03*
X168000000Y-110280000D03*
X165460000Y-110280000D03*
X168000000Y-112820000D03*
X165460000Y-112820000D03*
X168000000Y-115360000D03*
X165460000Y-115360000D03*
D12*
X197700000Y-67100000D03*
D13*
X200240000Y-67100000D03*
X197700000Y-69640000D03*
X200240000Y-69640000D03*
X197700000Y-72180000D03*
X200240000Y-72180000D03*
X197700000Y-74720000D03*
X200240000Y-74720000D03*
X197700000Y-77260000D03*
X200240000Y-77260000D03*
X197700000Y-79800000D03*
X200240000Y-79800000D03*
X197700000Y-82340000D03*
X200240000Y-82340000D03*
X197700000Y-84880000D03*
X200240000Y-84880000D03*
X197700000Y-87420000D03*
X200240000Y-87420000D03*
X197700000Y-89960000D03*
X200240000Y-89960000D03*
X197700000Y-92500000D03*
X200240000Y-92500000D03*
X197700000Y-95040000D03*
X200240000Y-95040000D03*
X197700000Y-97580000D03*
X200240000Y-97580000D03*
X197700000Y-100120000D03*
X200240000Y-100120000D03*
X197700000Y-102660000D03*
X200240000Y-102660000D03*
X197700000Y-105200000D03*
X200240000Y-105200000D03*
X197700000Y-107740000D03*
X200240000Y-107740000D03*
X197700000Y-110280000D03*
X200240000Y-110280000D03*
X197700000Y-112820000D03*
X200240000Y-112820000D03*
X197700000Y-115360000D03*
X200240000Y-115360000D03*
D12*
X185600000Y-117300000D03*
D13*
X185600000Y-119840000D03*
X183060000Y-117300000D03*
X183060000Y-119840000D03*
X180520000Y-117300000D03*
X180520000Y-119840000D03*
D11*
X191000000Y-72800000D03*
X188100000Y-59900000D03*
X191000000Y-75500000D03*
X183300000Y-62200000D03*
X188000000Y-87400000D03*
X186400000Y-68200000D03*
X182200000Y-66100000D03*
X178700000Y-71500000D03*
X184800000Y-70200000D03*
X178700000Y-69000000D03*
X178800000Y-103300000D03*
X175000000Y-106800000D03*
X183900000Y-75400000D03*
X182400000Y-103300000D03*
X177300000Y-106800000D03*
D14*
X200240000Y-67100000D02*
X200240000Y-61940000D01*
X200240000Y-61940000D02*
X194300000Y-56000000D01*
D15*
X191760000Y-56000000D02*
X193000000Y-57240000D01*
X193000000Y-85260000D02*
X197700000Y-89960000D01*
X193000000Y-57240000D02*
X193000000Y-85260000D01*
X191760000Y-58540000D02*
X192600000Y-59380000D01*
X192600000Y-87400000D02*
X197700000Y-92500000D01*
X192600000Y-59380000D02*
X192600000Y-87400000D01*
X189220000Y-56000000D02*
X190500000Y-57280000D01*
X192200000Y-89540000D02*
X197700000Y-95040000D01*
X192200000Y-65600000D02*
X192200000Y-89540000D01*
X190500000Y-63900000D02*
X192200000Y-65600000D01*
X190500000Y-57280000D02*
X190500000Y-63900000D01*
X189220000Y-58540000D02*
X189220000Y-63220000D01*
X198980000Y-96300000D02*
X200240000Y-95040000D01*
X195800000Y-96300000D02*
X198980000Y-96300000D01*
X191700000Y-92200000D02*
X195800000Y-96300000D01*
X191700000Y-65700000D02*
X191700000Y-92200000D01*
X189220000Y-63220000D02*
X191700000Y-65700000D01*
X191000000Y-65600000D02*
X191000000Y-72800000D01*
X188100000Y-62700000D02*
X191000000Y-65600000D01*
X188100000Y-59900000D02*
X188100000Y-62700000D01*
X190100000Y-74600000D02*
X191000000Y-75500000D01*
X190100000Y-65400000D02*
X190100000Y-74600000D01*
X188600000Y-63900000D02*
X190100000Y-65400000D01*
X185000000Y-63900000D02*
X188600000Y-63900000D01*
X183300000Y-62200000D02*
X185000000Y-63900000D01*
D14*
X186400000Y-85800000D02*
X188000000Y-87400000D01*
X186400000Y-68200000D02*
X186400000Y-85800000D01*
X181600000Y-65500000D02*
X181600000Y-58540000D01*
X182200000Y-66100000D02*
X181600000Y-65500000D01*
D15*
X183060000Y-117300000D02*
X183060000Y-75860000D01*
X183060000Y-75860000D02*
X178700000Y-71500000D01*
X179060000Y-56000000D02*
X180300000Y-57240000D01*
X180300000Y-57240000D02*
X180300000Y-69900000D01*
X180300000Y-69900000D02*
X178700000Y-71500000D01*
X185600000Y-117300000D02*
X185600000Y-71000000D01*
X185600000Y-71000000D02*
X184800000Y-70200000D01*
X179060000Y-58540000D02*
X179060000Y-68640000D01*
X179060000Y-68640000D02*
X178700000Y-69000000D01*
X176520000Y-56000000D02*
X177800000Y-57280000D01*
X177800000Y-102300000D02*
X178800000Y-103300000D01*
X177800000Y-57280000D02*
X177800000Y-102300000D01*
X176520000Y-58540000D02*
X176520000Y-105280000D01*
X176520000Y-105280000D02*
X175000000Y-106800000D01*
X173980000Y-56000000D02*
X175200000Y-57220000D01*
X166740000Y-109000000D02*
X165460000Y-110280000D01*
X170300000Y-109000000D02*
X166740000Y-109000000D01*
X175200000Y-104100000D02*
X170300000Y-109000000D01*
X175200000Y-57220000D02*
X175200000Y-104100000D01*
X173980000Y-58540000D02*
X173980000Y-73820000D01*
X173980000Y-73820000D02*
X168000000Y-79800000D01*
X184300000Y-75800000D02*
X184300000Y-118540000D01*
X184300000Y-75800000D02*
X183900000Y-75400000D01*
X184300000Y-118540000D02*
X185600000Y-119840000D01*
X183060000Y-119840000D02*
X181800000Y-118580000D01*
X181800000Y-103900000D02*
X182400000Y-103300000D01*
X181800000Y-118580000D02*
X181800000Y-103900000D01*
X180520000Y-119840000D02*
X177300000Y-116620000D01*
X177300000Y-116620000D02*
X177300000Y-106800000D01*
D16*
G36*
X202044000Y-124344000D02*
X163656000Y-124344000D01*
X163656000Y-121692316D01*
X164618657Y-121692316D01*
X164919611Y-122420680D01*
X165476389Y-122978431D01*
X166204226Y-123280655D01*
X166992316Y-123281343D01*
X167720680Y-122980389D01*
X168278431Y-122423611D01*
X168540567Y-121792316D01*
X197018657Y-121792316D01*
X197319611Y-122520680D01*
X197876389Y-123078431D01*
X198604226Y-123380655D01*
X199392316Y-123381343D01*
X200120680Y-123080389D01*
X200678431Y-122523611D01*
X200980655Y-121795774D01*
X200981343Y-121007684D01*
X200680389Y-120279320D01*
X200123611Y-119721569D01*
X199395774Y-119419345D01*
X198607684Y-119418657D01*
X197879320Y-119719611D01*
X197321569Y-120276389D01*
X197019345Y-121004226D01*
X197018657Y-121792316D01*
X168540567Y-121792316D01*
X168580655Y-121695774D01*
X168581343Y-120907684D01*
X168280389Y-120179320D01*
X167723611Y-119621569D01*
X166995774Y-119319345D01*
X166207684Y-119318657D01*
X165479320Y-119619611D01*
X164921569Y-120176389D01*
X164619345Y-120904226D01*
X164618657Y-121692316D01*
X163656000Y-121692316D01*
X163656000Y-115360000D01*
X164204883Y-115360000D01*
X164298587Y-115831083D01*
X164565435Y-116230448D01*
X164964800Y-116497296D01*
X165435883Y-116591000D01*
X165484117Y-116591000D01*
X165955200Y-116497296D01*
X166354565Y-116230448D01*
X166621413Y-115831083D01*
X166652065Y-115676980D01*
X166810511Y-115676980D01*
X166934755Y-115976964D01*
X167251944Y-116337652D01*
X167683018Y-116549501D01*
X167873000Y-116489193D01*
X167873000Y-115487000D01*
X168127000Y-115487000D01*
X168127000Y-116489193D01*
X168316982Y-116549501D01*
X168748056Y-116337652D01*
X169065245Y-115976964D01*
X169189489Y-115676980D01*
X169128627Y-115487000D01*
X168127000Y-115487000D01*
X167873000Y-115487000D01*
X166871373Y-115487000D01*
X166810511Y-115676980D01*
X166652065Y-115676980D01*
X166715117Y-115360000D01*
X166652066Y-115043020D01*
X166810511Y-115043020D01*
X166871373Y-115233000D01*
X167873000Y-115233000D01*
X167873000Y-114230807D01*
X168127000Y-114230807D01*
X168127000Y-115233000D01*
X169128627Y-115233000D01*
X169189489Y-115043020D01*
X169065245Y-114743036D01*
X168748056Y-114382348D01*
X168316982Y-114170499D01*
X168127000Y-114230807D01*
X167873000Y-114230807D01*
X167683018Y-114170499D01*
X167251944Y-114382348D01*
X166934755Y-114743036D01*
X166810511Y-115043020D01*
X166652066Y-115043020D01*
X166621413Y-114888917D01*
X166354565Y-114489552D01*
X165955200Y-114222704D01*
X165484117Y-114129000D01*
X165435883Y-114129000D01*
X164964800Y-114222704D01*
X164565435Y-114489552D01*
X164298587Y-114888917D01*
X164204883Y-115360000D01*
X163656000Y-115360000D01*
X163656000Y-112820000D01*
X164204883Y-112820000D01*
X164298587Y-113291083D01*
X164565435Y-113690448D01*
X164964800Y-113957296D01*
X165435883Y-114051000D01*
X165484117Y-114051000D01*
X165955200Y-113957296D01*
X166354565Y-113690448D01*
X166621413Y-113291083D01*
X166715117Y-112820000D01*
X166744883Y-112820000D01*
X166838587Y-113291083D01*
X167105435Y-113690448D01*
X167504800Y-113957296D01*
X167975883Y-114051000D01*
X168024117Y-114051000D01*
X168495200Y-113957296D01*
X168894565Y-113690448D01*
X169161413Y-113291083D01*
X169255117Y-112820000D01*
X169161413Y-112348917D01*
X168894565Y-111949552D01*
X168495200Y-111682704D01*
X168024117Y-111589000D01*
X167975883Y-111589000D01*
X167504800Y-111682704D01*
X167105435Y-111949552D01*
X166838587Y-112348917D01*
X166744883Y-112820000D01*
X166715117Y-112820000D01*
X166621413Y-112348917D01*
X166354565Y-111949552D01*
X165955200Y-111682704D01*
X165484117Y-111589000D01*
X165435883Y-111589000D01*
X164964800Y-111682704D01*
X164565435Y-111949552D01*
X164298587Y-112348917D01*
X164204883Y-112820000D01*
X163656000Y-112820000D01*
X163656000Y-110280000D01*
X164204883Y-110280000D01*
X164298587Y-110751083D01*
X164565435Y-111150448D01*
X164964800Y-111417296D01*
X165435883Y-111511000D01*
X165484117Y-111511000D01*
X165955200Y-111417296D01*
X166354565Y-111150448D01*
X166621413Y-110751083D01*
X166715117Y-110280000D01*
X166621413Y-109808917D01*
X166603888Y-109782690D01*
X166929378Y-109457200D01*
X167073598Y-109457200D01*
X166838587Y-109808917D01*
X166744883Y-110280000D01*
X166838587Y-110751083D01*
X167105435Y-111150448D01*
X167504800Y-111417296D01*
X167975883Y-111511000D01*
X168024117Y-111511000D01*
X168495200Y-111417296D01*
X168894565Y-111150448D01*
X169161413Y-110751083D01*
X169255117Y-110280000D01*
X169161413Y-109808917D01*
X168926402Y-109457200D01*
X170300000Y-109457200D01*
X170474963Y-109422398D01*
X170623289Y-109323289D01*
X175523289Y-104423290D01*
X175622398Y-104274963D01*
X175657200Y-104100000D01*
X175657200Y-59439675D01*
X176048917Y-59701413D01*
X176062800Y-59704174D01*
X176062800Y-105090622D01*
X175077255Y-106076167D01*
X174856639Y-106075975D01*
X174590479Y-106185950D01*
X174386665Y-106389408D01*
X174276226Y-106655376D01*
X174275975Y-106943361D01*
X174385950Y-107209521D01*
X174589408Y-107413335D01*
X174855376Y-107523774D01*
X175143361Y-107524025D01*
X175409521Y-107414050D01*
X175613335Y-107210592D01*
X175723774Y-106944624D01*
X175723775Y-106943361D01*
X176575975Y-106943361D01*
X176685950Y-107209521D01*
X176842800Y-107366645D01*
X176842800Y-116620000D01*
X176877602Y-116794963D01*
X176976711Y-116943289D01*
X179381960Y-119348538D01*
X179289000Y-119815883D01*
X179289000Y-119864117D01*
X179382704Y-120335200D01*
X179649552Y-120734565D01*
X180048917Y-121001413D01*
X180520000Y-121095117D01*
X180991083Y-121001413D01*
X181390448Y-120734565D01*
X181657296Y-120335200D01*
X181751000Y-119864117D01*
X181751000Y-119815883D01*
X181657296Y-119344800D01*
X181390448Y-118945435D01*
X180991083Y-118678587D01*
X180520000Y-118584883D01*
X180048917Y-118678587D01*
X180022690Y-118696112D01*
X178943560Y-117616982D01*
X179330499Y-117616982D01*
X179542348Y-118048056D01*
X179903036Y-118365245D01*
X180203020Y-118489489D01*
X180393000Y-118428627D01*
X180393000Y-117427000D01*
X179390807Y-117427000D01*
X179330499Y-117616982D01*
X178943560Y-117616982D01*
X178309596Y-116983018D01*
X179330499Y-116983018D01*
X179390807Y-117173000D01*
X180393000Y-117173000D01*
X180393000Y-116171373D01*
X180203020Y-116110511D01*
X179903036Y-116234755D01*
X179542348Y-116551944D01*
X179330499Y-116983018D01*
X178309596Y-116983018D01*
X177757200Y-116430622D01*
X177757200Y-107366454D01*
X177913335Y-107210592D01*
X178023774Y-106944624D01*
X178024025Y-106656639D01*
X177914050Y-106390479D01*
X177710592Y-106186665D01*
X177444624Y-106076226D01*
X177156639Y-106075975D01*
X176890479Y-106185950D01*
X176686665Y-106389408D01*
X176576226Y-106655376D01*
X176575975Y-106943361D01*
X175723775Y-106943361D01*
X175723968Y-106722610D01*
X176843289Y-105603289D01*
X176942398Y-105454963D01*
X176977200Y-105280000D01*
X176977200Y-59704174D01*
X176991083Y-59701413D01*
X177342800Y-59466402D01*
X177342800Y-102300000D01*
X177377602Y-102474963D01*
X177476711Y-102623289D01*
X178076167Y-103222746D01*
X178075975Y-103443361D01*
X178185950Y-103709521D01*
X178389408Y-103913335D01*
X178655376Y-104023774D01*
X178943361Y-104024025D01*
X179209521Y-103914050D01*
X179413335Y-103710592D01*
X179523774Y-103444624D01*
X179524025Y-103156639D01*
X179414050Y-102890479D01*
X179210592Y-102686665D01*
X178944624Y-102576226D01*
X178722611Y-102576032D01*
X178257200Y-102110622D01*
X178257200Y-72081071D01*
X178289408Y-72113335D01*
X178555376Y-72223774D01*
X178777390Y-72223968D01*
X182602800Y-76049378D01*
X182602800Y-102600383D01*
X182544624Y-102576226D01*
X182256639Y-102575975D01*
X181990479Y-102685950D01*
X181786665Y-102889408D01*
X181676226Y-103155376D01*
X181676032Y-103377390D01*
X181476711Y-103576711D01*
X181377602Y-103725037D01*
X181342800Y-103900000D01*
X181342800Y-116415767D01*
X181136964Y-116234755D01*
X180836980Y-116110511D01*
X180647000Y-116171373D01*
X180647000Y-117173000D01*
X180667000Y-117173000D01*
X180667000Y-117427000D01*
X180647000Y-117427000D01*
X180647000Y-118428627D01*
X180836980Y-118489489D01*
X181136964Y-118365245D01*
X181342800Y-118184233D01*
X181342800Y-118580000D01*
X181377602Y-118754963D01*
X181476711Y-118903289D01*
X181921960Y-119348538D01*
X181829000Y-119815883D01*
X181829000Y-119864117D01*
X181922704Y-120335200D01*
X182189552Y-120734565D01*
X182588917Y-121001413D01*
X183060000Y-121095117D01*
X183531083Y-121001413D01*
X183930448Y-120734565D01*
X184197296Y-120335200D01*
X184291000Y-119864117D01*
X184291000Y-119815883D01*
X184197296Y-119344800D01*
X183930448Y-118945435D01*
X183531083Y-118678587D01*
X183060000Y-118584883D01*
X182588917Y-118678587D01*
X182562690Y-118696112D01*
X182257200Y-118390622D01*
X182257200Y-118239766D01*
X182588917Y-118461413D01*
X183060000Y-118555117D01*
X183531083Y-118461413D01*
X183842800Y-118253130D01*
X183842800Y-118540000D01*
X183877602Y-118714963D01*
X183976711Y-118863289D01*
X184461960Y-119348538D01*
X184369000Y-119815883D01*
X184369000Y-119864117D01*
X184462704Y-120335200D01*
X184729552Y-120734565D01*
X185128917Y-121001413D01*
X185600000Y-121095117D01*
X186071083Y-121001413D01*
X186470448Y-120734565D01*
X186737296Y-120335200D01*
X186831000Y-119864117D01*
X186831000Y-119815883D01*
X186737296Y-119344800D01*
X186470448Y-118945435D01*
X186071083Y-118678587D01*
X185600000Y-118584883D01*
X185128917Y-118678587D01*
X185102690Y-118696112D01*
X184945042Y-118538464D01*
X186450000Y-118538464D01*
X186591190Y-118511897D01*
X186720865Y-118428454D01*
X186807859Y-118301134D01*
X186838464Y-118150000D01*
X186838464Y-116450000D01*
X186811897Y-116308810D01*
X186728454Y-116179135D01*
X186601134Y-116092141D01*
X186450000Y-116061536D01*
X186057200Y-116061536D01*
X186057200Y-115676980D01*
X196510511Y-115676980D01*
X196634755Y-115976964D01*
X196951944Y-116337652D01*
X197383018Y-116549501D01*
X197573000Y-116489193D01*
X197573000Y-115487000D01*
X197827000Y-115487000D01*
X197827000Y-116489193D01*
X198016982Y-116549501D01*
X198448056Y-116337652D01*
X198765245Y-115976964D01*
X198889489Y-115676980D01*
X198828627Y-115487000D01*
X197827000Y-115487000D01*
X197573000Y-115487000D01*
X196571373Y-115487000D01*
X196510511Y-115676980D01*
X186057200Y-115676980D01*
X186057200Y-115360000D01*
X198984883Y-115360000D01*
X199078587Y-115831083D01*
X199345435Y-116230448D01*
X199744800Y-116497296D01*
X200215883Y-116591000D01*
X200264117Y-116591000D01*
X200735200Y-116497296D01*
X201134565Y-116230448D01*
X201401413Y-115831083D01*
X201495117Y-115360000D01*
X201401413Y-114888917D01*
X201134565Y-114489552D01*
X200735200Y-114222704D01*
X200264117Y-114129000D01*
X200215883Y-114129000D01*
X199744800Y-114222704D01*
X199345435Y-114489552D01*
X199078587Y-114888917D01*
X198984883Y-115360000D01*
X186057200Y-115360000D01*
X186057200Y-115043020D01*
X196510511Y-115043020D01*
X196571373Y-115233000D01*
X197573000Y-115233000D01*
X197573000Y-114230807D01*
X197827000Y-114230807D01*
X197827000Y-115233000D01*
X198828627Y-115233000D01*
X198889489Y-115043020D01*
X198765245Y-114743036D01*
X198448056Y-114382348D01*
X198016982Y-114170499D01*
X197827000Y-114230807D01*
X197573000Y-114230807D01*
X197383018Y-114170499D01*
X196951944Y-114382348D01*
X196634755Y-114743036D01*
X196510511Y-115043020D01*
X186057200Y-115043020D01*
X186057200Y-112820000D01*
X196444883Y-112820000D01*
X196538587Y-113291083D01*
X196805435Y-113690448D01*
X197204800Y-113957296D01*
X197675883Y-114051000D01*
X197724117Y-114051000D01*
X198195200Y-113957296D01*
X198594565Y-113690448D01*
X198861413Y-113291083D01*
X198955117Y-112820000D01*
X198984883Y-112820000D01*
X199078587Y-113291083D01*
X199345435Y-113690448D01*
X199744800Y-113957296D01*
X200215883Y-114051000D01*
X200264117Y-114051000D01*
X200735200Y-113957296D01*
X201134565Y-113690448D01*
X201401413Y-113291083D01*
X201495117Y-112820000D01*
X201401413Y-112348917D01*
X201134565Y-111949552D01*
X200735200Y-111682704D01*
X200264117Y-111589000D01*
X200215883Y-111589000D01*
X199744800Y-111682704D01*
X199345435Y-111949552D01*
X199078587Y-112348917D01*
X198984883Y-112820000D01*
X198955117Y-112820000D01*
X198861413Y-112348917D01*
X198594565Y-111949552D01*
X198195200Y-111682704D01*
X197724117Y-111589000D01*
X197675883Y-111589000D01*
X197204800Y-111682704D01*
X196805435Y-111949552D01*
X196538587Y-112348917D01*
X196444883Y-112820000D01*
X186057200Y-112820000D01*
X186057200Y-110280000D01*
X196444883Y-110280000D01*
X196538587Y-110751083D01*
X196805435Y-111150448D01*
X197204800Y-111417296D01*
X197675883Y-111511000D01*
X197724117Y-111511000D01*
X198195200Y-111417296D01*
X198594565Y-111150448D01*
X198861413Y-110751083D01*
X198955117Y-110280000D01*
X198984883Y-110280000D01*
X199078587Y-110751083D01*
X199345435Y-111150448D01*
X199744800Y-111417296D01*
X200215883Y-111511000D01*
X200264117Y-111511000D01*
X200735200Y-111417296D01*
X201134565Y-111150448D01*
X201401413Y-110751083D01*
X201495117Y-110280000D01*
X201401413Y-109808917D01*
X201134565Y-109409552D01*
X200735200Y-109142704D01*
X200264117Y-109049000D01*
X200215883Y-109049000D01*
X199744800Y-109142704D01*
X199345435Y-109409552D01*
X199078587Y-109808917D01*
X198984883Y-110280000D01*
X198955117Y-110280000D01*
X198861413Y-109808917D01*
X198594565Y-109409552D01*
X198195200Y-109142704D01*
X197724117Y-109049000D01*
X197675883Y-109049000D01*
X197204800Y-109142704D01*
X196805435Y-109409552D01*
X196538587Y-109808917D01*
X196444883Y-110280000D01*
X186057200Y-110280000D01*
X186057200Y-107740000D01*
X196444883Y-107740000D01*
X196538587Y-108211083D01*
X196805435Y-108610448D01*
X197204800Y-108877296D01*
X197675883Y-108971000D01*
X197724117Y-108971000D01*
X198195200Y-108877296D01*
X198594565Y-108610448D01*
X198861413Y-108211083D01*
X198892065Y-108056980D01*
X199050511Y-108056980D01*
X199174755Y-108356964D01*
X199491944Y-108717652D01*
X199923018Y-108929501D01*
X200113000Y-108869193D01*
X200113000Y-107867000D01*
X200367000Y-107867000D01*
X200367000Y-108869193D01*
X200556982Y-108929501D01*
X200988056Y-108717652D01*
X201305245Y-108356964D01*
X201429489Y-108056980D01*
X201368627Y-107867000D01*
X200367000Y-107867000D01*
X200113000Y-107867000D01*
X199111373Y-107867000D01*
X199050511Y-108056980D01*
X198892065Y-108056980D01*
X198955117Y-107740000D01*
X198892066Y-107423020D01*
X199050511Y-107423020D01*
X199111373Y-107613000D01*
X200113000Y-107613000D01*
X200113000Y-106610807D01*
X200367000Y-106610807D01*
X200367000Y-107613000D01*
X201368627Y-107613000D01*
X201429489Y-107423020D01*
X201305245Y-107123036D01*
X200988056Y-106762348D01*
X200556982Y-106550499D01*
X200367000Y-106610807D01*
X200113000Y-106610807D01*
X199923018Y-106550499D01*
X199491944Y-106762348D01*
X199174755Y-107123036D01*
X199050511Y-107423020D01*
X198892066Y-107423020D01*
X198861413Y-107268917D01*
X198594565Y-106869552D01*
X198195200Y-106602704D01*
X197724117Y-106509000D01*
X197675883Y-106509000D01*
X197204800Y-106602704D01*
X196805435Y-106869552D01*
X196538587Y-107268917D01*
X196444883Y-107740000D01*
X186057200Y-107740000D01*
X186057200Y-105200000D01*
X196444883Y-105200000D01*
X196538587Y-105671083D01*
X196805435Y-106070448D01*
X197204800Y-106337296D01*
X197675883Y-106431000D01*
X197724117Y-106431000D01*
X198195200Y-106337296D01*
X198594565Y-106070448D01*
X198861413Y-105671083D01*
X198955117Y-105200000D01*
X198984883Y-105200000D01*
X199078587Y-105671083D01*
X199345435Y-106070448D01*
X199744800Y-106337296D01*
X200215883Y-106431000D01*
X200264117Y-106431000D01*
X200735200Y-106337296D01*
X201134565Y-106070448D01*
X201401413Y-105671083D01*
X201495117Y-105200000D01*
X201401413Y-104728917D01*
X201134565Y-104329552D01*
X200735200Y-104062704D01*
X200264117Y-103969000D01*
X200215883Y-103969000D01*
X199744800Y-104062704D01*
X199345435Y-104329552D01*
X199078587Y-104728917D01*
X198984883Y-105200000D01*
X198955117Y-105200000D01*
X198861413Y-104728917D01*
X198594565Y-104329552D01*
X198195200Y-104062704D01*
X197724117Y-103969000D01*
X197675883Y-103969000D01*
X197204800Y-104062704D01*
X196805435Y-104329552D01*
X196538587Y-104728917D01*
X196444883Y-105200000D01*
X186057200Y-105200000D01*
X186057200Y-102660000D01*
X196444883Y-102660000D01*
X196538587Y-103131083D01*
X196805435Y-103530448D01*
X197204800Y-103797296D01*
X197675883Y-103891000D01*
X197724117Y-103891000D01*
X198195200Y-103797296D01*
X198594565Y-103530448D01*
X198861413Y-103131083D01*
X198892065Y-102976980D01*
X199050511Y-102976980D01*
X199174755Y-103276964D01*
X199491944Y-103637652D01*
X199923018Y-103849501D01*
X200113000Y-103789193D01*
X200113000Y-102787000D01*
X200367000Y-102787000D01*
X200367000Y-103789193D01*
X200556982Y-103849501D01*
X200988056Y-103637652D01*
X201305245Y-103276964D01*
X201429489Y-102976980D01*
X201368627Y-102787000D01*
X200367000Y-102787000D01*
X200113000Y-102787000D01*
X199111373Y-102787000D01*
X199050511Y-102976980D01*
X198892065Y-102976980D01*
X198955117Y-102660000D01*
X198892066Y-102343020D01*
X199050511Y-102343020D01*
X199111373Y-102533000D01*
X200113000Y-102533000D01*
X200113000Y-101530807D01*
X200367000Y-101530807D01*
X200367000Y-102533000D01*
X201368627Y-102533000D01*
X201429489Y-102343020D01*
X201305245Y-102043036D01*
X200988056Y-101682348D01*
X200556982Y-101470499D01*
X200367000Y-101530807D01*
X200113000Y-101530807D01*
X199923018Y-101470499D01*
X199491944Y-101682348D01*
X199174755Y-102043036D01*
X199050511Y-102343020D01*
X198892066Y-102343020D01*
X198861413Y-102188917D01*
X198594565Y-101789552D01*
X198195200Y-101522704D01*
X197724117Y-101429000D01*
X197675883Y-101429000D01*
X197204800Y-101522704D01*
X196805435Y-101789552D01*
X196538587Y-102188917D01*
X196444883Y-102660000D01*
X186057200Y-102660000D01*
X186057200Y-100120000D01*
X196444883Y-100120000D01*
X196538587Y-100591083D01*
X196805435Y-100990448D01*
X197204800Y-101257296D01*
X197675883Y-101351000D01*
X197724117Y-101351000D01*
X198195200Y-101257296D01*
X198594565Y-100990448D01*
X198861413Y-100591083D01*
X198955117Y-100120000D01*
X198984883Y-100120000D01*
X199078587Y-100591083D01*
X199345435Y-100990448D01*
X199744800Y-101257296D01*
X200215883Y-101351000D01*
X200264117Y-101351000D01*
X200735200Y-101257296D01*
X201134565Y-100990448D01*
X201401413Y-100591083D01*
X201495117Y-100120000D01*
X201401413Y-99648917D01*
X201134565Y-99249552D01*
X200735200Y-98982704D01*
X200264117Y-98889000D01*
X200215883Y-98889000D01*
X199744800Y-98982704D01*
X199345435Y-99249552D01*
X199078587Y-99648917D01*
X198984883Y-100120000D01*
X198955117Y-100120000D01*
X198861413Y-99648917D01*
X198594565Y-99249552D01*
X198195200Y-98982704D01*
X197724117Y-98889000D01*
X197675883Y-98889000D01*
X197204800Y-98982704D01*
X196805435Y-99249552D01*
X196538587Y-99648917D01*
X196444883Y-100120000D01*
X186057200Y-100120000D01*
X186057200Y-97896980D01*
X196510511Y-97896980D01*
X196634755Y-98196964D01*
X196951944Y-98557652D01*
X197383018Y-98769501D01*
X197573000Y-98709193D01*
X197573000Y-97707000D01*
X197827000Y-97707000D01*
X197827000Y-98709193D01*
X198016982Y-98769501D01*
X198448056Y-98557652D01*
X198765245Y-98196964D01*
X198889489Y-97896980D01*
X198828627Y-97707000D01*
X197827000Y-97707000D01*
X197573000Y-97707000D01*
X196571373Y-97707000D01*
X196510511Y-97896980D01*
X186057200Y-97896980D01*
X186057200Y-97580000D01*
X198984883Y-97580000D01*
X199078587Y-98051083D01*
X199345435Y-98450448D01*
X199744800Y-98717296D01*
X200215883Y-98811000D01*
X200264117Y-98811000D01*
X200735200Y-98717296D01*
X201134565Y-98450448D01*
X201401413Y-98051083D01*
X201495117Y-97580000D01*
X201401413Y-97108917D01*
X201134565Y-96709552D01*
X200735200Y-96442704D01*
X200264117Y-96349000D01*
X200215883Y-96349000D01*
X199744800Y-96442704D01*
X199345435Y-96709552D01*
X199078587Y-97108917D01*
X198984883Y-97580000D01*
X186057200Y-97580000D01*
X186057200Y-86427068D01*
X187348136Y-87718004D01*
X187385950Y-87809521D01*
X187589408Y-88013335D01*
X187855376Y-88123774D01*
X188143361Y-88124025D01*
X188409521Y-88014050D01*
X188613335Y-87810592D01*
X188723774Y-87544624D01*
X188724025Y-87256639D01*
X188614050Y-86990479D01*
X188410592Y-86786665D01*
X188318146Y-86748278D01*
X187085800Y-85515932D01*
X187085800Y-68436076D01*
X187123774Y-68344624D01*
X187124025Y-68056639D01*
X187014050Y-67790479D01*
X186810592Y-67586665D01*
X186544624Y-67476226D01*
X186256639Y-67475975D01*
X185990479Y-67585950D01*
X185786665Y-67789408D01*
X185676226Y-68055376D01*
X185675975Y-68343361D01*
X185714200Y-68435873D01*
X185714200Y-70467622D01*
X185523833Y-70277255D01*
X185524025Y-70056639D01*
X185414050Y-69790479D01*
X185210592Y-69586665D01*
X184944624Y-69476226D01*
X184656639Y-69475975D01*
X184390479Y-69585950D01*
X184186665Y-69789408D01*
X184076226Y-70055376D01*
X184075975Y-70343361D01*
X184185950Y-70609521D01*
X184389408Y-70813335D01*
X184655376Y-70923774D01*
X184877390Y-70923968D01*
X185142800Y-71189378D01*
X185142800Y-116061536D01*
X184757200Y-116061536D01*
X184757200Y-75800000D01*
X184722398Y-75625037D01*
X184699286Y-75590448D01*
X184623832Y-75477523D01*
X184624025Y-75256639D01*
X184514050Y-74990479D01*
X184310592Y-74786665D01*
X184044624Y-74676226D01*
X183756639Y-74675975D01*
X183490479Y-74785950D01*
X183286665Y-74989408D01*
X183176226Y-75255376D01*
X183176161Y-75329583D01*
X179423833Y-71577255D01*
X179423968Y-71422610D01*
X180623289Y-70223289D01*
X180722398Y-70074963D01*
X180757200Y-69900000D01*
X180757200Y-59453039D01*
X180914200Y-59557943D01*
X180914200Y-65500000D01*
X180966403Y-65762445D01*
X181115066Y-65984934D01*
X181548136Y-66418004D01*
X181585950Y-66509521D01*
X181789408Y-66713335D01*
X182055376Y-66823774D01*
X182343361Y-66824025D01*
X182609521Y-66714050D01*
X182813335Y-66510592D01*
X182923774Y-66244624D01*
X182924025Y-65956639D01*
X182814050Y-65690479D01*
X182610592Y-65486665D01*
X182518146Y-65448278D01*
X182285800Y-65215932D01*
X182285800Y-62343361D01*
X182575975Y-62343361D01*
X182685950Y-62609521D01*
X182889408Y-62813335D01*
X183155376Y-62923774D01*
X183377390Y-62923968D01*
X184676711Y-64223289D01*
X184825037Y-64322398D01*
X185000000Y-64357200D01*
X188410622Y-64357200D01*
X189642800Y-65589378D01*
X189642800Y-74600000D01*
X189677602Y-74774963D01*
X189776711Y-74923289D01*
X190276167Y-75422745D01*
X190275975Y-75643361D01*
X190385950Y-75909521D01*
X190589408Y-76113335D01*
X190855376Y-76223774D01*
X191143361Y-76224025D01*
X191242800Y-76182938D01*
X191242800Y-92200000D01*
X191277602Y-92374963D01*
X191376711Y-92523289D01*
X195476711Y-96623289D01*
X195625037Y-96722398D01*
X195800000Y-96757200D01*
X196815767Y-96757200D01*
X196634755Y-96963036D01*
X196510511Y-97263020D01*
X196571373Y-97453000D01*
X197573000Y-97453000D01*
X197573000Y-97433000D01*
X197827000Y-97433000D01*
X197827000Y-97453000D01*
X198828627Y-97453000D01*
X198889489Y-97263020D01*
X198765245Y-96963036D01*
X198584233Y-96757200D01*
X198980000Y-96757200D01*
X199154963Y-96722398D01*
X199303289Y-96623289D01*
X199748538Y-96178040D01*
X200215883Y-96271000D01*
X200264117Y-96271000D01*
X200735200Y-96177296D01*
X201134565Y-95910448D01*
X201401413Y-95511083D01*
X201495117Y-95040000D01*
X201401413Y-94568917D01*
X201134565Y-94169552D01*
X200735200Y-93902704D01*
X200264117Y-93809000D01*
X200215883Y-93809000D01*
X199744800Y-93902704D01*
X199345435Y-94169552D01*
X199078587Y-94568917D01*
X198984883Y-95040000D01*
X199078587Y-95511083D01*
X199096112Y-95537310D01*
X198790622Y-95842800D01*
X198639766Y-95842800D01*
X198861413Y-95511083D01*
X198955117Y-95040000D01*
X198861413Y-94568917D01*
X198594565Y-94169552D01*
X198195200Y-93902704D01*
X197724117Y-93809000D01*
X197675883Y-93809000D01*
X197208539Y-93901960D01*
X192657200Y-89350622D01*
X192657200Y-88103778D01*
X196556112Y-92002690D01*
X196538587Y-92028917D01*
X196444883Y-92500000D01*
X196538587Y-92971083D01*
X196805435Y-93370448D01*
X197204800Y-93637296D01*
X197675883Y-93731000D01*
X197724117Y-93731000D01*
X198195200Y-93637296D01*
X198594565Y-93370448D01*
X198861413Y-92971083D01*
X198955117Y-92500000D01*
X198984883Y-92500000D01*
X199078587Y-92971083D01*
X199345435Y-93370448D01*
X199744800Y-93637296D01*
X200215883Y-93731000D01*
X200264117Y-93731000D01*
X200735200Y-93637296D01*
X201134565Y-93370448D01*
X201401413Y-92971083D01*
X201495117Y-92500000D01*
X201401413Y-92028917D01*
X201134565Y-91629552D01*
X200735200Y-91362704D01*
X200264117Y-91269000D01*
X200215883Y-91269000D01*
X199744800Y-91362704D01*
X199345435Y-91629552D01*
X199078587Y-92028917D01*
X198984883Y-92500000D01*
X198955117Y-92500000D01*
X198861413Y-92028917D01*
X198594565Y-91629552D01*
X198195200Y-91362704D01*
X197724117Y-91269000D01*
X197675883Y-91269000D01*
X197208538Y-91361960D01*
X193057200Y-87210622D01*
X193057200Y-85963778D01*
X196556112Y-89462690D01*
X196538587Y-89488917D01*
X196444883Y-89960000D01*
X196538587Y-90431083D01*
X196805435Y-90830448D01*
X197204800Y-91097296D01*
X197675883Y-91191000D01*
X197724117Y-91191000D01*
X198195200Y-91097296D01*
X198594565Y-90830448D01*
X198861413Y-90431083D01*
X198892065Y-90276980D01*
X199050511Y-90276980D01*
X199174755Y-90576964D01*
X199491944Y-90937652D01*
X199923018Y-91149501D01*
X200113000Y-91089193D01*
X200113000Y-90087000D01*
X200367000Y-90087000D01*
X200367000Y-91089193D01*
X200556982Y-91149501D01*
X200988056Y-90937652D01*
X201305245Y-90576964D01*
X201429489Y-90276980D01*
X201368627Y-90087000D01*
X200367000Y-90087000D01*
X200113000Y-90087000D01*
X199111373Y-90087000D01*
X199050511Y-90276980D01*
X198892065Y-90276980D01*
X198955117Y-89960000D01*
X198892066Y-89643020D01*
X199050511Y-89643020D01*
X199111373Y-89833000D01*
X200113000Y-89833000D01*
X200113000Y-88830807D01*
X200367000Y-88830807D01*
X200367000Y-89833000D01*
X201368627Y-89833000D01*
X201429489Y-89643020D01*
X201305245Y-89343036D01*
X200988056Y-88982348D01*
X200556982Y-88770499D01*
X200367000Y-88830807D01*
X200113000Y-88830807D01*
X199923018Y-88770499D01*
X199491944Y-88982348D01*
X199174755Y-89343036D01*
X199050511Y-89643020D01*
X198892066Y-89643020D01*
X198861413Y-89488917D01*
X198594565Y-89089552D01*
X198195200Y-88822704D01*
X197724117Y-88729000D01*
X197675883Y-88729000D01*
X197208538Y-88821960D01*
X195806578Y-87420000D01*
X196444883Y-87420000D01*
X196538587Y-87891083D01*
X196805435Y-88290448D01*
X197204800Y-88557296D01*
X197675883Y-88651000D01*
X197724117Y-88651000D01*
X198195200Y-88557296D01*
X198594565Y-88290448D01*
X198861413Y-87891083D01*
X198955117Y-87420000D01*
X198984883Y-87420000D01*
X199078587Y-87891083D01*
X199345435Y-88290448D01*
X199744800Y-88557296D01*
X200215883Y-88651000D01*
X200264117Y-88651000D01*
X200735200Y-88557296D01*
X201134565Y-88290448D01*
X201401413Y-87891083D01*
X201495117Y-87420000D01*
X201401413Y-86948917D01*
X201134565Y-86549552D01*
X200735200Y-86282704D01*
X200264117Y-86189000D01*
X200215883Y-86189000D01*
X199744800Y-86282704D01*
X199345435Y-86549552D01*
X199078587Y-86948917D01*
X198984883Y-87420000D01*
X198955117Y-87420000D01*
X198861413Y-86948917D01*
X198594565Y-86549552D01*
X198195200Y-86282704D01*
X197724117Y-86189000D01*
X197675883Y-86189000D01*
X197204800Y-86282704D01*
X196805435Y-86549552D01*
X196538587Y-86948917D01*
X196444883Y-87420000D01*
X195806578Y-87420000D01*
X193457200Y-85070622D01*
X193457200Y-84880000D01*
X196444883Y-84880000D01*
X196538587Y-85351083D01*
X196805435Y-85750448D01*
X197204800Y-86017296D01*
X197675883Y-86111000D01*
X197724117Y-86111000D01*
X198195200Y-86017296D01*
X198594565Y-85750448D01*
X198861413Y-85351083D01*
X198955117Y-84880000D01*
X198984883Y-84880000D01*
X199078587Y-85351083D01*
X199345435Y-85750448D01*
X199744800Y-86017296D01*
X200215883Y-86111000D01*
X200264117Y-86111000D01*
X200735200Y-86017296D01*
X201134565Y-85750448D01*
X201401413Y-85351083D01*
X201495117Y-84880000D01*
X201401413Y-84408917D01*
X201134565Y-84009552D01*
X200735200Y-83742704D01*
X200264117Y-83649000D01*
X200215883Y-83649000D01*
X199744800Y-83742704D01*
X199345435Y-84009552D01*
X199078587Y-84408917D01*
X198984883Y-84880000D01*
X198955117Y-84880000D01*
X198861413Y-84408917D01*
X198594565Y-84009552D01*
X198195200Y-83742704D01*
X197724117Y-83649000D01*
X197675883Y-83649000D01*
X197204800Y-83742704D01*
X196805435Y-84009552D01*
X196538587Y-84408917D01*
X196444883Y-84880000D01*
X193457200Y-84880000D01*
X193457200Y-82340000D01*
X196444883Y-82340000D01*
X196538587Y-82811083D01*
X196805435Y-83210448D01*
X197204800Y-83477296D01*
X197675883Y-83571000D01*
X197724117Y-83571000D01*
X198195200Y-83477296D01*
X198594565Y-83210448D01*
X198861413Y-82811083D01*
X198892065Y-82656980D01*
X199050511Y-82656980D01*
X199174755Y-82956964D01*
X199491944Y-83317652D01*
X199923018Y-83529501D01*
X200113000Y-83469193D01*
X200113000Y-82467000D01*
X200367000Y-82467000D01*
X200367000Y-83469193D01*
X200556982Y-83529501D01*
X200988056Y-83317652D01*
X201305245Y-82956964D01*
X201429489Y-82656980D01*
X201368627Y-82467000D01*
X200367000Y-82467000D01*
X200113000Y-82467000D01*
X199111373Y-82467000D01*
X199050511Y-82656980D01*
X198892065Y-82656980D01*
X198955117Y-82340000D01*
X198892066Y-82023020D01*
X199050511Y-82023020D01*
X199111373Y-82213000D01*
X200113000Y-82213000D01*
X200113000Y-81210807D01*
X200367000Y-81210807D01*
X200367000Y-82213000D01*
X201368627Y-82213000D01*
X201429489Y-82023020D01*
X201305245Y-81723036D01*
X200988056Y-81362348D01*
X200556982Y-81150499D01*
X200367000Y-81210807D01*
X200113000Y-81210807D01*
X199923018Y-81150499D01*
X199491944Y-81362348D01*
X199174755Y-81723036D01*
X199050511Y-82023020D01*
X198892066Y-82023020D01*
X198861413Y-81868917D01*
X198594565Y-81469552D01*
X198195200Y-81202704D01*
X197724117Y-81109000D01*
X197675883Y-81109000D01*
X197204800Y-81202704D01*
X196805435Y-81469552D01*
X196538587Y-81868917D01*
X196444883Y-82340000D01*
X193457200Y-82340000D01*
X193457200Y-79800000D01*
X196444883Y-79800000D01*
X196538587Y-80271083D01*
X196805435Y-80670448D01*
X197204800Y-80937296D01*
X197675883Y-81031000D01*
X197724117Y-81031000D01*
X198195200Y-80937296D01*
X198594565Y-80670448D01*
X198861413Y-80271083D01*
X198955117Y-79800000D01*
X198984883Y-79800000D01*
X199078587Y-80271083D01*
X199345435Y-80670448D01*
X199744800Y-80937296D01*
X200215883Y-81031000D01*
X200264117Y-81031000D01*
X200735200Y-80937296D01*
X201134565Y-80670448D01*
X201401413Y-80271083D01*
X201495117Y-79800000D01*
X201401413Y-79328917D01*
X201134565Y-78929552D01*
X200735200Y-78662704D01*
X200264117Y-78569000D01*
X200215883Y-78569000D01*
X199744800Y-78662704D01*
X199345435Y-78929552D01*
X199078587Y-79328917D01*
X198984883Y-79800000D01*
X198955117Y-79800000D01*
X198861413Y-79328917D01*
X198594565Y-78929552D01*
X198195200Y-78662704D01*
X197724117Y-78569000D01*
X197675883Y-78569000D01*
X197204800Y-78662704D01*
X196805435Y-78929552D01*
X196538587Y-79328917D01*
X196444883Y-79800000D01*
X193457200Y-79800000D01*
X193457200Y-77576980D01*
X196510511Y-77576980D01*
X196634755Y-77876964D01*
X196951944Y-78237652D01*
X197383018Y-78449501D01*
X197573000Y-78389193D01*
X197573000Y-77387000D01*
X197827000Y-77387000D01*
X197827000Y-78389193D01*
X198016982Y-78449501D01*
X198448056Y-78237652D01*
X198765245Y-77876964D01*
X198889489Y-77576980D01*
X198828627Y-77387000D01*
X197827000Y-77387000D01*
X197573000Y-77387000D01*
X196571373Y-77387000D01*
X196510511Y-77576980D01*
X193457200Y-77576980D01*
X193457200Y-77260000D01*
X198984883Y-77260000D01*
X199078587Y-77731083D01*
X199345435Y-78130448D01*
X199744800Y-78397296D01*
X200215883Y-78491000D01*
X200264117Y-78491000D01*
X200735200Y-78397296D01*
X201134565Y-78130448D01*
X201401413Y-77731083D01*
X201495117Y-77260000D01*
X201401413Y-76788917D01*
X201134565Y-76389552D01*
X200735200Y-76122704D01*
X200264117Y-76029000D01*
X200215883Y-76029000D01*
X199744800Y-76122704D01*
X199345435Y-76389552D01*
X199078587Y-76788917D01*
X198984883Y-77260000D01*
X193457200Y-77260000D01*
X193457200Y-76943020D01*
X196510511Y-76943020D01*
X196571373Y-77133000D01*
X197573000Y-77133000D01*
X197573000Y-76130807D01*
X197827000Y-76130807D01*
X197827000Y-77133000D01*
X198828627Y-77133000D01*
X198889489Y-76943020D01*
X198765245Y-76643036D01*
X198448056Y-76282348D01*
X198016982Y-76070499D01*
X197827000Y-76130807D01*
X197573000Y-76130807D01*
X197383018Y-76070499D01*
X196951944Y-76282348D01*
X196634755Y-76643036D01*
X196510511Y-76943020D01*
X193457200Y-76943020D01*
X193457200Y-74720000D01*
X196444883Y-74720000D01*
X196538587Y-75191083D01*
X196805435Y-75590448D01*
X197204800Y-75857296D01*
X197675883Y-75951000D01*
X197724117Y-75951000D01*
X198195200Y-75857296D01*
X198594565Y-75590448D01*
X198861413Y-75191083D01*
X198955117Y-74720000D01*
X198984883Y-74720000D01*
X199078587Y-75191083D01*
X199345435Y-75590448D01*
X199744800Y-75857296D01*
X200215883Y-75951000D01*
X200264117Y-75951000D01*
X200735200Y-75857296D01*
X201134565Y-75590448D01*
X201401413Y-75191083D01*
X201495117Y-74720000D01*
X201401413Y-74248917D01*
X201134565Y-73849552D01*
X200735200Y-73582704D01*
X200264117Y-73489000D01*
X200215883Y-73489000D01*
X199744800Y-73582704D01*
X199345435Y-73849552D01*
X199078587Y-74248917D01*
X198984883Y-74720000D01*
X198955117Y-74720000D01*
X198861413Y-74248917D01*
X198594565Y-73849552D01*
X198195200Y-73582704D01*
X197724117Y-73489000D01*
X197675883Y-73489000D01*
X197204800Y-73582704D01*
X196805435Y-73849552D01*
X196538587Y-74248917D01*
X196444883Y-74720000D01*
X193457200Y-74720000D01*
X193457200Y-72180000D01*
X196444883Y-72180000D01*
X196538587Y-72651083D01*
X196805435Y-73050448D01*
X197204800Y-73317296D01*
X197675883Y-73411000D01*
X197724117Y-73411000D01*
X198195200Y-73317296D01*
X198594565Y-73050448D01*
X198861413Y-72651083D01*
X198892065Y-72496980D01*
X199050511Y-72496980D01*
X199174755Y-72796964D01*
X199491944Y-73157652D01*
X199923018Y-73369501D01*
X200113000Y-73309193D01*
X200113000Y-72307000D01*
X200367000Y-72307000D01*
X200367000Y-73309193D01*
X200556982Y-73369501D01*
X200988056Y-73157652D01*
X201305245Y-72796964D01*
X201429489Y-72496980D01*
X201368627Y-72307000D01*
X200367000Y-72307000D01*
X200113000Y-72307000D01*
X199111373Y-72307000D01*
X199050511Y-72496980D01*
X198892065Y-72496980D01*
X198955117Y-72180000D01*
X198892066Y-71863020D01*
X199050511Y-71863020D01*
X199111373Y-72053000D01*
X200113000Y-72053000D01*
X200113000Y-71050807D01*
X200367000Y-71050807D01*
X200367000Y-72053000D01*
X201368627Y-72053000D01*
X201429489Y-71863020D01*
X201305245Y-71563036D01*
X200988056Y-71202348D01*
X200556982Y-70990499D01*
X200367000Y-71050807D01*
X200113000Y-71050807D01*
X199923018Y-70990499D01*
X199491944Y-71202348D01*
X199174755Y-71563036D01*
X199050511Y-71863020D01*
X198892066Y-71863020D01*
X198861413Y-71708917D01*
X198594565Y-71309552D01*
X198195200Y-71042704D01*
X197724117Y-70949000D01*
X197675883Y-70949000D01*
X197204800Y-71042704D01*
X196805435Y-71309552D01*
X196538587Y-71708917D01*
X196444883Y-72180000D01*
X193457200Y-72180000D01*
X193457200Y-69640000D01*
X196444883Y-69640000D01*
X196538587Y-70111083D01*
X196805435Y-70510448D01*
X197204800Y-70777296D01*
X197675883Y-70871000D01*
X197724117Y-70871000D01*
X198195200Y-70777296D01*
X198594565Y-70510448D01*
X198861413Y-70111083D01*
X198955117Y-69640000D01*
X198984883Y-69640000D01*
X199078587Y-70111083D01*
X199345435Y-70510448D01*
X199744800Y-70777296D01*
X200215883Y-70871000D01*
X200264117Y-70871000D01*
X200735200Y-70777296D01*
X201134565Y-70510448D01*
X201401413Y-70111083D01*
X201495117Y-69640000D01*
X201401413Y-69168917D01*
X201134565Y-68769552D01*
X200735200Y-68502704D01*
X200264117Y-68409000D01*
X200215883Y-68409000D01*
X199744800Y-68502704D01*
X199345435Y-68769552D01*
X199078587Y-69168917D01*
X198984883Y-69640000D01*
X198955117Y-69640000D01*
X198861413Y-69168917D01*
X198594565Y-68769552D01*
X198195200Y-68502704D01*
X197724117Y-68409000D01*
X197675883Y-68409000D01*
X197204800Y-68502704D01*
X196805435Y-68769552D01*
X196538587Y-69168917D01*
X196444883Y-69640000D01*
X193457200Y-69640000D01*
X193457200Y-66250000D01*
X196461536Y-66250000D01*
X196461536Y-67950000D01*
X196488103Y-68091190D01*
X196571546Y-68220865D01*
X196698866Y-68307859D01*
X196850000Y-68338464D01*
X198550000Y-68338464D01*
X198691190Y-68311897D01*
X198820865Y-68228454D01*
X198907859Y-68101134D01*
X198938464Y-67950000D01*
X198938464Y-66250000D01*
X198911897Y-66108810D01*
X198828454Y-65979135D01*
X198701134Y-65892141D01*
X198550000Y-65861536D01*
X196850000Y-65861536D01*
X196708810Y-65888103D01*
X196579135Y-65971546D01*
X196492141Y-66098866D01*
X196461536Y-66250000D01*
X193457200Y-66250000D01*
X193457200Y-57240000D01*
X193456894Y-57238464D01*
X194568596Y-57238464D01*
X199554200Y-62224068D01*
X199554200Y-66090059D01*
X199345435Y-66229552D01*
X199078587Y-66628917D01*
X198984883Y-67100000D01*
X199078587Y-67571083D01*
X199345435Y-67970448D01*
X199744800Y-68237296D01*
X200215883Y-68331000D01*
X200264117Y-68331000D01*
X200735200Y-68237296D01*
X201134565Y-67970448D01*
X201401413Y-67571083D01*
X201495117Y-67100000D01*
X201401413Y-66628917D01*
X201134565Y-66229552D01*
X200925800Y-66090059D01*
X200925800Y-61940005D01*
X200925801Y-61940000D01*
X200873597Y-61677556D01*
X200724934Y-61455066D01*
X195538464Y-56268596D01*
X195538464Y-55150000D01*
X195511897Y-55008810D01*
X195428454Y-54879135D01*
X195301134Y-54792141D01*
X195150000Y-54761536D01*
X193450000Y-54761536D01*
X193308810Y-54788103D01*
X193179135Y-54871546D01*
X193092141Y-54998866D01*
X193061536Y-55150000D01*
X193061536Y-56654958D01*
X192898040Y-56491462D01*
X192991000Y-56024117D01*
X192991000Y-55975883D01*
X192897296Y-55504800D01*
X192630448Y-55105435D01*
X192231083Y-54838587D01*
X191760000Y-54744883D01*
X191288917Y-54838587D01*
X190889552Y-55105435D01*
X190622704Y-55504800D01*
X190529000Y-55975883D01*
X190529000Y-56024117D01*
X190622704Y-56495200D01*
X190889552Y-56894565D01*
X191288917Y-57161413D01*
X191760000Y-57255117D01*
X192231083Y-57161413D01*
X192257310Y-57143888D01*
X192542800Y-57429378D01*
X192542800Y-57586870D01*
X192231083Y-57378587D01*
X191760000Y-57284883D01*
X191288917Y-57378587D01*
X190957200Y-57600234D01*
X190957200Y-57280000D01*
X190922398Y-57105037D01*
X190823289Y-56956711D01*
X190358040Y-56491462D01*
X190451000Y-56024117D01*
X190451000Y-55975883D01*
X190357296Y-55504800D01*
X190090448Y-55105435D01*
X189691083Y-54838587D01*
X189220000Y-54744883D01*
X188748917Y-54838587D01*
X188349552Y-55105435D01*
X188082704Y-55504800D01*
X187989000Y-55975883D01*
X187989000Y-56024117D01*
X188082704Y-56495200D01*
X188349552Y-56894565D01*
X188748917Y-57161413D01*
X189220000Y-57255117D01*
X189691083Y-57161413D01*
X189717310Y-57143888D01*
X190042800Y-57469378D01*
X190042800Y-57613598D01*
X189691083Y-57378587D01*
X189220000Y-57284883D01*
X188748917Y-57378587D01*
X188349552Y-57645435D01*
X188082704Y-58044800D01*
X187989000Y-58515883D01*
X187989000Y-58564117D01*
X188082704Y-59035200D01*
X188176895Y-59176167D01*
X187956639Y-59175975D01*
X187690479Y-59285950D01*
X187568164Y-59408052D01*
X187817296Y-59035200D01*
X187911000Y-58564117D01*
X187911000Y-58515883D01*
X187817296Y-58044800D01*
X187550448Y-57645435D01*
X187151083Y-57378587D01*
X186680000Y-57284883D01*
X186208917Y-57378587D01*
X185809552Y-57645435D01*
X185542704Y-58044800D01*
X185449000Y-58515883D01*
X185449000Y-58564117D01*
X185542704Y-59035200D01*
X185809552Y-59434565D01*
X186208917Y-59701413D01*
X186680000Y-59795117D01*
X187151083Y-59701413D01*
X187523701Y-59452437D01*
X187486665Y-59489408D01*
X187376226Y-59755376D01*
X187375975Y-60043361D01*
X187485950Y-60309521D01*
X187642800Y-60466645D01*
X187642800Y-62700000D01*
X187677602Y-62874963D01*
X187776711Y-63023289D01*
X188196222Y-63442800D01*
X185189378Y-63442800D01*
X184023833Y-62277255D01*
X184024025Y-62056639D01*
X183914050Y-61790479D01*
X183710592Y-61586665D01*
X183444624Y-61476226D01*
X183156639Y-61475975D01*
X182890479Y-61585950D01*
X182686665Y-61789408D01*
X182576226Y-62055376D01*
X182575975Y-62343361D01*
X182285800Y-62343361D01*
X182285800Y-59557943D01*
X182470448Y-59434565D01*
X182737296Y-59035200D01*
X182772745Y-58856982D01*
X182950499Y-58856982D01*
X183162348Y-59288056D01*
X183523036Y-59605245D01*
X183823020Y-59729489D01*
X184013000Y-59668627D01*
X184013000Y-58667000D01*
X184267000Y-58667000D01*
X184267000Y-59668627D01*
X184456980Y-59729489D01*
X184756964Y-59605245D01*
X185117652Y-59288056D01*
X185329501Y-58856982D01*
X185269193Y-58667000D01*
X184267000Y-58667000D01*
X184013000Y-58667000D01*
X183010807Y-58667000D01*
X182950499Y-58856982D01*
X182772745Y-58856982D01*
X182831000Y-58564117D01*
X182831000Y-58515883D01*
X182772746Y-58223018D01*
X182950499Y-58223018D01*
X183010807Y-58413000D01*
X184013000Y-58413000D01*
X184013000Y-57411373D01*
X184267000Y-57411373D01*
X184267000Y-58413000D01*
X185269193Y-58413000D01*
X185329501Y-58223018D01*
X185117652Y-57791944D01*
X184756964Y-57474755D01*
X184456980Y-57350511D01*
X184267000Y-57411373D01*
X184013000Y-57411373D01*
X183823020Y-57350511D01*
X183523036Y-57474755D01*
X183162348Y-57791944D01*
X182950499Y-58223018D01*
X182772746Y-58223018D01*
X182737296Y-58044800D01*
X182470448Y-57645435D01*
X182071083Y-57378587D01*
X181600000Y-57284883D01*
X181128917Y-57378587D01*
X180757200Y-57626961D01*
X180757200Y-57240000D01*
X180722398Y-57065037D01*
X180623289Y-56916711D01*
X180198040Y-56491462D01*
X180291000Y-56024117D01*
X180291000Y-55975883D01*
X185449000Y-55975883D01*
X185449000Y-56024117D01*
X185542704Y-56495200D01*
X185809552Y-56894565D01*
X186208917Y-57161413D01*
X186680000Y-57255117D01*
X187151083Y-57161413D01*
X187550448Y-56894565D01*
X187817296Y-56495200D01*
X187911000Y-56024117D01*
X187911000Y-55975883D01*
X187817296Y-55504800D01*
X187550448Y-55105435D01*
X187151083Y-54838587D01*
X186680000Y-54744883D01*
X186208917Y-54838587D01*
X185809552Y-55105435D01*
X185542704Y-55504800D01*
X185449000Y-55975883D01*
X180291000Y-55975883D01*
X180197296Y-55504800D01*
X179930448Y-55105435D01*
X179531083Y-54838587D01*
X179060000Y-54744883D01*
X178588917Y-54838587D01*
X178189552Y-55105435D01*
X177922704Y-55504800D01*
X177829000Y-55975883D01*
X177829000Y-56024117D01*
X177922704Y-56495200D01*
X178189552Y-56894565D01*
X178588917Y-57161413D01*
X179060000Y-57255117D01*
X179531083Y-57161413D01*
X179557310Y-57143888D01*
X179842800Y-57429378D01*
X179842800Y-57586870D01*
X179531083Y-57378587D01*
X179060000Y-57284883D01*
X178588917Y-57378587D01*
X178257200Y-57600234D01*
X178257200Y-57280000D01*
X178222398Y-57105037D01*
X178123289Y-56956711D01*
X177658040Y-56491462D01*
X177751000Y-56024117D01*
X177751000Y-55975883D01*
X177657296Y-55504800D01*
X177390448Y-55105435D01*
X176991083Y-54838587D01*
X176520000Y-54744883D01*
X176048917Y-54838587D01*
X175649552Y-55105435D01*
X175382704Y-55504800D01*
X175289000Y-55975883D01*
X175289000Y-56024117D01*
X175382704Y-56495200D01*
X175649552Y-56894565D01*
X176048917Y-57161413D01*
X176520000Y-57255117D01*
X176991083Y-57161413D01*
X177017310Y-57143888D01*
X177342800Y-57469378D01*
X177342800Y-57613598D01*
X176991083Y-57378587D01*
X176520000Y-57284883D01*
X176048917Y-57378587D01*
X175657200Y-57640325D01*
X175657200Y-57220000D01*
X175622398Y-57045037D01*
X175593063Y-57001134D01*
X175523290Y-56896711D01*
X175118040Y-56491461D01*
X175211000Y-56024117D01*
X175211000Y-55975883D01*
X175117296Y-55504800D01*
X174850448Y-55105435D01*
X174451083Y-54838587D01*
X173980000Y-54744883D01*
X173508917Y-54838587D01*
X173109552Y-55105435D01*
X172842704Y-55504800D01*
X172749000Y-55975883D01*
X172749000Y-56024117D01*
X172842704Y-56495200D01*
X173109552Y-56894565D01*
X173508917Y-57161413D01*
X173980000Y-57255117D01*
X174451083Y-57161413D01*
X174477310Y-57143889D01*
X174742800Y-57409379D01*
X174742800Y-57573507D01*
X174451083Y-57378587D01*
X173980000Y-57284883D01*
X173508917Y-57378587D01*
X173109552Y-57645435D01*
X172842704Y-58044800D01*
X172749000Y-58515883D01*
X172749000Y-58564117D01*
X172842704Y-59035200D01*
X173109552Y-59434565D01*
X173508917Y-59701413D01*
X173522800Y-59704174D01*
X173522800Y-73630622D01*
X168491462Y-78661960D01*
X168024117Y-78569000D01*
X167975883Y-78569000D01*
X167504800Y-78662704D01*
X167105435Y-78929552D01*
X166838587Y-79328917D01*
X166744883Y-79800000D01*
X166838587Y-80271083D01*
X167105435Y-80670448D01*
X167504800Y-80937296D01*
X167975883Y-81031000D01*
X168024117Y-81031000D01*
X168495200Y-80937296D01*
X168894565Y-80670448D01*
X169161413Y-80271083D01*
X169255117Y-79800000D01*
X169161413Y-79328917D01*
X169143888Y-79302690D01*
X174303289Y-74143289D01*
X174402398Y-73994963D01*
X174437200Y-73820000D01*
X174437200Y-59704174D01*
X174451083Y-59701413D01*
X174742800Y-59506493D01*
X174742800Y-103910621D01*
X170110622Y-108542800D01*
X168939766Y-108542800D01*
X169161413Y-108211083D01*
X169255117Y-107740000D01*
X169161413Y-107268917D01*
X168894565Y-106869552D01*
X168495200Y-106602704D01*
X168024117Y-106509000D01*
X167975883Y-106509000D01*
X167504800Y-106602704D01*
X167105435Y-106869552D01*
X166838587Y-107268917D01*
X166744883Y-107740000D01*
X166838587Y-108211083D01*
X167060234Y-108542800D01*
X166740000Y-108542800D01*
X166565037Y-108577602D01*
X166416711Y-108676711D01*
X165951462Y-109141960D01*
X165484117Y-109049000D01*
X165435883Y-109049000D01*
X164964800Y-109142704D01*
X164565435Y-109409552D01*
X164298587Y-109808917D01*
X164204883Y-110280000D01*
X163656000Y-110280000D01*
X163656000Y-108056980D01*
X164270511Y-108056980D01*
X164394755Y-108356964D01*
X164711944Y-108717652D01*
X165143018Y-108929501D01*
X165333000Y-108869193D01*
X165333000Y-107867000D01*
X165587000Y-107867000D01*
X165587000Y-108869193D01*
X165776982Y-108929501D01*
X166208056Y-108717652D01*
X166525245Y-108356964D01*
X166649489Y-108056980D01*
X166588627Y-107867000D01*
X165587000Y-107867000D01*
X165333000Y-107867000D01*
X164331373Y-107867000D01*
X164270511Y-108056980D01*
X163656000Y-108056980D01*
X163656000Y-107423020D01*
X164270511Y-107423020D01*
X164331373Y-107613000D01*
X165333000Y-107613000D01*
X165333000Y-106610807D01*
X165587000Y-106610807D01*
X165587000Y-107613000D01*
X166588627Y-107613000D01*
X166649489Y-107423020D01*
X166525245Y-107123036D01*
X166208056Y-106762348D01*
X165776982Y-106550499D01*
X165587000Y-106610807D01*
X165333000Y-106610807D01*
X165143018Y-106550499D01*
X164711944Y-106762348D01*
X164394755Y-107123036D01*
X164270511Y-107423020D01*
X163656000Y-107423020D01*
X163656000Y-105200000D01*
X164204883Y-105200000D01*
X164298587Y-105671083D01*
X164565435Y-106070448D01*
X164964800Y-106337296D01*
X165435883Y-106431000D01*
X165484117Y-106431000D01*
X165955200Y-106337296D01*
X166354565Y-106070448D01*
X166621413Y-105671083D01*
X166715117Y-105200000D01*
X166744883Y-105200000D01*
X166838587Y-105671083D01*
X167105435Y-106070448D01*
X167504800Y-106337296D01*
X167975883Y-106431000D01*
X168024117Y-106431000D01*
X168495200Y-106337296D01*
X168894565Y-106070448D01*
X169161413Y-105671083D01*
X169255117Y-105200000D01*
X169161413Y-104728917D01*
X168894565Y-104329552D01*
X168495200Y-104062704D01*
X168024117Y-103969000D01*
X167975883Y-103969000D01*
X167504800Y-104062704D01*
X167105435Y-104329552D01*
X166838587Y-104728917D01*
X166744883Y-105200000D01*
X166715117Y-105200000D01*
X166621413Y-104728917D01*
X166354565Y-104329552D01*
X165955200Y-104062704D01*
X165484117Y-103969000D01*
X165435883Y-103969000D01*
X164964800Y-104062704D01*
X164565435Y-104329552D01*
X164298587Y-104728917D01*
X164204883Y-105200000D01*
X163656000Y-105200000D01*
X163656000Y-102976980D01*
X164270511Y-102976980D01*
X164394755Y-103276964D01*
X164711944Y-103637652D01*
X165143018Y-103849501D01*
X165333000Y-103789193D01*
X165333000Y-102787000D01*
X165587000Y-102787000D01*
X165587000Y-103789193D01*
X165776982Y-103849501D01*
X166208056Y-103637652D01*
X166525245Y-103276964D01*
X166649489Y-102976980D01*
X166588627Y-102787000D01*
X165587000Y-102787000D01*
X165333000Y-102787000D01*
X164331373Y-102787000D01*
X164270511Y-102976980D01*
X163656000Y-102976980D01*
X163656000Y-102660000D01*
X166744883Y-102660000D01*
X166838587Y-103131083D01*
X167105435Y-103530448D01*
X167504800Y-103797296D01*
X167975883Y-103891000D01*
X168024117Y-103891000D01*
X168495200Y-103797296D01*
X168894565Y-103530448D01*
X169161413Y-103131083D01*
X169255117Y-102660000D01*
X169161413Y-102188917D01*
X168894565Y-101789552D01*
X168495200Y-101522704D01*
X168024117Y-101429000D01*
X167975883Y-101429000D01*
X167504800Y-101522704D01*
X167105435Y-101789552D01*
X166838587Y-102188917D01*
X166744883Y-102660000D01*
X163656000Y-102660000D01*
X163656000Y-102343020D01*
X164270511Y-102343020D01*
X164331373Y-102533000D01*
X165333000Y-102533000D01*
X165333000Y-101530807D01*
X165587000Y-101530807D01*
X165587000Y-102533000D01*
X166588627Y-102533000D01*
X166649489Y-102343020D01*
X166525245Y-102043036D01*
X166208056Y-101682348D01*
X165776982Y-101470499D01*
X165587000Y-101530807D01*
X165333000Y-101530807D01*
X165143018Y-101470499D01*
X164711944Y-101682348D01*
X164394755Y-102043036D01*
X164270511Y-102343020D01*
X163656000Y-102343020D01*
X163656000Y-100120000D01*
X164204883Y-100120000D01*
X164298587Y-100591083D01*
X164565435Y-100990448D01*
X164964800Y-101257296D01*
X165435883Y-101351000D01*
X165484117Y-101351000D01*
X165955200Y-101257296D01*
X166354565Y-100990448D01*
X166621413Y-100591083D01*
X166715117Y-100120000D01*
X166744883Y-100120000D01*
X166838587Y-100591083D01*
X167105435Y-100990448D01*
X167504800Y-101257296D01*
X167975883Y-101351000D01*
X168024117Y-101351000D01*
X168495200Y-101257296D01*
X168894565Y-100990448D01*
X169161413Y-100591083D01*
X169255117Y-100120000D01*
X169161413Y-99648917D01*
X168894565Y-99249552D01*
X168495200Y-98982704D01*
X168024117Y-98889000D01*
X167975883Y-98889000D01*
X167504800Y-98982704D01*
X167105435Y-99249552D01*
X166838587Y-99648917D01*
X166744883Y-100120000D01*
X166715117Y-100120000D01*
X166621413Y-99648917D01*
X166354565Y-99249552D01*
X165955200Y-98982704D01*
X165484117Y-98889000D01*
X165435883Y-98889000D01*
X164964800Y-98982704D01*
X164565435Y-99249552D01*
X164298587Y-99648917D01*
X164204883Y-100120000D01*
X163656000Y-100120000D01*
X163656000Y-97580000D01*
X164204883Y-97580000D01*
X164298587Y-98051083D01*
X164565435Y-98450448D01*
X164964800Y-98717296D01*
X165435883Y-98811000D01*
X165484117Y-98811000D01*
X165955200Y-98717296D01*
X166354565Y-98450448D01*
X166621413Y-98051083D01*
X166652065Y-97896980D01*
X166810511Y-97896980D01*
X166934755Y-98196964D01*
X167251944Y-98557652D01*
X167683018Y-98769501D01*
X167873000Y-98709193D01*
X167873000Y-97707000D01*
X168127000Y-97707000D01*
X168127000Y-98709193D01*
X168316982Y-98769501D01*
X168748056Y-98557652D01*
X169065245Y-98196964D01*
X169189489Y-97896980D01*
X169128627Y-97707000D01*
X168127000Y-97707000D01*
X167873000Y-97707000D01*
X166871373Y-97707000D01*
X166810511Y-97896980D01*
X166652065Y-97896980D01*
X166715117Y-97580000D01*
X166652066Y-97263020D01*
X166810511Y-97263020D01*
X166871373Y-97453000D01*
X167873000Y-97453000D01*
X167873000Y-96450807D01*
X168127000Y-96450807D01*
X168127000Y-97453000D01*
X169128627Y-97453000D01*
X169189489Y-97263020D01*
X169065245Y-96963036D01*
X168748056Y-96602348D01*
X168316982Y-96390499D01*
X168127000Y-96450807D01*
X167873000Y-96450807D01*
X167683018Y-96390499D01*
X167251944Y-96602348D01*
X166934755Y-96963036D01*
X166810511Y-97263020D01*
X166652066Y-97263020D01*
X166621413Y-97108917D01*
X166354565Y-96709552D01*
X165955200Y-96442704D01*
X165484117Y-96349000D01*
X165435883Y-96349000D01*
X164964800Y-96442704D01*
X164565435Y-96709552D01*
X164298587Y-97108917D01*
X164204883Y-97580000D01*
X163656000Y-97580000D01*
X163656000Y-95040000D01*
X164204883Y-95040000D01*
X164298587Y-95511083D01*
X164565435Y-95910448D01*
X164964800Y-96177296D01*
X165435883Y-96271000D01*
X165484117Y-96271000D01*
X165955200Y-96177296D01*
X166354565Y-95910448D01*
X166621413Y-95511083D01*
X166715117Y-95040000D01*
X166744883Y-95040000D01*
X166838587Y-95511083D01*
X167105435Y-95910448D01*
X167504800Y-96177296D01*
X167975883Y-96271000D01*
X168024117Y-96271000D01*
X168495200Y-96177296D01*
X168894565Y-95910448D01*
X169161413Y-95511083D01*
X169255117Y-95040000D01*
X169161413Y-94568917D01*
X168894565Y-94169552D01*
X168495200Y-93902704D01*
X168024117Y-93809000D01*
X167975883Y-93809000D01*
X167504800Y-93902704D01*
X167105435Y-94169552D01*
X166838587Y-94568917D01*
X166744883Y-95040000D01*
X166715117Y-95040000D01*
X166621413Y-94568917D01*
X166354565Y-94169552D01*
X165955200Y-93902704D01*
X165484117Y-93809000D01*
X165435883Y-93809000D01*
X164964800Y-93902704D01*
X164565435Y-94169552D01*
X164298587Y-94568917D01*
X164204883Y-95040000D01*
X163656000Y-95040000D01*
X163656000Y-92500000D01*
X164204883Y-92500000D01*
X164298587Y-92971083D01*
X164565435Y-93370448D01*
X164964800Y-93637296D01*
X165435883Y-93731000D01*
X165484117Y-93731000D01*
X165955200Y-93637296D01*
X166354565Y-93370448D01*
X166621413Y-92971083D01*
X166715117Y-92500000D01*
X166744883Y-92500000D01*
X166838587Y-92971083D01*
X167105435Y-93370448D01*
X167504800Y-93637296D01*
X167975883Y-93731000D01*
X168024117Y-93731000D01*
X168495200Y-93637296D01*
X168894565Y-93370448D01*
X169161413Y-92971083D01*
X169255117Y-92500000D01*
X169161413Y-92028917D01*
X168894565Y-91629552D01*
X168495200Y-91362704D01*
X168024117Y-91269000D01*
X167975883Y-91269000D01*
X167504800Y-91362704D01*
X167105435Y-91629552D01*
X166838587Y-92028917D01*
X166744883Y-92500000D01*
X166715117Y-92500000D01*
X166621413Y-92028917D01*
X166354565Y-91629552D01*
X165955200Y-91362704D01*
X165484117Y-91269000D01*
X165435883Y-91269000D01*
X164964800Y-91362704D01*
X164565435Y-91629552D01*
X164298587Y-92028917D01*
X164204883Y-92500000D01*
X163656000Y-92500000D01*
X163656000Y-90276980D01*
X164270511Y-90276980D01*
X164394755Y-90576964D01*
X164711944Y-90937652D01*
X165143018Y-91149501D01*
X165333000Y-91089193D01*
X165333000Y-90087000D01*
X165587000Y-90087000D01*
X165587000Y-91089193D01*
X165776982Y-91149501D01*
X166208056Y-90937652D01*
X166525245Y-90576964D01*
X166649489Y-90276980D01*
X166588627Y-90087000D01*
X165587000Y-90087000D01*
X165333000Y-90087000D01*
X164331373Y-90087000D01*
X164270511Y-90276980D01*
X163656000Y-90276980D01*
X163656000Y-89960000D01*
X166744883Y-89960000D01*
X166838587Y-90431083D01*
X167105435Y-90830448D01*
X167504800Y-91097296D01*
X167975883Y-91191000D01*
X168024117Y-91191000D01*
X168495200Y-91097296D01*
X168894565Y-90830448D01*
X169161413Y-90431083D01*
X169255117Y-89960000D01*
X169161413Y-89488917D01*
X168894565Y-89089552D01*
X168495200Y-88822704D01*
X168024117Y-88729000D01*
X167975883Y-88729000D01*
X167504800Y-88822704D01*
X167105435Y-89089552D01*
X166838587Y-89488917D01*
X166744883Y-89960000D01*
X163656000Y-89960000D01*
X163656000Y-89643020D01*
X164270511Y-89643020D01*
X164331373Y-89833000D01*
X165333000Y-89833000D01*
X165333000Y-88830807D01*
X165587000Y-88830807D01*
X165587000Y-89833000D01*
X166588627Y-89833000D01*
X166649489Y-89643020D01*
X166525245Y-89343036D01*
X166208056Y-88982348D01*
X165776982Y-88770499D01*
X165587000Y-88830807D01*
X165333000Y-88830807D01*
X165143018Y-88770499D01*
X164711944Y-88982348D01*
X164394755Y-89343036D01*
X164270511Y-89643020D01*
X163656000Y-89643020D01*
X163656000Y-87420000D01*
X164204883Y-87420000D01*
X164298587Y-87891083D01*
X164565435Y-88290448D01*
X164964800Y-88557296D01*
X165435883Y-88651000D01*
X165484117Y-88651000D01*
X165955200Y-88557296D01*
X166354565Y-88290448D01*
X166621413Y-87891083D01*
X166715117Y-87420000D01*
X166744883Y-87420000D01*
X166838587Y-87891083D01*
X167105435Y-88290448D01*
X167504800Y-88557296D01*
X167975883Y-88651000D01*
X168024117Y-88651000D01*
X168495200Y-88557296D01*
X168894565Y-88290448D01*
X169161413Y-87891083D01*
X169255117Y-87420000D01*
X169161413Y-86948917D01*
X168894565Y-86549552D01*
X168495200Y-86282704D01*
X168024117Y-86189000D01*
X167975883Y-86189000D01*
X167504800Y-86282704D01*
X167105435Y-86549552D01*
X166838587Y-86948917D01*
X166744883Y-87420000D01*
X166715117Y-87420000D01*
X166621413Y-86948917D01*
X166354565Y-86549552D01*
X165955200Y-86282704D01*
X165484117Y-86189000D01*
X165435883Y-86189000D01*
X164964800Y-86282704D01*
X164565435Y-86549552D01*
X164298587Y-86948917D01*
X164204883Y-87420000D01*
X163656000Y-87420000D01*
X163656000Y-84880000D01*
X164204883Y-84880000D01*
X164298587Y-85351083D01*
X164565435Y-85750448D01*
X164964800Y-86017296D01*
X165435883Y-86111000D01*
X165484117Y-86111000D01*
X165955200Y-86017296D01*
X166354565Y-85750448D01*
X166621413Y-85351083D01*
X166715117Y-84880000D01*
X166744883Y-84880000D01*
X166838587Y-85351083D01*
X167105435Y-85750448D01*
X167504800Y-86017296D01*
X167975883Y-86111000D01*
X168024117Y-86111000D01*
X168495200Y-86017296D01*
X168894565Y-85750448D01*
X169161413Y-85351083D01*
X169255117Y-84880000D01*
X169161413Y-84408917D01*
X168894565Y-84009552D01*
X168495200Y-83742704D01*
X168024117Y-83649000D01*
X167975883Y-83649000D01*
X167504800Y-83742704D01*
X167105435Y-84009552D01*
X166838587Y-84408917D01*
X166744883Y-84880000D01*
X166715117Y-84880000D01*
X166621413Y-84408917D01*
X166354565Y-84009552D01*
X165955200Y-83742704D01*
X165484117Y-83649000D01*
X165435883Y-83649000D01*
X164964800Y-83742704D01*
X164565435Y-84009552D01*
X164298587Y-84408917D01*
X164204883Y-84880000D01*
X163656000Y-84880000D01*
X163656000Y-82656980D01*
X164270511Y-82656980D01*
X164394755Y-82956964D01*
X164711944Y-83317652D01*
X165143018Y-83529501D01*
X165333000Y-83469193D01*
X165333000Y-82467000D01*
X165587000Y-82467000D01*
X165587000Y-83469193D01*
X165776982Y-83529501D01*
X166208056Y-83317652D01*
X166525245Y-82956964D01*
X166649489Y-82656980D01*
X166588627Y-82467000D01*
X165587000Y-82467000D01*
X165333000Y-82467000D01*
X164331373Y-82467000D01*
X164270511Y-82656980D01*
X163656000Y-82656980D01*
X163656000Y-82340000D01*
X166744883Y-82340000D01*
X166838587Y-82811083D01*
X167105435Y-83210448D01*
X167504800Y-83477296D01*
X167975883Y-83571000D01*
X168024117Y-83571000D01*
X168495200Y-83477296D01*
X168894565Y-83210448D01*
X169161413Y-82811083D01*
X169255117Y-82340000D01*
X169161413Y-81868917D01*
X168894565Y-81469552D01*
X168495200Y-81202704D01*
X168024117Y-81109000D01*
X167975883Y-81109000D01*
X167504800Y-81202704D01*
X167105435Y-81469552D01*
X166838587Y-81868917D01*
X166744883Y-82340000D01*
X163656000Y-82340000D01*
X163656000Y-82023020D01*
X164270511Y-82023020D01*
X164331373Y-82213000D01*
X165333000Y-82213000D01*
X165333000Y-81210807D01*
X165587000Y-81210807D01*
X165587000Y-82213000D01*
X166588627Y-82213000D01*
X166649489Y-82023020D01*
X166525245Y-81723036D01*
X166208056Y-81362348D01*
X165776982Y-81150499D01*
X165587000Y-81210807D01*
X165333000Y-81210807D01*
X165143018Y-81150499D01*
X164711944Y-81362348D01*
X164394755Y-81723036D01*
X164270511Y-82023020D01*
X163656000Y-82023020D01*
X163656000Y-79800000D01*
X164204883Y-79800000D01*
X164298587Y-80271083D01*
X164565435Y-80670448D01*
X164964800Y-80937296D01*
X165435883Y-81031000D01*
X165484117Y-81031000D01*
X165955200Y-80937296D01*
X166354565Y-80670448D01*
X166621413Y-80271083D01*
X166715117Y-79800000D01*
X166621413Y-79328917D01*
X166354565Y-78929552D01*
X165955200Y-78662704D01*
X165484117Y-78569000D01*
X165435883Y-78569000D01*
X164964800Y-78662704D01*
X164565435Y-78929552D01*
X164298587Y-79328917D01*
X164204883Y-79800000D01*
X163656000Y-79800000D01*
X163656000Y-77260000D01*
X164204883Y-77260000D01*
X164298587Y-77731083D01*
X164565435Y-78130448D01*
X164964800Y-78397296D01*
X165435883Y-78491000D01*
X165484117Y-78491000D01*
X165955200Y-78397296D01*
X166354565Y-78130448D01*
X166621413Y-77731083D01*
X166652065Y-77576980D01*
X166810511Y-77576980D01*
X166934755Y-77876964D01*
X167251944Y-78237652D01*
X167683018Y-78449501D01*
X167873000Y-78389193D01*
X167873000Y-77387000D01*
X168127000Y-77387000D01*
X168127000Y-78389193D01*
X168316982Y-78449501D01*
X168748056Y-78237652D01*
X169065245Y-77876964D01*
X169189489Y-77576980D01*
X169128627Y-77387000D01*
X168127000Y-77387000D01*
X167873000Y-77387000D01*
X166871373Y-77387000D01*
X166810511Y-77576980D01*
X166652065Y-77576980D01*
X166715117Y-77260000D01*
X166652066Y-76943020D01*
X166810511Y-76943020D01*
X166871373Y-77133000D01*
X167873000Y-77133000D01*
X167873000Y-76130807D01*
X168127000Y-76130807D01*
X168127000Y-77133000D01*
X169128627Y-77133000D01*
X169189489Y-76943020D01*
X169065245Y-76643036D01*
X168748056Y-76282348D01*
X168316982Y-76070499D01*
X168127000Y-76130807D01*
X167873000Y-76130807D01*
X167683018Y-76070499D01*
X167251944Y-76282348D01*
X166934755Y-76643036D01*
X166810511Y-76943020D01*
X166652066Y-76943020D01*
X166621413Y-76788917D01*
X166354565Y-76389552D01*
X165955200Y-76122704D01*
X165484117Y-76029000D01*
X165435883Y-76029000D01*
X164964800Y-76122704D01*
X164565435Y-76389552D01*
X164298587Y-76788917D01*
X164204883Y-77260000D01*
X163656000Y-77260000D01*
X163656000Y-74720000D01*
X164204883Y-74720000D01*
X164298587Y-75191083D01*
X164565435Y-75590448D01*
X164964800Y-75857296D01*
X165435883Y-75951000D01*
X165484117Y-75951000D01*
X165955200Y-75857296D01*
X166354565Y-75590448D01*
X166621413Y-75191083D01*
X166715117Y-74720000D01*
X166744883Y-74720000D01*
X166838587Y-75191083D01*
X167105435Y-75590448D01*
X167504800Y-75857296D01*
X167975883Y-75951000D01*
X168024117Y-75951000D01*
X168495200Y-75857296D01*
X168894565Y-75590448D01*
X169161413Y-75191083D01*
X169255117Y-74720000D01*
X169161413Y-74248917D01*
X168894565Y-73849552D01*
X168495200Y-73582704D01*
X168024117Y-73489000D01*
X167975883Y-73489000D01*
X167504800Y-73582704D01*
X167105435Y-73849552D01*
X166838587Y-74248917D01*
X166744883Y-74720000D01*
X166715117Y-74720000D01*
X166621413Y-74248917D01*
X166354565Y-73849552D01*
X165955200Y-73582704D01*
X165484117Y-73489000D01*
X165435883Y-73489000D01*
X164964800Y-73582704D01*
X164565435Y-73849552D01*
X164298587Y-74248917D01*
X164204883Y-74720000D01*
X163656000Y-74720000D01*
X163656000Y-72496980D01*
X164270511Y-72496980D01*
X164394755Y-72796964D01*
X164711944Y-73157652D01*
X165143018Y-73369501D01*
X165333000Y-73309193D01*
X165333000Y-72307000D01*
X165587000Y-72307000D01*
X165587000Y-73309193D01*
X165776982Y-73369501D01*
X166208056Y-73157652D01*
X166525245Y-72796964D01*
X166649489Y-72496980D01*
X166588627Y-72307000D01*
X165587000Y-72307000D01*
X165333000Y-72307000D01*
X164331373Y-72307000D01*
X164270511Y-72496980D01*
X163656000Y-72496980D01*
X163656000Y-72180000D01*
X166744883Y-72180000D01*
X166838587Y-72651083D01*
X167105435Y-73050448D01*
X167504800Y-73317296D01*
X167975883Y-73411000D01*
X168024117Y-73411000D01*
X168495200Y-73317296D01*
X168894565Y-73050448D01*
X169161413Y-72651083D01*
X169255117Y-72180000D01*
X169161413Y-71708917D01*
X168894565Y-71309552D01*
X168495200Y-71042704D01*
X168024117Y-70949000D01*
X167975883Y-70949000D01*
X167504800Y-71042704D01*
X167105435Y-71309552D01*
X166838587Y-71708917D01*
X166744883Y-72180000D01*
X163656000Y-72180000D01*
X163656000Y-71863020D01*
X164270511Y-71863020D01*
X164331373Y-72053000D01*
X165333000Y-72053000D01*
X165333000Y-71050807D01*
X165587000Y-71050807D01*
X165587000Y-72053000D01*
X166588627Y-72053000D01*
X166649489Y-71863020D01*
X166525245Y-71563036D01*
X166208056Y-71202348D01*
X165776982Y-70990499D01*
X165587000Y-71050807D01*
X165333000Y-71050807D01*
X165143018Y-70990499D01*
X164711944Y-71202348D01*
X164394755Y-71563036D01*
X164270511Y-71863020D01*
X163656000Y-71863020D01*
X163656000Y-69640000D01*
X164204883Y-69640000D01*
X164298587Y-70111083D01*
X164565435Y-70510448D01*
X164964800Y-70777296D01*
X165435883Y-70871000D01*
X165484117Y-70871000D01*
X165955200Y-70777296D01*
X166354565Y-70510448D01*
X166621413Y-70111083D01*
X166715117Y-69640000D01*
X166744883Y-69640000D01*
X166838587Y-70111083D01*
X167105435Y-70510448D01*
X167504800Y-70777296D01*
X167975883Y-70871000D01*
X168024117Y-70871000D01*
X168495200Y-70777296D01*
X168894565Y-70510448D01*
X169161413Y-70111083D01*
X169255117Y-69640000D01*
X169161413Y-69168917D01*
X168894565Y-68769552D01*
X168495200Y-68502704D01*
X168024117Y-68409000D01*
X167975883Y-68409000D01*
X167504800Y-68502704D01*
X167105435Y-68769552D01*
X166838587Y-69168917D01*
X166744883Y-69640000D01*
X166715117Y-69640000D01*
X166621413Y-69168917D01*
X166354565Y-68769552D01*
X165955200Y-68502704D01*
X165484117Y-68409000D01*
X165435883Y-68409000D01*
X164964800Y-68502704D01*
X164565435Y-68769552D01*
X164298587Y-69168917D01*
X164204883Y-69640000D01*
X163656000Y-69640000D01*
X163656000Y-67100000D01*
X164204883Y-67100000D01*
X164298587Y-67571083D01*
X164565435Y-67970448D01*
X164964800Y-68237296D01*
X165435883Y-68331000D01*
X165484117Y-68331000D01*
X165955200Y-68237296D01*
X166354565Y-67970448D01*
X166621413Y-67571083D01*
X166715117Y-67100000D01*
X166621413Y-66628917D01*
X166368228Y-66250000D01*
X166761536Y-66250000D01*
X166761536Y-67950000D01*
X166788103Y-68091190D01*
X166871546Y-68220865D01*
X166998866Y-68307859D01*
X167150000Y-68338464D01*
X168850000Y-68338464D01*
X168991190Y-68311897D01*
X169120865Y-68228454D01*
X169207859Y-68101134D01*
X169238464Y-67950000D01*
X169238464Y-66250000D01*
X169211897Y-66108810D01*
X169128454Y-65979135D01*
X169001134Y-65892141D01*
X168850000Y-65861536D01*
X167150000Y-65861536D01*
X167008810Y-65888103D01*
X166879135Y-65971546D01*
X166792141Y-66098866D01*
X166761536Y-66250000D01*
X166368228Y-66250000D01*
X166354565Y-66229552D01*
X165955200Y-65962704D01*
X165484117Y-65869000D01*
X165435883Y-65869000D01*
X164964800Y-65962704D01*
X164565435Y-66229552D01*
X164298587Y-66628917D01*
X164204883Y-67100000D01*
X163656000Y-67100000D01*
X163656000Y-56316982D01*
X170250499Y-56316982D01*
X170462348Y-56748056D01*
X170823036Y-57065245D01*
X171123020Y-57189489D01*
X171313000Y-57128627D01*
X171313000Y-56127000D01*
X171567000Y-56127000D01*
X171567000Y-57128627D01*
X171756980Y-57189489D01*
X172056964Y-57065245D01*
X172417652Y-56748056D01*
X172629501Y-56316982D01*
X172569193Y-56127000D01*
X171567000Y-56127000D01*
X171313000Y-56127000D01*
X170310807Y-56127000D01*
X170250499Y-56316982D01*
X163656000Y-56316982D01*
X163656000Y-55683018D01*
X170250499Y-55683018D01*
X170310807Y-55873000D01*
X171313000Y-55873000D01*
X171313000Y-54871373D01*
X171567000Y-54871373D01*
X171567000Y-55873000D01*
X172569193Y-55873000D01*
X172629501Y-55683018D01*
X172417652Y-55251944D01*
X172056964Y-54934755D01*
X171756980Y-54810511D01*
X171567000Y-54871373D01*
X171313000Y-54871373D01*
X171123020Y-54810511D01*
X170823036Y-54934755D01*
X170462348Y-55251944D01*
X170250499Y-55683018D01*
X163656000Y-55683018D01*
X163656000Y-52592316D01*
X164818657Y-52592316D01*
X165119611Y-53320680D01*
X165676389Y-53878431D01*
X166404226Y-54180655D01*
X167192316Y-54181343D01*
X167920680Y-53880389D01*
X168478431Y-53323611D01*
X168780655Y-52595774D01*
X168780658Y-52592316D01*
X197118657Y-52592316D01*
X197419611Y-53320680D01*
X197976389Y-53878431D01*
X198704226Y-54180655D01*
X199492316Y-54181343D01*
X200220680Y-53880389D01*
X200778431Y-53323611D01*
X201080655Y-52595774D01*
X201081343Y-51807684D01*
X200780389Y-51079320D01*
X200223611Y-50521569D01*
X199495774Y-50219345D01*
X198707684Y-50218657D01*
X197979320Y-50519611D01*
X197421569Y-51076389D01*
X197119345Y-51804226D01*
X197118657Y-52592316D01*
X168780658Y-52592316D01*
X168781343Y-51807684D01*
X168480389Y-51079320D01*
X167923611Y-50521569D01*
X167195774Y-50219345D01*
X166407684Y-50218657D01*
X165679320Y-50519611D01*
X165121569Y-51076389D01*
X164819345Y-51804226D01*
X164818657Y-52592316D01*
X163656000Y-52592316D01*
X163656000Y-49256000D01*
X202044000Y-49256000D01*
X202044000Y-124344000D01*
X202044000Y-124344000D01*
G37*
X202044000Y-124344000D02*
X163656000Y-124344000D01*
X163656000Y-121692316D01*
X164618657Y-121692316D01*
X164919611Y-122420680D01*
X165476389Y-122978431D01*
X166204226Y-123280655D01*
X166992316Y-123281343D01*
X167720680Y-122980389D01*
X168278431Y-122423611D01*
X168540567Y-121792316D01*
X197018657Y-121792316D01*
X197319611Y-122520680D01*
X197876389Y-123078431D01*
X198604226Y-123380655D01*
X199392316Y-123381343D01*
X200120680Y-123080389D01*
X200678431Y-122523611D01*
X200980655Y-121795774D01*
X200981343Y-121007684D01*
X200680389Y-120279320D01*
X200123611Y-119721569D01*
X199395774Y-119419345D01*
X198607684Y-119418657D01*
X197879320Y-119719611D01*
X197321569Y-120276389D01*
X197019345Y-121004226D01*
X197018657Y-121792316D01*
X168540567Y-121792316D01*
X168580655Y-121695774D01*
X168581343Y-120907684D01*
X168280389Y-120179320D01*
X167723611Y-119621569D01*
X166995774Y-119319345D01*
X166207684Y-119318657D01*
X165479320Y-119619611D01*
X164921569Y-120176389D01*
X164619345Y-120904226D01*
X164618657Y-121692316D01*
X163656000Y-121692316D01*
X163656000Y-115360000D01*
X164204883Y-115360000D01*
X164298587Y-115831083D01*
X164565435Y-116230448D01*
X164964800Y-116497296D01*
X165435883Y-116591000D01*
X165484117Y-116591000D01*
X165955200Y-116497296D01*
X166354565Y-116230448D01*
X166621413Y-115831083D01*
X166652065Y-115676980D01*
X166810511Y-115676980D01*
X166934755Y-115976964D01*
X167251944Y-116337652D01*
X167683018Y-116549501D01*
X167873000Y-116489193D01*
X167873000Y-115487000D01*
X168127000Y-115487000D01*
X168127000Y-116489193D01*
X168316982Y-116549501D01*
X168748056Y-116337652D01*
X169065245Y-115976964D01*
X169189489Y-115676980D01*
X169128627Y-115487000D01*
X168127000Y-115487000D01*
X167873000Y-115487000D01*
X166871373Y-115487000D01*
X166810511Y-115676980D01*
X166652065Y-115676980D01*
X166715117Y-115360000D01*
X166652066Y-115043020D01*
X166810511Y-115043020D01*
X166871373Y-115233000D01*
X167873000Y-115233000D01*
X167873000Y-114230807D01*
X168127000Y-114230807D01*
X168127000Y-115233000D01*
X169128627Y-115233000D01*
X169189489Y-115043020D01*
X169065245Y-114743036D01*
X168748056Y-114382348D01*
X168316982Y-114170499D01*
X168127000Y-114230807D01*
X167873000Y-114230807D01*
X167683018Y-114170499D01*
X167251944Y-114382348D01*
X166934755Y-114743036D01*
X166810511Y-115043020D01*
X166652066Y-115043020D01*
X166621413Y-114888917D01*
X166354565Y-114489552D01*
X165955200Y-114222704D01*
X165484117Y-114129000D01*
X165435883Y-114129000D01*
X164964800Y-114222704D01*
X164565435Y-114489552D01*
X164298587Y-114888917D01*
X164204883Y-115360000D01*
X163656000Y-115360000D01*
X163656000Y-112820000D01*
X164204883Y-112820000D01*
X164298587Y-113291083D01*
X164565435Y-113690448D01*
X164964800Y-113957296D01*
X165435883Y-114051000D01*
X165484117Y-114051000D01*
X165955200Y-113957296D01*
X166354565Y-113690448D01*
X166621413Y-113291083D01*
X166715117Y-112820000D01*
X166744883Y-112820000D01*
X166838587Y-113291083D01*
X167105435Y-113690448D01*
X167504800Y-113957296D01*
X167975883Y-114051000D01*
X168024117Y-114051000D01*
X168495200Y-113957296D01*
X168894565Y-113690448D01*
X169161413Y-113291083D01*
X169255117Y-112820000D01*
X169161413Y-112348917D01*
X168894565Y-111949552D01*
X168495200Y-111682704D01*
X168024117Y-111589000D01*
X167975883Y-111589000D01*
X167504800Y-111682704D01*
X167105435Y-111949552D01*
X166838587Y-112348917D01*
X166744883Y-112820000D01*
X166715117Y-112820000D01*
X166621413Y-112348917D01*
X166354565Y-111949552D01*
X165955200Y-111682704D01*
X165484117Y-111589000D01*
X165435883Y-111589000D01*
X164964800Y-111682704D01*
X164565435Y-111949552D01*
X164298587Y-112348917D01*
X164204883Y-112820000D01*
X163656000Y-112820000D01*
X163656000Y-110280000D01*
X164204883Y-110280000D01*
X164298587Y-110751083D01*
X164565435Y-111150448D01*
X164964800Y-111417296D01*
X165435883Y-111511000D01*
X165484117Y-111511000D01*
X165955200Y-111417296D01*
X166354565Y-111150448D01*
X166621413Y-110751083D01*
X166715117Y-110280000D01*
X166621413Y-109808917D01*
X166603888Y-109782690D01*
X166929378Y-109457200D01*
X167073598Y-109457200D01*
X166838587Y-109808917D01*
X166744883Y-110280000D01*
X166838587Y-110751083D01*
X167105435Y-111150448D01*
X167504800Y-111417296D01*
X167975883Y-111511000D01*
X168024117Y-111511000D01*
X168495200Y-111417296D01*
X168894565Y-111150448D01*
X169161413Y-110751083D01*
X169255117Y-110280000D01*
X169161413Y-109808917D01*
X168926402Y-109457200D01*
X170300000Y-109457200D01*
X170474963Y-109422398D01*
X170623289Y-109323289D01*
X175523289Y-104423290D01*
X175622398Y-104274963D01*
X175657200Y-104100000D01*
X175657200Y-59439675D01*
X176048917Y-59701413D01*
X176062800Y-59704174D01*
X176062800Y-105090622D01*
X175077255Y-106076167D01*
X174856639Y-106075975D01*
X174590479Y-106185950D01*
X174386665Y-106389408D01*
X174276226Y-106655376D01*
X174275975Y-106943361D01*
X174385950Y-107209521D01*
X174589408Y-107413335D01*
X174855376Y-107523774D01*
X175143361Y-107524025D01*
X175409521Y-107414050D01*
X175613335Y-107210592D01*
X175723774Y-106944624D01*
X175723775Y-106943361D01*
X176575975Y-106943361D01*
X176685950Y-107209521D01*
X176842800Y-107366645D01*
X176842800Y-116620000D01*
X176877602Y-116794963D01*
X176976711Y-116943289D01*
X179381960Y-119348538D01*
X179289000Y-119815883D01*
X179289000Y-119864117D01*
X179382704Y-120335200D01*
X179649552Y-120734565D01*
X180048917Y-121001413D01*
X180520000Y-121095117D01*
X180991083Y-121001413D01*
X181390448Y-120734565D01*
X181657296Y-120335200D01*
X181751000Y-119864117D01*
X181751000Y-119815883D01*
X181657296Y-119344800D01*
X181390448Y-118945435D01*
X180991083Y-118678587D01*
X180520000Y-118584883D01*
X180048917Y-118678587D01*
X180022690Y-118696112D01*
X178943560Y-117616982D01*
X179330499Y-117616982D01*
X179542348Y-118048056D01*
X179903036Y-118365245D01*
X180203020Y-118489489D01*
X180393000Y-118428627D01*
X180393000Y-117427000D01*
X179390807Y-117427000D01*
X179330499Y-117616982D01*
X178943560Y-117616982D01*
X178309596Y-116983018D01*
X179330499Y-116983018D01*
X179390807Y-117173000D01*
X180393000Y-117173000D01*
X180393000Y-116171373D01*
X180203020Y-116110511D01*
X179903036Y-116234755D01*
X179542348Y-116551944D01*
X179330499Y-116983018D01*
X178309596Y-116983018D01*
X177757200Y-116430622D01*
X177757200Y-107366454D01*
X177913335Y-107210592D01*
X178023774Y-106944624D01*
X178024025Y-106656639D01*
X177914050Y-106390479D01*
X177710592Y-106186665D01*
X177444624Y-106076226D01*
X177156639Y-106075975D01*
X176890479Y-106185950D01*
X176686665Y-106389408D01*
X176576226Y-106655376D01*
X176575975Y-106943361D01*
X175723775Y-106943361D01*
X175723968Y-106722610D01*
X176843289Y-105603289D01*
X176942398Y-105454963D01*
X176977200Y-105280000D01*
X176977200Y-59704174D01*
X176991083Y-59701413D01*
X177342800Y-59466402D01*
X177342800Y-102300000D01*
X177377602Y-102474963D01*
X177476711Y-102623289D01*
X178076167Y-103222746D01*
X178075975Y-103443361D01*
X178185950Y-103709521D01*
X178389408Y-103913335D01*
X178655376Y-104023774D01*
X178943361Y-104024025D01*
X179209521Y-103914050D01*
X179413335Y-103710592D01*
X179523774Y-103444624D01*
X179524025Y-103156639D01*
X179414050Y-102890479D01*
X179210592Y-102686665D01*
X178944624Y-102576226D01*
X178722611Y-102576032D01*
X178257200Y-102110622D01*
X178257200Y-72081071D01*
X178289408Y-72113335D01*
X178555376Y-72223774D01*
X178777390Y-72223968D01*
X182602800Y-76049378D01*
X182602800Y-102600383D01*
X182544624Y-102576226D01*
X182256639Y-102575975D01*
X181990479Y-102685950D01*
X181786665Y-102889408D01*
X181676226Y-103155376D01*
X181676032Y-103377390D01*
X181476711Y-103576711D01*
X181377602Y-103725037D01*
X181342800Y-103900000D01*
X181342800Y-116415767D01*
X181136964Y-116234755D01*
X180836980Y-116110511D01*
X180647000Y-116171373D01*
X180647000Y-117173000D01*
X180667000Y-117173000D01*
X180667000Y-117427000D01*
X180647000Y-117427000D01*
X180647000Y-118428627D01*
X180836980Y-118489489D01*
X181136964Y-118365245D01*
X181342800Y-118184233D01*
X181342800Y-118580000D01*
X181377602Y-118754963D01*
X181476711Y-118903289D01*
X181921960Y-119348538D01*
X181829000Y-119815883D01*
X181829000Y-119864117D01*
X181922704Y-120335200D01*
X182189552Y-120734565D01*
X182588917Y-121001413D01*
X183060000Y-121095117D01*
X183531083Y-121001413D01*
X183930448Y-120734565D01*
X184197296Y-120335200D01*
X184291000Y-119864117D01*
X184291000Y-119815883D01*
X184197296Y-119344800D01*
X183930448Y-118945435D01*
X183531083Y-118678587D01*
X183060000Y-118584883D01*
X182588917Y-118678587D01*
X182562690Y-118696112D01*
X182257200Y-118390622D01*
X182257200Y-118239766D01*
X182588917Y-118461413D01*
X183060000Y-118555117D01*
X183531083Y-118461413D01*
X183842800Y-118253130D01*
X183842800Y-118540000D01*
X183877602Y-118714963D01*
X183976711Y-118863289D01*
X184461960Y-119348538D01*
X184369000Y-119815883D01*
X184369000Y-119864117D01*
X184462704Y-120335200D01*
X184729552Y-120734565D01*
X185128917Y-121001413D01*
X185600000Y-121095117D01*
X186071083Y-121001413D01*
X186470448Y-120734565D01*
X186737296Y-120335200D01*
X186831000Y-119864117D01*
X186831000Y-119815883D01*
X186737296Y-119344800D01*
X186470448Y-118945435D01*
X186071083Y-118678587D01*
X185600000Y-118584883D01*
X185128917Y-118678587D01*
X185102690Y-118696112D01*
X184945042Y-118538464D01*
X186450000Y-118538464D01*
X186591190Y-118511897D01*
X186720865Y-118428454D01*
X186807859Y-118301134D01*
X186838464Y-118150000D01*
X186838464Y-116450000D01*
X186811897Y-116308810D01*
X186728454Y-116179135D01*
X186601134Y-116092141D01*
X186450000Y-116061536D01*
X186057200Y-116061536D01*
X186057200Y-115676980D01*
X196510511Y-115676980D01*
X196634755Y-115976964D01*
X196951944Y-116337652D01*
X197383018Y-116549501D01*
X197573000Y-116489193D01*
X197573000Y-115487000D01*
X197827000Y-115487000D01*
X197827000Y-116489193D01*
X198016982Y-116549501D01*
X198448056Y-116337652D01*
X198765245Y-115976964D01*
X198889489Y-115676980D01*
X198828627Y-115487000D01*
X197827000Y-115487000D01*
X197573000Y-115487000D01*
X196571373Y-115487000D01*
X196510511Y-115676980D01*
X186057200Y-115676980D01*
X186057200Y-115360000D01*
X198984883Y-115360000D01*
X199078587Y-115831083D01*
X199345435Y-116230448D01*
X199744800Y-116497296D01*
X200215883Y-116591000D01*
X200264117Y-116591000D01*
X200735200Y-116497296D01*
X201134565Y-116230448D01*
X201401413Y-115831083D01*
X201495117Y-115360000D01*
X201401413Y-114888917D01*
X201134565Y-114489552D01*
X200735200Y-114222704D01*
X200264117Y-114129000D01*
X200215883Y-114129000D01*
X199744800Y-114222704D01*
X199345435Y-114489552D01*
X199078587Y-114888917D01*
X198984883Y-115360000D01*
X186057200Y-115360000D01*
X186057200Y-115043020D01*
X196510511Y-115043020D01*
X196571373Y-115233000D01*
X197573000Y-115233000D01*
X197573000Y-114230807D01*
X197827000Y-114230807D01*
X197827000Y-115233000D01*
X198828627Y-115233000D01*
X198889489Y-115043020D01*
X198765245Y-114743036D01*
X198448056Y-114382348D01*
X198016982Y-114170499D01*
X197827000Y-114230807D01*
X197573000Y-114230807D01*
X197383018Y-114170499D01*
X196951944Y-114382348D01*
X196634755Y-114743036D01*
X196510511Y-115043020D01*
X186057200Y-115043020D01*
X186057200Y-112820000D01*
X196444883Y-112820000D01*
X196538587Y-113291083D01*
X196805435Y-113690448D01*
X197204800Y-113957296D01*
X197675883Y-114051000D01*
X197724117Y-114051000D01*
X198195200Y-113957296D01*
X198594565Y-113690448D01*
X198861413Y-113291083D01*
X198955117Y-112820000D01*
X198984883Y-112820000D01*
X199078587Y-113291083D01*
X199345435Y-113690448D01*
X199744800Y-113957296D01*
X200215883Y-114051000D01*
X200264117Y-114051000D01*
X200735200Y-113957296D01*
X201134565Y-113690448D01*
X201401413Y-113291083D01*
X201495117Y-112820000D01*
X201401413Y-112348917D01*
X201134565Y-111949552D01*
X200735200Y-111682704D01*
X200264117Y-111589000D01*
X200215883Y-111589000D01*
X199744800Y-111682704D01*
X199345435Y-111949552D01*
X199078587Y-112348917D01*
X198984883Y-112820000D01*
X198955117Y-112820000D01*
X198861413Y-112348917D01*
X198594565Y-111949552D01*
X198195200Y-111682704D01*
X197724117Y-111589000D01*
X197675883Y-111589000D01*
X197204800Y-111682704D01*
X196805435Y-111949552D01*
X196538587Y-112348917D01*
X196444883Y-112820000D01*
X186057200Y-112820000D01*
X186057200Y-110280000D01*
X196444883Y-110280000D01*
X196538587Y-110751083D01*
X196805435Y-111150448D01*
X197204800Y-111417296D01*
X197675883Y-111511000D01*
X197724117Y-111511000D01*
X198195200Y-111417296D01*
X198594565Y-111150448D01*
X198861413Y-110751083D01*
X198955117Y-110280000D01*
X198984883Y-110280000D01*
X199078587Y-110751083D01*
X199345435Y-111150448D01*
X199744800Y-111417296D01*
X200215883Y-111511000D01*
X200264117Y-111511000D01*
X200735200Y-111417296D01*
X201134565Y-111150448D01*
X201401413Y-110751083D01*
X201495117Y-110280000D01*
X201401413Y-109808917D01*
X201134565Y-109409552D01*
X200735200Y-109142704D01*
X200264117Y-109049000D01*
X200215883Y-109049000D01*
X199744800Y-109142704D01*
X199345435Y-109409552D01*
X199078587Y-109808917D01*
X198984883Y-110280000D01*
X198955117Y-110280000D01*
X198861413Y-109808917D01*
X198594565Y-109409552D01*
X198195200Y-109142704D01*
X197724117Y-109049000D01*
X197675883Y-109049000D01*
X197204800Y-109142704D01*
X196805435Y-109409552D01*
X196538587Y-109808917D01*
X196444883Y-110280000D01*
X186057200Y-110280000D01*
X186057200Y-107740000D01*
X196444883Y-107740000D01*
X196538587Y-108211083D01*
X196805435Y-108610448D01*
X197204800Y-108877296D01*
X197675883Y-108971000D01*
X197724117Y-108971000D01*
X198195200Y-108877296D01*
X198594565Y-108610448D01*
X198861413Y-108211083D01*
X198892065Y-108056980D01*
X199050511Y-108056980D01*
X199174755Y-108356964D01*
X199491944Y-108717652D01*
X199923018Y-108929501D01*
X200113000Y-108869193D01*
X200113000Y-107867000D01*
X200367000Y-107867000D01*
X200367000Y-108869193D01*
X200556982Y-108929501D01*
X200988056Y-108717652D01*
X201305245Y-108356964D01*
X201429489Y-108056980D01*
X201368627Y-107867000D01*
X200367000Y-107867000D01*
X200113000Y-107867000D01*
X199111373Y-107867000D01*
X199050511Y-108056980D01*
X198892065Y-108056980D01*
X198955117Y-107740000D01*
X198892066Y-107423020D01*
X199050511Y-107423020D01*
X199111373Y-107613000D01*
X200113000Y-107613000D01*
X200113000Y-106610807D01*
X200367000Y-106610807D01*
X200367000Y-107613000D01*
X201368627Y-107613000D01*
X201429489Y-107423020D01*
X201305245Y-107123036D01*
X200988056Y-106762348D01*
X200556982Y-106550499D01*
X200367000Y-106610807D01*
X200113000Y-106610807D01*
X199923018Y-106550499D01*
X199491944Y-106762348D01*
X199174755Y-107123036D01*
X199050511Y-107423020D01*
X198892066Y-107423020D01*
X198861413Y-107268917D01*
X198594565Y-106869552D01*
X198195200Y-106602704D01*
X197724117Y-106509000D01*
X197675883Y-106509000D01*
X197204800Y-106602704D01*
X196805435Y-106869552D01*
X196538587Y-107268917D01*
X196444883Y-107740000D01*
X186057200Y-107740000D01*
X186057200Y-105200000D01*
X196444883Y-105200000D01*
X196538587Y-105671083D01*
X196805435Y-106070448D01*
X197204800Y-106337296D01*
X197675883Y-106431000D01*
X197724117Y-106431000D01*
X198195200Y-106337296D01*
X198594565Y-106070448D01*
X198861413Y-105671083D01*
X198955117Y-105200000D01*
X198984883Y-105200000D01*
X199078587Y-105671083D01*
X199345435Y-106070448D01*
X199744800Y-106337296D01*
X200215883Y-106431000D01*
X200264117Y-106431000D01*
X200735200Y-106337296D01*
X201134565Y-106070448D01*
X201401413Y-105671083D01*
X201495117Y-105200000D01*
X201401413Y-104728917D01*
X201134565Y-104329552D01*
X200735200Y-104062704D01*
X200264117Y-103969000D01*
X200215883Y-103969000D01*
X199744800Y-104062704D01*
X199345435Y-104329552D01*
X199078587Y-104728917D01*
X198984883Y-105200000D01*
X198955117Y-105200000D01*
X198861413Y-104728917D01*
X198594565Y-104329552D01*
X198195200Y-104062704D01*
X197724117Y-103969000D01*
X197675883Y-103969000D01*
X197204800Y-104062704D01*
X196805435Y-104329552D01*
X196538587Y-104728917D01*
X196444883Y-105200000D01*
X186057200Y-105200000D01*
X186057200Y-102660000D01*
X196444883Y-102660000D01*
X196538587Y-103131083D01*
X196805435Y-103530448D01*
X197204800Y-103797296D01*
X197675883Y-103891000D01*
X197724117Y-103891000D01*
X198195200Y-103797296D01*
X198594565Y-103530448D01*
X198861413Y-103131083D01*
X198892065Y-102976980D01*
X199050511Y-102976980D01*
X199174755Y-103276964D01*
X199491944Y-103637652D01*
X199923018Y-103849501D01*
X200113000Y-103789193D01*
X200113000Y-102787000D01*
X200367000Y-102787000D01*
X200367000Y-103789193D01*
X200556982Y-103849501D01*
X200988056Y-103637652D01*
X201305245Y-103276964D01*
X201429489Y-102976980D01*
X201368627Y-102787000D01*
X200367000Y-102787000D01*
X200113000Y-102787000D01*
X199111373Y-102787000D01*
X199050511Y-102976980D01*
X198892065Y-102976980D01*
X198955117Y-102660000D01*
X198892066Y-102343020D01*
X199050511Y-102343020D01*
X199111373Y-102533000D01*
X200113000Y-102533000D01*
X200113000Y-101530807D01*
X200367000Y-101530807D01*
X200367000Y-102533000D01*
X201368627Y-102533000D01*
X201429489Y-102343020D01*
X201305245Y-102043036D01*
X200988056Y-101682348D01*
X200556982Y-101470499D01*
X200367000Y-101530807D01*
X200113000Y-101530807D01*
X199923018Y-101470499D01*
X199491944Y-101682348D01*
X199174755Y-102043036D01*
X199050511Y-102343020D01*
X198892066Y-102343020D01*
X198861413Y-102188917D01*
X198594565Y-101789552D01*
X198195200Y-101522704D01*
X197724117Y-101429000D01*
X197675883Y-101429000D01*
X197204800Y-101522704D01*
X196805435Y-101789552D01*
X196538587Y-102188917D01*
X196444883Y-102660000D01*
X186057200Y-102660000D01*
X186057200Y-100120000D01*
X196444883Y-100120000D01*
X196538587Y-100591083D01*
X196805435Y-100990448D01*
X197204800Y-101257296D01*
X197675883Y-101351000D01*
X197724117Y-101351000D01*
X198195200Y-101257296D01*
X198594565Y-100990448D01*
X198861413Y-100591083D01*
X198955117Y-100120000D01*
X198984883Y-100120000D01*
X199078587Y-100591083D01*
X199345435Y-100990448D01*
X199744800Y-101257296D01*
X200215883Y-101351000D01*
X200264117Y-101351000D01*
X200735200Y-101257296D01*
X201134565Y-100990448D01*
X201401413Y-100591083D01*
X201495117Y-100120000D01*
X201401413Y-99648917D01*
X201134565Y-99249552D01*
X200735200Y-98982704D01*
X200264117Y-98889000D01*
X200215883Y-98889000D01*
X199744800Y-98982704D01*
X199345435Y-99249552D01*
X199078587Y-99648917D01*
X198984883Y-100120000D01*
X198955117Y-100120000D01*
X198861413Y-99648917D01*
X198594565Y-99249552D01*
X198195200Y-98982704D01*
X197724117Y-98889000D01*
X197675883Y-98889000D01*
X197204800Y-98982704D01*
X196805435Y-99249552D01*
X196538587Y-99648917D01*
X196444883Y-100120000D01*
X186057200Y-100120000D01*
X186057200Y-97896980D01*
X196510511Y-97896980D01*
X196634755Y-98196964D01*
X196951944Y-98557652D01*
X197383018Y-98769501D01*
X197573000Y-98709193D01*
X197573000Y-97707000D01*
X197827000Y-97707000D01*
X197827000Y-98709193D01*
X198016982Y-98769501D01*
X198448056Y-98557652D01*
X198765245Y-98196964D01*
X198889489Y-97896980D01*
X198828627Y-97707000D01*
X197827000Y-97707000D01*
X197573000Y-97707000D01*
X196571373Y-97707000D01*
X196510511Y-97896980D01*
X186057200Y-97896980D01*
X186057200Y-97580000D01*
X198984883Y-97580000D01*
X199078587Y-98051083D01*
X199345435Y-98450448D01*
X199744800Y-98717296D01*
X200215883Y-98811000D01*
X200264117Y-98811000D01*
X200735200Y-98717296D01*
X201134565Y-98450448D01*
X201401413Y-98051083D01*
X201495117Y-97580000D01*
X201401413Y-97108917D01*
X201134565Y-96709552D01*
X200735200Y-96442704D01*
X200264117Y-96349000D01*
X200215883Y-96349000D01*
X199744800Y-96442704D01*
X199345435Y-96709552D01*
X199078587Y-97108917D01*
X198984883Y-97580000D01*
X186057200Y-97580000D01*
X186057200Y-86427068D01*
X187348136Y-87718004D01*
X187385950Y-87809521D01*
X187589408Y-88013335D01*
X187855376Y-88123774D01*
X188143361Y-88124025D01*
X188409521Y-88014050D01*
X188613335Y-87810592D01*
X188723774Y-87544624D01*
X188724025Y-87256639D01*
X188614050Y-86990479D01*
X188410592Y-86786665D01*
X188318146Y-86748278D01*
X187085800Y-85515932D01*
X187085800Y-68436076D01*
X187123774Y-68344624D01*
X187124025Y-68056639D01*
X187014050Y-67790479D01*
X186810592Y-67586665D01*
X186544624Y-67476226D01*
X186256639Y-67475975D01*
X185990479Y-67585950D01*
X185786665Y-67789408D01*
X185676226Y-68055376D01*
X185675975Y-68343361D01*
X185714200Y-68435873D01*
X185714200Y-70467622D01*
X185523833Y-70277255D01*
X185524025Y-70056639D01*
X185414050Y-69790479D01*
X185210592Y-69586665D01*
X184944624Y-69476226D01*
X184656639Y-69475975D01*
X184390479Y-69585950D01*
X184186665Y-69789408D01*
X184076226Y-70055376D01*
X184075975Y-70343361D01*
X184185950Y-70609521D01*
X184389408Y-70813335D01*
X184655376Y-70923774D01*
X184877390Y-70923968D01*
X185142800Y-71189378D01*
X185142800Y-116061536D01*
X184757200Y-116061536D01*
X184757200Y-75800000D01*
X184722398Y-75625037D01*
X184699286Y-75590448D01*
X184623832Y-75477523D01*
X184624025Y-75256639D01*
X184514050Y-74990479D01*
X184310592Y-74786665D01*
X184044624Y-74676226D01*
X183756639Y-74675975D01*
X183490479Y-74785950D01*
X183286665Y-74989408D01*
X183176226Y-75255376D01*
X183176161Y-75329583D01*
X179423833Y-71577255D01*
X179423968Y-71422610D01*
X180623289Y-70223289D01*
X180722398Y-70074963D01*
X180757200Y-69900000D01*
X180757200Y-59453039D01*
X180914200Y-59557943D01*
X180914200Y-65500000D01*
X180966403Y-65762445D01*
X181115066Y-65984934D01*
X181548136Y-66418004D01*
X181585950Y-66509521D01*
X181789408Y-66713335D01*
X182055376Y-66823774D01*
X182343361Y-66824025D01*
X182609521Y-66714050D01*
X182813335Y-66510592D01*
X182923774Y-66244624D01*
X182924025Y-65956639D01*
X182814050Y-65690479D01*
X182610592Y-65486665D01*
X182518146Y-65448278D01*
X182285800Y-65215932D01*
X182285800Y-62343361D01*
X182575975Y-62343361D01*
X182685950Y-62609521D01*
X182889408Y-62813335D01*
X183155376Y-62923774D01*
X183377390Y-62923968D01*
X184676711Y-64223289D01*
X184825037Y-64322398D01*
X185000000Y-64357200D01*
X188410622Y-64357200D01*
X189642800Y-65589378D01*
X189642800Y-74600000D01*
X189677602Y-74774963D01*
X189776711Y-74923289D01*
X190276167Y-75422745D01*
X190275975Y-75643361D01*
X190385950Y-75909521D01*
X190589408Y-76113335D01*
X190855376Y-76223774D01*
X191143361Y-76224025D01*
X191242800Y-76182938D01*
X191242800Y-92200000D01*
X191277602Y-92374963D01*
X191376711Y-92523289D01*
X195476711Y-96623289D01*
X195625037Y-96722398D01*
X195800000Y-96757200D01*
X196815767Y-96757200D01*
X196634755Y-96963036D01*
X196510511Y-97263020D01*
X196571373Y-97453000D01*
X197573000Y-97453000D01*
X197573000Y-97433000D01*
X197827000Y-97433000D01*
X197827000Y-97453000D01*
X198828627Y-97453000D01*
X198889489Y-97263020D01*
X198765245Y-96963036D01*
X198584233Y-96757200D01*
X198980000Y-96757200D01*
X199154963Y-96722398D01*
X199303289Y-96623289D01*
X199748538Y-96178040D01*
X200215883Y-96271000D01*
X200264117Y-96271000D01*
X200735200Y-96177296D01*
X201134565Y-95910448D01*
X201401413Y-95511083D01*
X201495117Y-95040000D01*
X201401413Y-94568917D01*
X201134565Y-94169552D01*
X200735200Y-93902704D01*
X200264117Y-93809000D01*
X200215883Y-93809000D01*
X199744800Y-93902704D01*
X199345435Y-94169552D01*
X199078587Y-94568917D01*
X198984883Y-95040000D01*
X199078587Y-95511083D01*
X199096112Y-95537310D01*
X198790622Y-95842800D01*
X198639766Y-95842800D01*
X198861413Y-95511083D01*
X198955117Y-95040000D01*
X198861413Y-94568917D01*
X198594565Y-94169552D01*
X198195200Y-93902704D01*
X197724117Y-93809000D01*
X197675883Y-93809000D01*
X197208539Y-93901960D01*
X192657200Y-89350622D01*
X192657200Y-88103778D01*
X196556112Y-92002690D01*
X196538587Y-92028917D01*
X196444883Y-92500000D01*
X196538587Y-92971083D01*
X196805435Y-93370448D01*
X197204800Y-93637296D01*
X197675883Y-93731000D01*
X197724117Y-93731000D01*
X198195200Y-93637296D01*
X198594565Y-93370448D01*
X198861413Y-92971083D01*
X198955117Y-92500000D01*
X198984883Y-92500000D01*
X199078587Y-92971083D01*
X199345435Y-93370448D01*
X199744800Y-93637296D01*
X200215883Y-93731000D01*
X200264117Y-93731000D01*
X200735200Y-93637296D01*
X201134565Y-93370448D01*
X201401413Y-92971083D01*
X201495117Y-92500000D01*
X201401413Y-92028917D01*
X201134565Y-91629552D01*
X200735200Y-91362704D01*
X200264117Y-91269000D01*
X200215883Y-91269000D01*
X199744800Y-91362704D01*
X199345435Y-91629552D01*
X199078587Y-92028917D01*
X198984883Y-92500000D01*
X198955117Y-92500000D01*
X198861413Y-92028917D01*
X198594565Y-91629552D01*
X198195200Y-91362704D01*
X197724117Y-91269000D01*
X197675883Y-91269000D01*
X197208538Y-91361960D01*
X193057200Y-87210622D01*
X193057200Y-85963778D01*
X196556112Y-89462690D01*
X196538587Y-89488917D01*
X196444883Y-89960000D01*
X196538587Y-90431083D01*
X196805435Y-90830448D01*
X197204800Y-91097296D01*
X197675883Y-91191000D01*
X197724117Y-91191000D01*
X198195200Y-91097296D01*
X198594565Y-90830448D01*
X198861413Y-90431083D01*
X198892065Y-90276980D01*
X199050511Y-90276980D01*
X199174755Y-90576964D01*
X199491944Y-90937652D01*
X199923018Y-91149501D01*
X200113000Y-91089193D01*
X200113000Y-90087000D01*
X200367000Y-90087000D01*
X200367000Y-91089193D01*
X200556982Y-91149501D01*
X200988056Y-90937652D01*
X201305245Y-90576964D01*
X201429489Y-90276980D01*
X201368627Y-90087000D01*
X200367000Y-90087000D01*
X200113000Y-90087000D01*
X199111373Y-90087000D01*
X199050511Y-90276980D01*
X198892065Y-90276980D01*
X198955117Y-89960000D01*
X198892066Y-89643020D01*
X199050511Y-89643020D01*
X199111373Y-89833000D01*
X200113000Y-89833000D01*
X200113000Y-88830807D01*
X200367000Y-88830807D01*
X200367000Y-89833000D01*
X201368627Y-89833000D01*
X201429489Y-89643020D01*
X201305245Y-89343036D01*
X200988056Y-88982348D01*
X200556982Y-88770499D01*
X200367000Y-88830807D01*
X200113000Y-88830807D01*
X199923018Y-88770499D01*
X199491944Y-88982348D01*
X199174755Y-89343036D01*
X199050511Y-89643020D01*
X198892066Y-89643020D01*
X198861413Y-89488917D01*
X198594565Y-89089552D01*
X198195200Y-88822704D01*
X197724117Y-88729000D01*
X197675883Y-88729000D01*
X197208538Y-88821960D01*
X195806578Y-87420000D01*
X196444883Y-87420000D01*
X196538587Y-87891083D01*
X196805435Y-88290448D01*
X197204800Y-88557296D01*
X197675883Y-88651000D01*
X197724117Y-88651000D01*
X198195200Y-88557296D01*
X198594565Y-88290448D01*
X198861413Y-87891083D01*
X198955117Y-87420000D01*
X198984883Y-87420000D01*
X199078587Y-87891083D01*
X199345435Y-88290448D01*
X199744800Y-88557296D01*
X200215883Y-88651000D01*
X200264117Y-88651000D01*
X200735200Y-88557296D01*
X201134565Y-88290448D01*
X201401413Y-87891083D01*
X201495117Y-87420000D01*
X201401413Y-86948917D01*
X201134565Y-86549552D01*
X200735200Y-86282704D01*
X200264117Y-86189000D01*
X200215883Y-86189000D01*
X199744800Y-86282704D01*
X199345435Y-86549552D01*
X199078587Y-86948917D01*
X198984883Y-87420000D01*
X198955117Y-87420000D01*
X198861413Y-86948917D01*
X198594565Y-86549552D01*
X198195200Y-86282704D01*
X197724117Y-86189000D01*
X197675883Y-86189000D01*
X197204800Y-86282704D01*
X196805435Y-86549552D01*
X196538587Y-86948917D01*
X196444883Y-87420000D01*
X195806578Y-87420000D01*
X193457200Y-85070622D01*
X193457200Y-84880000D01*
X196444883Y-84880000D01*
X196538587Y-85351083D01*
X196805435Y-85750448D01*
X197204800Y-86017296D01*
X197675883Y-86111000D01*
X197724117Y-86111000D01*
X198195200Y-86017296D01*
X198594565Y-85750448D01*
X198861413Y-85351083D01*
X198955117Y-84880000D01*
X198984883Y-84880000D01*
X199078587Y-85351083D01*
X199345435Y-85750448D01*
X199744800Y-86017296D01*
X200215883Y-86111000D01*
X200264117Y-86111000D01*
X200735200Y-86017296D01*
X201134565Y-85750448D01*
X201401413Y-85351083D01*
X201495117Y-84880000D01*
X201401413Y-84408917D01*
X201134565Y-84009552D01*
X200735200Y-83742704D01*
X200264117Y-83649000D01*
X200215883Y-83649000D01*
X199744800Y-83742704D01*
X199345435Y-84009552D01*
X199078587Y-84408917D01*
X198984883Y-84880000D01*
X198955117Y-84880000D01*
X198861413Y-84408917D01*
X198594565Y-84009552D01*
X198195200Y-83742704D01*
X197724117Y-83649000D01*
X197675883Y-83649000D01*
X197204800Y-83742704D01*
X196805435Y-84009552D01*
X196538587Y-84408917D01*
X196444883Y-84880000D01*
X193457200Y-84880000D01*
X193457200Y-82340000D01*
X196444883Y-82340000D01*
X196538587Y-82811083D01*
X196805435Y-83210448D01*
X197204800Y-83477296D01*
X197675883Y-83571000D01*
X197724117Y-83571000D01*
X198195200Y-83477296D01*
X198594565Y-83210448D01*
X198861413Y-82811083D01*
X198892065Y-82656980D01*
X199050511Y-82656980D01*
X199174755Y-82956964D01*
X199491944Y-83317652D01*
X199923018Y-83529501D01*
X200113000Y-83469193D01*
X200113000Y-82467000D01*
X200367000Y-82467000D01*
X200367000Y-83469193D01*
X200556982Y-83529501D01*
X200988056Y-83317652D01*
X201305245Y-82956964D01*
X201429489Y-82656980D01*
X201368627Y-82467000D01*
X200367000Y-82467000D01*
X200113000Y-82467000D01*
X199111373Y-82467000D01*
X199050511Y-82656980D01*
X198892065Y-82656980D01*
X198955117Y-82340000D01*
X198892066Y-82023020D01*
X199050511Y-82023020D01*
X199111373Y-82213000D01*
X200113000Y-82213000D01*
X200113000Y-81210807D01*
X200367000Y-81210807D01*
X200367000Y-82213000D01*
X201368627Y-82213000D01*
X201429489Y-82023020D01*
X201305245Y-81723036D01*
X200988056Y-81362348D01*
X200556982Y-81150499D01*
X200367000Y-81210807D01*
X200113000Y-81210807D01*
X199923018Y-81150499D01*
X199491944Y-81362348D01*
X199174755Y-81723036D01*
X199050511Y-82023020D01*
X198892066Y-82023020D01*
X198861413Y-81868917D01*
X198594565Y-81469552D01*
X198195200Y-81202704D01*
X197724117Y-81109000D01*
X197675883Y-81109000D01*
X197204800Y-81202704D01*
X196805435Y-81469552D01*
X196538587Y-81868917D01*
X196444883Y-82340000D01*
X193457200Y-82340000D01*
X193457200Y-79800000D01*
X196444883Y-79800000D01*
X196538587Y-80271083D01*
X196805435Y-80670448D01*
X197204800Y-80937296D01*
X197675883Y-81031000D01*
X197724117Y-81031000D01*
X198195200Y-80937296D01*
X198594565Y-80670448D01*
X198861413Y-80271083D01*
X198955117Y-79800000D01*
X198984883Y-79800000D01*
X199078587Y-80271083D01*
X199345435Y-80670448D01*
X199744800Y-80937296D01*
X200215883Y-81031000D01*
X200264117Y-81031000D01*
X200735200Y-80937296D01*
X201134565Y-80670448D01*
X201401413Y-80271083D01*
X201495117Y-79800000D01*
X201401413Y-79328917D01*
X201134565Y-78929552D01*
X200735200Y-78662704D01*
X200264117Y-78569000D01*
X200215883Y-78569000D01*
X199744800Y-78662704D01*
X199345435Y-78929552D01*
X199078587Y-79328917D01*
X198984883Y-79800000D01*
X198955117Y-79800000D01*
X198861413Y-79328917D01*
X198594565Y-78929552D01*
X198195200Y-78662704D01*
X197724117Y-78569000D01*
X197675883Y-78569000D01*
X197204800Y-78662704D01*
X196805435Y-78929552D01*
X196538587Y-79328917D01*
X196444883Y-79800000D01*
X193457200Y-79800000D01*
X193457200Y-77576980D01*
X196510511Y-77576980D01*
X196634755Y-77876964D01*
X196951944Y-78237652D01*
X197383018Y-78449501D01*
X197573000Y-78389193D01*
X197573000Y-77387000D01*
X197827000Y-77387000D01*
X197827000Y-78389193D01*
X198016982Y-78449501D01*
X198448056Y-78237652D01*
X198765245Y-77876964D01*
X198889489Y-77576980D01*
X198828627Y-77387000D01*
X197827000Y-77387000D01*
X197573000Y-77387000D01*
X196571373Y-77387000D01*
X196510511Y-77576980D01*
X193457200Y-77576980D01*
X193457200Y-77260000D01*
X198984883Y-77260000D01*
X199078587Y-77731083D01*
X199345435Y-78130448D01*
X199744800Y-78397296D01*
X200215883Y-78491000D01*
X200264117Y-78491000D01*
X200735200Y-78397296D01*
X201134565Y-78130448D01*
X201401413Y-77731083D01*
X201495117Y-77260000D01*
X201401413Y-76788917D01*
X201134565Y-76389552D01*
X200735200Y-76122704D01*
X200264117Y-76029000D01*
X200215883Y-76029000D01*
X199744800Y-76122704D01*
X199345435Y-76389552D01*
X199078587Y-76788917D01*
X198984883Y-77260000D01*
X193457200Y-77260000D01*
X193457200Y-76943020D01*
X196510511Y-76943020D01*
X196571373Y-77133000D01*
X197573000Y-77133000D01*
X197573000Y-76130807D01*
X197827000Y-76130807D01*
X197827000Y-77133000D01*
X198828627Y-77133000D01*
X198889489Y-76943020D01*
X198765245Y-76643036D01*
X198448056Y-76282348D01*
X198016982Y-76070499D01*
X197827000Y-76130807D01*
X197573000Y-76130807D01*
X197383018Y-76070499D01*
X196951944Y-76282348D01*
X196634755Y-76643036D01*
X196510511Y-76943020D01*
X193457200Y-76943020D01*
X193457200Y-74720000D01*
X196444883Y-74720000D01*
X196538587Y-75191083D01*
X196805435Y-75590448D01*
X197204800Y-75857296D01*
X197675883Y-75951000D01*
X197724117Y-75951000D01*
X198195200Y-75857296D01*
X198594565Y-75590448D01*
X198861413Y-75191083D01*
X198955117Y-74720000D01*
X198984883Y-74720000D01*
X199078587Y-75191083D01*
X199345435Y-75590448D01*
X199744800Y-75857296D01*
X200215883Y-75951000D01*
X200264117Y-75951000D01*
X200735200Y-75857296D01*
X201134565Y-75590448D01*
X201401413Y-75191083D01*
X201495117Y-74720000D01*
X201401413Y-74248917D01*
X201134565Y-73849552D01*
X200735200Y-73582704D01*
X200264117Y-73489000D01*
X200215883Y-73489000D01*
X199744800Y-73582704D01*
X199345435Y-73849552D01*
X199078587Y-74248917D01*
X198984883Y-74720000D01*
X198955117Y-74720000D01*
X198861413Y-74248917D01*
X198594565Y-73849552D01*
X198195200Y-73582704D01*
X197724117Y-73489000D01*
X197675883Y-73489000D01*
X197204800Y-73582704D01*
X196805435Y-73849552D01*
X196538587Y-74248917D01*
X196444883Y-74720000D01*
X193457200Y-74720000D01*
X193457200Y-72180000D01*
X196444883Y-72180000D01*
X196538587Y-72651083D01*
X196805435Y-73050448D01*
X197204800Y-73317296D01*
X197675883Y-73411000D01*
X197724117Y-73411000D01*
X198195200Y-73317296D01*
X198594565Y-73050448D01*
X198861413Y-72651083D01*
X198892065Y-72496980D01*
X199050511Y-72496980D01*
X199174755Y-72796964D01*
X199491944Y-73157652D01*
X199923018Y-73369501D01*
X200113000Y-73309193D01*
X200113000Y-72307000D01*
X200367000Y-72307000D01*
X200367000Y-73309193D01*
X200556982Y-73369501D01*
X200988056Y-73157652D01*
X201305245Y-72796964D01*
X201429489Y-72496980D01*
X201368627Y-72307000D01*
X200367000Y-72307000D01*
X200113000Y-72307000D01*
X199111373Y-72307000D01*
X199050511Y-72496980D01*
X198892065Y-72496980D01*
X198955117Y-72180000D01*
X198892066Y-71863020D01*
X199050511Y-71863020D01*
X199111373Y-72053000D01*
X200113000Y-72053000D01*
X200113000Y-71050807D01*
X200367000Y-71050807D01*
X200367000Y-72053000D01*
X201368627Y-72053000D01*
X201429489Y-71863020D01*
X201305245Y-71563036D01*
X200988056Y-71202348D01*
X200556982Y-70990499D01*
X200367000Y-71050807D01*
X200113000Y-71050807D01*
X199923018Y-70990499D01*
X199491944Y-71202348D01*
X199174755Y-71563036D01*
X199050511Y-71863020D01*
X198892066Y-71863020D01*
X198861413Y-71708917D01*
X198594565Y-71309552D01*
X198195200Y-71042704D01*
X197724117Y-70949000D01*
X197675883Y-70949000D01*
X197204800Y-71042704D01*
X196805435Y-71309552D01*
X196538587Y-71708917D01*
X196444883Y-72180000D01*
X193457200Y-72180000D01*
X193457200Y-69640000D01*
X196444883Y-69640000D01*
X196538587Y-70111083D01*
X196805435Y-70510448D01*
X197204800Y-70777296D01*
X197675883Y-70871000D01*
X197724117Y-70871000D01*
X198195200Y-70777296D01*
X198594565Y-70510448D01*
X198861413Y-70111083D01*
X198955117Y-69640000D01*
X198984883Y-69640000D01*
X199078587Y-70111083D01*
X199345435Y-70510448D01*
X199744800Y-70777296D01*
X200215883Y-70871000D01*
X200264117Y-70871000D01*
X200735200Y-70777296D01*
X201134565Y-70510448D01*
X201401413Y-70111083D01*
X201495117Y-69640000D01*
X201401413Y-69168917D01*
X201134565Y-68769552D01*
X200735200Y-68502704D01*
X200264117Y-68409000D01*
X200215883Y-68409000D01*
X199744800Y-68502704D01*
X199345435Y-68769552D01*
X199078587Y-69168917D01*
X198984883Y-69640000D01*
X198955117Y-69640000D01*
X198861413Y-69168917D01*
X198594565Y-68769552D01*
X198195200Y-68502704D01*
X197724117Y-68409000D01*
X197675883Y-68409000D01*
X197204800Y-68502704D01*
X196805435Y-68769552D01*
X196538587Y-69168917D01*
X196444883Y-69640000D01*
X193457200Y-69640000D01*
X193457200Y-66250000D01*
X196461536Y-66250000D01*
X196461536Y-67950000D01*
X196488103Y-68091190D01*
X196571546Y-68220865D01*
X196698866Y-68307859D01*
X196850000Y-68338464D01*
X198550000Y-68338464D01*
X198691190Y-68311897D01*
X198820865Y-68228454D01*
X198907859Y-68101134D01*
X198938464Y-67950000D01*
X198938464Y-66250000D01*
X198911897Y-66108810D01*
X198828454Y-65979135D01*
X198701134Y-65892141D01*
X198550000Y-65861536D01*
X196850000Y-65861536D01*
X196708810Y-65888103D01*
X196579135Y-65971546D01*
X196492141Y-66098866D01*
X196461536Y-66250000D01*
X193457200Y-66250000D01*
X193457200Y-57240000D01*
X193456894Y-57238464D01*
X194568596Y-57238464D01*
X199554200Y-62224068D01*
X199554200Y-66090059D01*
X199345435Y-66229552D01*
X199078587Y-66628917D01*
X198984883Y-67100000D01*
X199078587Y-67571083D01*
X199345435Y-67970448D01*
X199744800Y-68237296D01*
X200215883Y-68331000D01*
X200264117Y-68331000D01*
X200735200Y-68237296D01*
X201134565Y-67970448D01*
X201401413Y-67571083D01*
X201495117Y-67100000D01*
X201401413Y-66628917D01*
X201134565Y-66229552D01*
X200925800Y-66090059D01*
X200925800Y-61940005D01*
X200925801Y-61940000D01*
X200873597Y-61677556D01*
X200724934Y-61455066D01*
X195538464Y-56268596D01*
X195538464Y-55150000D01*
X195511897Y-55008810D01*
X195428454Y-54879135D01*
X195301134Y-54792141D01*
X195150000Y-54761536D01*
X193450000Y-54761536D01*
X193308810Y-54788103D01*
X193179135Y-54871546D01*
X193092141Y-54998866D01*
X193061536Y-55150000D01*
X193061536Y-56654958D01*
X192898040Y-56491462D01*
X192991000Y-56024117D01*
X192991000Y-55975883D01*
X192897296Y-55504800D01*
X192630448Y-55105435D01*
X192231083Y-54838587D01*
X191760000Y-54744883D01*
X191288917Y-54838587D01*
X190889552Y-55105435D01*
X190622704Y-55504800D01*
X190529000Y-55975883D01*
X190529000Y-56024117D01*
X190622704Y-56495200D01*
X190889552Y-56894565D01*
X191288917Y-57161413D01*
X191760000Y-57255117D01*
X192231083Y-57161413D01*
X192257310Y-57143888D01*
X192542800Y-57429378D01*
X192542800Y-57586870D01*
X192231083Y-57378587D01*
X191760000Y-57284883D01*
X191288917Y-57378587D01*
X190957200Y-57600234D01*
X190957200Y-57280000D01*
X190922398Y-57105037D01*
X190823289Y-56956711D01*
X190358040Y-56491462D01*
X190451000Y-56024117D01*
X190451000Y-55975883D01*
X190357296Y-55504800D01*
X190090448Y-55105435D01*
X189691083Y-54838587D01*
X189220000Y-54744883D01*
X188748917Y-54838587D01*
X188349552Y-55105435D01*
X188082704Y-55504800D01*
X187989000Y-55975883D01*
X187989000Y-56024117D01*
X188082704Y-56495200D01*
X188349552Y-56894565D01*
X188748917Y-57161413D01*
X189220000Y-57255117D01*
X189691083Y-57161413D01*
X189717310Y-57143888D01*
X190042800Y-57469378D01*
X190042800Y-57613598D01*
X189691083Y-57378587D01*
X189220000Y-57284883D01*
X188748917Y-57378587D01*
X188349552Y-57645435D01*
X188082704Y-58044800D01*
X187989000Y-58515883D01*
X187989000Y-58564117D01*
X188082704Y-59035200D01*
X188176895Y-59176167D01*
X187956639Y-59175975D01*
X187690479Y-59285950D01*
X187568164Y-59408052D01*
X187817296Y-59035200D01*
X187911000Y-58564117D01*
X187911000Y-58515883D01*
X187817296Y-58044800D01*
X187550448Y-57645435D01*
X187151083Y-57378587D01*
X186680000Y-57284883D01*
X186208917Y-57378587D01*
X185809552Y-57645435D01*
X185542704Y-58044800D01*
X185449000Y-58515883D01*
X185449000Y-58564117D01*
X185542704Y-59035200D01*
X185809552Y-59434565D01*
X186208917Y-59701413D01*
X186680000Y-59795117D01*
X187151083Y-59701413D01*
X187523701Y-59452437D01*
X187486665Y-59489408D01*
X187376226Y-59755376D01*
X187375975Y-60043361D01*
X187485950Y-60309521D01*
X187642800Y-60466645D01*
X187642800Y-62700000D01*
X187677602Y-62874963D01*
X187776711Y-63023289D01*
X188196222Y-63442800D01*
X185189378Y-63442800D01*
X184023833Y-62277255D01*
X184024025Y-62056639D01*
X183914050Y-61790479D01*
X183710592Y-61586665D01*
X183444624Y-61476226D01*
X183156639Y-61475975D01*
X182890479Y-61585950D01*
X182686665Y-61789408D01*
X182576226Y-62055376D01*
X182575975Y-62343361D01*
X182285800Y-62343361D01*
X182285800Y-59557943D01*
X182470448Y-59434565D01*
X182737296Y-59035200D01*
X182772745Y-58856982D01*
X182950499Y-58856982D01*
X183162348Y-59288056D01*
X183523036Y-59605245D01*
X183823020Y-59729489D01*
X184013000Y-59668627D01*
X184013000Y-58667000D01*
X184267000Y-58667000D01*
X184267000Y-59668627D01*
X184456980Y-59729489D01*
X184756964Y-59605245D01*
X185117652Y-59288056D01*
X185329501Y-58856982D01*
X185269193Y-58667000D01*
X184267000Y-58667000D01*
X184013000Y-58667000D01*
X183010807Y-58667000D01*
X182950499Y-58856982D01*
X182772745Y-58856982D01*
X182831000Y-58564117D01*
X182831000Y-58515883D01*
X182772746Y-58223018D01*
X182950499Y-58223018D01*
X183010807Y-58413000D01*
X184013000Y-58413000D01*
X184013000Y-57411373D01*
X184267000Y-57411373D01*
X184267000Y-58413000D01*
X185269193Y-58413000D01*
X185329501Y-58223018D01*
X185117652Y-57791944D01*
X184756964Y-57474755D01*
X184456980Y-57350511D01*
X184267000Y-57411373D01*
X184013000Y-57411373D01*
X183823020Y-57350511D01*
X183523036Y-57474755D01*
X183162348Y-57791944D01*
X182950499Y-58223018D01*
X182772746Y-58223018D01*
X182737296Y-58044800D01*
X182470448Y-57645435D01*
X182071083Y-57378587D01*
X181600000Y-57284883D01*
X181128917Y-57378587D01*
X180757200Y-57626961D01*
X180757200Y-57240000D01*
X180722398Y-57065037D01*
X180623289Y-56916711D01*
X180198040Y-56491462D01*
X180291000Y-56024117D01*
X180291000Y-55975883D01*
X185449000Y-55975883D01*
X185449000Y-56024117D01*
X185542704Y-56495200D01*
X185809552Y-56894565D01*
X186208917Y-57161413D01*
X186680000Y-57255117D01*
X187151083Y-57161413D01*
X187550448Y-56894565D01*
X187817296Y-56495200D01*
X187911000Y-56024117D01*
X187911000Y-55975883D01*
X187817296Y-55504800D01*
X187550448Y-55105435D01*
X187151083Y-54838587D01*
X186680000Y-54744883D01*
X186208917Y-54838587D01*
X185809552Y-55105435D01*
X185542704Y-55504800D01*
X185449000Y-55975883D01*
X180291000Y-55975883D01*
X180197296Y-55504800D01*
X179930448Y-55105435D01*
X179531083Y-54838587D01*
X179060000Y-54744883D01*
X178588917Y-54838587D01*
X178189552Y-55105435D01*
X177922704Y-55504800D01*
X177829000Y-55975883D01*
X177829000Y-56024117D01*
X177922704Y-56495200D01*
X178189552Y-56894565D01*
X178588917Y-57161413D01*
X179060000Y-57255117D01*
X179531083Y-57161413D01*
X179557310Y-57143888D01*
X179842800Y-57429378D01*
X179842800Y-57586870D01*
X179531083Y-57378587D01*
X179060000Y-57284883D01*
X178588917Y-57378587D01*
X178257200Y-57600234D01*
X178257200Y-57280000D01*
X178222398Y-57105037D01*
X178123289Y-56956711D01*
X177658040Y-56491462D01*
X177751000Y-56024117D01*
X177751000Y-55975883D01*
X177657296Y-55504800D01*
X177390448Y-55105435D01*
X176991083Y-54838587D01*
X176520000Y-54744883D01*
X176048917Y-54838587D01*
X175649552Y-55105435D01*
X175382704Y-55504800D01*
X175289000Y-55975883D01*
X175289000Y-56024117D01*
X175382704Y-56495200D01*
X175649552Y-56894565D01*
X176048917Y-57161413D01*
X176520000Y-57255117D01*
X176991083Y-57161413D01*
X177017310Y-57143888D01*
X177342800Y-57469378D01*
X177342800Y-57613598D01*
X176991083Y-57378587D01*
X176520000Y-57284883D01*
X176048917Y-57378587D01*
X175657200Y-57640325D01*
X175657200Y-57220000D01*
X175622398Y-57045037D01*
X175593063Y-57001134D01*
X175523290Y-56896711D01*
X175118040Y-56491461D01*
X175211000Y-56024117D01*
X175211000Y-55975883D01*
X175117296Y-55504800D01*
X174850448Y-55105435D01*
X174451083Y-54838587D01*
X173980000Y-54744883D01*
X173508917Y-54838587D01*
X173109552Y-55105435D01*
X172842704Y-55504800D01*
X172749000Y-55975883D01*
X172749000Y-56024117D01*
X172842704Y-56495200D01*
X173109552Y-56894565D01*
X173508917Y-57161413D01*
X173980000Y-57255117D01*
X174451083Y-57161413D01*
X174477310Y-57143889D01*
X174742800Y-57409379D01*
X174742800Y-57573507D01*
X174451083Y-57378587D01*
X173980000Y-57284883D01*
X173508917Y-57378587D01*
X173109552Y-57645435D01*
X172842704Y-58044800D01*
X172749000Y-58515883D01*
X172749000Y-58564117D01*
X172842704Y-59035200D01*
X173109552Y-59434565D01*
X173508917Y-59701413D01*
X173522800Y-59704174D01*
X173522800Y-73630622D01*
X168491462Y-78661960D01*
X168024117Y-78569000D01*
X167975883Y-78569000D01*
X167504800Y-78662704D01*
X167105435Y-78929552D01*
X166838587Y-79328917D01*
X166744883Y-79800000D01*
X166838587Y-80271083D01*
X167105435Y-80670448D01*
X167504800Y-80937296D01*
X167975883Y-81031000D01*
X168024117Y-81031000D01*
X168495200Y-80937296D01*
X168894565Y-80670448D01*
X169161413Y-80271083D01*
X169255117Y-79800000D01*
X169161413Y-79328917D01*
X169143888Y-79302690D01*
X174303289Y-74143289D01*
X174402398Y-73994963D01*
X174437200Y-73820000D01*
X174437200Y-59704174D01*
X174451083Y-59701413D01*
X174742800Y-59506493D01*
X174742800Y-103910621D01*
X170110622Y-108542800D01*
X168939766Y-108542800D01*
X169161413Y-108211083D01*
X169255117Y-107740000D01*
X169161413Y-107268917D01*
X168894565Y-106869552D01*
X168495200Y-106602704D01*
X168024117Y-106509000D01*
X167975883Y-106509000D01*
X167504800Y-106602704D01*
X167105435Y-106869552D01*
X166838587Y-107268917D01*
X166744883Y-107740000D01*
X166838587Y-108211083D01*
X167060234Y-108542800D01*
X166740000Y-108542800D01*
X166565037Y-108577602D01*
X166416711Y-108676711D01*
X165951462Y-109141960D01*
X165484117Y-109049000D01*
X165435883Y-109049000D01*
X164964800Y-109142704D01*
X164565435Y-109409552D01*
X164298587Y-109808917D01*
X164204883Y-110280000D01*
X163656000Y-110280000D01*
X163656000Y-108056980D01*
X164270511Y-108056980D01*
X164394755Y-108356964D01*
X164711944Y-108717652D01*
X165143018Y-108929501D01*
X165333000Y-108869193D01*
X165333000Y-107867000D01*
X165587000Y-107867000D01*
X165587000Y-108869193D01*
X165776982Y-108929501D01*
X166208056Y-108717652D01*
X166525245Y-108356964D01*
X166649489Y-108056980D01*
X166588627Y-107867000D01*
X165587000Y-107867000D01*
X165333000Y-107867000D01*
X164331373Y-107867000D01*
X164270511Y-108056980D01*
X163656000Y-108056980D01*
X163656000Y-107423020D01*
X164270511Y-107423020D01*
X164331373Y-107613000D01*
X165333000Y-107613000D01*
X165333000Y-106610807D01*
X165587000Y-106610807D01*
X165587000Y-107613000D01*
X166588627Y-107613000D01*
X166649489Y-107423020D01*
X166525245Y-107123036D01*
X166208056Y-106762348D01*
X165776982Y-106550499D01*
X165587000Y-106610807D01*
X165333000Y-106610807D01*
X165143018Y-106550499D01*
X164711944Y-106762348D01*
X164394755Y-107123036D01*
X164270511Y-107423020D01*
X163656000Y-107423020D01*
X163656000Y-105200000D01*
X164204883Y-105200000D01*
X164298587Y-105671083D01*
X164565435Y-106070448D01*
X164964800Y-106337296D01*
X165435883Y-106431000D01*
X165484117Y-106431000D01*
X165955200Y-106337296D01*
X166354565Y-106070448D01*
X166621413Y-105671083D01*
X166715117Y-105200000D01*
X166744883Y-105200000D01*
X166838587Y-105671083D01*
X167105435Y-106070448D01*
X167504800Y-106337296D01*
X167975883Y-106431000D01*
X168024117Y-106431000D01*
X168495200Y-106337296D01*
X168894565Y-106070448D01*
X169161413Y-105671083D01*
X169255117Y-105200000D01*
X169161413Y-104728917D01*
X168894565Y-104329552D01*
X168495200Y-104062704D01*
X168024117Y-103969000D01*
X167975883Y-103969000D01*
X167504800Y-104062704D01*
X167105435Y-104329552D01*
X166838587Y-104728917D01*
X166744883Y-105200000D01*
X166715117Y-105200000D01*
X166621413Y-104728917D01*
X166354565Y-104329552D01*
X165955200Y-104062704D01*
X165484117Y-103969000D01*
X165435883Y-103969000D01*
X164964800Y-104062704D01*
X164565435Y-104329552D01*
X164298587Y-104728917D01*
X164204883Y-105200000D01*
X163656000Y-105200000D01*
X163656000Y-102976980D01*
X164270511Y-102976980D01*
X164394755Y-103276964D01*
X164711944Y-103637652D01*
X165143018Y-103849501D01*
X165333000Y-103789193D01*
X165333000Y-102787000D01*
X165587000Y-102787000D01*
X165587000Y-103789193D01*
X165776982Y-103849501D01*
X166208056Y-103637652D01*
X166525245Y-103276964D01*
X166649489Y-102976980D01*
X166588627Y-102787000D01*
X165587000Y-102787000D01*
X165333000Y-102787000D01*
X164331373Y-102787000D01*
X164270511Y-102976980D01*
X163656000Y-102976980D01*
X163656000Y-102660000D01*
X166744883Y-102660000D01*
X166838587Y-103131083D01*
X167105435Y-103530448D01*
X167504800Y-103797296D01*
X167975883Y-103891000D01*
X168024117Y-103891000D01*
X168495200Y-103797296D01*
X168894565Y-103530448D01*
X169161413Y-103131083D01*
X169255117Y-102660000D01*
X169161413Y-102188917D01*
X168894565Y-101789552D01*
X168495200Y-101522704D01*
X168024117Y-101429000D01*
X167975883Y-101429000D01*
X167504800Y-101522704D01*
X167105435Y-101789552D01*
X166838587Y-102188917D01*
X166744883Y-102660000D01*
X163656000Y-102660000D01*
X163656000Y-102343020D01*
X164270511Y-102343020D01*
X164331373Y-102533000D01*
X165333000Y-102533000D01*
X165333000Y-101530807D01*
X165587000Y-101530807D01*
X165587000Y-102533000D01*
X166588627Y-102533000D01*
X166649489Y-102343020D01*
X166525245Y-102043036D01*
X166208056Y-101682348D01*
X165776982Y-101470499D01*
X165587000Y-101530807D01*
X165333000Y-101530807D01*
X165143018Y-101470499D01*
X164711944Y-101682348D01*
X164394755Y-102043036D01*
X164270511Y-102343020D01*
X163656000Y-102343020D01*
X163656000Y-100120000D01*
X164204883Y-100120000D01*
X164298587Y-100591083D01*
X164565435Y-100990448D01*
X164964800Y-101257296D01*
X165435883Y-101351000D01*
X165484117Y-101351000D01*
X165955200Y-101257296D01*
X166354565Y-100990448D01*
X166621413Y-100591083D01*
X166715117Y-100120000D01*
X166744883Y-100120000D01*
X166838587Y-100591083D01*
X167105435Y-100990448D01*
X167504800Y-101257296D01*
X167975883Y-101351000D01*
X168024117Y-101351000D01*
X168495200Y-101257296D01*
X168894565Y-100990448D01*
X169161413Y-100591083D01*
X169255117Y-100120000D01*
X169161413Y-99648917D01*
X168894565Y-99249552D01*
X168495200Y-98982704D01*
X168024117Y-98889000D01*
X167975883Y-98889000D01*
X167504800Y-98982704D01*
X167105435Y-99249552D01*
X166838587Y-99648917D01*
X166744883Y-100120000D01*
X166715117Y-100120000D01*
X166621413Y-99648917D01*
X166354565Y-99249552D01*
X165955200Y-98982704D01*
X165484117Y-98889000D01*
X165435883Y-98889000D01*
X164964800Y-98982704D01*
X164565435Y-99249552D01*
X164298587Y-99648917D01*
X164204883Y-100120000D01*
X163656000Y-100120000D01*
X163656000Y-97580000D01*
X164204883Y-97580000D01*
X164298587Y-98051083D01*
X164565435Y-98450448D01*
X164964800Y-98717296D01*
X165435883Y-98811000D01*
X165484117Y-98811000D01*
X165955200Y-98717296D01*
X166354565Y-98450448D01*
X166621413Y-98051083D01*
X166652065Y-97896980D01*
X166810511Y-97896980D01*
X166934755Y-98196964D01*
X167251944Y-98557652D01*
X167683018Y-98769501D01*
X167873000Y-98709193D01*
X167873000Y-97707000D01*
X168127000Y-97707000D01*
X168127000Y-98709193D01*
X168316982Y-98769501D01*
X168748056Y-98557652D01*
X169065245Y-98196964D01*
X169189489Y-97896980D01*
X169128627Y-97707000D01*
X168127000Y-97707000D01*
X167873000Y-97707000D01*
X166871373Y-97707000D01*
X166810511Y-97896980D01*
X166652065Y-97896980D01*
X166715117Y-97580000D01*
X166652066Y-97263020D01*
X166810511Y-97263020D01*
X166871373Y-97453000D01*
X167873000Y-97453000D01*
X167873000Y-96450807D01*
X168127000Y-96450807D01*
X168127000Y-97453000D01*
X169128627Y-97453000D01*
X169189489Y-97263020D01*
X169065245Y-96963036D01*
X168748056Y-96602348D01*
X168316982Y-96390499D01*
X168127000Y-96450807D01*
X167873000Y-96450807D01*
X167683018Y-96390499D01*
X167251944Y-96602348D01*
X166934755Y-96963036D01*
X166810511Y-97263020D01*
X166652066Y-97263020D01*
X166621413Y-97108917D01*
X166354565Y-96709552D01*
X165955200Y-96442704D01*
X165484117Y-96349000D01*
X165435883Y-96349000D01*
X164964800Y-96442704D01*
X164565435Y-96709552D01*
X164298587Y-97108917D01*
X164204883Y-97580000D01*
X163656000Y-97580000D01*
X163656000Y-95040000D01*
X164204883Y-95040000D01*
X164298587Y-95511083D01*
X164565435Y-95910448D01*
X164964800Y-96177296D01*
X165435883Y-96271000D01*
X165484117Y-96271000D01*
X165955200Y-96177296D01*
X166354565Y-95910448D01*
X166621413Y-95511083D01*
X166715117Y-95040000D01*
X166744883Y-95040000D01*
X166838587Y-95511083D01*
X167105435Y-95910448D01*
X167504800Y-96177296D01*
X167975883Y-96271000D01*
X168024117Y-96271000D01*
X168495200Y-96177296D01*
X168894565Y-95910448D01*
X169161413Y-95511083D01*
X169255117Y-95040000D01*
X169161413Y-94568917D01*
X168894565Y-94169552D01*
X168495200Y-93902704D01*
X168024117Y-93809000D01*
X167975883Y-93809000D01*
X167504800Y-93902704D01*
X167105435Y-94169552D01*
X166838587Y-94568917D01*
X166744883Y-95040000D01*
X166715117Y-95040000D01*
X166621413Y-94568917D01*
X166354565Y-94169552D01*
X165955200Y-93902704D01*
X165484117Y-93809000D01*
X165435883Y-93809000D01*
X164964800Y-93902704D01*
X164565435Y-94169552D01*
X164298587Y-94568917D01*
X164204883Y-95040000D01*
X163656000Y-95040000D01*
X163656000Y-92500000D01*
X164204883Y-92500000D01*
X164298587Y-92971083D01*
X164565435Y-93370448D01*
X164964800Y-93637296D01*
X165435883Y-93731000D01*
X165484117Y-93731000D01*
X165955200Y-93637296D01*
X166354565Y-93370448D01*
X166621413Y-92971083D01*
X166715117Y-92500000D01*
X166744883Y-92500000D01*
X166838587Y-92971083D01*
X167105435Y-93370448D01*
X167504800Y-93637296D01*
X167975883Y-93731000D01*
X168024117Y-93731000D01*
X168495200Y-93637296D01*
X168894565Y-93370448D01*
X169161413Y-92971083D01*
X169255117Y-92500000D01*
X169161413Y-92028917D01*
X168894565Y-91629552D01*
X168495200Y-91362704D01*
X168024117Y-91269000D01*
X167975883Y-91269000D01*
X167504800Y-91362704D01*
X167105435Y-91629552D01*
X166838587Y-92028917D01*
X166744883Y-92500000D01*
X166715117Y-92500000D01*
X166621413Y-92028917D01*
X166354565Y-91629552D01*
X165955200Y-91362704D01*
X165484117Y-91269000D01*
X165435883Y-91269000D01*
X164964800Y-91362704D01*
X164565435Y-91629552D01*
X164298587Y-92028917D01*
X164204883Y-92500000D01*
X163656000Y-92500000D01*
X163656000Y-90276980D01*
X164270511Y-90276980D01*
X164394755Y-90576964D01*
X164711944Y-90937652D01*
X165143018Y-91149501D01*
X165333000Y-91089193D01*
X165333000Y-90087000D01*
X165587000Y-90087000D01*
X165587000Y-91089193D01*
X165776982Y-91149501D01*
X166208056Y-90937652D01*
X166525245Y-90576964D01*
X166649489Y-90276980D01*
X166588627Y-90087000D01*
X165587000Y-90087000D01*
X165333000Y-90087000D01*
X164331373Y-90087000D01*
X164270511Y-90276980D01*
X163656000Y-90276980D01*
X163656000Y-89960000D01*
X166744883Y-89960000D01*
X166838587Y-90431083D01*
X167105435Y-90830448D01*
X167504800Y-91097296D01*
X167975883Y-91191000D01*
X168024117Y-91191000D01*
X168495200Y-91097296D01*
X168894565Y-90830448D01*
X169161413Y-90431083D01*
X169255117Y-89960000D01*
X169161413Y-89488917D01*
X168894565Y-89089552D01*
X168495200Y-88822704D01*
X168024117Y-88729000D01*
X167975883Y-88729000D01*
X167504800Y-88822704D01*
X167105435Y-89089552D01*
X166838587Y-89488917D01*
X166744883Y-89960000D01*
X163656000Y-89960000D01*
X163656000Y-89643020D01*
X164270511Y-89643020D01*
X164331373Y-89833000D01*
X165333000Y-89833000D01*
X165333000Y-88830807D01*
X165587000Y-88830807D01*
X165587000Y-89833000D01*
X166588627Y-89833000D01*
X166649489Y-89643020D01*
X166525245Y-89343036D01*
X166208056Y-88982348D01*
X165776982Y-88770499D01*
X165587000Y-88830807D01*
X165333000Y-88830807D01*
X165143018Y-88770499D01*
X164711944Y-88982348D01*
X164394755Y-89343036D01*
X164270511Y-89643020D01*
X163656000Y-89643020D01*
X163656000Y-87420000D01*
X164204883Y-87420000D01*
X164298587Y-87891083D01*
X164565435Y-88290448D01*
X164964800Y-88557296D01*
X165435883Y-88651000D01*
X165484117Y-88651000D01*
X165955200Y-88557296D01*
X166354565Y-88290448D01*
X166621413Y-87891083D01*
X166715117Y-87420000D01*
X166744883Y-87420000D01*
X166838587Y-87891083D01*
X167105435Y-88290448D01*
X167504800Y-88557296D01*
X167975883Y-88651000D01*
X168024117Y-88651000D01*
X168495200Y-88557296D01*
X168894565Y-88290448D01*
X169161413Y-87891083D01*
X169255117Y-87420000D01*
X169161413Y-86948917D01*
X168894565Y-86549552D01*
X168495200Y-86282704D01*
X168024117Y-86189000D01*
X167975883Y-86189000D01*
X167504800Y-86282704D01*
X167105435Y-86549552D01*
X166838587Y-86948917D01*
X166744883Y-87420000D01*
X166715117Y-87420000D01*
X166621413Y-86948917D01*
X166354565Y-86549552D01*
X165955200Y-86282704D01*
X165484117Y-86189000D01*
X165435883Y-86189000D01*
X164964800Y-86282704D01*
X164565435Y-86549552D01*
X164298587Y-86948917D01*
X164204883Y-87420000D01*
X163656000Y-87420000D01*
X163656000Y-84880000D01*
X164204883Y-84880000D01*
X164298587Y-85351083D01*
X164565435Y-85750448D01*
X164964800Y-86017296D01*
X165435883Y-86111000D01*
X165484117Y-86111000D01*
X165955200Y-86017296D01*
X166354565Y-85750448D01*
X166621413Y-85351083D01*
X166715117Y-84880000D01*
X166744883Y-84880000D01*
X166838587Y-85351083D01*
X167105435Y-85750448D01*
X167504800Y-86017296D01*
X167975883Y-86111000D01*
X168024117Y-86111000D01*
X168495200Y-86017296D01*
X168894565Y-85750448D01*
X169161413Y-85351083D01*
X169255117Y-84880000D01*
X169161413Y-84408917D01*
X168894565Y-84009552D01*
X168495200Y-83742704D01*
X168024117Y-83649000D01*
X167975883Y-83649000D01*
X167504800Y-83742704D01*
X167105435Y-84009552D01*
X166838587Y-84408917D01*
X166744883Y-84880000D01*
X166715117Y-84880000D01*
X166621413Y-84408917D01*
X166354565Y-84009552D01*
X165955200Y-83742704D01*
X165484117Y-83649000D01*
X165435883Y-83649000D01*
X164964800Y-83742704D01*
X164565435Y-84009552D01*
X164298587Y-84408917D01*
X164204883Y-84880000D01*
X163656000Y-84880000D01*
X163656000Y-82656980D01*
X164270511Y-82656980D01*
X164394755Y-82956964D01*
X164711944Y-83317652D01*
X165143018Y-83529501D01*
X165333000Y-83469193D01*
X165333000Y-82467000D01*
X165587000Y-82467000D01*
X165587000Y-83469193D01*
X165776982Y-83529501D01*
X166208056Y-83317652D01*
X166525245Y-82956964D01*
X166649489Y-82656980D01*
X166588627Y-82467000D01*
X165587000Y-82467000D01*
X165333000Y-82467000D01*
X164331373Y-82467000D01*
X164270511Y-82656980D01*
X163656000Y-82656980D01*
X163656000Y-82340000D01*
X166744883Y-82340000D01*
X166838587Y-82811083D01*
X167105435Y-83210448D01*
X167504800Y-83477296D01*
X167975883Y-83571000D01*
X168024117Y-83571000D01*
X168495200Y-83477296D01*
X168894565Y-83210448D01*
X169161413Y-82811083D01*
X169255117Y-82340000D01*
X169161413Y-81868917D01*
X168894565Y-81469552D01*
X168495200Y-81202704D01*
X168024117Y-81109000D01*
X167975883Y-81109000D01*
X167504800Y-81202704D01*
X167105435Y-81469552D01*
X166838587Y-81868917D01*
X166744883Y-82340000D01*
X163656000Y-82340000D01*
X163656000Y-82023020D01*
X164270511Y-82023020D01*
X164331373Y-82213000D01*
X165333000Y-82213000D01*
X165333000Y-81210807D01*
X165587000Y-81210807D01*
X165587000Y-82213000D01*
X166588627Y-82213000D01*
X166649489Y-82023020D01*
X166525245Y-81723036D01*
X166208056Y-81362348D01*
X165776982Y-81150499D01*
X165587000Y-81210807D01*
X165333000Y-81210807D01*
X165143018Y-81150499D01*
X164711944Y-81362348D01*
X164394755Y-81723036D01*
X164270511Y-82023020D01*
X163656000Y-82023020D01*
X163656000Y-79800000D01*
X164204883Y-79800000D01*
X164298587Y-80271083D01*
X164565435Y-80670448D01*
X164964800Y-80937296D01*
X165435883Y-81031000D01*
X165484117Y-81031000D01*
X165955200Y-80937296D01*
X166354565Y-80670448D01*
X166621413Y-80271083D01*
X166715117Y-79800000D01*
X166621413Y-79328917D01*
X166354565Y-78929552D01*
X165955200Y-78662704D01*
X165484117Y-78569000D01*
X165435883Y-78569000D01*
X164964800Y-78662704D01*
X164565435Y-78929552D01*
X164298587Y-79328917D01*
X164204883Y-79800000D01*
X163656000Y-79800000D01*
X163656000Y-77260000D01*
X164204883Y-77260000D01*
X164298587Y-77731083D01*
X164565435Y-78130448D01*
X164964800Y-78397296D01*
X165435883Y-78491000D01*
X165484117Y-78491000D01*
X165955200Y-78397296D01*
X166354565Y-78130448D01*
X166621413Y-77731083D01*
X166652065Y-77576980D01*
X166810511Y-77576980D01*
X166934755Y-77876964D01*
X167251944Y-78237652D01*
X167683018Y-78449501D01*
X167873000Y-78389193D01*
X167873000Y-77387000D01*
X168127000Y-77387000D01*
X168127000Y-78389193D01*
X168316982Y-78449501D01*
X168748056Y-78237652D01*
X169065245Y-77876964D01*
X169189489Y-77576980D01*
X169128627Y-77387000D01*
X168127000Y-77387000D01*
X167873000Y-77387000D01*
X166871373Y-77387000D01*
X166810511Y-77576980D01*
X166652065Y-77576980D01*
X166715117Y-77260000D01*
X166652066Y-76943020D01*
X166810511Y-76943020D01*
X166871373Y-77133000D01*
X167873000Y-77133000D01*
X167873000Y-76130807D01*
X168127000Y-76130807D01*
X168127000Y-77133000D01*
X169128627Y-77133000D01*
X169189489Y-76943020D01*
X169065245Y-76643036D01*
X168748056Y-76282348D01*
X168316982Y-76070499D01*
X168127000Y-76130807D01*
X167873000Y-76130807D01*
X167683018Y-76070499D01*
X167251944Y-76282348D01*
X166934755Y-76643036D01*
X166810511Y-76943020D01*
X166652066Y-76943020D01*
X166621413Y-76788917D01*
X166354565Y-76389552D01*
X165955200Y-76122704D01*
X165484117Y-76029000D01*
X165435883Y-76029000D01*
X164964800Y-76122704D01*
X164565435Y-76389552D01*
X164298587Y-76788917D01*
X164204883Y-77260000D01*
X163656000Y-77260000D01*
X163656000Y-74720000D01*
X164204883Y-74720000D01*
X164298587Y-75191083D01*
X164565435Y-75590448D01*
X164964800Y-75857296D01*
X165435883Y-75951000D01*
X165484117Y-75951000D01*
X165955200Y-75857296D01*
X166354565Y-75590448D01*
X166621413Y-75191083D01*
X166715117Y-74720000D01*
X166744883Y-74720000D01*
X166838587Y-75191083D01*
X167105435Y-75590448D01*
X167504800Y-75857296D01*
X167975883Y-75951000D01*
X168024117Y-75951000D01*
X168495200Y-75857296D01*
X168894565Y-75590448D01*
X169161413Y-75191083D01*
X169255117Y-74720000D01*
X169161413Y-74248917D01*
X168894565Y-73849552D01*
X168495200Y-73582704D01*
X168024117Y-73489000D01*
X167975883Y-73489000D01*
X167504800Y-73582704D01*
X167105435Y-73849552D01*
X166838587Y-74248917D01*
X166744883Y-74720000D01*
X166715117Y-74720000D01*
X166621413Y-74248917D01*
X166354565Y-73849552D01*
X165955200Y-73582704D01*
X165484117Y-73489000D01*
X165435883Y-73489000D01*
X164964800Y-73582704D01*
X164565435Y-73849552D01*
X164298587Y-74248917D01*
X164204883Y-74720000D01*
X163656000Y-74720000D01*
X163656000Y-72496980D01*
X164270511Y-72496980D01*
X164394755Y-72796964D01*
X164711944Y-73157652D01*
X165143018Y-73369501D01*
X165333000Y-73309193D01*
X165333000Y-72307000D01*
X165587000Y-72307000D01*
X165587000Y-73309193D01*
X165776982Y-73369501D01*
X166208056Y-73157652D01*
X166525245Y-72796964D01*
X166649489Y-72496980D01*
X166588627Y-72307000D01*
X165587000Y-72307000D01*
X165333000Y-72307000D01*
X164331373Y-72307000D01*
X164270511Y-72496980D01*
X163656000Y-72496980D01*
X163656000Y-72180000D01*
X166744883Y-72180000D01*
X166838587Y-72651083D01*
X167105435Y-73050448D01*
X167504800Y-73317296D01*
X167975883Y-73411000D01*
X168024117Y-73411000D01*
X168495200Y-73317296D01*
X168894565Y-73050448D01*
X169161413Y-72651083D01*
X169255117Y-72180000D01*
X169161413Y-71708917D01*
X168894565Y-71309552D01*
X168495200Y-71042704D01*
X168024117Y-70949000D01*
X167975883Y-70949000D01*
X167504800Y-71042704D01*
X167105435Y-71309552D01*
X166838587Y-71708917D01*
X166744883Y-72180000D01*
X163656000Y-72180000D01*
X163656000Y-71863020D01*
X164270511Y-71863020D01*
X164331373Y-72053000D01*
X165333000Y-72053000D01*
X165333000Y-71050807D01*
X165587000Y-71050807D01*
X165587000Y-72053000D01*
X166588627Y-72053000D01*
X166649489Y-71863020D01*
X166525245Y-71563036D01*
X166208056Y-71202348D01*
X165776982Y-70990499D01*
X165587000Y-71050807D01*
X165333000Y-71050807D01*
X165143018Y-70990499D01*
X164711944Y-71202348D01*
X164394755Y-71563036D01*
X164270511Y-71863020D01*
X163656000Y-71863020D01*
X163656000Y-69640000D01*
X164204883Y-69640000D01*
X164298587Y-70111083D01*
X164565435Y-70510448D01*
X164964800Y-70777296D01*
X165435883Y-70871000D01*
X165484117Y-70871000D01*
X165955200Y-70777296D01*
X166354565Y-70510448D01*
X166621413Y-70111083D01*
X166715117Y-69640000D01*
X166744883Y-69640000D01*
X166838587Y-70111083D01*
X167105435Y-70510448D01*
X167504800Y-70777296D01*
X167975883Y-70871000D01*
X168024117Y-70871000D01*
X168495200Y-70777296D01*
X168894565Y-70510448D01*
X169161413Y-70111083D01*
X169255117Y-69640000D01*
X169161413Y-69168917D01*
X168894565Y-68769552D01*
X168495200Y-68502704D01*
X168024117Y-68409000D01*
X167975883Y-68409000D01*
X167504800Y-68502704D01*
X167105435Y-68769552D01*
X166838587Y-69168917D01*
X166744883Y-69640000D01*
X166715117Y-69640000D01*
X166621413Y-69168917D01*
X166354565Y-68769552D01*
X165955200Y-68502704D01*
X165484117Y-68409000D01*
X165435883Y-68409000D01*
X164964800Y-68502704D01*
X164565435Y-68769552D01*
X164298587Y-69168917D01*
X164204883Y-69640000D01*
X163656000Y-69640000D01*
X163656000Y-67100000D01*
X164204883Y-67100000D01*
X164298587Y-67571083D01*
X164565435Y-67970448D01*
X164964800Y-68237296D01*
X165435883Y-68331000D01*
X165484117Y-68331000D01*
X165955200Y-68237296D01*
X166354565Y-67970448D01*
X166621413Y-67571083D01*
X166715117Y-67100000D01*
X166621413Y-66628917D01*
X166368228Y-66250000D01*
X166761536Y-66250000D01*
X166761536Y-67950000D01*
X166788103Y-68091190D01*
X166871546Y-68220865D01*
X166998866Y-68307859D01*
X167150000Y-68338464D01*
X168850000Y-68338464D01*
X168991190Y-68311897D01*
X169120865Y-68228454D01*
X169207859Y-68101134D01*
X169238464Y-67950000D01*
X169238464Y-66250000D01*
X169211897Y-66108810D01*
X169128454Y-65979135D01*
X169001134Y-65892141D01*
X168850000Y-65861536D01*
X167150000Y-65861536D01*
X167008810Y-65888103D01*
X166879135Y-65971546D01*
X166792141Y-66098866D01*
X166761536Y-66250000D01*
X166368228Y-66250000D01*
X166354565Y-66229552D01*
X165955200Y-65962704D01*
X165484117Y-65869000D01*
X165435883Y-65869000D01*
X164964800Y-65962704D01*
X164565435Y-66229552D01*
X164298587Y-66628917D01*
X164204883Y-67100000D01*
X163656000Y-67100000D01*
X163656000Y-56316982D01*
X170250499Y-56316982D01*
X170462348Y-56748056D01*
X170823036Y-57065245D01*
X171123020Y-57189489D01*
X171313000Y-57128627D01*
X171313000Y-56127000D01*
X171567000Y-56127000D01*
X171567000Y-57128627D01*
X171756980Y-57189489D01*
X172056964Y-57065245D01*
X172417652Y-56748056D01*
X172629501Y-56316982D01*
X172569193Y-56127000D01*
X171567000Y-56127000D01*
X171313000Y-56127000D01*
X170310807Y-56127000D01*
X170250499Y-56316982D01*
X163656000Y-56316982D01*
X163656000Y-55683018D01*
X170250499Y-55683018D01*
X170310807Y-55873000D01*
X171313000Y-55873000D01*
X171313000Y-54871373D01*
X171567000Y-54871373D01*
X171567000Y-55873000D01*
X172569193Y-55873000D01*
X172629501Y-55683018D01*
X172417652Y-55251944D01*
X172056964Y-54934755D01*
X171756980Y-54810511D01*
X171567000Y-54871373D01*
X171313000Y-54871373D01*
X171123020Y-54810511D01*
X170823036Y-54934755D01*
X170462348Y-55251944D01*
X170250499Y-55683018D01*
X163656000Y-55683018D01*
X163656000Y-52592316D01*
X164818657Y-52592316D01*
X165119611Y-53320680D01*
X165676389Y-53878431D01*
X166404226Y-54180655D01*
X167192316Y-54181343D01*
X167920680Y-53880389D01*
X168478431Y-53323611D01*
X168780655Y-52595774D01*
X168780658Y-52592316D01*
X197118657Y-52592316D01*
X197419611Y-53320680D01*
X197976389Y-53878431D01*
X198704226Y-54180655D01*
X199492316Y-54181343D01*
X200220680Y-53880389D01*
X200778431Y-53323611D01*
X201080655Y-52595774D01*
X201081343Y-51807684D01*
X200780389Y-51079320D01*
X200223611Y-50521569D01*
X199495774Y-50219345D01*
X198707684Y-50218657D01*
X197979320Y-50519611D01*
X197421569Y-51076389D01*
X197119345Y-51804226D01*
X197118657Y-52592316D01*
X168780658Y-52592316D01*
X168781343Y-51807684D01*
X168480389Y-51079320D01*
X167923611Y-50521569D01*
X167195774Y-50219345D01*
X166407684Y-50218657D01*
X165679320Y-50519611D01*
X165121569Y-51076389D01*
X164819345Y-51804226D01*
X164818657Y-52592316D01*
X163656000Y-52592316D01*
X163656000Y-49256000D01*
X202044000Y-49256000D01*
X202044000Y-124344000D01*
M02*
