G04 #@! TF.FileFunction,Soldermask,Bot*
%FSLAX46Y46*%
G04 Gerber Fmt 4.6, Leading zero omitted, Abs format (unit mm)*
G04 Created by KiCad (PCBNEW 4.0.0-rc1-stable) date 08/08/2017 21:18:02*
%MOMM*%
G01*
G04 APERTURE LIST*
%ADD10C,0.076200*%
%ADD11C,2.700000*%
%ADD12R,1.700000X1.700000*%
%ADD13O,1.700000X1.700000*%
G04 APERTURE END LIST*
D10*
D11*
X217500000Y-45500000D03*
D12*
X164370000Y-46270000D03*
D13*
X164370000Y-43730000D03*
X166910000Y-46270000D03*
X166910000Y-43730000D03*
X169450000Y-46270000D03*
X169450000Y-43730000D03*
X171990000Y-46270000D03*
X171990000Y-43730000D03*
X174530000Y-46270000D03*
X174530000Y-43730000D03*
X177070000Y-46270000D03*
X177070000Y-43730000D03*
X179610000Y-46270000D03*
X179610000Y-43730000D03*
X182150000Y-46270000D03*
X182150000Y-43730000D03*
X184690000Y-46270000D03*
X184690000Y-43730000D03*
X187230000Y-46270000D03*
X187230000Y-43730000D03*
X189770000Y-46270000D03*
X189770000Y-43730000D03*
X192310000Y-46270000D03*
X192310000Y-43730000D03*
X194850000Y-46270000D03*
X194850000Y-43730000D03*
X197390000Y-46270000D03*
X197390000Y-43730000D03*
X199930000Y-46270000D03*
X199930000Y-43730000D03*
X202470000Y-46270000D03*
X202470000Y-43730000D03*
X205010000Y-46270000D03*
X205010000Y-43730000D03*
X207550000Y-46270000D03*
X207550000Y-43730000D03*
X210090000Y-46270000D03*
X210090000Y-43730000D03*
X212630000Y-46270000D03*
X212630000Y-43730000D03*
D12*
X186000000Y-61500000D03*
D13*
X186000000Y-58960000D03*
X188540000Y-61500000D03*
X188540000Y-58960000D03*
X191080000Y-61500000D03*
X191080000Y-58960000D03*
D11*
X159500000Y-45500000D03*
D12*
X164500000Y-52000000D03*
D13*
X164500000Y-54540000D03*
X167040000Y-52000000D03*
X167040000Y-54540000D03*
X169580000Y-52000000D03*
X169580000Y-54540000D03*
X172120000Y-52000000D03*
X172120000Y-54540000D03*
X174660000Y-52000000D03*
X174660000Y-54540000D03*
X177200000Y-52000000D03*
X177200000Y-54540000D03*
X179740000Y-52000000D03*
X179740000Y-54540000D03*
X182280000Y-52000000D03*
X182280000Y-54540000D03*
X184820000Y-52000000D03*
X184820000Y-54540000D03*
X187360000Y-52000000D03*
X187360000Y-54540000D03*
X189900000Y-52000000D03*
X189900000Y-54540000D03*
X192440000Y-52000000D03*
X192440000Y-54540000D03*
X194980000Y-52000000D03*
X194980000Y-54540000D03*
X197520000Y-52000000D03*
X197520000Y-54540000D03*
X200060000Y-52000000D03*
X200060000Y-54540000D03*
X202600000Y-52000000D03*
X202600000Y-54540000D03*
X205140000Y-52000000D03*
X205140000Y-54540000D03*
X207680000Y-52000000D03*
X207680000Y-54540000D03*
X210220000Y-52000000D03*
X210220000Y-54540000D03*
X212760000Y-52000000D03*
X212760000Y-54540000D03*
M02*
