M48
;DRILL file {KiCad 4.0.0-rc1-stable} date 08/08/2017 21:18:05
;FORMAT={2:4/ absolute / inch / suppress leading zeros}
FMAT,2
INCH,TZ
T1C0.013
T2C0.039
T3C0.106
%
G90
G05
M72
T1
X63764Y-19094
X63764Y-19685
X64764Y-19094
X64764Y-19685
X65764Y-19094
X65764Y-19685
X66764Y-19094
X66764Y-19685
X67764Y-19094
X67764Y-19685
X68764Y-19094
X68764Y-19685
X69764Y-19094
X69764Y-19685
X70764Y-19094
X70764Y-19685
X71764Y-19094
X71764Y-19685
X72764Y-19094
X72764Y-19685
X73764Y-19094
X73764Y-19685
X74764Y-19094
X74764Y-19685
X75764Y-19094
X75764Y-19685
X76764Y-19094
X76764Y-19685
X77764Y-19094
X77764Y-19685
X78764Y-19094
X78764Y-19685
X79764Y-19094
X79764Y-19685
X80764Y-19094
X80764Y-19685
X81764Y-19094
X81764Y-19685
X82764Y-19094
X82764Y-19685
X83764Y-19094
X83764Y-19685
X84764Y-19094
X84764Y-19685
T2
X64713Y-17217
X64713Y-18217
X64764Y-20472
X64764Y-21472
X65713Y-17217
X65713Y-18217
X65764Y-20472
X65764Y-21472
X66713Y-17217
X66713Y-18217
X66764Y-20472
X66764Y-21472
X67713Y-17217
X67713Y-18217
X67764Y-20472
X67764Y-21472
X68713Y-17217
X68713Y-18217
X68764Y-20472
X68764Y-21472
X69713Y-17217
X69713Y-18217
X69764Y-20472
X69764Y-21472
X70713Y-17217
X70713Y-18217
X70764Y-20472
X70764Y-21472
X71713Y-17217
X71713Y-18217
X71764Y-20472
X71764Y-21472
X72713Y-17217
X72713Y-18217
X72764Y-20472
X72764Y-21472
X73228Y-23213
X73228Y-24213
X73713Y-17217
X73713Y-18217
X73764Y-20472
X73764Y-21472
X74228Y-23213
X74228Y-24213
X74713Y-17217
X74713Y-18217
X74764Y-20472
X74764Y-21472
X75228Y-23213
X75228Y-24213
X75713Y-17217
X75713Y-18217
X75764Y-20472
X75764Y-21472
X76713Y-17217
X76713Y-18217
X76764Y-20472
X76764Y-21472
X77713Y-17217
X77713Y-18217
X77764Y-20472
X77764Y-21472
X78713Y-17217
X78713Y-18217
X78764Y-20472
X78764Y-21472
X79713Y-17217
X79713Y-18217
X79764Y-20472
X79764Y-21472
X80713Y-17217
X80713Y-18217
X80764Y-20472
X80764Y-21472
X81713Y-17217
X81713Y-18217
X81764Y-20472
X81764Y-21472
X82713Y-17217
X82713Y-18217
X82764Y-20472
X82764Y-21472
X83713Y-17217
X83713Y-18217
X83764Y-20472
X83764Y-21472
T3
X62795Y-17913
X85630Y-17913
T0
M30
