G04 #@! TF.FileFunction,Legend,Top*
%FSLAX46Y46*%
G04 Gerber Fmt 4.6, Leading zero omitted, Abs format (unit mm)*
G04 Created by KiCad (PCBNEW 4.0.7) date 11/27/17 08:23:02*
%MOMM*%
%LPD*%
G01*
G04 APERTURE LIST*
%ADD10C,0.076200*%
%ADD11C,0.100000*%
G04 APERTURE END LIST*
D10*
X164681343Y-36441810D02*
X164391057Y-36441810D01*
X164536200Y-36441810D02*
X164536200Y-35933810D01*
X164487819Y-36006381D01*
X164439438Y-36054762D01*
X164391057Y-36078952D01*
X164579743Y-48786210D02*
X164289457Y-48786210D01*
X164434600Y-48786210D02*
X164434600Y-48278210D01*
X164386219Y-48350781D01*
X164337838Y-48399162D01*
X164289457Y-48423352D01*
X173278637Y-34130410D02*
X173109304Y-33888505D01*
X172988351Y-34130410D02*
X172988351Y-33622410D01*
X173181875Y-33622410D01*
X173230256Y-33646600D01*
X173254447Y-33670790D01*
X173278637Y-33719171D01*
X173278637Y-33791743D01*
X173254447Y-33840124D01*
X173230256Y-33864314D01*
X173181875Y-33888505D01*
X172988351Y-33888505D01*
X173496351Y-33791743D02*
X173496351Y-34299743D01*
X173496351Y-33815933D02*
X173544732Y-33791743D01*
X173641494Y-33791743D01*
X173689875Y-33815933D01*
X173714066Y-33840124D01*
X173738256Y-33888505D01*
X173738256Y-34033648D01*
X173714066Y-34082029D01*
X173689875Y-34106219D01*
X173641494Y-34130410D01*
X173544732Y-34130410D01*
X173496351Y-34106219D01*
X173955970Y-34130410D02*
X173955970Y-33791743D01*
X173955970Y-33622410D02*
X173931780Y-33646600D01*
X173955970Y-33670790D01*
X173980161Y-33646600D01*
X173955970Y-33622410D01*
X173955970Y-33670790D01*
X174076923Y-34178790D02*
X174463971Y-34178790D01*
X174560733Y-33985267D02*
X174802638Y-33985267D01*
X174512352Y-34130410D02*
X174681685Y-33622410D01*
X174851019Y-34130410D01*
X175238067Y-34130410D02*
X175238067Y-33622410D01*
X175238067Y-34106219D02*
X175189686Y-34130410D01*
X175092924Y-34130410D01*
X175044543Y-34106219D01*
X175020352Y-34082029D01*
X174996162Y-34033648D01*
X174996162Y-33888505D01*
X175020352Y-33840124D01*
X175044543Y-33815933D01*
X175092924Y-33791743D01*
X175189686Y-33791743D01*
X175238067Y-33815933D01*
X175697686Y-34130410D02*
X175697686Y-33864314D01*
X175673495Y-33815933D01*
X175625114Y-33791743D01*
X175528352Y-33791743D01*
X175479971Y-33815933D01*
X175697686Y-34106219D02*
X175649305Y-34130410D01*
X175528352Y-34130410D01*
X175479971Y-34106219D01*
X175455781Y-34057838D01*
X175455781Y-34009457D01*
X175479971Y-33961076D01*
X175528352Y-33936886D01*
X175649305Y-33936886D01*
X175697686Y-33912695D01*
X175939590Y-33791743D02*
X175939590Y-34299743D01*
X175939590Y-33815933D02*
X175987971Y-33791743D01*
X176084733Y-33791743D01*
X176133114Y-33815933D01*
X176157305Y-33840124D01*
X176181495Y-33888505D01*
X176181495Y-34033648D01*
X176157305Y-34082029D01*
X176133114Y-34106219D01*
X176084733Y-34130410D01*
X175987971Y-34130410D01*
X175939590Y-34106219D01*
X176326638Y-33791743D02*
X176520162Y-33791743D01*
X176399209Y-33622410D02*
X176399209Y-34057838D01*
X176423400Y-34106219D01*
X176471781Y-34130410D01*
X176520162Y-34130410D01*
X176883019Y-34106219D02*
X176834638Y-34130410D01*
X176737876Y-34130410D01*
X176689495Y-34106219D01*
X176665305Y-34057838D01*
X176665305Y-33864314D01*
X176689495Y-33815933D01*
X176737876Y-33791743D01*
X176834638Y-33791743D01*
X176883019Y-33815933D01*
X176907210Y-33864314D01*
X176907210Y-33912695D01*
X176665305Y-33961076D01*
X177124924Y-34130410D02*
X177124924Y-33791743D01*
X177124924Y-33888505D02*
X177149115Y-33840124D01*
X177173305Y-33815933D01*
X177221686Y-33791743D01*
X177270067Y-33791743D01*
X177802258Y-33670790D02*
X177826448Y-33646600D01*
X177874829Y-33622410D01*
X177995782Y-33622410D01*
X178044163Y-33646600D01*
X178068353Y-33670790D01*
X178092544Y-33719171D01*
X178092544Y-33767552D01*
X178068353Y-33840124D01*
X177778067Y-34130410D01*
X178092544Y-34130410D01*
X178552163Y-34130410D02*
X178310258Y-34130410D01*
X178310258Y-33622410D01*
X178600544Y-34178790D02*
X178987592Y-34178790D01*
X179326259Y-33622410D02*
X179229497Y-33622410D01*
X179181116Y-33646600D01*
X179156925Y-33670790D01*
X179108544Y-33743362D01*
X179084354Y-33840124D01*
X179084354Y-34033648D01*
X179108544Y-34082029D01*
X179132735Y-34106219D01*
X179181116Y-34130410D01*
X179277878Y-34130410D01*
X179326259Y-34106219D01*
X179350449Y-34082029D01*
X179374640Y-34033648D01*
X179374640Y-33912695D01*
X179350449Y-33864314D01*
X179326259Y-33840124D01*
X179277878Y-33815933D01*
X179181116Y-33815933D01*
X179132735Y-33840124D01*
X179108544Y-33864314D01*
X179084354Y-33912695D01*
X163347238Y-33330310D02*
X163177905Y-33088405D01*
X163056952Y-33330310D02*
X163056952Y-32822310D01*
X163250476Y-32822310D01*
X163298857Y-32846500D01*
X163323048Y-32870690D01*
X163347238Y-32919071D01*
X163347238Y-32991643D01*
X163323048Y-33040024D01*
X163298857Y-33064214D01*
X163250476Y-33088405D01*
X163056952Y-33088405D01*
X163782667Y-33330310D02*
X163782667Y-33064214D01*
X163758476Y-33015833D01*
X163710095Y-32991643D01*
X163613333Y-32991643D01*
X163564952Y-33015833D01*
X163782667Y-33306119D02*
X163734286Y-33330310D01*
X163613333Y-33330310D01*
X163564952Y-33306119D01*
X163540762Y-33257738D01*
X163540762Y-33209357D01*
X163564952Y-33160976D01*
X163613333Y-33136786D01*
X163734286Y-33136786D01*
X163782667Y-33112595D01*
X164000381Y-33306119D02*
X164048762Y-33330310D01*
X164145524Y-33330310D01*
X164193905Y-33306119D01*
X164218095Y-33257738D01*
X164218095Y-33233548D01*
X164193905Y-33185167D01*
X164145524Y-33160976D01*
X164072952Y-33160976D01*
X164024571Y-33136786D01*
X164000381Y-33088405D01*
X164000381Y-33064214D01*
X164024571Y-33015833D01*
X164072952Y-32991643D01*
X164145524Y-32991643D01*
X164193905Y-33015833D01*
X164435809Y-32991643D02*
X164435809Y-33499643D01*
X164435809Y-33015833D02*
X164484190Y-32991643D01*
X164580952Y-32991643D01*
X164629333Y-33015833D01*
X164653524Y-33040024D01*
X164677714Y-33088405D01*
X164677714Y-33233548D01*
X164653524Y-33281929D01*
X164629333Y-33306119D01*
X164580952Y-33330310D01*
X164484190Y-33330310D01*
X164435809Y-33306119D01*
X164895428Y-33330310D02*
X164895428Y-32822310D01*
X164895428Y-33015833D02*
X164943809Y-32991643D01*
X165040571Y-32991643D01*
X165088952Y-33015833D01*
X165113143Y-33040024D01*
X165137333Y-33088405D01*
X165137333Y-33233548D01*
X165113143Y-33281929D01*
X165088952Y-33306119D01*
X165040571Y-33330310D01*
X164943809Y-33330310D01*
X164895428Y-33306119D01*
X165548571Y-33306119D02*
X165500190Y-33330310D01*
X165403428Y-33330310D01*
X165355047Y-33306119D01*
X165330857Y-33257738D01*
X165330857Y-33064214D01*
X165355047Y-33015833D01*
X165403428Y-32991643D01*
X165500190Y-32991643D01*
X165548571Y-33015833D01*
X165572762Y-33064214D01*
X165572762Y-33112595D01*
X165330857Y-33160976D01*
X165790476Y-33330310D02*
X165790476Y-32991643D01*
X165790476Y-33088405D02*
X165814667Y-33040024D01*
X165838857Y-33015833D01*
X165887238Y-32991643D01*
X165935619Y-32991643D01*
X166104952Y-33330310D02*
X166104952Y-32991643D01*
X166104952Y-33088405D02*
X166129143Y-33040024D01*
X166153333Y-33015833D01*
X166201714Y-32991643D01*
X166250095Y-32991643D01*
X166371047Y-32991643D02*
X166492000Y-33330310D01*
X166612952Y-32991643D02*
X166492000Y-33330310D01*
X166443619Y-33451262D01*
X166419428Y-33475452D01*
X166371047Y-33499643D01*
X167193524Y-33330310D02*
X167193524Y-32822310D01*
X167387048Y-32822310D01*
X167435429Y-32846500D01*
X167459620Y-32870690D01*
X167483810Y-32919071D01*
X167483810Y-32991643D01*
X167459620Y-33040024D01*
X167435429Y-33064214D01*
X167387048Y-33088405D01*
X167193524Y-33088405D01*
X167701524Y-33330310D02*
X167701524Y-32991643D01*
X167701524Y-32822310D02*
X167677334Y-32846500D01*
X167701524Y-32870690D01*
X167725715Y-32846500D01*
X167701524Y-32822310D01*
X167701524Y-32870690D01*
X168330477Y-33064214D02*
X168499811Y-33064214D01*
X168572382Y-33330310D02*
X168330477Y-33330310D01*
X168330477Y-32822310D01*
X168572382Y-32822310D01*
X168741715Y-33330310D02*
X169007811Y-32991643D01*
X168741715Y-32991643D02*
X169007811Y-33330310D01*
X169201334Y-32991643D02*
X169201334Y-33499643D01*
X169201334Y-33015833D02*
X169249715Y-32991643D01*
X169346477Y-32991643D01*
X169394858Y-33015833D01*
X169419049Y-33040024D01*
X169443239Y-33088405D01*
X169443239Y-33233548D01*
X169419049Y-33281929D01*
X169394858Y-33306119D01*
X169346477Y-33330310D01*
X169249715Y-33330310D01*
X169201334Y-33306119D01*
X169878668Y-33330310D02*
X169878668Y-33064214D01*
X169854477Y-33015833D01*
X169806096Y-32991643D01*
X169709334Y-32991643D01*
X169660953Y-33015833D01*
X169878668Y-33306119D02*
X169830287Y-33330310D01*
X169709334Y-33330310D01*
X169660953Y-33306119D01*
X169636763Y-33257738D01*
X169636763Y-33209357D01*
X169660953Y-33160976D01*
X169709334Y-33136786D01*
X169830287Y-33136786D01*
X169878668Y-33112595D01*
X170120572Y-32991643D02*
X170120572Y-33330310D01*
X170120572Y-33040024D02*
X170144763Y-33015833D01*
X170193144Y-32991643D01*
X170265715Y-32991643D01*
X170314096Y-33015833D01*
X170338287Y-33064214D01*
X170338287Y-33330310D01*
X170556001Y-33306119D02*
X170604382Y-33330310D01*
X170701144Y-33330310D01*
X170749525Y-33306119D01*
X170773715Y-33257738D01*
X170773715Y-33233548D01*
X170749525Y-33185167D01*
X170701144Y-33160976D01*
X170628572Y-33160976D01*
X170580191Y-33136786D01*
X170556001Y-33088405D01*
X170556001Y-33064214D01*
X170580191Y-33015833D01*
X170628572Y-32991643D01*
X170701144Y-32991643D01*
X170749525Y-33015833D01*
X170991429Y-33330310D02*
X170991429Y-32991643D01*
X170991429Y-32822310D02*
X170967239Y-32846500D01*
X170991429Y-32870690D01*
X171015620Y-32846500D01*
X170991429Y-32822310D01*
X170991429Y-32870690D01*
X171305906Y-33330310D02*
X171257525Y-33306119D01*
X171233334Y-33281929D01*
X171209144Y-33233548D01*
X171209144Y-33088405D01*
X171233334Y-33040024D01*
X171257525Y-33015833D01*
X171305906Y-32991643D01*
X171378477Y-32991643D01*
X171426858Y-33015833D01*
X171451049Y-33040024D01*
X171475239Y-33088405D01*
X171475239Y-33233548D01*
X171451049Y-33281929D01*
X171426858Y-33306119D01*
X171378477Y-33330310D01*
X171305906Y-33330310D01*
X171692953Y-32991643D02*
X171692953Y-33330310D01*
X171692953Y-33040024D02*
X171717144Y-33015833D01*
X171765525Y-32991643D01*
X171838096Y-32991643D01*
X171886477Y-33015833D01*
X171910668Y-33064214D01*
X171910668Y-33330310D01*
X163274667Y-34168510D02*
X163274667Y-33902414D01*
X163250476Y-33854033D01*
X163202095Y-33829843D01*
X163105333Y-33829843D01*
X163056952Y-33854033D01*
X163274667Y-34144319D02*
X163226286Y-34168510D01*
X163105333Y-34168510D01*
X163056952Y-34144319D01*
X163032762Y-34095938D01*
X163032762Y-34047557D01*
X163056952Y-33999176D01*
X163105333Y-33974986D01*
X163226286Y-33974986D01*
X163274667Y-33950795D01*
X163516571Y-33829843D02*
X163516571Y-34168510D01*
X163516571Y-33878224D02*
X163540762Y-33854033D01*
X163589143Y-33829843D01*
X163661714Y-33829843D01*
X163710095Y-33854033D01*
X163734286Y-33902414D01*
X163734286Y-34168510D01*
X164193905Y-34168510D02*
X164193905Y-33660510D01*
X164193905Y-34144319D02*
X164145524Y-34168510D01*
X164048762Y-34168510D01*
X164000381Y-34144319D01*
X163976190Y-34120129D01*
X163952000Y-34071748D01*
X163952000Y-33926605D01*
X163976190Y-33878224D01*
X164000381Y-33854033D01*
X164048762Y-33829843D01*
X164145524Y-33829843D01*
X164193905Y-33854033D01*
X165113143Y-34120129D02*
X165088953Y-34144319D01*
X165016381Y-34168510D01*
X164968000Y-34168510D01*
X164895429Y-34144319D01*
X164847048Y-34095938D01*
X164822857Y-34047557D01*
X164798667Y-33950795D01*
X164798667Y-33878224D01*
X164822857Y-33781462D01*
X164847048Y-33733081D01*
X164895429Y-33684700D01*
X164968000Y-33660510D01*
X165016381Y-33660510D01*
X165088953Y-33684700D01*
X165113143Y-33708890D01*
X165330857Y-33902414D02*
X165500191Y-33902414D01*
X165572762Y-34168510D02*
X165330857Y-34168510D01*
X165330857Y-33660510D01*
X165572762Y-33660510D01*
X166177524Y-34168510D02*
X166177524Y-33660510D01*
X166177524Y-33902414D02*
X166467810Y-33902414D01*
X166467810Y-34168510D02*
X166467810Y-33660510D01*
X166903238Y-34144319D02*
X166854857Y-34168510D01*
X166758095Y-34168510D01*
X166709714Y-34144319D01*
X166685524Y-34095938D01*
X166685524Y-33902414D01*
X166709714Y-33854033D01*
X166758095Y-33829843D01*
X166854857Y-33829843D01*
X166903238Y-33854033D01*
X166927429Y-33902414D01*
X166927429Y-33950795D01*
X166685524Y-33999176D01*
X167362858Y-34168510D02*
X167362858Y-33902414D01*
X167338667Y-33854033D01*
X167290286Y-33829843D01*
X167193524Y-33829843D01*
X167145143Y-33854033D01*
X167362858Y-34144319D02*
X167314477Y-34168510D01*
X167193524Y-34168510D01*
X167145143Y-34144319D01*
X167120953Y-34095938D01*
X167120953Y-34047557D01*
X167145143Y-33999176D01*
X167193524Y-33974986D01*
X167314477Y-33974986D01*
X167362858Y-33950795D01*
X167822477Y-34168510D02*
X167822477Y-33660510D01*
X167822477Y-34144319D02*
X167774096Y-34168510D01*
X167677334Y-34168510D01*
X167628953Y-34144319D01*
X167604762Y-34120129D01*
X167580572Y-34071748D01*
X167580572Y-33926605D01*
X167604762Y-33878224D01*
X167628953Y-33854033D01*
X167677334Y-33829843D01*
X167774096Y-33829843D01*
X167822477Y-33854033D01*
X168257905Y-34144319D02*
X168209524Y-34168510D01*
X168112762Y-34168510D01*
X168064381Y-34144319D01*
X168040191Y-34095938D01*
X168040191Y-33902414D01*
X168064381Y-33854033D01*
X168112762Y-33829843D01*
X168209524Y-33829843D01*
X168257905Y-33854033D01*
X168282096Y-33902414D01*
X168282096Y-33950795D01*
X168040191Y-33999176D01*
X168499810Y-34168510D02*
X168499810Y-33829843D01*
X168499810Y-33926605D02*
X168524001Y-33878224D01*
X168548191Y-33854033D01*
X168596572Y-33829843D01*
X168644953Y-33829843D01*
X169177144Y-34023367D02*
X169419049Y-34023367D01*
X169128763Y-34168510D02*
X169298096Y-33660510D01*
X169467430Y-34168510D01*
X169854478Y-34168510D02*
X169854478Y-33660510D01*
X169854478Y-34144319D02*
X169806097Y-34168510D01*
X169709335Y-34168510D01*
X169660954Y-34144319D01*
X169636763Y-34120129D01*
X169612573Y-34071748D01*
X169612573Y-33926605D01*
X169636763Y-33878224D01*
X169660954Y-33854033D01*
X169709335Y-33829843D01*
X169806097Y-33829843D01*
X169854478Y-33854033D01*
X170314097Y-34168510D02*
X170314097Y-33902414D01*
X170289906Y-33854033D01*
X170241525Y-33829843D01*
X170144763Y-33829843D01*
X170096382Y-33854033D01*
X170314097Y-34144319D02*
X170265716Y-34168510D01*
X170144763Y-34168510D01*
X170096382Y-34144319D01*
X170072192Y-34095938D01*
X170072192Y-34047557D01*
X170096382Y-33999176D01*
X170144763Y-33974986D01*
X170265716Y-33974986D01*
X170314097Y-33950795D01*
X170556001Y-33829843D02*
X170556001Y-34337843D01*
X170556001Y-33854033D02*
X170604382Y-33829843D01*
X170701144Y-33829843D01*
X170749525Y-33854033D01*
X170773716Y-33878224D01*
X170797906Y-33926605D01*
X170797906Y-34071748D01*
X170773716Y-34120129D01*
X170749525Y-34144319D01*
X170701144Y-34168510D01*
X170604382Y-34168510D01*
X170556001Y-34144319D01*
X170943049Y-33829843D02*
X171136573Y-33829843D01*
X171015620Y-33660510D02*
X171015620Y-34095938D01*
X171039811Y-34144319D01*
X171088192Y-34168510D01*
X171136573Y-34168510D01*
X171499430Y-34144319D02*
X171451049Y-34168510D01*
X171354287Y-34168510D01*
X171305906Y-34144319D01*
X171281716Y-34095938D01*
X171281716Y-33902414D01*
X171305906Y-33854033D01*
X171354287Y-33829843D01*
X171451049Y-33829843D01*
X171499430Y-33854033D01*
X171523621Y-33902414D01*
X171523621Y-33950795D01*
X171281716Y-33999176D01*
X171741335Y-34168510D02*
X171741335Y-33829843D01*
X171741335Y-33926605D02*
X171765526Y-33878224D01*
X171789716Y-33854033D01*
X171838097Y-33829843D01*
X171886478Y-33829843D01*
D11*
G36*
X173453978Y-28788218D02*
X173451838Y-29381876D01*
X173451600Y-29566745D01*
X173449632Y-30207017D01*
X173442965Y-30697253D01*
X173430456Y-31056714D01*
X173410961Y-31304661D01*
X173383335Y-31460354D01*
X173346435Y-31543052D01*
X173333431Y-31556470D01*
X173166196Y-31627942D01*
X173028267Y-31658274D01*
X173028267Y-31204548D01*
X173028267Y-29611171D01*
X173024211Y-29090709D01*
X173012850Y-28641132D01*
X172995395Y-28287465D01*
X172973053Y-28054737D01*
X172948875Y-27968726D01*
X172837427Y-27937892D01*
X172595152Y-27891419D01*
X172259093Y-27835895D01*
X171911708Y-27784285D01*
X171283240Y-27722336D01*
X170555651Y-27694045D01*
X169785737Y-27698297D01*
X169030292Y-27733979D01*
X168346114Y-27799976D01*
X167948267Y-27862037D01*
X167397933Y-27966659D01*
X167374966Y-29587943D01*
X167351999Y-31209226D01*
X167925299Y-31299998D01*
X168261213Y-31352728D01*
X168566024Y-31399802D01*
X168752600Y-31427891D01*
X168992769Y-31445539D01*
X169364125Y-31451961D01*
X169828983Y-31448417D01*
X170349657Y-31436164D01*
X170888462Y-31416460D01*
X171407712Y-31390561D01*
X171869722Y-31359726D01*
X172236806Y-31325212D01*
X172372100Y-31307106D01*
X173028267Y-31204548D01*
X173028267Y-31658274D01*
X172856875Y-31695966D01*
X172432713Y-31757837D01*
X171920956Y-31810851D01*
X171348849Y-31852304D01*
X170743639Y-31879492D01*
X170132569Y-31889710D01*
X169980267Y-31889283D01*
X169495269Y-31884060D01*
X169056489Y-31876001D01*
X168697754Y-31865983D01*
X168452892Y-31854880D01*
X168371600Y-31847616D01*
X167865028Y-31764036D01*
X167457239Y-31681508D01*
X167172062Y-31605432D01*
X167038100Y-31545474D01*
X167001065Y-31467649D01*
X166972906Y-31292590D01*
X166952798Y-31004875D01*
X166939917Y-30589084D01*
X166933437Y-30029796D01*
X166932267Y-29566745D01*
X166933218Y-28950399D01*
X166937177Y-28481964D01*
X166945800Y-28140024D01*
X166960744Y-27903162D01*
X166983666Y-27749960D01*
X167016222Y-27659003D01*
X167060068Y-27608873D01*
X167084912Y-27593397D01*
X167350800Y-27499979D01*
X167756361Y-27419975D01*
X168272373Y-27354630D01*
X168869615Y-27305189D01*
X169518864Y-27272899D01*
X170190898Y-27259004D01*
X170856496Y-27264750D01*
X171486434Y-27291382D01*
X172051491Y-27340146D01*
X172289793Y-27371583D01*
X172655258Y-27423223D01*
X172935362Y-27468152D01*
X173141366Y-27527647D01*
X173284529Y-27622982D01*
X173376112Y-27775432D01*
X173427375Y-28006271D01*
X173449577Y-28336775D01*
X173453978Y-28788218D01*
X173453978Y-28788218D01*
X173453978Y-28788218D01*
G37*
X173453978Y-28788218D02*
X173451838Y-29381876D01*
X173451600Y-29566745D01*
X173449632Y-30207017D01*
X173442965Y-30697253D01*
X173430456Y-31056714D01*
X173410961Y-31304661D01*
X173383335Y-31460354D01*
X173346435Y-31543052D01*
X173333431Y-31556470D01*
X173166196Y-31627942D01*
X173028267Y-31658274D01*
X173028267Y-31204548D01*
X173028267Y-29611171D01*
X173024211Y-29090709D01*
X173012850Y-28641132D01*
X172995395Y-28287465D01*
X172973053Y-28054737D01*
X172948875Y-27968726D01*
X172837427Y-27937892D01*
X172595152Y-27891419D01*
X172259093Y-27835895D01*
X171911708Y-27784285D01*
X171283240Y-27722336D01*
X170555651Y-27694045D01*
X169785737Y-27698297D01*
X169030292Y-27733979D01*
X168346114Y-27799976D01*
X167948267Y-27862037D01*
X167397933Y-27966659D01*
X167374966Y-29587943D01*
X167351999Y-31209226D01*
X167925299Y-31299998D01*
X168261213Y-31352728D01*
X168566024Y-31399802D01*
X168752600Y-31427891D01*
X168992769Y-31445539D01*
X169364125Y-31451961D01*
X169828983Y-31448417D01*
X170349657Y-31436164D01*
X170888462Y-31416460D01*
X171407712Y-31390561D01*
X171869722Y-31359726D01*
X172236806Y-31325212D01*
X172372100Y-31307106D01*
X173028267Y-31204548D01*
X173028267Y-31658274D01*
X172856875Y-31695966D01*
X172432713Y-31757837D01*
X171920956Y-31810851D01*
X171348849Y-31852304D01*
X170743639Y-31879492D01*
X170132569Y-31889710D01*
X169980267Y-31889283D01*
X169495269Y-31884060D01*
X169056489Y-31876001D01*
X168697754Y-31865983D01*
X168452892Y-31854880D01*
X168371600Y-31847616D01*
X167865028Y-31764036D01*
X167457239Y-31681508D01*
X167172062Y-31605432D01*
X167038100Y-31545474D01*
X167001065Y-31467649D01*
X166972906Y-31292590D01*
X166952798Y-31004875D01*
X166939917Y-30589084D01*
X166933437Y-30029796D01*
X166932267Y-29566745D01*
X166933218Y-28950399D01*
X166937177Y-28481964D01*
X166945800Y-28140024D01*
X166960744Y-27903162D01*
X166983666Y-27749960D01*
X167016222Y-27659003D01*
X167060068Y-27608873D01*
X167084912Y-27593397D01*
X167350800Y-27499979D01*
X167756361Y-27419975D01*
X168272373Y-27354630D01*
X168869615Y-27305189D01*
X169518864Y-27272899D01*
X170190898Y-27259004D01*
X170856496Y-27264750D01*
X171486434Y-27291382D01*
X172051491Y-27340146D01*
X172289793Y-27371583D01*
X172655258Y-27423223D01*
X172935362Y-27468152D01*
X173141366Y-27527647D01*
X173284529Y-27622982D01*
X173376112Y-27775432D01*
X173427375Y-28006271D01*
X173449577Y-28336775D01*
X173453978Y-28788218D01*
X173453978Y-28788218D01*
G36*
X170492270Y-29933196D02*
X170444789Y-30316750D01*
X170280047Y-30666281D01*
X170005761Y-30935611D01*
X169864503Y-31008968D01*
X169676167Y-31058905D01*
X169405315Y-31090678D01*
X169016511Y-31109542D01*
X168794933Y-31115193D01*
X168398539Y-31119491D01*
X168060247Y-31115529D01*
X167818470Y-31104250D01*
X167715433Y-31088753D01*
X167626571Y-30971685D01*
X167618484Y-30793560D01*
X167686294Y-30639396D01*
X167743525Y-30599191D01*
X167882327Y-30577178D01*
X168146399Y-30559877D01*
X168491693Y-30549613D01*
X168717191Y-30547800D01*
X169198735Y-30532229D01*
X169535271Y-30478281D01*
X169748872Y-30375099D01*
X169861613Y-30211828D01*
X169895567Y-29977611D01*
X169895600Y-29968255D01*
X169829102Y-29704292D01*
X169624458Y-29517444D01*
X169273942Y-29402120D01*
X169072524Y-29372704D01*
X168796961Y-29336863D01*
X168650293Y-29290856D01*
X168592473Y-29213055D01*
X168583267Y-29108466D01*
X168594231Y-28994068D01*
X168652564Y-28927755D01*
X168796424Y-28892966D01*
X169063969Y-28873141D01*
X169133600Y-28869617D01*
X169549880Y-28873644D01*
X169849580Y-28938045D01*
X169943879Y-28980586D01*
X170240542Y-29224894D01*
X170423763Y-29555837D01*
X170492270Y-29933196D01*
X170492270Y-29933196D01*
X170492270Y-29933196D01*
G37*
X170492270Y-29933196D02*
X170444789Y-30316750D01*
X170280047Y-30666281D01*
X170005761Y-30935611D01*
X169864503Y-31008968D01*
X169676167Y-31058905D01*
X169405315Y-31090678D01*
X169016511Y-31109542D01*
X168794933Y-31115193D01*
X168398539Y-31119491D01*
X168060247Y-31115529D01*
X167818470Y-31104250D01*
X167715433Y-31088753D01*
X167626571Y-30971685D01*
X167618484Y-30793560D01*
X167686294Y-30639396D01*
X167743525Y-30599191D01*
X167882327Y-30577178D01*
X168146399Y-30559877D01*
X168491693Y-30549613D01*
X168717191Y-30547800D01*
X169198735Y-30532229D01*
X169535271Y-30478281D01*
X169748872Y-30375099D01*
X169861613Y-30211828D01*
X169895567Y-29977611D01*
X169895600Y-29968255D01*
X169829102Y-29704292D01*
X169624458Y-29517444D01*
X169273942Y-29402120D01*
X169072524Y-29372704D01*
X168796961Y-29336863D01*
X168650293Y-29290856D01*
X168592473Y-29213055D01*
X168583267Y-29108466D01*
X168594231Y-28994068D01*
X168652564Y-28927755D01*
X168796424Y-28892966D01*
X169063969Y-28873141D01*
X169133600Y-28869617D01*
X169549880Y-28873644D01*
X169849580Y-28938045D01*
X169943879Y-28980586D01*
X170240542Y-29224894D01*
X170423763Y-29555837D01*
X170492270Y-29933196D01*
X170492270Y-29933196D01*
G36*
X172688668Y-30024199D02*
X172668738Y-30546957D01*
X172607939Y-30909869D01*
X172506894Y-31111646D01*
X172366224Y-31151003D01*
X172198533Y-31038866D01*
X172145282Y-30893288D01*
X172111286Y-30586682D01*
X172097276Y-30126337D01*
X172096933Y-30026850D01*
X172088364Y-29629535D01*
X172065230Y-29277207D01*
X172031390Y-29015677D01*
X172002841Y-28909924D01*
X171859275Y-28740454D01*
X171624928Y-28593365D01*
X171579508Y-28574084D01*
X171358438Y-28463586D01*
X171263607Y-28337772D01*
X171250267Y-28232485D01*
X171314239Y-28056043D01*
X171482169Y-27972467D01*
X171718075Y-27979281D01*
X171985974Y-28074005D01*
X172249884Y-28254161D01*
X172303878Y-28305055D01*
X172455160Y-28481785D01*
X172561816Y-28681597D01*
X172631117Y-28936986D01*
X172670337Y-29280449D01*
X172686749Y-29744482D01*
X172688668Y-30024199D01*
X172688668Y-30024199D01*
X172688668Y-30024199D01*
G37*
X172688668Y-30024199D02*
X172668738Y-30546957D01*
X172607939Y-30909869D01*
X172506894Y-31111646D01*
X172366224Y-31151003D01*
X172198533Y-31038866D01*
X172145282Y-30893288D01*
X172111286Y-30586682D01*
X172097276Y-30126337D01*
X172096933Y-30026850D01*
X172088364Y-29629535D01*
X172065230Y-29277207D01*
X172031390Y-29015677D01*
X172002841Y-28909924D01*
X171859275Y-28740454D01*
X171624928Y-28593365D01*
X171579508Y-28574084D01*
X171358438Y-28463586D01*
X171263607Y-28337772D01*
X171250267Y-28232485D01*
X171314239Y-28056043D01*
X171482169Y-27972467D01*
X171718075Y-27979281D01*
X171985974Y-28074005D01*
X172249884Y-28254161D01*
X172303878Y-28305055D01*
X172455160Y-28481785D01*
X172561816Y-28681597D01*
X172631117Y-28936986D01*
X172670337Y-29280449D01*
X172686749Y-29744482D01*
X172688668Y-30024199D01*
X172688668Y-30024199D01*
G36*
X171344799Y-29658320D02*
X171320774Y-29955319D01*
X171268817Y-30165127D01*
X171207933Y-30239751D01*
X171015905Y-30269823D01*
X170895457Y-30173421D01*
X170836711Y-29936674D01*
X170826933Y-29704709D01*
X170791854Y-29209212D01*
X170684585Y-28859737D01*
X170502079Y-28647731D01*
X170437735Y-28612136D01*
X170260294Y-28569201D01*
X169965186Y-28536119D01*
X169604008Y-28517858D01*
X169437367Y-28515800D01*
X169045742Y-28521348D01*
X168780946Y-28542880D01*
X168600698Y-28587727D01*
X168462714Y-28663222D01*
X168425351Y-28691278D01*
X168246354Y-28920539D01*
X168208802Y-29183750D01*
X168315986Y-29430750D01*
X168372912Y-29490654D01*
X168595806Y-29605254D01*
X168945242Y-29676308D01*
X169029079Y-29684444D01*
X169393448Y-29740877D01*
X169594248Y-29838406D01*
X169632408Y-29977955D01*
X169508857Y-30160447D01*
X169508552Y-30160752D01*
X169311453Y-30258749D01*
X168988823Y-30276515D01*
X168528721Y-30214660D01*
X168512351Y-30211519D01*
X168132602Y-30064880D01*
X167854156Y-29813301D01*
X167681096Y-29490486D01*
X167617501Y-29130135D01*
X167667454Y-28765951D01*
X167835035Y-28431637D01*
X168124326Y-28160894D01*
X168255128Y-28087369D01*
X168438460Y-28007987D01*
X168621889Y-27957624D01*
X168846937Y-27931675D01*
X169155128Y-27925534D01*
X169587984Y-27934596D01*
X169623091Y-27935652D01*
X170116086Y-27958066D01*
X170474035Y-27998623D01*
X170731123Y-28069516D01*
X170921532Y-28182937D01*
X171079445Y-28351077D01*
X171177225Y-28489971D01*
X171257105Y-28689954D01*
X171312182Y-28981059D01*
X171341674Y-29318707D01*
X171344799Y-29658320D01*
X171344799Y-29658320D01*
X171344799Y-29658320D01*
G37*
X171344799Y-29658320D02*
X171320774Y-29955319D01*
X171268817Y-30165127D01*
X171207933Y-30239751D01*
X171015905Y-30269823D01*
X170895457Y-30173421D01*
X170836711Y-29936674D01*
X170826933Y-29704709D01*
X170791854Y-29209212D01*
X170684585Y-28859737D01*
X170502079Y-28647731D01*
X170437735Y-28612136D01*
X170260294Y-28569201D01*
X169965186Y-28536119D01*
X169604008Y-28517858D01*
X169437367Y-28515800D01*
X169045742Y-28521348D01*
X168780946Y-28542880D01*
X168600698Y-28587727D01*
X168462714Y-28663222D01*
X168425351Y-28691278D01*
X168246354Y-28920539D01*
X168208802Y-29183750D01*
X168315986Y-29430750D01*
X168372912Y-29490654D01*
X168595806Y-29605254D01*
X168945242Y-29676308D01*
X169029079Y-29684444D01*
X169393448Y-29740877D01*
X169594248Y-29838406D01*
X169632408Y-29977955D01*
X169508857Y-30160447D01*
X169508552Y-30160752D01*
X169311453Y-30258749D01*
X168988823Y-30276515D01*
X168528721Y-30214660D01*
X168512351Y-30211519D01*
X168132602Y-30064880D01*
X167854156Y-29813301D01*
X167681096Y-29490486D01*
X167617501Y-29130135D01*
X167667454Y-28765951D01*
X167835035Y-28431637D01*
X168124326Y-28160894D01*
X168255128Y-28087369D01*
X168438460Y-28007987D01*
X168621889Y-27957624D01*
X168846937Y-27931675D01*
X169155128Y-27925534D01*
X169587984Y-27934596D01*
X169623091Y-27935652D01*
X170116086Y-27958066D01*
X170474035Y-27998623D01*
X170731123Y-28069516D01*
X170921532Y-28182937D01*
X171079445Y-28351077D01*
X171177225Y-28489971D01*
X171257105Y-28689954D01*
X171312182Y-28981059D01*
X171341674Y-29318707D01*
X171344799Y-29658320D01*
X171344799Y-29658320D01*
M02*
