G04 #@! TF.FileFunction,Soldermask,Bot*
%FSLAX46Y46*%
G04 Gerber Fmt 4.6, Leading zero omitted, Abs format (unit mm)*
G04 Created by KiCad (PCBNEW 4.0.7) date 11/27/17 08:23:02*
%MOMM*%
%LPD*%
G01*
G04 APERTURE LIST*
%ADD10C,0.076200*%
%ADD11C,3.650000*%
%ADD12R,1.500000X1.500000*%
%ADD13C,1.500000*%
%ADD14R,1.700000X1.700000*%
%ADD15O,1.700000X1.700000*%
G04 APERTURE END LIST*
D10*
D11*
X175864600Y-29862000D03*
X164434600Y-29862000D03*
D12*
X165704600Y-36212000D03*
D13*
X166974600Y-38752000D03*
X168244600Y-36212000D03*
X169514600Y-38752000D03*
X170784600Y-36212000D03*
X172054600Y-38752000D03*
X173324600Y-36212000D03*
X174594600Y-38752000D03*
D14*
X164470000Y-46230000D03*
D15*
X164470000Y-43690000D03*
X167010000Y-46230000D03*
X167010000Y-43690000D03*
X169550000Y-46230000D03*
X169550000Y-43690000D03*
X172090000Y-46230000D03*
X172090000Y-43690000D03*
X174630000Y-46230000D03*
X174630000Y-43690000D03*
X177170000Y-46230000D03*
X177170000Y-43690000D03*
X179710000Y-46230000D03*
X179710000Y-43690000D03*
X182250000Y-46230000D03*
X182250000Y-43690000D03*
X184790000Y-46230000D03*
X184790000Y-43690000D03*
X187330000Y-46230000D03*
X187330000Y-43690000D03*
X189870000Y-46230000D03*
X189870000Y-43690000D03*
X192410000Y-46230000D03*
X192410000Y-43690000D03*
X194950000Y-46230000D03*
X194950000Y-43690000D03*
X197490000Y-46230000D03*
X197490000Y-43690000D03*
X200030000Y-46230000D03*
X200030000Y-43690000D03*
X202570000Y-46230000D03*
X202570000Y-43690000D03*
X205110000Y-46230000D03*
X205110000Y-43690000D03*
X207650000Y-46230000D03*
X207650000Y-43690000D03*
X210190000Y-46230000D03*
X210190000Y-43690000D03*
X212730000Y-46230000D03*
X212730000Y-43690000D03*
M02*
