G04 #@! TF.FileFunction,Legend,Bot*
%FSLAX46Y46*%
G04 Gerber Fmt 4.6, Leading zero omitted, Abs format (unit mm)*
G04 Created by KiCad (PCBNEW 4.0.0-rc1-stable) date 17/10/2017 17:51:27*
%MOMM*%
G01*
G04 APERTURE LIST*
%ADD10C,0.076200*%
%ADD11C,0.120000*%
%ADD12C,0.127000*%
%ADD13C,0.150000*%
G04 APERTURE END LIST*
D10*
D11*
X162534600Y-21992000D02*
X177774600Y-21992000D01*
X177774600Y-40022000D02*
X177764600Y-31032000D01*
X177774600Y-40022000D02*
X162534600Y-40022000D01*
X162534600Y-40022000D02*
X162534600Y-31022000D01*
X177764600Y-28692000D02*
X177774600Y-21992000D01*
X162534600Y-28702000D02*
X162534600Y-21992000D01*
X165740000Y-47560000D02*
X214060000Y-47560000D01*
X214060000Y-47560000D02*
X214060000Y-42360000D01*
X214060000Y-42360000D02*
X163140000Y-42360000D01*
X163140000Y-42360000D02*
X163140000Y-44960000D01*
X163140000Y-44960000D02*
X165740000Y-44960000D01*
X165740000Y-44960000D02*
X165740000Y-47560000D01*
X164470000Y-47560000D02*
X163140000Y-47560000D01*
X163140000Y-47560000D02*
X163140000Y-46290000D01*
D12*
X180027028Y-22596714D02*
X180027028Y-21834714D01*
X179736743Y-21834714D01*
X179664171Y-21871000D01*
X179627886Y-21907286D01*
X179591600Y-21979857D01*
X179591600Y-22088714D01*
X179627886Y-22161286D01*
X179664171Y-22197571D01*
X179736743Y-22233857D01*
X180027028Y-22233857D01*
X179301314Y-21907286D02*
X179265028Y-21871000D01*
X179192457Y-21834714D01*
X179011028Y-21834714D01*
X178938457Y-21871000D01*
X178902171Y-21907286D01*
X178865886Y-21979857D01*
X178865886Y-22052429D01*
X178902171Y-22161286D01*
X179337600Y-22596714D01*
X178865886Y-22596714D01*
D13*
X162592381Y-43126667D02*
X161592381Y-43126667D01*
X162306667Y-43460001D01*
X161592381Y-43793334D01*
X162592381Y-43793334D01*
X162497143Y-44840953D02*
X162544762Y-44793334D01*
X162592381Y-44650477D01*
X162592381Y-44555239D01*
X162544762Y-44412381D01*
X162449524Y-44317143D01*
X162354286Y-44269524D01*
X162163810Y-44221905D01*
X162020952Y-44221905D01*
X161830476Y-44269524D01*
X161735238Y-44317143D01*
X161640000Y-44412381D01*
X161592381Y-44555239D01*
X161592381Y-44650477D01*
X161640000Y-44793334D01*
X161687619Y-44840953D01*
X161592381Y-45269524D02*
X162401905Y-45269524D01*
X162497143Y-45317143D01*
X162544762Y-45364762D01*
X162592381Y-45460000D01*
X162592381Y-45650477D01*
X162544762Y-45745715D01*
X162497143Y-45793334D01*
X162401905Y-45840953D01*
X161592381Y-45840953D01*
X162592381Y-46840953D02*
X162592381Y-46269524D01*
X162592381Y-46555238D02*
X161592381Y-46555238D01*
X161735238Y-46460000D01*
X161830476Y-46364762D01*
X161878095Y-46269524D01*
M02*
