M48
;DRILL file {KiCad 4.0.0-rc1-stable} date 19/06/2017 22:48:16
;FORMAT={2:4/ absolute / inch / suppress leading zeros}
FMAT,2
INCH,TZ
T1C0.013
T2C0.039
T3C0.126
%
G90
G05
M72
T1
X64646Y-21606
X64646Y-22606
X64646Y-23606
X64646Y-24606
X66646Y-21606
X66646Y-22606
X66646Y-23606
X66646Y-24606
X67126Y-38346
X67126Y-39346
X68646Y-19606
X68646Y-20606
X68898Y-42047
X69803Y-42047
X70354Y-27165
X70354Y-28150
X70394Y-40669
X70646Y-19606
X70646Y-20606
X71126Y-38346
X71126Y-39346
X71732Y-26024
X71811Y-40669
X72165Y-24488
X72402Y-29685
X72646Y-20606
X72646Y-21606
X72756Y-27638
X73386Y-26850
X74016Y-34409
X74055Y-23583
X74646Y-19606
X74646Y-20606
X75126Y-38346
X75126Y-39346
X75197Y-28661
X75197Y-29724
X76646Y-19606
X76646Y-20606
X76646Y-23606
X76646Y-24606
X77126Y-38346
X77126Y-39346
X78646Y-22606
X78646Y-23606
T2
X65142Y-26417
X65142Y-27417
X65142Y-28417
X65142Y-29417
X65142Y-30417
X65142Y-31417
X65142Y-32417
X65142Y-33417
X65142Y-34417
X65142Y-35417
X65142Y-36417
X65142Y-37417
X65142Y-38417
X65142Y-39417
X65142Y-40417
X65142Y-41417
X65142Y-42417
X65142Y-43417
X65142Y-44417
X65142Y-45417
X66142Y-26417
X66142Y-27417
X66142Y-28417
X66142Y-29417
X66142Y-30417
X66142Y-31417
X66142Y-32417
X66142Y-33417
X66142Y-34417
X66142Y-35417
X66142Y-36417
X66142Y-37417
X66142Y-38417
X66142Y-39417
X66142Y-40417
X66142Y-41417
X66142Y-42417
X66142Y-43417
X66142Y-44417
X66142Y-45417
X67496Y-22047
X68496Y-22047
X68496Y-23047
X69496Y-22047
X69496Y-23047
X70496Y-22047
X70496Y-23047
X71071Y-46181
X71071Y-47181
X71496Y-23047
X72071Y-46181
X72071Y-47181
X72496Y-23047
X73071Y-46181
X73071Y-47181
X73496Y-22047
X73496Y-23047
X74496Y-22047
X74496Y-23047
X75496Y-22047
X75496Y-23047
X76496Y-22047
X77835Y-26417
X77835Y-27417
X77835Y-28417
X77835Y-29417
X77835Y-30417
X77835Y-31417
X77835Y-32417
X77835Y-33417
X77835Y-34417
X77835Y-35417
X77835Y-36417
X77835Y-37417
X77835Y-38417
X77835Y-39417
X77835Y-40417
X77835Y-41417
X77835Y-42417
X77835Y-43417
X77835Y-44417
X77835Y-45417
X78835Y-26417
X78835Y-27417
X78835Y-28417
X78835Y-29417
X78835Y-30417
X78835Y-31417
X78835Y-32417
X78835Y-33417
X78835Y-34417
X78835Y-35417
X78835Y-36417
X78835Y-37417
X78835Y-38417
X78835Y-39417
X78835Y-40417
X78835Y-41417
X78835Y-42417
X78835Y-43417
X78835Y-44417
X78835Y-45417
T3
X65591Y-47756
X65669Y-20551
X78346Y-47795
X78386Y-20551
T0
M30
