G04 #@! TF.FileFunction,Legend,Top*
%FSLAX46Y46*%
G04 Gerber Fmt 4.6, Leading zero omitted, Abs format (unit mm)*
G04 Created by KiCad (PCBNEW 4.0.0-rc1-stable) date 17/10/2017 17:51:27*
%MOMM*%
G01*
G04 APERTURE LIST*
%ADD10C,0.076200*%
%ADD11C,0.300000*%
%ADD12C,0.100000*%
%ADD13C,0.120000*%
%ADD14C,0.010000*%
%ADD15C,0.150000*%
G04 APERTURE END LIST*
D10*
D11*
X157871857Y-59082571D02*
X158729000Y-59082571D01*
X158300429Y-60582571D02*
X158300429Y-59082571D01*
X159943286Y-60582571D02*
X159229000Y-60582571D01*
X159229000Y-59082571D01*
X160371857Y-59225429D02*
X160443286Y-59154000D01*
X160586143Y-59082571D01*
X160943286Y-59082571D01*
X161086143Y-59154000D01*
X161157572Y-59225429D01*
X161229000Y-59368286D01*
X161229000Y-59511143D01*
X161157572Y-59725429D01*
X160300429Y-60582571D01*
X161229000Y-60582571D01*
X162729000Y-60439714D02*
X162657571Y-60511143D01*
X162443285Y-60582571D01*
X162300428Y-60582571D01*
X162086143Y-60511143D01*
X161943285Y-60368286D01*
X161871857Y-60225429D01*
X161800428Y-59939714D01*
X161800428Y-59725429D01*
X161871857Y-59439714D01*
X161943285Y-59296857D01*
X162086143Y-59154000D01*
X162300428Y-59082571D01*
X162443285Y-59082571D01*
X162657571Y-59154000D01*
X162729000Y-59225429D01*
X158943286Y-62839714D02*
X158871857Y-62911143D01*
X158657571Y-62982571D01*
X158514714Y-62982571D01*
X158300429Y-62911143D01*
X158157571Y-62768286D01*
X158086143Y-62625429D01*
X158014714Y-62339714D01*
X158014714Y-62125429D01*
X158086143Y-61839714D01*
X158157571Y-61696857D01*
X158300429Y-61554000D01*
X158514714Y-61482571D01*
X158657571Y-61482571D01*
X158871857Y-61554000D01*
X158943286Y-61625429D01*
X159800429Y-62982571D02*
X159657571Y-62911143D01*
X159586143Y-62839714D01*
X159514714Y-62696857D01*
X159514714Y-62268286D01*
X159586143Y-62125429D01*
X159657571Y-62054000D01*
X159800429Y-61982571D01*
X160014714Y-61982571D01*
X160157571Y-62054000D01*
X160229000Y-62125429D01*
X160300429Y-62268286D01*
X160300429Y-62696857D01*
X160229000Y-62839714D01*
X160157571Y-62911143D01*
X160014714Y-62982571D01*
X159800429Y-62982571D01*
X160943286Y-61982571D02*
X160943286Y-62982571D01*
X160943286Y-62125429D02*
X161014714Y-62054000D01*
X161157572Y-61982571D01*
X161371857Y-61982571D01*
X161514714Y-62054000D01*
X161586143Y-62196857D01*
X161586143Y-62982571D01*
X162300429Y-61982571D02*
X162300429Y-62982571D01*
X162300429Y-62125429D02*
X162371857Y-62054000D01*
X162514715Y-61982571D01*
X162729000Y-61982571D01*
X162871857Y-62054000D01*
X162943286Y-62196857D01*
X162943286Y-62982571D01*
X164229000Y-62911143D02*
X164086143Y-62982571D01*
X163800429Y-62982571D01*
X163657572Y-62911143D01*
X163586143Y-62768286D01*
X163586143Y-62196857D01*
X163657572Y-62054000D01*
X163800429Y-61982571D01*
X164086143Y-61982571D01*
X164229000Y-62054000D01*
X164300429Y-62196857D01*
X164300429Y-62339714D01*
X163586143Y-62482571D01*
X165586143Y-62911143D02*
X165443286Y-62982571D01*
X165157572Y-62982571D01*
X165014714Y-62911143D01*
X164943286Y-62839714D01*
X164871857Y-62696857D01*
X164871857Y-62268286D01*
X164943286Y-62125429D01*
X165014714Y-62054000D01*
X165157572Y-61982571D01*
X165443286Y-61982571D01*
X165586143Y-62054000D01*
X166014714Y-61982571D02*
X166586143Y-61982571D01*
X166229000Y-61482571D02*
X166229000Y-62768286D01*
X166300428Y-62911143D01*
X166443286Y-62982571D01*
X166586143Y-62982571D01*
X167300429Y-62982571D02*
X167157571Y-62911143D01*
X167086143Y-62839714D01*
X167014714Y-62696857D01*
X167014714Y-62268286D01*
X167086143Y-62125429D01*
X167157571Y-62054000D01*
X167300429Y-61982571D01*
X167514714Y-61982571D01*
X167657571Y-62054000D01*
X167729000Y-62125429D01*
X167800429Y-62268286D01*
X167800429Y-62696857D01*
X167729000Y-62839714D01*
X167657571Y-62911143D01*
X167514714Y-62982571D01*
X167300429Y-62982571D01*
X168443286Y-62982571D02*
X168443286Y-61982571D01*
X168443286Y-62268286D02*
X168514714Y-62125429D01*
X168586143Y-62054000D01*
X168729000Y-61982571D01*
X168871857Y-61982571D01*
D12*
X190732143Y-61839286D02*
X190482143Y-61482143D01*
X190303571Y-61839286D02*
X190303571Y-61089286D01*
X190589286Y-61089286D01*
X190660714Y-61125000D01*
X190696429Y-61160714D01*
X190732143Y-61232143D01*
X190732143Y-61339286D01*
X190696429Y-61410714D01*
X190660714Y-61446429D01*
X190589286Y-61482143D01*
X190303571Y-61482143D01*
X191053571Y-61339286D02*
X191053571Y-62089286D01*
X191053571Y-61375000D02*
X191125000Y-61339286D01*
X191267857Y-61339286D01*
X191339286Y-61375000D01*
X191375000Y-61410714D01*
X191410714Y-61482143D01*
X191410714Y-61696429D01*
X191375000Y-61767857D01*
X191339286Y-61803571D01*
X191267857Y-61839286D01*
X191125000Y-61839286D01*
X191053571Y-61803571D01*
X191732142Y-61839286D02*
X191732142Y-61339286D01*
X191732142Y-61089286D02*
X191696428Y-61125000D01*
X191732142Y-61160714D01*
X191767857Y-61125000D01*
X191732142Y-61089286D01*
X191732142Y-61160714D01*
X191910714Y-61910714D02*
X192482143Y-61910714D01*
X192625000Y-61625000D02*
X192982143Y-61625000D01*
X192553572Y-61839286D02*
X192803572Y-61089286D01*
X193053572Y-61839286D01*
X193625000Y-61839286D02*
X193625000Y-61089286D01*
X193625000Y-61803571D02*
X193553571Y-61839286D01*
X193410714Y-61839286D01*
X193339286Y-61803571D01*
X193303571Y-61767857D01*
X193267857Y-61696429D01*
X193267857Y-61482143D01*
X193303571Y-61410714D01*
X193339286Y-61375000D01*
X193410714Y-61339286D01*
X193553571Y-61339286D01*
X193625000Y-61375000D01*
X194303571Y-61839286D02*
X194303571Y-61446429D01*
X194267857Y-61375000D01*
X194196428Y-61339286D01*
X194053571Y-61339286D01*
X193982142Y-61375000D01*
X194303571Y-61803571D02*
X194232142Y-61839286D01*
X194053571Y-61839286D01*
X193982142Y-61803571D01*
X193946428Y-61732143D01*
X193946428Y-61660714D01*
X193982142Y-61589286D01*
X194053571Y-61553571D01*
X194232142Y-61553571D01*
X194303571Y-61517857D01*
X194660713Y-61339286D02*
X194660713Y-62089286D01*
X194660713Y-61375000D02*
X194732142Y-61339286D01*
X194874999Y-61339286D01*
X194946428Y-61375000D01*
X194982142Y-61410714D01*
X195017856Y-61482143D01*
X195017856Y-61696429D01*
X194982142Y-61767857D01*
X194946428Y-61803571D01*
X194874999Y-61839286D01*
X194732142Y-61839286D01*
X194660713Y-61803571D01*
X195232142Y-61339286D02*
X195517856Y-61339286D01*
X195339284Y-61089286D02*
X195339284Y-61732143D01*
X195374999Y-61803571D01*
X195446427Y-61839286D01*
X195517856Y-61839286D01*
X196053570Y-61803571D02*
X195982141Y-61839286D01*
X195839284Y-61839286D01*
X195767855Y-61803571D01*
X195732141Y-61732143D01*
X195732141Y-61446429D01*
X195767855Y-61375000D01*
X195839284Y-61339286D01*
X195982141Y-61339286D01*
X196053570Y-61375000D01*
X196089284Y-61446429D01*
X196089284Y-61517857D01*
X195732141Y-61589286D01*
X196410712Y-61839286D02*
X196410712Y-61339286D01*
X196410712Y-61482143D02*
X196446427Y-61410714D01*
X196482141Y-61375000D01*
X196553570Y-61339286D01*
X196624998Y-61339286D01*
X197410713Y-61160714D02*
X197446427Y-61125000D01*
X197517856Y-61089286D01*
X197696427Y-61089286D01*
X197767856Y-61125000D01*
X197803570Y-61160714D01*
X197839285Y-61232143D01*
X197839285Y-61303571D01*
X197803570Y-61410714D01*
X197374999Y-61839286D01*
X197839285Y-61839286D01*
X198517856Y-61839286D02*
X198160713Y-61839286D01*
X198160713Y-61089286D01*
X198589285Y-61910714D02*
X199160714Y-61910714D01*
X199696428Y-61089286D02*
X199339285Y-61089286D01*
X199303571Y-61446429D01*
X199339285Y-61410714D01*
X199410714Y-61375000D01*
X199589285Y-61375000D01*
X199660714Y-61410714D01*
X199696428Y-61446429D01*
X199732143Y-61517857D01*
X199732143Y-61696429D01*
X199696428Y-61767857D01*
X199660714Y-61803571D01*
X199589285Y-61839286D01*
X199410714Y-61839286D01*
X199339285Y-61803571D01*
X199303571Y-61767857D01*
X191357143Y-58764286D02*
X191107143Y-58407143D01*
X190928571Y-58764286D02*
X190928571Y-58014286D01*
X191214286Y-58014286D01*
X191285714Y-58050000D01*
X191321429Y-58085714D01*
X191357143Y-58157143D01*
X191357143Y-58264286D01*
X191321429Y-58335714D01*
X191285714Y-58371429D01*
X191214286Y-58407143D01*
X190928571Y-58407143D01*
X192000000Y-58764286D02*
X192000000Y-58371429D01*
X191964286Y-58300000D01*
X191892857Y-58264286D01*
X191750000Y-58264286D01*
X191678571Y-58300000D01*
X192000000Y-58728571D02*
X191928571Y-58764286D01*
X191750000Y-58764286D01*
X191678571Y-58728571D01*
X191642857Y-58657143D01*
X191642857Y-58585714D01*
X191678571Y-58514286D01*
X191750000Y-58478571D01*
X191928571Y-58478571D01*
X192000000Y-58442857D01*
X192321428Y-58728571D02*
X192392857Y-58764286D01*
X192535714Y-58764286D01*
X192607142Y-58728571D01*
X192642857Y-58657143D01*
X192642857Y-58621429D01*
X192607142Y-58550000D01*
X192535714Y-58514286D01*
X192428571Y-58514286D01*
X192357142Y-58478571D01*
X192321428Y-58407143D01*
X192321428Y-58371429D01*
X192357142Y-58300000D01*
X192428571Y-58264286D01*
X192535714Y-58264286D01*
X192607142Y-58300000D01*
X192964285Y-58264286D02*
X192964285Y-59014286D01*
X192964285Y-58300000D02*
X193035714Y-58264286D01*
X193178571Y-58264286D01*
X193250000Y-58300000D01*
X193285714Y-58335714D01*
X193321428Y-58407143D01*
X193321428Y-58621429D01*
X193285714Y-58692857D01*
X193250000Y-58728571D01*
X193178571Y-58764286D01*
X193035714Y-58764286D01*
X192964285Y-58728571D01*
X193642856Y-58764286D02*
X193642856Y-58014286D01*
X193642856Y-58300000D02*
X193714285Y-58264286D01*
X193857142Y-58264286D01*
X193928571Y-58300000D01*
X193964285Y-58335714D01*
X193999999Y-58407143D01*
X193999999Y-58621429D01*
X193964285Y-58692857D01*
X193928571Y-58728571D01*
X193857142Y-58764286D01*
X193714285Y-58764286D01*
X193642856Y-58728571D01*
X194607142Y-58728571D02*
X194535713Y-58764286D01*
X194392856Y-58764286D01*
X194321427Y-58728571D01*
X194285713Y-58657143D01*
X194285713Y-58371429D01*
X194321427Y-58300000D01*
X194392856Y-58264286D01*
X194535713Y-58264286D01*
X194607142Y-58300000D01*
X194642856Y-58371429D01*
X194642856Y-58442857D01*
X194285713Y-58514286D01*
X194964284Y-58764286D02*
X194964284Y-58264286D01*
X194964284Y-58407143D02*
X194999999Y-58335714D01*
X195035713Y-58300000D01*
X195107142Y-58264286D01*
X195178570Y-58264286D01*
X195428570Y-58764286D02*
X195428570Y-58264286D01*
X195428570Y-58407143D02*
X195464285Y-58335714D01*
X195499999Y-58300000D01*
X195571428Y-58264286D01*
X195642856Y-58264286D01*
X195821428Y-58264286D02*
X195999999Y-58764286D01*
X196178571Y-58264286D02*
X195999999Y-58764286D01*
X195928571Y-58942857D01*
X195892856Y-58978571D01*
X195821428Y-59014286D01*
X197035714Y-58764286D02*
X197035714Y-58014286D01*
X197321429Y-58014286D01*
X197392857Y-58050000D01*
X197428572Y-58085714D01*
X197464286Y-58157143D01*
X197464286Y-58264286D01*
X197428572Y-58335714D01*
X197392857Y-58371429D01*
X197321429Y-58407143D01*
X197035714Y-58407143D01*
X197785714Y-58764286D02*
X197785714Y-58264286D01*
X197785714Y-58014286D02*
X197750000Y-58050000D01*
X197785714Y-58085714D01*
X197821429Y-58050000D01*
X197785714Y-58014286D01*
X197785714Y-58085714D01*
X198714286Y-58371429D02*
X198964286Y-58371429D01*
X199071429Y-58764286D02*
X198714286Y-58764286D01*
X198714286Y-58014286D01*
X199071429Y-58014286D01*
X199321429Y-58764286D02*
X199714286Y-58264286D01*
X199321429Y-58264286D02*
X199714286Y-58764286D01*
X200000000Y-58264286D02*
X200000000Y-59014286D01*
X200000000Y-58300000D02*
X200071429Y-58264286D01*
X200214286Y-58264286D01*
X200285715Y-58300000D01*
X200321429Y-58335714D01*
X200357143Y-58407143D01*
X200357143Y-58621429D01*
X200321429Y-58692857D01*
X200285715Y-58728571D01*
X200214286Y-58764286D01*
X200071429Y-58764286D01*
X200000000Y-58728571D01*
X201000000Y-58764286D02*
X201000000Y-58371429D01*
X200964286Y-58300000D01*
X200892857Y-58264286D01*
X200750000Y-58264286D01*
X200678571Y-58300000D01*
X201000000Y-58728571D02*
X200928571Y-58764286D01*
X200750000Y-58764286D01*
X200678571Y-58728571D01*
X200642857Y-58657143D01*
X200642857Y-58585714D01*
X200678571Y-58514286D01*
X200750000Y-58478571D01*
X200928571Y-58478571D01*
X201000000Y-58442857D01*
X201357142Y-58264286D02*
X201357142Y-58764286D01*
X201357142Y-58335714D02*
X201392857Y-58300000D01*
X201464285Y-58264286D01*
X201571428Y-58264286D01*
X201642857Y-58300000D01*
X201678571Y-58371429D01*
X201678571Y-58764286D01*
X201999999Y-58728571D02*
X202071428Y-58764286D01*
X202214285Y-58764286D01*
X202285713Y-58728571D01*
X202321428Y-58657143D01*
X202321428Y-58621429D01*
X202285713Y-58550000D01*
X202214285Y-58514286D01*
X202107142Y-58514286D01*
X202035713Y-58478571D01*
X201999999Y-58407143D01*
X201999999Y-58371429D01*
X202035713Y-58300000D01*
X202107142Y-58264286D01*
X202214285Y-58264286D01*
X202285713Y-58300000D01*
X202642856Y-58764286D02*
X202642856Y-58264286D01*
X202642856Y-58014286D02*
X202607142Y-58050000D01*
X202642856Y-58085714D01*
X202678571Y-58050000D01*
X202642856Y-58014286D01*
X202642856Y-58085714D01*
X203107142Y-58764286D02*
X203035714Y-58728571D01*
X202999999Y-58692857D01*
X202964285Y-58621429D01*
X202964285Y-58407143D01*
X202999999Y-58335714D01*
X203035714Y-58300000D01*
X203107142Y-58264286D01*
X203214285Y-58264286D01*
X203285714Y-58300000D01*
X203321428Y-58335714D01*
X203357142Y-58407143D01*
X203357142Y-58621429D01*
X203321428Y-58692857D01*
X203285714Y-58728571D01*
X203214285Y-58764286D01*
X203107142Y-58764286D01*
X203678570Y-58264286D02*
X203678570Y-58764286D01*
X203678570Y-58335714D02*
X203714285Y-58300000D01*
X203785713Y-58264286D01*
X203892856Y-58264286D01*
X203964285Y-58300000D01*
X203999999Y-58371429D01*
X203999999Y-58764286D01*
X191250000Y-59914286D02*
X191250000Y-59521429D01*
X191214286Y-59450000D01*
X191142857Y-59414286D01*
X191000000Y-59414286D01*
X190928571Y-59450000D01*
X191250000Y-59878571D02*
X191178571Y-59914286D01*
X191000000Y-59914286D01*
X190928571Y-59878571D01*
X190892857Y-59807143D01*
X190892857Y-59735714D01*
X190928571Y-59664286D01*
X191000000Y-59628571D01*
X191178571Y-59628571D01*
X191250000Y-59592857D01*
X191607142Y-59414286D02*
X191607142Y-59914286D01*
X191607142Y-59485714D02*
X191642857Y-59450000D01*
X191714285Y-59414286D01*
X191821428Y-59414286D01*
X191892857Y-59450000D01*
X191928571Y-59521429D01*
X191928571Y-59914286D01*
X192607142Y-59914286D02*
X192607142Y-59164286D01*
X192607142Y-59878571D02*
X192535713Y-59914286D01*
X192392856Y-59914286D01*
X192321428Y-59878571D01*
X192285713Y-59842857D01*
X192249999Y-59771429D01*
X192249999Y-59557143D01*
X192285713Y-59485714D01*
X192321428Y-59450000D01*
X192392856Y-59414286D01*
X192535713Y-59414286D01*
X192607142Y-59450000D01*
X193964285Y-59842857D02*
X193928571Y-59878571D01*
X193821428Y-59914286D01*
X193749999Y-59914286D01*
X193642856Y-59878571D01*
X193571428Y-59807143D01*
X193535713Y-59735714D01*
X193499999Y-59592857D01*
X193499999Y-59485714D01*
X193535713Y-59342857D01*
X193571428Y-59271429D01*
X193642856Y-59200000D01*
X193749999Y-59164286D01*
X193821428Y-59164286D01*
X193928571Y-59200000D01*
X193964285Y-59235714D01*
X194285713Y-59521429D02*
X194535713Y-59521429D01*
X194642856Y-59914286D02*
X194285713Y-59914286D01*
X194285713Y-59164286D01*
X194642856Y-59164286D01*
X195535713Y-59914286D02*
X195535713Y-59164286D01*
X195535713Y-59521429D02*
X195964285Y-59521429D01*
X195964285Y-59914286D02*
X195964285Y-59164286D01*
X196607142Y-59878571D02*
X196535713Y-59914286D01*
X196392856Y-59914286D01*
X196321427Y-59878571D01*
X196285713Y-59807143D01*
X196285713Y-59521429D01*
X196321427Y-59450000D01*
X196392856Y-59414286D01*
X196535713Y-59414286D01*
X196607142Y-59450000D01*
X196642856Y-59521429D01*
X196642856Y-59592857D01*
X196285713Y-59664286D01*
X197285713Y-59914286D02*
X197285713Y-59521429D01*
X197249999Y-59450000D01*
X197178570Y-59414286D01*
X197035713Y-59414286D01*
X196964284Y-59450000D01*
X197285713Y-59878571D02*
X197214284Y-59914286D01*
X197035713Y-59914286D01*
X196964284Y-59878571D01*
X196928570Y-59807143D01*
X196928570Y-59735714D01*
X196964284Y-59664286D01*
X197035713Y-59628571D01*
X197214284Y-59628571D01*
X197285713Y-59592857D01*
X197964284Y-59914286D02*
X197964284Y-59164286D01*
X197964284Y-59878571D02*
X197892855Y-59914286D01*
X197749998Y-59914286D01*
X197678570Y-59878571D01*
X197642855Y-59842857D01*
X197607141Y-59771429D01*
X197607141Y-59557143D01*
X197642855Y-59485714D01*
X197678570Y-59450000D01*
X197749998Y-59414286D01*
X197892855Y-59414286D01*
X197964284Y-59450000D01*
X198607141Y-59878571D02*
X198535712Y-59914286D01*
X198392855Y-59914286D01*
X198321426Y-59878571D01*
X198285712Y-59807143D01*
X198285712Y-59521429D01*
X198321426Y-59450000D01*
X198392855Y-59414286D01*
X198535712Y-59414286D01*
X198607141Y-59450000D01*
X198642855Y-59521429D01*
X198642855Y-59592857D01*
X198285712Y-59664286D01*
X198964283Y-59914286D02*
X198964283Y-59414286D01*
X198964283Y-59557143D02*
X198999998Y-59485714D01*
X199035712Y-59450000D01*
X199107141Y-59414286D01*
X199178569Y-59414286D01*
X199964284Y-59700000D02*
X200321427Y-59700000D01*
X199892856Y-59914286D02*
X200142856Y-59164286D01*
X200392856Y-59914286D01*
X200964284Y-59914286D02*
X200964284Y-59164286D01*
X200964284Y-59878571D02*
X200892855Y-59914286D01*
X200749998Y-59914286D01*
X200678570Y-59878571D01*
X200642855Y-59842857D01*
X200607141Y-59771429D01*
X200607141Y-59557143D01*
X200642855Y-59485714D01*
X200678570Y-59450000D01*
X200749998Y-59414286D01*
X200892855Y-59414286D01*
X200964284Y-59450000D01*
X201642855Y-59914286D02*
X201642855Y-59521429D01*
X201607141Y-59450000D01*
X201535712Y-59414286D01*
X201392855Y-59414286D01*
X201321426Y-59450000D01*
X201642855Y-59878571D02*
X201571426Y-59914286D01*
X201392855Y-59914286D01*
X201321426Y-59878571D01*
X201285712Y-59807143D01*
X201285712Y-59735714D01*
X201321426Y-59664286D01*
X201392855Y-59628571D01*
X201571426Y-59628571D01*
X201642855Y-59592857D01*
X201999997Y-59414286D02*
X201999997Y-60164286D01*
X201999997Y-59450000D02*
X202071426Y-59414286D01*
X202214283Y-59414286D01*
X202285712Y-59450000D01*
X202321426Y-59485714D01*
X202357140Y-59557143D01*
X202357140Y-59771429D01*
X202321426Y-59842857D01*
X202285712Y-59878571D01*
X202214283Y-59914286D01*
X202071426Y-59914286D01*
X201999997Y-59878571D01*
X202571426Y-59414286D02*
X202857140Y-59414286D01*
X202678568Y-59164286D02*
X202678568Y-59807143D01*
X202714283Y-59878571D01*
X202785711Y-59914286D01*
X202857140Y-59914286D01*
X203392854Y-59878571D02*
X203321425Y-59914286D01*
X203178568Y-59914286D01*
X203107139Y-59878571D01*
X203071425Y-59807143D01*
X203071425Y-59521429D01*
X203107139Y-59450000D01*
X203178568Y-59414286D01*
X203321425Y-59414286D01*
X203392854Y-59450000D01*
X203428568Y-59521429D01*
X203428568Y-59592857D01*
X203071425Y-59664286D01*
X203749996Y-59914286D02*
X203749996Y-59414286D01*
X203749996Y-59557143D02*
X203785711Y-59485714D01*
X203821425Y-59450000D01*
X203892854Y-59414286D01*
X203964282Y-59414286D01*
D13*
X214080000Y-55750000D02*
X214080000Y-50550000D01*
X165760000Y-55750000D02*
X214080000Y-55750000D01*
X163160000Y-50550000D02*
X214080000Y-50550000D01*
X165760000Y-55750000D02*
X165760000Y-53150000D01*
X165760000Y-53150000D02*
X163160000Y-53150000D01*
X163160000Y-53150000D02*
X163160000Y-50550000D01*
X164490000Y-55750000D02*
X163160000Y-55750000D01*
X163160000Y-55750000D02*
X163160000Y-54420000D01*
D14*
G36*
X207378629Y-62519066D02*
X207418111Y-62519467D01*
X207533800Y-62522259D01*
X207630689Y-62530550D01*
X207712081Y-62545232D01*
X207781277Y-62567193D01*
X207841580Y-62597322D01*
X207896292Y-62636510D01*
X207915833Y-62653532D01*
X207948250Y-62693363D01*
X207977480Y-62747413D01*
X208000009Y-62807323D01*
X208012321Y-62864739D01*
X208013600Y-62885956D01*
X208005583Y-62944769D01*
X207984101Y-63009013D01*
X207953001Y-63069821D01*
X207916134Y-63118330D01*
X207910146Y-63124182D01*
X207859421Y-63165321D01*
X207803875Y-63197435D01*
X207740304Y-63221365D01*
X207665506Y-63237953D01*
X207576278Y-63248041D01*
X207469418Y-63252469D01*
X207420472Y-63252845D01*
X207358238Y-63252545D01*
X207314472Y-63251292D01*
X207285069Y-63248554D01*
X207265921Y-63243801D01*
X207252923Y-63236501D01*
X207245955Y-63230267D01*
X207239374Y-63222694D01*
X207234212Y-63212924D01*
X207230297Y-63198340D01*
X207227457Y-63176326D01*
X207225520Y-63144264D01*
X207224316Y-63099536D01*
X207223672Y-63039526D01*
X207223417Y-62961617D01*
X207223378Y-62885956D01*
X207223130Y-62785041D01*
X207223183Y-62704427D01*
X207224143Y-62665822D01*
X207370133Y-62665822D01*
X207370133Y-63106089D01*
X207463266Y-63106004D01*
X207519307Y-63104396D01*
X207578001Y-63100256D01*
X207626972Y-63094464D01*
X207628462Y-63094226D01*
X207707608Y-63075090D01*
X207768998Y-63045287D01*
X207815695Y-63002878D01*
X207845365Y-62956961D01*
X207863647Y-62906026D01*
X207862229Y-62858200D01*
X207841012Y-62806933D01*
X207799511Y-62753899D01*
X207742002Y-62714600D01*
X207667250Y-62688331D01*
X207617292Y-62679035D01*
X207560584Y-62672507D01*
X207500481Y-62667782D01*
X207449361Y-62665817D01*
X207446333Y-62665808D01*
X207370133Y-62665822D01*
X207224143Y-62665822D01*
X207224740Y-62641851D01*
X207229002Y-62595055D01*
X207237170Y-62561778D01*
X207250444Y-62539759D01*
X207270026Y-62526739D01*
X207297117Y-62520457D01*
X207332918Y-62518653D01*
X207378629Y-62519066D01*
X207378629Y-62519066D01*
G37*
X207378629Y-62519066D02*
X207418111Y-62519467D01*
X207533800Y-62522259D01*
X207630689Y-62530550D01*
X207712081Y-62545232D01*
X207781277Y-62567193D01*
X207841580Y-62597322D01*
X207896292Y-62636510D01*
X207915833Y-62653532D01*
X207948250Y-62693363D01*
X207977480Y-62747413D01*
X208000009Y-62807323D01*
X208012321Y-62864739D01*
X208013600Y-62885956D01*
X208005583Y-62944769D01*
X207984101Y-63009013D01*
X207953001Y-63069821D01*
X207916134Y-63118330D01*
X207910146Y-63124182D01*
X207859421Y-63165321D01*
X207803875Y-63197435D01*
X207740304Y-63221365D01*
X207665506Y-63237953D01*
X207576278Y-63248041D01*
X207469418Y-63252469D01*
X207420472Y-63252845D01*
X207358238Y-63252545D01*
X207314472Y-63251292D01*
X207285069Y-63248554D01*
X207265921Y-63243801D01*
X207252923Y-63236501D01*
X207245955Y-63230267D01*
X207239374Y-63222694D01*
X207234212Y-63212924D01*
X207230297Y-63198340D01*
X207227457Y-63176326D01*
X207225520Y-63144264D01*
X207224316Y-63099536D01*
X207223672Y-63039526D01*
X207223417Y-62961617D01*
X207223378Y-62885956D01*
X207223130Y-62785041D01*
X207223183Y-62704427D01*
X207224143Y-62665822D01*
X207370133Y-62665822D01*
X207370133Y-63106089D01*
X207463266Y-63106004D01*
X207519307Y-63104396D01*
X207578001Y-63100256D01*
X207626972Y-63094464D01*
X207628462Y-63094226D01*
X207707608Y-63075090D01*
X207768998Y-63045287D01*
X207815695Y-63002878D01*
X207845365Y-62956961D01*
X207863647Y-62906026D01*
X207862229Y-62858200D01*
X207841012Y-62806933D01*
X207799511Y-62753899D01*
X207742002Y-62714600D01*
X207667250Y-62688331D01*
X207617292Y-62679035D01*
X207560584Y-62672507D01*
X207500481Y-62667782D01*
X207449361Y-62665817D01*
X207446333Y-62665808D01*
X207370133Y-62665822D01*
X207224143Y-62665822D01*
X207224740Y-62641851D01*
X207229002Y-62595055D01*
X207237170Y-62561778D01*
X207250444Y-62539759D01*
X207270026Y-62526739D01*
X207297117Y-62520457D01*
X207332918Y-62518653D01*
X207378629Y-62519066D01*
G36*
X208787206Y-62519146D02*
X208856614Y-62519518D01*
X208909003Y-62520385D01*
X208947153Y-62521946D01*
X208973841Y-62524403D01*
X208991847Y-62527957D01*
X209003951Y-62532810D01*
X209012931Y-62539161D01*
X209016182Y-62542084D01*
X209035957Y-62573142D01*
X209039518Y-62608828D01*
X209026509Y-62640510D01*
X209020494Y-62646913D01*
X209010765Y-62653121D01*
X208995099Y-62657910D01*
X208970592Y-62661514D01*
X208934339Y-62664164D01*
X208883435Y-62666095D01*
X208814974Y-62667539D01*
X208752383Y-62668418D01*
X208504666Y-62671467D01*
X208501281Y-62736378D01*
X208497895Y-62801289D01*
X208666042Y-62801289D01*
X208739041Y-62801919D01*
X208792483Y-62804553D01*
X208829372Y-62810309D01*
X208852712Y-62820304D01*
X208865506Y-62835656D01*
X208870758Y-62857482D01*
X208871555Y-62877738D01*
X208869077Y-62902592D01*
X208859723Y-62920906D01*
X208840617Y-62933637D01*
X208808882Y-62941741D01*
X208761641Y-62946176D01*
X208696017Y-62947899D01*
X208660199Y-62948045D01*
X208499022Y-62948045D01*
X208499022Y-63106089D01*
X208747378Y-63106089D01*
X208828787Y-63106202D01*
X208890658Y-63106712D01*
X208936032Y-63107870D01*
X208967946Y-63109930D01*
X208989441Y-63113146D01*
X209003557Y-63117772D01*
X209013332Y-63124059D01*
X209018311Y-63128667D01*
X209035390Y-63155560D01*
X209040889Y-63179467D01*
X209033037Y-63208667D01*
X209018311Y-63230267D01*
X209010454Y-63237066D01*
X209000312Y-63242346D01*
X208985156Y-63246298D01*
X208962259Y-63249113D01*
X208928891Y-63250982D01*
X208882325Y-63252098D01*
X208819833Y-63252651D01*
X208738686Y-63252833D01*
X208696578Y-63252845D01*
X208606402Y-63252765D01*
X208536076Y-63252398D01*
X208482871Y-63251552D01*
X208444060Y-63250036D01*
X208416913Y-63247659D01*
X208398702Y-63244229D01*
X208386700Y-63239554D01*
X208378178Y-63233444D01*
X208374844Y-63230267D01*
X208368245Y-63222670D01*
X208363073Y-63212870D01*
X208359154Y-63198239D01*
X208356316Y-63176152D01*
X208354385Y-63143982D01*
X208353188Y-63099103D01*
X208352552Y-63038889D01*
X208352303Y-62960713D01*
X208352266Y-62887923D01*
X208352300Y-62794707D01*
X208352535Y-62721431D01*
X208353170Y-62665458D01*
X208354406Y-62624151D01*
X208356444Y-62594872D01*
X208359483Y-62574984D01*
X208363723Y-62561850D01*
X208369365Y-62552832D01*
X208376609Y-62545293D01*
X208378394Y-62543612D01*
X208387055Y-62536172D01*
X208397118Y-62530409D01*
X208411375Y-62526112D01*
X208432617Y-62523064D01*
X208463636Y-62521051D01*
X208507223Y-62519860D01*
X208566169Y-62519275D01*
X208643266Y-62519083D01*
X208697999Y-62519067D01*
X208787206Y-62519146D01*
X208787206Y-62519146D01*
G37*
X208787206Y-62519146D02*
X208856614Y-62519518D01*
X208909003Y-62520385D01*
X208947153Y-62521946D01*
X208973841Y-62524403D01*
X208991847Y-62527957D01*
X209003951Y-62532810D01*
X209012931Y-62539161D01*
X209016182Y-62542084D01*
X209035957Y-62573142D01*
X209039518Y-62608828D01*
X209026509Y-62640510D01*
X209020494Y-62646913D01*
X209010765Y-62653121D01*
X208995099Y-62657910D01*
X208970592Y-62661514D01*
X208934339Y-62664164D01*
X208883435Y-62666095D01*
X208814974Y-62667539D01*
X208752383Y-62668418D01*
X208504666Y-62671467D01*
X208501281Y-62736378D01*
X208497895Y-62801289D01*
X208666042Y-62801289D01*
X208739041Y-62801919D01*
X208792483Y-62804553D01*
X208829372Y-62810309D01*
X208852712Y-62820304D01*
X208865506Y-62835656D01*
X208870758Y-62857482D01*
X208871555Y-62877738D01*
X208869077Y-62902592D01*
X208859723Y-62920906D01*
X208840617Y-62933637D01*
X208808882Y-62941741D01*
X208761641Y-62946176D01*
X208696017Y-62947899D01*
X208660199Y-62948045D01*
X208499022Y-62948045D01*
X208499022Y-63106089D01*
X208747378Y-63106089D01*
X208828787Y-63106202D01*
X208890658Y-63106712D01*
X208936032Y-63107870D01*
X208967946Y-63109930D01*
X208989441Y-63113146D01*
X209003557Y-63117772D01*
X209013332Y-63124059D01*
X209018311Y-63128667D01*
X209035390Y-63155560D01*
X209040889Y-63179467D01*
X209033037Y-63208667D01*
X209018311Y-63230267D01*
X209010454Y-63237066D01*
X209000312Y-63242346D01*
X208985156Y-63246298D01*
X208962259Y-63249113D01*
X208928891Y-63250982D01*
X208882325Y-63252098D01*
X208819833Y-63252651D01*
X208738686Y-63252833D01*
X208696578Y-63252845D01*
X208606402Y-63252765D01*
X208536076Y-63252398D01*
X208482871Y-63251552D01*
X208444060Y-63250036D01*
X208416913Y-63247659D01*
X208398702Y-63244229D01*
X208386700Y-63239554D01*
X208378178Y-63233444D01*
X208374844Y-63230267D01*
X208368245Y-63222670D01*
X208363073Y-63212870D01*
X208359154Y-63198239D01*
X208356316Y-63176152D01*
X208354385Y-63143982D01*
X208353188Y-63099103D01*
X208352552Y-63038889D01*
X208352303Y-62960713D01*
X208352266Y-62887923D01*
X208352300Y-62794707D01*
X208352535Y-62721431D01*
X208353170Y-62665458D01*
X208354406Y-62624151D01*
X208356444Y-62594872D01*
X208359483Y-62574984D01*
X208363723Y-62561850D01*
X208369365Y-62552832D01*
X208376609Y-62545293D01*
X208378394Y-62543612D01*
X208387055Y-62536172D01*
X208397118Y-62530409D01*
X208411375Y-62526112D01*
X208432617Y-62523064D01*
X208463636Y-62521051D01*
X208507223Y-62519860D01*
X208566169Y-62519275D01*
X208643266Y-62519083D01*
X208697999Y-62519067D01*
X208787206Y-62519146D01*
G36*
X209808297Y-62520351D02*
X209883112Y-62525581D01*
X209952694Y-62533750D01*
X210012998Y-62544550D01*
X210059980Y-62557673D01*
X210089594Y-62572813D01*
X210094140Y-62577269D01*
X210109946Y-62611850D01*
X210105153Y-62647351D01*
X210080636Y-62677725D01*
X210079466Y-62678596D01*
X210065046Y-62687954D01*
X210049992Y-62692876D01*
X210028995Y-62693473D01*
X209996743Y-62689861D01*
X209947927Y-62682154D01*
X209944000Y-62681505D01*
X209871261Y-62672569D01*
X209792783Y-62668161D01*
X209714073Y-62668119D01*
X209640639Y-62672279D01*
X209577989Y-62680479D01*
X209531630Y-62692557D01*
X209528584Y-62693771D01*
X209494952Y-62712615D01*
X209483136Y-62731685D01*
X209492386Y-62750439D01*
X209521953Y-62768337D01*
X209571089Y-62784837D01*
X209639043Y-62799396D01*
X209684355Y-62806406D01*
X209778544Y-62819889D01*
X209853456Y-62832214D01*
X209912283Y-62844449D01*
X209958215Y-62857661D01*
X209994445Y-62872917D01*
X210024162Y-62891285D01*
X210050558Y-62913831D01*
X210071770Y-62935971D01*
X210096935Y-62966819D01*
X210109319Y-62993345D01*
X210113192Y-63026026D01*
X210113333Y-63037995D01*
X210110424Y-63077712D01*
X210098798Y-63107259D01*
X210078677Y-63133486D01*
X210037784Y-63173576D01*
X209992183Y-63204149D01*
X209938487Y-63226203D01*
X209873308Y-63240735D01*
X209793256Y-63248741D01*
X209694943Y-63251218D01*
X209678711Y-63251177D01*
X209613151Y-63249818D01*
X209548134Y-63246730D01*
X209490748Y-63242356D01*
X209448078Y-63237140D01*
X209444628Y-63236541D01*
X209402204Y-63226491D01*
X209366220Y-63213796D01*
X209345850Y-63202190D01*
X209326893Y-63171572D01*
X209325573Y-63135918D01*
X209341915Y-63104144D01*
X209345571Y-63100551D01*
X209360685Y-63089876D01*
X209379585Y-63085276D01*
X209408838Y-63086059D01*
X209444349Y-63090127D01*
X209484030Y-63093762D01*
X209539655Y-63096828D01*
X209604594Y-63099053D01*
X209672215Y-63100164D01*
X209690000Y-63100237D01*
X209757872Y-63099964D01*
X209807546Y-63098646D01*
X209843390Y-63095827D01*
X209869776Y-63091050D01*
X209891074Y-63083857D01*
X209903874Y-63077867D01*
X209932000Y-63061233D01*
X209949932Y-63046168D01*
X209952553Y-63041897D01*
X209947024Y-63024263D01*
X209920740Y-63007192D01*
X209875522Y-62991458D01*
X209813192Y-62977838D01*
X209794829Y-62974804D01*
X209698910Y-62959738D01*
X209622359Y-62947146D01*
X209562220Y-62936111D01*
X209515540Y-62925720D01*
X209479363Y-62915056D01*
X209450735Y-62903205D01*
X209426702Y-62889251D01*
X209404308Y-62872281D01*
X209380598Y-62851378D01*
X209372620Y-62844049D01*
X209344647Y-62816699D01*
X209329840Y-62795029D01*
X209324048Y-62770232D01*
X209323111Y-62738983D01*
X209333425Y-62677705D01*
X209364248Y-62625640D01*
X209415405Y-62582958D01*
X209486717Y-62549825D01*
X209537600Y-62534964D01*
X209592900Y-62525366D01*
X209659147Y-62519936D01*
X209732294Y-62518367D01*
X209808297Y-62520351D01*
X209808297Y-62520351D01*
G37*
X209808297Y-62520351D02*
X209883112Y-62525581D01*
X209952694Y-62533750D01*
X210012998Y-62544550D01*
X210059980Y-62557673D01*
X210089594Y-62572813D01*
X210094140Y-62577269D01*
X210109946Y-62611850D01*
X210105153Y-62647351D01*
X210080636Y-62677725D01*
X210079466Y-62678596D01*
X210065046Y-62687954D01*
X210049992Y-62692876D01*
X210028995Y-62693473D01*
X209996743Y-62689861D01*
X209947927Y-62682154D01*
X209944000Y-62681505D01*
X209871261Y-62672569D01*
X209792783Y-62668161D01*
X209714073Y-62668119D01*
X209640639Y-62672279D01*
X209577989Y-62680479D01*
X209531630Y-62692557D01*
X209528584Y-62693771D01*
X209494952Y-62712615D01*
X209483136Y-62731685D01*
X209492386Y-62750439D01*
X209521953Y-62768337D01*
X209571089Y-62784837D01*
X209639043Y-62799396D01*
X209684355Y-62806406D01*
X209778544Y-62819889D01*
X209853456Y-62832214D01*
X209912283Y-62844449D01*
X209958215Y-62857661D01*
X209994445Y-62872917D01*
X210024162Y-62891285D01*
X210050558Y-62913831D01*
X210071770Y-62935971D01*
X210096935Y-62966819D01*
X210109319Y-62993345D01*
X210113192Y-63026026D01*
X210113333Y-63037995D01*
X210110424Y-63077712D01*
X210098798Y-63107259D01*
X210078677Y-63133486D01*
X210037784Y-63173576D01*
X209992183Y-63204149D01*
X209938487Y-63226203D01*
X209873308Y-63240735D01*
X209793256Y-63248741D01*
X209694943Y-63251218D01*
X209678711Y-63251177D01*
X209613151Y-63249818D01*
X209548134Y-63246730D01*
X209490748Y-63242356D01*
X209448078Y-63237140D01*
X209444628Y-63236541D01*
X209402204Y-63226491D01*
X209366220Y-63213796D01*
X209345850Y-63202190D01*
X209326893Y-63171572D01*
X209325573Y-63135918D01*
X209341915Y-63104144D01*
X209345571Y-63100551D01*
X209360685Y-63089876D01*
X209379585Y-63085276D01*
X209408838Y-63086059D01*
X209444349Y-63090127D01*
X209484030Y-63093762D01*
X209539655Y-63096828D01*
X209604594Y-63099053D01*
X209672215Y-63100164D01*
X209690000Y-63100237D01*
X209757872Y-63099964D01*
X209807546Y-63098646D01*
X209843390Y-63095827D01*
X209869776Y-63091050D01*
X209891074Y-63083857D01*
X209903874Y-63077867D01*
X209932000Y-63061233D01*
X209949932Y-63046168D01*
X209952553Y-63041897D01*
X209947024Y-63024263D01*
X209920740Y-63007192D01*
X209875522Y-62991458D01*
X209813192Y-62977838D01*
X209794829Y-62974804D01*
X209698910Y-62959738D01*
X209622359Y-62947146D01*
X209562220Y-62936111D01*
X209515540Y-62925720D01*
X209479363Y-62915056D01*
X209450735Y-62903205D01*
X209426702Y-62889251D01*
X209404308Y-62872281D01*
X209380598Y-62851378D01*
X209372620Y-62844049D01*
X209344647Y-62816699D01*
X209329840Y-62795029D01*
X209324048Y-62770232D01*
X209323111Y-62738983D01*
X209333425Y-62677705D01*
X209364248Y-62625640D01*
X209415405Y-62582958D01*
X209486717Y-62549825D01*
X209537600Y-62534964D01*
X209592900Y-62525366D01*
X209659147Y-62519936D01*
X209732294Y-62518367D01*
X209808297Y-62520351D01*
G36*
X210576178Y-62541645D02*
X210582758Y-62549218D01*
X210587921Y-62558987D01*
X210591836Y-62573571D01*
X210594676Y-62595585D01*
X210596613Y-62627648D01*
X210597817Y-62672375D01*
X210598461Y-62732385D01*
X210598716Y-62810294D01*
X210598755Y-62885956D01*
X210598686Y-62979802D01*
X210598362Y-63053689D01*
X210597614Y-63110232D01*
X210596268Y-63152049D01*
X210594154Y-63181757D01*
X210591100Y-63201973D01*
X210586934Y-63215314D01*
X210581484Y-63224398D01*
X210576178Y-63230267D01*
X210543174Y-63249947D01*
X210508009Y-63248181D01*
X210476545Y-63226717D01*
X210469316Y-63218337D01*
X210463666Y-63208614D01*
X210459401Y-63194861D01*
X210456327Y-63174389D01*
X210454248Y-63144512D01*
X210452970Y-63102541D01*
X210452299Y-63045789D01*
X210452041Y-62971567D01*
X210452000Y-62887537D01*
X210452000Y-62574485D01*
X210479709Y-62546776D01*
X210513863Y-62523463D01*
X210546994Y-62522623D01*
X210576178Y-62541645D01*
X210576178Y-62541645D01*
G37*
X210576178Y-62541645D02*
X210582758Y-62549218D01*
X210587921Y-62558987D01*
X210591836Y-62573571D01*
X210594676Y-62595585D01*
X210596613Y-62627648D01*
X210597817Y-62672375D01*
X210598461Y-62732385D01*
X210598716Y-62810294D01*
X210598755Y-62885956D01*
X210598686Y-62979802D01*
X210598362Y-63053689D01*
X210597614Y-63110232D01*
X210596268Y-63152049D01*
X210594154Y-63181757D01*
X210591100Y-63201973D01*
X210586934Y-63215314D01*
X210581484Y-63224398D01*
X210576178Y-63230267D01*
X210543174Y-63249947D01*
X210508009Y-63248181D01*
X210476545Y-63226717D01*
X210469316Y-63218337D01*
X210463666Y-63208614D01*
X210459401Y-63194861D01*
X210456327Y-63174389D01*
X210454248Y-63144512D01*
X210452970Y-63102541D01*
X210452299Y-63045789D01*
X210452041Y-62971567D01*
X210452000Y-62887537D01*
X210452000Y-62574485D01*
X210479709Y-62546776D01*
X210513863Y-62523463D01*
X210546994Y-62522623D01*
X210576178Y-62541645D01*
G36*
X211549919Y-62524599D02*
X211618435Y-62536095D01*
X211671057Y-62553967D01*
X211705292Y-62577499D01*
X211714621Y-62590924D01*
X211724107Y-62622148D01*
X211717723Y-62650395D01*
X211697570Y-62677182D01*
X211666255Y-62689713D01*
X211620817Y-62688696D01*
X211585674Y-62681906D01*
X211507581Y-62668971D01*
X211427774Y-62667742D01*
X211338445Y-62678241D01*
X211313771Y-62682690D01*
X211230709Y-62706108D01*
X211165727Y-62740945D01*
X211119539Y-62786604D01*
X211092855Y-62842494D01*
X211087337Y-62871388D01*
X211090949Y-62930012D01*
X211114271Y-62981879D01*
X211155176Y-63025978D01*
X211211541Y-63061299D01*
X211281240Y-63086829D01*
X211362148Y-63101559D01*
X211452140Y-63104478D01*
X211549090Y-63094575D01*
X211554564Y-63093641D01*
X211593125Y-63086459D01*
X211614506Y-63079521D01*
X211623773Y-63069227D01*
X211625994Y-63051976D01*
X211626044Y-63042841D01*
X211626044Y-63004489D01*
X211557569Y-63004489D01*
X211497100Y-63000347D01*
X211455835Y-62987147D01*
X211431825Y-62963730D01*
X211423123Y-62928936D01*
X211423017Y-62924394D01*
X211428108Y-62894654D01*
X211445567Y-62873419D01*
X211478061Y-62859366D01*
X211528257Y-62851173D01*
X211576877Y-62848161D01*
X211647544Y-62846433D01*
X211698802Y-62849070D01*
X211733761Y-62858800D01*
X211755530Y-62878353D01*
X211767220Y-62910456D01*
X211771940Y-62957838D01*
X211772800Y-63020071D01*
X211771391Y-63089535D01*
X211767152Y-63136786D01*
X211760064Y-63162012D01*
X211758689Y-63163988D01*
X211719772Y-63195508D01*
X211662714Y-63220470D01*
X211591131Y-63238340D01*
X211508642Y-63248586D01*
X211418861Y-63250673D01*
X211325408Y-63244068D01*
X211270444Y-63235956D01*
X211184234Y-63211554D01*
X211104108Y-63171662D01*
X211037023Y-63119887D01*
X211026827Y-63109539D01*
X210993698Y-63066035D01*
X210963806Y-63012118D01*
X210940643Y-62955592D01*
X210927702Y-62904259D01*
X210926142Y-62884544D01*
X210932782Y-62843419D01*
X210950432Y-62792252D01*
X210975703Y-62738394D01*
X211005211Y-62689195D01*
X211031281Y-62656334D01*
X211092235Y-62607452D01*
X211171031Y-62568545D01*
X211264843Y-62540494D01*
X211370850Y-62524179D01*
X211468000Y-62520192D01*
X211549919Y-62524599D01*
X211549919Y-62524599D01*
G37*
X211549919Y-62524599D02*
X211618435Y-62536095D01*
X211671057Y-62553967D01*
X211705292Y-62577499D01*
X211714621Y-62590924D01*
X211724107Y-62622148D01*
X211717723Y-62650395D01*
X211697570Y-62677182D01*
X211666255Y-62689713D01*
X211620817Y-62688696D01*
X211585674Y-62681906D01*
X211507581Y-62668971D01*
X211427774Y-62667742D01*
X211338445Y-62678241D01*
X211313771Y-62682690D01*
X211230709Y-62706108D01*
X211165727Y-62740945D01*
X211119539Y-62786604D01*
X211092855Y-62842494D01*
X211087337Y-62871388D01*
X211090949Y-62930012D01*
X211114271Y-62981879D01*
X211155176Y-63025978D01*
X211211541Y-63061299D01*
X211281240Y-63086829D01*
X211362148Y-63101559D01*
X211452140Y-63104478D01*
X211549090Y-63094575D01*
X211554564Y-63093641D01*
X211593125Y-63086459D01*
X211614506Y-63079521D01*
X211623773Y-63069227D01*
X211625994Y-63051976D01*
X211626044Y-63042841D01*
X211626044Y-63004489D01*
X211557569Y-63004489D01*
X211497100Y-63000347D01*
X211455835Y-62987147D01*
X211431825Y-62963730D01*
X211423123Y-62928936D01*
X211423017Y-62924394D01*
X211428108Y-62894654D01*
X211445567Y-62873419D01*
X211478061Y-62859366D01*
X211528257Y-62851173D01*
X211576877Y-62848161D01*
X211647544Y-62846433D01*
X211698802Y-62849070D01*
X211733761Y-62858800D01*
X211755530Y-62878353D01*
X211767220Y-62910456D01*
X211771940Y-62957838D01*
X211772800Y-63020071D01*
X211771391Y-63089535D01*
X211767152Y-63136786D01*
X211760064Y-63162012D01*
X211758689Y-63163988D01*
X211719772Y-63195508D01*
X211662714Y-63220470D01*
X211591131Y-63238340D01*
X211508642Y-63248586D01*
X211418861Y-63250673D01*
X211325408Y-63244068D01*
X211270444Y-63235956D01*
X211184234Y-63211554D01*
X211104108Y-63171662D01*
X211037023Y-63119887D01*
X211026827Y-63109539D01*
X210993698Y-63066035D01*
X210963806Y-63012118D01*
X210940643Y-62955592D01*
X210927702Y-62904259D01*
X210926142Y-62884544D01*
X210932782Y-62843419D01*
X210950432Y-62792252D01*
X210975703Y-62738394D01*
X211005211Y-62689195D01*
X211031281Y-62656334D01*
X211092235Y-62607452D01*
X211171031Y-62568545D01*
X211264843Y-62540494D01*
X211370850Y-62524179D01*
X211468000Y-62520192D01*
X211549919Y-62524599D01*
G36*
X212199886Y-62523448D02*
X212223452Y-62537273D01*
X212254265Y-62559881D01*
X212293922Y-62592338D01*
X212344020Y-62635708D01*
X212406157Y-62691058D01*
X212481928Y-62759451D01*
X212568666Y-62838084D01*
X212749289Y-63001878D01*
X212754933Y-62782029D01*
X212756971Y-62706351D01*
X212758937Y-62649994D01*
X212761266Y-62609706D01*
X212764394Y-62582235D01*
X212768755Y-62564329D01*
X212774784Y-62552737D01*
X212782916Y-62544208D01*
X212787228Y-62540623D01*
X212821759Y-62521670D01*
X212854617Y-62524441D01*
X212880682Y-62540633D01*
X212907333Y-62562199D01*
X212910648Y-62877151D01*
X212911565Y-62969779D01*
X212912032Y-63042544D01*
X212911887Y-63098161D01*
X212910968Y-63139342D01*
X212909113Y-63168803D01*
X212906161Y-63189255D01*
X212901950Y-63203413D01*
X212896318Y-63213991D01*
X212890073Y-63222474D01*
X212876561Y-63238207D01*
X212863117Y-63248636D01*
X212847876Y-63252639D01*
X212828974Y-63249094D01*
X212804545Y-63236879D01*
X212772727Y-63214871D01*
X212731652Y-63181949D01*
X212679458Y-63136991D01*
X212614278Y-63078875D01*
X212540444Y-63012099D01*
X212275155Y-62771458D01*
X212269511Y-62990589D01*
X212267469Y-63066128D01*
X212265498Y-63122354D01*
X212263161Y-63162524D01*
X212260019Y-63189896D01*
X212255636Y-63207728D01*
X212249576Y-63219279D01*
X212241400Y-63227807D01*
X212237216Y-63231282D01*
X212200235Y-63250372D01*
X212165292Y-63247493D01*
X212134864Y-63223100D01*
X212127903Y-63213286D01*
X212122477Y-63201826D01*
X212118397Y-63185968D01*
X212115471Y-63162963D01*
X212113508Y-63130062D01*
X212112317Y-63084516D01*
X212111708Y-63023573D01*
X212111489Y-62944486D01*
X212111466Y-62885956D01*
X212111540Y-62794407D01*
X212111887Y-62722687D01*
X212112699Y-62668045D01*
X212114167Y-62627732D01*
X212116481Y-62598998D01*
X212119833Y-62579093D01*
X212124412Y-62565268D01*
X212130411Y-62554772D01*
X212134864Y-62548811D01*
X212146150Y-62534691D01*
X212156699Y-62524029D01*
X212168107Y-62517892D01*
X212181970Y-62517343D01*
X212199886Y-62523448D01*
X212199886Y-62523448D01*
G37*
X212199886Y-62523448D02*
X212223452Y-62537273D01*
X212254265Y-62559881D01*
X212293922Y-62592338D01*
X212344020Y-62635708D01*
X212406157Y-62691058D01*
X212481928Y-62759451D01*
X212568666Y-62838084D01*
X212749289Y-63001878D01*
X212754933Y-62782029D01*
X212756971Y-62706351D01*
X212758937Y-62649994D01*
X212761266Y-62609706D01*
X212764394Y-62582235D01*
X212768755Y-62564329D01*
X212774784Y-62552737D01*
X212782916Y-62544208D01*
X212787228Y-62540623D01*
X212821759Y-62521670D01*
X212854617Y-62524441D01*
X212880682Y-62540633D01*
X212907333Y-62562199D01*
X212910648Y-62877151D01*
X212911565Y-62969779D01*
X212912032Y-63042544D01*
X212911887Y-63098161D01*
X212910968Y-63139342D01*
X212909113Y-63168803D01*
X212906161Y-63189255D01*
X212901950Y-63203413D01*
X212896318Y-63213991D01*
X212890073Y-63222474D01*
X212876561Y-63238207D01*
X212863117Y-63248636D01*
X212847876Y-63252639D01*
X212828974Y-63249094D01*
X212804545Y-63236879D01*
X212772727Y-63214871D01*
X212731652Y-63181949D01*
X212679458Y-63136991D01*
X212614278Y-63078875D01*
X212540444Y-63012099D01*
X212275155Y-62771458D01*
X212269511Y-62990589D01*
X212267469Y-63066128D01*
X212265498Y-63122354D01*
X212263161Y-63162524D01*
X212260019Y-63189896D01*
X212255636Y-63207728D01*
X212249576Y-63219279D01*
X212241400Y-63227807D01*
X212237216Y-63231282D01*
X212200235Y-63250372D01*
X212165292Y-63247493D01*
X212134864Y-63223100D01*
X212127903Y-63213286D01*
X212122477Y-63201826D01*
X212118397Y-63185968D01*
X212115471Y-63162963D01*
X212113508Y-63130062D01*
X212112317Y-63084516D01*
X212111708Y-63023573D01*
X212111489Y-62944486D01*
X212111466Y-62885956D01*
X212111540Y-62794407D01*
X212111887Y-62722687D01*
X212112699Y-62668045D01*
X212114167Y-62627732D01*
X212116481Y-62598998D01*
X212119833Y-62579093D01*
X212124412Y-62565268D01*
X212130411Y-62554772D01*
X212134864Y-62548811D01*
X212146150Y-62534691D01*
X212156699Y-62524029D01*
X212168107Y-62517892D01*
X212181970Y-62517343D01*
X212199886Y-62523448D01*
G36*
X213730343Y-62519260D02*
X213806701Y-62520174D01*
X213865217Y-62522311D01*
X213908255Y-62526175D01*
X213938183Y-62532267D01*
X213957368Y-62541090D01*
X213968176Y-62553146D01*
X213972973Y-62568939D01*
X213974127Y-62588970D01*
X213974133Y-62591335D01*
X213973131Y-62613992D01*
X213968396Y-62631503D01*
X213957333Y-62644574D01*
X213937348Y-62653913D01*
X213905846Y-62660227D01*
X213860232Y-62664222D01*
X213797913Y-62666606D01*
X213716293Y-62668086D01*
X213691277Y-62668414D01*
X213449200Y-62671467D01*
X213445814Y-62736378D01*
X213442429Y-62801289D01*
X213610576Y-62801289D01*
X213676266Y-62801531D01*
X213723172Y-62802556D01*
X213755083Y-62804811D01*
X213775791Y-62808742D01*
X213789084Y-62814798D01*
X213798755Y-62823424D01*
X213798817Y-62823493D01*
X213816356Y-62857112D01*
X213815722Y-62893448D01*
X213797314Y-62924423D01*
X213793671Y-62927607D01*
X213780741Y-62935812D01*
X213763024Y-62941521D01*
X213736570Y-62945162D01*
X213697432Y-62947167D01*
X213641662Y-62947964D01*
X213605994Y-62948045D01*
X213443555Y-62948045D01*
X213443555Y-63106089D01*
X213690161Y-63106089D01*
X213771580Y-63106231D01*
X213833410Y-63106814D01*
X213878637Y-63108068D01*
X213910248Y-63110227D01*
X213931231Y-63113523D01*
X213944573Y-63118189D01*
X213953261Y-63124457D01*
X213955450Y-63126733D01*
X213971614Y-63158280D01*
X213972797Y-63194168D01*
X213959536Y-63225285D01*
X213949043Y-63235271D01*
X213938129Y-63240769D01*
X213921217Y-63245022D01*
X213895633Y-63248180D01*
X213858701Y-63250392D01*
X213807746Y-63251806D01*
X213740094Y-63252572D01*
X213653069Y-63252838D01*
X213633394Y-63252845D01*
X213544911Y-63252787D01*
X213476227Y-63252467D01*
X213424564Y-63251667D01*
X213387145Y-63250167D01*
X213361190Y-63247749D01*
X213343922Y-63244194D01*
X213332562Y-63239282D01*
X213324332Y-63232795D01*
X213319817Y-63228138D01*
X213313021Y-63219889D01*
X213307712Y-63209669D01*
X213303706Y-63194800D01*
X213300821Y-63172602D01*
X213298874Y-63140393D01*
X213297681Y-63095496D01*
X213297061Y-63035228D01*
X213296829Y-62956911D01*
X213296800Y-62890994D01*
X213296871Y-62798628D01*
X213297208Y-62726117D01*
X213297998Y-62670737D01*
X213299426Y-62629765D01*
X213301679Y-62600478D01*
X213304943Y-62580153D01*
X213309404Y-62566066D01*
X213315248Y-62555495D01*
X213320197Y-62548811D01*
X213343594Y-62519067D01*
X213633774Y-62519067D01*
X213730343Y-62519260D01*
X213730343Y-62519260D01*
G37*
X213730343Y-62519260D02*
X213806701Y-62520174D01*
X213865217Y-62522311D01*
X213908255Y-62526175D01*
X213938183Y-62532267D01*
X213957368Y-62541090D01*
X213968176Y-62553146D01*
X213972973Y-62568939D01*
X213974127Y-62588970D01*
X213974133Y-62591335D01*
X213973131Y-62613992D01*
X213968396Y-62631503D01*
X213957333Y-62644574D01*
X213937348Y-62653913D01*
X213905846Y-62660227D01*
X213860232Y-62664222D01*
X213797913Y-62666606D01*
X213716293Y-62668086D01*
X213691277Y-62668414D01*
X213449200Y-62671467D01*
X213445814Y-62736378D01*
X213442429Y-62801289D01*
X213610576Y-62801289D01*
X213676266Y-62801531D01*
X213723172Y-62802556D01*
X213755083Y-62804811D01*
X213775791Y-62808742D01*
X213789084Y-62814798D01*
X213798755Y-62823424D01*
X213798817Y-62823493D01*
X213816356Y-62857112D01*
X213815722Y-62893448D01*
X213797314Y-62924423D01*
X213793671Y-62927607D01*
X213780741Y-62935812D01*
X213763024Y-62941521D01*
X213736570Y-62945162D01*
X213697432Y-62947167D01*
X213641662Y-62947964D01*
X213605994Y-62948045D01*
X213443555Y-62948045D01*
X213443555Y-63106089D01*
X213690161Y-63106089D01*
X213771580Y-63106231D01*
X213833410Y-63106814D01*
X213878637Y-63108068D01*
X213910248Y-63110227D01*
X213931231Y-63113523D01*
X213944573Y-63118189D01*
X213953261Y-63124457D01*
X213955450Y-63126733D01*
X213971614Y-63158280D01*
X213972797Y-63194168D01*
X213959536Y-63225285D01*
X213949043Y-63235271D01*
X213938129Y-63240769D01*
X213921217Y-63245022D01*
X213895633Y-63248180D01*
X213858701Y-63250392D01*
X213807746Y-63251806D01*
X213740094Y-63252572D01*
X213653069Y-63252838D01*
X213633394Y-63252845D01*
X213544911Y-63252787D01*
X213476227Y-63252467D01*
X213424564Y-63251667D01*
X213387145Y-63250167D01*
X213361190Y-63247749D01*
X213343922Y-63244194D01*
X213332562Y-63239282D01*
X213324332Y-63232795D01*
X213319817Y-63228138D01*
X213313021Y-63219889D01*
X213307712Y-63209669D01*
X213303706Y-63194800D01*
X213300821Y-63172602D01*
X213298874Y-63140393D01*
X213297681Y-63095496D01*
X213297061Y-63035228D01*
X213296829Y-62956911D01*
X213296800Y-62890994D01*
X213296871Y-62798628D01*
X213297208Y-62726117D01*
X213297998Y-62670737D01*
X213299426Y-62629765D01*
X213301679Y-62600478D01*
X213304943Y-62580153D01*
X213309404Y-62566066D01*
X213315248Y-62555495D01*
X213320197Y-62548811D01*
X213343594Y-62519067D01*
X213633774Y-62519067D01*
X213730343Y-62519260D01*
G36*
X214518309Y-62519275D02*
X214647288Y-62523636D01*
X214756991Y-62536861D01*
X214849226Y-62559741D01*
X214925802Y-62593070D01*
X214988527Y-62637638D01*
X215039212Y-62694236D01*
X215079663Y-62763658D01*
X215080459Y-62765351D01*
X215104601Y-62827483D01*
X215113203Y-62882509D01*
X215106231Y-62937887D01*
X215083654Y-63001073D01*
X215079372Y-63010689D01*
X215050172Y-63066966D01*
X215017356Y-63110451D01*
X214975002Y-63147417D01*
X214917190Y-63184135D01*
X214913831Y-63186052D01*
X214863504Y-63210227D01*
X214806621Y-63228282D01*
X214739527Y-63240839D01*
X214658565Y-63248522D01*
X214560082Y-63251953D01*
X214525286Y-63252251D01*
X214359594Y-63252845D01*
X214336197Y-63223100D01*
X214329257Y-63213319D01*
X214323842Y-63201897D01*
X214319765Y-63186095D01*
X214316837Y-63163175D01*
X214314867Y-63130396D01*
X214314225Y-63106089D01*
X214470844Y-63106089D01*
X214564726Y-63106089D01*
X214619664Y-63104483D01*
X214676060Y-63100255D01*
X214722345Y-63094292D01*
X214725139Y-63093790D01*
X214807348Y-63071736D01*
X214871114Y-63038600D01*
X214918452Y-62992847D01*
X214951382Y-62932939D01*
X214957108Y-62917061D01*
X214962721Y-62892333D01*
X214960291Y-62867902D01*
X214948467Y-62835400D01*
X214941340Y-62819434D01*
X214918000Y-62777006D01*
X214889880Y-62747240D01*
X214858940Y-62726511D01*
X214796966Y-62699537D01*
X214717651Y-62679998D01*
X214625253Y-62668746D01*
X214558333Y-62666270D01*
X214470844Y-62665822D01*
X214470844Y-63106089D01*
X214314225Y-63106089D01*
X214313668Y-63085021D01*
X214313050Y-63024311D01*
X214312825Y-62945526D01*
X214312800Y-62883920D01*
X214312800Y-62574485D01*
X214340509Y-62546776D01*
X214352806Y-62535544D01*
X214366103Y-62527853D01*
X214384672Y-62523040D01*
X214412786Y-62520446D01*
X214454717Y-62519410D01*
X214514737Y-62519270D01*
X214518309Y-62519275D01*
X214518309Y-62519275D01*
G37*
X214518309Y-62519275D02*
X214647288Y-62523636D01*
X214756991Y-62536861D01*
X214849226Y-62559741D01*
X214925802Y-62593070D01*
X214988527Y-62637638D01*
X215039212Y-62694236D01*
X215079663Y-62763658D01*
X215080459Y-62765351D01*
X215104601Y-62827483D01*
X215113203Y-62882509D01*
X215106231Y-62937887D01*
X215083654Y-63001073D01*
X215079372Y-63010689D01*
X215050172Y-63066966D01*
X215017356Y-63110451D01*
X214975002Y-63147417D01*
X214917190Y-63184135D01*
X214913831Y-63186052D01*
X214863504Y-63210227D01*
X214806621Y-63228282D01*
X214739527Y-63240839D01*
X214658565Y-63248522D01*
X214560082Y-63251953D01*
X214525286Y-63252251D01*
X214359594Y-63252845D01*
X214336197Y-63223100D01*
X214329257Y-63213319D01*
X214323842Y-63201897D01*
X214319765Y-63186095D01*
X214316837Y-63163175D01*
X214314867Y-63130396D01*
X214314225Y-63106089D01*
X214470844Y-63106089D01*
X214564726Y-63106089D01*
X214619664Y-63104483D01*
X214676060Y-63100255D01*
X214722345Y-63094292D01*
X214725139Y-63093790D01*
X214807348Y-63071736D01*
X214871114Y-63038600D01*
X214918452Y-62992847D01*
X214951382Y-62932939D01*
X214957108Y-62917061D01*
X214962721Y-62892333D01*
X214960291Y-62867902D01*
X214948467Y-62835400D01*
X214941340Y-62819434D01*
X214918000Y-62777006D01*
X214889880Y-62747240D01*
X214858940Y-62726511D01*
X214796966Y-62699537D01*
X214717651Y-62679998D01*
X214625253Y-62668746D01*
X214558333Y-62666270D01*
X214470844Y-62665822D01*
X214470844Y-63106089D01*
X214314225Y-63106089D01*
X214313668Y-63085021D01*
X214313050Y-63024311D01*
X214312825Y-62945526D01*
X214312800Y-62883920D01*
X214312800Y-62574485D01*
X214340509Y-62546776D01*
X214352806Y-62535544D01*
X214366103Y-62527853D01*
X214384672Y-62523040D01*
X214412786Y-62520446D01*
X214454717Y-62519410D01*
X214514737Y-62519270D01*
X214518309Y-62519275D01*
G36*
X217244665Y-62521034D02*
X217264255Y-62528035D01*
X217265010Y-62528377D01*
X217291613Y-62548678D01*
X217306270Y-62569561D01*
X217309138Y-62579352D01*
X217308996Y-62592361D01*
X217304961Y-62610895D01*
X217296146Y-62637257D01*
X217281669Y-62673752D01*
X217260645Y-62722687D01*
X217232188Y-62786365D01*
X217195415Y-62867093D01*
X217175175Y-62911216D01*
X217138625Y-62989985D01*
X217104315Y-63062423D01*
X217073552Y-63125880D01*
X217047648Y-63177708D01*
X217027910Y-63215259D01*
X217015650Y-63235884D01*
X217013224Y-63238733D01*
X216982183Y-63251302D01*
X216947121Y-63249619D01*
X216919000Y-63234332D01*
X216917854Y-63233089D01*
X216906668Y-63216154D01*
X216887904Y-63183170D01*
X216863875Y-63138380D01*
X216836897Y-63086032D01*
X216827201Y-63066742D01*
X216754014Y-62920150D01*
X216674240Y-63079393D01*
X216645767Y-63134415D01*
X216619350Y-63182132D01*
X216597148Y-63218893D01*
X216581319Y-63241044D01*
X216575954Y-63245741D01*
X216534257Y-63252102D01*
X216499849Y-63238733D01*
X216489728Y-63224446D01*
X216472214Y-63192692D01*
X216448735Y-63146597D01*
X216420720Y-63089285D01*
X216389599Y-63023880D01*
X216356799Y-62953507D01*
X216323750Y-62881291D01*
X216291881Y-62810355D01*
X216262619Y-62743825D01*
X216237395Y-62684826D01*
X216217636Y-62636481D01*
X216204772Y-62601915D01*
X216200231Y-62584253D01*
X216200277Y-62583613D01*
X216211326Y-62561388D01*
X216233410Y-62538753D01*
X216234710Y-62537768D01*
X216261853Y-62522425D01*
X216286958Y-62522574D01*
X216296368Y-62525466D01*
X216307834Y-62531718D01*
X216320010Y-62544014D01*
X216334357Y-62564908D01*
X216352336Y-62596949D01*
X216375407Y-62642688D01*
X216405030Y-62704677D01*
X216431745Y-62761898D01*
X216462480Y-62828226D01*
X216490021Y-62887874D01*
X216512938Y-62937725D01*
X216529798Y-62974664D01*
X216539173Y-62995573D01*
X216540540Y-62998845D01*
X216546689Y-62993497D01*
X216560822Y-62971109D01*
X216581057Y-62934946D01*
X216605515Y-62888277D01*
X216615248Y-62869022D01*
X216648217Y-62804004D01*
X216673643Y-62756654D01*
X216693612Y-62724219D01*
X216710210Y-62703946D01*
X216725524Y-62693082D01*
X216741640Y-62688875D01*
X216752143Y-62688400D01*
X216770670Y-62690042D01*
X216786904Y-62696831D01*
X216803035Y-62711566D01*
X216821251Y-62737044D01*
X216843739Y-62776061D01*
X216872689Y-62831414D01*
X216888662Y-62862903D01*
X216914570Y-62913087D01*
X216937167Y-62954704D01*
X216954458Y-62984242D01*
X216964450Y-62998189D01*
X216965809Y-62998770D01*
X216972261Y-62987793D01*
X216986708Y-62959290D01*
X217007703Y-62916244D01*
X217033797Y-62861638D01*
X217063546Y-62798454D01*
X217078180Y-62767071D01*
X217116250Y-62686078D01*
X217146905Y-62623756D01*
X217171737Y-62578071D01*
X217192337Y-62546989D01*
X217210298Y-62528478D01*
X217227210Y-62520504D01*
X217244665Y-62521034D01*
X217244665Y-62521034D01*
G37*
X217244665Y-62521034D02*
X217264255Y-62528035D01*
X217265010Y-62528377D01*
X217291613Y-62548678D01*
X217306270Y-62569561D01*
X217309138Y-62579352D01*
X217308996Y-62592361D01*
X217304961Y-62610895D01*
X217296146Y-62637257D01*
X217281669Y-62673752D01*
X217260645Y-62722687D01*
X217232188Y-62786365D01*
X217195415Y-62867093D01*
X217175175Y-62911216D01*
X217138625Y-62989985D01*
X217104315Y-63062423D01*
X217073552Y-63125880D01*
X217047648Y-63177708D01*
X217027910Y-63215259D01*
X217015650Y-63235884D01*
X217013224Y-63238733D01*
X216982183Y-63251302D01*
X216947121Y-63249619D01*
X216919000Y-63234332D01*
X216917854Y-63233089D01*
X216906668Y-63216154D01*
X216887904Y-63183170D01*
X216863875Y-63138380D01*
X216836897Y-63086032D01*
X216827201Y-63066742D01*
X216754014Y-62920150D01*
X216674240Y-63079393D01*
X216645767Y-63134415D01*
X216619350Y-63182132D01*
X216597148Y-63218893D01*
X216581319Y-63241044D01*
X216575954Y-63245741D01*
X216534257Y-63252102D01*
X216499849Y-63238733D01*
X216489728Y-63224446D01*
X216472214Y-63192692D01*
X216448735Y-63146597D01*
X216420720Y-63089285D01*
X216389599Y-63023880D01*
X216356799Y-62953507D01*
X216323750Y-62881291D01*
X216291881Y-62810355D01*
X216262619Y-62743825D01*
X216237395Y-62684826D01*
X216217636Y-62636481D01*
X216204772Y-62601915D01*
X216200231Y-62584253D01*
X216200277Y-62583613D01*
X216211326Y-62561388D01*
X216233410Y-62538753D01*
X216234710Y-62537768D01*
X216261853Y-62522425D01*
X216286958Y-62522574D01*
X216296368Y-62525466D01*
X216307834Y-62531718D01*
X216320010Y-62544014D01*
X216334357Y-62564908D01*
X216352336Y-62596949D01*
X216375407Y-62642688D01*
X216405030Y-62704677D01*
X216431745Y-62761898D01*
X216462480Y-62828226D01*
X216490021Y-62887874D01*
X216512938Y-62937725D01*
X216529798Y-62974664D01*
X216539173Y-62995573D01*
X216540540Y-62998845D01*
X216546689Y-62993497D01*
X216560822Y-62971109D01*
X216581057Y-62934946D01*
X216605515Y-62888277D01*
X216615248Y-62869022D01*
X216648217Y-62804004D01*
X216673643Y-62756654D01*
X216693612Y-62724219D01*
X216710210Y-62703946D01*
X216725524Y-62693082D01*
X216741640Y-62688875D01*
X216752143Y-62688400D01*
X216770670Y-62690042D01*
X216786904Y-62696831D01*
X216803035Y-62711566D01*
X216821251Y-62737044D01*
X216843739Y-62776061D01*
X216872689Y-62831414D01*
X216888662Y-62862903D01*
X216914570Y-62913087D01*
X216937167Y-62954704D01*
X216954458Y-62984242D01*
X216964450Y-62998189D01*
X216965809Y-62998770D01*
X216972261Y-62987793D01*
X216986708Y-62959290D01*
X217007703Y-62916244D01*
X217033797Y-62861638D01*
X217063546Y-62798454D01*
X217078180Y-62767071D01*
X217116250Y-62686078D01*
X217146905Y-62623756D01*
X217171737Y-62578071D01*
X217192337Y-62546989D01*
X217210298Y-62528478D01*
X217227210Y-62520504D01*
X217244665Y-62521034D01*
G36*
X217688614Y-62525877D02*
X217712327Y-62540647D01*
X217738978Y-62562227D01*
X217738978Y-62883773D01*
X217738893Y-62977830D01*
X217738529Y-63051932D01*
X217737724Y-63108704D01*
X217736313Y-63150768D01*
X217734133Y-63180748D01*
X217731021Y-63201267D01*
X217726814Y-63214949D01*
X217721348Y-63224416D01*
X217717472Y-63229082D01*
X217686034Y-63249575D01*
X217650233Y-63248739D01*
X217618873Y-63231264D01*
X217592222Y-63209684D01*
X217592222Y-62562227D01*
X217618873Y-62540647D01*
X217644594Y-62524949D01*
X217665600Y-62519067D01*
X217688614Y-62525877D01*
X217688614Y-62525877D01*
G37*
X217688614Y-62525877D02*
X217712327Y-62540647D01*
X217738978Y-62562227D01*
X217738978Y-62883773D01*
X217738893Y-62977830D01*
X217738529Y-63051932D01*
X217737724Y-63108704D01*
X217736313Y-63150768D01*
X217734133Y-63180748D01*
X217731021Y-63201267D01*
X217726814Y-63214949D01*
X217721348Y-63224416D01*
X217717472Y-63229082D01*
X217686034Y-63249575D01*
X217650233Y-63248739D01*
X217618873Y-63231264D01*
X217592222Y-63209684D01*
X217592222Y-62562227D01*
X217618873Y-62540647D01*
X217644594Y-62524949D01*
X217665600Y-62519067D01*
X217688614Y-62525877D01*
G36*
X218463065Y-62519163D02*
X218541772Y-62519542D01*
X218602863Y-62520333D01*
X218648817Y-62521670D01*
X218682114Y-62523683D01*
X218705236Y-62526506D01*
X218720662Y-62530269D01*
X218730871Y-62535105D01*
X218735813Y-62538822D01*
X218761457Y-62571358D01*
X218764559Y-62605138D01*
X218748711Y-62635826D01*
X218738348Y-62648089D01*
X218727196Y-62656450D01*
X218711035Y-62661657D01*
X218685642Y-62664457D01*
X218646798Y-62665596D01*
X218590280Y-62665821D01*
X218579180Y-62665822D01*
X218433244Y-62665822D01*
X218433244Y-62936756D01*
X218433148Y-63022154D01*
X218432711Y-63087864D01*
X218431712Y-63136774D01*
X218429928Y-63171773D01*
X218427137Y-63195749D01*
X218423117Y-63211593D01*
X218417645Y-63222191D01*
X218410666Y-63230267D01*
X218377734Y-63250112D01*
X218343354Y-63248548D01*
X218312176Y-63225906D01*
X218309886Y-63223100D01*
X218302429Y-63212492D01*
X218296747Y-63200081D01*
X218292601Y-63182850D01*
X218289750Y-63157784D01*
X218287954Y-63121867D01*
X218286972Y-63072083D01*
X218286564Y-63005417D01*
X218286489Y-62929589D01*
X218286489Y-62665822D01*
X218147127Y-62665822D01*
X218087322Y-62665418D01*
X218045918Y-62663840D01*
X218018748Y-62660547D01*
X218001646Y-62654992D01*
X217990443Y-62646631D01*
X217989083Y-62645178D01*
X217972725Y-62611939D01*
X217974172Y-62574362D01*
X217992978Y-62541645D01*
X218000250Y-62535298D01*
X218009627Y-62530266D01*
X218023609Y-62526396D01*
X218044696Y-62523537D01*
X218075389Y-62521535D01*
X218118189Y-62520239D01*
X218175595Y-62519498D01*
X218250110Y-62519158D01*
X218344233Y-62519068D01*
X218364260Y-62519067D01*
X218463065Y-62519163D01*
X218463065Y-62519163D01*
G37*
X218463065Y-62519163D02*
X218541772Y-62519542D01*
X218602863Y-62520333D01*
X218648817Y-62521670D01*
X218682114Y-62523683D01*
X218705236Y-62526506D01*
X218720662Y-62530269D01*
X218730871Y-62535105D01*
X218735813Y-62538822D01*
X218761457Y-62571358D01*
X218764559Y-62605138D01*
X218748711Y-62635826D01*
X218738348Y-62648089D01*
X218727196Y-62656450D01*
X218711035Y-62661657D01*
X218685642Y-62664457D01*
X218646798Y-62665596D01*
X218590280Y-62665821D01*
X218579180Y-62665822D01*
X218433244Y-62665822D01*
X218433244Y-62936756D01*
X218433148Y-63022154D01*
X218432711Y-63087864D01*
X218431712Y-63136774D01*
X218429928Y-63171773D01*
X218427137Y-63195749D01*
X218423117Y-63211593D01*
X218417645Y-63222191D01*
X218410666Y-63230267D01*
X218377734Y-63250112D01*
X218343354Y-63248548D01*
X218312176Y-63225906D01*
X218309886Y-63223100D01*
X218302429Y-63212492D01*
X218296747Y-63200081D01*
X218292601Y-63182850D01*
X218289750Y-63157784D01*
X218287954Y-63121867D01*
X218286972Y-63072083D01*
X218286564Y-63005417D01*
X218286489Y-62929589D01*
X218286489Y-62665822D01*
X218147127Y-62665822D01*
X218087322Y-62665418D01*
X218045918Y-62663840D01*
X218018748Y-62660547D01*
X218001646Y-62654992D01*
X217990443Y-62646631D01*
X217989083Y-62645178D01*
X217972725Y-62611939D01*
X217974172Y-62574362D01*
X217992978Y-62541645D01*
X218000250Y-62535298D01*
X218009627Y-62530266D01*
X218023609Y-62526396D01*
X218044696Y-62523537D01*
X218075389Y-62521535D01*
X218118189Y-62520239D01*
X218175595Y-62519498D01*
X218250110Y-62519158D01*
X218344233Y-62519068D01*
X218364260Y-62519067D01*
X218463065Y-62519163D01*
G36*
X219728823Y-62524533D02*
X219760202Y-62546776D01*
X219787911Y-62574485D01*
X219787911Y-62883920D01*
X219787838Y-62975799D01*
X219787495Y-63047840D01*
X219786692Y-63102780D01*
X219785241Y-63143360D01*
X219782952Y-63172317D01*
X219779636Y-63192391D01*
X219775105Y-63206321D01*
X219769169Y-63216845D01*
X219764514Y-63223100D01*
X219733783Y-63247673D01*
X219698496Y-63250341D01*
X219666245Y-63235271D01*
X219655588Y-63226374D01*
X219648464Y-63214557D01*
X219644167Y-63195526D01*
X219641991Y-63164992D01*
X219641228Y-63118662D01*
X219641155Y-63082871D01*
X219641155Y-62948045D01*
X219144444Y-62948045D01*
X219144444Y-63070700D01*
X219143931Y-63126787D01*
X219141876Y-63165333D01*
X219137508Y-63191361D01*
X219130056Y-63209897D01*
X219121047Y-63223100D01*
X219090144Y-63247604D01*
X219055196Y-63250506D01*
X219021738Y-63233089D01*
X219012604Y-63223959D01*
X219006152Y-63211855D01*
X219001897Y-63193001D01*
X218999352Y-63163620D01*
X218998029Y-63119937D01*
X218997443Y-63058175D01*
X218997375Y-63044000D01*
X218996891Y-62927631D01*
X218996641Y-62831727D01*
X218996723Y-62754177D01*
X218997231Y-62692869D01*
X218998262Y-62645690D01*
X218999913Y-62610530D01*
X219002279Y-62585276D01*
X219005457Y-62567817D01*
X219009544Y-62556041D01*
X219014634Y-62547835D01*
X219020266Y-62541645D01*
X219052128Y-62521844D01*
X219085357Y-62524533D01*
X219116735Y-62546776D01*
X219129433Y-62561126D01*
X219137526Y-62576978D01*
X219142042Y-62599554D01*
X219144006Y-62634078D01*
X219144444Y-62685776D01*
X219144444Y-62801289D01*
X219641155Y-62801289D01*
X219641155Y-62682756D01*
X219641662Y-62628148D01*
X219643698Y-62591275D01*
X219648035Y-62567307D01*
X219655447Y-62551415D01*
X219663733Y-62541645D01*
X219695594Y-62521844D01*
X219728823Y-62524533D01*
X219728823Y-62524533D01*
G37*
X219728823Y-62524533D02*
X219760202Y-62546776D01*
X219787911Y-62574485D01*
X219787911Y-62883920D01*
X219787838Y-62975799D01*
X219787495Y-63047840D01*
X219786692Y-63102780D01*
X219785241Y-63143360D01*
X219782952Y-63172317D01*
X219779636Y-63192391D01*
X219775105Y-63206321D01*
X219769169Y-63216845D01*
X219764514Y-63223100D01*
X219733783Y-63247673D01*
X219698496Y-63250341D01*
X219666245Y-63235271D01*
X219655588Y-63226374D01*
X219648464Y-63214557D01*
X219644167Y-63195526D01*
X219641991Y-63164992D01*
X219641228Y-63118662D01*
X219641155Y-63082871D01*
X219641155Y-62948045D01*
X219144444Y-62948045D01*
X219144444Y-63070700D01*
X219143931Y-63126787D01*
X219141876Y-63165333D01*
X219137508Y-63191361D01*
X219130056Y-63209897D01*
X219121047Y-63223100D01*
X219090144Y-63247604D01*
X219055196Y-63250506D01*
X219021738Y-63233089D01*
X219012604Y-63223959D01*
X219006152Y-63211855D01*
X219001897Y-63193001D01*
X218999352Y-63163620D01*
X218998029Y-63119937D01*
X218997443Y-63058175D01*
X218997375Y-63044000D01*
X218996891Y-62927631D01*
X218996641Y-62831727D01*
X218996723Y-62754177D01*
X218997231Y-62692869D01*
X218998262Y-62645690D01*
X218999913Y-62610530D01*
X219002279Y-62585276D01*
X219005457Y-62567817D01*
X219009544Y-62556041D01*
X219014634Y-62547835D01*
X219020266Y-62541645D01*
X219052128Y-62521844D01*
X219085357Y-62524533D01*
X219116735Y-62546776D01*
X219129433Y-62561126D01*
X219137526Y-62576978D01*
X219142042Y-62599554D01*
X219144006Y-62634078D01*
X219144444Y-62685776D01*
X219144444Y-62801289D01*
X219641155Y-62801289D01*
X219641155Y-62682756D01*
X219641662Y-62628148D01*
X219643698Y-62591275D01*
X219648035Y-62567307D01*
X219655447Y-62551415D01*
X219663733Y-62541645D01*
X219695594Y-62521844D01*
X219728823Y-62524533D01*
G36*
X210553600Y-57739054D02*
X210564465Y-57852993D01*
X210596082Y-57960616D01*
X210646985Y-58059615D01*
X210715707Y-58147684D01*
X210800781Y-58222516D01*
X210897768Y-58280384D01*
X211004036Y-58320005D01*
X211111050Y-58338573D01*
X211216700Y-58337434D01*
X211318875Y-58317930D01*
X211415466Y-58281406D01*
X211504362Y-58229205D01*
X211583454Y-58162673D01*
X211650631Y-58083152D01*
X211703783Y-57991987D01*
X211740801Y-57890523D01*
X211759573Y-57780102D01*
X211761511Y-57730206D01*
X211761511Y-57642267D01*
X211813440Y-57642267D01*
X211849747Y-57645111D01*
X211876645Y-57656911D01*
X211903751Y-57680649D01*
X211942133Y-57719031D01*
X211942133Y-59910602D01*
X211942124Y-60172739D01*
X211942092Y-60413241D01*
X211942028Y-60633048D01*
X211941924Y-60833101D01*
X211941773Y-61014344D01*
X211941566Y-61177716D01*
X211941294Y-61324160D01*
X211940950Y-61454617D01*
X211940526Y-61570029D01*
X211940013Y-61671338D01*
X211939403Y-61759484D01*
X211938688Y-61835410D01*
X211937860Y-61900057D01*
X211936911Y-61954367D01*
X211935833Y-61999280D01*
X211934617Y-62035740D01*
X211933255Y-62064687D01*
X211931739Y-62087063D01*
X211930062Y-62103809D01*
X211928214Y-62115868D01*
X211926187Y-62124180D01*
X211923975Y-62129687D01*
X211922892Y-62131537D01*
X211918729Y-62138549D01*
X211915195Y-62144996D01*
X211911365Y-62150900D01*
X211906318Y-62156286D01*
X211899129Y-62161178D01*
X211888877Y-62165598D01*
X211874636Y-62169572D01*
X211855486Y-62173121D01*
X211830501Y-62176270D01*
X211798760Y-62179042D01*
X211759338Y-62181461D01*
X211711314Y-62183551D01*
X211653763Y-62185335D01*
X211585763Y-62186837D01*
X211506390Y-62188080D01*
X211414721Y-62189089D01*
X211309834Y-62189885D01*
X211190804Y-62190494D01*
X211056710Y-62190939D01*
X210906627Y-62191243D01*
X210739633Y-62191430D01*
X210554804Y-62191524D01*
X210351217Y-62191548D01*
X210127950Y-62191525D01*
X209884078Y-62191480D01*
X209618679Y-62191437D01*
X209580296Y-62191432D01*
X209313318Y-62191389D01*
X209067998Y-62191318D01*
X208843417Y-62191213D01*
X208638655Y-62191066D01*
X208452794Y-62190869D01*
X208284912Y-62190616D01*
X208134092Y-62190300D01*
X207999413Y-62189913D01*
X207879956Y-62189447D01*
X207774801Y-62188897D01*
X207683029Y-62188253D01*
X207603721Y-62187511D01*
X207535957Y-62186661D01*
X207478818Y-62185697D01*
X207431383Y-62184611D01*
X207392734Y-62183397D01*
X207361951Y-62182047D01*
X207338115Y-62180555D01*
X207320306Y-62178911D01*
X207307605Y-62177111D01*
X207299092Y-62175145D01*
X207294734Y-62173477D01*
X207286272Y-62169906D01*
X207278503Y-62167270D01*
X207271398Y-62164634D01*
X207264927Y-62161062D01*
X207259061Y-62155621D01*
X207253771Y-62147375D01*
X207249026Y-62135390D01*
X207244798Y-62118731D01*
X207241057Y-62096463D01*
X207237773Y-62067652D01*
X207234917Y-62031363D01*
X207232460Y-61986661D01*
X207230371Y-61932611D01*
X207228622Y-61868279D01*
X207227183Y-61792730D01*
X207226024Y-61705030D01*
X207225117Y-61604243D01*
X207224431Y-61489434D01*
X207223937Y-61359670D01*
X207223605Y-61214015D01*
X207223407Y-61051535D01*
X207223313Y-60871295D01*
X207223292Y-60672360D01*
X207223315Y-60453796D01*
X207223354Y-60214668D01*
X207223378Y-59954040D01*
X207223378Y-59911889D01*
X207223364Y-59648992D01*
X207223339Y-59407732D01*
X207223329Y-59187165D01*
X207223358Y-58986352D01*
X207223452Y-58804349D01*
X207223638Y-58640216D01*
X207223941Y-58493011D01*
X207224386Y-58361792D01*
X207224966Y-58251867D01*
X207527803Y-58251867D01*
X207567593Y-58309711D01*
X207578764Y-58325479D01*
X207588834Y-58339441D01*
X207597862Y-58352784D01*
X207605903Y-58366693D01*
X207613014Y-58382356D01*
X207619253Y-58400958D01*
X207624675Y-58423686D01*
X207629338Y-58451727D01*
X207633299Y-58486267D01*
X207636615Y-58528492D01*
X207639341Y-58579589D01*
X207641536Y-58640744D01*
X207643255Y-58713144D01*
X207644556Y-58797975D01*
X207645495Y-58896422D01*
X207646130Y-59009674D01*
X207646516Y-59138916D01*
X207646712Y-59285334D01*
X207646773Y-59450116D01*
X207646757Y-59634447D01*
X207646720Y-59839513D01*
X207646711Y-59962133D01*
X207646735Y-60179082D01*
X207646769Y-60374642D01*
X207646757Y-60549999D01*
X207646642Y-60706341D01*
X207646370Y-60844857D01*
X207645882Y-60966734D01*
X207645124Y-61073160D01*
X207644038Y-61165322D01*
X207642569Y-61244409D01*
X207640660Y-61311608D01*
X207638256Y-61368107D01*
X207635299Y-61415093D01*
X207631734Y-61453755D01*
X207627505Y-61485280D01*
X207622554Y-61510855D01*
X207616827Y-61531670D01*
X207610267Y-61548911D01*
X207602817Y-61563765D01*
X207594421Y-61577422D01*
X207585024Y-61591069D01*
X207574568Y-61605893D01*
X207568477Y-61614783D01*
X207529704Y-61672400D01*
X208061268Y-61672400D01*
X208184517Y-61672365D01*
X208287013Y-61672215D01*
X208370580Y-61671878D01*
X208437044Y-61671286D01*
X208488229Y-61670367D01*
X208525959Y-61669051D01*
X208552060Y-61667269D01*
X208568356Y-61664951D01*
X208576672Y-61662026D01*
X208578832Y-61658424D01*
X208576661Y-61654075D01*
X208575465Y-61652645D01*
X208550315Y-61615573D01*
X208524417Y-61562772D01*
X208500808Y-61500770D01*
X208492539Y-61474357D01*
X208487922Y-61456416D01*
X208484021Y-61435355D01*
X208480752Y-61409089D01*
X208478034Y-61375532D01*
X208475785Y-61332599D01*
X208473923Y-61278204D01*
X208472364Y-61210262D01*
X208471028Y-61126688D01*
X208469831Y-61025395D01*
X208468692Y-60904300D01*
X208468315Y-60859600D01*
X208467298Y-60734449D01*
X208466540Y-60630082D01*
X208466097Y-60544707D01*
X208466030Y-60476533D01*
X208466395Y-60423765D01*
X208467252Y-60384614D01*
X208468659Y-60357285D01*
X208470675Y-60339986D01*
X208473357Y-60330926D01*
X208476764Y-60328312D01*
X208480956Y-60330351D01*
X208485429Y-60334667D01*
X208495784Y-60347602D01*
X208517842Y-60376676D01*
X208550043Y-60419759D01*
X208590826Y-60474718D01*
X208638630Y-60539423D01*
X208691895Y-60611742D01*
X208749060Y-60689544D01*
X208808563Y-60770698D01*
X208868845Y-60853072D01*
X208928345Y-60934536D01*
X208985502Y-61012957D01*
X209038755Y-61086204D01*
X209086543Y-61152147D01*
X209127307Y-61208654D01*
X209159484Y-61253593D01*
X209181515Y-61284834D01*
X209186083Y-61291466D01*
X209209004Y-61328369D01*
X209235812Y-61376359D01*
X209261211Y-61425897D01*
X209264432Y-61432577D01*
X209286110Y-61480772D01*
X209298696Y-61518334D01*
X209304426Y-61554160D01*
X209305544Y-61596200D01*
X209304910Y-61672400D01*
X210459349Y-61672400D01*
X210368185Y-61578669D01*
X210321388Y-61528775D01*
X210271101Y-61472295D01*
X210225056Y-61418026D01*
X210204631Y-61392673D01*
X210174193Y-61353128D01*
X210134138Y-61299916D01*
X210085639Y-61234667D01*
X210029865Y-61159011D01*
X209967989Y-61074577D01*
X209901181Y-60982994D01*
X209830613Y-60885892D01*
X209757455Y-60784901D01*
X209682879Y-60681650D01*
X209608056Y-60577768D01*
X209534157Y-60474885D01*
X209462354Y-60374631D01*
X209393816Y-60278636D01*
X209329716Y-60188527D01*
X209271225Y-60105936D01*
X209219514Y-60032492D01*
X209175753Y-59969824D01*
X209141115Y-59919561D01*
X209116770Y-59883334D01*
X209103889Y-59862771D01*
X209102131Y-59858668D01*
X209110090Y-59847342D01*
X209130885Y-59820162D01*
X209163153Y-59778829D01*
X209205530Y-59725044D01*
X209256653Y-59660506D01*
X209315159Y-59586918D01*
X209379686Y-59505978D01*
X209448869Y-59419388D01*
X209521347Y-59328848D01*
X209595754Y-59236060D01*
X209655483Y-59161702D01*
X210666489Y-59161702D01*
X210672398Y-59174659D01*
X210686728Y-59196908D01*
X210687775Y-59198391D01*
X210706562Y-59228544D01*
X210726209Y-59265375D01*
X210730108Y-59273511D01*
X210733644Y-59281940D01*
X210736770Y-59292059D01*
X210739514Y-59305260D01*
X210741908Y-59322938D01*
X210743981Y-59346484D01*
X210745765Y-59377293D01*
X210747288Y-59416757D01*
X210748581Y-59466269D01*
X210749674Y-59527223D01*
X210750597Y-59601011D01*
X210751381Y-59689028D01*
X210752055Y-59792665D01*
X210752650Y-59913316D01*
X210753195Y-60052374D01*
X210753721Y-60211232D01*
X210754255Y-60390089D01*
X210754794Y-60575207D01*
X210755228Y-60739145D01*
X210755491Y-60883303D01*
X210755516Y-61009079D01*
X210755235Y-61117871D01*
X210754581Y-61211077D01*
X210753486Y-61290097D01*
X210751882Y-61356328D01*
X210749703Y-61411170D01*
X210746881Y-61456021D01*
X210743349Y-61492278D01*
X210739039Y-61521341D01*
X210733883Y-61544609D01*
X210727815Y-61563479D01*
X210720767Y-61579351D01*
X210712671Y-61593622D01*
X210703460Y-61607691D01*
X210694960Y-61620158D01*
X210677824Y-61646452D01*
X210667678Y-61664037D01*
X210666489Y-61667257D01*
X210677396Y-61668334D01*
X210708589Y-61669335D01*
X210757777Y-61670235D01*
X210822667Y-61671010D01*
X210900970Y-61671637D01*
X210990393Y-61672091D01*
X211088644Y-61672349D01*
X211157555Y-61672400D01*
X211262548Y-61672180D01*
X211359390Y-61671548D01*
X211445893Y-61670549D01*
X211519868Y-61669227D01*
X211579126Y-61667626D01*
X211621480Y-61665791D01*
X211644740Y-61663765D01*
X211648622Y-61662493D01*
X211640924Y-61647591D01*
X211632926Y-61639560D01*
X211619754Y-61622434D01*
X211602515Y-61592183D01*
X211590593Y-61567622D01*
X211563955Y-61508711D01*
X211560880Y-60331845D01*
X211557805Y-59154978D01*
X211112147Y-59154978D01*
X211014330Y-59155142D01*
X210923936Y-59155611D01*
X210843370Y-59156347D01*
X210775038Y-59157316D01*
X210721344Y-59158480D01*
X210684695Y-59159803D01*
X210667496Y-59161249D01*
X210666489Y-59161702D01*
X209655483Y-59161702D01*
X209670730Y-59142722D01*
X209744910Y-59050537D01*
X209816931Y-58961204D01*
X209885431Y-58876424D01*
X209949045Y-58797898D01*
X210006412Y-58727326D01*
X210056167Y-58666409D01*
X210096948Y-58616847D01*
X210114112Y-58596178D01*
X210200404Y-58495516D01*
X210277003Y-58412259D01*
X210345817Y-58344438D01*
X210408752Y-58290089D01*
X210418133Y-58282722D01*
X210457644Y-58252117D01*
X209325884Y-58251867D01*
X209331173Y-58299844D01*
X209327870Y-58357188D01*
X209306339Y-58425463D01*
X209266365Y-58505212D01*
X209221057Y-58577495D01*
X209204839Y-58600140D01*
X209176786Y-58637696D01*
X209138570Y-58688021D01*
X209091863Y-58748973D01*
X209038339Y-58818411D01*
X208979669Y-58894194D01*
X208917525Y-58974180D01*
X208853579Y-59056228D01*
X208789505Y-59138196D01*
X208726973Y-59217943D01*
X208667657Y-59293327D01*
X208613229Y-59362207D01*
X208565361Y-59422442D01*
X208525725Y-59471889D01*
X208495994Y-59508408D01*
X208477839Y-59529858D01*
X208474780Y-59533156D01*
X208471921Y-59525149D01*
X208469707Y-59494855D01*
X208468143Y-59442556D01*
X208467233Y-59368531D01*
X208466980Y-59273063D01*
X208467387Y-59156434D01*
X208468296Y-59036445D01*
X208469618Y-58904333D01*
X208471143Y-58792594D01*
X208473119Y-58699025D01*
X208475794Y-58621419D01*
X208479418Y-58557574D01*
X208484239Y-58505283D01*
X208490506Y-58462344D01*
X208498468Y-58426551D01*
X208508373Y-58395700D01*
X208520469Y-58367586D01*
X208535007Y-58340005D01*
X208549689Y-58314966D01*
X208587686Y-58251867D01*
X207527803Y-58251867D01*
X207224966Y-58251867D01*
X207224999Y-58245617D01*
X207225805Y-58143544D01*
X207226830Y-58054633D01*
X207228100Y-57977941D01*
X207229640Y-57912527D01*
X207231476Y-57857449D01*
X207233633Y-57811765D01*
X207236137Y-57774534D01*
X207239013Y-57744813D01*
X207242287Y-57721662D01*
X207245985Y-57704139D01*
X207250131Y-57691301D01*
X207254753Y-57682208D01*
X207259874Y-57675918D01*
X207265522Y-57671488D01*
X207271721Y-57667978D01*
X207278496Y-57664445D01*
X207284492Y-57660876D01*
X207289725Y-57658300D01*
X207297901Y-57655972D01*
X207310114Y-57653878D01*
X207327459Y-57652007D01*
X207351031Y-57650347D01*
X207381923Y-57648884D01*
X207421232Y-57647608D01*
X207470050Y-57646504D01*
X207529473Y-57645561D01*
X207600596Y-57644767D01*
X207684512Y-57644109D01*
X207782317Y-57643575D01*
X207895106Y-57643153D01*
X208023971Y-57642829D01*
X208170009Y-57642592D01*
X208334314Y-57642430D01*
X208517980Y-57642330D01*
X208722103Y-57642280D01*
X208933247Y-57642267D01*
X210553600Y-57642267D01*
X210553600Y-57739054D01*
X210553600Y-57739054D01*
G37*
X210553600Y-57739054D02*
X210564465Y-57852993D01*
X210596082Y-57960616D01*
X210646985Y-58059615D01*
X210715707Y-58147684D01*
X210800781Y-58222516D01*
X210897768Y-58280384D01*
X211004036Y-58320005D01*
X211111050Y-58338573D01*
X211216700Y-58337434D01*
X211318875Y-58317930D01*
X211415466Y-58281406D01*
X211504362Y-58229205D01*
X211583454Y-58162673D01*
X211650631Y-58083152D01*
X211703783Y-57991987D01*
X211740801Y-57890523D01*
X211759573Y-57780102D01*
X211761511Y-57730206D01*
X211761511Y-57642267D01*
X211813440Y-57642267D01*
X211849747Y-57645111D01*
X211876645Y-57656911D01*
X211903751Y-57680649D01*
X211942133Y-57719031D01*
X211942133Y-59910602D01*
X211942124Y-60172739D01*
X211942092Y-60413241D01*
X211942028Y-60633048D01*
X211941924Y-60833101D01*
X211941773Y-61014344D01*
X211941566Y-61177716D01*
X211941294Y-61324160D01*
X211940950Y-61454617D01*
X211940526Y-61570029D01*
X211940013Y-61671338D01*
X211939403Y-61759484D01*
X211938688Y-61835410D01*
X211937860Y-61900057D01*
X211936911Y-61954367D01*
X211935833Y-61999280D01*
X211934617Y-62035740D01*
X211933255Y-62064687D01*
X211931739Y-62087063D01*
X211930062Y-62103809D01*
X211928214Y-62115868D01*
X211926187Y-62124180D01*
X211923975Y-62129687D01*
X211922892Y-62131537D01*
X211918729Y-62138549D01*
X211915195Y-62144996D01*
X211911365Y-62150900D01*
X211906318Y-62156286D01*
X211899129Y-62161178D01*
X211888877Y-62165598D01*
X211874636Y-62169572D01*
X211855486Y-62173121D01*
X211830501Y-62176270D01*
X211798760Y-62179042D01*
X211759338Y-62181461D01*
X211711314Y-62183551D01*
X211653763Y-62185335D01*
X211585763Y-62186837D01*
X211506390Y-62188080D01*
X211414721Y-62189089D01*
X211309834Y-62189885D01*
X211190804Y-62190494D01*
X211056710Y-62190939D01*
X210906627Y-62191243D01*
X210739633Y-62191430D01*
X210554804Y-62191524D01*
X210351217Y-62191548D01*
X210127950Y-62191525D01*
X209884078Y-62191480D01*
X209618679Y-62191437D01*
X209580296Y-62191432D01*
X209313318Y-62191389D01*
X209067998Y-62191318D01*
X208843417Y-62191213D01*
X208638655Y-62191066D01*
X208452794Y-62190869D01*
X208284912Y-62190616D01*
X208134092Y-62190300D01*
X207999413Y-62189913D01*
X207879956Y-62189447D01*
X207774801Y-62188897D01*
X207683029Y-62188253D01*
X207603721Y-62187511D01*
X207535957Y-62186661D01*
X207478818Y-62185697D01*
X207431383Y-62184611D01*
X207392734Y-62183397D01*
X207361951Y-62182047D01*
X207338115Y-62180555D01*
X207320306Y-62178911D01*
X207307605Y-62177111D01*
X207299092Y-62175145D01*
X207294734Y-62173477D01*
X207286272Y-62169906D01*
X207278503Y-62167270D01*
X207271398Y-62164634D01*
X207264927Y-62161062D01*
X207259061Y-62155621D01*
X207253771Y-62147375D01*
X207249026Y-62135390D01*
X207244798Y-62118731D01*
X207241057Y-62096463D01*
X207237773Y-62067652D01*
X207234917Y-62031363D01*
X207232460Y-61986661D01*
X207230371Y-61932611D01*
X207228622Y-61868279D01*
X207227183Y-61792730D01*
X207226024Y-61705030D01*
X207225117Y-61604243D01*
X207224431Y-61489434D01*
X207223937Y-61359670D01*
X207223605Y-61214015D01*
X207223407Y-61051535D01*
X207223313Y-60871295D01*
X207223292Y-60672360D01*
X207223315Y-60453796D01*
X207223354Y-60214668D01*
X207223378Y-59954040D01*
X207223378Y-59911889D01*
X207223364Y-59648992D01*
X207223339Y-59407732D01*
X207223329Y-59187165D01*
X207223358Y-58986352D01*
X207223452Y-58804349D01*
X207223638Y-58640216D01*
X207223941Y-58493011D01*
X207224386Y-58361792D01*
X207224966Y-58251867D01*
X207527803Y-58251867D01*
X207567593Y-58309711D01*
X207578764Y-58325479D01*
X207588834Y-58339441D01*
X207597862Y-58352784D01*
X207605903Y-58366693D01*
X207613014Y-58382356D01*
X207619253Y-58400958D01*
X207624675Y-58423686D01*
X207629338Y-58451727D01*
X207633299Y-58486267D01*
X207636615Y-58528492D01*
X207639341Y-58579589D01*
X207641536Y-58640744D01*
X207643255Y-58713144D01*
X207644556Y-58797975D01*
X207645495Y-58896422D01*
X207646130Y-59009674D01*
X207646516Y-59138916D01*
X207646712Y-59285334D01*
X207646773Y-59450116D01*
X207646757Y-59634447D01*
X207646720Y-59839513D01*
X207646711Y-59962133D01*
X207646735Y-60179082D01*
X207646769Y-60374642D01*
X207646757Y-60549999D01*
X207646642Y-60706341D01*
X207646370Y-60844857D01*
X207645882Y-60966734D01*
X207645124Y-61073160D01*
X207644038Y-61165322D01*
X207642569Y-61244409D01*
X207640660Y-61311608D01*
X207638256Y-61368107D01*
X207635299Y-61415093D01*
X207631734Y-61453755D01*
X207627505Y-61485280D01*
X207622554Y-61510855D01*
X207616827Y-61531670D01*
X207610267Y-61548911D01*
X207602817Y-61563765D01*
X207594421Y-61577422D01*
X207585024Y-61591069D01*
X207574568Y-61605893D01*
X207568477Y-61614783D01*
X207529704Y-61672400D01*
X208061268Y-61672400D01*
X208184517Y-61672365D01*
X208287013Y-61672215D01*
X208370580Y-61671878D01*
X208437044Y-61671286D01*
X208488229Y-61670367D01*
X208525959Y-61669051D01*
X208552060Y-61667269D01*
X208568356Y-61664951D01*
X208576672Y-61662026D01*
X208578832Y-61658424D01*
X208576661Y-61654075D01*
X208575465Y-61652645D01*
X208550315Y-61615573D01*
X208524417Y-61562772D01*
X208500808Y-61500770D01*
X208492539Y-61474357D01*
X208487922Y-61456416D01*
X208484021Y-61435355D01*
X208480752Y-61409089D01*
X208478034Y-61375532D01*
X208475785Y-61332599D01*
X208473923Y-61278204D01*
X208472364Y-61210262D01*
X208471028Y-61126688D01*
X208469831Y-61025395D01*
X208468692Y-60904300D01*
X208468315Y-60859600D01*
X208467298Y-60734449D01*
X208466540Y-60630082D01*
X208466097Y-60544707D01*
X208466030Y-60476533D01*
X208466395Y-60423765D01*
X208467252Y-60384614D01*
X208468659Y-60357285D01*
X208470675Y-60339986D01*
X208473357Y-60330926D01*
X208476764Y-60328312D01*
X208480956Y-60330351D01*
X208485429Y-60334667D01*
X208495784Y-60347602D01*
X208517842Y-60376676D01*
X208550043Y-60419759D01*
X208590826Y-60474718D01*
X208638630Y-60539423D01*
X208691895Y-60611742D01*
X208749060Y-60689544D01*
X208808563Y-60770698D01*
X208868845Y-60853072D01*
X208928345Y-60934536D01*
X208985502Y-61012957D01*
X209038755Y-61086204D01*
X209086543Y-61152147D01*
X209127307Y-61208654D01*
X209159484Y-61253593D01*
X209181515Y-61284834D01*
X209186083Y-61291466D01*
X209209004Y-61328369D01*
X209235812Y-61376359D01*
X209261211Y-61425897D01*
X209264432Y-61432577D01*
X209286110Y-61480772D01*
X209298696Y-61518334D01*
X209304426Y-61554160D01*
X209305544Y-61596200D01*
X209304910Y-61672400D01*
X210459349Y-61672400D01*
X210368185Y-61578669D01*
X210321388Y-61528775D01*
X210271101Y-61472295D01*
X210225056Y-61418026D01*
X210204631Y-61392673D01*
X210174193Y-61353128D01*
X210134138Y-61299916D01*
X210085639Y-61234667D01*
X210029865Y-61159011D01*
X209967989Y-61074577D01*
X209901181Y-60982994D01*
X209830613Y-60885892D01*
X209757455Y-60784901D01*
X209682879Y-60681650D01*
X209608056Y-60577768D01*
X209534157Y-60474885D01*
X209462354Y-60374631D01*
X209393816Y-60278636D01*
X209329716Y-60188527D01*
X209271225Y-60105936D01*
X209219514Y-60032492D01*
X209175753Y-59969824D01*
X209141115Y-59919561D01*
X209116770Y-59883334D01*
X209103889Y-59862771D01*
X209102131Y-59858668D01*
X209110090Y-59847342D01*
X209130885Y-59820162D01*
X209163153Y-59778829D01*
X209205530Y-59725044D01*
X209256653Y-59660506D01*
X209315159Y-59586918D01*
X209379686Y-59505978D01*
X209448869Y-59419388D01*
X209521347Y-59328848D01*
X209595754Y-59236060D01*
X209655483Y-59161702D01*
X210666489Y-59161702D01*
X210672398Y-59174659D01*
X210686728Y-59196908D01*
X210687775Y-59198391D01*
X210706562Y-59228544D01*
X210726209Y-59265375D01*
X210730108Y-59273511D01*
X210733644Y-59281940D01*
X210736770Y-59292059D01*
X210739514Y-59305260D01*
X210741908Y-59322938D01*
X210743981Y-59346484D01*
X210745765Y-59377293D01*
X210747288Y-59416757D01*
X210748581Y-59466269D01*
X210749674Y-59527223D01*
X210750597Y-59601011D01*
X210751381Y-59689028D01*
X210752055Y-59792665D01*
X210752650Y-59913316D01*
X210753195Y-60052374D01*
X210753721Y-60211232D01*
X210754255Y-60390089D01*
X210754794Y-60575207D01*
X210755228Y-60739145D01*
X210755491Y-60883303D01*
X210755516Y-61009079D01*
X210755235Y-61117871D01*
X210754581Y-61211077D01*
X210753486Y-61290097D01*
X210751882Y-61356328D01*
X210749703Y-61411170D01*
X210746881Y-61456021D01*
X210743349Y-61492278D01*
X210739039Y-61521341D01*
X210733883Y-61544609D01*
X210727815Y-61563479D01*
X210720767Y-61579351D01*
X210712671Y-61593622D01*
X210703460Y-61607691D01*
X210694960Y-61620158D01*
X210677824Y-61646452D01*
X210667678Y-61664037D01*
X210666489Y-61667257D01*
X210677396Y-61668334D01*
X210708589Y-61669335D01*
X210757777Y-61670235D01*
X210822667Y-61671010D01*
X210900970Y-61671637D01*
X210990393Y-61672091D01*
X211088644Y-61672349D01*
X211157555Y-61672400D01*
X211262548Y-61672180D01*
X211359390Y-61671548D01*
X211445893Y-61670549D01*
X211519868Y-61669227D01*
X211579126Y-61667626D01*
X211621480Y-61665791D01*
X211644740Y-61663765D01*
X211648622Y-61662493D01*
X211640924Y-61647591D01*
X211632926Y-61639560D01*
X211619754Y-61622434D01*
X211602515Y-61592183D01*
X211590593Y-61567622D01*
X211563955Y-61508711D01*
X211560880Y-60331845D01*
X211557805Y-59154978D01*
X211112147Y-59154978D01*
X211014330Y-59155142D01*
X210923936Y-59155611D01*
X210843370Y-59156347D01*
X210775038Y-59157316D01*
X210721344Y-59158480D01*
X210684695Y-59159803D01*
X210667496Y-59161249D01*
X210666489Y-59161702D01*
X209655483Y-59161702D01*
X209670730Y-59142722D01*
X209744910Y-59050537D01*
X209816931Y-58961204D01*
X209885431Y-58876424D01*
X209949045Y-58797898D01*
X210006412Y-58727326D01*
X210056167Y-58666409D01*
X210096948Y-58616847D01*
X210114112Y-58596178D01*
X210200404Y-58495516D01*
X210277003Y-58412259D01*
X210345817Y-58344438D01*
X210408752Y-58290089D01*
X210418133Y-58282722D01*
X210457644Y-58252117D01*
X209325884Y-58251867D01*
X209331173Y-58299844D01*
X209327870Y-58357188D01*
X209306339Y-58425463D01*
X209266365Y-58505212D01*
X209221057Y-58577495D01*
X209204839Y-58600140D01*
X209176786Y-58637696D01*
X209138570Y-58688021D01*
X209091863Y-58748973D01*
X209038339Y-58818411D01*
X208979669Y-58894194D01*
X208917525Y-58974180D01*
X208853579Y-59056228D01*
X208789505Y-59138196D01*
X208726973Y-59217943D01*
X208667657Y-59293327D01*
X208613229Y-59362207D01*
X208565361Y-59422442D01*
X208525725Y-59471889D01*
X208495994Y-59508408D01*
X208477839Y-59529858D01*
X208474780Y-59533156D01*
X208471921Y-59525149D01*
X208469707Y-59494855D01*
X208468143Y-59442556D01*
X208467233Y-59368531D01*
X208466980Y-59273063D01*
X208467387Y-59156434D01*
X208468296Y-59036445D01*
X208469618Y-58904333D01*
X208471143Y-58792594D01*
X208473119Y-58699025D01*
X208475794Y-58621419D01*
X208479418Y-58557574D01*
X208484239Y-58505283D01*
X208490506Y-58462344D01*
X208498468Y-58426551D01*
X208508373Y-58395700D01*
X208520469Y-58367586D01*
X208535007Y-58340005D01*
X208549689Y-58314966D01*
X208587686Y-58251867D01*
X207527803Y-58251867D01*
X207224966Y-58251867D01*
X207224999Y-58245617D01*
X207225805Y-58143544D01*
X207226830Y-58054633D01*
X207228100Y-57977941D01*
X207229640Y-57912527D01*
X207231476Y-57857449D01*
X207233633Y-57811765D01*
X207236137Y-57774534D01*
X207239013Y-57744813D01*
X207242287Y-57721662D01*
X207245985Y-57704139D01*
X207250131Y-57691301D01*
X207254753Y-57682208D01*
X207259874Y-57675918D01*
X207265522Y-57671488D01*
X207271721Y-57667978D01*
X207278496Y-57664445D01*
X207284492Y-57660876D01*
X207289725Y-57658300D01*
X207297901Y-57655972D01*
X207310114Y-57653878D01*
X207327459Y-57652007D01*
X207351031Y-57650347D01*
X207381923Y-57648884D01*
X207421232Y-57647608D01*
X207470050Y-57646504D01*
X207529473Y-57645561D01*
X207600596Y-57644767D01*
X207684512Y-57644109D01*
X207782317Y-57643575D01*
X207895106Y-57643153D01*
X208023971Y-57642829D01*
X208170009Y-57642592D01*
X208334314Y-57642430D01*
X208517980Y-57642330D01*
X208722103Y-57642280D01*
X208933247Y-57642267D01*
X210553600Y-57642267D01*
X210553600Y-57739054D01*
G36*
X213828429Y-58199071D02*
X213988570Y-58220245D01*
X214152510Y-58260385D01*
X214322313Y-58319889D01*
X214500043Y-58399154D01*
X214511310Y-58404699D01*
X214569005Y-58432725D01*
X214620552Y-58456802D01*
X214662191Y-58475249D01*
X214690162Y-58486386D01*
X214699733Y-58488933D01*
X214718950Y-58493941D01*
X214723561Y-58498147D01*
X214718458Y-58508580D01*
X214702418Y-58534868D01*
X214677288Y-58574257D01*
X214644914Y-58623991D01*
X214607143Y-58681315D01*
X214565822Y-58743476D01*
X214522798Y-58807718D01*
X214479917Y-58871285D01*
X214439026Y-58931425D01*
X214401971Y-58985380D01*
X214370600Y-59030397D01*
X214346759Y-59063721D01*
X214332294Y-59082597D01*
X214330309Y-59084787D01*
X214320191Y-59080138D01*
X214297850Y-59062962D01*
X214267280Y-59036440D01*
X214251536Y-59021964D01*
X214155047Y-58946682D01*
X214048336Y-58891241D01*
X213932832Y-58856141D01*
X213809962Y-58841880D01*
X213740561Y-58843051D01*
X213619423Y-58860212D01*
X213510205Y-58896094D01*
X213412582Y-58950959D01*
X213326228Y-59025070D01*
X213250815Y-59118688D01*
X213186018Y-59232076D01*
X213148601Y-59318667D01*
X213104748Y-59454366D01*
X213072428Y-59601850D01*
X213051557Y-59757314D01*
X213042051Y-59916956D01*
X213043827Y-60076973D01*
X213056803Y-60233561D01*
X213080894Y-60382918D01*
X213116018Y-60521240D01*
X213162092Y-60644724D01*
X213178373Y-60678978D01*
X213246620Y-60793064D01*
X213327079Y-60889557D01*
X213418570Y-60967670D01*
X213519911Y-61026617D01*
X213629920Y-61065612D01*
X213747415Y-61083868D01*
X213788883Y-61085211D01*
X213910441Y-61074290D01*
X214030878Y-61041474D01*
X214148666Y-60987439D01*
X214262277Y-60912865D01*
X214353685Y-60834539D01*
X214400215Y-60790008D01*
X214581483Y-61087271D01*
X214626580Y-61161433D01*
X214667819Y-61229646D01*
X214703735Y-61289459D01*
X214732866Y-61338420D01*
X214753750Y-61374079D01*
X214764924Y-61393984D01*
X214766375Y-61397079D01*
X214758146Y-61406718D01*
X214732567Y-61423999D01*
X214692873Y-61447283D01*
X214642297Y-61474934D01*
X214584074Y-61505315D01*
X214521437Y-61536790D01*
X214457621Y-61567722D01*
X214395860Y-61596473D01*
X214339388Y-61621408D01*
X214291438Y-61640889D01*
X214267986Y-61649318D01*
X214134221Y-61687133D01*
X213996327Y-61712136D01*
X213848622Y-61725140D01*
X213721833Y-61727468D01*
X213653878Y-61726373D01*
X213588277Y-61724275D01*
X213530847Y-61721434D01*
X213487403Y-61718106D01*
X213473298Y-61716422D01*
X213334284Y-61687587D01*
X213192757Y-61642468D01*
X213055275Y-61583750D01*
X212928394Y-61514120D01*
X212850889Y-61461441D01*
X212723481Y-61353239D01*
X212605178Y-61226671D01*
X212498172Y-61084866D01*
X212404652Y-60930951D01*
X212326810Y-60768053D01*
X212282956Y-60650756D01*
X212232708Y-60467128D01*
X212199209Y-60272581D01*
X212182449Y-60071325D01*
X212182416Y-59867568D01*
X212199101Y-59665521D01*
X212232493Y-59469392D01*
X212282580Y-59283391D01*
X212286397Y-59271803D01*
X212349281Y-59109750D01*
X212426028Y-58961832D01*
X212519242Y-58823865D01*
X212631527Y-58691661D01*
X212675392Y-58646399D01*
X212811534Y-58522457D01*
X212951491Y-58419915D01*
X213097411Y-58337656D01*
X213251442Y-58274564D01*
X213415732Y-58229523D01*
X213511289Y-58212033D01*
X213670023Y-58196466D01*
X213828429Y-58199071D01*
X213828429Y-58199071D01*
G37*
X213828429Y-58199071D02*
X213988570Y-58220245D01*
X214152510Y-58260385D01*
X214322313Y-58319889D01*
X214500043Y-58399154D01*
X214511310Y-58404699D01*
X214569005Y-58432725D01*
X214620552Y-58456802D01*
X214662191Y-58475249D01*
X214690162Y-58486386D01*
X214699733Y-58488933D01*
X214718950Y-58493941D01*
X214723561Y-58498147D01*
X214718458Y-58508580D01*
X214702418Y-58534868D01*
X214677288Y-58574257D01*
X214644914Y-58623991D01*
X214607143Y-58681315D01*
X214565822Y-58743476D01*
X214522798Y-58807718D01*
X214479917Y-58871285D01*
X214439026Y-58931425D01*
X214401971Y-58985380D01*
X214370600Y-59030397D01*
X214346759Y-59063721D01*
X214332294Y-59082597D01*
X214330309Y-59084787D01*
X214320191Y-59080138D01*
X214297850Y-59062962D01*
X214267280Y-59036440D01*
X214251536Y-59021964D01*
X214155047Y-58946682D01*
X214048336Y-58891241D01*
X213932832Y-58856141D01*
X213809962Y-58841880D01*
X213740561Y-58843051D01*
X213619423Y-58860212D01*
X213510205Y-58896094D01*
X213412582Y-58950959D01*
X213326228Y-59025070D01*
X213250815Y-59118688D01*
X213186018Y-59232076D01*
X213148601Y-59318667D01*
X213104748Y-59454366D01*
X213072428Y-59601850D01*
X213051557Y-59757314D01*
X213042051Y-59916956D01*
X213043827Y-60076973D01*
X213056803Y-60233561D01*
X213080894Y-60382918D01*
X213116018Y-60521240D01*
X213162092Y-60644724D01*
X213178373Y-60678978D01*
X213246620Y-60793064D01*
X213327079Y-60889557D01*
X213418570Y-60967670D01*
X213519911Y-61026617D01*
X213629920Y-61065612D01*
X213747415Y-61083868D01*
X213788883Y-61085211D01*
X213910441Y-61074290D01*
X214030878Y-61041474D01*
X214148666Y-60987439D01*
X214262277Y-60912865D01*
X214353685Y-60834539D01*
X214400215Y-60790008D01*
X214581483Y-61087271D01*
X214626580Y-61161433D01*
X214667819Y-61229646D01*
X214703735Y-61289459D01*
X214732866Y-61338420D01*
X214753750Y-61374079D01*
X214764924Y-61393984D01*
X214766375Y-61397079D01*
X214758146Y-61406718D01*
X214732567Y-61423999D01*
X214692873Y-61447283D01*
X214642297Y-61474934D01*
X214584074Y-61505315D01*
X214521437Y-61536790D01*
X214457621Y-61567722D01*
X214395860Y-61596473D01*
X214339388Y-61621408D01*
X214291438Y-61640889D01*
X214267986Y-61649318D01*
X214134221Y-61687133D01*
X213996327Y-61712136D01*
X213848622Y-61725140D01*
X213721833Y-61727468D01*
X213653878Y-61726373D01*
X213588277Y-61724275D01*
X213530847Y-61721434D01*
X213487403Y-61718106D01*
X213473298Y-61716422D01*
X213334284Y-61687587D01*
X213192757Y-61642468D01*
X213055275Y-61583750D01*
X212928394Y-61514120D01*
X212850889Y-61461441D01*
X212723481Y-61353239D01*
X212605178Y-61226671D01*
X212498172Y-61084866D01*
X212404652Y-60930951D01*
X212326810Y-60768053D01*
X212282956Y-60650756D01*
X212232708Y-60467128D01*
X212199209Y-60272581D01*
X212182449Y-60071325D01*
X212182416Y-59867568D01*
X212199101Y-59665521D01*
X212232493Y-59469392D01*
X212282580Y-59283391D01*
X212286397Y-59271803D01*
X212349281Y-59109750D01*
X212426028Y-58961832D01*
X212519242Y-58823865D01*
X212631527Y-58691661D01*
X212675392Y-58646399D01*
X212811534Y-58522457D01*
X212951491Y-58419915D01*
X213097411Y-58337656D01*
X213251442Y-58274564D01*
X213415732Y-58229523D01*
X213511289Y-58212033D01*
X213670023Y-58196466D01*
X213828429Y-58199071D01*
G36*
X216173574Y-59116552D02*
X216325492Y-59136567D01*
X216460756Y-59170202D01*
X216580239Y-59217725D01*
X216684815Y-59279405D01*
X216762424Y-59342965D01*
X216831265Y-59417099D01*
X216885006Y-59496871D01*
X216927910Y-59589091D01*
X216943384Y-59632161D01*
X216956244Y-59671142D01*
X216967446Y-59707289D01*
X216977120Y-59742434D01*
X216985396Y-59778410D01*
X216992403Y-59817050D01*
X216998272Y-59860185D01*
X217003131Y-59909649D01*
X217007110Y-59967273D01*
X217010340Y-60034891D01*
X217012949Y-60114334D01*
X217015067Y-60207436D01*
X217016824Y-60316027D01*
X217018349Y-60441942D01*
X217019772Y-60587012D01*
X217021025Y-60729778D01*
X217022351Y-60885968D01*
X217023556Y-61021239D01*
X217024766Y-61137246D01*
X217026106Y-61235645D01*
X217027700Y-61318093D01*
X217029675Y-61386246D01*
X217032156Y-61441760D01*
X217035269Y-61486292D01*
X217039138Y-61521498D01*
X217043889Y-61549034D01*
X217049648Y-61570556D01*
X217056539Y-61587722D01*
X217064689Y-61602186D01*
X217074223Y-61615606D01*
X217085266Y-61629638D01*
X217089566Y-61635071D01*
X217105386Y-61657910D01*
X217112422Y-61673463D01*
X217112444Y-61673922D01*
X217101567Y-61676121D01*
X217070582Y-61678147D01*
X217021957Y-61679942D01*
X216958163Y-61681451D01*
X216881669Y-61682616D01*
X216794944Y-61683380D01*
X216700457Y-61683686D01*
X216689550Y-61683689D01*
X216266657Y-61683689D01*
X216263395Y-61587622D01*
X216260133Y-61491556D01*
X216198044Y-61542543D01*
X216100714Y-61610057D01*
X215990813Y-61664749D01*
X215904349Y-61694978D01*
X215835278Y-61709666D01*
X215751925Y-61719659D01*
X215662159Y-61724646D01*
X215573845Y-61724313D01*
X215494851Y-61718351D01*
X215458622Y-61712638D01*
X215318603Y-61674776D01*
X215192178Y-61619932D01*
X215080260Y-61548924D01*
X214983762Y-61462568D01*
X214903600Y-61361679D01*
X214840687Y-61247076D01*
X214796312Y-61120984D01*
X214783978Y-61064401D01*
X214776368Y-61002202D01*
X214772739Y-60927363D01*
X214772245Y-60893467D01*
X214772310Y-60890282D01*
X215532248Y-60890282D01*
X215541541Y-60965333D01*
X215569728Y-61029160D01*
X215618197Y-61084798D01*
X215623254Y-61089211D01*
X215671548Y-61124037D01*
X215723257Y-61146620D01*
X215783989Y-61158540D01*
X215859352Y-61161383D01*
X215877459Y-61160978D01*
X215931278Y-61158325D01*
X215971308Y-61152909D01*
X216006324Y-61142745D01*
X216045103Y-61125850D01*
X216055745Y-61120672D01*
X216116396Y-61084844D01*
X216163215Y-61042212D01*
X216175952Y-61026973D01*
X216220622Y-60970462D01*
X216220622Y-60774586D01*
X216220086Y-60695939D01*
X216218396Y-60637988D01*
X216215428Y-60598875D01*
X216211057Y-60576741D01*
X216206972Y-60570274D01*
X216191047Y-60567111D01*
X216157264Y-60564488D01*
X216110340Y-60562655D01*
X216054993Y-60561857D01*
X216046106Y-60561842D01*
X215925330Y-60567096D01*
X215822660Y-60583263D01*
X215736106Y-60610961D01*
X215663681Y-60650808D01*
X215608751Y-60697758D01*
X215564204Y-60755645D01*
X215539480Y-60818693D01*
X215532248Y-60890282D01*
X214772310Y-60890282D01*
X214774178Y-60799712D01*
X214782522Y-60720812D01*
X214798768Y-60649590D01*
X214824405Y-60578864D01*
X214848401Y-60526493D01*
X214907020Y-60431196D01*
X214985117Y-60343170D01*
X215080315Y-60264017D01*
X215190238Y-60195340D01*
X215312510Y-60138741D01*
X215444755Y-60095821D01*
X215509422Y-60080882D01*
X215645604Y-60058777D01*
X215794049Y-60044194D01*
X215945505Y-60037813D01*
X216072064Y-60039445D01*
X216233950Y-60046224D01*
X216226530Y-59987245D01*
X216207238Y-59888092D01*
X216176104Y-59807372D01*
X216132269Y-59744466D01*
X216074871Y-59698756D01*
X216003048Y-59669622D01*
X215915941Y-59656447D01*
X215812686Y-59658611D01*
X215774711Y-59662612D01*
X215633520Y-59687780D01*
X215496707Y-59728814D01*
X215402178Y-59766815D01*
X215357018Y-59786190D01*
X215318585Y-59801760D01*
X215292234Y-59811405D01*
X215284546Y-59813452D01*
X215274802Y-59804374D01*
X215258083Y-59775405D01*
X215234232Y-59726217D01*
X215203093Y-59656484D01*
X215164507Y-59565879D01*
X215157910Y-59550089D01*
X215127853Y-59477772D01*
X215100874Y-59412425D01*
X215078136Y-59356906D01*
X215060806Y-59314072D01*
X215050048Y-59286781D01*
X215046941Y-59277942D01*
X215056940Y-59273187D01*
X215083217Y-59267910D01*
X215111489Y-59264231D01*
X215141646Y-59259474D01*
X215189433Y-59250028D01*
X215250612Y-59236820D01*
X215320946Y-59220776D01*
X215396194Y-59202820D01*
X215424755Y-59195797D01*
X215529816Y-59170209D01*
X215617480Y-59150147D01*
X215692068Y-59134969D01*
X215757903Y-59124035D01*
X215819307Y-59116704D01*
X215880602Y-59112335D01*
X215946110Y-59110287D01*
X216004128Y-59109889D01*
X216173574Y-59116552D01*
X216173574Y-59116552D01*
G37*
X216173574Y-59116552D02*
X216325492Y-59136567D01*
X216460756Y-59170202D01*
X216580239Y-59217725D01*
X216684815Y-59279405D01*
X216762424Y-59342965D01*
X216831265Y-59417099D01*
X216885006Y-59496871D01*
X216927910Y-59589091D01*
X216943384Y-59632161D01*
X216956244Y-59671142D01*
X216967446Y-59707289D01*
X216977120Y-59742434D01*
X216985396Y-59778410D01*
X216992403Y-59817050D01*
X216998272Y-59860185D01*
X217003131Y-59909649D01*
X217007110Y-59967273D01*
X217010340Y-60034891D01*
X217012949Y-60114334D01*
X217015067Y-60207436D01*
X217016824Y-60316027D01*
X217018349Y-60441942D01*
X217019772Y-60587012D01*
X217021025Y-60729778D01*
X217022351Y-60885968D01*
X217023556Y-61021239D01*
X217024766Y-61137246D01*
X217026106Y-61235645D01*
X217027700Y-61318093D01*
X217029675Y-61386246D01*
X217032156Y-61441760D01*
X217035269Y-61486292D01*
X217039138Y-61521498D01*
X217043889Y-61549034D01*
X217049648Y-61570556D01*
X217056539Y-61587722D01*
X217064689Y-61602186D01*
X217074223Y-61615606D01*
X217085266Y-61629638D01*
X217089566Y-61635071D01*
X217105386Y-61657910D01*
X217112422Y-61673463D01*
X217112444Y-61673922D01*
X217101567Y-61676121D01*
X217070582Y-61678147D01*
X217021957Y-61679942D01*
X216958163Y-61681451D01*
X216881669Y-61682616D01*
X216794944Y-61683380D01*
X216700457Y-61683686D01*
X216689550Y-61683689D01*
X216266657Y-61683689D01*
X216263395Y-61587622D01*
X216260133Y-61491556D01*
X216198044Y-61542543D01*
X216100714Y-61610057D01*
X215990813Y-61664749D01*
X215904349Y-61694978D01*
X215835278Y-61709666D01*
X215751925Y-61719659D01*
X215662159Y-61724646D01*
X215573845Y-61724313D01*
X215494851Y-61718351D01*
X215458622Y-61712638D01*
X215318603Y-61674776D01*
X215192178Y-61619932D01*
X215080260Y-61548924D01*
X214983762Y-61462568D01*
X214903600Y-61361679D01*
X214840687Y-61247076D01*
X214796312Y-61120984D01*
X214783978Y-61064401D01*
X214776368Y-61002202D01*
X214772739Y-60927363D01*
X214772245Y-60893467D01*
X214772310Y-60890282D01*
X215532248Y-60890282D01*
X215541541Y-60965333D01*
X215569728Y-61029160D01*
X215618197Y-61084798D01*
X215623254Y-61089211D01*
X215671548Y-61124037D01*
X215723257Y-61146620D01*
X215783989Y-61158540D01*
X215859352Y-61161383D01*
X215877459Y-61160978D01*
X215931278Y-61158325D01*
X215971308Y-61152909D01*
X216006324Y-61142745D01*
X216045103Y-61125850D01*
X216055745Y-61120672D01*
X216116396Y-61084844D01*
X216163215Y-61042212D01*
X216175952Y-61026973D01*
X216220622Y-60970462D01*
X216220622Y-60774586D01*
X216220086Y-60695939D01*
X216218396Y-60637988D01*
X216215428Y-60598875D01*
X216211057Y-60576741D01*
X216206972Y-60570274D01*
X216191047Y-60567111D01*
X216157264Y-60564488D01*
X216110340Y-60562655D01*
X216054993Y-60561857D01*
X216046106Y-60561842D01*
X215925330Y-60567096D01*
X215822660Y-60583263D01*
X215736106Y-60610961D01*
X215663681Y-60650808D01*
X215608751Y-60697758D01*
X215564204Y-60755645D01*
X215539480Y-60818693D01*
X215532248Y-60890282D01*
X214772310Y-60890282D01*
X214774178Y-60799712D01*
X214782522Y-60720812D01*
X214798768Y-60649590D01*
X214824405Y-60578864D01*
X214848401Y-60526493D01*
X214907020Y-60431196D01*
X214985117Y-60343170D01*
X215080315Y-60264017D01*
X215190238Y-60195340D01*
X215312510Y-60138741D01*
X215444755Y-60095821D01*
X215509422Y-60080882D01*
X215645604Y-60058777D01*
X215794049Y-60044194D01*
X215945505Y-60037813D01*
X216072064Y-60039445D01*
X216233950Y-60046224D01*
X216226530Y-59987245D01*
X216207238Y-59888092D01*
X216176104Y-59807372D01*
X216132269Y-59744466D01*
X216074871Y-59698756D01*
X216003048Y-59669622D01*
X215915941Y-59656447D01*
X215812686Y-59658611D01*
X215774711Y-59662612D01*
X215633520Y-59687780D01*
X215496707Y-59728814D01*
X215402178Y-59766815D01*
X215357018Y-59786190D01*
X215318585Y-59801760D01*
X215292234Y-59811405D01*
X215284546Y-59813452D01*
X215274802Y-59804374D01*
X215258083Y-59775405D01*
X215234232Y-59726217D01*
X215203093Y-59656484D01*
X215164507Y-59565879D01*
X215157910Y-59550089D01*
X215127853Y-59477772D01*
X215100874Y-59412425D01*
X215078136Y-59356906D01*
X215060806Y-59314072D01*
X215050048Y-59286781D01*
X215046941Y-59277942D01*
X215056940Y-59273187D01*
X215083217Y-59267910D01*
X215111489Y-59264231D01*
X215141646Y-59259474D01*
X215189433Y-59250028D01*
X215250612Y-59236820D01*
X215320946Y-59220776D01*
X215396194Y-59202820D01*
X215424755Y-59195797D01*
X215529816Y-59170209D01*
X215617480Y-59150147D01*
X215692068Y-59134969D01*
X215757903Y-59124035D01*
X215819307Y-59116704D01*
X215880602Y-59112335D01*
X215946110Y-59110287D01*
X216004128Y-59109889D01*
X216173574Y-59116552D01*
G36*
X219686507Y-59722245D02*
X219686526Y-59956662D01*
X219686552Y-60169603D01*
X219686625Y-60362168D01*
X219686782Y-60535459D01*
X219687064Y-60690576D01*
X219687509Y-60828620D01*
X219688156Y-60950692D01*
X219689045Y-61057894D01*
X219690213Y-61151326D01*
X219691701Y-61232090D01*
X219693546Y-61301286D01*
X219695789Y-61360015D01*
X219698469Y-61409379D01*
X219701623Y-61450478D01*
X219705292Y-61484413D01*
X219709513Y-61512286D01*
X219714327Y-61535198D01*
X219719773Y-61554249D01*
X219725888Y-61570540D01*
X219732712Y-61585173D01*
X219740285Y-61599249D01*
X219748645Y-61613868D01*
X219753839Y-61622974D01*
X219788104Y-61683689D01*
X218929955Y-61683689D01*
X218929955Y-61587733D01*
X218929224Y-61544370D01*
X218927272Y-61511205D01*
X218924463Y-61493424D01*
X218923221Y-61491778D01*
X218911799Y-61498662D01*
X218889084Y-61516505D01*
X218866385Y-61535879D01*
X218811800Y-61576614D01*
X218742321Y-61617617D01*
X218665270Y-61655123D01*
X218587965Y-61685364D01*
X218557113Y-61695012D01*
X218488616Y-61709578D01*
X218405764Y-61719539D01*
X218316371Y-61724583D01*
X218228248Y-61724396D01*
X218149207Y-61718666D01*
X218111511Y-61712858D01*
X217973414Y-61674797D01*
X217846113Y-61617073D01*
X217730292Y-61540211D01*
X217626637Y-61444739D01*
X217535833Y-61331179D01*
X217469031Y-61220381D01*
X217414164Y-61103625D01*
X217372163Y-60984276D01*
X217342167Y-60858283D01*
X217323311Y-60721594D01*
X217314732Y-60570158D01*
X217314006Y-60492711D01*
X217316100Y-60435934D01*
X218145217Y-60435934D01*
X218145424Y-60529002D01*
X218148337Y-60616692D01*
X218154000Y-60693772D01*
X218162455Y-60755009D01*
X218165038Y-60767350D01*
X218196840Y-60874633D01*
X218238498Y-60961658D01*
X218290363Y-61028642D01*
X218352781Y-61075805D01*
X218426100Y-61103365D01*
X218510669Y-61111541D01*
X218606835Y-61100551D01*
X218670311Y-61084829D01*
X218719454Y-61066639D01*
X218773583Y-61040791D01*
X218814244Y-61017089D01*
X218884800Y-60970721D01*
X218884800Y-59820530D01*
X218817392Y-59776962D01*
X218738867Y-59736040D01*
X218654681Y-59709389D01*
X218569557Y-59697465D01*
X218488216Y-59700722D01*
X218415380Y-59719615D01*
X218383426Y-59735184D01*
X218325501Y-59778181D01*
X218276544Y-59834953D01*
X218235390Y-59907575D01*
X218200874Y-59998121D01*
X218171833Y-60108666D01*
X218170552Y-60114533D01*
X218160381Y-60176788D01*
X218152739Y-60254594D01*
X218147670Y-60342720D01*
X218145217Y-60435934D01*
X217316100Y-60435934D01*
X217321857Y-60279895D01*
X217343802Y-60084059D01*
X217379786Y-59905332D01*
X217429759Y-59743845D01*
X217493668Y-59599726D01*
X217571462Y-59473106D01*
X217663089Y-59364115D01*
X217768497Y-59272883D01*
X217813662Y-59241932D01*
X217914611Y-59185785D01*
X218017901Y-59146174D01*
X218127989Y-59122014D01*
X218249330Y-59112219D01*
X218341836Y-59113265D01*
X218471490Y-59124231D01*
X218584084Y-59146046D01*
X218682875Y-59179714D01*
X218771121Y-59226236D01*
X218819986Y-59260448D01*
X218849353Y-59282362D01*
X218871043Y-59297333D01*
X218879253Y-59301733D01*
X218880868Y-59290904D01*
X218882159Y-59260251D01*
X218883138Y-59212526D01*
X218883817Y-59150479D01*
X218884210Y-59076862D01*
X218884330Y-58994427D01*
X218884188Y-58905925D01*
X218883797Y-58814107D01*
X218883171Y-58721724D01*
X218882320Y-58631528D01*
X218881260Y-58546271D01*
X218880001Y-58468703D01*
X218878556Y-58401576D01*
X218876938Y-58347641D01*
X218875161Y-58309650D01*
X218874669Y-58302667D01*
X218867092Y-58232251D01*
X218855531Y-58177102D01*
X218837792Y-58129981D01*
X218811682Y-58083647D01*
X218805415Y-58074067D01*
X218780983Y-58037378D01*
X219686311Y-58037378D01*
X219686507Y-59722245D01*
X219686507Y-59722245D01*
G37*
X219686507Y-59722245D02*
X219686526Y-59956662D01*
X219686552Y-60169603D01*
X219686625Y-60362168D01*
X219686782Y-60535459D01*
X219687064Y-60690576D01*
X219687509Y-60828620D01*
X219688156Y-60950692D01*
X219689045Y-61057894D01*
X219690213Y-61151326D01*
X219691701Y-61232090D01*
X219693546Y-61301286D01*
X219695789Y-61360015D01*
X219698469Y-61409379D01*
X219701623Y-61450478D01*
X219705292Y-61484413D01*
X219709513Y-61512286D01*
X219714327Y-61535198D01*
X219719773Y-61554249D01*
X219725888Y-61570540D01*
X219732712Y-61585173D01*
X219740285Y-61599249D01*
X219748645Y-61613868D01*
X219753839Y-61622974D01*
X219788104Y-61683689D01*
X218929955Y-61683689D01*
X218929955Y-61587733D01*
X218929224Y-61544370D01*
X218927272Y-61511205D01*
X218924463Y-61493424D01*
X218923221Y-61491778D01*
X218911799Y-61498662D01*
X218889084Y-61516505D01*
X218866385Y-61535879D01*
X218811800Y-61576614D01*
X218742321Y-61617617D01*
X218665270Y-61655123D01*
X218587965Y-61685364D01*
X218557113Y-61695012D01*
X218488616Y-61709578D01*
X218405764Y-61719539D01*
X218316371Y-61724583D01*
X218228248Y-61724396D01*
X218149207Y-61718666D01*
X218111511Y-61712858D01*
X217973414Y-61674797D01*
X217846113Y-61617073D01*
X217730292Y-61540211D01*
X217626637Y-61444739D01*
X217535833Y-61331179D01*
X217469031Y-61220381D01*
X217414164Y-61103625D01*
X217372163Y-60984276D01*
X217342167Y-60858283D01*
X217323311Y-60721594D01*
X217314732Y-60570158D01*
X217314006Y-60492711D01*
X217316100Y-60435934D01*
X218145217Y-60435934D01*
X218145424Y-60529002D01*
X218148337Y-60616692D01*
X218154000Y-60693772D01*
X218162455Y-60755009D01*
X218165038Y-60767350D01*
X218196840Y-60874633D01*
X218238498Y-60961658D01*
X218290363Y-61028642D01*
X218352781Y-61075805D01*
X218426100Y-61103365D01*
X218510669Y-61111541D01*
X218606835Y-61100551D01*
X218670311Y-61084829D01*
X218719454Y-61066639D01*
X218773583Y-61040791D01*
X218814244Y-61017089D01*
X218884800Y-60970721D01*
X218884800Y-59820530D01*
X218817392Y-59776962D01*
X218738867Y-59736040D01*
X218654681Y-59709389D01*
X218569557Y-59697465D01*
X218488216Y-59700722D01*
X218415380Y-59719615D01*
X218383426Y-59735184D01*
X218325501Y-59778181D01*
X218276544Y-59834953D01*
X218235390Y-59907575D01*
X218200874Y-59998121D01*
X218171833Y-60108666D01*
X218170552Y-60114533D01*
X218160381Y-60176788D01*
X218152739Y-60254594D01*
X218147670Y-60342720D01*
X218145217Y-60435934D01*
X217316100Y-60435934D01*
X217321857Y-60279895D01*
X217343802Y-60084059D01*
X217379786Y-59905332D01*
X217429759Y-59743845D01*
X217493668Y-59599726D01*
X217571462Y-59473106D01*
X217663089Y-59364115D01*
X217768497Y-59272883D01*
X217813662Y-59241932D01*
X217914611Y-59185785D01*
X218017901Y-59146174D01*
X218127989Y-59122014D01*
X218249330Y-59112219D01*
X218341836Y-59113265D01*
X218471490Y-59124231D01*
X218584084Y-59146046D01*
X218682875Y-59179714D01*
X218771121Y-59226236D01*
X218819986Y-59260448D01*
X218849353Y-59282362D01*
X218871043Y-59297333D01*
X218879253Y-59301733D01*
X218880868Y-59290904D01*
X218882159Y-59260251D01*
X218883138Y-59212526D01*
X218883817Y-59150479D01*
X218884210Y-59076862D01*
X218884330Y-58994427D01*
X218884188Y-58905925D01*
X218883797Y-58814107D01*
X218883171Y-58721724D01*
X218882320Y-58631528D01*
X218881260Y-58546271D01*
X218880001Y-58468703D01*
X218878556Y-58401576D01*
X218876938Y-58347641D01*
X218875161Y-58309650D01*
X218874669Y-58302667D01*
X218867092Y-58232251D01*
X218855531Y-58177102D01*
X218837792Y-58129981D01*
X218811682Y-58083647D01*
X218805415Y-58074067D01*
X218780983Y-58037378D01*
X219686311Y-58037378D01*
X219686507Y-59722245D01*
G36*
X211226957Y-57276571D02*
X211323232Y-57300809D01*
X211409816Y-57343641D01*
X211484627Y-57403419D01*
X211545582Y-57478494D01*
X211590601Y-57567220D01*
X211616864Y-57663530D01*
X211622714Y-57760795D01*
X211607860Y-57854654D01*
X211574160Y-57942511D01*
X211523472Y-58021770D01*
X211457655Y-58089836D01*
X211378566Y-58144112D01*
X211288066Y-58182002D01*
X211236800Y-58194426D01*
X211192302Y-58201947D01*
X211158001Y-58204919D01*
X211125040Y-58203094D01*
X211084566Y-58196225D01*
X211051469Y-58189250D01*
X210958053Y-58157741D01*
X210874381Y-58106617D01*
X210802335Y-58037429D01*
X210743800Y-57951728D01*
X210729852Y-57924489D01*
X210713414Y-57888122D01*
X210703106Y-57857582D01*
X210697540Y-57825450D01*
X210695331Y-57784307D01*
X210695052Y-57738222D01*
X210699139Y-57653865D01*
X210712554Y-57584586D01*
X210737744Y-57523961D01*
X210777154Y-57465567D01*
X210815702Y-57421302D01*
X210887594Y-57355484D01*
X210962687Y-57310053D01*
X211045438Y-57282850D01*
X211123072Y-57272576D01*
X211226957Y-57276571D01*
X211226957Y-57276571D01*
G37*
X211226957Y-57276571D02*
X211323232Y-57300809D01*
X211409816Y-57343641D01*
X211484627Y-57403419D01*
X211545582Y-57478494D01*
X211590601Y-57567220D01*
X211616864Y-57663530D01*
X211622714Y-57760795D01*
X211607860Y-57854654D01*
X211574160Y-57942511D01*
X211523472Y-58021770D01*
X211457655Y-58089836D01*
X211378566Y-58144112D01*
X211288066Y-58182002D01*
X211236800Y-58194426D01*
X211192302Y-58201947D01*
X211158001Y-58204919D01*
X211125040Y-58203094D01*
X211084566Y-58196225D01*
X211051469Y-58189250D01*
X210958053Y-58157741D01*
X210874381Y-58106617D01*
X210802335Y-58037429D01*
X210743800Y-57951728D01*
X210729852Y-57924489D01*
X210713414Y-57888122D01*
X210703106Y-57857582D01*
X210697540Y-57825450D01*
X210695331Y-57784307D01*
X210695052Y-57738222D01*
X210699139Y-57653865D01*
X210712554Y-57584586D01*
X210737744Y-57523961D01*
X210777154Y-57465567D01*
X210815702Y-57421302D01*
X210887594Y-57355484D01*
X210962687Y-57310053D01*
X211045438Y-57282850D01*
X211123072Y-57272576D01*
X211226957Y-57276571D01*
D12*
G36*
X189804378Y-59256418D02*
X189802238Y-59850076D01*
X189802000Y-60034945D01*
X189800032Y-60675217D01*
X189793365Y-61165453D01*
X189780856Y-61524914D01*
X189761361Y-61772861D01*
X189733735Y-61928554D01*
X189696835Y-62011252D01*
X189683831Y-62024670D01*
X189516596Y-62096142D01*
X189378667Y-62126474D01*
X189378667Y-61672748D01*
X189378667Y-60079371D01*
X189374611Y-59558909D01*
X189363250Y-59109332D01*
X189345795Y-58755665D01*
X189323453Y-58522937D01*
X189299275Y-58436926D01*
X189187827Y-58406092D01*
X188945552Y-58359619D01*
X188609493Y-58304095D01*
X188262108Y-58252485D01*
X187633640Y-58190536D01*
X186906051Y-58162245D01*
X186136137Y-58166497D01*
X185380692Y-58202179D01*
X184696514Y-58268176D01*
X184298667Y-58330237D01*
X183748333Y-58434859D01*
X183725366Y-60056143D01*
X183702399Y-61677426D01*
X184275699Y-61768198D01*
X184611613Y-61820928D01*
X184916424Y-61868002D01*
X185103000Y-61896091D01*
X185343169Y-61913739D01*
X185714525Y-61920161D01*
X186179383Y-61916617D01*
X186700057Y-61904364D01*
X187238862Y-61884660D01*
X187758112Y-61858761D01*
X188220122Y-61827926D01*
X188587206Y-61793412D01*
X188722500Y-61775306D01*
X189378667Y-61672748D01*
X189378667Y-62126474D01*
X189207275Y-62164166D01*
X188783113Y-62226037D01*
X188271356Y-62279051D01*
X187699249Y-62320504D01*
X187094039Y-62347692D01*
X186482969Y-62357910D01*
X186330667Y-62357483D01*
X185845669Y-62352260D01*
X185406889Y-62344201D01*
X185048154Y-62334183D01*
X184803292Y-62323080D01*
X184722000Y-62315816D01*
X184215428Y-62232236D01*
X183807639Y-62149708D01*
X183522462Y-62073632D01*
X183388500Y-62013674D01*
X183351465Y-61935849D01*
X183323306Y-61760790D01*
X183303198Y-61473075D01*
X183290317Y-61057284D01*
X183283837Y-60497996D01*
X183282667Y-60034945D01*
X183283618Y-59418599D01*
X183287577Y-58950164D01*
X183296200Y-58608224D01*
X183311144Y-58371362D01*
X183334066Y-58218160D01*
X183366622Y-58127203D01*
X183410468Y-58077073D01*
X183435312Y-58061597D01*
X183701200Y-57968179D01*
X184106761Y-57888175D01*
X184622773Y-57822830D01*
X185220015Y-57773389D01*
X185869264Y-57741099D01*
X186541298Y-57727204D01*
X187206896Y-57732950D01*
X187836834Y-57759582D01*
X188401891Y-57808346D01*
X188640193Y-57839783D01*
X189005658Y-57891423D01*
X189285762Y-57936352D01*
X189491766Y-57995847D01*
X189634929Y-58091182D01*
X189726512Y-58243632D01*
X189777775Y-58474471D01*
X189799977Y-58804975D01*
X189804378Y-59256418D01*
X189804378Y-59256418D01*
X189804378Y-59256418D01*
G37*
X189804378Y-59256418D02*
X189802238Y-59850076D01*
X189802000Y-60034945D01*
X189800032Y-60675217D01*
X189793365Y-61165453D01*
X189780856Y-61524914D01*
X189761361Y-61772861D01*
X189733735Y-61928554D01*
X189696835Y-62011252D01*
X189683831Y-62024670D01*
X189516596Y-62096142D01*
X189378667Y-62126474D01*
X189378667Y-61672748D01*
X189378667Y-60079371D01*
X189374611Y-59558909D01*
X189363250Y-59109332D01*
X189345795Y-58755665D01*
X189323453Y-58522937D01*
X189299275Y-58436926D01*
X189187827Y-58406092D01*
X188945552Y-58359619D01*
X188609493Y-58304095D01*
X188262108Y-58252485D01*
X187633640Y-58190536D01*
X186906051Y-58162245D01*
X186136137Y-58166497D01*
X185380692Y-58202179D01*
X184696514Y-58268176D01*
X184298667Y-58330237D01*
X183748333Y-58434859D01*
X183725366Y-60056143D01*
X183702399Y-61677426D01*
X184275699Y-61768198D01*
X184611613Y-61820928D01*
X184916424Y-61868002D01*
X185103000Y-61896091D01*
X185343169Y-61913739D01*
X185714525Y-61920161D01*
X186179383Y-61916617D01*
X186700057Y-61904364D01*
X187238862Y-61884660D01*
X187758112Y-61858761D01*
X188220122Y-61827926D01*
X188587206Y-61793412D01*
X188722500Y-61775306D01*
X189378667Y-61672748D01*
X189378667Y-62126474D01*
X189207275Y-62164166D01*
X188783113Y-62226037D01*
X188271356Y-62279051D01*
X187699249Y-62320504D01*
X187094039Y-62347692D01*
X186482969Y-62357910D01*
X186330667Y-62357483D01*
X185845669Y-62352260D01*
X185406889Y-62344201D01*
X185048154Y-62334183D01*
X184803292Y-62323080D01*
X184722000Y-62315816D01*
X184215428Y-62232236D01*
X183807639Y-62149708D01*
X183522462Y-62073632D01*
X183388500Y-62013674D01*
X183351465Y-61935849D01*
X183323306Y-61760790D01*
X183303198Y-61473075D01*
X183290317Y-61057284D01*
X183283837Y-60497996D01*
X183282667Y-60034945D01*
X183283618Y-59418599D01*
X183287577Y-58950164D01*
X183296200Y-58608224D01*
X183311144Y-58371362D01*
X183334066Y-58218160D01*
X183366622Y-58127203D01*
X183410468Y-58077073D01*
X183435312Y-58061597D01*
X183701200Y-57968179D01*
X184106761Y-57888175D01*
X184622773Y-57822830D01*
X185220015Y-57773389D01*
X185869264Y-57741099D01*
X186541298Y-57727204D01*
X187206896Y-57732950D01*
X187836834Y-57759582D01*
X188401891Y-57808346D01*
X188640193Y-57839783D01*
X189005658Y-57891423D01*
X189285762Y-57936352D01*
X189491766Y-57995847D01*
X189634929Y-58091182D01*
X189726512Y-58243632D01*
X189777775Y-58474471D01*
X189799977Y-58804975D01*
X189804378Y-59256418D01*
X189804378Y-59256418D01*
G36*
X186842670Y-60401396D02*
X186795189Y-60784950D01*
X186630447Y-61134481D01*
X186356161Y-61403811D01*
X186214903Y-61477168D01*
X186026567Y-61527105D01*
X185755715Y-61558878D01*
X185366911Y-61577742D01*
X185145333Y-61583393D01*
X184748939Y-61587691D01*
X184410647Y-61583729D01*
X184168870Y-61572450D01*
X184065833Y-61556953D01*
X183976971Y-61439885D01*
X183968884Y-61261760D01*
X184036694Y-61107596D01*
X184093925Y-61067391D01*
X184232727Y-61045378D01*
X184496799Y-61028077D01*
X184842093Y-61017813D01*
X185067591Y-61016000D01*
X185549135Y-61000429D01*
X185885671Y-60946481D01*
X186099272Y-60843299D01*
X186212013Y-60680028D01*
X186245967Y-60445811D01*
X186246000Y-60436455D01*
X186179502Y-60172492D01*
X185974858Y-59985644D01*
X185624342Y-59870320D01*
X185422924Y-59840904D01*
X185147361Y-59805063D01*
X185000693Y-59759056D01*
X184942873Y-59681255D01*
X184933667Y-59576666D01*
X184944631Y-59462268D01*
X185002964Y-59395955D01*
X185146824Y-59361166D01*
X185414369Y-59341341D01*
X185484000Y-59337817D01*
X185900280Y-59341844D01*
X186199980Y-59406245D01*
X186294279Y-59448786D01*
X186590942Y-59693094D01*
X186774163Y-60024037D01*
X186842670Y-60401396D01*
X186842670Y-60401396D01*
X186842670Y-60401396D01*
G37*
X186842670Y-60401396D02*
X186795189Y-60784950D01*
X186630447Y-61134481D01*
X186356161Y-61403811D01*
X186214903Y-61477168D01*
X186026567Y-61527105D01*
X185755715Y-61558878D01*
X185366911Y-61577742D01*
X185145333Y-61583393D01*
X184748939Y-61587691D01*
X184410647Y-61583729D01*
X184168870Y-61572450D01*
X184065833Y-61556953D01*
X183976971Y-61439885D01*
X183968884Y-61261760D01*
X184036694Y-61107596D01*
X184093925Y-61067391D01*
X184232727Y-61045378D01*
X184496799Y-61028077D01*
X184842093Y-61017813D01*
X185067591Y-61016000D01*
X185549135Y-61000429D01*
X185885671Y-60946481D01*
X186099272Y-60843299D01*
X186212013Y-60680028D01*
X186245967Y-60445811D01*
X186246000Y-60436455D01*
X186179502Y-60172492D01*
X185974858Y-59985644D01*
X185624342Y-59870320D01*
X185422924Y-59840904D01*
X185147361Y-59805063D01*
X185000693Y-59759056D01*
X184942873Y-59681255D01*
X184933667Y-59576666D01*
X184944631Y-59462268D01*
X185002964Y-59395955D01*
X185146824Y-59361166D01*
X185414369Y-59341341D01*
X185484000Y-59337817D01*
X185900280Y-59341844D01*
X186199980Y-59406245D01*
X186294279Y-59448786D01*
X186590942Y-59693094D01*
X186774163Y-60024037D01*
X186842670Y-60401396D01*
X186842670Y-60401396D01*
G36*
X189039068Y-60492399D02*
X189019138Y-61015157D01*
X188958339Y-61378069D01*
X188857294Y-61579846D01*
X188716624Y-61619203D01*
X188548933Y-61507066D01*
X188495682Y-61361488D01*
X188461686Y-61054882D01*
X188447676Y-60594537D01*
X188447333Y-60495050D01*
X188438764Y-60097735D01*
X188415630Y-59745407D01*
X188381790Y-59483877D01*
X188353241Y-59378124D01*
X188209675Y-59208654D01*
X187975328Y-59061565D01*
X187929908Y-59042284D01*
X187708838Y-58931786D01*
X187614007Y-58805972D01*
X187600667Y-58700685D01*
X187664639Y-58524243D01*
X187832569Y-58440667D01*
X188068475Y-58447481D01*
X188336374Y-58542205D01*
X188600284Y-58722361D01*
X188654278Y-58773255D01*
X188805560Y-58949985D01*
X188912216Y-59149797D01*
X188981517Y-59405186D01*
X189020737Y-59748649D01*
X189037149Y-60212682D01*
X189039068Y-60492399D01*
X189039068Y-60492399D01*
X189039068Y-60492399D01*
G37*
X189039068Y-60492399D02*
X189019138Y-61015157D01*
X188958339Y-61378069D01*
X188857294Y-61579846D01*
X188716624Y-61619203D01*
X188548933Y-61507066D01*
X188495682Y-61361488D01*
X188461686Y-61054882D01*
X188447676Y-60594537D01*
X188447333Y-60495050D01*
X188438764Y-60097735D01*
X188415630Y-59745407D01*
X188381790Y-59483877D01*
X188353241Y-59378124D01*
X188209675Y-59208654D01*
X187975328Y-59061565D01*
X187929908Y-59042284D01*
X187708838Y-58931786D01*
X187614007Y-58805972D01*
X187600667Y-58700685D01*
X187664639Y-58524243D01*
X187832569Y-58440667D01*
X188068475Y-58447481D01*
X188336374Y-58542205D01*
X188600284Y-58722361D01*
X188654278Y-58773255D01*
X188805560Y-58949985D01*
X188912216Y-59149797D01*
X188981517Y-59405186D01*
X189020737Y-59748649D01*
X189037149Y-60212682D01*
X189039068Y-60492399D01*
X189039068Y-60492399D01*
G36*
X187695199Y-60126520D02*
X187671174Y-60423519D01*
X187619217Y-60633327D01*
X187558333Y-60707951D01*
X187366305Y-60738023D01*
X187245857Y-60641621D01*
X187187111Y-60404874D01*
X187177333Y-60172909D01*
X187142254Y-59677412D01*
X187034985Y-59327937D01*
X186852479Y-59115931D01*
X186788135Y-59080336D01*
X186610694Y-59037401D01*
X186315586Y-59004319D01*
X185954408Y-58986058D01*
X185787767Y-58984000D01*
X185396142Y-58989548D01*
X185131346Y-59011080D01*
X184951098Y-59055927D01*
X184813114Y-59131422D01*
X184775751Y-59159478D01*
X184596754Y-59388739D01*
X184559202Y-59651950D01*
X184666386Y-59898950D01*
X184723312Y-59958854D01*
X184946206Y-60073454D01*
X185295642Y-60144508D01*
X185379479Y-60152644D01*
X185743848Y-60209077D01*
X185944648Y-60306606D01*
X185982808Y-60446155D01*
X185859257Y-60628647D01*
X185858952Y-60628952D01*
X185661853Y-60726949D01*
X185339223Y-60744715D01*
X184879121Y-60682860D01*
X184862751Y-60679719D01*
X184483002Y-60533080D01*
X184204556Y-60281501D01*
X184031496Y-59958686D01*
X183967901Y-59598335D01*
X184017854Y-59234151D01*
X184185435Y-58899837D01*
X184474726Y-58629094D01*
X184605528Y-58555569D01*
X184788860Y-58476187D01*
X184972289Y-58425824D01*
X185197337Y-58399875D01*
X185505528Y-58393734D01*
X185938384Y-58402796D01*
X185973491Y-58403852D01*
X186466486Y-58426266D01*
X186824435Y-58466823D01*
X187081523Y-58537716D01*
X187271932Y-58651137D01*
X187429845Y-58819277D01*
X187527625Y-58958171D01*
X187607505Y-59158154D01*
X187662582Y-59449259D01*
X187692074Y-59786907D01*
X187695199Y-60126520D01*
X187695199Y-60126520D01*
X187695199Y-60126520D01*
G37*
X187695199Y-60126520D02*
X187671174Y-60423519D01*
X187619217Y-60633327D01*
X187558333Y-60707951D01*
X187366305Y-60738023D01*
X187245857Y-60641621D01*
X187187111Y-60404874D01*
X187177333Y-60172909D01*
X187142254Y-59677412D01*
X187034985Y-59327937D01*
X186852479Y-59115931D01*
X186788135Y-59080336D01*
X186610694Y-59037401D01*
X186315586Y-59004319D01*
X185954408Y-58986058D01*
X185787767Y-58984000D01*
X185396142Y-58989548D01*
X185131346Y-59011080D01*
X184951098Y-59055927D01*
X184813114Y-59131422D01*
X184775751Y-59159478D01*
X184596754Y-59388739D01*
X184559202Y-59651950D01*
X184666386Y-59898950D01*
X184723312Y-59958854D01*
X184946206Y-60073454D01*
X185295642Y-60144508D01*
X185379479Y-60152644D01*
X185743848Y-60209077D01*
X185944648Y-60306606D01*
X185982808Y-60446155D01*
X185859257Y-60628647D01*
X185858952Y-60628952D01*
X185661853Y-60726949D01*
X185339223Y-60744715D01*
X184879121Y-60682860D01*
X184862751Y-60679719D01*
X184483002Y-60533080D01*
X184204556Y-60281501D01*
X184031496Y-59958686D01*
X183967901Y-59598335D01*
X184017854Y-59234151D01*
X184185435Y-58899837D01*
X184474726Y-58629094D01*
X184605528Y-58555569D01*
X184788860Y-58476187D01*
X184972289Y-58425824D01*
X185197337Y-58399875D01*
X185505528Y-58393734D01*
X185938384Y-58402796D01*
X185973491Y-58403852D01*
X186466486Y-58426266D01*
X186824435Y-58466823D01*
X187081523Y-58537716D01*
X187271932Y-58651137D01*
X187429845Y-58819277D01*
X187527625Y-58958171D01*
X187607505Y-59158154D01*
X187662582Y-59449259D01*
X187692074Y-59786907D01*
X187695199Y-60126520D01*
X187695199Y-60126520D01*
D15*
X162612381Y-53888095D02*
X161612381Y-53888095D01*
X161612381Y-53507142D01*
X161660000Y-53411904D01*
X161707619Y-53364285D01*
X161802857Y-53316666D01*
X161945714Y-53316666D01*
X162040952Y-53364285D01*
X162088571Y-53411904D01*
X162136190Y-53507142D01*
X162136190Y-53888095D01*
X162612381Y-52364285D02*
X162612381Y-52935714D01*
X162612381Y-52650000D02*
X161612381Y-52650000D01*
X161755238Y-52745238D01*
X161850476Y-52840476D01*
X161898095Y-52935714D01*
M02*
