G04 #@! TF.FileFunction,Soldermask,Top*
%FSLAX46Y46*%
G04 Gerber Fmt 4.6, Leading zero omitted, Abs format (unit mm)*
G04 Created by KiCad (PCBNEW 4.0.2-4+6225~38~ubuntu14.04.1-stable) date Fri 27 Jan 2017 04:50:42 PM CET*
%MOMM*%
G01*
G04 APERTURE LIST*
%ADD10C,0.100000*%
%ADD11R,1.220000X0.910000*%
%ADD12R,0.900000X0.800000*%
%ADD13R,0.700000X1.300000*%
%ADD14R,1.300000X0.700000*%
%ADD15C,3.200000*%
%ADD16R,3.000000X2.000000*%
%ADD17R,1.700000X1.700000*%
%ADD18O,1.700000X1.700000*%
%ADD19C,2.032000*%
G04 APERTURE END LIST*
D10*
D11*
X88011000Y-68818000D03*
X88011000Y-65548000D03*
X84201000Y-82915000D03*
X84201000Y-79645000D03*
X92202000Y-96250000D03*
X92202000Y-92980000D03*
D12*
X94980000Y-74102000D03*
X94980000Y-72202000D03*
X92980000Y-73152000D03*
X94980000Y-81341000D03*
X94980000Y-79441000D03*
X92980000Y-80391000D03*
X94980000Y-88580000D03*
X94980000Y-86680000D03*
X92980000Y-87630000D03*
D13*
X97729000Y-74168000D03*
X99629000Y-74168000D03*
X97729000Y-81280000D03*
X99629000Y-81280000D03*
X97729000Y-88392000D03*
X99629000Y-88392000D03*
X88712000Y-73152000D03*
X90612000Y-73152000D03*
X88712000Y-80391000D03*
X90612000Y-80391000D03*
D14*
X90678000Y-89596000D03*
X90678000Y-87696000D03*
D15*
X53086000Y-59780000D03*
X53086000Y-102780000D03*
D16*
X41275000Y-93472000D03*
X41275000Y-98472000D03*
X46275000Y-98472000D03*
X46275000Y-93472000D03*
X41275000Y-64262000D03*
X41275000Y-69262000D03*
X41275000Y-74262000D03*
X41275000Y-79262000D03*
X41275000Y-84262000D03*
X41275000Y-89262000D03*
X46275000Y-89262000D03*
X46275000Y-84262000D03*
X46275000Y-79262000D03*
X46275000Y-74262000D03*
X46275000Y-69262000D03*
X46275000Y-64262000D03*
D17*
X96520000Y-63500000D03*
D18*
X99060000Y-63500000D03*
X101600000Y-63500000D03*
X104140000Y-63500000D03*
X106680000Y-63500000D03*
X109220000Y-63500000D03*
X111760000Y-63500000D03*
X114300000Y-63500000D03*
D19*
X82285000Y-63383000D03*
X82285000Y-70983000D03*
X62285000Y-70983000D03*
X58785000Y-63383000D03*
X78475000Y-77480000D03*
X78475000Y-85080000D03*
X58475000Y-85080000D03*
X54975000Y-77480000D03*
X86730000Y-91577000D03*
X86730000Y-99177000D03*
X66730000Y-99177000D03*
X63230000Y-91577000D03*
X53340000Y-94869000D03*
X58420000Y-94879160D03*
M02*
