M48
;DRILL file {KiCad 4.0.2-4+6225~38~ubuntu14.04.1-stable} date Fri 27 Jan 2017 04:50:44 PM CET
;FORMAT={-:-/ absolute / inch / decimal}
FMAT,2
INCH,TZ
T1C0.039
T2C0.040
T3C0.047
T4C0.126
%
G90
G05
M72
T1
X3.8Y-2.5
X3.9Y-2.5
X4.Y-2.5
X4.1Y-2.5
X4.2Y-2.5
X4.3Y-2.5
X4.4Y-2.5
X4.5Y-2.5
T2
X2.1Y-3.735
X2.1644Y-3.0504
X2.3Y-3.7354
X2.3022Y-3.3496
X2.3144Y-2.4954
X2.4522Y-2.7946
X2.4894Y-3.6054
X2.6272Y-3.9046
X3.0896Y-3.0504
X3.0896Y-3.3496
X3.2396Y-2.4954
X3.2396Y-2.7946
X3.4146Y-3.6054
X3.4146Y-3.9046
T3
X1.625Y-2.53
X1.625Y-2.7269
X1.625Y-2.9237
X1.625Y-3.1206
X1.625Y-3.3174
X1.625Y-3.5143
X1.625Y-3.68
X1.625Y-3.8769
X1.8219Y-2.53
X1.8219Y-2.7269
X1.8219Y-2.9237
X1.8219Y-3.1206
X1.8219Y-3.3174
X1.8219Y-3.5143
X1.8219Y-3.68
X1.8219Y-3.8769
T4
X2.09Y-2.3535
X2.09Y-4.0465
T0
M30
