G04 #@! TF.FileFunction,Copper,L2,Bot,Signal*
%FSLAX46Y46*%
G04 Gerber Fmt 4.6, Leading zero omitted, Abs format (unit mm)*
G04 Created by KiCad (PCBNEW 4.0.2-4+6225~38~ubuntu14.04.1-stable) date Fri 27 Jan 2017 04:50:42 PM CET*
%MOMM*%
G01*
G04 APERTURE LIST*
%ADD10C,0.100000*%
%ADD11R,3.000000X2.000000*%
%ADD12R,1.700000X1.700000*%
%ADD13O,1.700000X1.700000*%
%ADD14C,2.032000*%
%ADD15C,1.219200*%
%ADD16C,0.254000*%
G04 APERTURE END LIST*
D10*
D11*
X41275000Y-93472000D03*
X41275000Y-98472000D03*
X46275000Y-98472000D03*
X46275000Y-93472000D03*
X41275000Y-64262000D03*
X41275000Y-69262000D03*
X41275000Y-74262000D03*
X41275000Y-79262000D03*
X41275000Y-84262000D03*
X41275000Y-89262000D03*
X46275000Y-89262000D03*
X46275000Y-84262000D03*
X46275000Y-79262000D03*
X46275000Y-74262000D03*
X46275000Y-69262000D03*
X46275000Y-64262000D03*
D12*
X96520000Y-63500000D03*
D13*
X99060000Y-63500000D03*
X101600000Y-63500000D03*
X104140000Y-63500000D03*
X106680000Y-63500000D03*
X109220000Y-63500000D03*
X111760000Y-63500000D03*
X114300000Y-63500000D03*
D14*
X82285000Y-63383000D03*
X82285000Y-70983000D03*
X62285000Y-70983000D03*
X58785000Y-63383000D03*
X78475000Y-77480000D03*
X78475000Y-85080000D03*
X58475000Y-85080000D03*
X54975000Y-77480000D03*
X86730000Y-91577000D03*
X86730000Y-99177000D03*
X66730000Y-99177000D03*
X63230000Y-91577000D03*
X53340000Y-94869000D03*
X58420000Y-94879160D03*
D15*
X46275000Y-93472000D02*
X51943000Y-93472000D01*
X51943000Y-93472000D02*
X53340000Y-94869000D01*
X41275000Y-93472000D02*
X46275000Y-93472000D01*
X46275000Y-64262000D02*
X46300400Y-64236600D01*
X46300400Y-64236600D02*
X50520600Y-64236600D01*
X57042400Y-65125600D02*
X58785000Y-63383000D01*
X51409600Y-65125600D02*
X57042400Y-65125600D01*
X50520600Y-64236600D02*
X51409600Y-65125600D01*
X41275000Y-64262000D02*
X46275000Y-64262000D01*
X46275000Y-74262000D02*
X51757000Y-74262000D01*
X51757000Y-74262000D02*
X54975000Y-77480000D01*
X41275000Y-74262000D02*
X46275000Y-74262000D01*
X46275000Y-84262000D02*
X50988000Y-84262000D01*
X61442000Y-89789000D02*
X63230000Y-91577000D01*
X56515000Y-89789000D02*
X61442000Y-89789000D01*
X50988000Y-84262000D02*
X56515000Y-89789000D01*
X41275000Y-84262000D02*
X46275000Y-84262000D01*
X58475000Y-85080000D02*
X66177000Y-85080000D01*
X66030000Y-70983000D02*
X62285000Y-70983000D01*
X69850000Y-74803000D02*
X66030000Y-70983000D01*
X69850000Y-81407000D02*
X69850000Y-74803000D01*
X66177000Y-85080000D02*
X69850000Y-81407000D01*
X66730000Y-99177000D02*
X69723000Y-96184000D01*
X67300000Y-85080000D02*
X58475000Y-85080000D01*
X69723000Y-87503000D02*
X67300000Y-85080000D01*
X69723000Y-96184000D02*
X69723000Y-87503000D01*
X58420000Y-94879160D02*
X62717840Y-99177000D01*
X62717840Y-99177000D02*
X66730000Y-99177000D01*
X62285000Y-70983000D02*
X62347000Y-70983000D01*
D16*
G36*
X115622000Y-62827850D02*
X115350054Y-62420853D01*
X114868285Y-62098946D01*
X114300000Y-61985907D01*
X113731715Y-62098946D01*
X113249946Y-62420853D01*
X113030000Y-62750026D01*
X112810054Y-62420853D01*
X112328285Y-62098946D01*
X111760000Y-61985907D01*
X111191715Y-62098946D01*
X110709946Y-62420853D01*
X110490000Y-62750026D01*
X110270054Y-62420853D01*
X109788285Y-62098946D01*
X109220000Y-61985907D01*
X108651715Y-62098946D01*
X108169946Y-62420853D01*
X107950000Y-62750026D01*
X107730054Y-62420853D01*
X107248285Y-62098946D01*
X106680000Y-61985907D01*
X106111715Y-62098946D01*
X105629946Y-62420853D01*
X105410000Y-62750026D01*
X105190054Y-62420853D01*
X104708285Y-62098946D01*
X104140000Y-61985907D01*
X103571715Y-62098946D01*
X103089946Y-62420853D01*
X102870000Y-62750026D01*
X102650054Y-62420853D01*
X102168285Y-62098946D01*
X101600000Y-61985907D01*
X101031715Y-62098946D01*
X100549946Y-62420853D01*
X100330000Y-62750026D01*
X100110054Y-62420853D01*
X99628285Y-62098946D01*
X99060000Y-61985907D01*
X98491715Y-62098946D01*
X98009946Y-62420853D01*
X97980597Y-62464777D01*
X97908327Y-62290302D01*
X97729699Y-62111673D01*
X97496310Y-62015000D01*
X96805750Y-62015000D01*
X96647000Y-62173750D01*
X96647000Y-63373000D01*
X96667000Y-63373000D01*
X96667000Y-63627000D01*
X96647000Y-63627000D01*
X96647000Y-64826250D01*
X96805750Y-64985000D01*
X97496310Y-64985000D01*
X97729699Y-64888327D01*
X97908327Y-64709698D01*
X97980597Y-64535223D01*
X98009946Y-64579147D01*
X98491715Y-64901054D01*
X99060000Y-65014093D01*
X99628285Y-64901054D01*
X100110054Y-64579147D01*
X100330000Y-64249974D01*
X100549946Y-64579147D01*
X101031715Y-64901054D01*
X101600000Y-65014093D01*
X102168285Y-64901054D01*
X102650054Y-64579147D01*
X102870000Y-64249974D01*
X103089946Y-64579147D01*
X103571715Y-64901054D01*
X104140000Y-65014093D01*
X104708285Y-64901054D01*
X105190054Y-64579147D01*
X105410000Y-64249974D01*
X105629946Y-64579147D01*
X106111715Y-64901054D01*
X106680000Y-65014093D01*
X107248285Y-64901054D01*
X107730054Y-64579147D01*
X107950000Y-64249974D01*
X108169946Y-64579147D01*
X108651715Y-64901054D01*
X109220000Y-65014093D01*
X109788285Y-64901054D01*
X110270054Y-64579147D01*
X110490000Y-64249974D01*
X110709946Y-64579147D01*
X111191715Y-64901054D01*
X111760000Y-65014093D01*
X112328285Y-64901054D01*
X112810054Y-64579147D01*
X113030000Y-64249974D01*
X113249946Y-64579147D01*
X113731715Y-64901054D01*
X114300000Y-65014093D01*
X114868285Y-64901054D01*
X115350054Y-64579147D01*
X115622000Y-64172150D01*
X115622000Y-102489000D01*
X83235800Y-102489000D01*
X83235800Y-100157213D01*
X85929392Y-100157213D01*
X85998857Y-100399397D01*
X86522302Y-100586144D01*
X87077368Y-100558362D01*
X87461143Y-100399397D01*
X87530608Y-100157213D01*
X86730000Y-99356605D01*
X85929392Y-100157213D01*
X83235800Y-100157213D01*
X83235800Y-98969302D01*
X85320856Y-98969302D01*
X85348638Y-99524368D01*
X85507603Y-99908143D01*
X85749787Y-99977608D01*
X86550395Y-99177000D01*
X86909605Y-99177000D01*
X87710213Y-99977608D01*
X87952397Y-99908143D01*
X88139144Y-99384698D01*
X88111362Y-98829632D01*
X87952397Y-98445857D01*
X87710213Y-98376392D01*
X86909605Y-99177000D01*
X86550395Y-99177000D01*
X85749787Y-98376392D01*
X85507603Y-98445857D01*
X85320856Y-98969302D01*
X83235800Y-98969302D01*
X83235800Y-98196787D01*
X85929392Y-98196787D01*
X86730000Y-98997395D01*
X87530608Y-98196787D01*
X87461143Y-97954603D01*
X86937698Y-97767856D01*
X86382632Y-97795638D01*
X85998857Y-97954603D01*
X85929392Y-98196787D01*
X83235800Y-98196787D01*
X83235800Y-91853661D01*
X85332758Y-91853661D01*
X85544990Y-92367303D01*
X85937630Y-92760629D01*
X86450900Y-92973757D01*
X87006661Y-92974242D01*
X87520303Y-92762010D01*
X87913629Y-92369370D01*
X88126757Y-91856100D01*
X88127242Y-91300339D01*
X87915010Y-90786697D01*
X87522370Y-90393371D01*
X87009100Y-90180243D01*
X86453339Y-90179758D01*
X85939697Y-90391990D01*
X85546371Y-90784630D01*
X85333243Y-91297900D01*
X85332758Y-91853661D01*
X83235800Y-91853661D01*
X83235800Y-89204800D01*
X83225794Y-89155390D01*
X83197353Y-89113765D01*
X83154959Y-89086485D01*
X83108800Y-89077800D01*
X76327000Y-89077800D01*
X76327000Y-86060213D01*
X77674392Y-86060213D01*
X77743857Y-86302397D01*
X78267302Y-86489144D01*
X78822368Y-86461362D01*
X79206143Y-86302397D01*
X79275608Y-86060213D01*
X78475000Y-85259605D01*
X77674392Y-86060213D01*
X76327000Y-86060213D01*
X76327000Y-84872302D01*
X77065856Y-84872302D01*
X77093638Y-85427368D01*
X77252603Y-85811143D01*
X77494787Y-85880608D01*
X78295395Y-85080000D01*
X78654605Y-85080000D01*
X79455213Y-85880608D01*
X79697397Y-85811143D01*
X79884144Y-85287698D01*
X79856362Y-84732632D01*
X79697397Y-84348857D01*
X79455213Y-84279392D01*
X78654605Y-85080000D01*
X78295395Y-85080000D01*
X77494787Y-84279392D01*
X77252603Y-84348857D01*
X77065856Y-84872302D01*
X76327000Y-84872302D01*
X76327000Y-84099787D01*
X77674392Y-84099787D01*
X78475000Y-84900395D01*
X79275608Y-84099787D01*
X79206143Y-83857603D01*
X78682698Y-83670856D01*
X78127632Y-83698638D01*
X77743857Y-83857603D01*
X77674392Y-84099787D01*
X76327000Y-84099787D01*
X76327000Y-77756661D01*
X77077758Y-77756661D01*
X77289990Y-78270303D01*
X77682630Y-78663629D01*
X78195900Y-78876757D01*
X78751661Y-78877242D01*
X79265303Y-78665010D01*
X79658629Y-78272370D01*
X79871757Y-77759100D01*
X79872242Y-77203339D01*
X79660010Y-76689697D01*
X79267370Y-76296371D01*
X78754100Y-76083243D01*
X78198339Y-76082758D01*
X77684697Y-76294990D01*
X77291371Y-76687630D01*
X77078243Y-77200900D01*
X77077758Y-77756661D01*
X76327000Y-77756661D01*
X76327000Y-71963213D01*
X81484392Y-71963213D01*
X81553857Y-72205397D01*
X82077302Y-72392144D01*
X82632368Y-72364362D01*
X83016143Y-72205397D01*
X83085608Y-71963213D01*
X82285000Y-71162605D01*
X81484392Y-71963213D01*
X76327000Y-71963213D01*
X76327000Y-70775302D01*
X80875856Y-70775302D01*
X80903638Y-71330368D01*
X81062603Y-71714143D01*
X81304787Y-71783608D01*
X82105395Y-70983000D01*
X82464605Y-70983000D01*
X83265213Y-71783608D01*
X83507397Y-71714143D01*
X83694144Y-71190698D01*
X83666362Y-70635632D01*
X83507397Y-70251857D01*
X83265213Y-70182392D01*
X82464605Y-70983000D01*
X82105395Y-70983000D01*
X81304787Y-70182392D01*
X81062603Y-70251857D01*
X80875856Y-70775302D01*
X76327000Y-70775302D01*
X76327000Y-70002787D01*
X81484392Y-70002787D01*
X82285000Y-70803395D01*
X83085608Y-70002787D01*
X83016143Y-69760603D01*
X82492698Y-69573856D01*
X81937632Y-69601638D01*
X81553857Y-69760603D01*
X81484392Y-70002787D01*
X76327000Y-70002787D01*
X76327000Y-63659661D01*
X80887758Y-63659661D01*
X81099990Y-64173303D01*
X81492630Y-64566629D01*
X82005900Y-64779757D01*
X82561661Y-64780242D01*
X83075303Y-64568010D01*
X83468629Y-64175370D01*
X83630413Y-63785750D01*
X95035000Y-63785750D01*
X95035000Y-64476309D01*
X95131673Y-64709698D01*
X95310301Y-64888327D01*
X95543690Y-64985000D01*
X96234250Y-64985000D01*
X96393000Y-64826250D01*
X96393000Y-63627000D01*
X95193750Y-63627000D01*
X95035000Y-63785750D01*
X83630413Y-63785750D01*
X83681757Y-63662100D01*
X83682242Y-63106339D01*
X83470010Y-62592697D01*
X83401125Y-62523691D01*
X95035000Y-62523691D01*
X95035000Y-63214250D01*
X95193750Y-63373000D01*
X96393000Y-63373000D01*
X96393000Y-62173750D01*
X96234250Y-62015000D01*
X95543690Y-62015000D01*
X95310301Y-62111673D01*
X95131673Y-62290302D01*
X95035000Y-62523691D01*
X83401125Y-62523691D01*
X83077370Y-62199371D01*
X82564100Y-61986243D01*
X82008339Y-61985758D01*
X81494697Y-62197990D01*
X81101371Y-62590630D01*
X80888243Y-63103900D01*
X80887758Y-63659661D01*
X76327000Y-63659661D01*
X76327000Y-59817000D01*
X115622000Y-59817000D01*
X115622000Y-62827850D01*
X115622000Y-62827850D01*
G37*
X115622000Y-62827850D02*
X115350054Y-62420853D01*
X114868285Y-62098946D01*
X114300000Y-61985907D01*
X113731715Y-62098946D01*
X113249946Y-62420853D01*
X113030000Y-62750026D01*
X112810054Y-62420853D01*
X112328285Y-62098946D01*
X111760000Y-61985907D01*
X111191715Y-62098946D01*
X110709946Y-62420853D01*
X110490000Y-62750026D01*
X110270054Y-62420853D01*
X109788285Y-62098946D01*
X109220000Y-61985907D01*
X108651715Y-62098946D01*
X108169946Y-62420853D01*
X107950000Y-62750026D01*
X107730054Y-62420853D01*
X107248285Y-62098946D01*
X106680000Y-61985907D01*
X106111715Y-62098946D01*
X105629946Y-62420853D01*
X105410000Y-62750026D01*
X105190054Y-62420853D01*
X104708285Y-62098946D01*
X104140000Y-61985907D01*
X103571715Y-62098946D01*
X103089946Y-62420853D01*
X102870000Y-62750026D01*
X102650054Y-62420853D01*
X102168285Y-62098946D01*
X101600000Y-61985907D01*
X101031715Y-62098946D01*
X100549946Y-62420853D01*
X100330000Y-62750026D01*
X100110054Y-62420853D01*
X99628285Y-62098946D01*
X99060000Y-61985907D01*
X98491715Y-62098946D01*
X98009946Y-62420853D01*
X97980597Y-62464777D01*
X97908327Y-62290302D01*
X97729699Y-62111673D01*
X97496310Y-62015000D01*
X96805750Y-62015000D01*
X96647000Y-62173750D01*
X96647000Y-63373000D01*
X96667000Y-63373000D01*
X96667000Y-63627000D01*
X96647000Y-63627000D01*
X96647000Y-64826250D01*
X96805750Y-64985000D01*
X97496310Y-64985000D01*
X97729699Y-64888327D01*
X97908327Y-64709698D01*
X97980597Y-64535223D01*
X98009946Y-64579147D01*
X98491715Y-64901054D01*
X99060000Y-65014093D01*
X99628285Y-64901054D01*
X100110054Y-64579147D01*
X100330000Y-64249974D01*
X100549946Y-64579147D01*
X101031715Y-64901054D01*
X101600000Y-65014093D01*
X102168285Y-64901054D01*
X102650054Y-64579147D01*
X102870000Y-64249974D01*
X103089946Y-64579147D01*
X103571715Y-64901054D01*
X104140000Y-65014093D01*
X104708285Y-64901054D01*
X105190054Y-64579147D01*
X105410000Y-64249974D01*
X105629946Y-64579147D01*
X106111715Y-64901054D01*
X106680000Y-65014093D01*
X107248285Y-64901054D01*
X107730054Y-64579147D01*
X107950000Y-64249974D01*
X108169946Y-64579147D01*
X108651715Y-64901054D01*
X109220000Y-65014093D01*
X109788285Y-64901054D01*
X110270054Y-64579147D01*
X110490000Y-64249974D01*
X110709946Y-64579147D01*
X111191715Y-64901054D01*
X111760000Y-65014093D01*
X112328285Y-64901054D01*
X112810054Y-64579147D01*
X113030000Y-64249974D01*
X113249946Y-64579147D01*
X113731715Y-64901054D01*
X114300000Y-65014093D01*
X114868285Y-64901054D01*
X115350054Y-64579147D01*
X115622000Y-64172150D01*
X115622000Y-102489000D01*
X83235800Y-102489000D01*
X83235800Y-100157213D01*
X85929392Y-100157213D01*
X85998857Y-100399397D01*
X86522302Y-100586144D01*
X87077368Y-100558362D01*
X87461143Y-100399397D01*
X87530608Y-100157213D01*
X86730000Y-99356605D01*
X85929392Y-100157213D01*
X83235800Y-100157213D01*
X83235800Y-98969302D01*
X85320856Y-98969302D01*
X85348638Y-99524368D01*
X85507603Y-99908143D01*
X85749787Y-99977608D01*
X86550395Y-99177000D01*
X86909605Y-99177000D01*
X87710213Y-99977608D01*
X87952397Y-99908143D01*
X88139144Y-99384698D01*
X88111362Y-98829632D01*
X87952397Y-98445857D01*
X87710213Y-98376392D01*
X86909605Y-99177000D01*
X86550395Y-99177000D01*
X85749787Y-98376392D01*
X85507603Y-98445857D01*
X85320856Y-98969302D01*
X83235800Y-98969302D01*
X83235800Y-98196787D01*
X85929392Y-98196787D01*
X86730000Y-98997395D01*
X87530608Y-98196787D01*
X87461143Y-97954603D01*
X86937698Y-97767856D01*
X86382632Y-97795638D01*
X85998857Y-97954603D01*
X85929392Y-98196787D01*
X83235800Y-98196787D01*
X83235800Y-91853661D01*
X85332758Y-91853661D01*
X85544990Y-92367303D01*
X85937630Y-92760629D01*
X86450900Y-92973757D01*
X87006661Y-92974242D01*
X87520303Y-92762010D01*
X87913629Y-92369370D01*
X88126757Y-91856100D01*
X88127242Y-91300339D01*
X87915010Y-90786697D01*
X87522370Y-90393371D01*
X87009100Y-90180243D01*
X86453339Y-90179758D01*
X85939697Y-90391990D01*
X85546371Y-90784630D01*
X85333243Y-91297900D01*
X85332758Y-91853661D01*
X83235800Y-91853661D01*
X83235800Y-89204800D01*
X83225794Y-89155390D01*
X83197353Y-89113765D01*
X83154959Y-89086485D01*
X83108800Y-89077800D01*
X76327000Y-89077800D01*
X76327000Y-86060213D01*
X77674392Y-86060213D01*
X77743857Y-86302397D01*
X78267302Y-86489144D01*
X78822368Y-86461362D01*
X79206143Y-86302397D01*
X79275608Y-86060213D01*
X78475000Y-85259605D01*
X77674392Y-86060213D01*
X76327000Y-86060213D01*
X76327000Y-84872302D01*
X77065856Y-84872302D01*
X77093638Y-85427368D01*
X77252603Y-85811143D01*
X77494787Y-85880608D01*
X78295395Y-85080000D01*
X78654605Y-85080000D01*
X79455213Y-85880608D01*
X79697397Y-85811143D01*
X79884144Y-85287698D01*
X79856362Y-84732632D01*
X79697397Y-84348857D01*
X79455213Y-84279392D01*
X78654605Y-85080000D01*
X78295395Y-85080000D01*
X77494787Y-84279392D01*
X77252603Y-84348857D01*
X77065856Y-84872302D01*
X76327000Y-84872302D01*
X76327000Y-84099787D01*
X77674392Y-84099787D01*
X78475000Y-84900395D01*
X79275608Y-84099787D01*
X79206143Y-83857603D01*
X78682698Y-83670856D01*
X78127632Y-83698638D01*
X77743857Y-83857603D01*
X77674392Y-84099787D01*
X76327000Y-84099787D01*
X76327000Y-77756661D01*
X77077758Y-77756661D01*
X77289990Y-78270303D01*
X77682630Y-78663629D01*
X78195900Y-78876757D01*
X78751661Y-78877242D01*
X79265303Y-78665010D01*
X79658629Y-78272370D01*
X79871757Y-77759100D01*
X79872242Y-77203339D01*
X79660010Y-76689697D01*
X79267370Y-76296371D01*
X78754100Y-76083243D01*
X78198339Y-76082758D01*
X77684697Y-76294990D01*
X77291371Y-76687630D01*
X77078243Y-77200900D01*
X77077758Y-77756661D01*
X76327000Y-77756661D01*
X76327000Y-71963213D01*
X81484392Y-71963213D01*
X81553857Y-72205397D01*
X82077302Y-72392144D01*
X82632368Y-72364362D01*
X83016143Y-72205397D01*
X83085608Y-71963213D01*
X82285000Y-71162605D01*
X81484392Y-71963213D01*
X76327000Y-71963213D01*
X76327000Y-70775302D01*
X80875856Y-70775302D01*
X80903638Y-71330368D01*
X81062603Y-71714143D01*
X81304787Y-71783608D01*
X82105395Y-70983000D01*
X82464605Y-70983000D01*
X83265213Y-71783608D01*
X83507397Y-71714143D01*
X83694144Y-71190698D01*
X83666362Y-70635632D01*
X83507397Y-70251857D01*
X83265213Y-70182392D01*
X82464605Y-70983000D01*
X82105395Y-70983000D01*
X81304787Y-70182392D01*
X81062603Y-70251857D01*
X80875856Y-70775302D01*
X76327000Y-70775302D01*
X76327000Y-70002787D01*
X81484392Y-70002787D01*
X82285000Y-70803395D01*
X83085608Y-70002787D01*
X83016143Y-69760603D01*
X82492698Y-69573856D01*
X81937632Y-69601638D01*
X81553857Y-69760603D01*
X81484392Y-70002787D01*
X76327000Y-70002787D01*
X76327000Y-63659661D01*
X80887758Y-63659661D01*
X81099990Y-64173303D01*
X81492630Y-64566629D01*
X82005900Y-64779757D01*
X82561661Y-64780242D01*
X83075303Y-64568010D01*
X83468629Y-64175370D01*
X83630413Y-63785750D01*
X95035000Y-63785750D01*
X95035000Y-64476309D01*
X95131673Y-64709698D01*
X95310301Y-64888327D01*
X95543690Y-64985000D01*
X96234250Y-64985000D01*
X96393000Y-64826250D01*
X96393000Y-63627000D01*
X95193750Y-63627000D01*
X95035000Y-63785750D01*
X83630413Y-63785750D01*
X83681757Y-63662100D01*
X83682242Y-63106339D01*
X83470010Y-62592697D01*
X83401125Y-62523691D01*
X95035000Y-62523691D01*
X95035000Y-63214250D01*
X95193750Y-63373000D01*
X96393000Y-63373000D01*
X96393000Y-62173750D01*
X96234250Y-62015000D01*
X95543690Y-62015000D01*
X95310301Y-62111673D01*
X95131673Y-62290302D01*
X95035000Y-62523691D01*
X83401125Y-62523691D01*
X83077370Y-62199371D01*
X82564100Y-61986243D01*
X82008339Y-61985758D01*
X81494697Y-62197990D01*
X81101371Y-62590630D01*
X80888243Y-63103900D01*
X80887758Y-63659661D01*
X76327000Y-63659661D01*
X76327000Y-59817000D01*
X115622000Y-59817000D01*
X115622000Y-62827850D01*
M02*
