G04 #@! TF.FileFunction,Copper,L2,Inr,Plane*
%FSLAX46Y46*%
G04 Gerber Fmt 4.6, Leading zero omitted, Abs format (unit mm)*
G04 Created by KiCad (PCBNEW 4.0.2-4+6225~38~ubuntu14.04.1-stable) date Mon 26 Dec 2016 11:00:54 AM CET*
%MOMM*%
G01*
G04 APERTURE LIST*
%ADD10C,0.100000*%
%ADD11C,1.524000*%
%ADD12R,2.032000X2.032000*%
%ADD13O,2.032000X2.032000*%
%ADD14R,1.727200X1.727200*%
%ADD15O,1.727200X1.727200*%
%ADD16R,1.727200X2.032000*%
%ADD17O,1.727200X2.032000*%
%ADD18R,2.235200X2.235200*%
%ADD19R,2.032000X1.727200*%
%ADD20O,2.032000X1.727200*%
%ADD21O,2.540000X2.032000*%
%ADD22C,0.685800*%
%ADD23C,0.254000*%
G04 APERTURE END LIST*
D10*
D11*
X160263000Y-80274000D03*
X160263000Y-87874000D03*
X140263000Y-87874000D03*
X136763000Y-80274000D03*
X158866000Y-116342000D03*
X158866000Y-123942000D03*
X138866000Y-123942000D03*
X135366000Y-116342000D03*
D12*
X200025000Y-124206000D03*
D13*
X202565000Y-124206000D03*
D12*
X194310000Y-94615000D03*
D13*
X194310000Y-97155000D03*
D14*
X219710000Y-120650000D03*
D15*
X222250000Y-120650000D03*
X219710000Y-123190000D03*
X222250000Y-123190000D03*
X219710000Y-125730000D03*
X222250000Y-125730000D03*
D16*
X193421000Y-81407000D03*
D17*
X195961000Y-81407000D03*
X198501000Y-81407000D03*
X201041000Y-81407000D03*
X203581000Y-81407000D03*
D16*
X167640000Y-81280000D03*
D17*
X170180000Y-81280000D03*
X172720000Y-81280000D03*
X175260000Y-81280000D03*
X177800000Y-81280000D03*
D11*
X158866000Y-99324000D03*
X158866000Y-106924000D03*
X138866000Y-106924000D03*
X135366000Y-99324000D03*
D18*
X192786000Y-121031000D03*
D19*
X228600000Y-95250000D03*
D20*
X228600000Y-97790000D03*
X228600000Y-100330000D03*
X228600000Y-102870000D03*
X228600000Y-105410000D03*
X228600000Y-107950000D03*
X228600000Y-110490000D03*
X228600000Y-113030000D03*
X228600000Y-115570000D03*
D21*
X228600000Y-88900000D03*
X228600000Y-86360000D03*
X228600000Y-83820000D03*
X125095000Y-84455000D03*
X125095000Y-89455000D03*
X125095000Y-95250000D03*
X125095000Y-100250000D03*
X125095000Y-105250000D03*
X125095000Y-110250000D03*
X125095000Y-115250000D03*
X125095000Y-120250000D03*
D22*
X207010000Y-93218000D03*
X214884000Y-93980000D03*
X217170000Y-105918000D03*
X207010000Y-92075000D03*
X217170000Y-113665000D03*
X207137000Y-90805000D03*
X212725000Y-96393000D03*
X214376000Y-108585000D03*
X212852000Y-93345000D03*
X209423000Y-92075000D03*
X204089000Y-94615000D03*
X204089000Y-95885000D03*
X204089000Y-97155000D03*
X197485000Y-107315000D03*
X190881000Y-114427000D03*
X196342000Y-110490000D03*
X195834000Y-122555000D03*
X212598000Y-99441000D03*
X212471000Y-104267000D03*
X216535000Y-109728000D03*
X216662000Y-101219000D03*
X190881000Y-123698000D03*
X192786000Y-104267000D03*
X191008000Y-109855000D03*
X217932000Y-117602000D03*
X191135000Y-85979000D03*
X191135000Y-88392000D03*
X191008000Y-90932000D03*
X196850000Y-127254000D03*
X194056000Y-127254000D03*
D23*
G36*
X236145000Y-135180000D02*
X189940000Y-135180000D01*
X189940000Y-132522619D01*
X205790613Y-132522619D01*
X206130155Y-133344372D01*
X206758321Y-133973636D01*
X207579481Y-134314611D01*
X208468619Y-134315387D01*
X209290372Y-133975845D01*
X209919636Y-133347679D01*
X210260611Y-132526519D01*
X210261387Y-131637381D01*
X209921845Y-130815628D01*
X209293679Y-130186364D01*
X208472519Y-129845389D01*
X207583381Y-129844613D01*
X206761628Y-130184155D01*
X206132364Y-130812321D01*
X205791389Y-131633481D01*
X205790613Y-132522619D01*
X189940000Y-132522619D01*
X189940000Y-127447663D01*
X193077931Y-127447663D01*
X193226493Y-127807212D01*
X193501341Y-128082540D01*
X193860630Y-128231730D01*
X194249663Y-128232069D01*
X194609212Y-128083507D01*
X194884540Y-127808659D01*
X195033730Y-127449370D01*
X195033731Y-127447663D01*
X195871931Y-127447663D01*
X196020493Y-127807212D01*
X196295341Y-128082540D01*
X196654630Y-128231730D01*
X197043663Y-128232069D01*
X197403212Y-128083507D01*
X197678540Y-127808659D01*
X197827730Y-127449370D01*
X197828069Y-127060337D01*
X197679507Y-126700788D01*
X197404659Y-126425460D01*
X197045370Y-126276270D01*
X196656337Y-126275931D01*
X196296788Y-126424493D01*
X196021460Y-126699341D01*
X195872270Y-127058630D01*
X195871931Y-127447663D01*
X195033731Y-127447663D01*
X195034069Y-127060337D01*
X194885507Y-126700788D01*
X194610659Y-126425460D01*
X194251370Y-126276270D01*
X193862337Y-126275931D01*
X193502788Y-126424493D01*
X193227460Y-126699341D01*
X193078270Y-127058630D01*
X193077931Y-127447663D01*
X189940000Y-127447663D01*
X189940000Y-123190000D01*
X189885954Y-122918295D01*
X189732046Y-122687954D01*
X189501705Y-122534046D01*
X189357000Y-122505262D01*
X189357000Y-119913400D01*
X191020960Y-119913400D01*
X191020960Y-122148600D01*
X191065238Y-122383917D01*
X191204310Y-122600041D01*
X191416510Y-122745031D01*
X191668400Y-122796040D01*
X193903600Y-122796040D01*
X194138917Y-122751762D01*
X194143732Y-122748663D01*
X194855931Y-122748663D01*
X195004493Y-123108212D01*
X195279341Y-123383540D01*
X195638630Y-123532730D01*
X196027663Y-123533069D01*
X196387212Y-123384507D01*
X196582058Y-123190000D01*
X198361560Y-123190000D01*
X198361560Y-125222000D01*
X198405838Y-125457317D01*
X198544910Y-125673441D01*
X198757110Y-125818431D01*
X199009000Y-125869440D01*
X201041000Y-125869440D01*
X201276317Y-125825162D01*
X201492441Y-125686090D01*
X201594198Y-125537163D01*
X201933190Y-125763670D01*
X202565000Y-125889345D01*
X203196810Y-125763670D01*
X203732433Y-125405778D01*
X204090325Y-124870155D01*
X204216000Y-124238345D01*
X204216000Y-124173655D01*
X204090325Y-123541845D01*
X203855230Y-123190000D01*
X218182041Y-123190000D01*
X218296115Y-123763489D01*
X218620971Y-124249670D01*
X218935752Y-124460000D01*
X218620971Y-124670330D01*
X218296115Y-125156511D01*
X218182041Y-125730000D01*
X218296115Y-126303489D01*
X218620971Y-126789670D01*
X219107152Y-127114526D01*
X219680641Y-127228600D01*
X219739359Y-127228600D01*
X220312848Y-127114526D01*
X220799029Y-126789670D01*
X220980000Y-126518828D01*
X221160971Y-126789670D01*
X221647152Y-127114526D01*
X222220641Y-127228600D01*
X222279359Y-127228600D01*
X222852848Y-127114526D01*
X223339029Y-126789670D01*
X223663885Y-126303489D01*
X223777959Y-125730000D01*
X223663885Y-125156511D01*
X223339029Y-124670330D01*
X223024248Y-124460000D01*
X223339029Y-124249670D01*
X223663885Y-123763489D01*
X223777959Y-123190000D01*
X223663885Y-122616511D01*
X223339029Y-122130330D01*
X223015772Y-121914336D01*
X223138490Y-121856821D01*
X223532688Y-121424947D01*
X223704958Y-121009026D01*
X223583817Y-120777000D01*
X222377000Y-120777000D01*
X222377000Y-120797000D01*
X222123000Y-120797000D01*
X222123000Y-120777000D01*
X222103000Y-120777000D01*
X222103000Y-120523000D01*
X222123000Y-120523000D01*
X222123000Y-119315531D01*
X222377000Y-119315531D01*
X222377000Y-120523000D01*
X223583817Y-120523000D01*
X223704958Y-120290974D01*
X223532688Y-119875053D01*
X223138490Y-119443179D01*
X222609027Y-119195032D01*
X222377000Y-119315531D01*
X222123000Y-119315531D01*
X221890973Y-119195032D01*
X221361510Y-119443179D01*
X221191505Y-119629433D01*
X221176762Y-119551083D01*
X221037690Y-119334959D01*
X220825490Y-119189969D01*
X220573600Y-119138960D01*
X218846400Y-119138960D01*
X218611083Y-119183238D01*
X218394959Y-119322310D01*
X218249969Y-119534510D01*
X218198960Y-119786400D01*
X218198960Y-121513600D01*
X218243238Y-121748917D01*
X218382310Y-121965041D01*
X218594510Y-122110031D01*
X218638131Y-122118864D01*
X218620971Y-122130330D01*
X218296115Y-122616511D01*
X218182041Y-123190000D01*
X203855230Y-123190000D01*
X203732433Y-123006222D01*
X203196810Y-122648330D01*
X202565000Y-122522655D01*
X201933190Y-122648330D01*
X201593208Y-122875499D01*
X201505090Y-122738559D01*
X201292890Y-122593569D01*
X201041000Y-122542560D01*
X199009000Y-122542560D01*
X198773683Y-122586838D01*
X198557559Y-122725910D01*
X198412569Y-122938110D01*
X198361560Y-123190000D01*
X196582058Y-123190000D01*
X196662540Y-123109659D01*
X196811730Y-122750370D01*
X196812069Y-122361337D01*
X196663507Y-122001788D01*
X196388659Y-121726460D01*
X196029370Y-121577270D01*
X195640337Y-121576931D01*
X195280788Y-121725493D01*
X195005460Y-122000341D01*
X194856270Y-122359630D01*
X194855931Y-122748663D01*
X194143732Y-122748663D01*
X194355041Y-122612690D01*
X194500031Y-122400490D01*
X194551040Y-122148600D01*
X194551040Y-119913400D01*
X194506762Y-119678083D01*
X194367690Y-119461959D01*
X194155490Y-119316969D01*
X193903600Y-119265960D01*
X191668400Y-119265960D01*
X191433083Y-119310238D01*
X191216959Y-119449310D01*
X191071969Y-119661510D01*
X191020960Y-119913400D01*
X189357000Y-119913400D01*
X189357000Y-118794738D01*
X189501705Y-118765954D01*
X189732046Y-118612046D01*
X189885954Y-118381705D01*
X189940000Y-118110000D01*
X189940000Y-114710377D01*
X190051493Y-114980212D01*
X190326341Y-115255540D01*
X190685630Y-115404730D01*
X191074663Y-115405069D01*
X191434212Y-115256507D01*
X191709540Y-114981659D01*
X191858730Y-114622370D01*
X191859069Y-114233337D01*
X191710507Y-113873788D01*
X191695409Y-113858663D01*
X216191931Y-113858663D01*
X216340493Y-114218212D01*
X216615341Y-114493540D01*
X216974630Y-114642730D01*
X217363663Y-114643069D01*
X217723212Y-114494507D01*
X217998540Y-114219659D01*
X218147730Y-113860370D01*
X218148069Y-113471337D01*
X217999507Y-113111788D01*
X217724659Y-112836460D01*
X217365370Y-112687270D01*
X216976337Y-112686931D01*
X216616788Y-112835493D01*
X216341460Y-113110341D01*
X216192270Y-113469630D01*
X216191931Y-113858663D01*
X191695409Y-113858663D01*
X191435659Y-113598460D01*
X191076370Y-113449270D01*
X190687337Y-113448931D01*
X190327788Y-113597493D01*
X190052460Y-113872341D01*
X189940000Y-114143174D01*
X189940000Y-110683663D01*
X195363931Y-110683663D01*
X195512493Y-111043212D01*
X195787341Y-111318540D01*
X196146630Y-111467730D01*
X196535663Y-111468069D01*
X196895212Y-111319507D01*
X197170540Y-111044659D01*
X197319730Y-110685370D01*
X197320069Y-110296337D01*
X197171507Y-109936788D01*
X196896659Y-109661460D01*
X196537370Y-109512270D01*
X196148337Y-109511931D01*
X195788788Y-109660493D01*
X195513460Y-109935341D01*
X195364270Y-110294630D01*
X195363931Y-110683663D01*
X189940000Y-110683663D01*
X189940000Y-108778663D01*
X213397931Y-108778663D01*
X213546493Y-109138212D01*
X213821341Y-109413540D01*
X214180630Y-109562730D01*
X214569663Y-109563069D01*
X214929212Y-109414507D01*
X215204540Y-109139659D01*
X215353730Y-108780370D01*
X215354069Y-108391337D01*
X215205507Y-108031788D01*
X214930659Y-107756460D01*
X214571370Y-107607270D01*
X214182337Y-107606931D01*
X213822788Y-107755493D01*
X213547460Y-108030341D01*
X213398270Y-108389630D01*
X213397931Y-108778663D01*
X189940000Y-108778663D01*
X189940000Y-107508663D01*
X196506931Y-107508663D01*
X196655493Y-107868212D01*
X196930341Y-108143540D01*
X197289630Y-108292730D01*
X197678663Y-108293069D01*
X198038212Y-108144507D01*
X198313540Y-107869659D01*
X198462730Y-107510370D01*
X198463069Y-107121337D01*
X198314507Y-106761788D01*
X198039659Y-106486460D01*
X197680370Y-106337270D01*
X197291337Y-106336931D01*
X196931788Y-106485493D01*
X196656460Y-106760341D01*
X196507270Y-107119630D01*
X196506931Y-107508663D01*
X189940000Y-107508663D01*
X189940000Y-106111663D01*
X216191931Y-106111663D01*
X216340493Y-106471212D01*
X216615341Y-106746540D01*
X216974630Y-106895730D01*
X217363663Y-106896069D01*
X217723212Y-106747507D01*
X217998540Y-106472659D01*
X218147730Y-106113370D01*
X218148069Y-105724337D01*
X217999507Y-105364788D01*
X217724659Y-105089460D01*
X217365370Y-104940270D01*
X216976337Y-104939931D01*
X216616788Y-105088493D01*
X216341460Y-105363341D01*
X216192270Y-105722630D01*
X216191931Y-106111663D01*
X189940000Y-106111663D01*
X189940000Y-97155000D01*
X192626655Y-97155000D01*
X192752330Y-97786810D01*
X193110222Y-98322433D01*
X193645845Y-98680325D01*
X194277655Y-98806000D01*
X194342345Y-98806000D01*
X194974155Y-98680325D01*
X195509778Y-98322433D01*
X195867670Y-97786810D01*
X195993345Y-97155000D01*
X195867670Y-96523190D01*
X195640501Y-96183208D01*
X195777441Y-96095090D01*
X195922431Y-95882890D01*
X195973440Y-95631000D01*
X195973440Y-94808663D01*
X203110931Y-94808663D01*
X203259493Y-95168212D01*
X203341040Y-95249901D01*
X203260460Y-95330341D01*
X203111270Y-95689630D01*
X203110931Y-96078663D01*
X203259493Y-96438212D01*
X203341040Y-96519901D01*
X203260460Y-96600341D01*
X203111270Y-96959630D01*
X203110931Y-97348663D01*
X203259493Y-97708212D01*
X203534341Y-97983540D01*
X203893630Y-98132730D01*
X204282663Y-98133069D01*
X204642212Y-97984507D01*
X204837058Y-97790000D01*
X226916655Y-97790000D01*
X227030729Y-98363489D01*
X227355585Y-98849670D01*
X227670366Y-99060000D01*
X227355585Y-99270330D01*
X227030729Y-99756511D01*
X226916655Y-100330000D01*
X227030729Y-100903489D01*
X227355585Y-101389670D01*
X227670366Y-101600000D01*
X227355585Y-101810330D01*
X227030729Y-102296511D01*
X226916655Y-102870000D01*
X227030729Y-103443489D01*
X227355585Y-103929670D01*
X227670366Y-104140000D01*
X227355585Y-104350330D01*
X227030729Y-104836511D01*
X226916655Y-105410000D01*
X227030729Y-105983489D01*
X227355585Y-106469670D01*
X227670366Y-106680000D01*
X227355585Y-106890330D01*
X227030729Y-107376511D01*
X226916655Y-107950000D01*
X227030729Y-108523489D01*
X227355585Y-109009670D01*
X227670366Y-109220000D01*
X227355585Y-109430330D01*
X227030729Y-109916511D01*
X226916655Y-110490000D01*
X227030729Y-111063489D01*
X227355585Y-111549670D01*
X227670366Y-111760000D01*
X227355585Y-111970330D01*
X227030729Y-112456511D01*
X226916655Y-113030000D01*
X227030729Y-113603489D01*
X227355585Y-114089670D01*
X227670366Y-114300000D01*
X227355585Y-114510330D01*
X227030729Y-114996511D01*
X226916655Y-115570000D01*
X227030729Y-116143489D01*
X227355585Y-116629670D01*
X227841766Y-116954526D01*
X228415255Y-117068600D01*
X228784745Y-117068600D01*
X229358234Y-116954526D01*
X229844415Y-116629670D01*
X230169271Y-116143489D01*
X230283345Y-115570000D01*
X230169271Y-114996511D01*
X229844415Y-114510330D01*
X229529634Y-114300000D01*
X229844415Y-114089670D01*
X230169271Y-113603489D01*
X230283345Y-113030000D01*
X230169271Y-112456511D01*
X229844415Y-111970330D01*
X229529634Y-111760000D01*
X229844415Y-111549670D01*
X230169271Y-111063489D01*
X230283345Y-110490000D01*
X230169271Y-109916511D01*
X229844415Y-109430330D01*
X229529634Y-109220000D01*
X229844415Y-109009670D01*
X230169271Y-108523489D01*
X230283345Y-107950000D01*
X230169271Y-107376511D01*
X229844415Y-106890330D01*
X229529634Y-106680000D01*
X229844415Y-106469670D01*
X230169271Y-105983489D01*
X230283345Y-105410000D01*
X230169271Y-104836511D01*
X229844415Y-104350330D01*
X229529634Y-104140000D01*
X229844415Y-103929670D01*
X230169271Y-103443489D01*
X230283345Y-102870000D01*
X230169271Y-102296511D01*
X229844415Y-101810330D01*
X229529634Y-101600000D01*
X229844415Y-101389670D01*
X230169271Y-100903489D01*
X230283345Y-100330000D01*
X230169271Y-99756511D01*
X229844415Y-99270330D01*
X229529634Y-99060000D01*
X229844415Y-98849670D01*
X230169271Y-98363489D01*
X230283345Y-97790000D01*
X230169271Y-97216511D01*
X229844415Y-96730330D01*
X229830087Y-96720757D01*
X229851317Y-96716762D01*
X230067441Y-96577690D01*
X230212431Y-96365490D01*
X230263440Y-96113600D01*
X230263440Y-94386400D01*
X230219162Y-94151083D01*
X230080090Y-93934959D01*
X229867890Y-93789969D01*
X229616000Y-93738960D01*
X227584000Y-93738960D01*
X227348683Y-93783238D01*
X227132559Y-93922310D01*
X226987569Y-94134510D01*
X226936560Y-94386400D01*
X226936560Y-96113600D01*
X226980838Y-96348917D01*
X227119910Y-96565041D01*
X227332110Y-96710031D01*
X227373439Y-96718400D01*
X227355585Y-96730330D01*
X227030729Y-97216511D01*
X226916655Y-97790000D01*
X204837058Y-97790000D01*
X204917540Y-97709659D01*
X205066730Y-97350370D01*
X205067069Y-96961337D01*
X204918507Y-96601788D01*
X204903409Y-96586663D01*
X211746931Y-96586663D01*
X211895493Y-96946212D01*
X212170341Y-97221540D01*
X212529630Y-97370730D01*
X212918663Y-97371069D01*
X213278212Y-97222507D01*
X213553540Y-96947659D01*
X213702730Y-96588370D01*
X213703069Y-96199337D01*
X213554507Y-95839788D01*
X213279659Y-95564460D01*
X212920370Y-95415270D01*
X212531337Y-95414931D01*
X212171788Y-95563493D01*
X211896460Y-95838341D01*
X211747270Y-96197630D01*
X211746931Y-96586663D01*
X204903409Y-96586663D01*
X204836960Y-96520099D01*
X204917540Y-96439659D01*
X205066730Y-96080370D01*
X205067069Y-95691337D01*
X204918507Y-95331788D01*
X204836960Y-95250099D01*
X204917540Y-95169659D01*
X205066730Y-94810370D01*
X205067069Y-94421337D01*
X204918507Y-94061788D01*
X204643659Y-93786460D01*
X204284370Y-93637270D01*
X203895337Y-93636931D01*
X203535788Y-93785493D01*
X203260460Y-94060341D01*
X203111270Y-94419630D01*
X203110931Y-94808663D01*
X195973440Y-94808663D01*
X195973440Y-93599000D01*
X195929162Y-93363683D01*
X195790090Y-93147559D01*
X195577890Y-93002569D01*
X195326000Y-92951560D01*
X193294000Y-92951560D01*
X193058683Y-92995838D01*
X192842559Y-93134910D01*
X192697569Y-93347110D01*
X192646560Y-93599000D01*
X192646560Y-95631000D01*
X192690838Y-95866317D01*
X192829910Y-96082441D01*
X192978837Y-96184198D01*
X192752330Y-96523190D01*
X192626655Y-97155000D01*
X189940000Y-97155000D01*
X189940000Y-92268663D01*
X206031931Y-92268663D01*
X206180493Y-92628212D01*
X206198540Y-92646291D01*
X206181460Y-92663341D01*
X206032270Y-93022630D01*
X206031931Y-93411663D01*
X206180493Y-93771212D01*
X206455341Y-94046540D01*
X206814630Y-94195730D01*
X207203663Y-94196069D01*
X207563212Y-94047507D01*
X207838540Y-93772659D01*
X207935703Y-93538663D01*
X211873931Y-93538663D01*
X212022493Y-93898212D01*
X212297341Y-94173540D01*
X212656630Y-94322730D01*
X213045663Y-94323069D01*
X213405212Y-94174507D01*
X213406057Y-94173663D01*
X213905931Y-94173663D01*
X214054493Y-94533212D01*
X214329341Y-94808540D01*
X214688630Y-94957730D01*
X215077663Y-94958069D01*
X215437212Y-94809507D01*
X215712540Y-94534659D01*
X215861730Y-94175370D01*
X215862069Y-93786337D01*
X215713507Y-93426788D01*
X215438659Y-93151460D01*
X215079370Y-93002270D01*
X214690337Y-93001931D01*
X214330788Y-93150493D01*
X214055460Y-93425341D01*
X213906270Y-93784630D01*
X213905931Y-94173663D01*
X213406057Y-94173663D01*
X213680540Y-93899659D01*
X213829730Y-93540370D01*
X213830069Y-93151337D01*
X213681507Y-92791788D01*
X213406659Y-92516460D01*
X213047370Y-92367270D01*
X212658337Y-92366931D01*
X212298788Y-92515493D01*
X212023460Y-92790341D01*
X211874270Y-93149630D01*
X211873931Y-93538663D01*
X207935703Y-93538663D01*
X207987730Y-93413370D01*
X207988069Y-93024337D01*
X207839507Y-92664788D01*
X207821460Y-92646709D01*
X207838540Y-92629659D01*
X207987730Y-92270370D01*
X207987731Y-92268663D01*
X208444931Y-92268663D01*
X208593493Y-92628212D01*
X208868341Y-92903540D01*
X209227630Y-93052730D01*
X209616663Y-93053069D01*
X209976212Y-92904507D01*
X210251540Y-92629659D01*
X210400730Y-92270370D01*
X210401069Y-91881337D01*
X210252507Y-91521788D01*
X209977659Y-91246460D01*
X209618370Y-91097270D01*
X209229337Y-91096931D01*
X208869788Y-91245493D01*
X208594460Y-91520341D01*
X208445270Y-91879630D01*
X208444931Y-92268663D01*
X207987731Y-92268663D01*
X207988069Y-91881337D01*
X207839507Y-91521788D01*
X207821349Y-91503598D01*
X207965540Y-91359659D01*
X208114730Y-91000370D01*
X208115069Y-90611337D01*
X207966507Y-90251788D01*
X207691659Y-89976460D01*
X207332370Y-89827270D01*
X206943337Y-89826931D01*
X206583788Y-89975493D01*
X206308460Y-90250341D01*
X206159270Y-90609630D01*
X206158931Y-90998663D01*
X206307493Y-91358212D01*
X206325651Y-91376402D01*
X206181460Y-91520341D01*
X206032270Y-91879630D01*
X206031931Y-92268663D01*
X189940000Y-92268663D01*
X189940000Y-91125663D01*
X190029931Y-91125663D01*
X190178493Y-91485212D01*
X190453341Y-91760540D01*
X190812630Y-91909730D01*
X191201663Y-91910069D01*
X191561212Y-91761507D01*
X191836540Y-91486659D01*
X191985730Y-91127370D01*
X191986069Y-90738337D01*
X191837507Y-90378788D01*
X191562659Y-90103460D01*
X191203370Y-89954270D01*
X190814337Y-89953931D01*
X190454788Y-90102493D01*
X190179460Y-90377341D01*
X190030270Y-90736630D01*
X190029931Y-91125663D01*
X189940000Y-91125663D01*
X189940000Y-88585663D01*
X190156931Y-88585663D01*
X190305493Y-88945212D01*
X190580341Y-89220540D01*
X190939630Y-89369730D01*
X191328663Y-89370069D01*
X191688212Y-89221507D01*
X191963540Y-88946659D01*
X192112730Y-88587370D01*
X192113069Y-88198337D01*
X191964507Y-87838788D01*
X191689659Y-87563460D01*
X191330370Y-87414270D01*
X190941337Y-87413931D01*
X190581788Y-87562493D01*
X190306460Y-87837341D01*
X190157270Y-88196630D01*
X190156931Y-88585663D01*
X189940000Y-88585663D01*
X189940000Y-87630000D01*
X189885954Y-87358295D01*
X189732046Y-87127954D01*
X189501705Y-86974046D01*
X189357000Y-86945262D01*
X189357000Y-86172663D01*
X190156931Y-86172663D01*
X190305493Y-86532212D01*
X190580341Y-86807540D01*
X190939630Y-86956730D01*
X191328663Y-86957069D01*
X191688212Y-86808507D01*
X191963540Y-86533659D01*
X192112730Y-86174370D01*
X192113069Y-85785337D01*
X191964507Y-85425788D01*
X191689659Y-85150460D01*
X191330370Y-85001270D01*
X190941337Y-85000931D01*
X190581788Y-85149493D01*
X190306460Y-85424341D01*
X190157270Y-85783630D01*
X190156931Y-86172663D01*
X189357000Y-86172663D01*
X189357000Y-83820000D01*
X226657679Y-83820000D01*
X226783354Y-84451810D01*
X227141246Y-84987433D01*
X227294748Y-85090000D01*
X227141246Y-85192567D01*
X226783354Y-85728190D01*
X226657679Y-86360000D01*
X226783354Y-86991810D01*
X227141246Y-87527433D01*
X227294748Y-87630000D01*
X227141246Y-87732567D01*
X226783354Y-88268190D01*
X226657679Y-88900000D01*
X226783354Y-89531810D01*
X227141246Y-90067433D01*
X227676869Y-90425325D01*
X228308679Y-90551000D01*
X228891321Y-90551000D01*
X229523131Y-90425325D01*
X230058754Y-90067433D01*
X230416646Y-89531810D01*
X230542321Y-88900000D01*
X230416646Y-88268190D01*
X230058754Y-87732567D01*
X229905252Y-87630000D01*
X230058754Y-87527433D01*
X230416646Y-86991810D01*
X230542321Y-86360000D01*
X230416646Y-85728190D01*
X230058754Y-85192567D01*
X229905252Y-85090000D01*
X230058754Y-84987433D01*
X230416646Y-84451810D01*
X230542321Y-83820000D01*
X230416646Y-83188190D01*
X230058754Y-82652567D01*
X229523131Y-82294675D01*
X228891321Y-82169000D01*
X228308679Y-82169000D01*
X227676869Y-82294675D01*
X227141246Y-82652567D01*
X226783354Y-83188190D01*
X226657679Y-83820000D01*
X189357000Y-83820000D01*
X189357000Y-83234738D01*
X189501705Y-83205954D01*
X189732046Y-83052046D01*
X189885954Y-82821705D01*
X189940000Y-82550000D01*
X189940000Y-81692750D01*
X191922400Y-81692750D01*
X191922400Y-82549309D01*
X192019073Y-82782698D01*
X192197701Y-82961327D01*
X192431090Y-83058000D01*
X193135250Y-83058000D01*
X193294000Y-82899250D01*
X193294000Y-81534000D01*
X192081150Y-81534000D01*
X191922400Y-81692750D01*
X189940000Y-81692750D01*
X189940000Y-80264691D01*
X191922400Y-80264691D01*
X191922400Y-81121250D01*
X192081150Y-81280000D01*
X193294000Y-81280000D01*
X193294000Y-79914750D01*
X193548000Y-79914750D01*
X193548000Y-81280000D01*
X193568000Y-81280000D01*
X193568000Y-81534000D01*
X193548000Y-81534000D01*
X193548000Y-82899250D01*
X193706750Y-83058000D01*
X194410910Y-83058000D01*
X194644299Y-82961327D01*
X194822927Y-82782698D01*
X194886500Y-82629220D01*
X194901330Y-82651415D01*
X195387511Y-82976271D01*
X195961000Y-83090345D01*
X196534489Y-82976271D01*
X197020670Y-82651415D01*
X197231000Y-82336634D01*
X197441330Y-82651415D01*
X197927511Y-82976271D01*
X198501000Y-83090345D01*
X199074489Y-82976271D01*
X199560670Y-82651415D01*
X199771000Y-82336634D01*
X199981330Y-82651415D01*
X200467511Y-82976271D01*
X201041000Y-83090345D01*
X201614489Y-82976271D01*
X202100670Y-82651415D01*
X202311000Y-82336634D01*
X202521330Y-82651415D01*
X203007511Y-82976271D01*
X203581000Y-83090345D01*
X204154489Y-82976271D01*
X204640670Y-82651415D01*
X204965526Y-82165234D01*
X205079600Y-81591745D01*
X205079600Y-81222255D01*
X204965526Y-80648766D01*
X204640670Y-80162585D01*
X204154489Y-79837729D01*
X203581000Y-79723655D01*
X203007511Y-79837729D01*
X202521330Y-80162585D01*
X202311000Y-80477366D01*
X202100670Y-80162585D01*
X201614489Y-79837729D01*
X201041000Y-79723655D01*
X200467511Y-79837729D01*
X199981330Y-80162585D01*
X199771000Y-80477366D01*
X199560670Y-80162585D01*
X199074489Y-79837729D01*
X198501000Y-79723655D01*
X197927511Y-79837729D01*
X197441330Y-80162585D01*
X197231000Y-80477366D01*
X197020670Y-80162585D01*
X196534489Y-79837729D01*
X195961000Y-79723655D01*
X195387511Y-79837729D01*
X194901330Y-80162585D01*
X194886500Y-80184780D01*
X194822927Y-80031302D01*
X194644299Y-79852673D01*
X194410910Y-79756000D01*
X193706750Y-79756000D01*
X193548000Y-79914750D01*
X193294000Y-79914750D01*
X193135250Y-79756000D01*
X192431090Y-79756000D01*
X192197701Y-79852673D01*
X192019073Y-80031302D01*
X191922400Y-80264691D01*
X189940000Y-80264691D01*
X189940000Y-74229619D01*
X205790613Y-74229619D01*
X206130155Y-75051372D01*
X206758321Y-75680636D01*
X207579481Y-76021611D01*
X208468619Y-76022387D01*
X209290372Y-75682845D01*
X209919636Y-75054679D01*
X210260611Y-74233519D01*
X210261387Y-73344381D01*
X209921845Y-72522628D01*
X209293679Y-71893364D01*
X208472519Y-71552389D01*
X207583381Y-71551613D01*
X206761628Y-71891155D01*
X206132364Y-72519321D01*
X205791389Y-73340481D01*
X205790613Y-74229619D01*
X189940000Y-74229619D01*
X189940000Y-70560000D01*
X236145000Y-70560000D01*
X236145000Y-135180000D01*
X236145000Y-135180000D01*
G37*
X236145000Y-135180000D02*
X189940000Y-135180000D01*
X189940000Y-132522619D01*
X205790613Y-132522619D01*
X206130155Y-133344372D01*
X206758321Y-133973636D01*
X207579481Y-134314611D01*
X208468619Y-134315387D01*
X209290372Y-133975845D01*
X209919636Y-133347679D01*
X210260611Y-132526519D01*
X210261387Y-131637381D01*
X209921845Y-130815628D01*
X209293679Y-130186364D01*
X208472519Y-129845389D01*
X207583381Y-129844613D01*
X206761628Y-130184155D01*
X206132364Y-130812321D01*
X205791389Y-131633481D01*
X205790613Y-132522619D01*
X189940000Y-132522619D01*
X189940000Y-127447663D01*
X193077931Y-127447663D01*
X193226493Y-127807212D01*
X193501341Y-128082540D01*
X193860630Y-128231730D01*
X194249663Y-128232069D01*
X194609212Y-128083507D01*
X194884540Y-127808659D01*
X195033730Y-127449370D01*
X195033731Y-127447663D01*
X195871931Y-127447663D01*
X196020493Y-127807212D01*
X196295341Y-128082540D01*
X196654630Y-128231730D01*
X197043663Y-128232069D01*
X197403212Y-128083507D01*
X197678540Y-127808659D01*
X197827730Y-127449370D01*
X197828069Y-127060337D01*
X197679507Y-126700788D01*
X197404659Y-126425460D01*
X197045370Y-126276270D01*
X196656337Y-126275931D01*
X196296788Y-126424493D01*
X196021460Y-126699341D01*
X195872270Y-127058630D01*
X195871931Y-127447663D01*
X195033731Y-127447663D01*
X195034069Y-127060337D01*
X194885507Y-126700788D01*
X194610659Y-126425460D01*
X194251370Y-126276270D01*
X193862337Y-126275931D01*
X193502788Y-126424493D01*
X193227460Y-126699341D01*
X193078270Y-127058630D01*
X193077931Y-127447663D01*
X189940000Y-127447663D01*
X189940000Y-123190000D01*
X189885954Y-122918295D01*
X189732046Y-122687954D01*
X189501705Y-122534046D01*
X189357000Y-122505262D01*
X189357000Y-119913400D01*
X191020960Y-119913400D01*
X191020960Y-122148600D01*
X191065238Y-122383917D01*
X191204310Y-122600041D01*
X191416510Y-122745031D01*
X191668400Y-122796040D01*
X193903600Y-122796040D01*
X194138917Y-122751762D01*
X194143732Y-122748663D01*
X194855931Y-122748663D01*
X195004493Y-123108212D01*
X195279341Y-123383540D01*
X195638630Y-123532730D01*
X196027663Y-123533069D01*
X196387212Y-123384507D01*
X196582058Y-123190000D01*
X198361560Y-123190000D01*
X198361560Y-125222000D01*
X198405838Y-125457317D01*
X198544910Y-125673441D01*
X198757110Y-125818431D01*
X199009000Y-125869440D01*
X201041000Y-125869440D01*
X201276317Y-125825162D01*
X201492441Y-125686090D01*
X201594198Y-125537163D01*
X201933190Y-125763670D01*
X202565000Y-125889345D01*
X203196810Y-125763670D01*
X203732433Y-125405778D01*
X204090325Y-124870155D01*
X204216000Y-124238345D01*
X204216000Y-124173655D01*
X204090325Y-123541845D01*
X203855230Y-123190000D01*
X218182041Y-123190000D01*
X218296115Y-123763489D01*
X218620971Y-124249670D01*
X218935752Y-124460000D01*
X218620971Y-124670330D01*
X218296115Y-125156511D01*
X218182041Y-125730000D01*
X218296115Y-126303489D01*
X218620971Y-126789670D01*
X219107152Y-127114526D01*
X219680641Y-127228600D01*
X219739359Y-127228600D01*
X220312848Y-127114526D01*
X220799029Y-126789670D01*
X220980000Y-126518828D01*
X221160971Y-126789670D01*
X221647152Y-127114526D01*
X222220641Y-127228600D01*
X222279359Y-127228600D01*
X222852848Y-127114526D01*
X223339029Y-126789670D01*
X223663885Y-126303489D01*
X223777959Y-125730000D01*
X223663885Y-125156511D01*
X223339029Y-124670330D01*
X223024248Y-124460000D01*
X223339029Y-124249670D01*
X223663885Y-123763489D01*
X223777959Y-123190000D01*
X223663885Y-122616511D01*
X223339029Y-122130330D01*
X223015772Y-121914336D01*
X223138490Y-121856821D01*
X223532688Y-121424947D01*
X223704958Y-121009026D01*
X223583817Y-120777000D01*
X222377000Y-120777000D01*
X222377000Y-120797000D01*
X222123000Y-120797000D01*
X222123000Y-120777000D01*
X222103000Y-120777000D01*
X222103000Y-120523000D01*
X222123000Y-120523000D01*
X222123000Y-119315531D01*
X222377000Y-119315531D01*
X222377000Y-120523000D01*
X223583817Y-120523000D01*
X223704958Y-120290974D01*
X223532688Y-119875053D01*
X223138490Y-119443179D01*
X222609027Y-119195032D01*
X222377000Y-119315531D01*
X222123000Y-119315531D01*
X221890973Y-119195032D01*
X221361510Y-119443179D01*
X221191505Y-119629433D01*
X221176762Y-119551083D01*
X221037690Y-119334959D01*
X220825490Y-119189969D01*
X220573600Y-119138960D01*
X218846400Y-119138960D01*
X218611083Y-119183238D01*
X218394959Y-119322310D01*
X218249969Y-119534510D01*
X218198960Y-119786400D01*
X218198960Y-121513600D01*
X218243238Y-121748917D01*
X218382310Y-121965041D01*
X218594510Y-122110031D01*
X218638131Y-122118864D01*
X218620971Y-122130330D01*
X218296115Y-122616511D01*
X218182041Y-123190000D01*
X203855230Y-123190000D01*
X203732433Y-123006222D01*
X203196810Y-122648330D01*
X202565000Y-122522655D01*
X201933190Y-122648330D01*
X201593208Y-122875499D01*
X201505090Y-122738559D01*
X201292890Y-122593569D01*
X201041000Y-122542560D01*
X199009000Y-122542560D01*
X198773683Y-122586838D01*
X198557559Y-122725910D01*
X198412569Y-122938110D01*
X198361560Y-123190000D01*
X196582058Y-123190000D01*
X196662540Y-123109659D01*
X196811730Y-122750370D01*
X196812069Y-122361337D01*
X196663507Y-122001788D01*
X196388659Y-121726460D01*
X196029370Y-121577270D01*
X195640337Y-121576931D01*
X195280788Y-121725493D01*
X195005460Y-122000341D01*
X194856270Y-122359630D01*
X194855931Y-122748663D01*
X194143732Y-122748663D01*
X194355041Y-122612690D01*
X194500031Y-122400490D01*
X194551040Y-122148600D01*
X194551040Y-119913400D01*
X194506762Y-119678083D01*
X194367690Y-119461959D01*
X194155490Y-119316969D01*
X193903600Y-119265960D01*
X191668400Y-119265960D01*
X191433083Y-119310238D01*
X191216959Y-119449310D01*
X191071969Y-119661510D01*
X191020960Y-119913400D01*
X189357000Y-119913400D01*
X189357000Y-118794738D01*
X189501705Y-118765954D01*
X189732046Y-118612046D01*
X189885954Y-118381705D01*
X189940000Y-118110000D01*
X189940000Y-114710377D01*
X190051493Y-114980212D01*
X190326341Y-115255540D01*
X190685630Y-115404730D01*
X191074663Y-115405069D01*
X191434212Y-115256507D01*
X191709540Y-114981659D01*
X191858730Y-114622370D01*
X191859069Y-114233337D01*
X191710507Y-113873788D01*
X191695409Y-113858663D01*
X216191931Y-113858663D01*
X216340493Y-114218212D01*
X216615341Y-114493540D01*
X216974630Y-114642730D01*
X217363663Y-114643069D01*
X217723212Y-114494507D01*
X217998540Y-114219659D01*
X218147730Y-113860370D01*
X218148069Y-113471337D01*
X217999507Y-113111788D01*
X217724659Y-112836460D01*
X217365370Y-112687270D01*
X216976337Y-112686931D01*
X216616788Y-112835493D01*
X216341460Y-113110341D01*
X216192270Y-113469630D01*
X216191931Y-113858663D01*
X191695409Y-113858663D01*
X191435659Y-113598460D01*
X191076370Y-113449270D01*
X190687337Y-113448931D01*
X190327788Y-113597493D01*
X190052460Y-113872341D01*
X189940000Y-114143174D01*
X189940000Y-110683663D01*
X195363931Y-110683663D01*
X195512493Y-111043212D01*
X195787341Y-111318540D01*
X196146630Y-111467730D01*
X196535663Y-111468069D01*
X196895212Y-111319507D01*
X197170540Y-111044659D01*
X197319730Y-110685370D01*
X197320069Y-110296337D01*
X197171507Y-109936788D01*
X196896659Y-109661460D01*
X196537370Y-109512270D01*
X196148337Y-109511931D01*
X195788788Y-109660493D01*
X195513460Y-109935341D01*
X195364270Y-110294630D01*
X195363931Y-110683663D01*
X189940000Y-110683663D01*
X189940000Y-108778663D01*
X213397931Y-108778663D01*
X213546493Y-109138212D01*
X213821341Y-109413540D01*
X214180630Y-109562730D01*
X214569663Y-109563069D01*
X214929212Y-109414507D01*
X215204540Y-109139659D01*
X215353730Y-108780370D01*
X215354069Y-108391337D01*
X215205507Y-108031788D01*
X214930659Y-107756460D01*
X214571370Y-107607270D01*
X214182337Y-107606931D01*
X213822788Y-107755493D01*
X213547460Y-108030341D01*
X213398270Y-108389630D01*
X213397931Y-108778663D01*
X189940000Y-108778663D01*
X189940000Y-107508663D01*
X196506931Y-107508663D01*
X196655493Y-107868212D01*
X196930341Y-108143540D01*
X197289630Y-108292730D01*
X197678663Y-108293069D01*
X198038212Y-108144507D01*
X198313540Y-107869659D01*
X198462730Y-107510370D01*
X198463069Y-107121337D01*
X198314507Y-106761788D01*
X198039659Y-106486460D01*
X197680370Y-106337270D01*
X197291337Y-106336931D01*
X196931788Y-106485493D01*
X196656460Y-106760341D01*
X196507270Y-107119630D01*
X196506931Y-107508663D01*
X189940000Y-107508663D01*
X189940000Y-106111663D01*
X216191931Y-106111663D01*
X216340493Y-106471212D01*
X216615341Y-106746540D01*
X216974630Y-106895730D01*
X217363663Y-106896069D01*
X217723212Y-106747507D01*
X217998540Y-106472659D01*
X218147730Y-106113370D01*
X218148069Y-105724337D01*
X217999507Y-105364788D01*
X217724659Y-105089460D01*
X217365370Y-104940270D01*
X216976337Y-104939931D01*
X216616788Y-105088493D01*
X216341460Y-105363341D01*
X216192270Y-105722630D01*
X216191931Y-106111663D01*
X189940000Y-106111663D01*
X189940000Y-97155000D01*
X192626655Y-97155000D01*
X192752330Y-97786810D01*
X193110222Y-98322433D01*
X193645845Y-98680325D01*
X194277655Y-98806000D01*
X194342345Y-98806000D01*
X194974155Y-98680325D01*
X195509778Y-98322433D01*
X195867670Y-97786810D01*
X195993345Y-97155000D01*
X195867670Y-96523190D01*
X195640501Y-96183208D01*
X195777441Y-96095090D01*
X195922431Y-95882890D01*
X195973440Y-95631000D01*
X195973440Y-94808663D01*
X203110931Y-94808663D01*
X203259493Y-95168212D01*
X203341040Y-95249901D01*
X203260460Y-95330341D01*
X203111270Y-95689630D01*
X203110931Y-96078663D01*
X203259493Y-96438212D01*
X203341040Y-96519901D01*
X203260460Y-96600341D01*
X203111270Y-96959630D01*
X203110931Y-97348663D01*
X203259493Y-97708212D01*
X203534341Y-97983540D01*
X203893630Y-98132730D01*
X204282663Y-98133069D01*
X204642212Y-97984507D01*
X204837058Y-97790000D01*
X226916655Y-97790000D01*
X227030729Y-98363489D01*
X227355585Y-98849670D01*
X227670366Y-99060000D01*
X227355585Y-99270330D01*
X227030729Y-99756511D01*
X226916655Y-100330000D01*
X227030729Y-100903489D01*
X227355585Y-101389670D01*
X227670366Y-101600000D01*
X227355585Y-101810330D01*
X227030729Y-102296511D01*
X226916655Y-102870000D01*
X227030729Y-103443489D01*
X227355585Y-103929670D01*
X227670366Y-104140000D01*
X227355585Y-104350330D01*
X227030729Y-104836511D01*
X226916655Y-105410000D01*
X227030729Y-105983489D01*
X227355585Y-106469670D01*
X227670366Y-106680000D01*
X227355585Y-106890330D01*
X227030729Y-107376511D01*
X226916655Y-107950000D01*
X227030729Y-108523489D01*
X227355585Y-109009670D01*
X227670366Y-109220000D01*
X227355585Y-109430330D01*
X227030729Y-109916511D01*
X226916655Y-110490000D01*
X227030729Y-111063489D01*
X227355585Y-111549670D01*
X227670366Y-111760000D01*
X227355585Y-111970330D01*
X227030729Y-112456511D01*
X226916655Y-113030000D01*
X227030729Y-113603489D01*
X227355585Y-114089670D01*
X227670366Y-114300000D01*
X227355585Y-114510330D01*
X227030729Y-114996511D01*
X226916655Y-115570000D01*
X227030729Y-116143489D01*
X227355585Y-116629670D01*
X227841766Y-116954526D01*
X228415255Y-117068600D01*
X228784745Y-117068600D01*
X229358234Y-116954526D01*
X229844415Y-116629670D01*
X230169271Y-116143489D01*
X230283345Y-115570000D01*
X230169271Y-114996511D01*
X229844415Y-114510330D01*
X229529634Y-114300000D01*
X229844415Y-114089670D01*
X230169271Y-113603489D01*
X230283345Y-113030000D01*
X230169271Y-112456511D01*
X229844415Y-111970330D01*
X229529634Y-111760000D01*
X229844415Y-111549670D01*
X230169271Y-111063489D01*
X230283345Y-110490000D01*
X230169271Y-109916511D01*
X229844415Y-109430330D01*
X229529634Y-109220000D01*
X229844415Y-109009670D01*
X230169271Y-108523489D01*
X230283345Y-107950000D01*
X230169271Y-107376511D01*
X229844415Y-106890330D01*
X229529634Y-106680000D01*
X229844415Y-106469670D01*
X230169271Y-105983489D01*
X230283345Y-105410000D01*
X230169271Y-104836511D01*
X229844415Y-104350330D01*
X229529634Y-104140000D01*
X229844415Y-103929670D01*
X230169271Y-103443489D01*
X230283345Y-102870000D01*
X230169271Y-102296511D01*
X229844415Y-101810330D01*
X229529634Y-101600000D01*
X229844415Y-101389670D01*
X230169271Y-100903489D01*
X230283345Y-100330000D01*
X230169271Y-99756511D01*
X229844415Y-99270330D01*
X229529634Y-99060000D01*
X229844415Y-98849670D01*
X230169271Y-98363489D01*
X230283345Y-97790000D01*
X230169271Y-97216511D01*
X229844415Y-96730330D01*
X229830087Y-96720757D01*
X229851317Y-96716762D01*
X230067441Y-96577690D01*
X230212431Y-96365490D01*
X230263440Y-96113600D01*
X230263440Y-94386400D01*
X230219162Y-94151083D01*
X230080090Y-93934959D01*
X229867890Y-93789969D01*
X229616000Y-93738960D01*
X227584000Y-93738960D01*
X227348683Y-93783238D01*
X227132559Y-93922310D01*
X226987569Y-94134510D01*
X226936560Y-94386400D01*
X226936560Y-96113600D01*
X226980838Y-96348917D01*
X227119910Y-96565041D01*
X227332110Y-96710031D01*
X227373439Y-96718400D01*
X227355585Y-96730330D01*
X227030729Y-97216511D01*
X226916655Y-97790000D01*
X204837058Y-97790000D01*
X204917540Y-97709659D01*
X205066730Y-97350370D01*
X205067069Y-96961337D01*
X204918507Y-96601788D01*
X204903409Y-96586663D01*
X211746931Y-96586663D01*
X211895493Y-96946212D01*
X212170341Y-97221540D01*
X212529630Y-97370730D01*
X212918663Y-97371069D01*
X213278212Y-97222507D01*
X213553540Y-96947659D01*
X213702730Y-96588370D01*
X213703069Y-96199337D01*
X213554507Y-95839788D01*
X213279659Y-95564460D01*
X212920370Y-95415270D01*
X212531337Y-95414931D01*
X212171788Y-95563493D01*
X211896460Y-95838341D01*
X211747270Y-96197630D01*
X211746931Y-96586663D01*
X204903409Y-96586663D01*
X204836960Y-96520099D01*
X204917540Y-96439659D01*
X205066730Y-96080370D01*
X205067069Y-95691337D01*
X204918507Y-95331788D01*
X204836960Y-95250099D01*
X204917540Y-95169659D01*
X205066730Y-94810370D01*
X205067069Y-94421337D01*
X204918507Y-94061788D01*
X204643659Y-93786460D01*
X204284370Y-93637270D01*
X203895337Y-93636931D01*
X203535788Y-93785493D01*
X203260460Y-94060341D01*
X203111270Y-94419630D01*
X203110931Y-94808663D01*
X195973440Y-94808663D01*
X195973440Y-93599000D01*
X195929162Y-93363683D01*
X195790090Y-93147559D01*
X195577890Y-93002569D01*
X195326000Y-92951560D01*
X193294000Y-92951560D01*
X193058683Y-92995838D01*
X192842559Y-93134910D01*
X192697569Y-93347110D01*
X192646560Y-93599000D01*
X192646560Y-95631000D01*
X192690838Y-95866317D01*
X192829910Y-96082441D01*
X192978837Y-96184198D01*
X192752330Y-96523190D01*
X192626655Y-97155000D01*
X189940000Y-97155000D01*
X189940000Y-92268663D01*
X206031931Y-92268663D01*
X206180493Y-92628212D01*
X206198540Y-92646291D01*
X206181460Y-92663341D01*
X206032270Y-93022630D01*
X206031931Y-93411663D01*
X206180493Y-93771212D01*
X206455341Y-94046540D01*
X206814630Y-94195730D01*
X207203663Y-94196069D01*
X207563212Y-94047507D01*
X207838540Y-93772659D01*
X207935703Y-93538663D01*
X211873931Y-93538663D01*
X212022493Y-93898212D01*
X212297341Y-94173540D01*
X212656630Y-94322730D01*
X213045663Y-94323069D01*
X213405212Y-94174507D01*
X213406057Y-94173663D01*
X213905931Y-94173663D01*
X214054493Y-94533212D01*
X214329341Y-94808540D01*
X214688630Y-94957730D01*
X215077663Y-94958069D01*
X215437212Y-94809507D01*
X215712540Y-94534659D01*
X215861730Y-94175370D01*
X215862069Y-93786337D01*
X215713507Y-93426788D01*
X215438659Y-93151460D01*
X215079370Y-93002270D01*
X214690337Y-93001931D01*
X214330788Y-93150493D01*
X214055460Y-93425341D01*
X213906270Y-93784630D01*
X213905931Y-94173663D01*
X213406057Y-94173663D01*
X213680540Y-93899659D01*
X213829730Y-93540370D01*
X213830069Y-93151337D01*
X213681507Y-92791788D01*
X213406659Y-92516460D01*
X213047370Y-92367270D01*
X212658337Y-92366931D01*
X212298788Y-92515493D01*
X212023460Y-92790341D01*
X211874270Y-93149630D01*
X211873931Y-93538663D01*
X207935703Y-93538663D01*
X207987730Y-93413370D01*
X207988069Y-93024337D01*
X207839507Y-92664788D01*
X207821460Y-92646709D01*
X207838540Y-92629659D01*
X207987730Y-92270370D01*
X207987731Y-92268663D01*
X208444931Y-92268663D01*
X208593493Y-92628212D01*
X208868341Y-92903540D01*
X209227630Y-93052730D01*
X209616663Y-93053069D01*
X209976212Y-92904507D01*
X210251540Y-92629659D01*
X210400730Y-92270370D01*
X210401069Y-91881337D01*
X210252507Y-91521788D01*
X209977659Y-91246460D01*
X209618370Y-91097270D01*
X209229337Y-91096931D01*
X208869788Y-91245493D01*
X208594460Y-91520341D01*
X208445270Y-91879630D01*
X208444931Y-92268663D01*
X207987731Y-92268663D01*
X207988069Y-91881337D01*
X207839507Y-91521788D01*
X207821349Y-91503598D01*
X207965540Y-91359659D01*
X208114730Y-91000370D01*
X208115069Y-90611337D01*
X207966507Y-90251788D01*
X207691659Y-89976460D01*
X207332370Y-89827270D01*
X206943337Y-89826931D01*
X206583788Y-89975493D01*
X206308460Y-90250341D01*
X206159270Y-90609630D01*
X206158931Y-90998663D01*
X206307493Y-91358212D01*
X206325651Y-91376402D01*
X206181460Y-91520341D01*
X206032270Y-91879630D01*
X206031931Y-92268663D01*
X189940000Y-92268663D01*
X189940000Y-91125663D01*
X190029931Y-91125663D01*
X190178493Y-91485212D01*
X190453341Y-91760540D01*
X190812630Y-91909730D01*
X191201663Y-91910069D01*
X191561212Y-91761507D01*
X191836540Y-91486659D01*
X191985730Y-91127370D01*
X191986069Y-90738337D01*
X191837507Y-90378788D01*
X191562659Y-90103460D01*
X191203370Y-89954270D01*
X190814337Y-89953931D01*
X190454788Y-90102493D01*
X190179460Y-90377341D01*
X190030270Y-90736630D01*
X190029931Y-91125663D01*
X189940000Y-91125663D01*
X189940000Y-88585663D01*
X190156931Y-88585663D01*
X190305493Y-88945212D01*
X190580341Y-89220540D01*
X190939630Y-89369730D01*
X191328663Y-89370069D01*
X191688212Y-89221507D01*
X191963540Y-88946659D01*
X192112730Y-88587370D01*
X192113069Y-88198337D01*
X191964507Y-87838788D01*
X191689659Y-87563460D01*
X191330370Y-87414270D01*
X190941337Y-87413931D01*
X190581788Y-87562493D01*
X190306460Y-87837341D01*
X190157270Y-88196630D01*
X190156931Y-88585663D01*
X189940000Y-88585663D01*
X189940000Y-87630000D01*
X189885954Y-87358295D01*
X189732046Y-87127954D01*
X189501705Y-86974046D01*
X189357000Y-86945262D01*
X189357000Y-86172663D01*
X190156931Y-86172663D01*
X190305493Y-86532212D01*
X190580341Y-86807540D01*
X190939630Y-86956730D01*
X191328663Y-86957069D01*
X191688212Y-86808507D01*
X191963540Y-86533659D01*
X192112730Y-86174370D01*
X192113069Y-85785337D01*
X191964507Y-85425788D01*
X191689659Y-85150460D01*
X191330370Y-85001270D01*
X190941337Y-85000931D01*
X190581788Y-85149493D01*
X190306460Y-85424341D01*
X190157270Y-85783630D01*
X190156931Y-86172663D01*
X189357000Y-86172663D01*
X189357000Y-83820000D01*
X226657679Y-83820000D01*
X226783354Y-84451810D01*
X227141246Y-84987433D01*
X227294748Y-85090000D01*
X227141246Y-85192567D01*
X226783354Y-85728190D01*
X226657679Y-86360000D01*
X226783354Y-86991810D01*
X227141246Y-87527433D01*
X227294748Y-87630000D01*
X227141246Y-87732567D01*
X226783354Y-88268190D01*
X226657679Y-88900000D01*
X226783354Y-89531810D01*
X227141246Y-90067433D01*
X227676869Y-90425325D01*
X228308679Y-90551000D01*
X228891321Y-90551000D01*
X229523131Y-90425325D01*
X230058754Y-90067433D01*
X230416646Y-89531810D01*
X230542321Y-88900000D01*
X230416646Y-88268190D01*
X230058754Y-87732567D01*
X229905252Y-87630000D01*
X230058754Y-87527433D01*
X230416646Y-86991810D01*
X230542321Y-86360000D01*
X230416646Y-85728190D01*
X230058754Y-85192567D01*
X229905252Y-85090000D01*
X230058754Y-84987433D01*
X230416646Y-84451810D01*
X230542321Y-83820000D01*
X230416646Y-83188190D01*
X230058754Y-82652567D01*
X229523131Y-82294675D01*
X228891321Y-82169000D01*
X228308679Y-82169000D01*
X227676869Y-82294675D01*
X227141246Y-82652567D01*
X226783354Y-83188190D01*
X226657679Y-83820000D01*
X189357000Y-83820000D01*
X189357000Y-83234738D01*
X189501705Y-83205954D01*
X189732046Y-83052046D01*
X189885954Y-82821705D01*
X189940000Y-82550000D01*
X189940000Y-81692750D01*
X191922400Y-81692750D01*
X191922400Y-82549309D01*
X192019073Y-82782698D01*
X192197701Y-82961327D01*
X192431090Y-83058000D01*
X193135250Y-83058000D01*
X193294000Y-82899250D01*
X193294000Y-81534000D01*
X192081150Y-81534000D01*
X191922400Y-81692750D01*
X189940000Y-81692750D01*
X189940000Y-80264691D01*
X191922400Y-80264691D01*
X191922400Y-81121250D01*
X192081150Y-81280000D01*
X193294000Y-81280000D01*
X193294000Y-79914750D01*
X193548000Y-79914750D01*
X193548000Y-81280000D01*
X193568000Y-81280000D01*
X193568000Y-81534000D01*
X193548000Y-81534000D01*
X193548000Y-82899250D01*
X193706750Y-83058000D01*
X194410910Y-83058000D01*
X194644299Y-82961327D01*
X194822927Y-82782698D01*
X194886500Y-82629220D01*
X194901330Y-82651415D01*
X195387511Y-82976271D01*
X195961000Y-83090345D01*
X196534489Y-82976271D01*
X197020670Y-82651415D01*
X197231000Y-82336634D01*
X197441330Y-82651415D01*
X197927511Y-82976271D01*
X198501000Y-83090345D01*
X199074489Y-82976271D01*
X199560670Y-82651415D01*
X199771000Y-82336634D01*
X199981330Y-82651415D01*
X200467511Y-82976271D01*
X201041000Y-83090345D01*
X201614489Y-82976271D01*
X202100670Y-82651415D01*
X202311000Y-82336634D01*
X202521330Y-82651415D01*
X203007511Y-82976271D01*
X203581000Y-83090345D01*
X204154489Y-82976271D01*
X204640670Y-82651415D01*
X204965526Y-82165234D01*
X205079600Y-81591745D01*
X205079600Y-81222255D01*
X204965526Y-80648766D01*
X204640670Y-80162585D01*
X204154489Y-79837729D01*
X203581000Y-79723655D01*
X203007511Y-79837729D01*
X202521330Y-80162585D01*
X202311000Y-80477366D01*
X202100670Y-80162585D01*
X201614489Y-79837729D01*
X201041000Y-79723655D01*
X200467511Y-79837729D01*
X199981330Y-80162585D01*
X199771000Y-80477366D01*
X199560670Y-80162585D01*
X199074489Y-79837729D01*
X198501000Y-79723655D01*
X197927511Y-79837729D01*
X197441330Y-80162585D01*
X197231000Y-80477366D01*
X197020670Y-80162585D01*
X196534489Y-79837729D01*
X195961000Y-79723655D01*
X195387511Y-79837729D01*
X194901330Y-80162585D01*
X194886500Y-80184780D01*
X194822927Y-80031302D01*
X194644299Y-79852673D01*
X194410910Y-79756000D01*
X193706750Y-79756000D01*
X193548000Y-79914750D01*
X193294000Y-79914750D01*
X193135250Y-79756000D01*
X192431090Y-79756000D01*
X192197701Y-79852673D01*
X192019073Y-80031302D01*
X191922400Y-80264691D01*
X189940000Y-80264691D01*
X189940000Y-74229619D01*
X205790613Y-74229619D01*
X206130155Y-75051372D01*
X206758321Y-75680636D01*
X207579481Y-76021611D01*
X208468619Y-76022387D01*
X209290372Y-75682845D01*
X209919636Y-75054679D01*
X210260611Y-74233519D01*
X210261387Y-73344381D01*
X209921845Y-72522628D01*
X209293679Y-71893364D01*
X208472519Y-71552389D01*
X207583381Y-71551613D01*
X206761628Y-71891155D01*
X206132364Y-72519321D01*
X205791389Y-73340481D01*
X205790613Y-74229619D01*
X189940000Y-74229619D01*
X189940000Y-70560000D01*
X236145000Y-70560000D01*
X236145000Y-135180000D01*
M02*
