M48
;DRILL file {KiCad 4.0.2-4+6225~38~ubuntu14.04.1-stable} date Mon 26 Dec 2016 11:01:04 AM CET
;FORMAT={-:-/ absolute / inch / decimal}
FMAT,2
INCH,TZ
T1C0.013
T2C0.030
T3C0.040
T4C0.060
T5C0.126
%
G90
G05
M72
T1
X7.515Y-4.505
X7.515Y-4.87
X7.52Y-3.58
X7.52Y-4.325
X7.525Y-3.385
X7.525Y-3.48
X7.59Y-4.105
X7.64Y-5.01
X7.71Y-4.825
X7.73Y-4.35
X7.75Y-5.01
X7.775Y-4.225
X8.035Y-3.725
X8.035Y-3.775
X8.035Y-3.825
X8.15Y-3.625
X8.15Y-3.67
X8.155Y-3.575
X8.245Y-3.625
X8.365Y-4.105
X8.37Y-3.915
X8.375Y-3.795
X8.38Y-3.675
X8.44Y-4.275
X8.46Y-3.7
X8.525Y-4.32
X8.53Y-3.985
X8.55Y-4.17
X8.55Y-4.475
X8.58Y-4.63
T2
X5.3294Y-3.9104
X5.3294Y-4.5804
X5.3844Y-3.1604
X5.4672Y-4.2096
X5.4672Y-4.8796
X5.5222Y-3.4596
X6.2546Y-3.9104
X6.2546Y-4.2096
X6.2546Y-4.5804
X6.2546Y-4.8796
X6.3096Y-3.1604
X6.3096Y-3.4596
T3
X6.6Y-3.2
X6.7Y-3.2
X6.8Y-3.2
X6.9Y-3.2
X7.Y-3.2
X7.59Y-4.765
X7.615Y-3.205
X7.65Y-3.725
X7.65Y-3.825
X7.715Y-3.205
X7.815Y-3.205
X7.875Y-4.89
X7.915Y-3.205
X7.975Y-4.89
X8.015Y-3.205
X8.65Y-4.75
X8.65Y-4.85
X8.65Y-4.95
X8.75Y-4.75
X8.75Y-4.85
X8.75Y-4.95
X9.Y-3.75
X9.Y-3.85
X9.Y-3.95
X9.Y-4.05
X9.Y-4.15
X9.Y-4.25
X9.Y-4.35
X9.Y-4.45
X9.Y-4.55
T4
X4.925Y-3.325
X4.925Y-3.5219
X4.925Y-3.75
X4.925Y-3.9469
X4.925Y-4.1437
X4.925Y-4.3406
X4.925Y-4.5374
X4.925Y-4.7343
X9.Y-3.3
X9.Y-3.4
X9.Y-3.5
T5
X5.975Y-2.9
X5.975Y-5.2
X7.175Y-2.9
X7.175Y-5.2
X8.19Y-2.905
X8.19Y-5.2
T0
M30
