G04 #@! TF.FileFunction,Copper,L3,Inr,Plane*
%FSLAX46Y46*%
G04 Gerber Fmt 4.6, Leading zero omitted, Abs format (unit mm)*
G04 Created by KiCad (PCBNEW 4.0.2-4+6225~38~ubuntu14.04.1-stable) date Thu 30 Mar 2017 04:29:04 PM CEST*
%MOMM*%
G01*
G04 APERTURE LIST*
%ADD10C,0.100000*%
%ADD11R,2.032000X2.032000*%
%ADD12O,2.032000X2.032000*%
%ADD13R,2.235200X2.235200*%
%ADD14R,2.000000X1.700000*%
%ADD15R,1.700000X1.700000*%
%ADD16O,1.700000X1.700000*%
%ADD17C,2.032000*%
%ADD18C,2.540000*%
%ADD19R,3.000000X2.000000*%
%ADD20C,0.685800*%
%ADD21C,0.254000*%
G04 APERTURE END LIST*
D10*
D11*
X98679000Y-175768000D03*
D12*
X96139000Y-175768000D03*
D11*
X148031200Y-131775200D03*
D12*
X150571200Y-131775200D03*
D13*
X96266000Y-171831000D03*
D14*
X146812000Y-141224000D03*
X146812000Y-138724000D03*
X146812000Y-136224000D03*
X146812000Y-144224000D03*
X146812000Y-146724000D03*
X146812000Y-149224000D03*
X146812000Y-152224000D03*
X146812000Y-154724000D03*
X146812000Y-157224000D03*
X146812000Y-160224000D03*
X146812000Y-162724000D03*
X146812000Y-165224000D03*
D15*
X96520000Y-132207000D03*
D16*
X99060000Y-132207000D03*
X101600000Y-132207000D03*
X104140000Y-132207000D03*
X106680000Y-132207000D03*
X109220000Y-132207000D03*
X111760000Y-132207000D03*
X114300000Y-132207000D03*
D15*
X96520000Y-63500000D03*
D16*
X99060000Y-63500000D03*
X101600000Y-63500000D03*
X104140000Y-63500000D03*
X106680000Y-63500000D03*
X109220000Y-63500000D03*
X111760000Y-63500000D03*
X114300000Y-63500000D03*
D17*
X86730000Y-91577000D03*
X86730000Y-99177000D03*
X66730000Y-99177000D03*
X63230000Y-91577000D03*
X78475000Y-77480000D03*
X78475000Y-85080000D03*
X58475000Y-85080000D03*
X54975000Y-77480000D03*
X82285000Y-63383000D03*
X82285000Y-70983000D03*
X62285000Y-70983000D03*
X58785000Y-63383000D03*
D18*
X53340000Y-94869000D03*
X58420000Y-94879160D03*
D19*
X41275000Y-93472000D03*
X41275000Y-98472000D03*
X46275000Y-98472000D03*
X46275000Y-93472000D03*
X41275000Y-64262000D03*
X41275000Y-69262000D03*
X41275000Y-74262000D03*
X41275000Y-79262000D03*
X41275000Y-84262000D03*
X41275000Y-89262000D03*
X46275000Y-89262000D03*
X46275000Y-84262000D03*
X46275000Y-79262000D03*
X46275000Y-74262000D03*
X46275000Y-69262000D03*
X46275000Y-64262000D03*
D15*
X95504000Y-146050000D03*
D16*
X95504000Y-148590000D03*
D15*
X100812600Y-143586200D03*
D16*
X100812600Y-146126200D03*
X100812600Y-148666200D03*
D20*
X123825000Y-127889000D03*
X128905000Y-168783000D03*
X127762000Y-160020000D03*
X132207000Y-168656000D03*
X127762000Y-151892000D03*
X107569000Y-145415000D03*
X107569000Y-146685000D03*
X107569000Y-147955000D03*
X108839000Y-166243000D03*
X106807000Y-162179000D03*
X135128000Y-154051000D03*
X135128000Y-145923000D03*
X110617000Y-168783000D03*
X135128000Y-161798000D03*
X94361000Y-165227000D03*
X99822000Y-161290000D03*
X118237000Y-128016000D03*
X117094000Y-144526000D03*
X111760000Y-141605000D03*
X112776000Y-143510000D03*
X107696000Y-168656000D03*
X97282000Y-154686000D03*
X113665000Y-168783000D03*
X94488000Y-160655000D03*
X112649000Y-147828000D03*
X127508000Y-121666000D03*
X131318000Y-124460000D03*
X116586000Y-146685000D03*
X134239000Y-139573000D03*
X131318000Y-126365000D03*
X130683000Y-160020000D03*
X130683000Y-152019000D03*
X130683000Y-168021000D03*
X115824000Y-150876000D03*
X121412000Y-147574000D03*
D21*
G36*
X124851160Y-121427806D02*
X124350564Y-121927529D01*
X124079309Y-122580782D01*
X124078692Y-123288114D01*
X124095927Y-123329825D01*
X123728156Y-123329504D01*
X123312573Y-123501219D01*
X122994337Y-123818900D01*
X122821897Y-124234183D01*
X122821504Y-124683844D01*
X122993219Y-125099427D01*
X123310900Y-125417663D01*
X123451223Y-125475930D01*
X123312573Y-125533219D01*
X122994337Y-125850900D01*
X122821897Y-126266183D01*
X122821504Y-126715844D01*
X122993219Y-127131427D01*
X123096293Y-127234682D01*
X122996460Y-127334341D01*
X122847270Y-127693630D01*
X122846931Y-128082663D01*
X122995493Y-128442212D01*
X123270341Y-128717540D01*
X123629630Y-128866730D01*
X124018663Y-128867069D01*
X124246037Y-128773120D01*
X124348806Y-129021840D01*
X124848529Y-129522436D01*
X125501782Y-129793691D01*
X126209114Y-129794308D01*
X126862840Y-129524194D01*
X127363436Y-129024471D01*
X127444364Y-128829575D01*
X127523806Y-129021840D01*
X128023529Y-129522436D01*
X128676782Y-129793691D01*
X129384114Y-129794308D01*
X130037840Y-129524194D01*
X130538436Y-129024471D01*
X130809691Y-128371218D01*
X130810308Y-127663886D01*
X130540194Y-127010160D01*
X130040471Y-126509564D01*
X129726933Y-126379371D01*
X129989663Y-126117100D01*
X130162103Y-125701817D01*
X130162496Y-125252156D01*
X129990781Y-124836573D01*
X129727212Y-124572543D01*
X130037840Y-124444194D01*
X130427034Y-124055678D01*
X130340270Y-124264630D01*
X130339931Y-124653663D01*
X130488493Y-125013212D01*
X130763341Y-125288540D01*
X131062162Y-125412621D01*
X130764788Y-125535493D01*
X130489460Y-125810341D01*
X130340270Y-126169630D01*
X130339931Y-126558663D01*
X130488493Y-126918212D01*
X130763341Y-127193540D01*
X131122630Y-127342730D01*
X131511663Y-127343069D01*
X131871212Y-127194507D01*
X132146540Y-126919659D01*
X132295730Y-126560370D01*
X132295954Y-126302619D01*
X136850613Y-126302619D01*
X137190155Y-127124372D01*
X137818321Y-127753636D01*
X138639481Y-128094611D01*
X139528619Y-128095387D01*
X140350372Y-127755845D01*
X140979636Y-127127679D01*
X141320611Y-126306519D01*
X141321387Y-125417381D01*
X140981845Y-124595628D01*
X140353679Y-123966364D01*
X139532519Y-123625389D01*
X138643381Y-123624613D01*
X137821628Y-123964155D01*
X137192364Y-124592321D01*
X136851389Y-125413481D01*
X136850613Y-126302619D01*
X132295954Y-126302619D01*
X132296069Y-126171337D01*
X132147507Y-125811788D01*
X131872659Y-125536460D01*
X131573838Y-125412379D01*
X131871212Y-125289507D01*
X132146540Y-125014659D01*
X132295730Y-124655370D01*
X132296069Y-124266337D01*
X132147507Y-123906788D01*
X131872659Y-123631460D01*
X131513370Y-123482270D01*
X131124337Y-123481931D01*
X130764788Y-123630493D01*
X130600862Y-123794133D01*
X130809691Y-123291218D01*
X130810308Y-122583886D01*
X130540194Y-121930160D01*
X130040471Y-121429564D01*
X129872943Y-121360000D01*
X143202000Y-121360000D01*
X143202000Y-129540000D01*
X143256046Y-129811705D01*
X143409954Y-130042046D01*
X143640295Y-130195954D01*
X143912000Y-130250000D01*
X146633862Y-130250000D01*
X146563759Y-130295110D01*
X146418769Y-130507310D01*
X146367760Y-130759200D01*
X146367760Y-132791200D01*
X146412038Y-133026517D01*
X146551110Y-133242641D01*
X146763310Y-133387631D01*
X147015200Y-133438640D01*
X149047200Y-133438640D01*
X149282517Y-133394362D01*
X149498641Y-133255290D01*
X149600398Y-133106363D01*
X149939390Y-133332870D01*
X150571200Y-133458545D01*
X151203010Y-133332870D01*
X151738633Y-132974978D01*
X152096525Y-132439355D01*
X152222200Y-131807545D01*
X152222200Y-131742855D01*
X152096525Y-131111045D01*
X151738633Y-130575422D01*
X151251605Y-130250000D01*
X154230000Y-130250000D01*
X154230000Y-169470000D01*
X143912000Y-169470000D01*
X143640295Y-169524046D01*
X143409954Y-169677954D01*
X143256046Y-169908295D01*
X143202000Y-170180000D01*
X143202000Y-178360000D01*
X93420000Y-178360000D01*
X93420000Y-175735655D01*
X94488000Y-175735655D01*
X94488000Y-175800345D01*
X94613675Y-176432155D01*
X94971567Y-176967778D01*
X95507190Y-177325670D01*
X96139000Y-177451345D01*
X96770810Y-177325670D01*
X97110792Y-177098501D01*
X97198910Y-177235441D01*
X97411110Y-177380431D01*
X97663000Y-177431440D01*
X99695000Y-177431440D01*
X99930317Y-177387162D01*
X100146441Y-177248090D01*
X100291431Y-177035890D01*
X100342440Y-176784000D01*
X100342440Y-174752000D01*
X100298162Y-174516683D01*
X100160416Y-174302619D01*
X136850613Y-174302619D01*
X137190155Y-175124372D01*
X137818321Y-175753636D01*
X138639481Y-176094611D01*
X139528619Y-176095387D01*
X140350372Y-175755845D01*
X140979636Y-175127679D01*
X141320611Y-174306519D01*
X141321387Y-173417381D01*
X140981845Y-172595628D01*
X140353679Y-171966364D01*
X139532519Y-171625389D01*
X138643381Y-171624613D01*
X137821628Y-171964155D01*
X137192364Y-172592321D01*
X136851389Y-173413481D01*
X136850613Y-174302619D01*
X100160416Y-174302619D01*
X100159090Y-174300559D01*
X99946890Y-174155569D01*
X99695000Y-174104560D01*
X97663000Y-174104560D01*
X97427683Y-174148838D01*
X97211559Y-174287910D01*
X97109802Y-174436837D01*
X96770810Y-174210330D01*
X96139000Y-174084655D01*
X95507190Y-174210330D01*
X94971567Y-174568222D01*
X94613675Y-175103845D01*
X94488000Y-175735655D01*
X93420000Y-175735655D01*
X93420000Y-172116750D01*
X94513400Y-172116750D01*
X94513400Y-173074909D01*
X94610073Y-173308298D01*
X94788701Y-173486927D01*
X95022090Y-173583600D01*
X95980250Y-173583600D01*
X96139000Y-173424850D01*
X96139000Y-171958000D01*
X96393000Y-171958000D01*
X96393000Y-173424850D01*
X96551750Y-173583600D01*
X97509910Y-173583600D01*
X97743299Y-173486927D01*
X97921927Y-173308298D01*
X98018600Y-173074909D01*
X98018600Y-172116750D01*
X97859850Y-171958000D01*
X96393000Y-171958000D01*
X96139000Y-171958000D01*
X94672150Y-171958000D01*
X94513400Y-172116750D01*
X93420000Y-172116750D01*
X93420000Y-170587091D01*
X94513400Y-170587091D01*
X94513400Y-171545250D01*
X94672150Y-171704000D01*
X96139000Y-171704000D01*
X96139000Y-170237150D01*
X96393000Y-170237150D01*
X96393000Y-171704000D01*
X97859850Y-171704000D01*
X98018600Y-171545250D01*
X98018600Y-170587091D01*
X97921927Y-170353702D01*
X97743299Y-170175073D01*
X97509910Y-170078400D01*
X96551750Y-170078400D01*
X96393000Y-170237150D01*
X96139000Y-170237150D01*
X95980250Y-170078400D01*
X95022090Y-170078400D01*
X94788701Y-170175073D01*
X94610073Y-170353702D01*
X94513400Y-170587091D01*
X93420000Y-170587091D01*
X93420000Y-168849663D01*
X106717931Y-168849663D01*
X106866493Y-169209212D01*
X107141341Y-169484540D01*
X107500630Y-169633730D01*
X107889663Y-169634069D01*
X108249212Y-169485507D01*
X108524540Y-169210659D01*
X108621703Y-168976663D01*
X112686931Y-168976663D01*
X112835493Y-169336212D01*
X113110341Y-169611540D01*
X113469630Y-169760730D01*
X113858663Y-169761069D01*
X114218212Y-169612507D01*
X114493540Y-169337659D01*
X114642730Y-168978370D01*
X114642731Y-168976663D01*
X127926931Y-168976663D01*
X128075493Y-169336212D01*
X128350341Y-169611540D01*
X128709630Y-169760730D01*
X129098663Y-169761069D01*
X129458212Y-169612507D01*
X129733540Y-169337659D01*
X129882730Y-168978370D01*
X129883056Y-168603827D01*
X130128341Y-168849540D01*
X130487630Y-168998730D01*
X130876663Y-168999069D01*
X131230291Y-168852954D01*
X131377493Y-169209212D01*
X131652341Y-169484540D01*
X132011630Y-169633730D01*
X132400663Y-169634069D01*
X132760212Y-169485507D01*
X133035540Y-169210659D01*
X133184730Y-168851370D01*
X133185069Y-168462337D01*
X133036507Y-168102788D01*
X132761659Y-167827460D01*
X132402370Y-167678270D01*
X132013337Y-167677931D01*
X131659709Y-167824046D01*
X131512507Y-167467788D01*
X131237659Y-167192460D01*
X130878370Y-167043270D01*
X130489337Y-167042931D01*
X130129788Y-167191493D01*
X129854460Y-167466341D01*
X129705270Y-167825630D01*
X129704944Y-168200173D01*
X129459659Y-167954460D01*
X129100370Y-167805270D01*
X128711337Y-167804931D01*
X128351788Y-167953493D01*
X128076460Y-168228341D01*
X127927270Y-168587630D01*
X127926931Y-168976663D01*
X114642731Y-168976663D01*
X114643069Y-168589337D01*
X114494507Y-168229788D01*
X114219659Y-167954460D01*
X113860370Y-167805270D01*
X113471337Y-167804931D01*
X113111788Y-167953493D01*
X112836460Y-168228341D01*
X112687270Y-168587630D01*
X112686931Y-168976663D01*
X108621703Y-168976663D01*
X108673730Y-168851370D01*
X108674069Y-168462337D01*
X108525507Y-168102788D01*
X108250659Y-167827460D01*
X107891370Y-167678270D01*
X107502337Y-167677931D01*
X107142788Y-167826493D01*
X106867460Y-168101341D01*
X106718270Y-168460630D01*
X106717931Y-168849663D01*
X93420000Y-168849663D01*
X93420000Y-161874000D01*
X145164560Y-161874000D01*
X145164560Y-163574000D01*
X145208838Y-163809317D01*
X145315759Y-163975477D01*
X145215569Y-164122110D01*
X145164560Y-164374000D01*
X145164560Y-166074000D01*
X145208838Y-166309317D01*
X145347910Y-166525441D01*
X145560110Y-166670431D01*
X145812000Y-166721440D01*
X147812000Y-166721440D01*
X148047317Y-166677162D01*
X148263441Y-166538090D01*
X148408431Y-166325890D01*
X148459440Y-166074000D01*
X148459440Y-164374000D01*
X148415162Y-164138683D01*
X148308241Y-163972523D01*
X148408431Y-163825890D01*
X148459440Y-163574000D01*
X148459440Y-161874000D01*
X148415162Y-161638683D01*
X148309518Y-161474508D01*
X148350327Y-161433699D01*
X148447000Y-161200310D01*
X148447000Y-160509750D01*
X148288250Y-160351000D01*
X146939000Y-160351000D01*
X146939000Y-160371000D01*
X146685000Y-160371000D01*
X146685000Y-160351000D01*
X145335750Y-160351000D01*
X145177000Y-160509750D01*
X145177000Y-161200310D01*
X145273673Y-161433699D01*
X145315634Y-161475660D01*
X145215569Y-161622110D01*
X145164560Y-161874000D01*
X93420000Y-161874000D01*
X93420000Y-160848663D01*
X93509931Y-160848663D01*
X93658493Y-161208212D01*
X93933341Y-161483540D01*
X94292630Y-161632730D01*
X94681663Y-161633069D01*
X95041212Y-161484507D01*
X95316540Y-161209659D01*
X95465730Y-160850370D01*
X95466069Y-160461337D01*
X95363733Y-160213663D01*
X126783931Y-160213663D01*
X126932493Y-160573212D01*
X127207341Y-160848540D01*
X127566630Y-160997730D01*
X127955663Y-160998069D01*
X128315212Y-160849507D01*
X128590540Y-160574659D01*
X128739730Y-160215370D01*
X128739731Y-160213663D01*
X129704931Y-160213663D01*
X129853493Y-160573212D01*
X130128341Y-160848540D01*
X130487630Y-160997730D01*
X130876663Y-160998069D01*
X131236212Y-160849507D01*
X131511540Y-160574659D01*
X131660730Y-160215370D01*
X131661069Y-159826337D01*
X131512507Y-159466788D01*
X131293791Y-159247690D01*
X145177000Y-159247690D01*
X145177000Y-159938250D01*
X145335750Y-160097000D01*
X146685000Y-160097000D01*
X146685000Y-158897750D01*
X146939000Y-158897750D01*
X146939000Y-160097000D01*
X148288250Y-160097000D01*
X148447000Y-159938250D01*
X148447000Y-159247690D01*
X148350327Y-159014301D01*
X148171698Y-158835673D01*
X147938309Y-158739000D01*
X147097750Y-158739000D01*
X146939000Y-158897750D01*
X146685000Y-158897750D01*
X146526250Y-158739000D01*
X145685691Y-158739000D01*
X145452302Y-158835673D01*
X145273673Y-159014301D01*
X145177000Y-159247690D01*
X131293791Y-159247690D01*
X131237659Y-159191460D01*
X130878370Y-159042270D01*
X130489337Y-159041931D01*
X130129788Y-159190493D01*
X129854460Y-159465341D01*
X129705270Y-159824630D01*
X129704931Y-160213663D01*
X128739731Y-160213663D01*
X128740069Y-159826337D01*
X128591507Y-159466788D01*
X128316659Y-159191460D01*
X127957370Y-159042270D01*
X127568337Y-159041931D01*
X127208788Y-159190493D01*
X126933460Y-159465341D01*
X126784270Y-159824630D01*
X126783931Y-160213663D01*
X95363733Y-160213663D01*
X95317507Y-160101788D01*
X95042659Y-159826460D01*
X94683370Y-159677270D01*
X94294337Y-159676931D01*
X93934788Y-159825493D01*
X93659460Y-160100341D01*
X93510270Y-160459630D01*
X93509931Y-160848663D01*
X93420000Y-160848663D01*
X93420000Y-154879663D01*
X96303931Y-154879663D01*
X96452493Y-155239212D01*
X96727341Y-155514540D01*
X97086630Y-155663730D01*
X97475663Y-155664069D01*
X97835212Y-155515507D01*
X98110540Y-155240659D01*
X98259730Y-154881370D01*
X98260069Y-154492337D01*
X98111507Y-154132788D01*
X97853171Y-153874000D01*
X145164560Y-153874000D01*
X145164560Y-155574000D01*
X145208838Y-155809317D01*
X145315759Y-155975477D01*
X145215569Y-156122110D01*
X145164560Y-156374000D01*
X145164560Y-158074000D01*
X145208838Y-158309317D01*
X145347910Y-158525441D01*
X145560110Y-158670431D01*
X145812000Y-158721440D01*
X147812000Y-158721440D01*
X148047317Y-158677162D01*
X148263441Y-158538090D01*
X148408431Y-158325890D01*
X148459440Y-158074000D01*
X148459440Y-156374000D01*
X148415162Y-156138683D01*
X148308241Y-155972523D01*
X148408431Y-155825890D01*
X148459440Y-155574000D01*
X148459440Y-153874000D01*
X148415162Y-153638683D01*
X148309518Y-153474508D01*
X148350327Y-153433699D01*
X148447000Y-153200310D01*
X148447000Y-152509750D01*
X148288250Y-152351000D01*
X146939000Y-152351000D01*
X146939000Y-152371000D01*
X146685000Y-152371000D01*
X146685000Y-152351000D01*
X145335750Y-152351000D01*
X145177000Y-152509750D01*
X145177000Y-153200310D01*
X145273673Y-153433699D01*
X145315634Y-153475660D01*
X145215569Y-153622110D01*
X145164560Y-153874000D01*
X97853171Y-153874000D01*
X97836659Y-153857460D01*
X97477370Y-153708270D01*
X97088337Y-153707931D01*
X96728788Y-153856493D01*
X96453460Y-154131341D01*
X96304270Y-154490630D01*
X96303931Y-154879663D01*
X93420000Y-154879663D01*
X93420000Y-152085663D01*
X126783931Y-152085663D01*
X126932493Y-152445212D01*
X127207341Y-152720540D01*
X127566630Y-152869730D01*
X127955663Y-152870069D01*
X128315212Y-152721507D01*
X128590540Y-152446659D01*
X128687703Y-152212663D01*
X129704931Y-152212663D01*
X129853493Y-152572212D01*
X130128341Y-152847540D01*
X130487630Y-152996730D01*
X130876663Y-152997069D01*
X131236212Y-152848507D01*
X131511540Y-152573659D01*
X131660730Y-152214370D01*
X131661069Y-151825337D01*
X131512507Y-151465788D01*
X131294790Y-151247690D01*
X145177000Y-151247690D01*
X145177000Y-151938250D01*
X145335750Y-152097000D01*
X146685000Y-152097000D01*
X146685000Y-150897750D01*
X146939000Y-150897750D01*
X146939000Y-152097000D01*
X148288250Y-152097000D01*
X148447000Y-151938250D01*
X148447000Y-151247690D01*
X148350327Y-151014301D01*
X148171698Y-150835673D01*
X147938309Y-150739000D01*
X147097750Y-150739000D01*
X146939000Y-150897750D01*
X146685000Y-150897750D01*
X146526250Y-150739000D01*
X145685691Y-150739000D01*
X145452302Y-150835673D01*
X145273673Y-151014301D01*
X145177000Y-151247690D01*
X131294790Y-151247690D01*
X131237659Y-151190460D01*
X130878370Y-151041270D01*
X130489337Y-151040931D01*
X130129788Y-151189493D01*
X129854460Y-151464341D01*
X129705270Y-151823630D01*
X129704931Y-152212663D01*
X128687703Y-152212663D01*
X128739730Y-152087370D01*
X128740069Y-151698337D01*
X128591507Y-151338788D01*
X128316659Y-151063460D01*
X127957370Y-150914270D01*
X127568337Y-150913931D01*
X127208788Y-151062493D01*
X126933460Y-151337341D01*
X126784270Y-151696630D01*
X126783931Y-152085663D01*
X93420000Y-152085663D01*
X93420000Y-151069663D01*
X114845931Y-151069663D01*
X114994493Y-151429212D01*
X115269341Y-151704540D01*
X115628630Y-151853730D01*
X116017663Y-151854069D01*
X116377212Y-151705507D01*
X116652540Y-151430659D01*
X116801730Y-151071370D01*
X116802069Y-150682337D01*
X116653507Y-150322788D01*
X116378659Y-150047460D01*
X116019370Y-149898270D01*
X115630337Y-149897931D01*
X115270788Y-150046493D01*
X114995460Y-150321341D01*
X114846270Y-150680630D01*
X114845931Y-151069663D01*
X93420000Y-151069663D01*
X93420000Y-148590000D01*
X93989907Y-148590000D01*
X94102946Y-149158285D01*
X94424853Y-149640054D01*
X94906622Y-149961961D01*
X95474907Y-150075000D01*
X95533093Y-150075000D01*
X96101378Y-149961961D01*
X96583147Y-149640054D01*
X96905054Y-149158285D01*
X97018093Y-148590000D01*
X96905054Y-148021715D01*
X96583147Y-147539946D01*
X96541548Y-147512150D01*
X96589317Y-147503162D01*
X96805441Y-147364090D01*
X96950431Y-147151890D01*
X97001440Y-146900000D01*
X97001440Y-146126200D01*
X99298507Y-146126200D01*
X99411546Y-146694485D01*
X99733453Y-147176254D01*
X100062626Y-147396200D01*
X99733453Y-147616146D01*
X99411546Y-148097915D01*
X99298507Y-148666200D01*
X99411546Y-149234485D01*
X99733453Y-149716254D01*
X100215222Y-150038161D01*
X100783507Y-150151200D01*
X100841693Y-150151200D01*
X101409978Y-150038161D01*
X101891747Y-149716254D01*
X102213654Y-149234485D01*
X102326693Y-148666200D01*
X102213654Y-148097915D01*
X101891747Y-147616146D01*
X101562574Y-147396200D01*
X101891747Y-147176254D01*
X102213654Y-146694485D01*
X102326693Y-146126200D01*
X102223749Y-145608663D01*
X106590931Y-145608663D01*
X106739493Y-145968212D01*
X106821040Y-146049901D01*
X106740460Y-146130341D01*
X106591270Y-146489630D01*
X106590931Y-146878663D01*
X106739493Y-147238212D01*
X106821040Y-147319901D01*
X106740460Y-147400341D01*
X106591270Y-147759630D01*
X106590931Y-148148663D01*
X106739493Y-148508212D01*
X107014341Y-148783540D01*
X107373630Y-148932730D01*
X107762663Y-148933069D01*
X108122212Y-148784507D01*
X108397540Y-148509659D01*
X108546730Y-148150370D01*
X108546842Y-148021663D01*
X111670931Y-148021663D01*
X111819493Y-148381212D01*
X112094341Y-148656540D01*
X112453630Y-148805730D01*
X112842663Y-148806069D01*
X113202212Y-148657507D01*
X113477540Y-148382659D01*
X113626730Y-148023370D01*
X113626952Y-147767663D01*
X120433931Y-147767663D01*
X120582493Y-148127212D01*
X120857341Y-148402540D01*
X121216630Y-148551730D01*
X121605663Y-148552069D01*
X121965212Y-148403507D01*
X122240540Y-148128659D01*
X122389730Y-147769370D01*
X122390069Y-147380337D01*
X122241507Y-147020788D01*
X121966659Y-146745460D01*
X121607370Y-146596270D01*
X121218337Y-146595931D01*
X120858788Y-146744493D01*
X120583460Y-147019341D01*
X120434270Y-147378630D01*
X120433931Y-147767663D01*
X113626952Y-147767663D01*
X113627069Y-147634337D01*
X113478507Y-147274788D01*
X113203659Y-146999460D01*
X112912748Y-146878663D01*
X115607931Y-146878663D01*
X115756493Y-147238212D01*
X116031341Y-147513540D01*
X116390630Y-147662730D01*
X116779663Y-147663069D01*
X117139212Y-147514507D01*
X117414540Y-147239659D01*
X117563730Y-146880370D01*
X117564069Y-146491337D01*
X117415507Y-146131788D01*
X117158169Y-145874000D01*
X145164560Y-145874000D01*
X145164560Y-147574000D01*
X145208838Y-147809317D01*
X145315759Y-147975477D01*
X145215569Y-148122110D01*
X145164560Y-148374000D01*
X145164560Y-150074000D01*
X145208838Y-150309317D01*
X145347910Y-150525441D01*
X145560110Y-150670431D01*
X145812000Y-150721440D01*
X147812000Y-150721440D01*
X148047317Y-150677162D01*
X148263441Y-150538090D01*
X148408431Y-150325890D01*
X148459440Y-150074000D01*
X148459440Y-148374000D01*
X148415162Y-148138683D01*
X148308241Y-147972523D01*
X148408431Y-147825890D01*
X148459440Y-147574000D01*
X148459440Y-145874000D01*
X148415162Y-145638683D01*
X148309518Y-145474508D01*
X148350327Y-145433699D01*
X148447000Y-145200310D01*
X148447000Y-144509750D01*
X148288250Y-144351000D01*
X146939000Y-144351000D01*
X146939000Y-144371000D01*
X146685000Y-144371000D01*
X146685000Y-144351000D01*
X145335750Y-144351000D01*
X145177000Y-144509750D01*
X145177000Y-145200310D01*
X145273673Y-145433699D01*
X145315634Y-145475660D01*
X145215569Y-145622110D01*
X145164560Y-145874000D01*
X117158169Y-145874000D01*
X117140659Y-145856460D01*
X116781370Y-145707270D01*
X116392337Y-145706931D01*
X116032788Y-145855493D01*
X115757460Y-146130341D01*
X115608270Y-146489630D01*
X115607931Y-146878663D01*
X112912748Y-146878663D01*
X112844370Y-146850270D01*
X112455337Y-146849931D01*
X112095788Y-146998493D01*
X111820460Y-147273341D01*
X111671270Y-147632630D01*
X111670931Y-148021663D01*
X108546842Y-148021663D01*
X108547069Y-147761337D01*
X108398507Y-147401788D01*
X108316960Y-147320099D01*
X108397540Y-147239659D01*
X108546730Y-146880370D01*
X108547069Y-146491337D01*
X108398507Y-146131788D01*
X108316960Y-146050099D01*
X108397540Y-145969659D01*
X108546730Y-145610370D01*
X108547069Y-145221337D01*
X108398507Y-144861788D01*
X108256630Y-144719663D01*
X116115931Y-144719663D01*
X116264493Y-145079212D01*
X116539341Y-145354540D01*
X116898630Y-145503730D01*
X117287663Y-145504069D01*
X117647212Y-145355507D01*
X117922540Y-145080659D01*
X118071730Y-144721370D01*
X118072069Y-144332337D01*
X117923507Y-143972788D01*
X117648659Y-143697460D01*
X117289370Y-143548270D01*
X116900337Y-143547931D01*
X116540788Y-143696493D01*
X116265460Y-143971341D01*
X116116270Y-144330630D01*
X116115931Y-144719663D01*
X108256630Y-144719663D01*
X108123659Y-144586460D01*
X107764370Y-144437270D01*
X107375337Y-144436931D01*
X107015788Y-144585493D01*
X106740460Y-144860341D01*
X106591270Y-145219630D01*
X106590931Y-145608663D01*
X102223749Y-145608663D01*
X102213654Y-145557915D01*
X101891747Y-145076146D01*
X101850148Y-145048350D01*
X101897917Y-145039362D01*
X102114041Y-144900290D01*
X102259031Y-144688090D01*
X102310040Y-144436200D01*
X102310040Y-143703663D01*
X111797931Y-143703663D01*
X111946493Y-144063212D01*
X112221341Y-144338540D01*
X112580630Y-144487730D01*
X112969663Y-144488069D01*
X113329212Y-144339507D01*
X113604540Y-144064659D01*
X113753730Y-143705370D01*
X113754069Y-143316337D01*
X113725705Y-143247690D01*
X145177000Y-143247690D01*
X145177000Y-143938250D01*
X145335750Y-144097000D01*
X146685000Y-144097000D01*
X146685000Y-142897750D01*
X146939000Y-142897750D01*
X146939000Y-144097000D01*
X148288250Y-144097000D01*
X148447000Y-143938250D01*
X148447000Y-143247690D01*
X148350327Y-143014301D01*
X148171698Y-142835673D01*
X147938309Y-142739000D01*
X147097750Y-142739000D01*
X146939000Y-142897750D01*
X146685000Y-142897750D01*
X146526250Y-142739000D01*
X145685691Y-142739000D01*
X145452302Y-142835673D01*
X145273673Y-143014301D01*
X145177000Y-143247690D01*
X113725705Y-143247690D01*
X113605507Y-142956788D01*
X113330659Y-142681460D01*
X112971370Y-142532270D01*
X112582337Y-142531931D01*
X112222788Y-142680493D01*
X111947460Y-142955341D01*
X111798270Y-143314630D01*
X111797931Y-143703663D01*
X102310040Y-143703663D01*
X102310040Y-142736200D01*
X102265762Y-142500883D01*
X102126690Y-142284759D01*
X101914490Y-142139769D01*
X101662600Y-142088760D01*
X99962600Y-142088760D01*
X99727283Y-142133038D01*
X99511159Y-142272110D01*
X99366169Y-142484310D01*
X99315160Y-142736200D01*
X99315160Y-144436200D01*
X99359438Y-144671517D01*
X99498510Y-144887641D01*
X99710710Y-145032631D01*
X99778141Y-145046286D01*
X99733453Y-145076146D01*
X99411546Y-145557915D01*
X99298507Y-146126200D01*
X97001440Y-146126200D01*
X97001440Y-145200000D01*
X96957162Y-144964683D01*
X96818090Y-144748559D01*
X96605890Y-144603569D01*
X96354000Y-144552560D01*
X94654000Y-144552560D01*
X94418683Y-144596838D01*
X94202559Y-144735910D01*
X94057569Y-144948110D01*
X94006560Y-145200000D01*
X94006560Y-146900000D01*
X94050838Y-147135317D01*
X94189910Y-147351441D01*
X94402110Y-147496431D01*
X94469541Y-147510086D01*
X94424853Y-147539946D01*
X94102946Y-148021715D01*
X93989907Y-148590000D01*
X93420000Y-148590000D01*
X93420000Y-141798663D01*
X110781931Y-141798663D01*
X110930493Y-142158212D01*
X111205341Y-142433540D01*
X111564630Y-142582730D01*
X111953663Y-142583069D01*
X112313212Y-142434507D01*
X112588540Y-142159659D01*
X112737730Y-141800370D01*
X112738069Y-141411337D01*
X112589507Y-141051788D01*
X112314659Y-140776460D01*
X111955370Y-140627270D01*
X111566337Y-140626931D01*
X111206788Y-140775493D01*
X110931460Y-141050341D01*
X110782270Y-141409630D01*
X110781931Y-141798663D01*
X93420000Y-141798663D01*
X93420000Y-139766663D01*
X133260931Y-139766663D01*
X133409493Y-140126212D01*
X133684341Y-140401540D01*
X134043630Y-140550730D01*
X134432663Y-140551069D01*
X134792212Y-140402507D01*
X135067540Y-140127659D01*
X135216730Y-139768370D01*
X135217069Y-139379337D01*
X135068507Y-139019788D01*
X134793659Y-138744460D01*
X134434370Y-138595270D01*
X134045337Y-138594931D01*
X133685788Y-138743493D01*
X133410460Y-139018341D01*
X133261270Y-139377630D01*
X133260931Y-139766663D01*
X93420000Y-139766663D01*
X93420000Y-135374000D01*
X145164560Y-135374000D01*
X145164560Y-137074000D01*
X145208838Y-137309317D01*
X145315759Y-137475477D01*
X145215569Y-137622110D01*
X145164560Y-137874000D01*
X145164560Y-139574000D01*
X145208838Y-139809317D01*
X145315759Y-139975477D01*
X145215569Y-140122110D01*
X145164560Y-140374000D01*
X145164560Y-142074000D01*
X145208838Y-142309317D01*
X145347910Y-142525441D01*
X145560110Y-142670431D01*
X145812000Y-142721440D01*
X147812000Y-142721440D01*
X148047317Y-142677162D01*
X148263441Y-142538090D01*
X148408431Y-142325890D01*
X148459440Y-142074000D01*
X148459440Y-140374000D01*
X148415162Y-140138683D01*
X148308241Y-139972523D01*
X148408431Y-139825890D01*
X148459440Y-139574000D01*
X148459440Y-137874000D01*
X148415162Y-137638683D01*
X148308241Y-137472523D01*
X148408431Y-137325890D01*
X148459440Y-137074000D01*
X148459440Y-135374000D01*
X148415162Y-135138683D01*
X148276090Y-134922559D01*
X148063890Y-134777569D01*
X147812000Y-134726560D01*
X145812000Y-134726560D01*
X145576683Y-134770838D01*
X145360559Y-134909910D01*
X145215569Y-135122110D01*
X145164560Y-135374000D01*
X93420000Y-135374000D01*
X93420000Y-132492750D01*
X95035000Y-132492750D01*
X95035000Y-133183309D01*
X95131673Y-133416698D01*
X95310301Y-133595327D01*
X95543690Y-133692000D01*
X96234250Y-133692000D01*
X96393000Y-133533250D01*
X96393000Y-132334000D01*
X95193750Y-132334000D01*
X95035000Y-132492750D01*
X93420000Y-132492750D01*
X93420000Y-131230691D01*
X95035000Y-131230691D01*
X95035000Y-131921250D01*
X95193750Y-132080000D01*
X96393000Y-132080000D01*
X96393000Y-130880750D01*
X96647000Y-130880750D01*
X96647000Y-132080000D01*
X96667000Y-132080000D01*
X96667000Y-132334000D01*
X96647000Y-132334000D01*
X96647000Y-133533250D01*
X96805750Y-133692000D01*
X97496310Y-133692000D01*
X97729699Y-133595327D01*
X97908327Y-133416698D01*
X97980597Y-133242223D01*
X98009946Y-133286147D01*
X98491715Y-133608054D01*
X99060000Y-133721093D01*
X99628285Y-133608054D01*
X100110054Y-133286147D01*
X100330000Y-132956974D01*
X100549946Y-133286147D01*
X101031715Y-133608054D01*
X101600000Y-133721093D01*
X102168285Y-133608054D01*
X102650054Y-133286147D01*
X102870000Y-132956974D01*
X103089946Y-133286147D01*
X103571715Y-133608054D01*
X104140000Y-133721093D01*
X104708285Y-133608054D01*
X105190054Y-133286147D01*
X105410000Y-132956974D01*
X105629946Y-133286147D01*
X106111715Y-133608054D01*
X106680000Y-133721093D01*
X107248285Y-133608054D01*
X107730054Y-133286147D01*
X107950000Y-132956974D01*
X108169946Y-133286147D01*
X108651715Y-133608054D01*
X109220000Y-133721093D01*
X109788285Y-133608054D01*
X110270054Y-133286147D01*
X110490000Y-132956974D01*
X110709946Y-133286147D01*
X111191715Y-133608054D01*
X111760000Y-133721093D01*
X112328285Y-133608054D01*
X112810054Y-133286147D01*
X113030000Y-132956974D01*
X113249946Y-133286147D01*
X113731715Y-133608054D01*
X114300000Y-133721093D01*
X114868285Y-133608054D01*
X115350054Y-133286147D01*
X115671961Y-132804378D01*
X115785000Y-132236093D01*
X115785000Y-132177907D01*
X115671961Y-131609622D01*
X115350054Y-131127853D01*
X114868285Y-130805946D01*
X114300000Y-130692907D01*
X113731715Y-130805946D01*
X113249946Y-131127853D01*
X113030000Y-131457026D01*
X112810054Y-131127853D01*
X112328285Y-130805946D01*
X111760000Y-130692907D01*
X111191715Y-130805946D01*
X110709946Y-131127853D01*
X110490000Y-131457026D01*
X110270054Y-131127853D01*
X109788285Y-130805946D01*
X109220000Y-130692907D01*
X108651715Y-130805946D01*
X108169946Y-131127853D01*
X107950000Y-131457026D01*
X107730054Y-131127853D01*
X107248285Y-130805946D01*
X106680000Y-130692907D01*
X106111715Y-130805946D01*
X105629946Y-131127853D01*
X105410000Y-131457026D01*
X105190054Y-131127853D01*
X104708285Y-130805946D01*
X104140000Y-130692907D01*
X103571715Y-130805946D01*
X103089946Y-131127853D01*
X102870000Y-131457026D01*
X102650054Y-131127853D01*
X102168285Y-130805946D01*
X101600000Y-130692907D01*
X101031715Y-130805946D01*
X100549946Y-131127853D01*
X100330000Y-131457026D01*
X100110054Y-131127853D01*
X99628285Y-130805946D01*
X99060000Y-130692907D01*
X98491715Y-130805946D01*
X98009946Y-131127853D01*
X97980597Y-131171777D01*
X97908327Y-130997302D01*
X97729699Y-130818673D01*
X97496310Y-130722000D01*
X96805750Y-130722000D01*
X96647000Y-130880750D01*
X96393000Y-130880750D01*
X96234250Y-130722000D01*
X95543690Y-130722000D01*
X95310301Y-130818673D01*
X95131673Y-130997302D01*
X95035000Y-131230691D01*
X93420000Y-131230691D01*
X93420000Y-128209663D01*
X117258931Y-128209663D01*
X117407493Y-128569212D01*
X117682341Y-128844540D01*
X118041630Y-128993730D01*
X118430663Y-128994069D01*
X118790212Y-128845507D01*
X119065540Y-128570659D01*
X119214730Y-128211370D01*
X119215069Y-127822337D01*
X119066507Y-127462788D01*
X118791659Y-127187460D01*
X118432370Y-127038270D01*
X118043337Y-127037931D01*
X117683788Y-127186493D01*
X117408460Y-127461341D01*
X117259270Y-127820630D01*
X117258931Y-128209663D01*
X93420000Y-128209663D01*
X93420000Y-121360000D01*
X125015263Y-121360000D01*
X124851160Y-121427806D01*
X124851160Y-121427806D01*
G37*
X124851160Y-121427806D02*
X124350564Y-121927529D01*
X124079309Y-122580782D01*
X124078692Y-123288114D01*
X124095927Y-123329825D01*
X123728156Y-123329504D01*
X123312573Y-123501219D01*
X122994337Y-123818900D01*
X122821897Y-124234183D01*
X122821504Y-124683844D01*
X122993219Y-125099427D01*
X123310900Y-125417663D01*
X123451223Y-125475930D01*
X123312573Y-125533219D01*
X122994337Y-125850900D01*
X122821897Y-126266183D01*
X122821504Y-126715844D01*
X122993219Y-127131427D01*
X123096293Y-127234682D01*
X122996460Y-127334341D01*
X122847270Y-127693630D01*
X122846931Y-128082663D01*
X122995493Y-128442212D01*
X123270341Y-128717540D01*
X123629630Y-128866730D01*
X124018663Y-128867069D01*
X124246037Y-128773120D01*
X124348806Y-129021840D01*
X124848529Y-129522436D01*
X125501782Y-129793691D01*
X126209114Y-129794308D01*
X126862840Y-129524194D01*
X127363436Y-129024471D01*
X127444364Y-128829575D01*
X127523806Y-129021840D01*
X128023529Y-129522436D01*
X128676782Y-129793691D01*
X129384114Y-129794308D01*
X130037840Y-129524194D01*
X130538436Y-129024471D01*
X130809691Y-128371218D01*
X130810308Y-127663886D01*
X130540194Y-127010160D01*
X130040471Y-126509564D01*
X129726933Y-126379371D01*
X129989663Y-126117100D01*
X130162103Y-125701817D01*
X130162496Y-125252156D01*
X129990781Y-124836573D01*
X129727212Y-124572543D01*
X130037840Y-124444194D01*
X130427034Y-124055678D01*
X130340270Y-124264630D01*
X130339931Y-124653663D01*
X130488493Y-125013212D01*
X130763341Y-125288540D01*
X131062162Y-125412621D01*
X130764788Y-125535493D01*
X130489460Y-125810341D01*
X130340270Y-126169630D01*
X130339931Y-126558663D01*
X130488493Y-126918212D01*
X130763341Y-127193540D01*
X131122630Y-127342730D01*
X131511663Y-127343069D01*
X131871212Y-127194507D01*
X132146540Y-126919659D01*
X132295730Y-126560370D01*
X132295954Y-126302619D01*
X136850613Y-126302619D01*
X137190155Y-127124372D01*
X137818321Y-127753636D01*
X138639481Y-128094611D01*
X139528619Y-128095387D01*
X140350372Y-127755845D01*
X140979636Y-127127679D01*
X141320611Y-126306519D01*
X141321387Y-125417381D01*
X140981845Y-124595628D01*
X140353679Y-123966364D01*
X139532519Y-123625389D01*
X138643381Y-123624613D01*
X137821628Y-123964155D01*
X137192364Y-124592321D01*
X136851389Y-125413481D01*
X136850613Y-126302619D01*
X132295954Y-126302619D01*
X132296069Y-126171337D01*
X132147507Y-125811788D01*
X131872659Y-125536460D01*
X131573838Y-125412379D01*
X131871212Y-125289507D01*
X132146540Y-125014659D01*
X132295730Y-124655370D01*
X132296069Y-124266337D01*
X132147507Y-123906788D01*
X131872659Y-123631460D01*
X131513370Y-123482270D01*
X131124337Y-123481931D01*
X130764788Y-123630493D01*
X130600862Y-123794133D01*
X130809691Y-123291218D01*
X130810308Y-122583886D01*
X130540194Y-121930160D01*
X130040471Y-121429564D01*
X129872943Y-121360000D01*
X143202000Y-121360000D01*
X143202000Y-129540000D01*
X143256046Y-129811705D01*
X143409954Y-130042046D01*
X143640295Y-130195954D01*
X143912000Y-130250000D01*
X146633862Y-130250000D01*
X146563759Y-130295110D01*
X146418769Y-130507310D01*
X146367760Y-130759200D01*
X146367760Y-132791200D01*
X146412038Y-133026517D01*
X146551110Y-133242641D01*
X146763310Y-133387631D01*
X147015200Y-133438640D01*
X149047200Y-133438640D01*
X149282517Y-133394362D01*
X149498641Y-133255290D01*
X149600398Y-133106363D01*
X149939390Y-133332870D01*
X150571200Y-133458545D01*
X151203010Y-133332870D01*
X151738633Y-132974978D01*
X152096525Y-132439355D01*
X152222200Y-131807545D01*
X152222200Y-131742855D01*
X152096525Y-131111045D01*
X151738633Y-130575422D01*
X151251605Y-130250000D01*
X154230000Y-130250000D01*
X154230000Y-169470000D01*
X143912000Y-169470000D01*
X143640295Y-169524046D01*
X143409954Y-169677954D01*
X143256046Y-169908295D01*
X143202000Y-170180000D01*
X143202000Y-178360000D01*
X93420000Y-178360000D01*
X93420000Y-175735655D01*
X94488000Y-175735655D01*
X94488000Y-175800345D01*
X94613675Y-176432155D01*
X94971567Y-176967778D01*
X95507190Y-177325670D01*
X96139000Y-177451345D01*
X96770810Y-177325670D01*
X97110792Y-177098501D01*
X97198910Y-177235441D01*
X97411110Y-177380431D01*
X97663000Y-177431440D01*
X99695000Y-177431440D01*
X99930317Y-177387162D01*
X100146441Y-177248090D01*
X100291431Y-177035890D01*
X100342440Y-176784000D01*
X100342440Y-174752000D01*
X100298162Y-174516683D01*
X100160416Y-174302619D01*
X136850613Y-174302619D01*
X137190155Y-175124372D01*
X137818321Y-175753636D01*
X138639481Y-176094611D01*
X139528619Y-176095387D01*
X140350372Y-175755845D01*
X140979636Y-175127679D01*
X141320611Y-174306519D01*
X141321387Y-173417381D01*
X140981845Y-172595628D01*
X140353679Y-171966364D01*
X139532519Y-171625389D01*
X138643381Y-171624613D01*
X137821628Y-171964155D01*
X137192364Y-172592321D01*
X136851389Y-173413481D01*
X136850613Y-174302619D01*
X100160416Y-174302619D01*
X100159090Y-174300559D01*
X99946890Y-174155569D01*
X99695000Y-174104560D01*
X97663000Y-174104560D01*
X97427683Y-174148838D01*
X97211559Y-174287910D01*
X97109802Y-174436837D01*
X96770810Y-174210330D01*
X96139000Y-174084655D01*
X95507190Y-174210330D01*
X94971567Y-174568222D01*
X94613675Y-175103845D01*
X94488000Y-175735655D01*
X93420000Y-175735655D01*
X93420000Y-172116750D01*
X94513400Y-172116750D01*
X94513400Y-173074909D01*
X94610073Y-173308298D01*
X94788701Y-173486927D01*
X95022090Y-173583600D01*
X95980250Y-173583600D01*
X96139000Y-173424850D01*
X96139000Y-171958000D01*
X96393000Y-171958000D01*
X96393000Y-173424850D01*
X96551750Y-173583600D01*
X97509910Y-173583600D01*
X97743299Y-173486927D01*
X97921927Y-173308298D01*
X98018600Y-173074909D01*
X98018600Y-172116750D01*
X97859850Y-171958000D01*
X96393000Y-171958000D01*
X96139000Y-171958000D01*
X94672150Y-171958000D01*
X94513400Y-172116750D01*
X93420000Y-172116750D01*
X93420000Y-170587091D01*
X94513400Y-170587091D01*
X94513400Y-171545250D01*
X94672150Y-171704000D01*
X96139000Y-171704000D01*
X96139000Y-170237150D01*
X96393000Y-170237150D01*
X96393000Y-171704000D01*
X97859850Y-171704000D01*
X98018600Y-171545250D01*
X98018600Y-170587091D01*
X97921927Y-170353702D01*
X97743299Y-170175073D01*
X97509910Y-170078400D01*
X96551750Y-170078400D01*
X96393000Y-170237150D01*
X96139000Y-170237150D01*
X95980250Y-170078400D01*
X95022090Y-170078400D01*
X94788701Y-170175073D01*
X94610073Y-170353702D01*
X94513400Y-170587091D01*
X93420000Y-170587091D01*
X93420000Y-168849663D01*
X106717931Y-168849663D01*
X106866493Y-169209212D01*
X107141341Y-169484540D01*
X107500630Y-169633730D01*
X107889663Y-169634069D01*
X108249212Y-169485507D01*
X108524540Y-169210659D01*
X108621703Y-168976663D01*
X112686931Y-168976663D01*
X112835493Y-169336212D01*
X113110341Y-169611540D01*
X113469630Y-169760730D01*
X113858663Y-169761069D01*
X114218212Y-169612507D01*
X114493540Y-169337659D01*
X114642730Y-168978370D01*
X114642731Y-168976663D01*
X127926931Y-168976663D01*
X128075493Y-169336212D01*
X128350341Y-169611540D01*
X128709630Y-169760730D01*
X129098663Y-169761069D01*
X129458212Y-169612507D01*
X129733540Y-169337659D01*
X129882730Y-168978370D01*
X129883056Y-168603827D01*
X130128341Y-168849540D01*
X130487630Y-168998730D01*
X130876663Y-168999069D01*
X131230291Y-168852954D01*
X131377493Y-169209212D01*
X131652341Y-169484540D01*
X132011630Y-169633730D01*
X132400663Y-169634069D01*
X132760212Y-169485507D01*
X133035540Y-169210659D01*
X133184730Y-168851370D01*
X133185069Y-168462337D01*
X133036507Y-168102788D01*
X132761659Y-167827460D01*
X132402370Y-167678270D01*
X132013337Y-167677931D01*
X131659709Y-167824046D01*
X131512507Y-167467788D01*
X131237659Y-167192460D01*
X130878370Y-167043270D01*
X130489337Y-167042931D01*
X130129788Y-167191493D01*
X129854460Y-167466341D01*
X129705270Y-167825630D01*
X129704944Y-168200173D01*
X129459659Y-167954460D01*
X129100370Y-167805270D01*
X128711337Y-167804931D01*
X128351788Y-167953493D01*
X128076460Y-168228341D01*
X127927270Y-168587630D01*
X127926931Y-168976663D01*
X114642731Y-168976663D01*
X114643069Y-168589337D01*
X114494507Y-168229788D01*
X114219659Y-167954460D01*
X113860370Y-167805270D01*
X113471337Y-167804931D01*
X113111788Y-167953493D01*
X112836460Y-168228341D01*
X112687270Y-168587630D01*
X112686931Y-168976663D01*
X108621703Y-168976663D01*
X108673730Y-168851370D01*
X108674069Y-168462337D01*
X108525507Y-168102788D01*
X108250659Y-167827460D01*
X107891370Y-167678270D01*
X107502337Y-167677931D01*
X107142788Y-167826493D01*
X106867460Y-168101341D01*
X106718270Y-168460630D01*
X106717931Y-168849663D01*
X93420000Y-168849663D01*
X93420000Y-161874000D01*
X145164560Y-161874000D01*
X145164560Y-163574000D01*
X145208838Y-163809317D01*
X145315759Y-163975477D01*
X145215569Y-164122110D01*
X145164560Y-164374000D01*
X145164560Y-166074000D01*
X145208838Y-166309317D01*
X145347910Y-166525441D01*
X145560110Y-166670431D01*
X145812000Y-166721440D01*
X147812000Y-166721440D01*
X148047317Y-166677162D01*
X148263441Y-166538090D01*
X148408431Y-166325890D01*
X148459440Y-166074000D01*
X148459440Y-164374000D01*
X148415162Y-164138683D01*
X148308241Y-163972523D01*
X148408431Y-163825890D01*
X148459440Y-163574000D01*
X148459440Y-161874000D01*
X148415162Y-161638683D01*
X148309518Y-161474508D01*
X148350327Y-161433699D01*
X148447000Y-161200310D01*
X148447000Y-160509750D01*
X148288250Y-160351000D01*
X146939000Y-160351000D01*
X146939000Y-160371000D01*
X146685000Y-160371000D01*
X146685000Y-160351000D01*
X145335750Y-160351000D01*
X145177000Y-160509750D01*
X145177000Y-161200310D01*
X145273673Y-161433699D01*
X145315634Y-161475660D01*
X145215569Y-161622110D01*
X145164560Y-161874000D01*
X93420000Y-161874000D01*
X93420000Y-160848663D01*
X93509931Y-160848663D01*
X93658493Y-161208212D01*
X93933341Y-161483540D01*
X94292630Y-161632730D01*
X94681663Y-161633069D01*
X95041212Y-161484507D01*
X95316540Y-161209659D01*
X95465730Y-160850370D01*
X95466069Y-160461337D01*
X95363733Y-160213663D01*
X126783931Y-160213663D01*
X126932493Y-160573212D01*
X127207341Y-160848540D01*
X127566630Y-160997730D01*
X127955663Y-160998069D01*
X128315212Y-160849507D01*
X128590540Y-160574659D01*
X128739730Y-160215370D01*
X128739731Y-160213663D01*
X129704931Y-160213663D01*
X129853493Y-160573212D01*
X130128341Y-160848540D01*
X130487630Y-160997730D01*
X130876663Y-160998069D01*
X131236212Y-160849507D01*
X131511540Y-160574659D01*
X131660730Y-160215370D01*
X131661069Y-159826337D01*
X131512507Y-159466788D01*
X131293791Y-159247690D01*
X145177000Y-159247690D01*
X145177000Y-159938250D01*
X145335750Y-160097000D01*
X146685000Y-160097000D01*
X146685000Y-158897750D01*
X146939000Y-158897750D01*
X146939000Y-160097000D01*
X148288250Y-160097000D01*
X148447000Y-159938250D01*
X148447000Y-159247690D01*
X148350327Y-159014301D01*
X148171698Y-158835673D01*
X147938309Y-158739000D01*
X147097750Y-158739000D01*
X146939000Y-158897750D01*
X146685000Y-158897750D01*
X146526250Y-158739000D01*
X145685691Y-158739000D01*
X145452302Y-158835673D01*
X145273673Y-159014301D01*
X145177000Y-159247690D01*
X131293791Y-159247690D01*
X131237659Y-159191460D01*
X130878370Y-159042270D01*
X130489337Y-159041931D01*
X130129788Y-159190493D01*
X129854460Y-159465341D01*
X129705270Y-159824630D01*
X129704931Y-160213663D01*
X128739731Y-160213663D01*
X128740069Y-159826337D01*
X128591507Y-159466788D01*
X128316659Y-159191460D01*
X127957370Y-159042270D01*
X127568337Y-159041931D01*
X127208788Y-159190493D01*
X126933460Y-159465341D01*
X126784270Y-159824630D01*
X126783931Y-160213663D01*
X95363733Y-160213663D01*
X95317507Y-160101788D01*
X95042659Y-159826460D01*
X94683370Y-159677270D01*
X94294337Y-159676931D01*
X93934788Y-159825493D01*
X93659460Y-160100341D01*
X93510270Y-160459630D01*
X93509931Y-160848663D01*
X93420000Y-160848663D01*
X93420000Y-154879663D01*
X96303931Y-154879663D01*
X96452493Y-155239212D01*
X96727341Y-155514540D01*
X97086630Y-155663730D01*
X97475663Y-155664069D01*
X97835212Y-155515507D01*
X98110540Y-155240659D01*
X98259730Y-154881370D01*
X98260069Y-154492337D01*
X98111507Y-154132788D01*
X97853171Y-153874000D01*
X145164560Y-153874000D01*
X145164560Y-155574000D01*
X145208838Y-155809317D01*
X145315759Y-155975477D01*
X145215569Y-156122110D01*
X145164560Y-156374000D01*
X145164560Y-158074000D01*
X145208838Y-158309317D01*
X145347910Y-158525441D01*
X145560110Y-158670431D01*
X145812000Y-158721440D01*
X147812000Y-158721440D01*
X148047317Y-158677162D01*
X148263441Y-158538090D01*
X148408431Y-158325890D01*
X148459440Y-158074000D01*
X148459440Y-156374000D01*
X148415162Y-156138683D01*
X148308241Y-155972523D01*
X148408431Y-155825890D01*
X148459440Y-155574000D01*
X148459440Y-153874000D01*
X148415162Y-153638683D01*
X148309518Y-153474508D01*
X148350327Y-153433699D01*
X148447000Y-153200310D01*
X148447000Y-152509750D01*
X148288250Y-152351000D01*
X146939000Y-152351000D01*
X146939000Y-152371000D01*
X146685000Y-152371000D01*
X146685000Y-152351000D01*
X145335750Y-152351000D01*
X145177000Y-152509750D01*
X145177000Y-153200310D01*
X145273673Y-153433699D01*
X145315634Y-153475660D01*
X145215569Y-153622110D01*
X145164560Y-153874000D01*
X97853171Y-153874000D01*
X97836659Y-153857460D01*
X97477370Y-153708270D01*
X97088337Y-153707931D01*
X96728788Y-153856493D01*
X96453460Y-154131341D01*
X96304270Y-154490630D01*
X96303931Y-154879663D01*
X93420000Y-154879663D01*
X93420000Y-152085663D01*
X126783931Y-152085663D01*
X126932493Y-152445212D01*
X127207341Y-152720540D01*
X127566630Y-152869730D01*
X127955663Y-152870069D01*
X128315212Y-152721507D01*
X128590540Y-152446659D01*
X128687703Y-152212663D01*
X129704931Y-152212663D01*
X129853493Y-152572212D01*
X130128341Y-152847540D01*
X130487630Y-152996730D01*
X130876663Y-152997069D01*
X131236212Y-152848507D01*
X131511540Y-152573659D01*
X131660730Y-152214370D01*
X131661069Y-151825337D01*
X131512507Y-151465788D01*
X131294790Y-151247690D01*
X145177000Y-151247690D01*
X145177000Y-151938250D01*
X145335750Y-152097000D01*
X146685000Y-152097000D01*
X146685000Y-150897750D01*
X146939000Y-150897750D01*
X146939000Y-152097000D01*
X148288250Y-152097000D01*
X148447000Y-151938250D01*
X148447000Y-151247690D01*
X148350327Y-151014301D01*
X148171698Y-150835673D01*
X147938309Y-150739000D01*
X147097750Y-150739000D01*
X146939000Y-150897750D01*
X146685000Y-150897750D01*
X146526250Y-150739000D01*
X145685691Y-150739000D01*
X145452302Y-150835673D01*
X145273673Y-151014301D01*
X145177000Y-151247690D01*
X131294790Y-151247690D01*
X131237659Y-151190460D01*
X130878370Y-151041270D01*
X130489337Y-151040931D01*
X130129788Y-151189493D01*
X129854460Y-151464341D01*
X129705270Y-151823630D01*
X129704931Y-152212663D01*
X128687703Y-152212663D01*
X128739730Y-152087370D01*
X128740069Y-151698337D01*
X128591507Y-151338788D01*
X128316659Y-151063460D01*
X127957370Y-150914270D01*
X127568337Y-150913931D01*
X127208788Y-151062493D01*
X126933460Y-151337341D01*
X126784270Y-151696630D01*
X126783931Y-152085663D01*
X93420000Y-152085663D01*
X93420000Y-151069663D01*
X114845931Y-151069663D01*
X114994493Y-151429212D01*
X115269341Y-151704540D01*
X115628630Y-151853730D01*
X116017663Y-151854069D01*
X116377212Y-151705507D01*
X116652540Y-151430659D01*
X116801730Y-151071370D01*
X116802069Y-150682337D01*
X116653507Y-150322788D01*
X116378659Y-150047460D01*
X116019370Y-149898270D01*
X115630337Y-149897931D01*
X115270788Y-150046493D01*
X114995460Y-150321341D01*
X114846270Y-150680630D01*
X114845931Y-151069663D01*
X93420000Y-151069663D01*
X93420000Y-148590000D01*
X93989907Y-148590000D01*
X94102946Y-149158285D01*
X94424853Y-149640054D01*
X94906622Y-149961961D01*
X95474907Y-150075000D01*
X95533093Y-150075000D01*
X96101378Y-149961961D01*
X96583147Y-149640054D01*
X96905054Y-149158285D01*
X97018093Y-148590000D01*
X96905054Y-148021715D01*
X96583147Y-147539946D01*
X96541548Y-147512150D01*
X96589317Y-147503162D01*
X96805441Y-147364090D01*
X96950431Y-147151890D01*
X97001440Y-146900000D01*
X97001440Y-146126200D01*
X99298507Y-146126200D01*
X99411546Y-146694485D01*
X99733453Y-147176254D01*
X100062626Y-147396200D01*
X99733453Y-147616146D01*
X99411546Y-148097915D01*
X99298507Y-148666200D01*
X99411546Y-149234485D01*
X99733453Y-149716254D01*
X100215222Y-150038161D01*
X100783507Y-150151200D01*
X100841693Y-150151200D01*
X101409978Y-150038161D01*
X101891747Y-149716254D01*
X102213654Y-149234485D01*
X102326693Y-148666200D01*
X102213654Y-148097915D01*
X101891747Y-147616146D01*
X101562574Y-147396200D01*
X101891747Y-147176254D01*
X102213654Y-146694485D01*
X102326693Y-146126200D01*
X102223749Y-145608663D01*
X106590931Y-145608663D01*
X106739493Y-145968212D01*
X106821040Y-146049901D01*
X106740460Y-146130341D01*
X106591270Y-146489630D01*
X106590931Y-146878663D01*
X106739493Y-147238212D01*
X106821040Y-147319901D01*
X106740460Y-147400341D01*
X106591270Y-147759630D01*
X106590931Y-148148663D01*
X106739493Y-148508212D01*
X107014341Y-148783540D01*
X107373630Y-148932730D01*
X107762663Y-148933069D01*
X108122212Y-148784507D01*
X108397540Y-148509659D01*
X108546730Y-148150370D01*
X108546842Y-148021663D01*
X111670931Y-148021663D01*
X111819493Y-148381212D01*
X112094341Y-148656540D01*
X112453630Y-148805730D01*
X112842663Y-148806069D01*
X113202212Y-148657507D01*
X113477540Y-148382659D01*
X113626730Y-148023370D01*
X113626952Y-147767663D01*
X120433931Y-147767663D01*
X120582493Y-148127212D01*
X120857341Y-148402540D01*
X121216630Y-148551730D01*
X121605663Y-148552069D01*
X121965212Y-148403507D01*
X122240540Y-148128659D01*
X122389730Y-147769370D01*
X122390069Y-147380337D01*
X122241507Y-147020788D01*
X121966659Y-146745460D01*
X121607370Y-146596270D01*
X121218337Y-146595931D01*
X120858788Y-146744493D01*
X120583460Y-147019341D01*
X120434270Y-147378630D01*
X120433931Y-147767663D01*
X113626952Y-147767663D01*
X113627069Y-147634337D01*
X113478507Y-147274788D01*
X113203659Y-146999460D01*
X112912748Y-146878663D01*
X115607931Y-146878663D01*
X115756493Y-147238212D01*
X116031341Y-147513540D01*
X116390630Y-147662730D01*
X116779663Y-147663069D01*
X117139212Y-147514507D01*
X117414540Y-147239659D01*
X117563730Y-146880370D01*
X117564069Y-146491337D01*
X117415507Y-146131788D01*
X117158169Y-145874000D01*
X145164560Y-145874000D01*
X145164560Y-147574000D01*
X145208838Y-147809317D01*
X145315759Y-147975477D01*
X145215569Y-148122110D01*
X145164560Y-148374000D01*
X145164560Y-150074000D01*
X145208838Y-150309317D01*
X145347910Y-150525441D01*
X145560110Y-150670431D01*
X145812000Y-150721440D01*
X147812000Y-150721440D01*
X148047317Y-150677162D01*
X148263441Y-150538090D01*
X148408431Y-150325890D01*
X148459440Y-150074000D01*
X148459440Y-148374000D01*
X148415162Y-148138683D01*
X148308241Y-147972523D01*
X148408431Y-147825890D01*
X148459440Y-147574000D01*
X148459440Y-145874000D01*
X148415162Y-145638683D01*
X148309518Y-145474508D01*
X148350327Y-145433699D01*
X148447000Y-145200310D01*
X148447000Y-144509750D01*
X148288250Y-144351000D01*
X146939000Y-144351000D01*
X146939000Y-144371000D01*
X146685000Y-144371000D01*
X146685000Y-144351000D01*
X145335750Y-144351000D01*
X145177000Y-144509750D01*
X145177000Y-145200310D01*
X145273673Y-145433699D01*
X145315634Y-145475660D01*
X145215569Y-145622110D01*
X145164560Y-145874000D01*
X117158169Y-145874000D01*
X117140659Y-145856460D01*
X116781370Y-145707270D01*
X116392337Y-145706931D01*
X116032788Y-145855493D01*
X115757460Y-146130341D01*
X115608270Y-146489630D01*
X115607931Y-146878663D01*
X112912748Y-146878663D01*
X112844370Y-146850270D01*
X112455337Y-146849931D01*
X112095788Y-146998493D01*
X111820460Y-147273341D01*
X111671270Y-147632630D01*
X111670931Y-148021663D01*
X108546842Y-148021663D01*
X108547069Y-147761337D01*
X108398507Y-147401788D01*
X108316960Y-147320099D01*
X108397540Y-147239659D01*
X108546730Y-146880370D01*
X108547069Y-146491337D01*
X108398507Y-146131788D01*
X108316960Y-146050099D01*
X108397540Y-145969659D01*
X108546730Y-145610370D01*
X108547069Y-145221337D01*
X108398507Y-144861788D01*
X108256630Y-144719663D01*
X116115931Y-144719663D01*
X116264493Y-145079212D01*
X116539341Y-145354540D01*
X116898630Y-145503730D01*
X117287663Y-145504069D01*
X117647212Y-145355507D01*
X117922540Y-145080659D01*
X118071730Y-144721370D01*
X118072069Y-144332337D01*
X117923507Y-143972788D01*
X117648659Y-143697460D01*
X117289370Y-143548270D01*
X116900337Y-143547931D01*
X116540788Y-143696493D01*
X116265460Y-143971341D01*
X116116270Y-144330630D01*
X116115931Y-144719663D01*
X108256630Y-144719663D01*
X108123659Y-144586460D01*
X107764370Y-144437270D01*
X107375337Y-144436931D01*
X107015788Y-144585493D01*
X106740460Y-144860341D01*
X106591270Y-145219630D01*
X106590931Y-145608663D01*
X102223749Y-145608663D01*
X102213654Y-145557915D01*
X101891747Y-145076146D01*
X101850148Y-145048350D01*
X101897917Y-145039362D01*
X102114041Y-144900290D01*
X102259031Y-144688090D01*
X102310040Y-144436200D01*
X102310040Y-143703663D01*
X111797931Y-143703663D01*
X111946493Y-144063212D01*
X112221341Y-144338540D01*
X112580630Y-144487730D01*
X112969663Y-144488069D01*
X113329212Y-144339507D01*
X113604540Y-144064659D01*
X113753730Y-143705370D01*
X113754069Y-143316337D01*
X113725705Y-143247690D01*
X145177000Y-143247690D01*
X145177000Y-143938250D01*
X145335750Y-144097000D01*
X146685000Y-144097000D01*
X146685000Y-142897750D01*
X146939000Y-142897750D01*
X146939000Y-144097000D01*
X148288250Y-144097000D01*
X148447000Y-143938250D01*
X148447000Y-143247690D01*
X148350327Y-143014301D01*
X148171698Y-142835673D01*
X147938309Y-142739000D01*
X147097750Y-142739000D01*
X146939000Y-142897750D01*
X146685000Y-142897750D01*
X146526250Y-142739000D01*
X145685691Y-142739000D01*
X145452302Y-142835673D01*
X145273673Y-143014301D01*
X145177000Y-143247690D01*
X113725705Y-143247690D01*
X113605507Y-142956788D01*
X113330659Y-142681460D01*
X112971370Y-142532270D01*
X112582337Y-142531931D01*
X112222788Y-142680493D01*
X111947460Y-142955341D01*
X111798270Y-143314630D01*
X111797931Y-143703663D01*
X102310040Y-143703663D01*
X102310040Y-142736200D01*
X102265762Y-142500883D01*
X102126690Y-142284759D01*
X101914490Y-142139769D01*
X101662600Y-142088760D01*
X99962600Y-142088760D01*
X99727283Y-142133038D01*
X99511159Y-142272110D01*
X99366169Y-142484310D01*
X99315160Y-142736200D01*
X99315160Y-144436200D01*
X99359438Y-144671517D01*
X99498510Y-144887641D01*
X99710710Y-145032631D01*
X99778141Y-145046286D01*
X99733453Y-145076146D01*
X99411546Y-145557915D01*
X99298507Y-146126200D01*
X97001440Y-146126200D01*
X97001440Y-145200000D01*
X96957162Y-144964683D01*
X96818090Y-144748559D01*
X96605890Y-144603569D01*
X96354000Y-144552560D01*
X94654000Y-144552560D01*
X94418683Y-144596838D01*
X94202559Y-144735910D01*
X94057569Y-144948110D01*
X94006560Y-145200000D01*
X94006560Y-146900000D01*
X94050838Y-147135317D01*
X94189910Y-147351441D01*
X94402110Y-147496431D01*
X94469541Y-147510086D01*
X94424853Y-147539946D01*
X94102946Y-148021715D01*
X93989907Y-148590000D01*
X93420000Y-148590000D01*
X93420000Y-141798663D01*
X110781931Y-141798663D01*
X110930493Y-142158212D01*
X111205341Y-142433540D01*
X111564630Y-142582730D01*
X111953663Y-142583069D01*
X112313212Y-142434507D01*
X112588540Y-142159659D01*
X112737730Y-141800370D01*
X112738069Y-141411337D01*
X112589507Y-141051788D01*
X112314659Y-140776460D01*
X111955370Y-140627270D01*
X111566337Y-140626931D01*
X111206788Y-140775493D01*
X110931460Y-141050341D01*
X110782270Y-141409630D01*
X110781931Y-141798663D01*
X93420000Y-141798663D01*
X93420000Y-139766663D01*
X133260931Y-139766663D01*
X133409493Y-140126212D01*
X133684341Y-140401540D01*
X134043630Y-140550730D01*
X134432663Y-140551069D01*
X134792212Y-140402507D01*
X135067540Y-140127659D01*
X135216730Y-139768370D01*
X135217069Y-139379337D01*
X135068507Y-139019788D01*
X134793659Y-138744460D01*
X134434370Y-138595270D01*
X134045337Y-138594931D01*
X133685788Y-138743493D01*
X133410460Y-139018341D01*
X133261270Y-139377630D01*
X133260931Y-139766663D01*
X93420000Y-139766663D01*
X93420000Y-135374000D01*
X145164560Y-135374000D01*
X145164560Y-137074000D01*
X145208838Y-137309317D01*
X145315759Y-137475477D01*
X145215569Y-137622110D01*
X145164560Y-137874000D01*
X145164560Y-139574000D01*
X145208838Y-139809317D01*
X145315759Y-139975477D01*
X145215569Y-140122110D01*
X145164560Y-140374000D01*
X145164560Y-142074000D01*
X145208838Y-142309317D01*
X145347910Y-142525441D01*
X145560110Y-142670431D01*
X145812000Y-142721440D01*
X147812000Y-142721440D01*
X148047317Y-142677162D01*
X148263441Y-142538090D01*
X148408431Y-142325890D01*
X148459440Y-142074000D01*
X148459440Y-140374000D01*
X148415162Y-140138683D01*
X148308241Y-139972523D01*
X148408431Y-139825890D01*
X148459440Y-139574000D01*
X148459440Y-137874000D01*
X148415162Y-137638683D01*
X148308241Y-137472523D01*
X148408431Y-137325890D01*
X148459440Y-137074000D01*
X148459440Y-135374000D01*
X148415162Y-135138683D01*
X148276090Y-134922559D01*
X148063890Y-134777569D01*
X147812000Y-134726560D01*
X145812000Y-134726560D01*
X145576683Y-134770838D01*
X145360559Y-134909910D01*
X145215569Y-135122110D01*
X145164560Y-135374000D01*
X93420000Y-135374000D01*
X93420000Y-132492750D01*
X95035000Y-132492750D01*
X95035000Y-133183309D01*
X95131673Y-133416698D01*
X95310301Y-133595327D01*
X95543690Y-133692000D01*
X96234250Y-133692000D01*
X96393000Y-133533250D01*
X96393000Y-132334000D01*
X95193750Y-132334000D01*
X95035000Y-132492750D01*
X93420000Y-132492750D01*
X93420000Y-131230691D01*
X95035000Y-131230691D01*
X95035000Y-131921250D01*
X95193750Y-132080000D01*
X96393000Y-132080000D01*
X96393000Y-130880750D01*
X96647000Y-130880750D01*
X96647000Y-132080000D01*
X96667000Y-132080000D01*
X96667000Y-132334000D01*
X96647000Y-132334000D01*
X96647000Y-133533250D01*
X96805750Y-133692000D01*
X97496310Y-133692000D01*
X97729699Y-133595327D01*
X97908327Y-133416698D01*
X97980597Y-133242223D01*
X98009946Y-133286147D01*
X98491715Y-133608054D01*
X99060000Y-133721093D01*
X99628285Y-133608054D01*
X100110054Y-133286147D01*
X100330000Y-132956974D01*
X100549946Y-133286147D01*
X101031715Y-133608054D01*
X101600000Y-133721093D01*
X102168285Y-133608054D01*
X102650054Y-133286147D01*
X102870000Y-132956974D01*
X103089946Y-133286147D01*
X103571715Y-133608054D01*
X104140000Y-133721093D01*
X104708285Y-133608054D01*
X105190054Y-133286147D01*
X105410000Y-132956974D01*
X105629946Y-133286147D01*
X106111715Y-133608054D01*
X106680000Y-133721093D01*
X107248285Y-133608054D01*
X107730054Y-133286147D01*
X107950000Y-132956974D01*
X108169946Y-133286147D01*
X108651715Y-133608054D01*
X109220000Y-133721093D01*
X109788285Y-133608054D01*
X110270054Y-133286147D01*
X110490000Y-132956974D01*
X110709946Y-133286147D01*
X111191715Y-133608054D01*
X111760000Y-133721093D01*
X112328285Y-133608054D01*
X112810054Y-133286147D01*
X113030000Y-132956974D01*
X113249946Y-133286147D01*
X113731715Y-133608054D01*
X114300000Y-133721093D01*
X114868285Y-133608054D01*
X115350054Y-133286147D01*
X115671961Y-132804378D01*
X115785000Y-132236093D01*
X115785000Y-132177907D01*
X115671961Y-131609622D01*
X115350054Y-131127853D01*
X114868285Y-130805946D01*
X114300000Y-130692907D01*
X113731715Y-130805946D01*
X113249946Y-131127853D01*
X113030000Y-131457026D01*
X112810054Y-131127853D01*
X112328285Y-130805946D01*
X111760000Y-130692907D01*
X111191715Y-130805946D01*
X110709946Y-131127853D01*
X110490000Y-131457026D01*
X110270054Y-131127853D01*
X109788285Y-130805946D01*
X109220000Y-130692907D01*
X108651715Y-130805946D01*
X108169946Y-131127853D01*
X107950000Y-131457026D01*
X107730054Y-131127853D01*
X107248285Y-130805946D01*
X106680000Y-130692907D01*
X106111715Y-130805946D01*
X105629946Y-131127853D01*
X105410000Y-131457026D01*
X105190054Y-131127853D01*
X104708285Y-130805946D01*
X104140000Y-130692907D01*
X103571715Y-130805946D01*
X103089946Y-131127853D01*
X102870000Y-131457026D01*
X102650054Y-131127853D01*
X102168285Y-130805946D01*
X101600000Y-130692907D01*
X101031715Y-130805946D01*
X100549946Y-131127853D01*
X100330000Y-131457026D01*
X100110054Y-131127853D01*
X99628285Y-130805946D01*
X99060000Y-130692907D01*
X98491715Y-130805946D01*
X98009946Y-131127853D01*
X97980597Y-131171777D01*
X97908327Y-130997302D01*
X97729699Y-130818673D01*
X97496310Y-130722000D01*
X96805750Y-130722000D01*
X96647000Y-130880750D01*
X96393000Y-130880750D01*
X96234250Y-130722000D01*
X95543690Y-130722000D01*
X95310301Y-130818673D01*
X95131673Y-130997302D01*
X95035000Y-131230691D01*
X93420000Y-131230691D01*
X93420000Y-128209663D01*
X117258931Y-128209663D01*
X117407493Y-128569212D01*
X117682341Y-128844540D01*
X118041630Y-128993730D01*
X118430663Y-128994069D01*
X118790212Y-128845507D01*
X119065540Y-128570659D01*
X119214730Y-128211370D01*
X119215069Y-127822337D01*
X119066507Y-127462788D01*
X118791659Y-127187460D01*
X118432370Y-127038270D01*
X118043337Y-127037931D01*
X117683788Y-127186493D01*
X117408460Y-127461341D01*
X117259270Y-127820630D01*
X117258931Y-128209663D01*
X93420000Y-128209663D01*
X93420000Y-121360000D01*
X125015263Y-121360000D01*
X124851160Y-121427806D01*
M02*
