G04 #@! TF.FileFunction,Copper,L3,Inr,Plane*
%FSLAX46Y46*%
G04 Gerber Fmt 4.6, Leading zero omitted, Abs format (unit mm)*
G04 Created by KiCad (PCBNEW 4.0.2-4+6225~38~ubuntu14.04.1-stable) date Mon 26 Dec 2016 11:00:54 AM CET*
%MOMM*%
G01*
G04 APERTURE LIST*
%ADD10C,0.100000*%
%ADD11C,1.524000*%
%ADD12R,2.032000X2.032000*%
%ADD13O,2.032000X2.032000*%
%ADD14R,1.727200X1.727200*%
%ADD15O,1.727200X1.727200*%
%ADD16R,1.727200X2.032000*%
%ADD17O,1.727200X2.032000*%
%ADD18R,2.235200X2.235200*%
%ADD19R,2.032000X1.727200*%
%ADD20O,2.032000X1.727200*%
%ADD21O,2.540000X2.032000*%
%ADD22C,0.685800*%
%ADD23C,0.254000*%
G04 APERTURE END LIST*
D10*
D11*
X160263000Y-80274000D03*
X160263000Y-87874000D03*
X140263000Y-87874000D03*
X136763000Y-80274000D03*
X158866000Y-116342000D03*
X158866000Y-123942000D03*
X138866000Y-123942000D03*
X135366000Y-116342000D03*
D12*
X200025000Y-124206000D03*
D13*
X202565000Y-124206000D03*
D12*
X194310000Y-94615000D03*
D13*
X194310000Y-97155000D03*
D14*
X219710000Y-120650000D03*
D15*
X222250000Y-120650000D03*
X219710000Y-123190000D03*
X222250000Y-123190000D03*
X219710000Y-125730000D03*
X222250000Y-125730000D03*
D16*
X193421000Y-81407000D03*
D17*
X195961000Y-81407000D03*
X198501000Y-81407000D03*
X201041000Y-81407000D03*
X203581000Y-81407000D03*
D16*
X167640000Y-81280000D03*
D17*
X170180000Y-81280000D03*
X172720000Y-81280000D03*
X175260000Y-81280000D03*
X177800000Y-81280000D03*
D11*
X158866000Y-99324000D03*
X158866000Y-106924000D03*
X138866000Y-106924000D03*
X135366000Y-99324000D03*
D18*
X192786000Y-121031000D03*
D19*
X228600000Y-95250000D03*
D20*
X228600000Y-97790000D03*
X228600000Y-100330000D03*
X228600000Y-102870000D03*
X228600000Y-105410000D03*
X228600000Y-107950000D03*
X228600000Y-110490000D03*
X228600000Y-113030000D03*
X228600000Y-115570000D03*
D21*
X228600000Y-88900000D03*
X228600000Y-86360000D03*
X228600000Y-83820000D03*
X125095000Y-84455000D03*
X125095000Y-89455000D03*
X125095000Y-95250000D03*
X125095000Y-100250000D03*
X125095000Y-105250000D03*
X125095000Y-110250000D03*
X125095000Y-115250000D03*
X125095000Y-120250000D03*
D22*
X207010000Y-93218000D03*
X214884000Y-93980000D03*
X217170000Y-105918000D03*
X207010000Y-92075000D03*
X217170000Y-113665000D03*
X207137000Y-90805000D03*
X212725000Y-96393000D03*
X214376000Y-108585000D03*
X212852000Y-93345000D03*
X209423000Y-92075000D03*
X204089000Y-94615000D03*
X204089000Y-95885000D03*
X204089000Y-97155000D03*
X197485000Y-107315000D03*
X190881000Y-114427000D03*
X196342000Y-110490000D03*
X195834000Y-122555000D03*
X212598000Y-99441000D03*
X212471000Y-104267000D03*
X216535000Y-109728000D03*
X216662000Y-101219000D03*
X190881000Y-123698000D03*
X192786000Y-104267000D03*
X191008000Y-109855000D03*
X217932000Y-117602000D03*
X191135000Y-85979000D03*
X191135000Y-88392000D03*
X191008000Y-90932000D03*
X196850000Y-127254000D03*
X194056000Y-127254000D03*
D23*
G36*
X236145000Y-135180000D02*
X189940000Y-135180000D01*
X189940000Y-132522619D01*
X205790613Y-132522619D01*
X206130155Y-133344372D01*
X206758321Y-133973636D01*
X207579481Y-134314611D01*
X208468619Y-134315387D01*
X209290372Y-133975845D01*
X209919636Y-133347679D01*
X210260611Y-132526519D01*
X210261387Y-131637381D01*
X209921845Y-130815628D01*
X209293679Y-130186364D01*
X208472519Y-129845389D01*
X207583381Y-129844613D01*
X206761628Y-130184155D01*
X206132364Y-130812321D01*
X205791389Y-131633481D01*
X205790613Y-132522619D01*
X189940000Y-132522619D01*
X189940000Y-127447663D01*
X193077931Y-127447663D01*
X193226493Y-127807212D01*
X193501341Y-128082540D01*
X193860630Y-128231730D01*
X194249663Y-128232069D01*
X194609212Y-128083507D01*
X194884540Y-127808659D01*
X195033730Y-127449370D01*
X195033731Y-127447663D01*
X195871931Y-127447663D01*
X196020493Y-127807212D01*
X196295341Y-128082540D01*
X196654630Y-128231730D01*
X197043663Y-128232069D01*
X197403212Y-128083507D01*
X197678540Y-127808659D01*
X197827730Y-127449370D01*
X197828069Y-127060337D01*
X197679507Y-126700788D01*
X197404659Y-126425460D01*
X197045370Y-126276270D01*
X196656337Y-126275931D01*
X196296788Y-126424493D01*
X196021460Y-126699341D01*
X195872270Y-127058630D01*
X195871931Y-127447663D01*
X195033731Y-127447663D01*
X195034069Y-127060337D01*
X194885507Y-126700788D01*
X194610659Y-126425460D01*
X194251370Y-126276270D01*
X193862337Y-126275931D01*
X193502788Y-126424493D01*
X193227460Y-126699341D01*
X193078270Y-127058630D01*
X193077931Y-127447663D01*
X189940000Y-127447663D01*
X189940000Y-123981377D01*
X190051493Y-124251212D01*
X190326341Y-124526540D01*
X190685630Y-124675730D01*
X191074663Y-124676069D01*
X191434212Y-124527507D01*
X191709540Y-124252659D01*
X191858730Y-123893370D01*
X191859069Y-123504337D01*
X191729189Y-123190000D01*
X198361560Y-123190000D01*
X198361560Y-125222000D01*
X198405838Y-125457317D01*
X198544910Y-125673441D01*
X198757110Y-125818431D01*
X199009000Y-125869440D01*
X201041000Y-125869440D01*
X201276317Y-125825162D01*
X201492441Y-125686090D01*
X201594198Y-125537163D01*
X201933190Y-125763670D01*
X202565000Y-125889345D01*
X203196810Y-125763670D01*
X203732433Y-125405778D01*
X204090325Y-124870155D01*
X204216000Y-124238345D01*
X204216000Y-124173655D01*
X204090325Y-123541845D01*
X203855230Y-123190000D01*
X218182041Y-123190000D01*
X218296115Y-123763489D01*
X218620971Y-124249670D01*
X218935752Y-124460000D01*
X218620971Y-124670330D01*
X218296115Y-125156511D01*
X218182041Y-125730000D01*
X218296115Y-126303489D01*
X218620971Y-126789670D01*
X219107152Y-127114526D01*
X219680641Y-127228600D01*
X219739359Y-127228600D01*
X220312848Y-127114526D01*
X220799029Y-126789670D01*
X220980000Y-126518828D01*
X221160971Y-126789670D01*
X221647152Y-127114526D01*
X222220641Y-127228600D01*
X222279359Y-127228600D01*
X222852848Y-127114526D01*
X223339029Y-126789670D01*
X223663885Y-126303489D01*
X223777959Y-125730000D01*
X223663885Y-125156511D01*
X223339029Y-124670330D01*
X223024248Y-124460000D01*
X223339029Y-124249670D01*
X223663885Y-123763489D01*
X223777959Y-123190000D01*
X223663885Y-122616511D01*
X223339029Y-122130330D01*
X223024248Y-121920000D01*
X223339029Y-121709670D01*
X223663885Y-121223489D01*
X223777959Y-120650000D01*
X223663885Y-120076511D01*
X223339029Y-119590330D01*
X222852848Y-119265474D01*
X222279359Y-119151400D01*
X222220641Y-119151400D01*
X221647152Y-119265474D01*
X221181558Y-119576574D01*
X221176762Y-119551083D01*
X221037690Y-119334959D01*
X220825490Y-119189969D01*
X220573600Y-119138960D01*
X218846400Y-119138960D01*
X218611083Y-119183238D01*
X218394959Y-119322310D01*
X218249969Y-119534510D01*
X218198960Y-119786400D01*
X218198960Y-121513600D01*
X218243238Y-121748917D01*
X218382310Y-121965041D01*
X218594510Y-122110031D01*
X218638131Y-122118864D01*
X218620971Y-122130330D01*
X218296115Y-122616511D01*
X218182041Y-123190000D01*
X203855230Y-123190000D01*
X203732433Y-123006222D01*
X203196810Y-122648330D01*
X202565000Y-122522655D01*
X201933190Y-122648330D01*
X201593208Y-122875499D01*
X201505090Y-122738559D01*
X201292890Y-122593569D01*
X201041000Y-122542560D01*
X199009000Y-122542560D01*
X198773683Y-122586838D01*
X198557559Y-122725910D01*
X198412569Y-122938110D01*
X198361560Y-123190000D01*
X191729189Y-123190000D01*
X191710507Y-123144788D01*
X191435659Y-122869460D01*
X191076370Y-122720270D01*
X190687337Y-122719931D01*
X190327788Y-122868493D01*
X190052460Y-123143341D01*
X189940000Y-123414174D01*
X189940000Y-123190000D01*
X189885954Y-122918295D01*
X189732046Y-122687954D01*
X189501705Y-122534046D01*
X189357000Y-122505262D01*
X189357000Y-121316750D01*
X191033400Y-121316750D01*
X191033400Y-122274909D01*
X191130073Y-122508298D01*
X191308701Y-122686927D01*
X191542090Y-122783600D01*
X192500250Y-122783600D01*
X192659000Y-122624850D01*
X192659000Y-121158000D01*
X192913000Y-121158000D01*
X192913000Y-122624850D01*
X193071750Y-122783600D01*
X194029910Y-122783600D01*
X194263299Y-122686927D01*
X194441927Y-122508298D01*
X194538600Y-122274909D01*
X194538600Y-121316750D01*
X194379850Y-121158000D01*
X192913000Y-121158000D01*
X192659000Y-121158000D01*
X191192150Y-121158000D01*
X191033400Y-121316750D01*
X189357000Y-121316750D01*
X189357000Y-119787091D01*
X191033400Y-119787091D01*
X191033400Y-120745250D01*
X191192150Y-120904000D01*
X192659000Y-120904000D01*
X192659000Y-119437150D01*
X192913000Y-119437150D01*
X192913000Y-120904000D01*
X194379850Y-120904000D01*
X194538600Y-120745250D01*
X194538600Y-119787091D01*
X194441927Y-119553702D01*
X194263299Y-119375073D01*
X194029910Y-119278400D01*
X193071750Y-119278400D01*
X192913000Y-119437150D01*
X192659000Y-119437150D01*
X192500250Y-119278400D01*
X191542090Y-119278400D01*
X191308701Y-119375073D01*
X191130073Y-119553702D01*
X191033400Y-119787091D01*
X189357000Y-119787091D01*
X189357000Y-118794738D01*
X189501705Y-118765954D01*
X189732046Y-118612046D01*
X189885954Y-118381705D01*
X189940000Y-118110000D01*
X189940000Y-117795663D01*
X216953931Y-117795663D01*
X217102493Y-118155212D01*
X217377341Y-118430540D01*
X217736630Y-118579730D01*
X218125663Y-118580069D01*
X218485212Y-118431507D01*
X218760540Y-118156659D01*
X218909730Y-117797370D01*
X218910069Y-117408337D01*
X218761507Y-117048788D01*
X218486659Y-116773460D01*
X218127370Y-116624270D01*
X217738337Y-116623931D01*
X217378788Y-116772493D01*
X217103460Y-117047341D01*
X216954270Y-117406630D01*
X216953931Y-117795663D01*
X189940000Y-117795663D01*
X189940000Y-113858663D01*
X216191931Y-113858663D01*
X216340493Y-114218212D01*
X216615341Y-114493540D01*
X216974630Y-114642730D01*
X217363663Y-114643069D01*
X217723212Y-114494507D01*
X217998540Y-114219659D01*
X218147730Y-113860370D01*
X218148069Y-113471337D01*
X217999507Y-113111788D01*
X217917862Y-113030000D01*
X226916655Y-113030000D01*
X227030729Y-113603489D01*
X227355585Y-114089670D01*
X227670366Y-114300000D01*
X227355585Y-114510330D01*
X227030729Y-114996511D01*
X226916655Y-115570000D01*
X227030729Y-116143489D01*
X227355585Y-116629670D01*
X227841766Y-116954526D01*
X228415255Y-117068600D01*
X228784745Y-117068600D01*
X229358234Y-116954526D01*
X229844415Y-116629670D01*
X230169271Y-116143489D01*
X230283345Y-115570000D01*
X230169271Y-114996511D01*
X229844415Y-114510330D01*
X229529634Y-114300000D01*
X229844415Y-114089670D01*
X230169271Y-113603489D01*
X230283345Y-113030000D01*
X230169271Y-112456511D01*
X229844415Y-111970330D01*
X229534931Y-111763539D01*
X229950732Y-111392036D01*
X230204709Y-110864791D01*
X230207358Y-110849026D01*
X230086217Y-110617000D01*
X228727000Y-110617000D01*
X228727000Y-110637000D01*
X228473000Y-110637000D01*
X228473000Y-110617000D01*
X227113783Y-110617000D01*
X226992642Y-110849026D01*
X226995291Y-110864791D01*
X227249268Y-111392036D01*
X227665069Y-111763539D01*
X227355585Y-111970330D01*
X227030729Y-112456511D01*
X226916655Y-113030000D01*
X217917862Y-113030000D01*
X217724659Y-112836460D01*
X217365370Y-112687270D01*
X216976337Y-112686931D01*
X216616788Y-112835493D01*
X216341460Y-113110341D01*
X216192270Y-113469630D01*
X216191931Y-113858663D01*
X189940000Y-113858663D01*
X189940000Y-110048663D01*
X190029931Y-110048663D01*
X190178493Y-110408212D01*
X190453341Y-110683540D01*
X190812630Y-110832730D01*
X191201663Y-110833069D01*
X191561212Y-110684507D01*
X191836540Y-110409659D01*
X191985730Y-110050370D01*
X191985842Y-109921663D01*
X215556931Y-109921663D01*
X215705493Y-110281212D01*
X215980341Y-110556540D01*
X216339630Y-110705730D01*
X216728663Y-110706069D01*
X217088212Y-110557507D01*
X217363540Y-110282659D01*
X217512730Y-109923370D01*
X217513069Y-109534337D01*
X217364507Y-109174788D01*
X217089659Y-108899460D01*
X216730370Y-108750270D01*
X216341337Y-108749931D01*
X215981788Y-108898493D01*
X215706460Y-109173341D01*
X215557270Y-109532630D01*
X215556931Y-109921663D01*
X191985842Y-109921663D01*
X191986069Y-109661337D01*
X191837507Y-109301788D01*
X191562659Y-109026460D01*
X191203370Y-108877270D01*
X190814337Y-108876931D01*
X190454788Y-109025493D01*
X190179460Y-109300341D01*
X190030270Y-109659630D01*
X190029931Y-110048663D01*
X189940000Y-110048663D01*
X189940000Y-108778663D01*
X213397931Y-108778663D01*
X213546493Y-109138212D01*
X213821341Y-109413540D01*
X214180630Y-109562730D01*
X214569663Y-109563069D01*
X214929212Y-109414507D01*
X215204540Y-109139659D01*
X215353730Y-108780370D01*
X215354069Y-108391337D01*
X215205507Y-108031788D01*
X214930659Y-107756460D01*
X214571370Y-107607270D01*
X214182337Y-107606931D01*
X213822788Y-107755493D01*
X213547460Y-108030341D01*
X213398270Y-108389630D01*
X213397931Y-108778663D01*
X189940000Y-108778663D01*
X189940000Y-106111663D01*
X216191931Y-106111663D01*
X216340493Y-106471212D01*
X216615341Y-106746540D01*
X216974630Y-106895730D01*
X217363663Y-106896069D01*
X217723212Y-106747507D01*
X217998540Y-106472659D01*
X218147730Y-106113370D01*
X218148069Y-105724337D01*
X218018189Y-105410000D01*
X226916655Y-105410000D01*
X227030729Y-105983489D01*
X227355585Y-106469670D01*
X227670366Y-106680000D01*
X227355585Y-106890330D01*
X227030729Y-107376511D01*
X226916655Y-107950000D01*
X227030729Y-108523489D01*
X227355585Y-109009670D01*
X227665069Y-109216461D01*
X227249268Y-109587964D01*
X226995291Y-110115209D01*
X226992642Y-110130974D01*
X227113783Y-110363000D01*
X228473000Y-110363000D01*
X228473000Y-110343000D01*
X228727000Y-110343000D01*
X228727000Y-110363000D01*
X230086217Y-110363000D01*
X230207358Y-110130974D01*
X230204709Y-110115209D01*
X229950732Y-109587964D01*
X229534931Y-109216461D01*
X229844415Y-109009670D01*
X230169271Y-108523489D01*
X230283345Y-107950000D01*
X230169271Y-107376511D01*
X229844415Y-106890330D01*
X229529634Y-106680000D01*
X229844415Y-106469670D01*
X230169271Y-105983489D01*
X230283345Y-105410000D01*
X230169271Y-104836511D01*
X229844415Y-104350330D01*
X229534931Y-104143539D01*
X229950732Y-103772036D01*
X230204709Y-103244791D01*
X230207358Y-103229026D01*
X230086217Y-102997000D01*
X228727000Y-102997000D01*
X228727000Y-103017000D01*
X228473000Y-103017000D01*
X228473000Y-102997000D01*
X227113783Y-102997000D01*
X226992642Y-103229026D01*
X226995291Y-103244791D01*
X227249268Y-103772036D01*
X227665069Y-104143539D01*
X227355585Y-104350330D01*
X227030729Y-104836511D01*
X226916655Y-105410000D01*
X218018189Y-105410000D01*
X217999507Y-105364788D01*
X217724659Y-105089460D01*
X217365370Y-104940270D01*
X216976337Y-104939931D01*
X216616788Y-105088493D01*
X216341460Y-105363341D01*
X216192270Y-105722630D01*
X216191931Y-106111663D01*
X189940000Y-106111663D01*
X189940000Y-104460663D01*
X191807931Y-104460663D01*
X191956493Y-104820212D01*
X192231341Y-105095540D01*
X192590630Y-105244730D01*
X192979663Y-105245069D01*
X193339212Y-105096507D01*
X193614540Y-104821659D01*
X193763730Y-104462370D01*
X193763731Y-104460663D01*
X211492931Y-104460663D01*
X211641493Y-104820212D01*
X211916341Y-105095540D01*
X212275630Y-105244730D01*
X212664663Y-105245069D01*
X213024212Y-105096507D01*
X213299540Y-104821659D01*
X213448730Y-104462370D01*
X213449069Y-104073337D01*
X213300507Y-103713788D01*
X213025659Y-103438460D01*
X212666370Y-103289270D01*
X212277337Y-103288931D01*
X211917788Y-103437493D01*
X211642460Y-103712341D01*
X211493270Y-104071630D01*
X211492931Y-104460663D01*
X193763731Y-104460663D01*
X193764069Y-104073337D01*
X193615507Y-103713788D01*
X193340659Y-103438460D01*
X192981370Y-103289270D01*
X192592337Y-103288931D01*
X192232788Y-103437493D01*
X191957460Y-103712341D01*
X191808270Y-104071630D01*
X191807931Y-104460663D01*
X189940000Y-104460663D01*
X189940000Y-101412663D01*
X215683931Y-101412663D01*
X215832493Y-101772212D01*
X216107341Y-102047540D01*
X216466630Y-102196730D01*
X216855663Y-102197069D01*
X217215212Y-102048507D01*
X217490540Y-101773659D01*
X217639730Y-101414370D01*
X217640069Y-101025337D01*
X217491507Y-100665788D01*
X217216659Y-100390460D01*
X216857370Y-100241270D01*
X216468337Y-100240931D01*
X216108788Y-100389493D01*
X215833460Y-100664341D01*
X215684270Y-101023630D01*
X215683931Y-101412663D01*
X189940000Y-101412663D01*
X189940000Y-99634663D01*
X211619931Y-99634663D01*
X211768493Y-99994212D01*
X212043341Y-100269540D01*
X212402630Y-100418730D01*
X212791663Y-100419069D01*
X213151212Y-100270507D01*
X213426540Y-99995659D01*
X213575730Y-99636370D01*
X213576069Y-99247337D01*
X213427507Y-98887788D01*
X213152659Y-98612460D01*
X212793370Y-98463270D01*
X212404337Y-98462931D01*
X212044788Y-98611493D01*
X211769460Y-98886341D01*
X211620270Y-99245630D01*
X211619931Y-99634663D01*
X189940000Y-99634663D01*
X189940000Y-97155000D01*
X192626655Y-97155000D01*
X192752330Y-97786810D01*
X193110222Y-98322433D01*
X193645845Y-98680325D01*
X194277655Y-98806000D01*
X194342345Y-98806000D01*
X194974155Y-98680325D01*
X195509778Y-98322433D01*
X195867670Y-97786810D01*
X195993345Y-97155000D01*
X195867670Y-96523190D01*
X195640501Y-96183208D01*
X195777441Y-96095090D01*
X195922431Y-95882890D01*
X195973440Y-95631000D01*
X195973440Y-94808663D01*
X203110931Y-94808663D01*
X203259493Y-95168212D01*
X203341040Y-95249901D01*
X203260460Y-95330341D01*
X203111270Y-95689630D01*
X203110931Y-96078663D01*
X203259493Y-96438212D01*
X203341040Y-96519901D01*
X203260460Y-96600341D01*
X203111270Y-96959630D01*
X203110931Y-97348663D01*
X203259493Y-97708212D01*
X203534341Y-97983540D01*
X203893630Y-98132730D01*
X204282663Y-98133069D01*
X204642212Y-97984507D01*
X204837058Y-97790000D01*
X226916655Y-97790000D01*
X227030729Y-98363489D01*
X227355585Y-98849670D01*
X227670366Y-99060000D01*
X227355585Y-99270330D01*
X227030729Y-99756511D01*
X226916655Y-100330000D01*
X227030729Y-100903489D01*
X227355585Y-101389670D01*
X227665069Y-101596461D01*
X227249268Y-101967964D01*
X226995291Y-102495209D01*
X226992642Y-102510974D01*
X227113783Y-102743000D01*
X228473000Y-102743000D01*
X228473000Y-102723000D01*
X228727000Y-102723000D01*
X228727000Y-102743000D01*
X230086217Y-102743000D01*
X230207358Y-102510974D01*
X230204709Y-102495209D01*
X229950732Y-101967964D01*
X229534931Y-101596461D01*
X229844415Y-101389670D01*
X230169271Y-100903489D01*
X230283345Y-100330000D01*
X230169271Y-99756511D01*
X229844415Y-99270330D01*
X229529634Y-99060000D01*
X229844415Y-98849670D01*
X230169271Y-98363489D01*
X230283345Y-97790000D01*
X230169271Y-97216511D01*
X229844415Y-96730330D01*
X229822220Y-96715500D01*
X229975698Y-96651927D01*
X230154327Y-96473299D01*
X230251000Y-96239910D01*
X230251000Y-95535750D01*
X230092250Y-95377000D01*
X228727000Y-95377000D01*
X228727000Y-95397000D01*
X228473000Y-95397000D01*
X228473000Y-95377000D01*
X227107750Y-95377000D01*
X226949000Y-95535750D01*
X226949000Y-96239910D01*
X227045673Y-96473299D01*
X227224302Y-96651927D01*
X227377780Y-96715500D01*
X227355585Y-96730330D01*
X227030729Y-97216511D01*
X226916655Y-97790000D01*
X204837058Y-97790000D01*
X204917540Y-97709659D01*
X205066730Y-97350370D01*
X205067069Y-96961337D01*
X204918507Y-96601788D01*
X204903409Y-96586663D01*
X211746931Y-96586663D01*
X211895493Y-96946212D01*
X212170341Y-97221540D01*
X212529630Y-97370730D01*
X212918663Y-97371069D01*
X213278212Y-97222507D01*
X213553540Y-96947659D01*
X213702730Y-96588370D01*
X213703069Y-96199337D01*
X213554507Y-95839788D01*
X213279659Y-95564460D01*
X212920370Y-95415270D01*
X212531337Y-95414931D01*
X212171788Y-95563493D01*
X211896460Y-95838341D01*
X211747270Y-96197630D01*
X211746931Y-96586663D01*
X204903409Y-96586663D01*
X204836960Y-96520099D01*
X204917540Y-96439659D01*
X205066730Y-96080370D01*
X205067069Y-95691337D01*
X204918507Y-95331788D01*
X204836960Y-95250099D01*
X204917540Y-95169659D01*
X205066730Y-94810370D01*
X205067069Y-94421337D01*
X204918507Y-94061788D01*
X204643659Y-93786460D01*
X204284370Y-93637270D01*
X203895337Y-93636931D01*
X203535788Y-93785493D01*
X203260460Y-94060341D01*
X203111270Y-94419630D01*
X203110931Y-94808663D01*
X195973440Y-94808663D01*
X195973440Y-93599000D01*
X195929162Y-93363683D01*
X195790090Y-93147559D01*
X195577890Y-93002569D01*
X195326000Y-92951560D01*
X193294000Y-92951560D01*
X193058683Y-92995838D01*
X192842559Y-93134910D01*
X192697569Y-93347110D01*
X192646560Y-93599000D01*
X192646560Y-95631000D01*
X192690838Y-95866317D01*
X192829910Y-96082441D01*
X192978837Y-96184198D01*
X192752330Y-96523190D01*
X192626655Y-97155000D01*
X189940000Y-97155000D01*
X189940000Y-92268663D01*
X206031931Y-92268663D01*
X206180493Y-92628212D01*
X206198540Y-92646291D01*
X206181460Y-92663341D01*
X206032270Y-93022630D01*
X206031931Y-93411663D01*
X206180493Y-93771212D01*
X206455341Y-94046540D01*
X206814630Y-94195730D01*
X207203663Y-94196069D01*
X207563212Y-94047507D01*
X207838540Y-93772659D01*
X207935703Y-93538663D01*
X211873931Y-93538663D01*
X212022493Y-93898212D01*
X212297341Y-94173540D01*
X212656630Y-94322730D01*
X213045663Y-94323069D01*
X213405212Y-94174507D01*
X213406057Y-94173663D01*
X213905931Y-94173663D01*
X214054493Y-94533212D01*
X214329341Y-94808540D01*
X214688630Y-94957730D01*
X215077663Y-94958069D01*
X215437212Y-94809507D01*
X215712540Y-94534659D01*
X215826551Y-94260090D01*
X226949000Y-94260090D01*
X226949000Y-94964250D01*
X227107750Y-95123000D01*
X228473000Y-95123000D01*
X228473000Y-93910150D01*
X228727000Y-93910150D01*
X228727000Y-95123000D01*
X230092250Y-95123000D01*
X230251000Y-94964250D01*
X230251000Y-94260090D01*
X230154327Y-94026701D01*
X229975698Y-93848073D01*
X229742309Y-93751400D01*
X228885750Y-93751400D01*
X228727000Y-93910150D01*
X228473000Y-93910150D01*
X228314250Y-93751400D01*
X227457691Y-93751400D01*
X227224302Y-93848073D01*
X227045673Y-94026701D01*
X226949000Y-94260090D01*
X215826551Y-94260090D01*
X215861730Y-94175370D01*
X215862069Y-93786337D01*
X215713507Y-93426788D01*
X215438659Y-93151460D01*
X215079370Y-93002270D01*
X214690337Y-93001931D01*
X214330788Y-93150493D01*
X214055460Y-93425341D01*
X213906270Y-93784630D01*
X213905931Y-94173663D01*
X213406057Y-94173663D01*
X213680540Y-93899659D01*
X213829730Y-93540370D01*
X213830069Y-93151337D01*
X213681507Y-92791788D01*
X213406659Y-92516460D01*
X213047370Y-92367270D01*
X212658337Y-92366931D01*
X212298788Y-92515493D01*
X212023460Y-92790341D01*
X211874270Y-93149630D01*
X211873931Y-93538663D01*
X207935703Y-93538663D01*
X207987730Y-93413370D01*
X207988069Y-93024337D01*
X207839507Y-92664788D01*
X207821460Y-92646709D01*
X207838540Y-92629659D01*
X207987730Y-92270370D01*
X207987731Y-92268663D01*
X208444931Y-92268663D01*
X208593493Y-92628212D01*
X208868341Y-92903540D01*
X209227630Y-93052730D01*
X209616663Y-93053069D01*
X209976212Y-92904507D01*
X210251540Y-92629659D01*
X210400730Y-92270370D01*
X210401069Y-91881337D01*
X210252507Y-91521788D01*
X209977659Y-91246460D01*
X209618370Y-91097270D01*
X209229337Y-91096931D01*
X208869788Y-91245493D01*
X208594460Y-91520341D01*
X208445270Y-91879630D01*
X208444931Y-92268663D01*
X207987731Y-92268663D01*
X207988069Y-91881337D01*
X207839507Y-91521788D01*
X207821349Y-91503598D01*
X207965540Y-91359659D01*
X208114730Y-91000370D01*
X208115069Y-90611337D01*
X207966507Y-90251788D01*
X207691659Y-89976460D01*
X207332370Y-89827270D01*
X206943337Y-89826931D01*
X206583788Y-89975493D01*
X206308460Y-90250341D01*
X206159270Y-90609630D01*
X206158931Y-90998663D01*
X206307493Y-91358212D01*
X206325651Y-91376402D01*
X206181460Y-91520341D01*
X206032270Y-91879630D01*
X206031931Y-92268663D01*
X189940000Y-92268663D01*
X189940000Y-91125663D01*
X190029931Y-91125663D01*
X190178493Y-91485212D01*
X190453341Y-91760540D01*
X190812630Y-91909730D01*
X191201663Y-91910069D01*
X191561212Y-91761507D01*
X191836540Y-91486659D01*
X191985730Y-91127370D01*
X191986069Y-90738337D01*
X191837507Y-90378788D01*
X191562659Y-90103460D01*
X191203370Y-89954270D01*
X190814337Y-89953931D01*
X190454788Y-90102493D01*
X190179460Y-90377341D01*
X190030270Y-90736630D01*
X190029931Y-91125663D01*
X189940000Y-91125663D01*
X189940000Y-88585663D01*
X190156931Y-88585663D01*
X190305493Y-88945212D01*
X190580341Y-89220540D01*
X190939630Y-89369730D01*
X191328663Y-89370069D01*
X191688212Y-89221507D01*
X191963540Y-88946659D01*
X192112730Y-88587370D01*
X192113069Y-88198337D01*
X191964507Y-87838788D01*
X191689659Y-87563460D01*
X191330370Y-87414270D01*
X190941337Y-87413931D01*
X190581788Y-87562493D01*
X190306460Y-87837341D01*
X190157270Y-88196630D01*
X190156931Y-88585663D01*
X189940000Y-88585663D01*
X189940000Y-87630000D01*
X189885954Y-87358295D01*
X189732046Y-87127954D01*
X189501705Y-86974046D01*
X189357000Y-86945262D01*
X189357000Y-86172663D01*
X190156931Y-86172663D01*
X190305493Y-86532212D01*
X190580341Y-86807540D01*
X190939630Y-86956730D01*
X191328663Y-86957069D01*
X191688212Y-86808507D01*
X191963540Y-86533659D01*
X192112730Y-86174370D01*
X192113069Y-85785337D01*
X191964507Y-85425788D01*
X191689659Y-85150460D01*
X191330370Y-85001270D01*
X190941337Y-85000931D01*
X190581788Y-85149493D01*
X190306460Y-85424341D01*
X190157270Y-85783630D01*
X190156931Y-86172663D01*
X189357000Y-86172663D01*
X189357000Y-83820000D01*
X226657679Y-83820000D01*
X226783354Y-84451810D01*
X227141246Y-84987433D01*
X227294748Y-85090000D01*
X227141246Y-85192567D01*
X226783354Y-85728190D01*
X226657679Y-86360000D01*
X226783354Y-86991810D01*
X227141246Y-87527433D01*
X227294748Y-87630000D01*
X227141246Y-87732567D01*
X226783354Y-88268190D01*
X226657679Y-88900000D01*
X226783354Y-89531810D01*
X227141246Y-90067433D01*
X227676869Y-90425325D01*
X228308679Y-90551000D01*
X228891321Y-90551000D01*
X229523131Y-90425325D01*
X230058754Y-90067433D01*
X230416646Y-89531810D01*
X230542321Y-88900000D01*
X230416646Y-88268190D01*
X230058754Y-87732567D01*
X229905252Y-87630000D01*
X230058754Y-87527433D01*
X230416646Y-86991810D01*
X230542321Y-86360000D01*
X230416646Y-85728190D01*
X230058754Y-85192567D01*
X229905252Y-85090000D01*
X230058754Y-84987433D01*
X230416646Y-84451810D01*
X230542321Y-83820000D01*
X230416646Y-83188190D01*
X230058754Y-82652567D01*
X229523131Y-82294675D01*
X228891321Y-82169000D01*
X228308679Y-82169000D01*
X227676869Y-82294675D01*
X227141246Y-82652567D01*
X226783354Y-83188190D01*
X226657679Y-83820000D01*
X189357000Y-83820000D01*
X189357000Y-83234738D01*
X189501705Y-83205954D01*
X189732046Y-83052046D01*
X189885954Y-82821705D01*
X189940000Y-82550000D01*
X189940000Y-80391000D01*
X191909960Y-80391000D01*
X191909960Y-82423000D01*
X191954238Y-82658317D01*
X192093310Y-82874441D01*
X192305510Y-83019431D01*
X192557400Y-83070440D01*
X194284600Y-83070440D01*
X194519917Y-83026162D01*
X194736041Y-82887090D01*
X194881031Y-82674890D01*
X194889400Y-82633561D01*
X194901330Y-82651415D01*
X195387511Y-82976271D01*
X195961000Y-83090345D01*
X196534489Y-82976271D01*
X197020670Y-82651415D01*
X197231000Y-82336634D01*
X197441330Y-82651415D01*
X197927511Y-82976271D01*
X198501000Y-83090345D01*
X199074489Y-82976271D01*
X199560670Y-82651415D01*
X199771000Y-82336634D01*
X199981330Y-82651415D01*
X200467511Y-82976271D01*
X201041000Y-83090345D01*
X201614489Y-82976271D01*
X202100670Y-82651415D01*
X202311000Y-82336634D01*
X202521330Y-82651415D01*
X203007511Y-82976271D01*
X203581000Y-83090345D01*
X204154489Y-82976271D01*
X204640670Y-82651415D01*
X204965526Y-82165234D01*
X205079600Y-81591745D01*
X205079600Y-81222255D01*
X204965526Y-80648766D01*
X204640670Y-80162585D01*
X204154489Y-79837729D01*
X203581000Y-79723655D01*
X203007511Y-79837729D01*
X202521330Y-80162585D01*
X202311000Y-80477366D01*
X202100670Y-80162585D01*
X201614489Y-79837729D01*
X201041000Y-79723655D01*
X200467511Y-79837729D01*
X199981330Y-80162585D01*
X199771000Y-80477366D01*
X199560670Y-80162585D01*
X199074489Y-79837729D01*
X198501000Y-79723655D01*
X197927511Y-79837729D01*
X197441330Y-80162585D01*
X197231000Y-80477366D01*
X197020670Y-80162585D01*
X196534489Y-79837729D01*
X195961000Y-79723655D01*
X195387511Y-79837729D01*
X194901330Y-80162585D01*
X194891757Y-80176913D01*
X194887762Y-80155683D01*
X194748690Y-79939559D01*
X194536490Y-79794569D01*
X194284600Y-79743560D01*
X192557400Y-79743560D01*
X192322083Y-79787838D01*
X192105959Y-79926910D01*
X191960969Y-80139110D01*
X191909960Y-80391000D01*
X189940000Y-80391000D01*
X189940000Y-74229619D01*
X205790613Y-74229619D01*
X206130155Y-75051372D01*
X206758321Y-75680636D01*
X207579481Y-76021611D01*
X208468619Y-76022387D01*
X209290372Y-75682845D01*
X209919636Y-75054679D01*
X210260611Y-74233519D01*
X210261387Y-73344381D01*
X209921845Y-72522628D01*
X209293679Y-71893364D01*
X208472519Y-71552389D01*
X207583381Y-71551613D01*
X206761628Y-71891155D01*
X206132364Y-72519321D01*
X205791389Y-73340481D01*
X205790613Y-74229619D01*
X189940000Y-74229619D01*
X189940000Y-70560000D01*
X236145000Y-70560000D01*
X236145000Y-135180000D01*
X236145000Y-135180000D01*
G37*
X236145000Y-135180000D02*
X189940000Y-135180000D01*
X189940000Y-132522619D01*
X205790613Y-132522619D01*
X206130155Y-133344372D01*
X206758321Y-133973636D01*
X207579481Y-134314611D01*
X208468619Y-134315387D01*
X209290372Y-133975845D01*
X209919636Y-133347679D01*
X210260611Y-132526519D01*
X210261387Y-131637381D01*
X209921845Y-130815628D01*
X209293679Y-130186364D01*
X208472519Y-129845389D01*
X207583381Y-129844613D01*
X206761628Y-130184155D01*
X206132364Y-130812321D01*
X205791389Y-131633481D01*
X205790613Y-132522619D01*
X189940000Y-132522619D01*
X189940000Y-127447663D01*
X193077931Y-127447663D01*
X193226493Y-127807212D01*
X193501341Y-128082540D01*
X193860630Y-128231730D01*
X194249663Y-128232069D01*
X194609212Y-128083507D01*
X194884540Y-127808659D01*
X195033730Y-127449370D01*
X195033731Y-127447663D01*
X195871931Y-127447663D01*
X196020493Y-127807212D01*
X196295341Y-128082540D01*
X196654630Y-128231730D01*
X197043663Y-128232069D01*
X197403212Y-128083507D01*
X197678540Y-127808659D01*
X197827730Y-127449370D01*
X197828069Y-127060337D01*
X197679507Y-126700788D01*
X197404659Y-126425460D01*
X197045370Y-126276270D01*
X196656337Y-126275931D01*
X196296788Y-126424493D01*
X196021460Y-126699341D01*
X195872270Y-127058630D01*
X195871931Y-127447663D01*
X195033731Y-127447663D01*
X195034069Y-127060337D01*
X194885507Y-126700788D01*
X194610659Y-126425460D01*
X194251370Y-126276270D01*
X193862337Y-126275931D01*
X193502788Y-126424493D01*
X193227460Y-126699341D01*
X193078270Y-127058630D01*
X193077931Y-127447663D01*
X189940000Y-127447663D01*
X189940000Y-123981377D01*
X190051493Y-124251212D01*
X190326341Y-124526540D01*
X190685630Y-124675730D01*
X191074663Y-124676069D01*
X191434212Y-124527507D01*
X191709540Y-124252659D01*
X191858730Y-123893370D01*
X191859069Y-123504337D01*
X191729189Y-123190000D01*
X198361560Y-123190000D01*
X198361560Y-125222000D01*
X198405838Y-125457317D01*
X198544910Y-125673441D01*
X198757110Y-125818431D01*
X199009000Y-125869440D01*
X201041000Y-125869440D01*
X201276317Y-125825162D01*
X201492441Y-125686090D01*
X201594198Y-125537163D01*
X201933190Y-125763670D01*
X202565000Y-125889345D01*
X203196810Y-125763670D01*
X203732433Y-125405778D01*
X204090325Y-124870155D01*
X204216000Y-124238345D01*
X204216000Y-124173655D01*
X204090325Y-123541845D01*
X203855230Y-123190000D01*
X218182041Y-123190000D01*
X218296115Y-123763489D01*
X218620971Y-124249670D01*
X218935752Y-124460000D01*
X218620971Y-124670330D01*
X218296115Y-125156511D01*
X218182041Y-125730000D01*
X218296115Y-126303489D01*
X218620971Y-126789670D01*
X219107152Y-127114526D01*
X219680641Y-127228600D01*
X219739359Y-127228600D01*
X220312848Y-127114526D01*
X220799029Y-126789670D01*
X220980000Y-126518828D01*
X221160971Y-126789670D01*
X221647152Y-127114526D01*
X222220641Y-127228600D01*
X222279359Y-127228600D01*
X222852848Y-127114526D01*
X223339029Y-126789670D01*
X223663885Y-126303489D01*
X223777959Y-125730000D01*
X223663885Y-125156511D01*
X223339029Y-124670330D01*
X223024248Y-124460000D01*
X223339029Y-124249670D01*
X223663885Y-123763489D01*
X223777959Y-123190000D01*
X223663885Y-122616511D01*
X223339029Y-122130330D01*
X223024248Y-121920000D01*
X223339029Y-121709670D01*
X223663885Y-121223489D01*
X223777959Y-120650000D01*
X223663885Y-120076511D01*
X223339029Y-119590330D01*
X222852848Y-119265474D01*
X222279359Y-119151400D01*
X222220641Y-119151400D01*
X221647152Y-119265474D01*
X221181558Y-119576574D01*
X221176762Y-119551083D01*
X221037690Y-119334959D01*
X220825490Y-119189969D01*
X220573600Y-119138960D01*
X218846400Y-119138960D01*
X218611083Y-119183238D01*
X218394959Y-119322310D01*
X218249969Y-119534510D01*
X218198960Y-119786400D01*
X218198960Y-121513600D01*
X218243238Y-121748917D01*
X218382310Y-121965041D01*
X218594510Y-122110031D01*
X218638131Y-122118864D01*
X218620971Y-122130330D01*
X218296115Y-122616511D01*
X218182041Y-123190000D01*
X203855230Y-123190000D01*
X203732433Y-123006222D01*
X203196810Y-122648330D01*
X202565000Y-122522655D01*
X201933190Y-122648330D01*
X201593208Y-122875499D01*
X201505090Y-122738559D01*
X201292890Y-122593569D01*
X201041000Y-122542560D01*
X199009000Y-122542560D01*
X198773683Y-122586838D01*
X198557559Y-122725910D01*
X198412569Y-122938110D01*
X198361560Y-123190000D01*
X191729189Y-123190000D01*
X191710507Y-123144788D01*
X191435659Y-122869460D01*
X191076370Y-122720270D01*
X190687337Y-122719931D01*
X190327788Y-122868493D01*
X190052460Y-123143341D01*
X189940000Y-123414174D01*
X189940000Y-123190000D01*
X189885954Y-122918295D01*
X189732046Y-122687954D01*
X189501705Y-122534046D01*
X189357000Y-122505262D01*
X189357000Y-121316750D01*
X191033400Y-121316750D01*
X191033400Y-122274909D01*
X191130073Y-122508298D01*
X191308701Y-122686927D01*
X191542090Y-122783600D01*
X192500250Y-122783600D01*
X192659000Y-122624850D01*
X192659000Y-121158000D01*
X192913000Y-121158000D01*
X192913000Y-122624850D01*
X193071750Y-122783600D01*
X194029910Y-122783600D01*
X194263299Y-122686927D01*
X194441927Y-122508298D01*
X194538600Y-122274909D01*
X194538600Y-121316750D01*
X194379850Y-121158000D01*
X192913000Y-121158000D01*
X192659000Y-121158000D01*
X191192150Y-121158000D01*
X191033400Y-121316750D01*
X189357000Y-121316750D01*
X189357000Y-119787091D01*
X191033400Y-119787091D01*
X191033400Y-120745250D01*
X191192150Y-120904000D01*
X192659000Y-120904000D01*
X192659000Y-119437150D01*
X192913000Y-119437150D01*
X192913000Y-120904000D01*
X194379850Y-120904000D01*
X194538600Y-120745250D01*
X194538600Y-119787091D01*
X194441927Y-119553702D01*
X194263299Y-119375073D01*
X194029910Y-119278400D01*
X193071750Y-119278400D01*
X192913000Y-119437150D01*
X192659000Y-119437150D01*
X192500250Y-119278400D01*
X191542090Y-119278400D01*
X191308701Y-119375073D01*
X191130073Y-119553702D01*
X191033400Y-119787091D01*
X189357000Y-119787091D01*
X189357000Y-118794738D01*
X189501705Y-118765954D01*
X189732046Y-118612046D01*
X189885954Y-118381705D01*
X189940000Y-118110000D01*
X189940000Y-117795663D01*
X216953931Y-117795663D01*
X217102493Y-118155212D01*
X217377341Y-118430540D01*
X217736630Y-118579730D01*
X218125663Y-118580069D01*
X218485212Y-118431507D01*
X218760540Y-118156659D01*
X218909730Y-117797370D01*
X218910069Y-117408337D01*
X218761507Y-117048788D01*
X218486659Y-116773460D01*
X218127370Y-116624270D01*
X217738337Y-116623931D01*
X217378788Y-116772493D01*
X217103460Y-117047341D01*
X216954270Y-117406630D01*
X216953931Y-117795663D01*
X189940000Y-117795663D01*
X189940000Y-113858663D01*
X216191931Y-113858663D01*
X216340493Y-114218212D01*
X216615341Y-114493540D01*
X216974630Y-114642730D01*
X217363663Y-114643069D01*
X217723212Y-114494507D01*
X217998540Y-114219659D01*
X218147730Y-113860370D01*
X218148069Y-113471337D01*
X217999507Y-113111788D01*
X217917862Y-113030000D01*
X226916655Y-113030000D01*
X227030729Y-113603489D01*
X227355585Y-114089670D01*
X227670366Y-114300000D01*
X227355585Y-114510330D01*
X227030729Y-114996511D01*
X226916655Y-115570000D01*
X227030729Y-116143489D01*
X227355585Y-116629670D01*
X227841766Y-116954526D01*
X228415255Y-117068600D01*
X228784745Y-117068600D01*
X229358234Y-116954526D01*
X229844415Y-116629670D01*
X230169271Y-116143489D01*
X230283345Y-115570000D01*
X230169271Y-114996511D01*
X229844415Y-114510330D01*
X229529634Y-114300000D01*
X229844415Y-114089670D01*
X230169271Y-113603489D01*
X230283345Y-113030000D01*
X230169271Y-112456511D01*
X229844415Y-111970330D01*
X229534931Y-111763539D01*
X229950732Y-111392036D01*
X230204709Y-110864791D01*
X230207358Y-110849026D01*
X230086217Y-110617000D01*
X228727000Y-110617000D01*
X228727000Y-110637000D01*
X228473000Y-110637000D01*
X228473000Y-110617000D01*
X227113783Y-110617000D01*
X226992642Y-110849026D01*
X226995291Y-110864791D01*
X227249268Y-111392036D01*
X227665069Y-111763539D01*
X227355585Y-111970330D01*
X227030729Y-112456511D01*
X226916655Y-113030000D01*
X217917862Y-113030000D01*
X217724659Y-112836460D01*
X217365370Y-112687270D01*
X216976337Y-112686931D01*
X216616788Y-112835493D01*
X216341460Y-113110341D01*
X216192270Y-113469630D01*
X216191931Y-113858663D01*
X189940000Y-113858663D01*
X189940000Y-110048663D01*
X190029931Y-110048663D01*
X190178493Y-110408212D01*
X190453341Y-110683540D01*
X190812630Y-110832730D01*
X191201663Y-110833069D01*
X191561212Y-110684507D01*
X191836540Y-110409659D01*
X191985730Y-110050370D01*
X191985842Y-109921663D01*
X215556931Y-109921663D01*
X215705493Y-110281212D01*
X215980341Y-110556540D01*
X216339630Y-110705730D01*
X216728663Y-110706069D01*
X217088212Y-110557507D01*
X217363540Y-110282659D01*
X217512730Y-109923370D01*
X217513069Y-109534337D01*
X217364507Y-109174788D01*
X217089659Y-108899460D01*
X216730370Y-108750270D01*
X216341337Y-108749931D01*
X215981788Y-108898493D01*
X215706460Y-109173341D01*
X215557270Y-109532630D01*
X215556931Y-109921663D01*
X191985842Y-109921663D01*
X191986069Y-109661337D01*
X191837507Y-109301788D01*
X191562659Y-109026460D01*
X191203370Y-108877270D01*
X190814337Y-108876931D01*
X190454788Y-109025493D01*
X190179460Y-109300341D01*
X190030270Y-109659630D01*
X190029931Y-110048663D01*
X189940000Y-110048663D01*
X189940000Y-108778663D01*
X213397931Y-108778663D01*
X213546493Y-109138212D01*
X213821341Y-109413540D01*
X214180630Y-109562730D01*
X214569663Y-109563069D01*
X214929212Y-109414507D01*
X215204540Y-109139659D01*
X215353730Y-108780370D01*
X215354069Y-108391337D01*
X215205507Y-108031788D01*
X214930659Y-107756460D01*
X214571370Y-107607270D01*
X214182337Y-107606931D01*
X213822788Y-107755493D01*
X213547460Y-108030341D01*
X213398270Y-108389630D01*
X213397931Y-108778663D01*
X189940000Y-108778663D01*
X189940000Y-106111663D01*
X216191931Y-106111663D01*
X216340493Y-106471212D01*
X216615341Y-106746540D01*
X216974630Y-106895730D01*
X217363663Y-106896069D01*
X217723212Y-106747507D01*
X217998540Y-106472659D01*
X218147730Y-106113370D01*
X218148069Y-105724337D01*
X218018189Y-105410000D01*
X226916655Y-105410000D01*
X227030729Y-105983489D01*
X227355585Y-106469670D01*
X227670366Y-106680000D01*
X227355585Y-106890330D01*
X227030729Y-107376511D01*
X226916655Y-107950000D01*
X227030729Y-108523489D01*
X227355585Y-109009670D01*
X227665069Y-109216461D01*
X227249268Y-109587964D01*
X226995291Y-110115209D01*
X226992642Y-110130974D01*
X227113783Y-110363000D01*
X228473000Y-110363000D01*
X228473000Y-110343000D01*
X228727000Y-110343000D01*
X228727000Y-110363000D01*
X230086217Y-110363000D01*
X230207358Y-110130974D01*
X230204709Y-110115209D01*
X229950732Y-109587964D01*
X229534931Y-109216461D01*
X229844415Y-109009670D01*
X230169271Y-108523489D01*
X230283345Y-107950000D01*
X230169271Y-107376511D01*
X229844415Y-106890330D01*
X229529634Y-106680000D01*
X229844415Y-106469670D01*
X230169271Y-105983489D01*
X230283345Y-105410000D01*
X230169271Y-104836511D01*
X229844415Y-104350330D01*
X229534931Y-104143539D01*
X229950732Y-103772036D01*
X230204709Y-103244791D01*
X230207358Y-103229026D01*
X230086217Y-102997000D01*
X228727000Y-102997000D01*
X228727000Y-103017000D01*
X228473000Y-103017000D01*
X228473000Y-102997000D01*
X227113783Y-102997000D01*
X226992642Y-103229026D01*
X226995291Y-103244791D01*
X227249268Y-103772036D01*
X227665069Y-104143539D01*
X227355585Y-104350330D01*
X227030729Y-104836511D01*
X226916655Y-105410000D01*
X218018189Y-105410000D01*
X217999507Y-105364788D01*
X217724659Y-105089460D01*
X217365370Y-104940270D01*
X216976337Y-104939931D01*
X216616788Y-105088493D01*
X216341460Y-105363341D01*
X216192270Y-105722630D01*
X216191931Y-106111663D01*
X189940000Y-106111663D01*
X189940000Y-104460663D01*
X191807931Y-104460663D01*
X191956493Y-104820212D01*
X192231341Y-105095540D01*
X192590630Y-105244730D01*
X192979663Y-105245069D01*
X193339212Y-105096507D01*
X193614540Y-104821659D01*
X193763730Y-104462370D01*
X193763731Y-104460663D01*
X211492931Y-104460663D01*
X211641493Y-104820212D01*
X211916341Y-105095540D01*
X212275630Y-105244730D01*
X212664663Y-105245069D01*
X213024212Y-105096507D01*
X213299540Y-104821659D01*
X213448730Y-104462370D01*
X213449069Y-104073337D01*
X213300507Y-103713788D01*
X213025659Y-103438460D01*
X212666370Y-103289270D01*
X212277337Y-103288931D01*
X211917788Y-103437493D01*
X211642460Y-103712341D01*
X211493270Y-104071630D01*
X211492931Y-104460663D01*
X193763731Y-104460663D01*
X193764069Y-104073337D01*
X193615507Y-103713788D01*
X193340659Y-103438460D01*
X192981370Y-103289270D01*
X192592337Y-103288931D01*
X192232788Y-103437493D01*
X191957460Y-103712341D01*
X191808270Y-104071630D01*
X191807931Y-104460663D01*
X189940000Y-104460663D01*
X189940000Y-101412663D01*
X215683931Y-101412663D01*
X215832493Y-101772212D01*
X216107341Y-102047540D01*
X216466630Y-102196730D01*
X216855663Y-102197069D01*
X217215212Y-102048507D01*
X217490540Y-101773659D01*
X217639730Y-101414370D01*
X217640069Y-101025337D01*
X217491507Y-100665788D01*
X217216659Y-100390460D01*
X216857370Y-100241270D01*
X216468337Y-100240931D01*
X216108788Y-100389493D01*
X215833460Y-100664341D01*
X215684270Y-101023630D01*
X215683931Y-101412663D01*
X189940000Y-101412663D01*
X189940000Y-99634663D01*
X211619931Y-99634663D01*
X211768493Y-99994212D01*
X212043341Y-100269540D01*
X212402630Y-100418730D01*
X212791663Y-100419069D01*
X213151212Y-100270507D01*
X213426540Y-99995659D01*
X213575730Y-99636370D01*
X213576069Y-99247337D01*
X213427507Y-98887788D01*
X213152659Y-98612460D01*
X212793370Y-98463270D01*
X212404337Y-98462931D01*
X212044788Y-98611493D01*
X211769460Y-98886341D01*
X211620270Y-99245630D01*
X211619931Y-99634663D01*
X189940000Y-99634663D01*
X189940000Y-97155000D01*
X192626655Y-97155000D01*
X192752330Y-97786810D01*
X193110222Y-98322433D01*
X193645845Y-98680325D01*
X194277655Y-98806000D01*
X194342345Y-98806000D01*
X194974155Y-98680325D01*
X195509778Y-98322433D01*
X195867670Y-97786810D01*
X195993345Y-97155000D01*
X195867670Y-96523190D01*
X195640501Y-96183208D01*
X195777441Y-96095090D01*
X195922431Y-95882890D01*
X195973440Y-95631000D01*
X195973440Y-94808663D01*
X203110931Y-94808663D01*
X203259493Y-95168212D01*
X203341040Y-95249901D01*
X203260460Y-95330341D01*
X203111270Y-95689630D01*
X203110931Y-96078663D01*
X203259493Y-96438212D01*
X203341040Y-96519901D01*
X203260460Y-96600341D01*
X203111270Y-96959630D01*
X203110931Y-97348663D01*
X203259493Y-97708212D01*
X203534341Y-97983540D01*
X203893630Y-98132730D01*
X204282663Y-98133069D01*
X204642212Y-97984507D01*
X204837058Y-97790000D01*
X226916655Y-97790000D01*
X227030729Y-98363489D01*
X227355585Y-98849670D01*
X227670366Y-99060000D01*
X227355585Y-99270330D01*
X227030729Y-99756511D01*
X226916655Y-100330000D01*
X227030729Y-100903489D01*
X227355585Y-101389670D01*
X227665069Y-101596461D01*
X227249268Y-101967964D01*
X226995291Y-102495209D01*
X226992642Y-102510974D01*
X227113783Y-102743000D01*
X228473000Y-102743000D01*
X228473000Y-102723000D01*
X228727000Y-102723000D01*
X228727000Y-102743000D01*
X230086217Y-102743000D01*
X230207358Y-102510974D01*
X230204709Y-102495209D01*
X229950732Y-101967964D01*
X229534931Y-101596461D01*
X229844415Y-101389670D01*
X230169271Y-100903489D01*
X230283345Y-100330000D01*
X230169271Y-99756511D01*
X229844415Y-99270330D01*
X229529634Y-99060000D01*
X229844415Y-98849670D01*
X230169271Y-98363489D01*
X230283345Y-97790000D01*
X230169271Y-97216511D01*
X229844415Y-96730330D01*
X229822220Y-96715500D01*
X229975698Y-96651927D01*
X230154327Y-96473299D01*
X230251000Y-96239910D01*
X230251000Y-95535750D01*
X230092250Y-95377000D01*
X228727000Y-95377000D01*
X228727000Y-95397000D01*
X228473000Y-95397000D01*
X228473000Y-95377000D01*
X227107750Y-95377000D01*
X226949000Y-95535750D01*
X226949000Y-96239910D01*
X227045673Y-96473299D01*
X227224302Y-96651927D01*
X227377780Y-96715500D01*
X227355585Y-96730330D01*
X227030729Y-97216511D01*
X226916655Y-97790000D01*
X204837058Y-97790000D01*
X204917540Y-97709659D01*
X205066730Y-97350370D01*
X205067069Y-96961337D01*
X204918507Y-96601788D01*
X204903409Y-96586663D01*
X211746931Y-96586663D01*
X211895493Y-96946212D01*
X212170341Y-97221540D01*
X212529630Y-97370730D01*
X212918663Y-97371069D01*
X213278212Y-97222507D01*
X213553540Y-96947659D01*
X213702730Y-96588370D01*
X213703069Y-96199337D01*
X213554507Y-95839788D01*
X213279659Y-95564460D01*
X212920370Y-95415270D01*
X212531337Y-95414931D01*
X212171788Y-95563493D01*
X211896460Y-95838341D01*
X211747270Y-96197630D01*
X211746931Y-96586663D01*
X204903409Y-96586663D01*
X204836960Y-96520099D01*
X204917540Y-96439659D01*
X205066730Y-96080370D01*
X205067069Y-95691337D01*
X204918507Y-95331788D01*
X204836960Y-95250099D01*
X204917540Y-95169659D01*
X205066730Y-94810370D01*
X205067069Y-94421337D01*
X204918507Y-94061788D01*
X204643659Y-93786460D01*
X204284370Y-93637270D01*
X203895337Y-93636931D01*
X203535788Y-93785493D01*
X203260460Y-94060341D01*
X203111270Y-94419630D01*
X203110931Y-94808663D01*
X195973440Y-94808663D01*
X195973440Y-93599000D01*
X195929162Y-93363683D01*
X195790090Y-93147559D01*
X195577890Y-93002569D01*
X195326000Y-92951560D01*
X193294000Y-92951560D01*
X193058683Y-92995838D01*
X192842559Y-93134910D01*
X192697569Y-93347110D01*
X192646560Y-93599000D01*
X192646560Y-95631000D01*
X192690838Y-95866317D01*
X192829910Y-96082441D01*
X192978837Y-96184198D01*
X192752330Y-96523190D01*
X192626655Y-97155000D01*
X189940000Y-97155000D01*
X189940000Y-92268663D01*
X206031931Y-92268663D01*
X206180493Y-92628212D01*
X206198540Y-92646291D01*
X206181460Y-92663341D01*
X206032270Y-93022630D01*
X206031931Y-93411663D01*
X206180493Y-93771212D01*
X206455341Y-94046540D01*
X206814630Y-94195730D01*
X207203663Y-94196069D01*
X207563212Y-94047507D01*
X207838540Y-93772659D01*
X207935703Y-93538663D01*
X211873931Y-93538663D01*
X212022493Y-93898212D01*
X212297341Y-94173540D01*
X212656630Y-94322730D01*
X213045663Y-94323069D01*
X213405212Y-94174507D01*
X213406057Y-94173663D01*
X213905931Y-94173663D01*
X214054493Y-94533212D01*
X214329341Y-94808540D01*
X214688630Y-94957730D01*
X215077663Y-94958069D01*
X215437212Y-94809507D01*
X215712540Y-94534659D01*
X215826551Y-94260090D01*
X226949000Y-94260090D01*
X226949000Y-94964250D01*
X227107750Y-95123000D01*
X228473000Y-95123000D01*
X228473000Y-93910150D01*
X228727000Y-93910150D01*
X228727000Y-95123000D01*
X230092250Y-95123000D01*
X230251000Y-94964250D01*
X230251000Y-94260090D01*
X230154327Y-94026701D01*
X229975698Y-93848073D01*
X229742309Y-93751400D01*
X228885750Y-93751400D01*
X228727000Y-93910150D01*
X228473000Y-93910150D01*
X228314250Y-93751400D01*
X227457691Y-93751400D01*
X227224302Y-93848073D01*
X227045673Y-94026701D01*
X226949000Y-94260090D01*
X215826551Y-94260090D01*
X215861730Y-94175370D01*
X215862069Y-93786337D01*
X215713507Y-93426788D01*
X215438659Y-93151460D01*
X215079370Y-93002270D01*
X214690337Y-93001931D01*
X214330788Y-93150493D01*
X214055460Y-93425341D01*
X213906270Y-93784630D01*
X213905931Y-94173663D01*
X213406057Y-94173663D01*
X213680540Y-93899659D01*
X213829730Y-93540370D01*
X213830069Y-93151337D01*
X213681507Y-92791788D01*
X213406659Y-92516460D01*
X213047370Y-92367270D01*
X212658337Y-92366931D01*
X212298788Y-92515493D01*
X212023460Y-92790341D01*
X211874270Y-93149630D01*
X211873931Y-93538663D01*
X207935703Y-93538663D01*
X207987730Y-93413370D01*
X207988069Y-93024337D01*
X207839507Y-92664788D01*
X207821460Y-92646709D01*
X207838540Y-92629659D01*
X207987730Y-92270370D01*
X207987731Y-92268663D01*
X208444931Y-92268663D01*
X208593493Y-92628212D01*
X208868341Y-92903540D01*
X209227630Y-93052730D01*
X209616663Y-93053069D01*
X209976212Y-92904507D01*
X210251540Y-92629659D01*
X210400730Y-92270370D01*
X210401069Y-91881337D01*
X210252507Y-91521788D01*
X209977659Y-91246460D01*
X209618370Y-91097270D01*
X209229337Y-91096931D01*
X208869788Y-91245493D01*
X208594460Y-91520341D01*
X208445270Y-91879630D01*
X208444931Y-92268663D01*
X207987731Y-92268663D01*
X207988069Y-91881337D01*
X207839507Y-91521788D01*
X207821349Y-91503598D01*
X207965540Y-91359659D01*
X208114730Y-91000370D01*
X208115069Y-90611337D01*
X207966507Y-90251788D01*
X207691659Y-89976460D01*
X207332370Y-89827270D01*
X206943337Y-89826931D01*
X206583788Y-89975493D01*
X206308460Y-90250341D01*
X206159270Y-90609630D01*
X206158931Y-90998663D01*
X206307493Y-91358212D01*
X206325651Y-91376402D01*
X206181460Y-91520341D01*
X206032270Y-91879630D01*
X206031931Y-92268663D01*
X189940000Y-92268663D01*
X189940000Y-91125663D01*
X190029931Y-91125663D01*
X190178493Y-91485212D01*
X190453341Y-91760540D01*
X190812630Y-91909730D01*
X191201663Y-91910069D01*
X191561212Y-91761507D01*
X191836540Y-91486659D01*
X191985730Y-91127370D01*
X191986069Y-90738337D01*
X191837507Y-90378788D01*
X191562659Y-90103460D01*
X191203370Y-89954270D01*
X190814337Y-89953931D01*
X190454788Y-90102493D01*
X190179460Y-90377341D01*
X190030270Y-90736630D01*
X190029931Y-91125663D01*
X189940000Y-91125663D01*
X189940000Y-88585663D01*
X190156931Y-88585663D01*
X190305493Y-88945212D01*
X190580341Y-89220540D01*
X190939630Y-89369730D01*
X191328663Y-89370069D01*
X191688212Y-89221507D01*
X191963540Y-88946659D01*
X192112730Y-88587370D01*
X192113069Y-88198337D01*
X191964507Y-87838788D01*
X191689659Y-87563460D01*
X191330370Y-87414270D01*
X190941337Y-87413931D01*
X190581788Y-87562493D01*
X190306460Y-87837341D01*
X190157270Y-88196630D01*
X190156931Y-88585663D01*
X189940000Y-88585663D01*
X189940000Y-87630000D01*
X189885954Y-87358295D01*
X189732046Y-87127954D01*
X189501705Y-86974046D01*
X189357000Y-86945262D01*
X189357000Y-86172663D01*
X190156931Y-86172663D01*
X190305493Y-86532212D01*
X190580341Y-86807540D01*
X190939630Y-86956730D01*
X191328663Y-86957069D01*
X191688212Y-86808507D01*
X191963540Y-86533659D01*
X192112730Y-86174370D01*
X192113069Y-85785337D01*
X191964507Y-85425788D01*
X191689659Y-85150460D01*
X191330370Y-85001270D01*
X190941337Y-85000931D01*
X190581788Y-85149493D01*
X190306460Y-85424341D01*
X190157270Y-85783630D01*
X190156931Y-86172663D01*
X189357000Y-86172663D01*
X189357000Y-83820000D01*
X226657679Y-83820000D01*
X226783354Y-84451810D01*
X227141246Y-84987433D01*
X227294748Y-85090000D01*
X227141246Y-85192567D01*
X226783354Y-85728190D01*
X226657679Y-86360000D01*
X226783354Y-86991810D01*
X227141246Y-87527433D01*
X227294748Y-87630000D01*
X227141246Y-87732567D01*
X226783354Y-88268190D01*
X226657679Y-88900000D01*
X226783354Y-89531810D01*
X227141246Y-90067433D01*
X227676869Y-90425325D01*
X228308679Y-90551000D01*
X228891321Y-90551000D01*
X229523131Y-90425325D01*
X230058754Y-90067433D01*
X230416646Y-89531810D01*
X230542321Y-88900000D01*
X230416646Y-88268190D01*
X230058754Y-87732567D01*
X229905252Y-87630000D01*
X230058754Y-87527433D01*
X230416646Y-86991810D01*
X230542321Y-86360000D01*
X230416646Y-85728190D01*
X230058754Y-85192567D01*
X229905252Y-85090000D01*
X230058754Y-84987433D01*
X230416646Y-84451810D01*
X230542321Y-83820000D01*
X230416646Y-83188190D01*
X230058754Y-82652567D01*
X229523131Y-82294675D01*
X228891321Y-82169000D01*
X228308679Y-82169000D01*
X227676869Y-82294675D01*
X227141246Y-82652567D01*
X226783354Y-83188190D01*
X226657679Y-83820000D01*
X189357000Y-83820000D01*
X189357000Y-83234738D01*
X189501705Y-83205954D01*
X189732046Y-83052046D01*
X189885954Y-82821705D01*
X189940000Y-82550000D01*
X189940000Y-80391000D01*
X191909960Y-80391000D01*
X191909960Y-82423000D01*
X191954238Y-82658317D01*
X192093310Y-82874441D01*
X192305510Y-83019431D01*
X192557400Y-83070440D01*
X194284600Y-83070440D01*
X194519917Y-83026162D01*
X194736041Y-82887090D01*
X194881031Y-82674890D01*
X194889400Y-82633561D01*
X194901330Y-82651415D01*
X195387511Y-82976271D01*
X195961000Y-83090345D01*
X196534489Y-82976271D01*
X197020670Y-82651415D01*
X197231000Y-82336634D01*
X197441330Y-82651415D01*
X197927511Y-82976271D01*
X198501000Y-83090345D01*
X199074489Y-82976271D01*
X199560670Y-82651415D01*
X199771000Y-82336634D01*
X199981330Y-82651415D01*
X200467511Y-82976271D01*
X201041000Y-83090345D01*
X201614489Y-82976271D01*
X202100670Y-82651415D01*
X202311000Y-82336634D01*
X202521330Y-82651415D01*
X203007511Y-82976271D01*
X203581000Y-83090345D01*
X204154489Y-82976271D01*
X204640670Y-82651415D01*
X204965526Y-82165234D01*
X205079600Y-81591745D01*
X205079600Y-81222255D01*
X204965526Y-80648766D01*
X204640670Y-80162585D01*
X204154489Y-79837729D01*
X203581000Y-79723655D01*
X203007511Y-79837729D01*
X202521330Y-80162585D01*
X202311000Y-80477366D01*
X202100670Y-80162585D01*
X201614489Y-79837729D01*
X201041000Y-79723655D01*
X200467511Y-79837729D01*
X199981330Y-80162585D01*
X199771000Y-80477366D01*
X199560670Y-80162585D01*
X199074489Y-79837729D01*
X198501000Y-79723655D01*
X197927511Y-79837729D01*
X197441330Y-80162585D01*
X197231000Y-80477366D01*
X197020670Y-80162585D01*
X196534489Y-79837729D01*
X195961000Y-79723655D01*
X195387511Y-79837729D01*
X194901330Y-80162585D01*
X194891757Y-80176913D01*
X194887762Y-80155683D01*
X194748690Y-79939559D01*
X194536490Y-79794569D01*
X194284600Y-79743560D01*
X192557400Y-79743560D01*
X192322083Y-79787838D01*
X192105959Y-79926910D01*
X191960969Y-80139110D01*
X191909960Y-80391000D01*
X189940000Y-80391000D01*
X189940000Y-74229619D01*
X205790613Y-74229619D01*
X206130155Y-75051372D01*
X206758321Y-75680636D01*
X207579481Y-76021611D01*
X208468619Y-76022387D01*
X209290372Y-75682845D01*
X209919636Y-75054679D01*
X210260611Y-74233519D01*
X210261387Y-73344381D01*
X209921845Y-72522628D01*
X209293679Y-71893364D01*
X208472519Y-71552389D01*
X207583381Y-71551613D01*
X206761628Y-71891155D01*
X206132364Y-72519321D01*
X205791389Y-73340481D01*
X205790613Y-74229619D01*
X189940000Y-74229619D01*
X189940000Y-70560000D01*
X236145000Y-70560000D01*
X236145000Y-135180000D01*
M02*
