G04 #@! TF.FileFunction,Copper,L4,Bot,Signal*
%FSLAX46Y46*%
G04 Gerber Fmt 4.6, Leading zero omitted, Abs format (unit mm)*
G04 Created by KiCad (PCBNEW 4.0.2-4+6225~38~ubuntu14.04.1-stable) date Mon 26 Dec 2016 11:00:54 AM CET*
%MOMM*%
G01*
G04 APERTURE LIST*
%ADD10C,0.100000*%
%ADD11C,1.524000*%
%ADD12R,0.700000X1.300000*%
%ADD13R,1.250000X1.000000*%
%ADD14R,2.032000X2.032000*%
%ADD15O,2.032000X2.032000*%
%ADD16R,1.727200X1.727200*%
%ADD17O,1.727200X1.727200*%
%ADD18R,1.727200X2.032000*%
%ADD19O,1.727200X2.032000*%
%ADD20R,1.300000X0.700000*%
%ADD21R,2.235200X2.235200*%
%ADD22R,2.032000X1.727200*%
%ADD23O,2.032000X1.727200*%
%ADD24O,2.540000X2.032000*%
%ADD25C,0.685800*%
%ADD26C,0.609600*%
%ADD27C,0.304800*%
%ADD28C,0.152400*%
%ADD29C,1.219200*%
%ADD30C,0.254000*%
G04 APERTURE END LIST*
D10*
D11*
X160263000Y-80274000D03*
X160263000Y-87874000D03*
X140263000Y-87874000D03*
X136763000Y-80274000D03*
X158866000Y-116342000D03*
X158866000Y-123942000D03*
X138866000Y-123942000D03*
X135366000Y-116342000D03*
D12*
X192725000Y-85979000D03*
X194625000Y-85979000D03*
D13*
X220345000Y-96885000D03*
X220345000Y-94885000D03*
X220345000Y-105140000D03*
X220345000Y-103140000D03*
X220345000Y-112760000D03*
X220345000Y-110760000D03*
D14*
X200025000Y-124206000D03*
D15*
X202565000Y-124206000D03*
D14*
X194310000Y-94615000D03*
D15*
X194310000Y-97155000D03*
D16*
X219710000Y-120650000D03*
D17*
X222250000Y-120650000D03*
X219710000Y-123190000D03*
X222250000Y-123190000D03*
X219710000Y-125730000D03*
X222250000Y-125730000D03*
D18*
X193421000Y-81407000D03*
D19*
X195961000Y-81407000D03*
X198501000Y-81407000D03*
X201041000Y-81407000D03*
X203581000Y-81407000D03*
D18*
X167640000Y-81280000D03*
D19*
X170180000Y-81280000D03*
X172720000Y-81280000D03*
X175260000Y-81280000D03*
X177800000Y-81280000D03*
D20*
X195580000Y-124145000D03*
X195580000Y-126045000D03*
X193040000Y-124145000D03*
X193040000Y-126045000D03*
D11*
X158866000Y-99324000D03*
X158866000Y-106924000D03*
X138866000Y-106924000D03*
X135366000Y-99324000D03*
D12*
X192725000Y-88519000D03*
X194625000Y-88519000D03*
X192725000Y-91059000D03*
X194625000Y-91059000D03*
D21*
X192786000Y-121031000D03*
D22*
X228600000Y-95250000D03*
D23*
X228600000Y-97790000D03*
X228600000Y-100330000D03*
X228600000Y-102870000D03*
X228600000Y-105410000D03*
X228600000Y-107950000D03*
X228600000Y-110490000D03*
X228600000Y-113030000D03*
X228600000Y-115570000D03*
D24*
X228600000Y-88900000D03*
X228600000Y-86360000D03*
X228600000Y-83820000D03*
X125095000Y-84455000D03*
X125095000Y-89455000D03*
X125095000Y-95250000D03*
X125095000Y-100250000D03*
X125095000Y-105250000D03*
X125095000Y-110250000D03*
X125095000Y-115250000D03*
X125095000Y-120250000D03*
D25*
X207010000Y-93218000D03*
X214884000Y-93980000D03*
X217170000Y-105918000D03*
X207010000Y-92075000D03*
X217170000Y-113665000D03*
X207137000Y-90805000D03*
X212725000Y-96393000D03*
X214376000Y-108585000D03*
X212852000Y-93345000D03*
X209423000Y-92075000D03*
X204089000Y-94615000D03*
X204089000Y-95885000D03*
X204089000Y-97155000D03*
X197485000Y-107315000D03*
X190881000Y-114427000D03*
X196342000Y-110490000D03*
X195834000Y-122555000D03*
X212598000Y-99441000D03*
X212471000Y-104267000D03*
X216535000Y-109728000D03*
X216662000Y-101219000D03*
X190881000Y-123698000D03*
X192786000Y-104267000D03*
X191008000Y-109855000D03*
X217932000Y-117602000D03*
X191135000Y-85979000D03*
X191135000Y-88392000D03*
X191008000Y-90932000D03*
X196850000Y-127254000D03*
X194056000Y-127254000D03*
D26*
X209550000Y-126111000D02*
X209550000Y-126045000D01*
D27*
X203835000Y-81534000D02*
X203962000Y-81661000D01*
D28*
X209042000Y-91186000D02*
X207010000Y-93218000D01*
X213614000Y-91186000D02*
X209042000Y-91186000D01*
X214884000Y-92456000D02*
X213614000Y-91186000D01*
X214884000Y-93980000D02*
X214884000Y-92456000D01*
X217805000Y-93853000D02*
X217805000Y-105283000D01*
X217805000Y-105283000D02*
X217170000Y-105918000D01*
X214757000Y-90805000D02*
X217805000Y-93853000D01*
X208280000Y-90805000D02*
X214757000Y-90805000D01*
X207010000Y-92075000D02*
X208280000Y-90805000D01*
X217512899Y-113322101D02*
X217170000Y-113665000D01*
X218109809Y-112725191D02*
X217512899Y-113322101D01*
X218109809Y-93726743D02*
X218109809Y-112725191D01*
X214845167Y-90462101D02*
X218109809Y-93726743D01*
X207479899Y-90462101D02*
X214845167Y-90462101D01*
X207137000Y-90805000D02*
X207479899Y-90462101D01*
X222250000Y-123190000D02*
X221742000Y-123190000D01*
X221742000Y-123190000D02*
X220472000Y-121920000D01*
X215519000Y-99187000D02*
X212725000Y-96393000D01*
X215519000Y-116967000D02*
X215519000Y-99187000D01*
X217551000Y-118999000D02*
X215519000Y-116967000D01*
X217551000Y-120904000D02*
X217551000Y-118999000D01*
X218567000Y-121920000D02*
X217551000Y-120904000D01*
X220472000Y-121920000D02*
X218567000Y-121920000D01*
X216789000Y-122809000D02*
X219710000Y-125730000D01*
X216789000Y-119430802D02*
X216789000Y-122809000D01*
X214757000Y-117398802D02*
X216789000Y-119430802D01*
X214757000Y-108966000D02*
X214757000Y-117398802D01*
X214376000Y-108585000D02*
X214757000Y-108966000D01*
X219710000Y-125730000D02*
X219710000Y-125349000D01*
X219710000Y-120650000D02*
X215900000Y-116840000D01*
X215900000Y-96393000D02*
X212852000Y-93345000D01*
X215900000Y-116840000D02*
X215900000Y-96393000D01*
X217170000Y-121031000D02*
X219329000Y-123190000D01*
X217170000Y-119253000D02*
X217170000Y-121031000D01*
X215138000Y-117221000D02*
X217170000Y-119253000D01*
X215138000Y-108458000D02*
X215138000Y-117221000D01*
X209550000Y-102870000D02*
X215138000Y-108458000D01*
X209550000Y-92202000D02*
X209550000Y-102870000D01*
X209423000Y-92075000D02*
X209550000Y-92202000D01*
X219329000Y-123190000D02*
X219710000Y-123190000D01*
X219329000Y-123190000D02*
X219710000Y-123190000D01*
X219710000Y-123190000D02*
X219329000Y-123190000D01*
D29*
X125095000Y-84455000D02*
X130175000Y-84455000D01*
X133594000Y-87874000D02*
X140263000Y-87874000D01*
X130175000Y-84455000D02*
X133594000Y-87874000D01*
X140263000Y-87874000D02*
X140263000Y-88193000D01*
X140263000Y-88193000D02*
X142875000Y-90805000D01*
X142875000Y-102915000D02*
X138866000Y-106924000D01*
X142875000Y-90805000D02*
X142875000Y-102915000D01*
X139075000Y-106924000D02*
X139075000Y-107071000D01*
X139075000Y-107071000D02*
X142621000Y-110617000D01*
X142621000Y-110617000D02*
X142621000Y-120187000D01*
X142621000Y-120187000D02*
X138866000Y-123942000D01*
D27*
X201041000Y-81407000D02*
X201041000Y-90932000D01*
X201041000Y-91567000D02*
X204089000Y-94615000D01*
X201041000Y-90932000D02*
X201041000Y-91567000D01*
X198501000Y-81407000D02*
X200533000Y-83439000D01*
X200533000Y-92329000D02*
X204089000Y-95885000D01*
X200533000Y-83439000D02*
X200533000Y-92329000D01*
X195961000Y-81407000D02*
X200025000Y-85471000D01*
X200025000Y-93091000D02*
X204089000Y-97155000D01*
X200025000Y-85471000D02*
X200025000Y-93091000D01*
D26*
X190881000Y-114427000D02*
X190881000Y-114554000D01*
X196342000Y-110490000D02*
X196342000Y-110617000D01*
X195580000Y-124145000D02*
X195580000Y-122809000D01*
X195580000Y-122809000D02*
X195834000Y-122555000D01*
X220345000Y-94885000D02*
X228235000Y-94885000D01*
X228235000Y-94885000D02*
X228600000Y-95250000D01*
X220345000Y-103140000D02*
X228330000Y-103140000D01*
X228330000Y-103140000D02*
X228600000Y-102870000D01*
X220345000Y-110760000D02*
X228330000Y-110760000D01*
X228330000Y-110760000D02*
X228600000Y-110490000D01*
X193040000Y-124145000D02*
X192593000Y-123698000D01*
X192593000Y-123698000D02*
X190881000Y-123698000D01*
X191008000Y-109855000D02*
X191008000Y-109982000D01*
X191135000Y-85979000D02*
X192725000Y-85979000D01*
X191135000Y-88392000D02*
X192598000Y-88392000D01*
X192598000Y-88392000D02*
X192725000Y-88519000D01*
X191008000Y-90932000D02*
X192598000Y-90932000D01*
X192598000Y-90932000D02*
X192725000Y-91059000D01*
X158866000Y-106924000D02*
X159252000Y-106924000D01*
X196850000Y-127254000D02*
X195641000Y-126045000D01*
X195641000Y-126045000D02*
X195580000Y-126045000D01*
X194056000Y-127254000D02*
X193040000Y-126238000D01*
X193040000Y-126238000D02*
X193040000Y-126045000D01*
D30*
G36*
X185980000Y-82550000D02*
X186034046Y-82821705D01*
X186187954Y-83052046D01*
X186418295Y-83205954D01*
X186563000Y-83234738D01*
X186563000Y-86945262D01*
X186418295Y-86974046D01*
X186187954Y-87127954D01*
X186034046Y-87358295D01*
X185980000Y-87630000D01*
X185980000Y-118110000D01*
X186034046Y-118381705D01*
X186187954Y-118612046D01*
X186418295Y-118765954D01*
X186563000Y-118794738D01*
X186563000Y-122505262D01*
X186418295Y-122534046D01*
X186187954Y-122687954D01*
X186034046Y-122918295D01*
X185980000Y-123190000D01*
X185980000Y-128143000D01*
X156083000Y-128143000D01*
X156083000Y-124922213D01*
X158065392Y-124922213D01*
X158134857Y-125164397D01*
X158658302Y-125351144D01*
X159213368Y-125323362D01*
X159597143Y-125164397D01*
X159666608Y-124922213D01*
X158866000Y-124121605D01*
X158065392Y-124922213D01*
X156083000Y-124922213D01*
X156083000Y-123734302D01*
X157456856Y-123734302D01*
X157484638Y-124289368D01*
X157643603Y-124673143D01*
X157885787Y-124742608D01*
X158686395Y-123942000D01*
X159045605Y-123942000D01*
X159846213Y-124742608D01*
X160088397Y-124673143D01*
X160275144Y-124149698D01*
X160247362Y-123594632D01*
X160088397Y-123210857D01*
X159846213Y-123141392D01*
X159045605Y-123942000D01*
X158686395Y-123942000D01*
X157885787Y-123141392D01*
X157643603Y-123210857D01*
X157456856Y-123734302D01*
X156083000Y-123734302D01*
X156083000Y-122961787D01*
X158065392Y-122961787D01*
X158866000Y-123762395D01*
X159666608Y-122961787D01*
X159597143Y-122719603D01*
X159073698Y-122532856D01*
X158518632Y-122560638D01*
X158134857Y-122719603D01*
X158065392Y-122961787D01*
X156083000Y-122961787D01*
X156083000Y-116618661D01*
X157468758Y-116618661D01*
X157680990Y-117132303D01*
X158073630Y-117525629D01*
X158586900Y-117738757D01*
X159142661Y-117739242D01*
X159656303Y-117527010D01*
X160049629Y-117134370D01*
X160262757Y-116621100D01*
X160263242Y-116065339D01*
X160051010Y-115551697D01*
X159658370Y-115158371D01*
X159145100Y-114945243D01*
X158589339Y-114944758D01*
X158075697Y-115156990D01*
X157682371Y-115549630D01*
X157469243Y-116062900D01*
X157468758Y-116618661D01*
X156083000Y-116618661D01*
X156083000Y-107904213D01*
X158065392Y-107904213D01*
X158134857Y-108146397D01*
X158658302Y-108333144D01*
X159213368Y-108305362D01*
X159597143Y-108146397D01*
X159666608Y-107904213D01*
X158866000Y-107103605D01*
X158065392Y-107904213D01*
X156083000Y-107904213D01*
X156083000Y-106716302D01*
X157456856Y-106716302D01*
X157484638Y-107271368D01*
X157643603Y-107655143D01*
X157885787Y-107724608D01*
X158686395Y-106924000D01*
X159045605Y-106924000D01*
X159846213Y-107724608D01*
X160088397Y-107655143D01*
X160275144Y-107131698D01*
X160247362Y-106576632D01*
X160088397Y-106192857D01*
X159846213Y-106123392D01*
X159045605Y-106924000D01*
X158686395Y-106924000D01*
X157885787Y-106123392D01*
X157643603Y-106192857D01*
X157456856Y-106716302D01*
X156083000Y-106716302D01*
X156083000Y-105943787D01*
X158065392Y-105943787D01*
X158866000Y-106744395D01*
X159666608Y-105943787D01*
X159597143Y-105701603D01*
X159073698Y-105514856D01*
X158518632Y-105542638D01*
X158134857Y-105701603D01*
X158065392Y-105943787D01*
X156083000Y-105943787D01*
X156083000Y-99600661D01*
X157468758Y-99600661D01*
X157680990Y-100114303D01*
X158073630Y-100507629D01*
X158586900Y-100720757D01*
X159142661Y-100721242D01*
X159656303Y-100509010D01*
X160049629Y-100116370D01*
X160262757Y-99603100D01*
X160263242Y-99047339D01*
X160051010Y-98533697D01*
X159658370Y-98140371D01*
X159145100Y-97927243D01*
X158589339Y-97926758D01*
X158075697Y-98138990D01*
X157682371Y-98531630D01*
X157469243Y-99044900D01*
X157468758Y-99600661D01*
X156083000Y-99600661D01*
X156083000Y-88854213D01*
X159462392Y-88854213D01*
X159531857Y-89096397D01*
X160055302Y-89283144D01*
X160610368Y-89255362D01*
X160994143Y-89096397D01*
X161063608Y-88854213D01*
X160263000Y-88053605D01*
X159462392Y-88854213D01*
X156083000Y-88854213D01*
X156083000Y-87666302D01*
X158853856Y-87666302D01*
X158881638Y-88221368D01*
X159040603Y-88605143D01*
X159282787Y-88674608D01*
X160083395Y-87874000D01*
X160442605Y-87874000D01*
X161243213Y-88674608D01*
X161485397Y-88605143D01*
X161672144Y-88081698D01*
X161644362Y-87526632D01*
X161485397Y-87142857D01*
X161243213Y-87073392D01*
X160442605Y-87874000D01*
X160083395Y-87874000D01*
X159282787Y-87073392D01*
X159040603Y-87142857D01*
X158853856Y-87666302D01*
X156083000Y-87666302D01*
X156083000Y-86893787D01*
X159462392Y-86893787D01*
X160263000Y-87694395D01*
X161063608Y-86893787D01*
X160994143Y-86651603D01*
X160470698Y-86464856D01*
X159915632Y-86492638D01*
X159531857Y-86651603D01*
X159462392Y-86893787D01*
X156083000Y-86893787D01*
X156083000Y-80550661D01*
X158865758Y-80550661D01*
X159077990Y-81064303D01*
X159470630Y-81457629D01*
X159983900Y-81670757D01*
X160539661Y-81671242D01*
X160794971Y-81565750D01*
X166141400Y-81565750D01*
X166141400Y-82422309D01*
X166238073Y-82655698D01*
X166416701Y-82834327D01*
X166650090Y-82931000D01*
X167354250Y-82931000D01*
X167513000Y-82772250D01*
X167513000Y-81407000D01*
X166300150Y-81407000D01*
X166141400Y-81565750D01*
X160794971Y-81565750D01*
X161053303Y-81459010D01*
X161446629Y-81066370D01*
X161659757Y-80553100D01*
X161660119Y-80137691D01*
X166141400Y-80137691D01*
X166141400Y-80994250D01*
X166300150Y-81153000D01*
X167513000Y-81153000D01*
X167513000Y-79787750D01*
X167767000Y-79787750D01*
X167767000Y-81153000D01*
X167787000Y-81153000D01*
X167787000Y-81407000D01*
X167767000Y-81407000D01*
X167767000Y-82772250D01*
X167925750Y-82931000D01*
X168629910Y-82931000D01*
X168863299Y-82834327D01*
X169041927Y-82655698D01*
X169105500Y-82502220D01*
X169120330Y-82524415D01*
X169606511Y-82849271D01*
X170180000Y-82963345D01*
X170753489Y-82849271D01*
X171239670Y-82524415D01*
X171450000Y-82209634D01*
X171660330Y-82524415D01*
X172146511Y-82849271D01*
X172720000Y-82963345D01*
X173293489Y-82849271D01*
X173779670Y-82524415D01*
X173990000Y-82209634D01*
X174200330Y-82524415D01*
X174686511Y-82849271D01*
X175260000Y-82963345D01*
X175833489Y-82849271D01*
X176319670Y-82524415D01*
X176530000Y-82209634D01*
X176740330Y-82524415D01*
X177226511Y-82849271D01*
X177800000Y-82963345D01*
X178373489Y-82849271D01*
X178859670Y-82524415D01*
X179184526Y-82038234D01*
X179298600Y-81464745D01*
X179298600Y-81095255D01*
X179184526Y-80521766D01*
X178859670Y-80035585D01*
X178373489Y-79710729D01*
X177800000Y-79596655D01*
X177226511Y-79710729D01*
X176740330Y-80035585D01*
X176530000Y-80350366D01*
X176319670Y-80035585D01*
X175833489Y-79710729D01*
X175260000Y-79596655D01*
X174686511Y-79710729D01*
X174200330Y-80035585D01*
X173990000Y-80350366D01*
X173779670Y-80035585D01*
X173293489Y-79710729D01*
X172720000Y-79596655D01*
X172146511Y-79710729D01*
X171660330Y-80035585D01*
X171450000Y-80350366D01*
X171239670Y-80035585D01*
X170753489Y-79710729D01*
X170180000Y-79596655D01*
X169606511Y-79710729D01*
X169120330Y-80035585D01*
X169105500Y-80057780D01*
X169041927Y-79904302D01*
X168863299Y-79725673D01*
X168629910Y-79629000D01*
X167925750Y-79629000D01*
X167767000Y-79787750D01*
X167513000Y-79787750D01*
X167354250Y-79629000D01*
X166650090Y-79629000D01*
X166416701Y-79725673D01*
X166238073Y-79904302D01*
X166141400Y-80137691D01*
X161660119Y-80137691D01*
X161660242Y-79997339D01*
X161448010Y-79483697D01*
X161055370Y-79090371D01*
X160542100Y-78877243D01*
X159986339Y-78876758D01*
X159472697Y-79088990D01*
X159079371Y-79481630D01*
X158866243Y-79994900D01*
X158865758Y-80550661D01*
X156083000Y-80550661D01*
X156083000Y-77597000D01*
X185980000Y-77597000D01*
X185980000Y-82550000D01*
X185980000Y-82550000D01*
G37*
X185980000Y-82550000D02*
X186034046Y-82821705D01*
X186187954Y-83052046D01*
X186418295Y-83205954D01*
X186563000Y-83234738D01*
X186563000Y-86945262D01*
X186418295Y-86974046D01*
X186187954Y-87127954D01*
X186034046Y-87358295D01*
X185980000Y-87630000D01*
X185980000Y-118110000D01*
X186034046Y-118381705D01*
X186187954Y-118612046D01*
X186418295Y-118765954D01*
X186563000Y-118794738D01*
X186563000Y-122505262D01*
X186418295Y-122534046D01*
X186187954Y-122687954D01*
X186034046Y-122918295D01*
X185980000Y-123190000D01*
X185980000Y-128143000D01*
X156083000Y-128143000D01*
X156083000Y-124922213D01*
X158065392Y-124922213D01*
X158134857Y-125164397D01*
X158658302Y-125351144D01*
X159213368Y-125323362D01*
X159597143Y-125164397D01*
X159666608Y-124922213D01*
X158866000Y-124121605D01*
X158065392Y-124922213D01*
X156083000Y-124922213D01*
X156083000Y-123734302D01*
X157456856Y-123734302D01*
X157484638Y-124289368D01*
X157643603Y-124673143D01*
X157885787Y-124742608D01*
X158686395Y-123942000D01*
X159045605Y-123942000D01*
X159846213Y-124742608D01*
X160088397Y-124673143D01*
X160275144Y-124149698D01*
X160247362Y-123594632D01*
X160088397Y-123210857D01*
X159846213Y-123141392D01*
X159045605Y-123942000D01*
X158686395Y-123942000D01*
X157885787Y-123141392D01*
X157643603Y-123210857D01*
X157456856Y-123734302D01*
X156083000Y-123734302D01*
X156083000Y-122961787D01*
X158065392Y-122961787D01*
X158866000Y-123762395D01*
X159666608Y-122961787D01*
X159597143Y-122719603D01*
X159073698Y-122532856D01*
X158518632Y-122560638D01*
X158134857Y-122719603D01*
X158065392Y-122961787D01*
X156083000Y-122961787D01*
X156083000Y-116618661D01*
X157468758Y-116618661D01*
X157680990Y-117132303D01*
X158073630Y-117525629D01*
X158586900Y-117738757D01*
X159142661Y-117739242D01*
X159656303Y-117527010D01*
X160049629Y-117134370D01*
X160262757Y-116621100D01*
X160263242Y-116065339D01*
X160051010Y-115551697D01*
X159658370Y-115158371D01*
X159145100Y-114945243D01*
X158589339Y-114944758D01*
X158075697Y-115156990D01*
X157682371Y-115549630D01*
X157469243Y-116062900D01*
X157468758Y-116618661D01*
X156083000Y-116618661D01*
X156083000Y-107904213D01*
X158065392Y-107904213D01*
X158134857Y-108146397D01*
X158658302Y-108333144D01*
X159213368Y-108305362D01*
X159597143Y-108146397D01*
X159666608Y-107904213D01*
X158866000Y-107103605D01*
X158065392Y-107904213D01*
X156083000Y-107904213D01*
X156083000Y-106716302D01*
X157456856Y-106716302D01*
X157484638Y-107271368D01*
X157643603Y-107655143D01*
X157885787Y-107724608D01*
X158686395Y-106924000D01*
X159045605Y-106924000D01*
X159846213Y-107724608D01*
X160088397Y-107655143D01*
X160275144Y-107131698D01*
X160247362Y-106576632D01*
X160088397Y-106192857D01*
X159846213Y-106123392D01*
X159045605Y-106924000D01*
X158686395Y-106924000D01*
X157885787Y-106123392D01*
X157643603Y-106192857D01*
X157456856Y-106716302D01*
X156083000Y-106716302D01*
X156083000Y-105943787D01*
X158065392Y-105943787D01*
X158866000Y-106744395D01*
X159666608Y-105943787D01*
X159597143Y-105701603D01*
X159073698Y-105514856D01*
X158518632Y-105542638D01*
X158134857Y-105701603D01*
X158065392Y-105943787D01*
X156083000Y-105943787D01*
X156083000Y-99600661D01*
X157468758Y-99600661D01*
X157680990Y-100114303D01*
X158073630Y-100507629D01*
X158586900Y-100720757D01*
X159142661Y-100721242D01*
X159656303Y-100509010D01*
X160049629Y-100116370D01*
X160262757Y-99603100D01*
X160263242Y-99047339D01*
X160051010Y-98533697D01*
X159658370Y-98140371D01*
X159145100Y-97927243D01*
X158589339Y-97926758D01*
X158075697Y-98138990D01*
X157682371Y-98531630D01*
X157469243Y-99044900D01*
X157468758Y-99600661D01*
X156083000Y-99600661D01*
X156083000Y-88854213D01*
X159462392Y-88854213D01*
X159531857Y-89096397D01*
X160055302Y-89283144D01*
X160610368Y-89255362D01*
X160994143Y-89096397D01*
X161063608Y-88854213D01*
X160263000Y-88053605D01*
X159462392Y-88854213D01*
X156083000Y-88854213D01*
X156083000Y-87666302D01*
X158853856Y-87666302D01*
X158881638Y-88221368D01*
X159040603Y-88605143D01*
X159282787Y-88674608D01*
X160083395Y-87874000D01*
X160442605Y-87874000D01*
X161243213Y-88674608D01*
X161485397Y-88605143D01*
X161672144Y-88081698D01*
X161644362Y-87526632D01*
X161485397Y-87142857D01*
X161243213Y-87073392D01*
X160442605Y-87874000D01*
X160083395Y-87874000D01*
X159282787Y-87073392D01*
X159040603Y-87142857D01*
X158853856Y-87666302D01*
X156083000Y-87666302D01*
X156083000Y-86893787D01*
X159462392Y-86893787D01*
X160263000Y-87694395D01*
X161063608Y-86893787D01*
X160994143Y-86651603D01*
X160470698Y-86464856D01*
X159915632Y-86492638D01*
X159531857Y-86651603D01*
X159462392Y-86893787D01*
X156083000Y-86893787D01*
X156083000Y-80550661D01*
X158865758Y-80550661D01*
X159077990Y-81064303D01*
X159470630Y-81457629D01*
X159983900Y-81670757D01*
X160539661Y-81671242D01*
X160794971Y-81565750D01*
X166141400Y-81565750D01*
X166141400Y-82422309D01*
X166238073Y-82655698D01*
X166416701Y-82834327D01*
X166650090Y-82931000D01*
X167354250Y-82931000D01*
X167513000Y-82772250D01*
X167513000Y-81407000D01*
X166300150Y-81407000D01*
X166141400Y-81565750D01*
X160794971Y-81565750D01*
X161053303Y-81459010D01*
X161446629Y-81066370D01*
X161659757Y-80553100D01*
X161660119Y-80137691D01*
X166141400Y-80137691D01*
X166141400Y-80994250D01*
X166300150Y-81153000D01*
X167513000Y-81153000D01*
X167513000Y-79787750D01*
X167767000Y-79787750D01*
X167767000Y-81153000D01*
X167787000Y-81153000D01*
X167787000Y-81407000D01*
X167767000Y-81407000D01*
X167767000Y-82772250D01*
X167925750Y-82931000D01*
X168629910Y-82931000D01*
X168863299Y-82834327D01*
X169041927Y-82655698D01*
X169105500Y-82502220D01*
X169120330Y-82524415D01*
X169606511Y-82849271D01*
X170180000Y-82963345D01*
X170753489Y-82849271D01*
X171239670Y-82524415D01*
X171450000Y-82209634D01*
X171660330Y-82524415D01*
X172146511Y-82849271D01*
X172720000Y-82963345D01*
X173293489Y-82849271D01*
X173779670Y-82524415D01*
X173990000Y-82209634D01*
X174200330Y-82524415D01*
X174686511Y-82849271D01*
X175260000Y-82963345D01*
X175833489Y-82849271D01*
X176319670Y-82524415D01*
X176530000Y-82209634D01*
X176740330Y-82524415D01*
X177226511Y-82849271D01*
X177800000Y-82963345D01*
X178373489Y-82849271D01*
X178859670Y-82524415D01*
X179184526Y-82038234D01*
X179298600Y-81464745D01*
X179298600Y-81095255D01*
X179184526Y-80521766D01*
X178859670Y-80035585D01*
X178373489Y-79710729D01*
X177800000Y-79596655D01*
X177226511Y-79710729D01*
X176740330Y-80035585D01*
X176530000Y-80350366D01*
X176319670Y-80035585D01*
X175833489Y-79710729D01*
X175260000Y-79596655D01*
X174686511Y-79710729D01*
X174200330Y-80035585D01*
X173990000Y-80350366D01*
X173779670Y-80035585D01*
X173293489Y-79710729D01*
X172720000Y-79596655D01*
X172146511Y-79710729D01*
X171660330Y-80035585D01*
X171450000Y-80350366D01*
X171239670Y-80035585D01*
X170753489Y-79710729D01*
X170180000Y-79596655D01*
X169606511Y-79710729D01*
X169120330Y-80035585D01*
X169105500Y-80057780D01*
X169041927Y-79904302D01*
X168863299Y-79725673D01*
X168629910Y-79629000D01*
X167925750Y-79629000D01*
X167767000Y-79787750D01*
X167513000Y-79787750D01*
X167354250Y-79629000D01*
X166650090Y-79629000D01*
X166416701Y-79725673D01*
X166238073Y-79904302D01*
X166141400Y-80137691D01*
X161660119Y-80137691D01*
X161660242Y-79997339D01*
X161448010Y-79483697D01*
X161055370Y-79090371D01*
X160542100Y-78877243D01*
X159986339Y-78876758D01*
X159472697Y-79088990D01*
X159079371Y-79481630D01*
X158866243Y-79994900D01*
X158865758Y-80550661D01*
X156083000Y-80550661D01*
X156083000Y-77597000D01*
X185980000Y-77597000D01*
X185980000Y-82550000D01*
D28*
G36*
X236551400Y-135586400D02*
X189533600Y-135586400D01*
X189533600Y-132442135D01*
X206197084Y-132442135D01*
X206474885Y-133114465D01*
X206988829Y-133629307D01*
X207660673Y-133908282D01*
X208388135Y-133908916D01*
X209060465Y-133631115D01*
X209575307Y-133117171D01*
X209854282Y-132445327D01*
X209854916Y-131717865D01*
X209577115Y-131045535D01*
X209063171Y-130530693D01*
X208391327Y-130251718D01*
X207663865Y-130251084D01*
X206991535Y-130528885D01*
X206476693Y-131042829D01*
X206197718Y-131714673D01*
X206197084Y-132442135D01*
X189533600Y-132442135D01*
X189533600Y-125695000D01*
X192156922Y-125695000D01*
X192156922Y-126395000D01*
X192172862Y-126479714D01*
X192222928Y-126557518D01*
X192299320Y-126609715D01*
X192390000Y-126628078D01*
X192675736Y-126628078D01*
X193533383Y-127485725D01*
X193571224Y-127577306D01*
X193731849Y-127738211D01*
X193941823Y-127825400D01*
X194169180Y-127825599D01*
X194379306Y-127738776D01*
X194540211Y-127578151D01*
X194627400Y-127368177D01*
X194627599Y-127140820D01*
X194540776Y-126930694D01*
X194380151Y-126769789D01*
X194287772Y-126731430D01*
X193923078Y-126366736D01*
X193923078Y-125695000D01*
X194696922Y-125695000D01*
X194696922Y-126395000D01*
X194712862Y-126479714D01*
X194762928Y-126557518D01*
X194839320Y-126609715D01*
X194930000Y-126628078D01*
X195469736Y-126628078D01*
X196327383Y-127485725D01*
X196365224Y-127577306D01*
X196525849Y-127738211D01*
X196735823Y-127825400D01*
X196963180Y-127825599D01*
X197173306Y-127738776D01*
X197334211Y-127578151D01*
X197421400Y-127368177D01*
X197421599Y-127140820D01*
X197334776Y-126930694D01*
X197174151Y-126769789D01*
X197081772Y-126731430D01*
X196463078Y-126112736D01*
X196463078Y-126045000D01*
X209016600Y-126045000D01*
X209016600Y-126111000D01*
X209057203Y-126315123D01*
X209172829Y-126488171D01*
X209345877Y-126603797D01*
X209550000Y-126644400D01*
X209754123Y-126603797D01*
X209927171Y-126488171D01*
X210042797Y-126315123D01*
X210083400Y-126111000D01*
X210083400Y-126045000D01*
X210042797Y-125840877D01*
X209927171Y-125667829D01*
X209754123Y-125552203D01*
X209550000Y-125511600D01*
X209345877Y-125552203D01*
X209172829Y-125667829D01*
X209057203Y-125840877D01*
X209016600Y-126045000D01*
X196463078Y-126045000D01*
X196463078Y-125695000D01*
X196447138Y-125610286D01*
X196397072Y-125532482D01*
X196320680Y-125480285D01*
X196230000Y-125461922D01*
X194930000Y-125461922D01*
X194845286Y-125477862D01*
X194767482Y-125527928D01*
X194715285Y-125604320D01*
X194696922Y-125695000D01*
X193923078Y-125695000D01*
X193907138Y-125610286D01*
X193857072Y-125532482D01*
X193780680Y-125480285D01*
X193690000Y-125461922D01*
X192390000Y-125461922D01*
X192305286Y-125477862D01*
X192227482Y-125527928D01*
X192175285Y-125604320D01*
X192156922Y-125695000D01*
X189533600Y-125695000D01*
X189533600Y-123811180D01*
X190309401Y-123811180D01*
X190396224Y-124021306D01*
X190556849Y-124182211D01*
X190766823Y-124269400D01*
X190994180Y-124269599D01*
X191086628Y-124231400D01*
X192156922Y-124231400D01*
X192156922Y-124495000D01*
X192172862Y-124579714D01*
X192222928Y-124657518D01*
X192299320Y-124709715D01*
X192390000Y-124728078D01*
X193690000Y-124728078D01*
X193774714Y-124712138D01*
X193852518Y-124662072D01*
X193904715Y-124585680D01*
X193923078Y-124495000D01*
X193923078Y-123795000D01*
X194696922Y-123795000D01*
X194696922Y-124495000D01*
X194712862Y-124579714D01*
X194762928Y-124657518D01*
X194839320Y-124709715D01*
X194930000Y-124728078D01*
X196230000Y-124728078D01*
X196314714Y-124712138D01*
X196392518Y-124662072D01*
X196444715Y-124585680D01*
X196463078Y-124495000D01*
X196463078Y-123795000D01*
X196447138Y-123710286D01*
X196397072Y-123632482D01*
X196320680Y-123580285D01*
X196230000Y-123561922D01*
X196113400Y-123561922D01*
X196113400Y-123190000D01*
X198775922Y-123190000D01*
X198775922Y-125222000D01*
X198791862Y-125306714D01*
X198841928Y-125384518D01*
X198918320Y-125436715D01*
X199009000Y-125455078D01*
X201041000Y-125455078D01*
X201125714Y-125439138D01*
X201203518Y-125389072D01*
X201255715Y-125312680D01*
X201274078Y-125222000D01*
X201274078Y-125132957D01*
X201301943Y-125188531D01*
X201774086Y-125597091D01*
X202140613Y-125748899D01*
X202387200Y-125649239D01*
X202387200Y-124383800D01*
X202742800Y-124383800D01*
X202742800Y-125649239D01*
X202989387Y-125748899D01*
X203355914Y-125597091D01*
X203828057Y-125188531D01*
X204107911Y-124630389D01*
X204009254Y-124383800D01*
X202742800Y-124383800D01*
X202387200Y-124383800D01*
X202367200Y-124383800D01*
X202367200Y-124028200D01*
X202387200Y-124028200D01*
X202387200Y-122762761D01*
X202742800Y-122762761D01*
X202742800Y-124028200D01*
X204009254Y-124028200D01*
X204107911Y-123781611D01*
X203828057Y-123223469D01*
X203355914Y-122814909D01*
X202989387Y-122663101D01*
X202742800Y-122762761D01*
X202387200Y-122762761D01*
X202140613Y-122663101D01*
X201774086Y-122814909D01*
X201301943Y-123223469D01*
X201274078Y-123279043D01*
X201274078Y-123190000D01*
X201258138Y-123105286D01*
X201208072Y-123027482D01*
X201131680Y-122975285D01*
X201041000Y-122956922D01*
X199009000Y-122956922D01*
X198924286Y-122972862D01*
X198846482Y-123022928D01*
X198794285Y-123099320D01*
X198775922Y-123190000D01*
X196113400Y-123190000D01*
X196113400Y-123057918D01*
X196157306Y-123039776D01*
X196318211Y-122879151D01*
X196405400Y-122669177D01*
X196405599Y-122441820D01*
X196318776Y-122231694D01*
X196158151Y-122070789D01*
X195948177Y-121983600D01*
X195720820Y-121983401D01*
X195510694Y-122070224D01*
X195349789Y-122230849D01*
X195311430Y-122323228D01*
X195202829Y-122431829D01*
X195087203Y-122604877D01*
X195046600Y-122809000D01*
X195046600Y-123561922D01*
X194930000Y-123561922D01*
X194845286Y-123577862D01*
X194767482Y-123627928D01*
X194715285Y-123704320D01*
X194696922Y-123795000D01*
X193923078Y-123795000D01*
X193907138Y-123710286D01*
X193857072Y-123632482D01*
X193780680Y-123580285D01*
X193690000Y-123561922D01*
X193211263Y-123561922D01*
X192970171Y-123320829D01*
X192797123Y-123205203D01*
X192593000Y-123164600D01*
X191086691Y-123164600D01*
X190995177Y-123126600D01*
X190767820Y-123126401D01*
X190557694Y-123213224D01*
X190396789Y-123373849D01*
X190309600Y-123583823D01*
X190309401Y-123811180D01*
X189533600Y-123811180D01*
X189533600Y-123190000D01*
X189510490Y-123073817D01*
X189444678Y-122975322D01*
X189346183Y-122909510D01*
X189306200Y-122901557D01*
X189306200Y-119913400D01*
X191435322Y-119913400D01*
X191435322Y-122148600D01*
X191451262Y-122233314D01*
X191501328Y-122311118D01*
X191577720Y-122363315D01*
X191668400Y-122381678D01*
X193903600Y-122381678D01*
X193988314Y-122365738D01*
X194066118Y-122315672D01*
X194118315Y-122239280D01*
X194136678Y-122148600D01*
X194136678Y-119913400D01*
X194120738Y-119828686D01*
X194070672Y-119750882D01*
X193994280Y-119698685D01*
X193903600Y-119680322D01*
X191668400Y-119680322D01*
X191583686Y-119696262D01*
X191505882Y-119746328D01*
X191453685Y-119822720D01*
X191435322Y-119913400D01*
X189306200Y-119913400D01*
X189306200Y-118398443D01*
X189346183Y-118390490D01*
X189444678Y-118324678D01*
X189510490Y-118226183D01*
X189533600Y-118110000D01*
X189533600Y-114540180D01*
X190309401Y-114540180D01*
X190377759Y-114705617D01*
X190388203Y-114758123D01*
X190503829Y-114931171D01*
X190676877Y-115046797D01*
X190881000Y-115087400D01*
X191085123Y-115046797D01*
X191258171Y-114931171D01*
X191373797Y-114758123D01*
X191384354Y-114705049D01*
X191452400Y-114541177D01*
X191452599Y-114313820D01*
X191365776Y-114103694D01*
X191205151Y-113942789D01*
X190995177Y-113855600D01*
X190767820Y-113855401D01*
X190557694Y-113942224D01*
X190396789Y-114102849D01*
X190309600Y-114312823D01*
X190309401Y-114540180D01*
X189533600Y-114540180D01*
X189533600Y-110603180D01*
X195770401Y-110603180D01*
X195838759Y-110768617D01*
X195849203Y-110821123D01*
X195964829Y-110994171D01*
X196137877Y-111109797D01*
X196342000Y-111150400D01*
X196546123Y-111109797D01*
X196719171Y-110994171D01*
X196834797Y-110821123D01*
X196845354Y-110768049D01*
X196913400Y-110604177D01*
X196913599Y-110376820D01*
X196826776Y-110166694D01*
X196666151Y-110005789D01*
X196456177Y-109918600D01*
X196228820Y-109918401D01*
X196018694Y-110005224D01*
X195857789Y-110165849D01*
X195770600Y-110375823D01*
X195770401Y-110603180D01*
X189533600Y-110603180D01*
X189533600Y-109968180D01*
X190436401Y-109968180D01*
X190504759Y-110133617D01*
X190515203Y-110186123D01*
X190630829Y-110359171D01*
X190803877Y-110474797D01*
X191008000Y-110515400D01*
X191212123Y-110474797D01*
X191385171Y-110359171D01*
X191500797Y-110186123D01*
X191511354Y-110133049D01*
X191579400Y-109969177D01*
X191579599Y-109741820D01*
X191492776Y-109531694D01*
X191332151Y-109370789D01*
X191122177Y-109283600D01*
X190894820Y-109283401D01*
X190684694Y-109370224D01*
X190523789Y-109530849D01*
X190436600Y-109740823D01*
X190436401Y-109968180D01*
X189533600Y-109968180D01*
X189533600Y-107428180D01*
X196913401Y-107428180D01*
X197000224Y-107638306D01*
X197160849Y-107799211D01*
X197370823Y-107886400D01*
X197598180Y-107886599D01*
X197808306Y-107799776D01*
X197969211Y-107639151D01*
X198056400Y-107429177D01*
X198056599Y-107201820D01*
X197969776Y-106991694D01*
X197809151Y-106830789D01*
X197599177Y-106743600D01*
X197371820Y-106743401D01*
X197161694Y-106830224D01*
X197000789Y-106990849D01*
X196913600Y-107200823D01*
X196913401Y-107428180D01*
X189533600Y-107428180D01*
X189533600Y-104380180D01*
X192214401Y-104380180D01*
X192301224Y-104590306D01*
X192461849Y-104751211D01*
X192671823Y-104838400D01*
X192899180Y-104838599D01*
X193109306Y-104751776D01*
X193270211Y-104591151D01*
X193357400Y-104381177D01*
X193357599Y-104153820D01*
X193270776Y-103943694D01*
X193110151Y-103782789D01*
X192900177Y-103695600D01*
X192672820Y-103695401D01*
X192462694Y-103782224D01*
X192301789Y-103942849D01*
X192214600Y-104152823D01*
X192214401Y-104380180D01*
X189533600Y-104380180D01*
X189533600Y-97155000D01*
X193041017Y-97155000D01*
X193135757Y-97631288D01*
X193405552Y-98035065D01*
X193809329Y-98304860D01*
X194285617Y-98399600D01*
X194334383Y-98399600D01*
X194810671Y-98304860D01*
X195214448Y-98035065D01*
X195484243Y-97631288D01*
X195578983Y-97155000D01*
X195484243Y-96678712D01*
X195214448Y-96274935D01*
X194810671Y-96005140D01*
X194334383Y-95910400D01*
X194285617Y-95910400D01*
X193809329Y-96005140D01*
X193405552Y-96274935D01*
X193135757Y-96678712D01*
X193041017Y-97155000D01*
X189533600Y-97155000D01*
X189533600Y-93599000D01*
X193060922Y-93599000D01*
X193060922Y-95631000D01*
X193076862Y-95715714D01*
X193126928Y-95793518D01*
X193203320Y-95845715D01*
X193294000Y-95864078D01*
X195326000Y-95864078D01*
X195410714Y-95848138D01*
X195488518Y-95798072D01*
X195540715Y-95721680D01*
X195559078Y-95631000D01*
X195559078Y-93599000D01*
X195543138Y-93514286D01*
X195493072Y-93436482D01*
X195416680Y-93384285D01*
X195326000Y-93365922D01*
X193294000Y-93365922D01*
X193209286Y-93381862D01*
X193131482Y-93431928D01*
X193079285Y-93508320D01*
X193060922Y-93599000D01*
X189533600Y-93599000D01*
X189533600Y-91045180D01*
X190436401Y-91045180D01*
X190523224Y-91255306D01*
X190683849Y-91416211D01*
X190893823Y-91503400D01*
X191121180Y-91503599D01*
X191213628Y-91465400D01*
X192141922Y-91465400D01*
X192141922Y-91709000D01*
X192157862Y-91793714D01*
X192207928Y-91871518D01*
X192284320Y-91923715D01*
X192375000Y-91942078D01*
X193075000Y-91942078D01*
X193159714Y-91926138D01*
X193237518Y-91876072D01*
X193289715Y-91799680D01*
X193308078Y-91709000D01*
X193308078Y-91382850D01*
X193690800Y-91382850D01*
X193690800Y-91825204D01*
X193779739Y-92039922D01*
X193944077Y-92204261D01*
X194158795Y-92293200D01*
X194303950Y-92293200D01*
X194450000Y-92147150D01*
X194450000Y-91236800D01*
X194800000Y-91236800D01*
X194800000Y-92147150D01*
X194946050Y-92293200D01*
X195091205Y-92293200D01*
X195305923Y-92204261D01*
X195470261Y-92039922D01*
X195559200Y-91825204D01*
X195559200Y-91382850D01*
X195413150Y-91236800D01*
X194800000Y-91236800D01*
X194450000Y-91236800D01*
X193836850Y-91236800D01*
X193690800Y-91382850D01*
X193308078Y-91382850D01*
X193308078Y-90409000D01*
X193292138Y-90324286D01*
X193271875Y-90292796D01*
X193690800Y-90292796D01*
X193690800Y-90735150D01*
X193836850Y-90881200D01*
X194450000Y-90881200D01*
X194450000Y-89970850D01*
X194800000Y-89970850D01*
X194800000Y-90881200D01*
X195413150Y-90881200D01*
X195559200Y-90735150D01*
X195559200Y-90292796D01*
X195470261Y-90078078D01*
X195305923Y-89913739D01*
X195091205Y-89824800D01*
X194946050Y-89824800D01*
X194800000Y-89970850D01*
X194450000Y-89970850D01*
X194303950Y-89824800D01*
X194158795Y-89824800D01*
X193944077Y-89913739D01*
X193779739Y-90078078D01*
X193690800Y-90292796D01*
X193271875Y-90292796D01*
X193242072Y-90246482D01*
X193165680Y-90194285D01*
X193075000Y-90175922D01*
X192375000Y-90175922D01*
X192290286Y-90191862D01*
X192212482Y-90241928D01*
X192160285Y-90318320D01*
X192144028Y-90398600D01*
X191213691Y-90398600D01*
X191122177Y-90360600D01*
X190894820Y-90360401D01*
X190684694Y-90447224D01*
X190523789Y-90607849D01*
X190436600Y-90817823D01*
X190436401Y-91045180D01*
X189533600Y-91045180D01*
X189533600Y-88505180D01*
X190563401Y-88505180D01*
X190650224Y-88715306D01*
X190810849Y-88876211D01*
X191020823Y-88963400D01*
X191248180Y-88963599D01*
X191340628Y-88925400D01*
X192141922Y-88925400D01*
X192141922Y-89169000D01*
X192157862Y-89253714D01*
X192207928Y-89331518D01*
X192284320Y-89383715D01*
X192375000Y-89402078D01*
X193075000Y-89402078D01*
X193159714Y-89386138D01*
X193237518Y-89336072D01*
X193289715Y-89259680D01*
X193308078Y-89169000D01*
X193308078Y-88842850D01*
X193690800Y-88842850D01*
X193690800Y-89285204D01*
X193779739Y-89499922D01*
X193944077Y-89664261D01*
X194158795Y-89753200D01*
X194303950Y-89753200D01*
X194450000Y-89607150D01*
X194450000Y-88696800D01*
X194800000Y-88696800D01*
X194800000Y-89607150D01*
X194946050Y-89753200D01*
X195091205Y-89753200D01*
X195305923Y-89664261D01*
X195470261Y-89499922D01*
X195559200Y-89285204D01*
X195559200Y-88842850D01*
X195413150Y-88696800D01*
X194800000Y-88696800D01*
X194450000Y-88696800D01*
X193836850Y-88696800D01*
X193690800Y-88842850D01*
X193308078Y-88842850D01*
X193308078Y-87869000D01*
X193292138Y-87784286D01*
X193271875Y-87752796D01*
X193690800Y-87752796D01*
X193690800Y-88195150D01*
X193836850Y-88341200D01*
X194450000Y-88341200D01*
X194450000Y-87430850D01*
X194800000Y-87430850D01*
X194800000Y-88341200D01*
X195413150Y-88341200D01*
X195559200Y-88195150D01*
X195559200Y-87752796D01*
X195470261Y-87538078D01*
X195305923Y-87373739D01*
X195091205Y-87284800D01*
X194946050Y-87284800D01*
X194800000Y-87430850D01*
X194450000Y-87430850D01*
X194303950Y-87284800D01*
X194158795Y-87284800D01*
X193944077Y-87373739D01*
X193779739Y-87538078D01*
X193690800Y-87752796D01*
X193271875Y-87752796D01*
X193242072Y-87706482D01*
X193165680Y-87654285D01*
X193075000Y-87635922D01*
X192375000Y-87635922D01*
X192290286Y-87651862D01*
X192212482Y-87701928D01*
X192160285Y-87778320D01*
X192144028Y-87858600D01*
X191340691Y-87858600D01*
X191249177Y-87820600D01*
X191021820Y-87820401D01*
X190811694Y-87907224D01*
X190650789Y-88067849D01*
X190563600Y-88277823D01*
X190563401Y-88505180D01*
X189533600Y-88505180D01*
X189533600Y-87630000D01*
X189510490Y-87513817D01*
X189444678Y-87415322D01*
X189346183Y-87349510D01*
X189306200Y-87341557D01*
X189306200Y-86092180D01*
X190563401Y-86092180D01*
X190650224Y-86302306D01*
X190810849Y-86463211D01*
X191020823Y-86550400D01*
X191248180Y-86550599D01*
X191340628Y-86512400D01*
X192141922Y-86512400D01*
X192141922Y-86629000D01*
X192157862Y-86713714D01*
X192207928Y-86791518D01*
X192284320Y-86843715D01*
X192375000Y-86862078D01*
X193075000Y-86862078D01*
X193159714Y-86846138D01*
X193237518Y-86796072D01*
X193289715Y-86719680D01*
X193308078Y-86629000D01*
X193308078Y-86302850D01*
X193690800Y-86302850D01*
X193690800Y-86745204D01*
X193779739Y-86959922D01*
X193944077Y-87124261D01*
X194158795Y-87213200D01*
X194303950Y-87213200D01*
X194450000Y-87067150D01*
X194450000Y-86156800D01*
X194800000Y-86156800D01*
X194800000Y-87067150D01*
X194946050Y-87213200D01*
X195091205Y-87213200D01*
X195305923Y-87124261D01*
X195470261Y-86959922D01*
X195559200Y-86745204D01*
X195559200Y-86302850D01*
X195413150Y-86156800D01*
X194800000Y-86156800D01*
X194450000Y-86156800D01*
X193836850Y-86156800D01*
X193690800Y-86302850D01*
X193308078Y-86302850D01*
X193308078Y-85329000D01*
X193292138Y-85244286D01*
X193271875Y-85212796D01*
X193690800Y-85212796D01*
X193690800Y-85655150D01*
X193836850Y-85801200D01*
X194450000Y-85801200D01*
X194450000Y-84890850D01*
X194800000Y-84890850D01*
X194800000Y-85801200D01*
X195413150Y-85801200D01*
X195559200Y-85655150D01*
X195559200Y-85212796D01*
X195470261Y-84998078D01*
X195305923Y-84833739D01*
X195091205Y-84744800D01*
X194946050Y-84744800D01*
X194800000Y-84890850D01*
X194450000Y-84890850D01*
X194303950Y-84744800D01*
X194158795Y-84744800D01*
X193944077Y-84833739D01*
X193779739Y-84998078D01*
X193690800Y-85212796D01*
X193271875Y-85212796D01*
X193242072Y-85166482D01*
X193165680Y-85114285D01*
X193075000Y-85095922D01*
X192375000Y-85095922D01*
X192290286Y-85111862D01*
X192212482Y-85161928D01*
X192160285Y-85238320D01*
X192141922Y-85329000D01*
X192141922Y-85445600D01*
X191340691Y-85445600D01*
X191249177Y-85407600D01*
X191021820Y-85407401D01*
X190811694Y-85494224D01*
X190650789Y-85654849D01*
X190563600Y-85864823D01*
X190563401Y-86092180D01*
X189306200Y-86092180D01*
X189306200Y-82838443D01*
X189346183Y-82830490D01*
X189444678Y-82764678D01*
X189510490Y-82666183D01*
X189533600Y-82550000D01*
X189533600Y-80391000D01*
X192324322Y-80391000D01*
X192324322Y-82423000D01*
X192340262Y-82507714D01*
X192390328Y-82585518D01*
X192466720Y-82637715D01*
X192557400Y-82656078D01*
X194284600Y-82656078D01*
X194369314Y-82640138D01*
X194447118Y-82590072D01*
X194499315Y-82513680D01*
X194517678Y-82423000D01*
X194517678Y-81230217D01*
X194868800Y-81230217D01*
X194868800Y-81583783D01*
X194951939Y-82001750D01*
X195188698Y-82356085D01*
X195543033Y-82592844D01*
X195961000Y-82675983D01*
X196378967Y-82592844D01*
X196516279Y-82501095D01*
X199644000Y-85628816D01*
X199644000Y-93091000D01*
X199673002Y-93236803D01*
X199755592Y-93360408D01*
X203517529Y-97122345D01*
X203517401Y-97268180D01*
X203604224Y-97478306D01*
X203764849Y-97639211D01*
X203974823Y-97726400D01*
X204202180Y-97726599D01*
X204412306Y-97639776D01*
X204573211Y-97479151D01*
X204660400Y-97269177D01*
X204660599Y-97041820D01*
X204573776Y-96831694D01*
X204413151Y-96670789D01*
X204203177Y-96583600D01*
X204056287Y-96583471D01*
X203896831Y-96424015D01*
X203974823Y-96456400D01*
X204202180Y-96456599D01*
X204412306Y-96369776D01*
X204573211Y-96209151D01*
X204660400Y-95999177D01*
X204660599Y-95771820D01*
X204573776Y-95561694D01*
X204413151Y-95400789D01*
X204203177Y-95313600D01*
X204056287Y-95313471D01*
X203896829Y-95154014D01*
X203974823Y-95186400D01*
X204202180Y-95186599D01*
X204412306Y-95099776D01*
X204573211Y-94939151D01*
X204660400Y-94729177D01*
X204660599Y-94501820D01*
X204573776Y-94291694D01*
X204413151Y-94130789D01*
X204203177Y-94043600D01*
X204056287Y-94043471D01*
X202200996Y-92188180D01*
X206438401Y-92188180D01*
X206525224Y-92398306D01*
X206685849Y-92559211D01*
X206895823Y-92646400D01*
X207123180Y-92646599D01*
X207169480Y-92627468D01*
X207142669Y-92654279D01*
X207124177Y-92646600D01*
X206896820Y-92646401D01*
X206686694Y-92733224D01*
X206525789Y-92893849D01*
X206438600Y-93103823D01*
X206438401Y-93331180D01*
X206525224Y-93541306D01*
X206685849Y-93702211D01*
X206895823Y-93789400D01*
X207123180Y-93789599D01*
X207333306Y-93702776D01*
X207494211Y-93542151D01*
X207581400Y-93332177D01*
X207581599Y-93104820D01*
X207573597Y-93085455D01*
X208470872Y-92188180D01*
X208851401Y-92188180D01*
X208938224Y-92398306D01*
X209098849Y-92559211D01*
X209245200Y-92619981D01*
X209245200Y-102870000D01*
X209268402Y-102986642D01*
X209334474Y-103085526D01*
X214262487Y-108013539D01*
X214052694Y-108100224D01*
X213891789Y-108260849D01*
X213804600Y-108470823D01*
X213804401Y-108698180D01*
X213891224Y-108908306D01*
X214051849Y-109069211D01*
X214261823Y-109156400D01*
X214452200Y-109156567D01*
X214452200Y-117398802D01*
X214475402Y-117515444D01*
X214541474Y-117614328D01*
X216484200Y-119557054D01*
X216484200Y-122809000D01*
X216507402Y-122925642D01*
X216573474Y-123024526D01*
X218752216Y-125203268D01*
X218679542Y-125312033D01*
X218596403Y-125730000D01*
X218679542Y-126147967D01*
X218916301Y-126502302D01*
X219270636Y-126739061D01*
X219688603Y-126822200D01*
X219731397Y-126822200D01*
X220149364Y-126739061D01*
X220503699Y-126502302D01*
X220740458Y-126147967D01*
X220802200Y-125837570D01*
X220802200Y-125907802D01*
X220960449Y-125907802D01*
X220858663Y-126130382D01*
X220983052Y-126430719D01*
X221347646Y-126862220D01*
X221849615Y-127121351D01*
X222072200Y-127020805D01*
X222072200Y-125907800D01*
X222427800Y-125907800D01*
X222427800Y-127020805D01*
X222650385Y-127121351D01*
X223152354Y-126862220D01*
X223516948Y-126430719D01*
X223641337Y-126130382D01*
X223539550Y-125907800D01*
X222427800Y-125907800D01*
X222072200Y-125907800D01*
X222052200Y-125907800D01*
X222052200Y-125552200D01*
X222072200Y-125552200D01*
X222072200Y-124439195D01*
X222427800Y-124439195D01*
X222427800Y-125552200D01*
X223539550Y-125552200D01*
X223641337Y-125329618D01*
X223516948Y-125029281D01*
X223152354Y-124597780D01*
X222650385Y-124338649D01*
X222427800Y-124439195D01*
X222072200Y-124439195D01*
X221849615Y-124338649D01*
X221347646Y-124597780D01*
X220983052Y-125029281D01*
X220858663Y-125329618D01*
X220960449Y-125552198D01*
X220802200Y-125552198D01*
X220802200Y-125622430D01*
X220740458Y-125312033D01*
X220503699Y-124957698D01*
X220149364Y-124720939D01*
X219731397Y-124637800D01*
X219688603Y-124637800D01*
X219270636Y-124720939D01*
X219187524Y-124776472D01*
X217093800Y-122682748D01*
X217093800Y-121385852D01*
X218646433Y-122938485D01*
X218596403Y-123190000D01*
X218679542Y-123607967D01*
X218916301Y-123962302D01*
X219270636Y-124199061D01*
X219688603Y-124282200D01*
X219731397Y-124282200D01*
X220149364Y-124199061D01*
X220503699Y-123962302D01*
X220740458Y-123607967D01*
X220823597Y-123190000D01*
X220740458Y-122772033D01*
X220503699Y-122417698D01*
X220215007Y-122224800D01*
X220345748Y-122224800D01*
X221165362Y-123044414D01*
X221136403Y-123190000D01*
X221219542Y-123607967D01*
X221456301Y-123962302D01*
X221810636Y-124199061D01*
X222228603Y-124282200D01*
X222271397Y-124282200D01*
X222689364Y-124199061D01*
X223043699Y-123962302D01*
X223280458Y-123607967D01*
X223363597Y-123190000D01*
X223280458Y-122772033D01*
X223043699Y-122417698D01*
X222689364Y-122180939D01*
X222271397Y-122097800D01*
X222228603Y-122097800D01*
X221810636Y-122180939D01*
X221456301Y-122417698D01*
X221434050Y-122450998D01*
X220692069Y-121709017D01*
X220736118Y-121680672D01*
X220788315Y-121604280D01*
X220806678Y-121513600D01*
X220806678Y-120650000D01*
X221136403Y-120650000D01*
X221219542Y-121067967D01*
X221456301Y-121422302D01*
X221810636Y-121659061D01*
X222228603Y-121742200D01*
X222271397Y-121742200D01*
X222689364Y-121659061D01*
X223043699Y-121422302D01*
X223280458Y-121067967D01*
X223363597Y-120650000D01*
X223280458Y-120232033D01*
X223043699Y-119877698D01*
X222689364Y-119640939D01*
X222271397Y-119557800D01*
X222228603Y-119557800D01*
X221810636Y-119640939D01*
X221456301Y-119877698D01*
X221219542Y-120232033D01*
X221136403Y-120650000D01*
X220806678Y-120650000D01*
X220806678Y-119786400D01*
X220790738Y-119701686D01*
X220740672Y-119623882D01*
X220664280Y-119571685D01*
X220573600Y-119553322D01*
X219044374Y-119553322D01*
X217206232Y-117715180D01*
X217360401Y-117715180D01*
X217447224Y-117925306D01*
X217607849Y-118086211D01*
X217817823Y-118173400D01*
X218045180Y-118173599D01*
X218255306Y-118086776D01*
X218416211Y-117926151D01*
X218503400Y-117716177D01*
X218503599Y-117488820D01*
X218416776Y-117278694D01*
X218256151Y-117117789D01*
X218046177Y-117030600D01*
X217818820Y-117030401D01*
X217608694Y-117117224D01*
X217447789Y-117277849D01*
X217360600Y-117487823D01*
X217360401Y-117715180D01*
X217206232Y-117715180D01*
X216204800Y-116713748D01*
X216204800Y-115570000D01*
X227331017Y-115570000D01*
X227414156Y-115987967D01*
X227650915Y-116342302D01*
X228005250Y-116579061D01*
X228423217Y-116662200D01*
X228776783Y-116662200D01*
X229194750Y-116579061D01*
X229549085Y-116342302D01*
X229785844Y-115987967D01*
X229868983Y-115570000D01*
X229785844Y-115152033D01*
X229549085Y-114797698D01*
X229194750Y-114560939D01*
X228776783Y-114477800D01*
X228423217Y-114477800D01*
X228005250Y-114560939D01*
X227650915Y-114797698D01*
X227414156Y-115152033D01*
X227331017Y-115570000D01*
X216204800Y-115570000D01*
X216204800Y-110206151D01*
X216210849Y-110212211D01*
X216420823Y-110299400D01*
X216648180Y-110299599D01*
X216858306Y-110212776D01*
X217019211Y-110052151D01*
X217106400Y-109842177D01*
X217106599Y-109614820D01*
X217019776Y-109404694D01*
X216859151Y-109243789D01*
X216649177Y-109156600D01*
X216421820Y-109156401D01*
X216211694Y-109243224D01*
X216204800Y-109250106D01*
X216204800Y-101569930D01*
X216337849Y-101703211D01*
X216547823Y-101790400D01*
X216775180Y-101790599D01*
X216985306Y-101703776D01*
X217146211Y-101543151D01*
X217233400Y-101333177D01*
X217233599Y-101105820D01*
X217146776Y-100895694D01*
X216986151Y-100734789D01*
X216776177Y-100647600D01*
X216548820Y-100647401D01*
X216338694Y-100734224D01*
X216204800Y-100867885D01*
X216204800Y-96393000D01*
X216181598Y-96276358D01*
X216115526Y-96177474D01*
X213415721Y-93477669D01*
X213423400Y-93459177D01*
X213423599Y-93231820D01*
X213336776Y-93021694D01*
X213176151Y-92860789D01*
X212966177Y-92773600D01*
X212738820Y-92773401D01*
X212528694Y-92860224D01*
X212367789Y-93020849D01*
X212280600Y-93230823D01*
X212280401Y-93458180D01*
X212367224Y-93668306D01*
X212527849Y-93829211D01*
X212737823Y-93916400D01*
X212965180Y-93916599D01*
X212984545Y-93908597D01*
X215595200Y-96519252D01*
X215595200Y-98832148D01*
X213288721Y-96525669D01*
X213296400Y-96507177D01*
X213296599Y-96279820D01*
X213209776Y-96069694D01*
X213049151Y-95908789D01*
X212839177Y-95821600D01*
X212611820Y-95821401D01*
X212401694Y-95908224D01*
X212240789Y-96068849D01*
X212153600Y-96278823D01*
X212153401Y-96506180D01*
X212240224Y-96716306D01*
X212400849Y-96877211D01*
X212610823Y-96964400D01*
X212838180Y-96964599D01*
X212857545Y-96956597D01*
X215214200Y-99313252D01*
X215214200Y-108103148D01*
X211491232Y-104380180D01*
X211899401Y-104380180D01*
X211986224Y-104590306D01*
X212146849Y-104751211D01*
X212356823Y-104838400D01*
X212584180Y-104838599D01*
X212794306Y-104751776D01*
X212955211Y-104591151D01*
X213042400Y-104381177D01*
X213042599Y-104153820D01*
X212955776Y-103943694D01*
X212795151Y-103782789D01*
X212585177Y-103695600D01*
X212357820Y-103695401D01*
X212147694Y-103782224D01*
X211986789Y-103942849D01*
X211899600Y-104152823D01*
X211899401Y-104380180D01*
X211491232Y-104380180D01*
X209854800Y-102743748D01*
X209854800Y-99554180D01*
X212026401Y-99554180D01*
X212113224Y-99764306D01*
X212273849Y-99925211D01*
X212483823Y-100012400D01*
X212711180Y-100012599D01*
X212921306Y-99925776D01*
X213082211Y-99765151D01*
X213169400Y-99555177D01*
X213169599Y-99327820D01*
X213082776Y-99117694D01*
X212922151Y-98956789D01*
X212712177Y-98869600D01*
X212484820Y-98869401D01*
X212274694Y-98956224D01*
X212113789Y-99116849D01*
X212026600Y-99326823D01*
X212026401Y-99554180D01*
X209854800Y-99554180D01*
X209854800Y-92451471D01*
X209907211Y-92399151D01*
X209994400Y-92189177D01*
X209994599Y-91961820D01*
X209907776Y-91751694D01*
X209747151Y-91590789D01*
X209537177Y-91503600D01*
X209309820Y-91503401D01*
X209099694Y-91590224D01*
X208938789Y-91750849D01*
X208851600Y-91960823D01*
X208851401Y-92188180D01*
X208470872Y-92188180D01*
X209168252Y-91490800D01*
X213487748Y-91490800D01*
X214579200Y-92582252D01*
X214579200Y-93487577D01*
X214560694Y-93495224D01*
X214399789Y-93655849D01*
X214312600Y-93865823D01*
X214312401Y-94093180D01*
X214399224Y-94303306D01*
X214559849Y-94464211D01*
X214769823Y-94551400D01*
X214997180Y-94551599D01*
X215207306Y-94464776D01*
X215368211Y-94304151D01*
X215455400Y-94094177D01*
X215455599Y-93866820D01*
X215368776Y-93656694D01*
X215208151Y-93495789D01*
X215188800Y-93487754D01*
X215188800Y-92456000D01*
X215165598Y-92339358D01*
X215099526Y-92240474D01*
X213968852Y-91109800D01*
X214630748Y-91109800D01*
X217500200Y-93979252D01*
X217500200Y-105156748D01*
X217302669Y-105354279D01*
X217284177Y-105346600D01*
X217056820Y-105346401D01*
X216846694Y-105433224D01*
X216685789Y-105593849D01*
X216598600Y-105803823D01*
X216598401Y-106031180D01*
X216685224Y-106241306D01*
X216845849Y-106402211D01*
X217055823Y-106489400D01*
X217283180Y-106489599D01*
X217493306Y-106402776D01*
X217654211Y-106242151D01*
X217741400Y-106032177D01*
X217741599Y-105804820D01*
X217733597Y-105785455D01*
X217805009Y-105714043D01*
X217805009Y-112598939D01*
X217302669Y-113101279D01*
X217284177Y-113093600D01*
X217056820Y-113093401D01*
X216846694Y-113180224D01*
X216685789Y-113340849D01*
X216598600Y-113550823D01*
X216598401Y-113778180D01*
X216685224Y-113988306D01*
X216845849Y-114149211D01*
X217055823Y-114236400D01*
X217283180Y-114236599D01*
X217493306Y-114149776D01*
X217654211Y-113989151D01*
X217741400Y-113779177D01*
X217741599Y-113551820D01*
X217733597Y-113532455D01*
X218182202Y-113083850D01*
X219135800Y-113083850D01*
X219135800Y-113376205D01*
X219224739Y-113590923D01*
X219389078Y-113755261D01*
X219603796Y-113844200D01*
X220021150Y-113844200D01*
X220167200Y-113698150D01*
X220167200Y-112937800D01*
X220522800Y-112937800D01*
X220522800Y-113698150D01*
X220668850Y-113844200D01*
X221086204Y-113844200D01*
X221300922Y-113755261D01*
X221465261Y-113590923D01*
X221531759Y-113430382D01*
X227056263Y-113430382D01*
X227262637Y-113859530D01*
X227670284Y-114249852D01*
X228196271Y-114454462D01*
X228422200Y-114330191D01*
X228422200Y-113207800D01*
X228777800Y-113207800D01*
X228777800Y-114330191D01*
X229003729Y-114454462D01*
X229529716Y-114249852D01*
X229937363Y-113859530D01*
X230143737Y-113430382D01*
X230041950Y-113207800D01*
X228777800Y-113207800D01*
X228422200Y-113207800D01*
X227158050Y-113207800D01*
X227056263Y-113430382D01*
X221531759Y-113430382D01*
X221554200Y-113376205D01*
X221554200Y-113083850D01*
X221408150Y-112937800D01*
X220522800Y-112937800D01*
X220167200Y-112937800D01*
X219281850Y-112937800D01*
X219135800Y-113083850D01*
X218182202Y-113083850D01*
X218325335Y-112940717D01*
X218391407Y-112841833D01*
X218414609Y-112725191D01*
X218414609Y-112629618D01*
X227056263Y-112629618D01*
X227158050Y-112852200D01*
X228422200Y-112852200D01*
X228422200Y-111729809D01*
X228777800Y-111729809D01*
X228777800Y-112852200D01*
X230041950Y-112852200D01*
X230143737Y-112629618D01*
X229937363Y-112200470D01*
X229529716Y-111810148D01*
X229003729Y-111605538D01*
X228777800Y-111729809D01*
X228422200Y-111729809D01*
X228196271Y-111605538D01*
X227670284Y-111810148D01*
X227262637Y-112200470D01*
X227056263Y-112629618D01*
X218414609Y-112629618D01*
X218414609Y-112143795D01*
X219135800Y-112143795D01*
X219135800Y-112436150D01*
X219281850Y-112582200D01*
X220167200Y-112582200D01*
X220167200Y-111821850D01*
X220522800Y-111821850D01*
X220522800Y-112582200D01*
X221408150Y-112582200D01*
X221554200Y-112436150D01*
X221554200Y-112143795D01*
X221465261Y-111929077D01*
X221300922Y-111764739D01*
X221086204Y-111675800D01*
X220668850Y-111675800D01*
X220522800Y-111821850D01*
X220167200Y-111821850D01*
X220021150Y-111675800D01*
X219603796Y-111675800D01*
X219389078Y-111764739D01*
X219224739Y-111929077D01*
X219135800Y-112143795D01*
X218414609Y-112143795D01*
X218414609Y-110260000D01*
X219486922Y-110260000D01*
X219486922Y-111260000D01*
X219502862Y-111344714D01*
X219552928Y-111422518D01*
X219629320Y-111474715D01*
X219720000Y-111493078D01*
X220970000Y-111493078D01*
X221054714Y-111477138D01*
X221132518Y-111427072D01*
X221184715Y-111350680D01*
X221196314Y-111293400D01*
X227697456Y-111293400D01*
X228005250Y-111499061D01*
X228423217Y-111582200D01*
X228776783Y-111582200D01*
X229194750Y-111499061D01*
X229549085Y-111262302D01*
X229785844Y-110907967D01*
X229868983Y-110490000D01*
X229785844Y-110072033D01*
X229549085Y-109717698D01*
X229194750Y-109480939D01*
X228776783Y-109397800D01*
X228423217Y-109397800D01*
X228005250Y-109480939D01*
X227650915Y-109717698D01*
X227414156Y-110072033D01*
X227383411Y-110226600D01*
X221196793Y-110226600D01*
X221187138Y-110175286D01*
X221137072Y-110097482D01*
X221060680Y-110045285D01*
X220970000Y-110026922D01*
X219720000Y-110026922D01*
X219635286Y-110042862D01*
X219557482Y-110092928D01*
X219505285Y-110169320D01*
X219486922Y-110260000D01*
X218414609Y-110260000D01*
X218414609Y-107950000D01*
X227331017Y-107950000D01*
X227414156Y-108367967D01*
X227650915Y-108722302D01*
X228005250Y-108959061D01*
X228423217Y-109042200D01*
X228776783Y-109042200D01*
X229194750Y-108959061D01*
X229549085Y-108722302D01*
X229785844Y-108367967D01*
X229868983Y-107950000D01*
X229785844Y-107532033D01*
X229549085Y-107177698D01*
X229194750Y-106940939D01*
X228776783Y-106857800D01*
X228423217Y-106857800D01*
X228005250Y-106940939D01*
X227650915Y-107177698D01*
X227414156Y-107532033D01*
X227331017Y-107950000D01*
X218414609Y-107950000D01*
X218414609Y-105463850D01*
X219135800Y-105463850D01*
X219135800Y-105756205D01*
X219224739Y-105970923D01*
X219389078Y-106135261D01*
X219603796Y-106224200D01*
X220021150Y-106224200D01*
X220167200Y-106078150D01*
X220167200Y-105317800D01*
X220522800Y-105317800D01*
X220522800Y-106078150D01*
X220668850Y-106224200D01*
X221086204Y-106224200D01*
X221300922Y-106135261D01*
X221465261Y-105970923D01*
X221531759Y-105810382D01*
X227056263Y-105810382D01*
X227262637Y-106239530D01*
X227670284Y-106629852D01*
X228196271Y-106834462D01*
X228422200Y-106710191D01*
X228422200Y-105587800D01*
X228777800Y-105587800D01*
X228777800Y-106710191D01*
X229003729Y-106834462D01*
X229529716Y-106629852D01*
X229937363Y-106239530D01*
X230143737Y-105810382D01*
X230041950Y-105587800D01*
X228777800Y-105587800D01*
X228422200Y-105587800D01*
X227158050Y-105587800D01*
X227056263Y-105810382D01*
X221531759Y-105810382D01*
X221554200Y-105756205D01*
X221554200Y-105463850D01*
X221408150Y-105317800D01*
X220522800Y-105317800D01*
X220167200Y-105317800D01*
X219281850Y-105317800D01*
X219135800Y-105463850D01*
X218414609Y-105463850D01*
X218414609Y-105009618D01*
X227056263Y-105009618D01*
X227158050Y-105232200D01*
X228422200Y-105232200D01*
X228422200Y-104109809D01*
X228777800Y-104109809D01*
X228777800Y-105232200D01*
X230041950Y-105232200D01*
X230143737Y-105009618D01*
X229937363Y-104580470D01*
X229529716Y-104190148D01*
X229003729Y-103985538D01*
X228777800Y-104109809D01*
X228422200Y-104109809D01*
X228196271Y-103985538D01*
X227670284Y-104190148D01*
X227262637Y-104580470D01*
X227056263Y-105009618D01*
X218414609Y-105009618D01*
X218414609Y-104523795D01*
X219135800Y-104523795D01*
X219135800Y-104816150D01*
X219281850Y-104962200D01*
X220167200Y-104962200D01*
X220167200Y-104201850D01*
X220522800Y-104201850D01*
X220522800Y-104962200D01*
X221408150Y-104962200D01*
X221554200Y-104816150D01*
X221554200Y-104523795D01*
X221465261Y-104309077D01*
X221300922Y-104144739D01*
X221086204Y-104055800D01*
X220668850Y-104055800D01*
X220522800Y-104201850D01*
X220167200Y-104201850D01*
X220021150Y-104055800D01*
X219603796Y-104055800D01*
X219389078Y-104144739D01*
X219224739Y-104309077D01*
X219135800Y-104523795D01*
X218414609Y-104523795D01*
X218414609Y-102640000D01*
X219486922Y-102640000D01*
X219486922Y-103640000D01*
X219502862Y-103724714D01*
X219552928Y-103802518D01*
X219629320Y-103854715D01*
X219720000Y-103873078D01*
X220970000Y-103873078D01*
X221054714Y-103857138D01*
X221132518Y-103807072D01*
X221184715Y-103730680D01*
X221196314Y-103673400D01*
X227697456Y-103673400D01*
X228005250Y-103879061D01*
X228423217Y-103962200D01*
X228776783Y-103962200D01*
X229194750Y-103879061D01*
X229549085Y-103642302D01*
X229785844Y-103287967D01*
X229868983Y-102870000D01*
X229785844Y-102452033D01*
X229549085Y-102097698D01*
X229194750Y-101860939D01*
X228776783Y-101777800D01*
X228423217Y-101777800D01*
X228005250Y-101860939D01*
X227650915Y-102097698D01*
X227414156Y-102452033D01*
X227383411Y-102606600D01*
X221196793Y-102606600D01*
X221187138Y-102555286D01*
X221137072Y-102477482D01*
X221060680Y-102425285D01*
X220970000Y-102406922D01*
X219720000Y-102406922D01*
X219635286Y-102422862D01*
X219557482Y-102472928D01*
X219505285Y-102549320D01*
X219486922Y-102640000D01*
X218414609Y-102640000D01*
X218414609Y-100330000D01*
X227331017Y-100330000D01*
X227414156Y-100747967D01*
X227650915Y-101102302D01*
X228005250Y-101339061D01*
X228423217Y-101422200D01*
X228776783Y-101422200D01*
X229194750Y-101339061D01*
X229549085Y-101102302D01*
X229785844Y-100747967D01*
X229868983Y-100330000D01*
X229785844Y-99912033D01*
X229549085Y-99557698D01*
X229194750Y-99320939D01*
X228776783Y-99237800D01*
X228423217Y-99237800D01*
X228005250Y-99320939D01*
X227650915Y-99557698D01*
X227414156Y-99912033D01*
X227331017Y-100330000D01*
X218414609Y-100330000D01*
X218414609Y-98190382D01*
X227056263Y-98190382D01*
X227262637Y-98619530D01*
X227670284Y-99009852D01*
X228196271Y-99214462D01*
X228422200Y-99090191D01*
X228422200Y-97967800D01*
X228777800Y-97967800D01*
X228777800Y-99090191D01*
X229003729Y-99214462D01*
X229529716Y-99009852D01*
X229937363Y-98619530D01*
X230143737Y-98190382D01*
X230041950Y-97967800D01*
X228777800Y-97967800D01*
X228422200Y-97967800D01*
X227158050Y-97967800D01*
X227056263Y-98190382D01*
X218414609Y-98190382D01*
X218414609Y-97208850D01*
X219135800Y-97208850D01*
X219135800Y-97501205D01*
X219224739Y-97715923D01*
X219389078Y-97880261D01*
X219603796Y-97969200D01*
X220021150Y-97969200D01*
X220167200Y-97823150D01*
X220167200Y-97062800D01*
X220522800Y-97062800D01*
X220522800Y-97823150D01*
X220668850Y-97969200D01*
X221086204Y-97969200D01*
X221300922Y-97880261D01*
X221465261Y-97715923D01*
X221554200Y-97501205D01*
X221554200Y-97208850D01*
X221408150Y-97062800D01*
X220522800Y-97062800D01*
X220167200Y-97062800D01*
X219281850Y-97062800D01*
X219135800Y-97208850D01*
X218414609Y-97208850D01*
X218414609Y-96268795D01*
X219135800Y-96268795D01*
X219135800Y-96561150D01*
X219281850Y-96707200D01*
X220167200Y-96707200D01*
X220167200Y-95946850D01*
X220522800Y-95946850D01*
X220522800Y-96707200D01*
X221408150Y-96707200D01*
X221554200Y-96561150D01*
X221554200Y-96268795D01*
X221465261Y-96054077D01*
X221300922Y-95889739D01*
X221086204Y-95800800D01*
X220668850Y-95800800D01*
X220522800Y-95946850D01*
X220167200Y-95946850D01*
X220021150Y-95800800D01*
X219603796Y-95800800D01*
X219389078Y-95889739D01*
X219224739Y-96054077D01*
X219135800Y-96268795D01*
X218414609Y-96268795D01*
X218414609Y-94385000D01*
X219486922Y-94385000D01*
X219486922Y-95385000D01*
X219502862Y-95469714D01*
X219552928Y-95547518D01*
X219629320Y-95599715D01*
X219720000Y-95618078D01*
X220970000Y-95618078D01*
X221054714Y-95602138D01*
X221132518Y-95552072D01*
X221184715Y-95475680D01*
X221196314Y-95418400D01*
X227350922Y-95418400D01*
X227350922Y-96113600D01*
X227366862Y-96198314D01*
X227416928Y-96276118D01*
X227493320Y-96328315D01*
X227584000Y-96346678D01*
X228422198Y-96346678D01*
X228422198Y-96489808D01*
X228196271Y-96365538D01*
X227670284Y-96570148D01*
X227262637Y-96960470D01*
X227056263Y-97389618D01*
X227158050Y-97612200D01*
X228422200Y-97612200D01*
X228422200Y-97592200D01*
X228777800Y-97592200D01*
X228777800Y-97612200D01*
X230041950Y-97612200D01*
X230143737Y-97389618D01*
X229937363Y-96960470D01*
X229529716Y-96570148D01*
X229003729Y-96365538D01*
X228777802Y-96489808D01*
X228777802Y-96346678D01*
X229616000Y-96346678D01*
X229700714Y-96330738D01*
X229778518Y-96280672D01*
X229830715Y-96204280D01*
X229849078Y-96113600D01*
X229849078Y-94386400D01*
X229833138Y-94301686D01*
X229783072Y-94223882D01*
X229706680Y-94171685D01*
X229616000Y-94153322D01*
X227584000Y-94153322D01*
X227499286Y-94169262D01*
X227421482Y-94219328D01*
X227369285Y-94295720D01*
X227357969Y-94351600D01*
X221196793Y-94351600D01*
X221187138Y-94300286D01*
X221137072Y-94222482D01*
X221060680Y-94170285D01*
X220970000Y-94151922D01*
X219720000Y-94151922D01*
X219635286Y-94167862D01*
X219557482Y-94217928D01*
X219505285Y-94294320D01*
X219486922Y-94385000D01*
X218414609Y-94385000D01*
X218414609Y-93726743D01*
X218391407Y-93610101D01*
X218325335Y-93511217D01*
X215060693Y-90246575D01*
X214961809Y-90180503D01*
X214845167Y-90157301D01*
X207479899Y-90157301D01*
X207363257Y-90180503D01*
X207271291Y-90241952D01*
X207251177Y-90233600D01*
X207023820Y-90233401D01*
X206813694Y-90320224D01*
X206652789Y-90480849D01*
X206565600Y-90690823D01*
X206565401Y-90918180D01*
X206652224Y-91128306D01*
X206812849Y-91289211D01*
X207022823Y-91376400D01*
X207250180Y-91376599D01*
X207296480Y-91357468D01*
X207142669Y-91511279D01*
X207124177Y-91503600D01*
X206896820Y-91503401D01*
X206686694Y-91590224D01*
X206525789Y-91750849D01*
X206438600Y-91960823D01*
X206438401Y-92188180D01*
X202200996Y-92188180D01*
X201422000Y-91409184D01*
X201422000Y-88900000D01*
X227072041Y-88900000D01*
X227166781Y-89376288D01*
X227436576Y-89780065D01*
X227840353Y-90049860D01*
X228316641Y-90144600D01*
X228883359Y-90144600D01*
X229359647Y-90049860D01*
X229763424Y-89780065D01*
X230033219Y-89376288D01*
X230127959Y-88900000D01*
X230033219Y-88423712D01*
X229763424Y-88019935D01*
X229359647Y-87750140D01*
X228883359Y-87655400D01*
X228316641Y-87655400D01*
X227840353Y-87750140D01*
X227436576Y-88019935D01*
X227166781Y-88423712D01*
X227072041Y-88900000D01*
X201422000Y-88900000D01*
X201422000Y-84244387D01*
X226803101Y-84244387D01*
X226803697Y-84268640D01*
X227092785Y-84824703D01*
X227572663Y-85227809D01*
X227736468Y-85279554D01*
X227436576Y-85479935D01*
X227166781Y-85883712D01*
X227072041Y-86360000D01*
X227166781Y-86836288D01*
X227436576Y-87240065D01*
X227840353Y-87509860D01*
X228316641Y-87604600D01*
X228883359Y-87604600D01*
X229359647Y-87509860D01*
X229763424Y-87240065D01*
X230033219Y-86836288D01*
X230127959Y-86360000D01*
X230033219Y-85883712D01*
X229763424Y-85479935D01*
X229463532Y-85279554D01*
X229627337Y-85227809D01*
X230107215Y-84824703D01*
X230396303Y-84268640D01*
X230396899Y-84244387D01*
X230297239Y-83997800D01*
X228777800Y-83997800D01*
X228777800Y-84017800D01*
X228422200Y-84017800D01*
X228422200Y-83997800D01*
X226902761Y-83997800D01*
X226803101Y-84244387D01*
X201422000Y-84244387D01*
X201422000Y-83395613D01*
X226803101Y-83395613D01*
X226902761Y-83642200D01*
X228422200Y-83642200D01*
X228422200Y-82361628D01*
X228777800Y-82361628D01*
X228777800Y-83642200D01*
X230297239Y-83642200D01*
X230396899Y-83395613D01*
X230396303Y-83371360D01*
X230107215Y-82815297D01*
X229627337Y-82412191D01*
X229029725Y-82223411D01*
X228777800Y-82361628D01*
X228422200Y-82361628D01*
X228170275Y-82223411D01*
X227572663Y-82412191D01*
X227092785Y-82815297D01*
X226803697Y-83371360D01*
X226803101Y-83395613D01*
X201422000Y-83395613D01*
X201422000Y-82600197D01*
X201458967Y-82592844D01*
X201813302Y-82356085D01*
X202050061Y-82001750D01*
X202088057Y-81810729D01*
X202156538Y-81810729D01*
X202361148Y-82336716D01*
X202751470Y-82744363D01*
X203180618Y-82950737D01*
X203403200Y-82848950D01*
X203403200Y-81584800D01*
X203758800Y-81584800D01*
X203758800Y-82848950D01*
X203981382Y-82950737D01*
X204410530Y-82744363D01*
X204800852Y-82336716D01*
X205005462Y-81810729D01*
X204881191Y-81584800D01*
X203758800Y-81584800D01*
X203403200Y-81584800D01*
X202280809Y-81584800D01*
X202156538Y-81810729D01*
X202088057Y-81810729D01*
X202133200Y-81583783D01*
X202133200Y-81230217D01*
X202088058Y-81003271D01*
X202156538Y-81003271D01*
X202280809Y-81229200D01*
X203403200Y-81229200D01*
X203403200Y-79965050D01*
X203758800Y-79965050D01*
X203758800Y-81229200D01*
X204881191Y-81229200D01*
X205005462Y-81003271D01*
X204800852Y-80477284D01*
X204410530Y-80069637D01*
X203981382Y-79863263D01*
X203758800Y-79965050D01*
X203403200Y-79965050D01*
X203180618Y-79863263D01*
X202751470Y-80069637D01*
X202361148Y-80477284D01*
X202156538Y-81003271D01*
X202088058Y-81003271D01*
X202050061Y-80812250D01*
X201813302Y-80457915D01*
X201458967Y-80221156D01*
X201041000Y-80138017D01*
X200623033Y-80221156D01*
X200268698Y-80457915D01*
X200031939Y-80812250D01*
X199948800Y-81230217D01*
X199948800Y-81583783D01*
X200031939Y-82001750D01*
X200268698Y-82356085D01*
X200623033Y-82592844D01*
X200660000Y-82600197D01*
X200660000Y-83027184D01*
X199530718Y-81897902D01*
X199593200Y-81583783D01*
X199593200Y-81230217D01*
X199510061Y-80812250D01*
X199273302Y-80457915D01*
X198918967Y-80221156D01*
X198501000Y-80138017D01*
X198083033Y-80221156D01*
X197728698Y-80457915D01*
X197491939Y-80812250D01*
X197408800Y-81230217D01*
X197408800Y-81583783D01*
X197491939Y-82001750D01*
X197728698Y-82356085D01*
X198083033Y-82592844D01*
X198501000Y-82675983D01*
X198918967Y-82592844D01*
X199056279Y-82501095D01*
X200152000Y-83596816D01*
X200152000Y-85059184D01*
X196990718Y-81897902D01*
X197053200Y-81583783D01*
X197053200Y-81230217D01*
X196970061Y-80812250D01*
X196733302Y-80457915D01*
X196378967Y-80221156D01*
X195961000Y-80138017D01*
X195543033Y-80221156D01*
X195188698Y-80457915D01*
X194951939Y-80812250D01*
X194868800Y-81230217D01*
X194517678Y-81230217D01*
X194517678Y-80391000D01*
X194501738Y-80306286D01*
X194451672Y-80228482D01*
X194375280Y-80176285D01*
X194284600Y-80157922D01*
X192557400Y-80157922D01*
X192472686Y-80173862D01*
X192394882Y-80223928D01*
X192342685Y-80300320D01*
X192324322Y-80391000D01*
X189533600Y-80391000D01*
X189533600Y-74149135D01*
X206197084Y-74149135D01*
X206474885Y-74821465D01*
X206988829Y-75336307D01*
X207660673Y-75615282D01*
X208388135Y-75615916D01*
X209060465Y-75338115D01*
X209575307Y-74824171D01*
X209854282Y-74152327D01*
X209854916Y-73424865D01*
X209577115Y-72752535D01*
X209063171Y-72237693D01*
X208391327Y-71958718D01*
X207663865Y-71958084D01*
X206991535Y-72235885D01*
X206476693Y-72749829D01*
X206197718Y-73421673D01*
X206197084Y-74149135D01*
X189533600Y-74149135D01*
X189533600Y-70153600D01*
X236551400Y-70153600D01*
X236551400Y-135586400D01*
X236551400Y-135586400D01*
G37*
X236551400Y-135586400D02*
X189533600Y-135586400D01*
X189533600Y-132442135D01*
X206197084Y-132442135D01*
X206474885Y-133114465D01*
X206988829Y-133629307D01*
X207660673Y-133908282D01*
X208388135Y-133908916D01*
X209060465Y-133631115D01*
X209575307Y-133117171D01*
X209854282Y-132445327D01*
X209854916Y-131717865D01*
X209577115Y-131045535D01*
X209063171Y-130530693D01*
X208391327Y-130251718D01*
X207663865Y-130251084D01*
X206991535Y-130528885D01*
X206476693Y-131042829D01*
X206197718Y-131714673D01*
X206197084Y-132442135D01*
X189533600Y-132442135D01*
X189533600Y-125695000D01*
X192156922Y-125695000D01*
X192156922Y-126395000D01*
X192172862Y-126479714D01*
X192222928Y-126557518D01*
X192299320Y-126609715D01*
X192390000Y-126628078D01*
X192675736Y-126628078D01*
X193533383Y-127485725D01*
X193571224Y-127577306D01*
X193731849Y-127738211D01*
X193941823Y-127825400D01*
X194169180Y-127825599D01*
X194379306Y-127738776D01*
X194540211Y-127578151D01*
X194627400Y-127368177D01*
X194627599Y-127140820D01*
X194540776Y-126930694D01*
X194380151Y-126769789D01*
X194287772Y-126731430D01*
X193923078Y-126366736D01*
X193923078Y-125695000D01*
X194696922Y-125695000D01*
X194696922Y-126395000D01*
X194712862Y-126479714D01*
X194762928Y-126557518D01*
X194839320Y-126609715D01*
X194930000Y-126628078D01*
X195469736Y-126628078D01*
X196327383Y-127485725D01*
X196365224Y-127577306D01*
X196525849Y-127738211D01*
X196735823Y-127825400D01*
X196963180Y-127825599D01*
X197173306Y-127738776D01*
X197334211Y-127578151D01*
X197421400Y-127368177D01*
X197421599Y-127140820D01*
X197334776Y-126930694D01*
X197174151Y-126769789D01*
X197081772Y-126731430D01*
X196463078Y-126112736D01*
X196463078Y-126045000D01*
X209016600Y-126045000D01*
X209016600Y-126111000D01*
X209057203Y-126315123D01*
X209172829Y-126488171D01*
X209345877Y-126603797D01*
X209550000Y-126644400D01*
X209754123Y-126603797D01*
X209927171Y-126488171D01*
X210042797Y-126315123D01*
X210083400Y-126111000D01*
X210083400Y-126045000D01*
X210042797Y-125840877D01*
X209927171Y-125667829D01*
X209754123Y-125552203D01*
X209550000Y-125511600D01*
X209345877Y-125552203D01*
X209172829Y-125667829D01*
X209057203Y-125840877D01*
X209016600Y-126045000D01*
X196463078Y-126045000D01*
X196463078Y-125695000D01*
X196447138Y-125610286D01*
X196397072Y-125532482D01*
X196320680Y-125480285D01*
X196230000Y-125461922D01*
X194930000Y-125461922D01*
X194845286Y-125477862D01*
X194767482Y-125527928D01*
X194715285Y-125604320D01*
X194696922Y-125695000D01*
X193923078Y-125695000D01*
X193907138Y-125610286D01*
X193857072Y-125532482D01*
X193780680Y-125480285D01*
X193690000Y-125461922D01*
X192390000Y-125461922D01*
X192305286Y-125477862D01*
X192227482Y-125527928D01*
X192175285Y-125604320D01*
X192156922Y-125695000D01*
X189533600Y-125695000D01*
X189533600Y-123811180D01*
X190309401Y-123811180D01*
X190396224Y-124021306D01*
X190556849Y-124182211D01*
X190766823Y-124269400D01*
X190994180Y-124269599D01*
X191086628Y-124231400D01*
X192156922Y-124231400D01*
X192156922Y-124495000D01*
X192172862Y-124579714D01*
X192222928Y-124657518D01*
X192299320Y-124709715D01*
X192390000Y-124728078D01*
X193690000Y-124728078D01*
X193774714Y-124712138D01*
X193852518Y-124662072D01*
X193904715Y-124585680D01*
X193923078Y-124495000D01*
X193923078Y-123795000D01*
X194696922Y-123795000D01*
X194696922Y-124495000D01*
X194712862Y-124579714D01*
X194762928Y-124657518D01*
X194839320Y-124709715D01*
X194930000Y-124728078D01*
X196230000Y-124728078D01*
X196314714Y-124712138D01*
X196392518Y-124662072D01*
X196444715Y-124585680D01*
X196463078Y-124495000D01*
X196463078Y-123795000D01*
X196447138Y-123710286D01*
X196397072Y-123632482D01*
X196320680Y-123580285D01*
X196230000Y-123561922D01*
X196113400Y-123561922D01*
X196113400Y-123190000D01*
X198775922Y-123190000D01*
X198775922Y-125222000D01*
X198791862Y-125306714D01*
X198841928Y-125384518D01*
X198918320Y-125436715D01*
X199009000Y-125455078D01*
X201041000Y-125455078D01*
X201125714Y-125439138D01*
X201203518Y-125389072D01*
X201255715Y-125312680D01*
X201274078Y-125222000D01*
X201274078Y-125132957D01*
X201301943Y-125188531D01*
X201774086Y-125597091D01*
X202140613Y-125748899D01*
X202387200Y-125649239D01*
X202387200Y-124383800D01*
X202742800Y-124383800D01*
X202742800Y-125649239D01*
X202989387Y-125748899D01*
X203355914Y-125597091D01*
X203828057Y-125188531D01*
X204107911Y-124630389D01*
X204009254Y-124383800D01*
X202742800Y-124383800D01*
X202387200Y-124383800D01*
X202367200Y-124383800D01*
X202367200Y-124028200D01*
X202387200Y-124028200D01*
X202387200Y-122762761D01*
X202742800Y-122762761D01*
X202742800Y-124028200D01*
X204009254Y-124028200D01*
X204107911Y-123781611D01*
X203828057Y-123223469D01*
X203355914Y-122814909D01*
X202989387Y-122663101D01*
X202742800Y-122762761D01*
X202387200Y-122762761D01*
X202140613Y-122663101D01*
X201774086Y-122814909D01*
X201301943Y-123223469D01*
X201274078Y-123279043D01*
X201274078Y-123190000D01*
X201258138Y-123105286D01*
X201208072Y-123027482D01*
X201131680Y-122975285D01*
X201041000Y-122956922D01*
X199009000Y-122956922D01*
X198924286Y-122972862D01*
X198846482Y-123022928D01*
X198794285Y-123099320D01*
X198775922Y-123190000D01*
X196113400Y-123190000D01*
X196113400Y-123057918D01*
X196157306Y-123039776D01*
X196318211Y-122879151D01*
X196405400Y-122669177D01*
X196405599Y-122441820D01*
X196318776Y-122231694D01*
X196158151Y-122070789D01*
X195948177Y-121983600D01*
X195720820Y-121983401D01*
X195510694Y-122070224D01*
X195349789Y-122230849D01*
X195311430Y-122323228D01*
X195202829Y-122431829D01*
X195087203Y-122604877D01*
X195046600Y-122809000D01*
X195046600Y-123561922D01*
X194930000Y-123561922D01*
X194845286Y-123577862D01*
X194767482Y-123627928D01*
X194715285Y-123704320D01*
X194696922Y-123795000D01*
X193923078Y-123795000D01*
X193907138Y-123710286D01*
X193857072Y-123632482D01*
X193780680Y-123580285D01*
X193690000Y-123561922D01*
X193211263Y-123561922D01*
X192970171Y-123320829D01*
X192797123Y-123205203D01*
X192593000Y-123164600D01*
X191086691Y-123164600D01*
X190995177Y-123126600D01*
X190767820Y-123126401D01*
X190557694Y-123213224D01*
X190396789Y-123373849D01*
X190309600Y-123583823D01*
X190309401Y-123811180D01*
X189533600Y-123811180D01*
X189533600Y-123190000D01*
X189510490Y-123073817D01*
X189444678Y-122975322D01*
X189346183Y-122909510D01*
X189306200Y-122901557D01*
X189306200Y-119913400D01*
X191435322Y-119913400D01*
X191435322Y-122148600D01*
X191451262Y-122233314D01*
X191501328Y-122311118D01*
X191577720Y-122363315D01*
X191668400Y-122381678D01*
X193903600Y-122381678D01*
X193988314Y-122365738D01*
X194066118Y-122315672D01*
X194118315Y-122239280D01*
X194136678Y-122148600D01*
X194136678Y-119913400D01*
X194120738Y-119828686D01*
X194070672Y-119750882D01*
X193994280Y-119698685D01*
X193903600Y-119680322D01*
X191668400Y-119680322D01*
X191583686Y-119696262D01*
X191505882Y-119746328D01*
X191453685Y-119822720D01*
X191435322Y-119913400D01*
X189306200Y-119913400D01*
X189306200Y-118398443D01*
X189346183Y-118390490D01*
X189444678Y-118324678D01*
X189510490Y-118226183D01*
X189533600Y-118110000D01*
X189533600Y-114540180D01*
X190309401Y-114540180D01*
X190377759Y-114705617D01*
X190388203Y-114758123D01*
X190503829Y-114931171D01*
X190676877Y-115046797D01*
X190881000Y-115087400D01*
X191085123Y-115046797D01*
X191258171Y-114931171D01*
X191373797Y-114758123D01*
X191384354Y-114705049D01*
X191452400Y-114541177D01*
X191452599Y-114313820D01*
X191365776Y-114103694D01*
X191205151Y-113942789D01*
X190995177Y-113855600D01*
X190767820Y-113855401D01*
X190557694Y-113942224D01*
X190396789Y-114102849D01*
X190309600Y-114312823D01*
X190309401Y-114540180D01*
X189533600Y-114540180D01*
X189533600Y-110603180D01*
X195770401Y-110603180D01*
X195838759Y-110768617D01*
X195849203Y-110821123D01*
X195964829Y-110994171D01*
X196137877Y-111109797D01*
X196342000Y-111150400D01*
X196546123Y-111109797D01*
X196719171Y-110994171D01*
X196834797Y-110821123D01*
X196845354Y-110768049D01*
X196913400Y-110604177D01*
X196913599Y-110376820D01*
X196826776Y-110166694D01*
X196666151Y-110005789D01*
X196456177Y-109918600D01*
X196228820Y-109918401D01*
X196018694Y-110005224D01*
X195857789Y-110165849D01*
X195770600Y-110375823D01*
X195770401Y-110603180D01*
X189533600Y-110603180D01*
X189533600Y-109968180D01*
X190436401Y-109968180D01*
X190504759Y-110133617D01*
X190515203Y-110186123D01*
X190630829Y-110359171D01*
X190803877Y-110474797D01*
X191008000Y-110515400D01*
X191212123Y-110474797D01*
X191385171Y-110359171D01*
X191500797Y-110186123D01*
X191511354Y-110133049D01*
X191579400Y-109969177D01*
X191579599Y-109741820D01*
X191492776Y-109531694D01*
X191332151Y-109370789D01*
X191122177Y-109283600D01*
X190894820Y-109283401D01*
X190684694Y-109370224D01*
X190523789Y-109530849D01*
X190436600Y-109740823D01*
X190436401Y-109968180D01*
X189533600Y-109968180D01*
X189533600Y-107428180D01*
X196913401Y-107428180D01*
X197000224Y-107638306D01*
X197160849Y-107799211D01*
X197370823Y-107886400D01*
X197598180Y-107886599D01*
X197808306Y-107799776D01*
X197969211Y-107639151D01*
X198056400Y-107429177D01*
X198056599Y-107201820D01*
X197969776Y-106991694D01*
X197809151Y-106830789D01*
X197599177Y-106743600D01*
X197371820Y-106743401D01*
X197161694Y-106830224D01*
X197000789Y-106990849D01*
X196913600Y-107200823D01*
X196913401Y-107428180D01*
X189533600Y-107428180D01*
X189533600Y-104380180D01*
X192214401Y-104380180D01*
X192301224Y-104590306D01*
X192461849Y-104751211D01*
X192671823Y-104838400D01*
X192899180Y-104838599D01*
X193109306Y-104751776D01*
X193270211Y-104591151D01*
X193357400Y-104381177D01*
X193357599Y-104153820D01*
X193270776Y-103943694D01*
X193110151Y-103782789D01*
X192900177Y-103695600D01*
X192672820Y-103695401D01*
X192462694Y-103782224D01*
X192301789Y-103942849D01*
X192214600Y-104152823D01*
X192214401Y-104380180D01*
X189533600Y-104380180D01*
X189533600Y-97155000D01*
X193041017Y-97155000D01*
X193135757Y-97631288D01*
X193405552Y-98035065D01*
X193809329Y-98304860D01*
X194285617Y-98399600D01*
X194334383Y-98399600D01*
X194810671Y-98304860D01*
X195214448Y-98035065D01*
X195484243Y-97631288D01*
X195578983Y-97155000D01*
X195484243Y-96678712D01*
X195214448Y-96274935D01*
X194810671Y-96005140D01*
X194334383Y-95910400D01*
X194285617Y-95910400D01*
X193809329Y-96005140D01*
X193405552Y-96274935D01*
X193135757Y-96678712D01*
X193041017Y-97155000D01*
X189533600Y-97155000D01*
X189533600Y-93599000D01*
X193060922Y-93599000D01*
X193060922Y-95631000D01*
X193076862Y-95715714D01*
X193126928Y-95793518D01*
X193203320Y-95845715D01*
X193294000Y-95864078D01*
X195326000Y-95864078D01*
X195410714Y-95848138D01*
X195488518Y-95798072D01*
X195540715Y-95721680D01*
X195559078Y-95631000D01*
X195559078Y-93599000D01*
X195543138Y-93514286D01*
X195493072Y-93436482D01*
X195416680Y-93384285D01*
X195326000Y-93365922D01*
X193294000Y-93365922D01*
X193209286Y-93381862D01*
X193131482Y-93431928D01*
X193079285Y-93508320D01*
X193060922Y-93599000D01*
X189533600Y-93599000D01*
X189533600Y-91045180D01*
X190436401Y-91045180D01*
X190523224Y-91255306D01*
X190683849Y-91416211D01*
X190893823Y-91503400D01*
X191121180Y-91503599D01*
X191213628Y-91465400D01*
X192141922Y-91465400D01*
X192141922Y-91709000D01*
X192157862Y-91793714D01*
X192207928Y-91871518D01*
X192284320Y-91923715D01*
X192375000Y-91942078D01*
X193075000Y-91942078D01*
X193159714Y-91926138D01*
X193237518Y-91876072D01*
X193289715Y-91799680D01*
X193308078Y-91709000D01*
X193308078Y-91382850D01*
X193690800Y-91382850D01*
X193690800Y-91825204D01*
X193779739Y-92039922D01*
X193944077Y-92204261D01*
X194158795Y-92293200D01*
X194303950Y-92293200D01*
X194450000Y-92147150D01*
X194450000Y-91236800D01*
X194800000Y-91236800D01*
X194800000Y-92147150D01*
X194946050Y-92293200D01*
X195091205Y-92293200D01*
X195305923Y-92204261D01*
X195470261Y-92039922D01*
X195559200Y-91825204D01*
X195559200Y-91382850D01*
X195413150Y-91236800D01*
X194800000Y-91236800D01*
X194450000Y-91236800D01*
X193836850Y-91236800D01*
X193690800Y-91382850D01*
X193308078Y-91382850D01*
X193308078Y-90409000D01*
X193292138Y-90324286D01*
X193271875Y-90292796D01*
X193690800Y-90292796D01*
X193690800Y-90735150D01*
X193836850Y-90881200D01*
X194450000Y-90881200D01*
X194450000Y-89970850D01*
X194800000Y-89970850D01*
X194800000Y-90881200D01*
X195413150Y-90881200D01*
X195559200Y-90735150D01*
X195559200Y-90292796D01*
X195470261Y-90078078D01*
X195305923Y-89913739D01*
X195091205Y-89824800D01*
X194946050Y-89824800D01*
X194800000Y-89970850D01*
X194450000Y-89970850D01*
X194303950Y-89824800D01*
X194158795Y-89824800D01*
X193944077Y-89913739D01*
X193779739Y-90078078D01*
X193690800Y-90292796D01*
X193271875Y-90292796D01*
X193242072Y-90246482D01*
X193165680Y-90194285D01*
X193075000Y-90175922D01*
X192375000Y-90175922D01*
X192290286Y-90191862D01*
X192212482Y-90241928D01*
X192160285Y-90318320D01*
X192144028Y-90398600D01*
X191213691Y-90398600D01*
X191122177Y-90360600D01*
X190894820Y-90360401D01*
X190684694Y-90447224D01*
X190523789Y-90607849D01*
X190436600Y-90817823D01*
X190436401Y-91045180D01*
X189533600Y-91045180D01*
X189533600Y-88505180D01*
X190563401Y-88505180D01*
X190650224Y-88715306D01*
X190810849Y-88876211D01*
X191020823Y-88963400D01*
X191248180Y-88963599D01*
X191340628Y-88925400D01*
X192141922Y-88925400D01*
X192141922Y-89169000D01*
X192157862Y-89253714D01*
X192207928Y-89331518D01*
X192284320Y-89383715D01*
X192375000Y-89402078D01*
X193075000Y-89402078D01*
X193159714Y-89386138D01*
X193237518Y-89336072D01*
X193289715Y-89259680D01*
X193308078Y-89169000D01*
X193308078Y-88842850D01*
X193690800Y-88842850D01*
X193690800Y-89285204D01*
X193779739Y-89499922D01*
X193944077Y-89664261D01*
X194158795Y-89753200D01*
X194303950Y-89753200D01*
X194450000Y-89607150D01*
X194450000Y-88696800D01*
X194800000Y-88696800D01*
X194800000Y-89607150D01*
X194946050Y-89753200D01*
X195091205Y-89753200D01*
X195305923Y-89664261D01*
X195470261Y-89499922D01*
X195559200Y-89285204D01*
X195559200Y-88842850D01*
X195413150Y-88696800D01*
X194800000Y-88696800D01*
X194450000Y-88696800D01*
X193836850Y-88696800D01*
X193690800Y-88842850D01*
X193308078Y-88842850D01*
X193308078Y-87869000D01*
X193292138Y-87784286D01*
X193271875Y-87752796D01*
X193690800Y-87752796D01*
X193690800Y-88195150D01*
X193836850Y-88341200D01*
X194450000Y-88341200D01*
X194450000Y-87430850D01*
X194800000Y-87430850D01*
X194800000Y-88341200D01*
X195413150Y-88341200D01*
X195559200Y-88195150D01*
X195559200Y-87752796D01*
X195470261Y-87538078D01*
X195305923Y-87373739D01*
X195091205Y-87284800D01*
X194946050Y-87284800D01*
X194800000Y-87430850D01*
X194450000Y-87430850D01*
X194303950Y-87284800D01*
X194158795Y-87284800D01*
X193944077Y-87373739D01*
X193779739Y-87538078D01*
X193690800Y-87752796D01*
X193271875Y-87752796D01*
X193242072Y-87706482D01*
X193165680Y-87654285D01*
X193075000Y-87635922D01*
X192375000Y-87635922D01*
X192290286Y-87651862D01*
X192212482Y-87701928D01*
X192160285Y-87778320D01*
X192144028Y-87858600D01*
X191340691Y-87858600D01*
X191249177Y-87820600D01*
X191021820Y-87820401D01*
X190811694Y-87907224D01*
X190650789Y-88067849D01*
X190563600Y-88277823D01*
X190563401Y-88505180D01*
X189533600Y-88505180D01*
X189533600Y-87630000D01*
X189510490Y-87513817D01*
X189444678Y-87415322D01*
X189346183Y-87349510D01*
X189306200Y-87341557D01*
X189306200Y-86092180D01*
X190563401Y-86092180D01*
X190650224Y-86302306D01*
X190810849Y-86463211D01*
X191020823Y-86550400D01*
X191248180Y-86550599D01*
X191340628Y-86512400D01*
X192141922Y-86512400D01*
X192141922Y-86629000D01*
X192157862Y-86713714D01*
X192207928Y-86791518D01*
X192284320Y-86843715D01*
X192375000Y-86862078D01*
X193075000Y-86862078D01*
X193159714Y-86846138D01*
X193237518Y-86796072D01*
X193289715Y-86719680D01*
X193308078Y-86629000D01*
X193308078Y-86302850D01*
X193690800Y-86302850D01*
X193690800Y-86745204D01*
X193779739Y-86959922D01*
X193944077Y-87124261D01*
X194158795Y-87213200D01*
X194303950Y-87213200D01*
X194450000Y-87067150D01*
X194450000Y-86156800D01*
X194800000Y-86156800D01*
X194800000Y-87067150D01*
X194946050Y-87213200D01*
X195091205Y-87213200D01*
X195305923Y-87124261D01*
X195470261Y-86959922D01*
X195559200Y-86745204D01*
X195559200Y-86302850D01*
X195413150Y-86156800D01*
X194800000Y-86156800D01*
X194450000Y-86156800D01*
X193836850Y-86156800D01*
X193690800Y-86302850D01*
X193308078Y-86302850D01*
X193308078Y-85329000D01*
X193292138Y-85244286D01*
X193271875Y-85212796D01*
X193690800Y-85212796D01*
X193690800Y-85655150D01*
X193836850Y-85801200D01*
X194450000Y-85801200D01*
X194450000Y-84890850D01*
X194800000Y-84890850D01*
X194800000Y-85801200D01*
X195413150Y-85801200D01*
X195559200Y-85655150D01*
X195559200Y-85212796D01*
X195470261Y-84998078D01*
X195305923Y-84833739D01*
X195091205Y-84744800D01*
X194946050Y-84744800D01*
X194800000Y-84890850D01*
X194450000Y-84890850D01*
X194303950Y-84744800D01*
X194158795Y-84744800D01*
X193944077Y-84833739D01*
X193779739Y-84998078D01*
X193690800Y-85212796D01*
X193271875Y-85212796D01*
X193242072Y-85166482D01*
X193165680Y-85114285D01*
X193075000Y-85095922D01*
X192375000Y-85095922D01*
X192290286Y-85111862D01*
X192212482Y-85161928D01*
X192160285Y-85238320D01*
X192141922Y-85329000D01*
X192141922Y-85445600D01*
X191340691Y-85445600D01*
X191249177Y-85407600D01*
X191021820Y-85407401D01*
X190811694Y-85494224D01*
X190650789Y-85654849D01*
X190563600Y-85864823D01*
X190563401Y-86092180D01*
X189306200Y-86092180D01*
X189306200Y-82838443D01*
X189346183Y-82830490D01*
X189444678Y-82764678D01*
X189510490Y-82666183D01*
X189533600Y-82550000D01*
X189533600Y-80391000D01*
X192324322Y-80391000D01*
X192324322Y-82423000D01*
X192340262Y-82507714D01*
X192390328Y-82585518D01*
X192466720Y-82637715D01*
X192557400Y-82656078D01*
X194284600Y-82656078D01*
X194369314Y-82640138D01*
X194447118Y-82590072D01*
X194499315Y-82513680D01*
X194517678Y-82423000D01*
X194517678Y-81230217D01*
X194868800Y-81230217D01*
X194868800Y-81583783D01*
X194951939Y-82001750D01*
X195188698Y-82356085D01*
X195543033Y-82592844D01*
X195961000Y-82675983D01*
X196378967Y-82592844D01*
X196516279Y-82501095D01*
X199644000Y-85628816D01*
X199644000Y-93091000D01*
X199673002Y-93236803D01*
X199755592Y-93360408D01*
X203517529Y-97122345D01*
X203517401Y-97268180D01*
X203604224Y-97478306D01*
X203764849Y-97639211D01*
X203974823Y-97726400D01*
X204202180Y-97726599D01*
X204412306Y-97639776D01*
X204573211Y-97479151D01*
X204660400Y-97269177D01*
X204660599Y-97041820D01*
X204573776Y-96831694D01*
X204413151Y-96670789D01*
X204203177Y-96583600D01*
X204056287Y-96583471D01*
X203896831Y-96424015D01*
X203974823Y-96456400D01*
X204202180Y-96456599D01*
X204412306Y-96369776D01*
X204573211Y-96209151D01*
X204660400Y-95999177D01*
X204660599Y-95771820D01*
X204573776Y-95561694D01*
X204413151Y-95400789D01*
X204203177Y-95313600D01*
X204056287Y-95313471D01*
X203896829Y-95154014D01*
X203974823Y-95186400D01*
X204202180Y-95186599D01*
X204412306Y-95099776D01*
X204573211Y-94939151D01*
X204660400Y-94729177D01*
X204660599Y-94501820D01*
X204573776Y-94291694D01*
X204413151Y-94130789D01*
X204203177Y-94043600D01*
X204056287Y-94043471D01*
X202200996Y-92188180D01*
X206438401Y-92188180D01*
X206525224Y-92398306D01*
X206685849Y-92559211D01*
X206895823Y-92646400D01*
X207123180Y-92646599D01*
X207169480Y-92627468D01*
X207142669Y-92654279D01*
X207124177Y-92646600D01*
X206896820Y-92646401D01*
X206686694Y-92733224D01*
X206525789Y-92893849D01*
X206438600Y-93103823D01*
X206438401Y-93331180D01*
X206525224Y-93541306D01*
X206685849Y-93702211D01*
X206895823Y-93789400D01*
X207123180Y-93789599D01*
X207333306Y-93702776D01*
X207494211Y-93542151D01*
X207581400Y-93332177D01*
X207581599Y-93104820D01*
X207573597Y-93085455D01*
X208470872Y-92188180D01*
X208851401Y-92188180D01*
X208938224Y-92398306D01*
X209098849Y-92559211D01*
X209245200Y-92619981D01*
X209245200Y-102870000D01*
X209268402Y-102986642D01*
X209334474Y-103085526D01*
X214262487Y-108013539D01*
X214052694Y-108100224D01*
X213891789Y-108260849D01*
X213804600Y-108470823D01*
X213804401Y-108698180D01*
X213891224Y-108908306D01*
X214051849Y-109069211D01*
X214261823Y-109156400D01*
X214452200Y-109156567D01*
X214452200Y-117398802D01*
X214475402Y-117515444D01*
X214541474Y-117614328D01*
X216484200Y-119557054D01*
X216484200Y-122809000D01*
X216507402Y-122925642D01*
X216573474Y-123024526D01*
X218752216Y-125203268D01*
X218679542Y-125312033D01*
X218596403Y-125730000D01*
X218679542Y-126147967D01*
X218916301Y-126502302D01*
X219270636Y-126739061D01*
X219688603Y-126822200D01*
X219731397Y-126822200D01*
X220149364Y-126739061D01*
X220503699Y-126502302D01*
X220740458Y-126147967D01*
X220802200Y-125837570D01*
X220802200Y-125907802D01*
X220960449Y-125907802D01*
X220858663Y-126130382D01*
X220983052Y-126430719D01*
X221347646Y-126862220D01*
X221849615Y-127121351D01*
X222072200Y-127020805D01*
X222072200Y-125907800D01*
X222427800Y-125907800D01*
X222427800Y-127020805D01*
X222650385Y-127121351D01*
X223152354Y-126862220D01*
X223516948Y-126430719D01*
X223641337Y-126130382D01*
X223539550Y-125907800D01*
X222427800Y-125907800D01*
X222072200Y-125907800D01*
X222052200Y-125907800D01*
X222052200Y-125552200D01*
X222072200Y-125552200D01*
X222072200Y-124439195D01*
X222427800Y-124439195D01*
X222427800Y-125552200D01*
X223539550Y-125552200D01*
X223641337Y-125329618D01*
X223516948Y-125029281D01*
X223152354Y-124597780D01*
X222650385Y-124338649D01*
X222427800Y-124439195D01*
X222072200Y-124439195D01*
X221849615Y-124338649D01*
X221347646Y-124597780D01*
X220983052Y-125029281D01*
X220858663Y-125329618D01*
X220960449Y-125552198D01*
X220802200Y-125552198D01*
X220802200Y-125622430D01*
X220740458Y-125312033D01*
X220503699Y-124957698D01*
X220149364Y-124720939D01*
X219731397Y-124637800D01*
X219688603Y-124637800D01*
X219270636Y-124720939D01*
X219187524Y-124776472D01*
X217093800Y-122682748D01*
X217093800Y-121385852D01*
X218646433Y-122938485D01*
X218596403Y-123190000D01*
X218679542Y-123607967D01*
X218916301Y-123962302D01*
X219270636Y-124199061D01*
X219688603Y-124282200D01*
X219731397Y-124282200D01*
X220149364Y-124199061D01*
X220503699Y-123962302D01*
X220740458Y-123607967D01*
X220823597Y-123190000D01*
X220740458Y-122772033D01*
X220503699Y-122417698D01*
X220215007Y-122224800D01*
X220345748Y-122224800D01*
X221165362Y-123044414D01*
X221136403Y-123190000D01*
X221219542Y-123607967D01*
X221456301Y-123962302D01*
X221810636Y-124199061D01*
X222228603Y-124282200D01*
X222271397Y-124282200D01*
X222689364Y-124199061D01*
X223043699Y-123962302D01*
X223280458Y-123607967D01*
X223363597Y-123190000D01*
X223280458Y-122772033D01*
X223043699Y-122417698D01*
X222689364Y-122180939D01*
X222271397Y-122097800D01*
X222228603Y-122097800D01*
X221810636Y-122180939D01*
X221456301Y-122417698D01*
X221434050Y-122450998D01*
X220692069Y-121709017D01*
X220736118Y-121680672D01*
X220788315Y-121604280D01*
X220806678Y-121513600D01*
X220806678Y-120650000D01*
X221136403Y-120650000D01*
X221219542Y-121067967D01*
X221456301Y-121422302D01*
X221810636Y-121659061D01*
X222228603Y-121742200D01*
X222271397Y-121742200D01*
X222689364Y-121659061D01*
X223043699Y-121422302D01*
X223280458Y-121067967D01*
X223363597Y-120650000D01*
X223280458Y-120232033D01*
X223043699Y-119877698D01*
X222689364Y-119640939D01*
X222271397Y-119557800D01*
X222228603Y-119557800D01*
X221810636Y-119640939D01*
X221456301Y-119877698D01*
X221219542Y-120232033D01*
X221136403Y-120650000D01*
X220806678Y-120650000D01*
X220806678Y-119786400D01*
X220790738Y-119701686D01*
X220740672Y-119623882D01*
X220664280Y-119571685D01*
X220573600Y-119553322D01*
X219044374Y-119553322D01*
X217206232Y-117715180D01*
X217360401Y-117715180D01*
X217447224Y-117925306D01*
X217607849Y-118086211D01*
X217817823Y-118173400D01*
X218045180Y-118173599D01*
X218255306Y-118086776D01*
X218416211Y-117926151D01*
X218503400Y-117716177D01*
X218503599Y-117488820D01*
X218416776Y-117278694D01*
X218256151Y-117117789D01*
X218046177Y-117030600D01*
X217818820Y-117030401D01*
X217608694Y-117117224D01*
X217447789Y-117277849D01*
X217360600Y-117487823D01*
X217360401Y-117715180D01*
X217206232Y-117715180D01*
X216204800Y-116713748D01*
X216204800Y-115570000D01*
X227331017Y-115570000D01*
X227414156Y-115987967D01*
X227650915Y-116342302D01*
X228005250Y-116579061D01*
X228423217Y-116662200D01*
X228776783Y-116662200D01*
X229194750Y-116579061D01*
X229549085Y-116342302D01*
X229785844Y-115987967D01*
X229868983Y-115570000D01*
X229785844Y-115152033D01*
X229549085Y-114797698D01*
X229194750Y-114560939D01*
X228776783Y-114477800D01*
X228423217Y-114477800D01*
X228005250Y-114560939D01*
X227650915Y-114797698D01*
X227414156Y-115152033D01*
X227331017Y-115570000D01*
X216204800Y-115570000D01*
X216204800Y-110206151D01*
X216210849Y-110212211D01*
X216420823Y-110299400D01*
X216648180Y-110299599D01*
X216858306Y-110212776D01*
X217019211Y-110052151D01*
X217106400Y-109842177D01*
X217106599Y-109614820D01*
X217019776Y-109404694D01*
X216859151Y-109243789D01*
X216649177Y-109156600D01*
X216421820Y-109156401D01*
X216211694Y-109243224D01*
X216204800Y-109250106D01*
X216204800Y-101569930D01*
X216337849Y-101703211D01*
X216547823Y-101790400D01*
X216775180Y-101790599D01*
X216985306Y-101703776D01*
X217146211Y-101543151D01*
X217233400Y-101333177D01*
X217233599Y-101105820D01*
X217146776Y-100895694D01*
X216986151Y-100734789D01*
X216776177Y-100647600D01*
X216548820Y-100647401D01*
X216338694Y-100734224D01*
X216204800Y-100867885D01*
X216204800Y-96393000D01*
X216181598Y-96276358D01*
X216115526Y-96177474D01*
X213415721Y-93477669D01*
X213423400Y-93459177D01*
X213423599Y-93231820D01*
X213336776Y-93021694D01*
X213176151Y-92860789D01*
X212966177Y-92773600D01*
X212738820Y-92773401D01*
X212528694Y-92860224D01*
X212367789Y-93020849D01*
X212280600Y-93230823D01*
X212280401Y-93458180D01*
X212367224Y-93668306D01*
X212527849Y-93829211D01*
X212737823Y-93916400D01*
X212965180Y-93916599D01*
X212984545Y-93908597D01*
X215595200Y-96519252D01*
X215595200Y-98832148D01*
X213288721Y-96525669D01*
X213296400Y-96507177D01*
X213296599Y-96279820D01*
X213209776Y-96069694D01*
X213049151Y-95908789D01*
X212839177Y-95821600D01*
X212611820Y-95821401D01*
X212401694Y-95908224D01*
X212240789Y-96068849D01*
X212153600Y-96278823D01*
X212153401Y-96506180D01*
X212240224Y-96716306D01*
X212400849Y-96877211D01*
X212610823Y-96964400D01*
X212838180Y-96964599D01*
X212857545Y-96956597D01*
X215214200Y-99313252D01*
X215214200Y-108103148D01*
X211491232Y-104380180D01*
X211899401Y-104380180D01*
X211986224Y-104590306D01*
X212146849Y-104751211D01*
X212356823Y-104838400D01*
X212584180Y-104838599D01*
X212794306Y-104751776D01*
X212955211Y-104591151D01*
X213042400Y-104381177D01*
X213042599Y-104153820D01*
X212955776Y-103943694D01*
X212795151Y-103782789D01*
X212585177Y-103695600D01*
X212357820Y-103695401D01*
X212147694Y-103782224D01*
X211986789Y-103942849D01*
X211899600Y-104152823D01*
X211899401Y-104380180D01*
X211491232Y-104380180D01*
X209854800Y-102743748D01*
X209854800Y-99554180D01*
X212026401Y-99554180D01*
X212113224Y-99764306D01*
X212273849Y-99925211D01*
X212483823Y-100012400D01*
X212711180Y-100012599D01*
X212921306Y-99925776D01*
X213082211Y-99765151D01*
X213169400Y-99555177D01*
X213169599Y-99327820D01*
X213082776Y-99117694D01*
X212922151Y-98956789D01*
X212712177Y-98869600D01*
X212484820Y-98869401D01*
X212274694Y-98956224D01*
X212113789Y-99116849D01*
X212026600Y-99326823D01*
X212026401Y-99554180D01*
X209854800Y-99554180D01*
X209854800Y-92451471D01*
X209907211Y-92399151D01*
X209994400Y-92189177D01*
X209994599Y-91961820D01*
X209907776Y-91751694D01*
X209747151Y-91590789D01*
X209537177Y-91503600D01*
X209309820Y-91503401D01*
X209099694Y-91590224D01*
X208938789Y-91750849D01*
X208851600Y-91960823D01*
X208851401Y-92188180D01*
X208470872Y-92188180D01*
X209168252Y-91490800D01*
X213487748Y-91490800D01*
X214579200Y-92582252D01*
X214579200Y-93487577D01*
X214560694Y-93495224D01*
X214399789Y-93655849D01*
X214312600Y-93865823D01*
X214312401Y-94093180D01*
X214399224Y-94303306D01*
X214559849Y-94464211D01*
X214769823Y-94551400D01*
X214997180Y-94551599D01*
X215207306Y-94464776D01*
X215368211Y-94304151D01*
X215455400Y-94094177D01*
X215455599Y-93866820D01*
X215368776Y-93656694D01*
X215208151Y-93495789D01*
X215188800Y-93487754D01*
X215188800Y-92456000D01*
X215165598Y-92339358D01*
X215099526Y-92240474D01*
X213968852Y-91109800D01*
X214630748Y-91109800D01*
X217500200Y-93979252D01*
X217500200Y-105156748D01*
X217302669Y-105354279D01*
X217284177Y-105346600D01*
X217056820Y-105346401D01*
X216846694Y-105433224D01*
X216685789Y-105593849D01*
X216598600Y-105803823D01*
X216598401Y-106031180D01*
X216685224Y-106241306D01*
X216845849Y-106402211D01*
X217055823Y-106489400D01*
X217283180Y-106489599D01*
X217493306Y-106402776D01*
X217654211Y-106242151D01*
X217741400Y-106032177D01*
X217741599Y-105804820D01*
X217733597Y-105785455D01*
X217805009Y-105714043D01*
X217805009Y-112598939D01*
X217302669Y-113101279D01*
X217284177Y-113093600D01*
X217056820Y-113093401D01*
X216846694Y-113180224D01*
X216685789Y-113340849D01*
X216598600Y-113550823D01*
X216598401Y-113778180D01*
X216685224Y-113988306D01*
X216845849Y-114149211D01*
X217055823Y-114236400D01*
X217283180Y-114236599D01*
X217493306Y-114149776D01*
X217654211Y-113989151D01*
X217741400Y-113779177D01*
X217741599Y-113551820D01*
X217733597Y-113532455D01*
X218182202Y-113083850D01*
X219135800Y-113083850D01*
X219135800Y-113376205D01*
X219224739Y-113590923D01*
X219389078Y-113755261D01*
X219603796Y-113844200D01*
X220021150Y-113844200D01*
X220167200Y-113698150D01*
X220167200Y-112937800D01*
X220522800Y-112937800D01*
X220522800Y-113698150D01*
X220668850Y-113844200D01*
X221086204Y-113844200D01*
X221300922Y-113755261D01*
X221465261Y-113590923D01*
X221531759Y-113430382D01*
X227056263Y-113430382D01*
X227262637Y-113859530D01*
X227670284Y-114249852D01*
X228196271Y-114454462D01*
X228422200Y-114330191D01*
X228422200Y-113207800D01*
X228777800Y-113207800D01*
X228777800Y-114330191D01*
X229003729Y-114454462D01*
X229529716Y-114249852D01*
X229937363Y-113859530D01*
X230143737Y-113430382D01*
X230041950Y-113207800D01*
X228777800Y-113207800D01*
X228422200Y-113207800D01*
X227158050Y-113207800D01*
X227056263Y-113430382D01*
X221531759Y-113430382D01*
X221554200Y-113376205D01*
X221554200Y-113083850D01*
X221408150Y-112937800D01*
X220522800Y-112937800D01*
X220167200Y-112937800D01*
X219281850Y-112937800D01*
X219135800Y-113083850D01*
X218182202Y-113083850D01*
X218325335Y-112940717D01*
X218391407Y-112841833D01*
X218414609Y-112725191D01*
X218414609Y-112629618D01*
X227056263Y-112629618D01*
X227158050Y-112852200D01*
X228422200Y-112852200D01*
X228422200Y-111729809D01*
X228777800Y-111729809D01*
X228777800Y-112852200D01*
X230041950Y-112852200D01*
X230143737Y-112629618D01*
X229937363Y-112200470D01*
X229529716Y-111810148D01*
X229003729Y-111605538D01*
X228777800Y-111729809D01*
X228422200Y-111729809D01*
X228196271Y-111605538D01*
X227670284Y-111810148D01*
X227262637Y-112200470D01*
X227056263Y-112629618D01*
X218414609Y-112629618D01*
X218414609Y-112143795D01*
X219135800Y-112143795D01*
X219135800Y-112436150D01*
X219281850Y-112582200D01*
X220167200Y-112582200D01*
X220167200Y-111821850D01*
X220522800Y-111821850D01*
X220522800Y-112582200D01*
X221408150Y-112582200D01*
X221554200Y-112436150D01*
X221554200Y-112143795D01*
X221465261Y-111929077D01*
X221300922Y-111764739D01*
X221086204Y-111675800D01*
X220668850Y-111675800D01*
X220522800Y-111821850D01*
X220167200Y-111821850D01*
X220021150Y-111675800D01*
X219603796Y-111675800D01*
X219389078Y-111764739D01*
X219224739Y-111929077D01*
X219135800Y-112143795D01*
X218414609Y-112143795D01*
X218414609Y-110260000D01*
X219486922Y-110260000D01*
X219486922Y-111260000D01*
X219502862Y-111344714D01*
X219552928Y-111422518D01*
X219629320Y-111474715D01*
X219720000Y-111493078D01*
X220970000Y-111493078D01*
X221054714Y-111477138D01*
X221132518Y-111427072D01*
X221184715Y-111350680D01*
X221196314Y-111293400D01*
X227697456Y-111293400D01*
X228005250Y-111499061D01*
X228423217Y-111582200D01*
X228776783Y-111582200D01*
X229194750Y-111499061D01*
X229549085Y-111262302D01*
X229785844Y-110907967D01*
X229868983Y-110490000D01*
X229785844Y-110072033D01*
X229549085Y-109717698D01*
X229194750Y-109480939D01*
X228776783Y-109397800D01*
X228423217Y-109397800D01*
X228005250Y-109480939D01*
X227650915Y-109717698D01*
X227414156Y-110072033D01*
X227383411Y-110226600D01*
X221196793Y-110226600D01*
X221187138Y-110175286D01*
X221137072Y-110097482D01*
X221060680Y-110045285D01*
X220970000Y-110026922D01*
X219720000Y-110026922D01*
X219635286Y-110042862D01*
X219557482Y-110092928D01*
X219505285Y-110169320D01*
X219486922Y-110260000D01*
X218414609Y-110260000D01*
X218414609Y-107950000D01*
X227331017Y-107950000D01*
X227414156Y-108367967D01*
X227650915Y-108722302D01*
X228005250Y-108959061D01*
X228423217Y-109042200D01*
X228776783Y-109042200D01*
X229194750Y-108959061D01*
X229549085Y-108722302D01*
X229785844Y-108367967D01*
X229868983Y-107950000D01*
X229785844Y-107532033D01*
X229549085Y-107177698D01*
X229194750Y-106940939D01*
X228776783Y-106857800D01*
X228423217Y-106857800D01*
X228005250Y-106940939D01*
X227650915Y-107177698D01*
X227414156Y-107532033D01*
X227331017Y-107950000D01*
X218414609Y-107950000D01*
X218414609Y-105463850D01*
X219135800Y-105463850D01*
X219135800Y-105756205D01*
X219224739Y-105970923D01*
X219389078Y-106135261D01*
X219603796Y-106224200D01*
X220021150Y-106224200D01*
X220167200Y-106078150D01*
X220167200Y-105317800D01*
X220522800Y-105317800D01*
X220522800Y-106078150D01*
X220668850Y-106224200D01*
X221086204Y-106224200D01*
X221300922Y-106135261D01*
X221465261Y-105970923D01*
X221531759Y-105810382D01*
X227056263Y-105810382D01*
X227262637Y-106239530D01*
X227670284Y-106629852D01*
X228196271Y-106834462D01*
X228422200Y-106710191D01*
X228422200Y-105587800D01*
X228777800Y-105587800D01*
X228777800Y-106710191D01*
X229003729Y-106834462D01*
X229529716Y-106629852D01*
X229937363Y-106239530D01*
X230143737Y-105810382D01*
X230041950Y-105587800D01*
X228777800Y-105587800D01*
X228422200Y-105587800D01*
X227158050Y-105587800D01*
X227056263Y-105810382D01*
X221531759Y-105810382D01*
X221554200Y-105756205D01*
X221554200Y-105463850D01*
X221408150Y-105317800D01*
X220522800Y-105317800D01*
X220167200Y-105317800D01*
X219281850Y-105317800D01*
X219135800Y-105463850D01*
X218414609Y-105463850D01*
X218414609Y-105009618D01*
X227056263Y-105009618D01*
X227158050Y-105232200D01*
X228422200Y-105232200D01*
X228422200Y-104109809D01*
X228777800Y-104109809D01*
X228777800Y-105232200D01*
X230041950Y-105232200D01*
X230143737Y-105009618D01*
X229937363Y-104580470D01*
X229529716Y-104190148D01*
X229003729Y-103985538D01*
X228777800Y-104109809D01*
X228422200Y-104109809D01*
X228196271Y-103985538D01*
X227670284Y-104190148D01*
X227262637Y-104580470D01*
X227056263Y-105009618D01*
X218414609Y-105009618D01*
X218414609Y-104523795D01*
X219135800Y-104523795D01*
X219135800Y-104816150D01*
X219281850Y-104962200D01*
X220167200Y-104962200D01*
X220167200Y-104201850D01*
X220522800Y-104201850D01*
X220522800Y-104962200D01*
X221408150Y-104962200D01*
X221554200Y-104816150D01*
X221554200Y-104523795D01*
X221465261Y-104309077D01*
X221300922Y-104144739D01*
X221086204Y-104055800D01*
X220668850Y-104055800D01*
X220522800Y-104201850D01*
X220167200Y-104201850D01*
X220021150Y-104055800D01*
X219603796Y-104055800D01*
X219389078Y-104144739D01*
X219224739Y-104309077D01*
X219135800Y-104523795D01*
X218414609Y-104523795D01*
X218414609Y-102640000D01*
X219486922Y-102640000D01*
X219486922Y-103640000D01*
X219502862Y-103724714D01*
X219552928Y-103802518D01*
X219629320Y-103854715D01*
X219720000Y-103873078D01*
X220970000Y-103873078D01*
X221054714Y-103857138D01*
X221132518Y-103807072D01*
X221184715Y-103730680D01*
X221196314Y-103673400D01*
X227697456Y-103673400D01*
X228005250Y-103879061D01*
X228423217Y-103962200D01*
X228776783Y-103962200D01*
X229194750Y-103879061D01*
X229549085Y-103642302D01*
X229785844Y-103287967D01*
X229868983Y-102870000D01*
X229785844Y-102452033D01*
X229549085Y-102097698D01*
X229194750Y-101860939D01*
X228776783Y-101777800D01*
X228423217Y-101777800D01*
X228005250Y-101860939D01*
X227650915Y-102097698D01*
X227414156Y-102452033D01*
X227383411Y-102606600D01*
X221196793Y-102606600D01*
X221187138Y-102555286D01*
X221137072Y-102477482D01*
X221060680Y-102425285D01*
X220970000Y-102406922D01*
X219720000Y-102406922D01*
X219635286Y-102422862D01*
X219557482Y-102472928D01*
X219505285Y-102549320D01*
X219486922Y-102640000D01*
X218414609Y-102640000D01*
X218414609Y-100330000D01*
X227331017Y-100330000D01*
X227414156Y-100747967D01*
X227650915Y-101102302D01*
X228005250Y-101339061D01*
X228423217Y-101422200D01*
X228776783Y-101422200D01*
X229194750Y-101339061D01*
X229549085Y-101102302D01*
X229785844Y-100747967D01*
X229868983Y-100330000D01*
X229785844Y-99912033D01*
X229549085Y-99557698D01*
X229194750Y-99320939D01*
X228776783Y-99237800D01*
X228423217Y-99237800D01*
X228005250Y-99320939D01*
X227650915Y-99557698D01*
X227414156Y-99912033D01*
X227331017Y-100330000D01*
X218414609Y-100330000D01*
X218414609Y-98190382D01*
X227056263Y-98190382D01*
X227262637Y-98619530D01*
X227670284Y-99009852D01*
X228196271Y-99214462D01*
X228422200Y-99090191D01*
X228422200Y-97967800D01*
X228777800Y-97967800D01*
X228777800Y-99090191D01*
X229003729Y-99214462D01*
X229529716Y-99009852D01*
X229937363Y-98619530D01*
X230143737Y-98190382D01*
X230041950Y-97967800D01*
X228777800Y-97967800D01*
X228422200Y-97967800D01*
X227158050Y-97967800D01*
X227056263Y-98190382D01*
X218414609Y-98190382D01*
X218414609Y-97208850D01*
X219135800Y-97208850D01*
X219135800Y-97501205D01*
X219224739Y-97715923D01*
X219389078Y-97880261D01*
X219603796Y-97969200D01*
X220021150Y-97969200D01*
X220167200Y-97823150D01*
X220167200Y-97062800D01*
X220522800Y-97062800D01*
X220522800Y-97823150D01*
X220668850Y-97969200D01*
X221086204Y-97969200D01*
X221300922Y-97880261D01*
X221465261Y-97715923D01*
X221554200Y-97501205D01*
X221554200Y-97208850D01*
X221408150Y-97062800D01*
X220522800Y-97062800D01*
X220167200Y-97062800D01*
X219281850Y-97062800D01*
X219135800Y-97208850D01*
X218414609Y-97208850D01*
X218414609Y-96268795D01*
X219135800Y-96268795D01*
X219135800Y-96561150D01*
X219281850Y-96707200D01*
X220167200Y-96707200D01*
X220167200Y-95946850D01*
X220522800Y-95946850D01*
X220522800Y-96707200D01*
X221408150Y-96707200D01*
X221554200Y-96561150D01*
X221554200Y-96268795D01*
X221465261Y-96054077D01*
X221300922Y-95889739D01*
X221086204Y-95800800D01*
X220668850Y-95800800D01*
X220522800Y-95946850D01*
X220167200Y-95946850D01*
X220021150Y-95800800D01*
X219603796Y-95800800D01*
X219389078Y-95889739D01*
X219224739Y-96054077D01*
X219135800Y-96268795D01*
X218414609Y-96268795D01*
X218414609Y-94385000D01*
X219486922Y-94385000D01*
X219486922Y-95385000D01*
X219502862Y-95469714D01*
X219552928Y-95547518D01*
X219629320Y-95599715D01*
X219720000Y-95618078D01*
X220970000Y-95618078D01*
X221054714Y-95602138D01*
X221132518Y-95552072D01*
X221184715Y-95475680D01*
X221196314Y-95418400D01*
X227350922Y-95418400D01*
X227350922Y-96113600D01*
X227366862Y-96198314D01*
X227416928Y-96276118D01*
X227493320Y-96328315D01*
X227584000Y-96346678D01*
X228422198Y-96346678D01*
X228422198Y-96489808D01*
X228196271Y-96365538D01*
X227670284Y-96570148D01*
X227262637Y-96960470D01*
X227056263Y-97389618D01*
X227158050Y-97612200D01*
X228422200Y-97612200D01*
X228422200Y-97592200D01*
X228777800Y-97592200D01*
X228777800Y-97612200D01*
X230041950Y-97612200D01*
X230143737Y-97389618D01*
X229937363Y-96960470D01*
X229529716Y-96570148D01*
X229003729Y-96365538D01*
X228777802Y-96489808D01*
X228777802Y-96346678D01*
X229616000Y-96346678D01*
X229700714Y-96330738D01*
X229778518Y-96280672D01*
X229830715Y-96204280D01*
X229849078Y-96113600D01*
X229849078Y-94386400D01*
X229833138Y-94301686D01*
X229783072Y-94223882D01*
X229706680Y-94171685D01*
X229616000Y-94153322D01*
X227584000Y-94153322D01*
X227499286Y-94169262D01*
X227421482Y-94219328D01*
X227369285Y-94295720D01*
X227357969Y-94351600D01*
X221196793Y-94351600D01*
X221187138Y-94300286D01*
X221137072Y-94222482D01*
X221060680Y-94170285D01*
X220970000Y-94151922D01*
X219720000Y-94151922D01*
X219635286Y-94167862D01*
X219557482Y-94217928D01*
X219505285Y-94294320D01*
X219486922Y-94385000D01*
X218414609Y-94385000D01*
X218414609Y-93726743D01*
X218391407Y-93610101D01*
X218325335Y-93511217D01*
X215060693Y-90246575D01*
X214961809Y-90180503D01*
X214845167Y-90157301D01*
X207479899Y-90157301D01*
X207363257Y-90180503D01*
X207271291Y-90241952D01*
X207251177Y-90233600D01*
X207023820Y-90233401D01*
X206813694Y-90320224D01*
X206652789Y-90480849D01*
X206565600Y-90690823D01*
X206565401Y-90918180D01*
X206652224Y-91128306D01*
X206812849Y-91289211D01*
X207022823Y-91376400D01*
X207250180Y-91376599D01*
X207296480Y-91357468D01*
X207142669Y-91511279D01*
X207124177Y-91503600D01*
X206896820Y-91503401D01*
X206686694Y-91590224D01*
X206525789Y-91750849D01*
X206438600Y-91960823D01*
X206438401Y-92188180D01*
X202200996Y-92188180D01*
X201422000Y-91409184D01*
X201422000Y-88900000D01*
X227072041Y-88900000D01*
X227166781Y-89376288D01*
X227436576Y-89780065D01*
X227840353Y-90049860D01*
X228316641Y-90144600D01*
X228883359Y-90144600D01*
X229359647Y-90049860D01*
X229763424Y-89780065D01*
X230033219Y-89376288D01*
X230127959Y-88900000D01*
X230033219Y-88423712D01*
X229763424Y-88019935D01*
X229359647Y-87750140D01*
X228883359Y-87655400D01*
X228316641Y-87655400D01*
X227840353Y-87750140D01*
X227436576Y-88019935D01*
X227166781Y-88423712D01*
X227072041Y-88900000D01*
X201422000Y-88900000D01*
X201422000Y-84244387D01*
X226803101Y-84244387D01*
X226803697Y-84268640D01*
X227092785Y-84824703D01*
X227572663Y-85227809D01*
X227736468Y-85279554D01*
X227436576Y-85479935D01*
X227166781Y-85883712D01*
X227072041Y-86360000D01*
X227166781Y-86836288D01*
X227436576Y-87240065D01*
X227840353Y-87509860D01*
X228316641Y-87604600D01*
X228883359Y-87604600D01*
X229359647Y-87509860D01*
X229763424Y-87240065D01*
X230033219Y-86836288D01*
X230127959Y-86360000D01*
X230033219Y-85883712D01*
X229763424Y-85479935D01*
X229463532Y-85279554D01*
X229627337Y-85227809D01*
X230107215Y-84824703D01*
X230396303Y-84268640D01*
X230396899Y-84244387D01*
X230297239Y-83997800D01*
X228777800Y-83997800D01*
X228777800Y-84017800D01*
X228422200Y-84017800D01*
X228422200Y-83997800D01*
X226902761Y-83997800D01*
X226803101Y-84244387D01*
X201422000Y-84244387D01*
X201422000Y-83395613D01*
X226803101Y-83395613D01*
X226902761Y-83642200D01*
X228422200Y-83642200D01*
X228422200Y-82361628D01*
X228777800Y-82361628D01*
X228777800Y-83642200D01*
X230297239Y-83642200D01*
X230396899Y-83395613D01*
X230396303Y-83371360D01*
X230107215Y-82815297D01*
X229627337Y-82412191D01*
X229029725Y-82223411D01*
X228777800Y-82361628D01*
X228422200Y-82361628D01*
X228170275Y-82223411D01*
X227572663Y-82412191D01*
X227092785Y-82815297D01*
X226803697Y-83371360D01*
X226803101Y-83395613D01*
X201422000Y-83395613D01*
X201422000Y-82600197D01*
X201458967Y-82592844D01*
X201813302Y-82356085D01*
X202050061Y-82001750D01*
X202088057Y-81810729D01*
X202156538Y-81810729D01*
X202361148Y-82336716D01*
X202751470Y-82744363D01*
X203180618Y-82950737D01*
X203403200Y-82848950D01*
X203403200Y-81584800D01*
X203758800Y-81584800D01*
X203758800Y-82848950D01*
X203981382Y-82950737D01*
X204410530Y-82744363D01*
X204800852Y-82336716D01*
X205005462Y-81810729D01*
X204881191Y-81584800D01*
X203758800Y-81584800D01*
X203403200Y-81584800D01*
X202280809Y-81584800D01*
X202156538Y-81810729D01*
X202088057Y-81810729D01*
X202133200Y-81583783D01*
X202133200Y-81230217D01*
X202088058Y-81003271D01*
X202156538Y-81003271D01*
X202280809Y-81229200D01*
X203403200Y-81229200D01*
X203403200Y-79965050D01*
X203758800Y-79965050D01*
X203758800Y-81229200D01*
X204881191Y-81229200D01*
X205005462Y-81003271D01*
X204800852Y-80477284D01*
X204410530Y-80069637D01*
X203981382Y-79863263D01*
X203758800Y-79965050D01*
X203403200Y-79965050D01*
X203180618Y-79863263D01*
X202751470Y-80069637D01*
X202361148Y-80477284D01*
X202156538Y-81003271D01*
X202088058Y-81003271D01*
X202050061Y-80812250D01*
X201813302Y-80457915D01*
X201458967Y-80221156D01*
X201041000Y-80138017D01*
X200623033Y-80221156D01*
X200268698Y-80457915D01*
X200031939Y-80812250D01*
X199948800Y-81230217D01*
X199948800Y-81583783D01*
X200031939Y-82001750D01*
X200268698Y-82356085D01*
X200623033Y-82592844D01*
X200660000Y-82600197D01*
X200660000Y-83027184D01*
X199530718Y-81897902D01*
X199593200Y-81583783D01*
X199593200Y-81230217D01*
X199510061Y-80812250D01*
X199273302Y-80457915D01*
X198918967Y-80221156D01*
X198501000Y-80138017D01*
X198083033Y-80221156D01*
X197728698Y-80457915D01*
X197491939Y-80812250D01*
X197408800Y-81230217D01*
X197408800Y-81583783D01*
X197491939Y-82001750D01*
X197728698Y-82356085D01*
X198083033Y-82592844D01*
X198501000Y-82675983D01*
X198918967Y-82592844D01*
X199056279Y-82501095D01*
X200152000Y-83596816D01*
X200152000Y-85059184D01*
X196990718Y-81897902D01*
X197053200Y-81583783D01*
X197053200Y-81230217D01*
X196970061Y-80812250D01*
X196733302Y-80457915D01*
X196378967Y-80221156D01*
X195961000Y-80138017D01*
X195543033Y-80221156D01*
X195188698Y-80457915D01*
X194951939Y-80812250D01*
X194868800Y-81230217D01*
X194517678Y-81230217D01*
X194517678Y-80391000D01*
X194501738Y-80306286D01*
X194451672Y-80228482D01*
X194375280Y-80176285D01*
X194284600Y-80157922D01*
X192557400Y-80157922D01*
X192472686Y-80173862D01*
X192394882Y-80223928D01*
X192342685Y-80300320D01*
X192324322Y-80391000D01*
X189533600Y-80391000D01*
X189533600Y-74149135D01*
X206197084Y-74149135D01*
X206474885Y-74821465D01*
X206988829Y-75336307D01*
X207660673Y-75615282D01*
X208388135Y-75615916D01*
X209060465Y-75338115D01*
X209575307Y-74824171D01*
X209854282Y-74152327D01*
X209854916Y-73424865D01*
X209577115Y-72752535D01*
X209063171Y-72237693D01*
X208391327Y-71958718D01*
X207663865Y-71958084D01*
X206991535Y-72235885D01*
X206476693Y-72749829D01*
X206197718Y-73421673D01*
X206197084Y-74149135D01*
X189533600Y-74149135D01*
X189533600Y-70153600D01*
X236551400Y-70153600D01*
X236551400Y-135586400D01*
M02*
