G04 #@! TF.FileFunction,Soldermask,Top*
%FSLAX46Y46*%
G04 Gerber Fmt 4.6, Leading zero omitted, Abs format (unit mm)*
G04 Created by KiCad (PCBNEW 4.0.2-4+6225~38~ubuntu14.04.1-stable) date Mon 26 Dec 2016 11:00:54 AM CET*
%MOMM*%
G01*
G04 APERTURE LIST*
%ADD10C,0.100000*%
%ADD11C,1.900000*%
%ADD12R,1.900000X1.000000*%
%ADD13C,1.924000*%
%ADD14R,1.598880X1.598880*%
%ADD15R,1.650000X1.400000*%
%ADD16R,1.400000X1.650000*%
%ADD17R,1.400000X2.900000*%
%ADD18R,1.620000X1.310000*%
%ADD19R,2.432000X2.432000*%
%ADD20O,2.432000X2.432000*%
%ADD21R,2.127200X2.127200*%
%ADD22O,2.127200X2.127200*%
%ADD23R,2.127200X2.432000*%
%ADD24O,2.127200X2.432000*%
%ADD25R,1.200000X1.300000*%
%ADD26R,1.300000X1.200000*%
%ADD27R,1.700000X1.100000*%
%ADD28R,1.100000X1.700000*%
%ADD29R,1.400000X2.000000*%
%ADD30R,7.100000X7.100000*%
%ADD31R,2.000000X3.400000*%
%ADD32R,1.140000X1.590000*%
%ADD33R,2.635200X2.635200*%
%ADD34C,3.600000*%
%ADD35R,2.432000X2.127200*%
%ADD36O,2.432000X2.127200*%
%ADD37O,2.940000X2.432000*%
G04 APERTURE END LIST*
D10*
D11*
X203835000Y-84709000D03*
D12*
X210980000Y-98425000D03*
X210980000Y-97155000D03*
X210980000Y-95885000D03*
X210980000Y-94615000D03*
X210980000Y-93345000D03*
X210980000Y-92075000D03*
X210980000Y-90805000D03*
X205580000Y-90805000D03*
X205580000Y-92075000D03*
X205580000Y-93345000D03*
X205580000Y-94615000D03*
X205580000Y-95885000D03*
X205580000Y-97155000D03*
X205580000Y-98425000D03*
D13*
X160263000Y-80274000D03*
X160263000Y-87874000D03*
X140263000Y-87874000D03*
X136763000Y-80274000D03*
X158866000Y-116342000D03*
X158866000Y-123942000D03*
X138866000Y-123942000D03*
X135366000Y-116342000D03*
D14*
X194724020Y-85979000D03*
X192625980Y-85979000D03*
D15*
X210820000Y-100092000D03*
X210820000Y-102092000D03*
D16*
X200168000Y-121031000D03*
X202168000Y-121031000D03*
D17*
X191857500Y-116522500D03*
X194857500Y-116522500D03*
X192492500Y-107632500D03*
X195492500Y-107632500D03*
D14*
X195580000Y-126144020D03*
X195580000Y-124045980D03*
X193040000Y-126144020D03*
X193040000Y-124045980D03*
X206502000Y-124172980D03*
X206502000Y-126271020D03*
X209550000Y-124172980D03*
X209550000Y-126271020D03*
X212725000Y-124172980D03*
X212725000Y-126271020D03*
D18*
X164084000Y-87868000D03*
X164084000Y-84598000D03*
X162941000Y-105521000D03*
X162941000Y-102251000D03*
X162941000Y-122031000D03*
X162941000Y-118761000D03*
D19*
X200025000Y-124206000D03*
D20*
X202565000Y-124206000D03*
D19*
X194310000Y-94615000D03*
D20*
X194310000Y-97155000D03*
D21*
X219710000Y-120650000D03*
D22*
X222250000Y-120650000D03*
X219710000Y-123190000D03*
X222250000Y-123190000D03*
X219710000Y-125730000D03*
X222250000Y-125730000D03*
D23*
X193421000Y-81407000D03*
D24*
X195961000Y-81407000D03*
X198501000Y-81407000D03*
X201041000Y-81407000D03*
X203581000Y-81407000D03*
D23*
X167640000Y-81280000D03*
D24*
X170180000Y-81280000D03*
X172720000Y-81280000D03*
X175260000Y-81280000D03*
X177800000Y-81280000D03*
D25*
X218120000Y-98060000D03*
X216220000Y-98060000D03*
X217170000Y-100060000D03*
X218120000Y-106950000D03*
X216220000Y-106950000D03*
X217170000Y-108950000D03*
X218120000Y-114570000D03*
X216220000Y-114570000D03*
X217170000Y-116570000D03*
D26*
X170164000Y-92644000D03*
X170164000Y-90744000D03*
X168164000Y-91694000D03*
X170037000Y-105090000D03*
X170037000Y-103190000D03*
X168037000Y-104140000D03*
X169910000Y-121854000D03*
X169910000Y-119954000D03*
X167910000Y-120904000D03*
D27*
X213106000Y-101031000D03*
X213106000Y-102931000D03*
D28*
X215204000Y-123317000D03*
X217104000Y-123317000D03*
D27*
X225044000Y-119446000D03*
X225044000Y-121346000D03*
X197231000Y-92776000D03*
X197231000Y-94676000D03*
X197231000Y-99121000D03*
X197231000Y-97221000D03*
X196532500Y-113662500D03*
X196532500Y-111762500D03*
X216535000Y-94300000D03*
X216535000Y-96200000D03*
X216535000Y-102555000D03*
X216535000Y-104455000D03*
X216535000Y-110810000D03*
X216535000Y-112710000D03*
X206502000Y-122489000D03*
X206502000Y-120589000D03*
X209550000Y-122489000D03*
X209550000Y-120589000D03*
X212725000Y-122362000D03*
X212725000Y-120462000D03*
D28*
X218760000Y-95250000D03*
X220660000Y-95250000D03*
X218760000Y-103505000D03*
X220660000Y-103505000D03*
X218760000Y-111125000D03*
X220660000Y-111125000D03*
D27*
X172720000Y-88580000D03*
X172720000Y-86680000D03*
X175260000Y-88580000D03*
X175260000Y-86680000D03*
X177800000Y-88580000D03*
X177800000Y-86680000D03*
X168402000Y-86680000D03*
X168402000Y-88580000D03*
X165862000Y-102174000D03*
X165862000Y-104074000D03*
X165862000Y-118938000D03*
X165862000Y-120838000D03*
D13*
X158866000Y-99324000D03*
X158866000Y-106924000D03*
X138866000Y-106924000D03*
X135366000Y-99324000D03*
D29*
X211958000Y-108306000D03*
X211958000Y-114706000D03*
X208158000Y-108306000D03*
X208158000Y-114706000D03*
D11*
X220345000Y-84455000D03*
X220345000Y-86995000D03*
X220345000Y-89535000D03*
X190754000Y-103886000D03*
X220345000Y-100330000D03*
X220345000Y-107950000D03*
X220345000Y-115570000D03*
D30*
X202438000Y-113792000D03*
D31*
X200138000Y-107142000D03*
X204738000Y-107142000D03*
D32*
X192407500Y-110727500D03*
X194307500Y-110727500D03*
X193357500Y-113427500D03*
X192407500Y-113427500D03*
X194307500Y-113427500D03*
D14*
X194724020Y-88519000D03*
X192625980Y-88519000D03*
X194724020Y-91059000D03*
X192625980Y-91059000D03*
D33*
X192786000Y-121031000D03*
D11*
X198755000Y-84709000D03*
X201295000Y-84709000D03*
D34*
X182245000Y-132080000D03*
X182245000Y-73660000D03*
X151765000Y-73660000D03*
D29*
X201065000Y-103505000D03*
X204065000Y-103505000D03*
D35*
X228600000Y-95250000D03*
D36*
X228600000Y-97790000D03*
X228600000Y-100330000D03*
X228600000Y-102870000D03*
X228600000Y-105410000D03*
X228600000Y-107950000D03*
X228600000Y-110490000D03*
X228600000Y-113030000D03*
X228600000Y-115570000D03*
D37*
X228600000Y-88900000D03*
X228600000Y-86360000D03*
X228600000Y-83820000D03*
D34*
X151765000Y-132080000D03*
X208026000Y-73787000D03*
X208026000Y-132080000D03*
D37*
X125095000Y-84455000D03*
X125095000Y-89455000D03*
X125095000Y-95250000D03*
X125095000Y-100250000D03*
X125095000Y-105250000D03*
X125095000Y-110250000D03*
X125095000Y-115250000D03*
X125095000Y-120250000D03*
M02*
