G04 #@! TF.FileFunction,Soldermask,Bot*
%FSLAX46Y46*%
G04 Gerber Fmt 4.6, Leading zero omitted, Abs format (unit mm)*
G04 Created by KiCad (PCBNEW 4.0.2-4+6225~38~ubuntu14.04.1-stable) date Mon 26 Dec 2016 11:00:54 AM CET*
%MOMM*%
G01*
G04 APERTURE LIST*
%ADD10C,0.100000*%
%ADD11C,1.924000*%
%ADD12R,1.100000X1.700000*%
%ADD13R,1.650000X1.400000*%
%ADD14R,2.432000X2.432000*%
%ADD15O,2.432000X2.432000*%
%ADD16R,2.127200X2.127200*%
%ADD17O,2.127200X2.127200*%
%ADD18R,2.127200X2.432000*%
%ADD19O,2.127200X2.432000*%
%ADD20R,1.700000X1.100000*%
%ADD21R,2.635200X2.635200*%
%ADD22C,3.600000*%
%ADD23R,2.432000X2.127200*%
%ADD24O,2.432000X2.127200*%
%ADD25O,2.940000X2.432000*%
G04 APERTURE END LIST*
D10*
D11*
X160263000Y-80274000D03*
X160263000Y-87874000D03*
X140263000Y-87874000D03*
X136763000Y-80274000D03*
X158866000Y-116342000D03*
X158866000Y-123942000D03*
X138866000Y-123942000D03*
X135366000Y-116342000D03*
D12*
X192725000Y-85979000D03*
X194625000Y-85979000D03*
D13*
X220345000Y-96885000D03*
X220345000Y-94885000D03*
X220345000Y-105140000D03*
X220345000Y-103140000D03*
X220345000Y-112760000D03*
X220345000Y-110760000D03*
D14*
X200025000Y-124206000D03*
D15*
X202565000Y-124206000D03*
D14*
X194310000Y-94615000D03*
D15*
X194310000Y-97155000D03*
D16*
X219710000Y-120650000D03*
D17*
X222250000Y-120650000D03*
X219710000Y-123190000D03*
X222250000Y-123190000D03*
X219710000Y-125730000D03*
X222250000Y-125730000D03*
D18*
X193421000Y-81407000D03*
D19*
X195961000Y-81407000D03*
X198501000Y-81407000D03*
X201041000Y-81407000D03*
X203581000Y-81407000D03*
D18*
X167640000Y-81280000D03*
D19*
X170180000Y-81280000D03*
X172720000Y-81280000D03*
X175260000Y-81280000D03*
X177800000Y-81280000D03*
D20*
X195580000Y-124145000D03*
X195580000Y-126045000D03*
X193040000Y-124145000D03*
X193040000Y-126045000D03*
D11*
X158866000Y-99324000D03*
X158866000Y-106924000D03*
X138866000Y-106924000D03*
X135366000Y-99324000D03*
D12*
X192725000Y-88519000D03*
X194625000Y-88519000D03*
X192725000Y-91059000D03*
X194625000Y-91059000D03*
D21*
X192786000Y-121031000D03*
D22*
X182245000Y-132080000D03*
X182245000Y-73660000D03*
X151765000Y-73660000D03*
D23*
X228600000Y-95250000D03*
D24*
X228600000Y-97790000D03*
X228600000Y-100330000D03*
X228600000Y-102870000D03*
X228600000Y-105410000D03*
X228600000Y-107950000D03*
X228600000Y-110490000D03*
X228600000Y-113030000D03*
X228600000Y-115570000D03*
D25*
X228600000Y-88900000D03*
X228600000Y-86360000D03*
X228600000Y-83820000D03*
D22*
X151765000Y-132080000D03*
X208026000Y-73787000D03*
X208026000Y-132080000D03*
D25*
X125095000Y-84455000D03*
X125095000Y-89455000D03*
X125095000Y-95250000D03*
X125095000Y-100250000D03*
X125095000Y-105250000D03*
X125095000Y-110250000D03*
X125095000Y-115250000D03*
X125095000Y-120250000D03*
M02*
