M48
;DRILL file {KiCad 4.0.2-4+6225~38~ubuntu14.04.1-stable} date Thu 05 Jan 2017 08:44:08 PM CET
;FORMAT={-:-/ absolute / inch / decimal}
FMAT,2
INCH,TZ
T1C0.013
T2C0.039
T3C0.040
T4C0.051
T5C0.126
%
G90
G05
M72
T1
X3.715Y-6.505
X3.72Y-6.325
X3.79Y-6.105
X3.93Y-6.35
X3.975Y-6.225
X4.235Y-5.725
X4.235Y-5.775
X4.235Y-5.825
X4.355Y-6.645
X4.445Y-5.575
X4.475Y-6.645
X4.56Y-5.94
X4.57Y-5.858
X4.586Y-5.774
X4.61Y-5.69
X4.78Y-5.81
X4.916Y-5.476
X5.03Y-5.98
X5.03Y-6.3
X5.075Y-6.645
X5.145Y-5.985
X5.145Y-6.3
X5.145Y-6.615
X5.205Y-6.64
X5.32Y-5.745
X5.32Y-6.065
X5.32Y-6.37
T2
X3.8Y-5.205
X3.9Y-5.205
X4.Y-5.205
X4.1Y-5.205
X4.2Y-5.205
X4.3Y-5.205
X4.4Y-5.205
X4.5Y-5.205
T3
X3.785Y-6.92
X3.79Y-6.765
X3.885Y-6.92
X4.935Y-4.91
X4.935Y-5.01
X5.035Y-4.91
X5.035Y-5.01
X5.135Y-4.91
X5.135Y-5.01
X5.828Y-5.188
X5.928Y-5.188
T4
X5.78Y-5.3631
X5.78Y-5.4616
X5.78Y-5.56
X5.78Y-5.6781
X5.78Y-5.7765
X5.78Y-5.875
X5.78Y-5.9931
X5.78Y-6.0915
X5.78Y-6.1899
X5.78Y-6.308
X5.78Y-6.4065
X5.78Y-6.5049
T5
X5.4758Y-4.9551
X5.4758Y-6.8449
T0
M30
