G04 #@! TF.FileFunction,Copper,L2,Inr,Plane*
%FSLAX46Y46*%
G04 Gerber Fmt 4.6, Leading zero omitted, Abs format (unit mm)*
G04 Created by KiCad (PCBNEW 4.0.2-4+6225~38~ubuntu14.04.1-stable) date Thu 05 Jan 2017 08:44:10 PM CET*
%MOMM*%
G01*
G04 APERTURE LIST*
%ADD10C,0.100000*%
%ADD11R,2.032000X2.032000*%
%ADD12O,2.032000X2.032000*%
%ADD13R,1.727200X1.727200*%
%ADD14O,1.727200X1.727200*%
%ADD15R,2.235200X2.235200*%
%ADD16R,2.000000X1.700000*%
%ADD17R,1.700000X1.700000*%
%ADD18O,1.700000X1.700000*%
%ADD19C,0.685800*%
%ADD20C,0.254000*%
G04 APERTURE END LIST*
D10*
D11*
X98679000Y-175768000D03*
D12*
X96139000Y-175768000D03*
D11*
X148031200Y-131775200D03*
D12*
X150571200Y-131775200D03*
D13*
X130429000Y-124714000D03*
D14*
X130429000Y-127254000D03*
X127889000Y-124714000D03*
X127889000Y-127254000D03*
X125349000Y-124714000D03*
X125349000Y-127254000D03*
D15*
X96266000Y-171831000D03*
D16*
X146812000Y-141224000D03*
X146812000Y-138724000D03*
X146812000Y-136224000D03*
X146812000Y-144224000D03*
X146812000Y-146724000D03*
X146812000Y-149224000D03*
X146812000Y-152224000D03*
X146812000Y-154724000D03*
X146812000Y-157224000D03*
X146812000Y-160224000D03*
X146812000Y-162724000D03*
X146812000Y-165224000D03*
D17*
X96520000Y-132207000D03*
D18*
X99060000Y-132207000D03*
X101600000Y-132207000D03*
X104140000Y-132207000D03*
X106680000Y-132207000D03*
X109220000Y-132207000D03*
X111760000Y-132207000D03*
X114300000Y-132207000D03*
D19*
X128905000Y-168783000D03*
X127762000Y-160020000D03*
X132207000Y-168656000D03*
X127762000Y-151892000D03*
X116484400Y-146659600D03*
X107569000Y-145415000D03*
X107569000Y-146685000D03*
X107569000Y-147955000D03*
X135128000Y-154051000D03*
X135128000Y-145923000D03*
X110617000Y-168783000D03*
X135128000Y-161798000D03*
X100965000Y-158115000D03*
X94361000Y-165227000D03*
X99822000Y-161290000D03*
X130683000Y-160020000D03*
X130683000Y-152019000D03*
X113665000Y-168783000D03*
X130683000Y-168021000D03*
X115824000Y-150876000D03*
X96266000Y-155067000D03*
X94488000Y-160655000D03*
X121412000Y-147574000D03*
X117094000Y-144526000D03*
X116078000Y-148793200D03*
X112903000Y-141605000D03*
X124866400Y-139090400D03*
D20*
G36*
X143202000Y-129540000D02*
X143256046Y-129811705D01*
X143409954Y-130042046D01*
X143640295Y-130195954D01*
X143912000Y-130250000D01*
X146633862Y-130250000D01*
X146563759Y-130295110D01*
X146418769Y-130507310D01*
X146367760Y-130759200D01*
X146367760Y-132791200D01*
X146412038Y-133026517D01*
X146551110Y-133242641D01*
X146763310Y-133387631D01*
X147015200Y-133438640D01*
X149047200Y-133438640D01*
X149282517Y-133394362D01*
X149498641Y-133255290D01*
X149600398Y-133106363D01*
X149939390Y-133332870D01*
X150571200Y-133458545D01*
X151203010Y-133332870D01*
X151738633Y-132974978D01*
X152096525Y-132439355D01*
X152222200Y-131807545D01*
X152222200Y-131742855D01*
X152096525Y-131111045D01*
X151738633Y-130575422D01*
X151251605Y-130250000D01*
X154230000Y-130250000D01*
X154230000Y-169470000D01*
X143912000Y-169470000D01*
X143640295Y-169524046D01*
X143409954Y-169677954D01*
X143256046Y-169908295D01*
X143202000Y-170180000D01*
X143202000Y-178360000D01*
X93420000Y-178360000D01*
X93420000Y-175735655D01*
X94488000Y-175735655D01*
X94488000Y-175800345D01*
X94613675Y-176432155D01*
X94971567Y-176967778D01*
X95507190Y-177325670D01*
X96139000Y-177451345D01*
X96770810Y-177325670D01*
X97110792Y-177098501D01*
X97198910Y-177235441D01*
X97411110Y-177380431D01*
X97663000Y-177431440D01*
X99695000Y-177431440D01*
X99930317Y-177387162D01*
X100146441Y-177248090D01*
X100291431Y-177035890D01*
X100342440Y-176784000D01*
X100342440Y-174752000D01*
X100298162Y-174516683D01*
X100160416Y-174302619D01*
X136850613Y-174302619D01*
X137190155Y-175124372D01*
X137818321Y-175753636D01*
X138639481Y-176094611D01*
X139528619Y-176095387D01*
X140350372Y-175755845D01*
X140979636Y-175127679D01*
X141320611Y-174306519D01*
X141321387Y-173417381D01*
X140981845Y-172595628D01*
X140353679Y-171966364D01*
X139532519Y-171625389D01*
X138643381Y-171624613D01*
X137821628Y-171964155D01*
X137192364Y-172592321D01*
X136851389Y-173413481D01*
X136850613Y-174302619D01*
X100160416Y-174302619D01*
X100159090Y-174300559D01*
X99946890Y-174155569D01*
X99695000Y-174104560D01*
X97663000Y-174104560D01*
X97427683Y-174148838D01*
X97211559Y-174287910D01*
X97109802Y-174436837D01*
X96770810Y-174210330D01*
X96139000Y-174084655D01*
X95507190Y-174210330D01*
X94971567Y-174568222D01*
X94613675Y-175103845D01*
X94488000Y-175735655D01*
X93420000Y-175735655D01*
X93420000Y-170713400D01*
X94500960Y-170713400D01*
X94500960Y-172948600D01*
X94545238Y-173183917D01*
X94684310Y-173400041D01*
X94896510Y-173545031D01*
X95148400Y-173596040D01*
X97383600Y-173596040D01*
X97618917Y-173551762D01*
X97835041Y-173412690D01*
X97980031Y-173200490D01*
X98031040Y-172948600D01*
X98031040Y-170713400D01*
X97986762Y-170478083D01*
X97847690Y-170261959D01*
X97635490Y-170116969D01*
X97383600Y-170065960D01*
X95148400Y-170065960D01*
X94913083Y-170110238D01*
X94696959Y-170249310D01*
X94551969Y-170461510D01*
X94500960Y-170713400D01*
X93420000Y-170713400D01*
X93420000Y-168976663D01*
X109638931Y-168976663D01*
X109787493Y-169336212D01*
X110062341Y-169611540D01*
X110421630Y-169760730D01*
X110810663Y-169761069D01*
X111170212Y-169612507D01*
X111445540Y-169337659D01*
X111594730Y-168978370D01*
X111594731Y-168976663D01*
X127926931Y-168976663D01*
X128075493Y-169336212D01*
X128350341Y-169611540D01*
X128709630Y-169760730D01*
X129098663Y-169761069D01*
X129458212Y-169612507D01*
X129733540Y-169337659D01*
X129882730Y-168978370D01*
X129882842Y-168849663D01*
X131228931Y-168849663D01*
X131377493Y-169209212D01*
X131652341Y-169484540D01*
X132011630Y-169633730D01*
X132400663Y-169634069D01*
X132760212Y-169485507D01*
X133035540Y-169210659D01*
X133184730Y-168851370D01*
X133185069Y-168462337D01*
X133036507Y-168102788D01*
X132761659Y-167827460D01*
X132402370Y-167678270D01*
X132013337Y-167677931D01*
X131653788Y-167826493D01*
X131378460Y-168101341D01*
X131229270Y-168460630D01*
X131228931Y-168849663D01*
X129882842Y-168849663D01*
X129883069Y-168589337D01*
X129734507Y-168229788D01*
X129459659Y-167954460D01*
X129100370Y-167805270D01*
X128711337Y-167804931D01*
X128351788Y-167953493D01*
X128076460Y-168228341D01*
X127927270Y-168587630D01*
X127926931Y-168976663D01*
X111594731Y-168976663D01*
X111595069Y-168589337D01*
X111446507Y-168229788D01*
X111171659Y-167954460D01*
X110812370Y-167805270D01*
X110423337Y-167804931D01*
X110063788Y-167953493D01*
X109788460Y-168228341D01*
X109639270Y-168587630D01*
X109638931Y-168976663D01*
X93420000Y-168976663D01*
X93420000Y-165510377D01*
X93531493Y-165780212D01*
X93806341Y-166055540D01*
X94165630Y-166204730D01*
X94554663Y-166205069D01*
X94914212Y-166056507D01*
X95189540Y-165781659D01*
X95338730Y-165422370D01*
X95339069Y-165033337D01*
X95190507Y-164673788D01*
X94915659Y-164398460D01*
X94556370Y-164249270D01*
X94167337Y-164248931D01*
X93807788Y-164397493D01*
X93532460Y-164672341D01*
X93420000Y-164943174D01*
X93420000Y-161483663D01*
X98843931Y-161483663D01*
X98992493Y-161843212D01*
X99267341Y-162118540D01*
X99626630Y-162267730D01*
X100015663Y-162268069D01*
X100375212Y-162119507D01*
X100503279Y-161991663D01*
X134149931Y-161991663D01*
X134298493Y-162351212D01*
X134573341Y-162626540D01*
X134932630Y-162775730D01*
X135321663Y-162776069D01*
X135681212Y-162627507D01*
X135956540Y-162352659D01*
X136105730Y-161993370D01*
X136106069Y-161604337D01*
X135957507Y-161244788D01*
X135682659Y-160969460D01*
X135323370Y-160820270D01*
X134934337Y-160819931D01*
X134574788Y-160968493D01*
X134299460Y-161243341D01*
X134150270Y-161602630D01*
X134149931Y-161991663D01*
X100503279Y-161991663D01*
X100650540Y-161844659D01*
X100799730Y-161485370D01*
X100800069Y-161096337D01*
X100651507Y-160736788D01*
X100376659Y-160461460D01*
X100017370Y-160312270D01*
X99628337Y-160311931D01*
X99268788Y-160460493D01*
X98993460Y-160735341D01*
X98844270Y-161094630D01*
X98843931Y-161483663D01*
X93420000Y-161483663D01*
X93420000Y-160213663D01*
X126783931Y-160213663D01*
X126932493Y-160573212D01*
X127207341Y-160848540D01*
X127566630Y-160997730D01*
X127955663Y-160998069D01*
X128315212Y-160849507D01*
X128590540Y-160574659D01*
X128739730Y-160215370D01*
X128740069Y-159826337D01*
X128591507Y-159466788D01*
X128498881Y-159374000D01*
X145164560Y-159374000D01*
X145164560Y-161074000D01*
X145208838Y-161309317D01*
X145315759Y-161475477D01*
X145215569Y-161622110D01*
X145164560Y-161874000D01*
X145164560Y-163574000D01*
X145208838Y-163809317D01*
X145315759Y-163975477D01*
X145215569Y-164122110D01*
X145164560Y-164374000D01*
X145164560Y-166074000D01*
X145208838Y-166309317D01*
X145347910Y-166525441D01*
X145560110Y-166670431D01*
X145812000Y-166721440D01*
X147812000Y-166721440D01*
X148047317Y-166677162D01*
X148263441Y-166538090D01*
X148408431Y-166325890D01*
X148459440Y-166074000D01*
X148459440Y-164374000D01*
X148415162Y-164138683D01*
X148308241Y-163972523D01*
X148408431Y-163825890D01*
X148459440Y-163574000D01*
X148459440Y-161874000D01*
X148415162Y-161638683D01*
X148308241Y-161472523D01*
X148408431Y-161325890D01*
X148459440Y-161074000D01*
X148459440Y-159374000D01*
X148415162Y-159138683D01*
X148276090Y-158922559D01*
X148063890Y-158777569D01*
X147812000Y-158726560D01*
X145812000Y-158726560D01*
X145576683Y-158770838D01*
X145360559Y-158909910D01*
X145215569Y-159122110D01*
X145164560Y-159374000D01*
X128498881Y-159374000D01*
X128316659Y-159191460D01*
X127957370Y-159042270D01*
X127568337Y-159041931D01*
X127208788Y-159190493D01*
X126933460Y-159465341D01*
X126784270Y-159824630D01*
X126783931Y-160213663D01*
X93420000Y-160213663D01*
X93420000Y-158308663D01*
X99986931Y-158308663D01*
X100135493Y-158668212D01*
X100410341Y-158943540D01*
X100769630Y-159092730D01*
X101158663Y-159093069D01*
X101518212Y-158944507D01*
X101793540Y-158669659D01*
X101942730Y-158310370D01*
X101943069Y-157921337D01*
X101794507Y-157561788D01*
X101519659Y-157286460D01*
X101160370Y-157137270D01*
X100771337Y-157136931D01*
X100411788Y-157285493D01*
X100136460Y-157560341D01*
X99987270Y-157919630D01*
X99986931Y-158308663D01*
X93420000Y-158308663D01*
X93420000Y-154244663D01*
X134149931Y-154244663D01*
X134298493Y-154604212D01*
X134573341Y-154879540D01*
X134932630Y-155028730D01*
X135321663Y-155029069D01*
X135681212Y-154880507D01*
X135956540Y-154605659D01*
X136105730Y-154246370D01*
X136106069Y-153857337D01*
X135957507Y-153497788D01*
X135682659Y-153222460D01*
X135323370Y-153073270D01*
X134934337Y-153072931D01*
X134574788Y-153221493D01*
X134299460Y-153496341D01*
X134150270Y-153855630D01*
X134149931Y-154244663D01*
X93420000Y-154244663D01*
X93420000Y-152085663D01*
X126783931Y-152085663D01*
X126932493Y-152445212D01*
X127207341Y-152720540D01*
X127566630Y-152869730D01*
X127955663Y-152870069D01*
X128315212Y-152721507D01*
X128590540Y-152446659D01*
X128739730Y-152087370D01*
X128740069Y-151698337D01*
X128606057Y-151374000D01*
X145164560Y-151374000D01*
X145164560Y-153074000D01*
X145208838Y-153309317D01*
X145315759Y-153475477D01*
X145215569Y-153622110D01*
X145164560Y-153874000D01*
X145164560Y-155574000D01*
X145208838Y-155809317D01*
X145315759Y-155975477D01*
X145215569Y-156122110D01*
X145164560Y-156374000D01*
X145164560Y-158074000D01*
X145208838Y-158309317D01*
X145347910Y-158525441D01*
X145560110Y-158670431D01*
X145812000Y-158721440D01*
X147812000Y-158721440D01*
X148047317Y-158677162D01*
X148263441Y-158538090D01*
X148408431Y-158325890D01*
X148459440Y-158074000D01*
X148459440Y-156374000D01*
X148415162Y-156138683D01*
X148308241Y-155972523D01*
X148408431Y-155825890D01*
X148459440Y-155574000D01*
X148459440Y-153874000D01*
X148415162Y-153638683D01*
X148308241Y-153472523D01*
X148408431Y-153325890D01*
X148459440Y-153074000D01*
X148459440Y-151374000D01*
X148415162Y-151138683D01*
X148276090Y-150922559D01*
X148063890Y-150777569D01*
X147812000Y-150726560D01*
X145812000Y-150726560D01*
X145576683Y-150770838D01*
X145360559Y-150909910D01*
X145215569Y-151122110D01*
X145164560Y-151374000D01*
X128606057Y-151374000D01*
X128591507Y-151338788D01*
X128316659Y-151063460D01*
X127957370Y-150914270D01*
X127568337Y-150913931D01*
X127208788Y-151062493D01*
X126933460Y-151337341D01*
X126784270Y-151696630D01*
X126783931Y-152085663D01*
X93420000Y-152085663D01*
X93420000Y-148986863D01*
X115099931Y-148986863D01*
X115248493Y-149346412D01*
X115523341Y-149621740D01*
X115882630Y-149770930D01*
X116271663Y-149771269D01*
X116631212Y-149622707D01*
X116906540Y-149347859D01*
X117055730Y-148988570D01*
X117056069Y-148599537D01*
X116907507Y-148239988D01*
X116632659Y-147964660D01*
X116273370Y-147815470D01*
X115884337Y-147815131D01*
X115524788Y-147963693D01*
X115249460Y-148238541D01*
X115100270Y-148597830D01*
X115099931Y-148986863D01*
X93420000Y-148986863D01*
X93420000Y-145608663D01*
X106590931Y-145608663D01*
X106739493Y-145968212D01*
X106821040Y-146049901D01*
X106740460Y-146130341D01*
X106591270Y-146489630D01*
X106590931Y-146878663D01*
X106739493Y-147238212D01*
X106821040Y-147319901D01*
X106740460Y-147400341D01*
X106591270Y-147759630D01*
X106590931Y-148148663D01*
X106739493Y-148508212D01*
X107014341Y-148783540D01*
X107373630Y-148932730D01*
X107762663Y-148933069D01*
X108122212Y-148784507D01*
X108397540Y-148509659D01*
X108546730Y-148150370D01*
X108547069Y-147761337D01*
X108398507Y-147401788D01*
X108316960Y-147320099D01*
X108397540Y-147239659D01*
X108546730Y-146880370D01*
X108546753Y-146853263D01*
X115506331Y-146853263D01*
X115654893Y-147212812D01*
X115929741Y-147488140D01*
X116289030Y-147637330D01*
X116678063Y-147637669D01*
X117037612Y-147489107D01*
X117312940Y-147214259D01*
X117462130Y-146854970D01*
X117462469Y-146465937D01*
X117318153Y-146116663D01*
X134149931Y-146116663D01*
X134298493Y-146476212D01*
X134573341Y-146751540D01*
X134932630Y-146900730D01*
X135321663Y-146901069D01*
X135681212Y-146752507D01*
X135956540Y-146477659D01*
X136105730Y-146118370D01*
X136106069Y-145729337D01*
X135957507Y-145369788D01*
X135682659Y-145094460D01*
X135323370Y-144945270D01*
X134934337Y-144944931D01*
X134574788Y-145093493D01*
X134299460Y-145368341D01*
X134150270Y-145727630D01*
X134149931Y-146116663D01*
X117318153Y-146116663D01*
X117313907Y-146106388D01*
X117039059Y-145831060D01*
X116679770Y-145681870D01*
X116290737Y-145681531D01*
X115931188Y-145830093D01*
X115655860Y-146104941D01*
X115506670Y-146464230D01*
X115506331Y-146853263D01*
X108546753Y-146853263D01*
X108547069Y-146491337D01*
X108398507Y-146131788D01*
X108316960Y-146050099D01*
X108397540Y-145969659D01*
X108546730Y-145610370D01*
X108547069Y-145221337D01*
X108398507Y-144861788D01*
X108256630Y-144719663D01*
X116115931Y-144719663D01*
X116264493Y-145079212D01*
X116539341Y-145354540D01*
X116898630Y-145503730D01*
X117287663Y-145504069D01*
X117647212Y-145355507D01*
X117922540Y-145080659D01*
X118071730Y-144721370D01*
X118072069Y-144332337D01*
X117923507Y-143972788D01*
X117648659Y-143697460D01*
X117289370Y-143548270D01*
X116900337Y-143547931D01*
X116540788Y-143696493D01*
X116265460Y-143971341D01*
X116116270Y-144330630D01*
X116115931Y-144719663D01*
X108256630Y-144719663D01*
X108123659Y-144586460D01*
X107764370Y-144437270D01*
X107375337Y-144436931D01*
X107015788Y-144585493D01*
X106740460Y-144860341D01*
X106591270Y-145219630D01*
X106590931Y-145608663D01*
X93420000Y-145608663D01*
X93420000Y-143374000D01*
X145164560Y-143374000D01*
X145164560Y-145074000D01*
X145208838Y-145309317D01*
X145315759Y-145475477D01*
X145215569Y-145622110D01*
X145164560Y-145874000D01*
X145164560Y-147574000D01*
X145208838Y-147809317D01*
X145315759Y-147975477D01*
X145215569Y-148122110D01*
X145164560Y-148374000D01*
X145164560Y-150074000D01*
X145208838Y-150309317D01*
X145347910Y-150525441D01*
X145560110Y-150670431D01*
X145812000Y-150721440D01*
X147812000Y-150721440D01*
X148047317Y-150677162D01*
X148263441Y-150538090D01*
X148408431Y-150325890D01*
X148459440Y-150074000D01*
X148459440Y-148374000D01*
X148415162Y-148138683D01*
X148308241Y-147972523D01*
X148408431Y-147825890D01*
X148459440Y-147574000D01*
X148459440Y-145874000D01*
X148415162Y-145638683D01*
X148308241Y-145472523D01*
X148408431Y-145325890D01*
X148459440Y-145074000D01*
X148459440Y-143374000D01*
X148415162Y-143138683D01*
X148276090Y-142922559D01*
X148063890Y-142777569D01*
X147812000Y-142726560D01*
X145812000Y-142726560D01*
X145576683Y-142770838D01*
X145360559Y-142909910D01*
X145215569Y-143122110D01*
X145164560Y-143374000D01*
X93420000Y-143374000D01*
X93420000Y-141798663D01*
X111924931Y-141798663D01*
X112073493Y-142158212D01*
X112348341Y-142433540D01*
X112707630Y-142582730D01*
X113096663Y-142583069D01*
X113456212Y-142434507D01*
X113731540Y-142159659D01*
X113880730Y-141800370D01*
X113881069Y-141411337D01*
X113732507Y-141051788D01*
X113457659Y-140776460D01*
X113098370Y-140627270D01*
X112709337Y-140626931D01*
X112349788Y-140775493D01*
X112074460Y-141050341D01*
X111925270Y-141409630D01*
X111924931Y-141798663D01*
X93420000Y-141798663D01*
X93420000Y-139284063D01*
X123888331Y-139284063D01*
X124036893Y-139643612D01*
X124311741Y-139918940D01*
X124671030Y-140068130D01*
X125060063Y-140068469D01*
X125419612Y-139919907D01*
X125694940Y-139645059D01*
X125844130Y-139285770D01*
X125844469Y-138896737D01*
X125695907Y-138537188D01*
X125421059Y-138261860D01*
X125061770Y-138112670D01*
X124672737Y-138112331D01*
X124313188Y-138260893D01*
X124037860Y-138535741D01*
X123888670Y-138895030D01*
X123888331Y-139284063D01*
X93420000Y-139284063D01*
X93420000Y-135374000D01*
X145164560Y-135374000D01*
X145164560Y-137074000D01*
X145208838Y-137309317D01*
X145315759Y-137475477D01*
X145215569Y-137622110D01*
X145164560Y-137874000D01*
X145164560Y-139574000D01*
X145208838Y-139809317D01*
X145315759Y-139975477D01*
X145215569Y-140122110D01*
X145164560Y-140374000D01*
X145164560Y-142074000D01*
X145208838Y-142309317D01*
X145347910Y-142525441D01*
X145560110Y-142670431D01*
X145812000Y-142721440D01*
X147812000Y-142721440D01*
X148047317Y-142677162D01*
X148263441Y-142538090D01*
X148408431Y-142325890D01*
X148459440Y-142074000D01*
X148459440Y-140374000D01*
X148415162Y-140138683D01*
X148308241Y-139972523D01*
X148408431Y-139825890D01*
X148459440Y-139574000D01*
X148459440Y-137874000D01*
X148415162Y-137638683D01*
X148308241Y-137472523D01*
X148408431Y-137325890D01*
X148459440Y-137074000D01*
X148459440Y-135374000D01*
X148415162Y-135138683D01*
X148276090Y-134922559D01*
X148063890Y-134777569D01*
X147812000Y-134726560D01*
X145812000Y-134726560D01*
X145576683Y-134770838D01*
X145360559Y-134909910D01*
X145215569Y-135122110D01*
X145164560Y-135374000D01*
X93420000Y-135374000D01*
X93420000Y-131357000D01*
X95022560Y-131357000D01*
X95022560Y-133057000D01*
X95066838Y-133292317D01*
X95205910Y-133508441D01*
X95418110Y-133653431D01*
X95670000Y-133704440D01*
X97370000Y-133704440D01*
X97605317Y-133660162D01*
X97821441Y-133521090D01*
X97966431Y-133308890D01*
X97980086Y-133241459D01*
X98009946Y-133286147D01*
X98491715Y-133608054D01*
X99060000Y-133721093D01*
X99628285Y-133608054D01*
X100110054Y-133286147D01*
X100330000Y-132956974D01*
X100549946Y-133286147D01*
X101031715Y-133608054D01*
X101600000Y-133721093D01*
X102168285Y-133608054D01*
X102650054Y-133286147D01*
X102870000Y-132956974D01*
X103089946Y-133286147D01*
X103571715Y-133608054D01*
X104140000Y-133721093D01*
X104708285Y-133608054D01*
X105190054Y-133286147D01*
X105410000Y-132956974D01*
X105629946Y-133286147D01*
X106111715Y-133608054D01*
X106680000Y-133721093D01*
X107248285Y-133608054D01*
X107730054Y-133286147D01*
X107950000Y-132956974D01*
X108169946Y-133286147D01*
X108651715Y-133608054D01*
X109220000Y-133721093D01*
X109788285Y-133608054D01*
X110270054Y-133286147D01*
X110497702Y-132945447D01*
X110564817Y-133088358D01*
X110993076Y-133478645D01*
X111403110Y-133648476D01*
X111633000Y-133527155D01*
X111633000Y-132334000D01*
X111613000Y-132334000D01*
X111613000Y-132080000D01*
X111633000Y-132080000D01*
X111633000Y-130886845D01*
X111887000Y-130886845D01*
X111887000Y-132080000D01*
X111907000Y-132080000D01*
X111907000Y-132334000D01*
X111887000Y-132334000D01*
X111887000Y-133527155D01*
X112116890Y-133648476D01*
X112526924Y-133478645D01*
X112955183Y-133088358D01*
X113022298Y-132945447D01*
X113249946Y-133286147D01*
X113731715Y-133608054D01*
X114300000Y-133721093D01*
X114868285Y-133608054D01*
X115350054Y-133286147D01*
X115671961Y-132804378D01*
X115785000Y-132236093D01*
X115785000Y-132177907D01*
X115671961Y-131609622D01*
X115350054Y-131127853D01*
X114868285Y-130805946D01*
X114300000Y-130692907D01*
X113731715Y-130805946D01*
X113249946Y-131127853D01*
X113022298Y-131468553D01*
X112955183Y-131325642D01*
X112526924Y-130935355D01*
X112116890Y-130765524D01*
X111887000Y-130886845D01*
X111633000Y-130886845D01*
X111403110Y-130765524D01*
X110993076Y-130935355D01*
X110564817Y-131325642D01*
X110497702Y-131468553D01*
X110270054Y-131127853D01*
X109788285Y-130805946D01*
X109220000Y-130692907D01*
X108651715Y-130805946D01*
X108169946Y-131127853D01*
X107950000Y-131457026D01*
X107730054Y-131127853D01*
X107248285Y-130805946D01*
X106680000Y-130692907D01*
X106111715Y-130805946D01*
X105629946Y-131127853D01*
X105410000Y-131457026D01*
X105190054Y-131127853D01*
X104708285Y-130805946D01*
X104140000Y-130692907D01*
X103571715Y-130805946D01*
X103089946Y-131127853D01*
X102870000Y-131457026D01*
X102650054Y-131127853D01*
X102168285Y-130805946D01*
X101600000Y-130692907D01*
X101031715Y-130805946D01*
X100549946Y-131127853D01*
X100330000Y-131457026D01*
X100110054Y-131127853D01*
X99628285Y-130805946D01*
X99060000Y-130692907D01*
X98491715Y-130805946D01*
X98009946Y-131127853D01*
X97982150Y-131169452D01*
X97973162Y-131121683D01*
X97834090Y-130905559D01*
X97621890Y-130760569D01*
X97370000Y-130709560D01*
X95670000Y-130709560D01*
X95434683Y-130753838D01*
X95218559Y-130892910D01*
X95073569Y-131105110D01*
X95022560Y-131357000D01*
X93420000Y-131357000D01*
X93420000Y-124684641D01*
X123850400Y-124684641D01*
X123850400Y-124743359D01*
X123964474Y-125316848D01*
X124289330Y-125803029D01*
X124560172Y-125984000D01*
X124289330Y-126164971D01*
X123964474Y-126651152D01*
X123850400Y-127224641D01*
X123850400Y-127283359D01*
X123964474Y-127856848D01*
X124289330Y-128343029D01*
X124775511Y-128667885D01*
X125349000Y-128781959D01*
X125922489Y-128667885D01*
X126408670Y-128343029D01*
X126619000Y-128028248D01*
X126829330Y-128343029D01*
X127315511Y-128667885D01*
X127889000Y-128781959D01*
X128462489Y-128667885D01*
X128948670Y-128343029D01*
X129164664Y-128019772D01*
X129222179Y-128142490D01*
X129654053Y-128536688D01*
X130069974Y-128708958D01*
X130302000Y-128587817D01*
X130302000Y-127381000D01*
X130556000Y-127381000D01*
X130556000Y-128587817D01*
X130788026Y-128708958D01*
X131203947Y-128536688D01*
X131635821Y-128142490D01*
X131883968Y-127613027D01*
X131763469Y-127381000D01*
X130556000Y-127381000D01*
X130302000Y-127381000D01*
X130282000Y-127381000D01*
X130282000Y-127127000D01*
X130302000Y-127127000D01*
X130302000Y-127107000D01*
X130556000Y-127107000D01*
X130556000Y-127127000D01*
X131763469Y-127127000D01*
X131883968Y-126894973D01*
X131635821Y-126365510D01*
X131566919Y-126302619D01*
X136850613Y-126302619D01*
X137190155Y-127124372D01*
X137818321Y-127753636D01*
X138639481Y-128094611D01*
X139528619Y-128095387D01*
X140350372Y-127755845D01*
X140979636Y-127127679D01*
X141320611Y-126306519D01*
X141321387Y-125417381D01*
X140981845Y-124595628D01*
X140353679Y-123966364D01*
X139532519Y-123625389D01*
X138643381Y-123624613D01*
X137821628Y-123964155D01*
X137192364Y-124592321D01*
X136851389Y-125413481D01*
X136850613Y-126302619D01*
X131566919Y-126302619D01*
X131449567Y-126195505D01*
X131527917Y-126180762D01*
X131744041Y-126041690D01*
X131889031Y-125829490D01*
X131940040Y-125577600D01*
X131940040Y-123850400D01*
X131895762Y-123615083D01*
X131756690Y-123398959D01*
X131544490Y-123253969D01*
X131292600Y-123202960D01*
X129565400Y-123202960D01*
X129330083Y-123247238D01*
X129113959Y-123386310D01*
X128968969Y-123598510D01*
X128960136Y-123642131D01*
X128948670Y-123624971D01*
X128462489Y-123300115D01*
X127889000Y-123186041D01*
X127315511Y-123300115D01*
X126829330Y-123624971D01*
X126619000Y-123939752D01*
X126408670Y-123624971D01*
X125922489Y-123300115D01*
X125349000Y-123186041D01*
X124775511Y-123300115D01*
X124289330Y-123624971D01*
X123964474Y-124111152D01*
X123850400Y-124684641D01*
X93420000Y-124684641D01*
X93420000Y-121360000D01*
X143202000Y-121360000D01*
X143202000Y-129540000D01*
X143202000Y-129540000D01*
G37*
X143202000Y-129540000D02*
X143256046Y-129811705D01*
X143409954Y-130042046D01*
X143640295Y-130195954D01*
X143912000Y-130250000D01*
X146633862Y-130250000D01*
X146563759Y-130295110D01*
X146418769Y-130507310D01*
X146367760Y-130759200D01*
X146367760Y-132791200D01*
X146412038Y-133026517D01*
X146551110Y-133242641D01*
X146763310Y-133387631D01*
X147015200Y-133438640D01*
X149047200Y-133438640D01*
X149282517Y-133394362D01*
X149498641Y-133255290D01*
X149600398Y-133106363D01*
X149939390Y-133332870D01*
X150571200Y-133458545D01*
X151203010Y-133332870D01*
X151738633Y-132974978D01*
X152096525Y-132439355D01*
X152222200Y-131807545D01*
X152222200Y-131742855D01*
X152096525Y-131111045D01*
X151738633Y-130575422D01*
X151251605Y-130250000D01*
X154230000Y-130250000D01*
X154230000Y-169470000D01*
X143912000Y-169470000D01*
X143640295Y-169524046D01*
X143409954Y-169677954D01*
X143256046Y-169908295D01*
X143202000Y-170180000D01*
X143202000Y-178360000D01*
X93420000Y-178360000D01*
X93420000Y-175735655D01*
X94488000Y-175735655D01*
X94488000Y-175800345D01*
X94613675Y-176432155D01*
X94971567Y-176967778D01*
X95507190Y-177325670D01*
X96139000Y-177451345D01*
X96770810Y-177325670D01*
X97110792Y-177098501D01*
X97198910Y-177235441D01*
X97411110Y-177380431D01*
X97663000Y-177431440D01*
X99695000Y-177431440D01*
X99930317Y-177387162D01*
X100146441Y-177248090D01*
X100291431Y-177035890D01*
X100342440Y-176784000D01*
X100342440Y-174752000D01*
X100298162Y-174516683D01*
X100160416Y-174302619D01*
X136850613Y-174302619D01*
X137190155Y-175124372D01*
X137818321Y-175753636D01*
X138639481Y-176094611D01*
X139528619Y-176095387D01*
X140350372Y-175755845D01*
X140979636Y-175127679D01*
X141320611Y-174306519D01*
X141321387Y-173417381D01*
X140981845Y-172595628D01*
X140353679Y-171966364D01*
X139532519Y-171625389D01*
X138643381Y-171624613D01*
X137821628Y-171964155D01*
X137192364Y-172592321D01*
X136851389Y-173413481D01*
X136850613Y-174302619D01*
X100160416Y-174302619D01*
X100159090Y-174300559D01*
X99946890Y-174155569D01*
X99695000Y-174104560D01*
X97663000Y-174104560D01*
X97427683Y-174148838D01*
X97211559Y-174287910D01*
X97109802Y-174436837D01*
X96770810Y-174210330D01*
X96139000Y-174084655D01*
X95507190Y-174210330D01*
X94971567Y-174568222D01*
X94613675Y-175103845D01*
X94488000Y-175735655D01*
X93420000Y-175735655D01*
X93420000Y-170713400D01*
X94500960Y-170713400D01*
X94500960Y-172948600D01*
X94545238Y-173183917D01*
X94684310Y-173400041D01*
X94896510Y-173545031D01*
X95148400Y-173596040D01*
X97383600Y-173596040D01*
X97618917Y-173551762D01*
X97835041Y-173412690D01*
X97980031Y-173200490D01*
X98031040Y-172948600D01*
X98031040Y-170713400D01*
X97986762Y-170478083D01*
X97847690Y-170261959D01*
X97635490Y-170116969D01*
X97383600Y-170065960D01*
X95148400Y-170065960D01*
X94913083Y-170110238D01*
X94696959Y-170249310D01*
X94551969Y-170461510D01*
X94500960Y-170713400D01*
X93420000Y-170713400D01*
X93420000Y-168976663D01*
X109638931Y-168976663D01*
X109787493Y-169336212D01*
X110062341Y-169611540D01*
X110421630Y-169760730D01*
X110810663Y-169761069D01*
X111170212Y-169612507D01*
X111445540Y-169337659D01*
X111594730Y-168978370D01*
X111594731Y-168976663D01*
X127926931Y-168976663D01*
X128075493Y-169336212D01*
X128350341Y-169611540D01*
X128709630Y-169760730D01*
X129098663Y-169761069D01*
X129458212Y-169612507D01*
X129733540Y-169337659D01*
X129882730Y-168978370D01*
X129882842Y-168849663D01*
X131228931Y-168849663D01*
X131377493Y-169209212D01*
X131652341Y-169484540D01*
X132011630Y-169633730D01*
X132400663Y-169634069D01*
X132760212Y-169485507D01*
X133035540Y-169210659D01*
X133184730Y-168851370D01*
X133185069Y-168462337D01*
X133036507Y-168102788D01*
X132761659Y-167827460D01*
X132402370Y-167678270D01*
X132013337Y-167677931D01*
X131653788Y-167826493D01*
X131378460Y-168101341D01*
X131229270Y-168460630D01*
X131228931Y-168849663D01*
X129882842Y-168849663D01*
X129883069Y-168589337D01*
X129734507Y-168229788D01*
X129459659Y-167954460D01*
X129100370Y-167805270D01*
X128711337Y-167804931D01*
X128351788Y-167953493D01*
X128076460Y-168228341D01*
X127927270Y-168587630D01*
X127926931Y-168976663D01*
X111594731Y-168976663D01*
X111595069Y-168589337D01*
X111446507Y-168229788D01*
X111171659Y-167954460D01*
X110812370Y-167805270D01*
X110423337Y-167804931D01*
X110063788Y-167953493D01*
X109788460Y-168228341D01*
X109639270Y-168587630D01*
X109638931Y-168976663D01*
X93420000Y-168976663D01*
X93420000Y-165510377D01*
X93531493Y-165780212D01*
X93806341Y-166055540D01*
X94165630Y-166204730D01*
X94554663Y-166205069D01*
X94914212Y-166056507D01*
X95189540Y-165781659D01*
X95338730Y-165422370D01*
X95339069Y-165033337D01*
X95190507Y-164673788D01*
X94915659Y-164398460D01*
X94556370Y-164249270D01*
X94167337Y-164248931D01*
X93807788Y-164397493D01*
X93532460Y-164672341D01*
X93420000Y-164943174D01*
X93420000Y-161483663D01*
X98843931Y-161483663D01*
X98992493Y-161843212D01*
X99267341Y-162118540D01*
X99626630Y-162267730D01*
X100015663Y-162268069D01*
X100375212Y-162119507D01*
X100503279Y-161991663D01*
X134149931Y-161991663D01*
X134298493Y-162351212D01*
X134573341Y-162626540D01*
X134932630Y-162775730D01*
X135321663Y-162776069D01*
X135681212Y-162627507D01*
X135956540Y-162352659D01*
X136105730Y-161993370D01*
X136106069Y-161604337D01*
X135957507Y-161244788D01*
X135682659Y-160969460D01*
X135323370Y-160820270D01*
X134934337Y-160819931D01*
X134574788Y-160968493D01*
X134299460Y-161243341D01*
X134150270Y-161602630D01*
X134149931Y-161991663D01*
X100503279Y-161991663D01*
X100650540Y-161844659D01*
X100799730Y-161485370D01*
X100800069Y-161096337D01*
X100651507Y-160736788D01*
X100376659Y-160461460D01*
X100017370Y-160312270D01*
X99628337Y-160311931D01*
X99268788Y-160460493D01*
X98993460Y-160735341D01*
X98844270Y-161094630D01*
X98843931Y-161483663D01*
X93420000Y-161483663D01*
X93420000Y-160213663D01*
X126783931Y-160213663D01*
X126932493Y-160573212D01*
X127207341Y-160848540D01*
X127566630Y-160997730D01*
X127955663Y-160998069D01*
X128315212Y-160849507D01*
X128590540Y-160574659D01*
X128739730Y-160215370D01*
X128740069Y-159826337D01*
X128591507Y-159466788D01*
X128498881Y-159374000D01*
X145164560Y-159374000D01*
X145164560Y-161074000D01*
X145208838Y-161309317D01*
X145315759Y-161475477D01*
X145215569Y-161622110D01*
X145164560Y-161874000D01*
X145164560Y-163574000D01*
X145208838Y-163809317D01*
X145315759Y-163975477D01*
X145215569Y-164122110D01*
X145164560Y-164374000D01*
X145164560Y-166074000D01*
X145208838Y-166309317D01*
X145347910Y-166525441D01*
X145560110Y-166670431D01*
X145812000Y-166721440D01*
X147812000Y-166721440D01*
X148047317Y-166677162D01*
X148263441Y-166538090D01*
X148408431Y-166325890D01*
X148459440Y-166074000D01*
X148459440Y-164374000D01*
X148415162Y-164138683D01*
X148308241Y-163972523D01*
X148408431Y-163825890D01*
X148459440Y-163574000D01*
X148459440Y-161874000D01*
X148415162Y-161638683D01*
X148308241Y-161472523D01*
X148408431Y-161325890D01*
X148459440Y-161074000D01*
X148459440Y-159374000D01*
X148415162Y-159138683D01*
X148276090Y-158922559D01*
X148063890Y-158777569D01*
X147812000Y-158726560D01*
X145812000Y-158726560D01*
X145576683Y-158770838D01*
X145360559Y-158909910D01*
X145215569Y-159122110D01*
X145164560Y-159374000D01*
X128498881Y-159374000D01*
X128316659Y-159191460D01*
X127957370Y-159042270D01*
X127568337Y-159041931D01*
X127208788Y-159190493D01*
X126933460Y-159465341D01*
X126784270Y-159824630D01*
X126783931Y-160213663D01*
X93420000Y-160213663D01*
X93420000Y-158308663D01*
X99986931Y-158308663D01*
X100135493Y-158668212D01*
X100410341Y-158943540D01*
X100769630Y-159092730D01*
X101158663Y-159093069D01*
X101518212Y-158944507D01*
X101793540Y-158669659D01*
X101942730Y-158310370D01*
X101943069Y-157921337D01*
X101794507Y-157561788D01*
X101519659Y-157286460D01*
X101160370Y-157137270D01*
X100771337Y-157136931D01*
X100411788Y-157285493D01*
X100136460Y-157560341D01*
X99987270Y-157919630D01*
X99986931Y-158308663D01*
X93420000Y-158308663D01*
X93420000Y-154244663D01*
X134149931Y-154244663D01*
X134298493Y-154604212D01*
X134573341Y-154879540D01*
X134932630Y-155028730D01*
X135321663Y-155029069D01*
X135681212Y-154880507D01*
X135956540Y-154605659D01*
X136105730Y-154246370D01*
X136106069Y-153857337D01*
X135957507Y-153497788D01*
X135682659Y-153222460D01*
X135323370Y-153073270D01*
X134934337Y-153072931D01*
X134574788Y-153221493D01*
X134299460Y-153496341D01*
X134150270Y-153855630D01*
X134149931Y-154244663D01*
X93420000Y-154244663D01*
X93420000Y-152085663D01*
X126783931Y-152085663D01*
X126932493Y-152445212D01*
X127207341Y-152720540D01*
X127566630Y-152869730D01*
X127955663Y-152870069D01*
X128315212Y-152721507D01*
X128590540Y-152446659D01*
X128739730Y-152087370D01*
X128740069Y-151698337D01*
X128606057Y-151374000D01*
X145164560Y-151374000D01*
X145164560Y-153074000D01*
X145208838Y-153309317D01*
X145315759Y-153475477D01*
X145215569Y-153622110D01*
X145164560Y-153874000D01*
X145164560Y-155574000D01*
X145208838Y-155809317D01*
X145315759Y-155975477D01*
X145215569Y-156122110D01*
X145164560Y-156374000D01*
X145164560Y-158074000D01*
X145208838Y-158309317D01*
X145347910Y-158525441D01*
X145560110Y-158670431D01*
X145812000Y-158721440D01*
X147812000Y-158721440D01*
X148047317Y-158677162D01*
X148263441Y-158538090D01*
X148408431Y-158325890D01*
X148459440Y-158074000D01*
X148459440Y-156374000D01*
X148415162Y-156138683D01*
X148308241Y-155972523D01*
X148408431Y-155825890D01*
X148459440Y-155574000D01*
X148459440Y-153874000D01*
X148415162Y-153638683D01*
X148308241Y-153472523D01*
X148408431Y-153325890D01*
X148459440Y-153074000D01*
X148459440Y-151374000D01*
X148415162Y-151138683D01*
X148276090Y-150922559D01*
X148063890Y-150777569D01*
X147812000Y-150726560D01*
X145812000Y-150726560D01*
X145576683Y-150770838D01*
X145360559Y-150909910D01*
X145215569Y-151122110D01*
X145164560Y-151374000D01*
X128606057Y-151374000D01*
X128591507Y-151338788D01*
X128316659Y-151063460D01*
X127957370Y-150914270D01*
X127568337Y-150913931D01*
X127208788Y-151062493D01*
X126933460Y-151337341D01*
X126784270Y-151696630D01*
X126783931Y-152085663D01*
X93420000Y-152085663D01*
X93420000Y-148986863D01*
X115099931Y-148986863D01*
X115248493Y-149346412D01*
X115523341Y-149621740D01*
X115882630Y-149770930D01*
X116271663Y-149771269D01*
X116631212Y-149622707D01*
X116906540Y-149347859D01*
X117055730Y-148988570D01*
X117056069Y-148599537D01*
X116907507Y-148239988D01*
X116632659Y-147964660D01*
X116273370Y-147815470D01*
X115884337Y-147815131D01*
X115524788Y-147963693D01*
X115249460Y-148238541D01*
X115100270Y-148597830D01*
X115099931Y-148986863D01*
X93420000Y-148986863D01*
X93420000Y-145608663D01*
X106590931Y-145608663D01*
X106739493Y-145968212D01*
X106821040Y-146049901D01*
X106740460Y-146130341D01*
X106591270Y-146489630D01*
X106590931Y-146878663D01*
X106739493Y-147238212D01*
X106821040Y-147319901D01*
X106740460Y-147400341D01*
X106591270Y-147759630D01*
X106590931Y-148148663D01*
X106739493Y-148508212D01*
X107014341Y-148783540D01*
X107373630Y-148932730D01*
X107762663Y-148933069D01*
X108122212Y-148784507D01*
X108397540Y-148509659D01*
X108546730Y-148150370D01*
X108547069Y-147761337D01*
X108398507Y-147401788D01*
X108316960Y-147320099D01*
X108397540Y-147239659D01*
X108546730Y-146880370D01*
X108546753Y-146853263D01*
X115506331Y-146853263D01*
X115654893Y-147212812D01*
X115929741Y-147488140D01*
X116289030Y-147637330D01*
X116678063Y-147637669D01*
X117037612Y-147489107D01*
X117312940Y-147214259D01*
X117462130Y-146854970D01*
X117462469Y-146465937D01*
X117318153Y-146116663D01*
X134149931Y-146116663D01*
X134298493Y-146476212D01*
X134573341Y-146751540D01*
X134932630Y-146900730D01*
X135321663Y-146901069D01*
X135681212Y-146752507D01*
X135956540Y-146477659D01*
X136105730Y-146118370D01*
X136106069Y-145729337D01*
X135957507Y-145369788D01*
X135682659Y-145094460D01*
X135323370Y-144945270D01*
X134934337Y-144944931D01*
X134574788Y-145093493D01*
X134299460Y-145368341D01*
X134150270Y-145727630D01*
X134149931Y-146116663D01*
X117318153Y-146116663D01*
X117313907Y-146106388D01*
X117039059Y-145831060D01*
X116679770Y-145681870D01*
X116290737Y-145681531D01*
X115931188Y-145830093D01*
X115655860Y-146104941D01*
X115506670Y-146464230D01*
X115506331Y-146853263D01*
X108546753Y-146853263D01*
X108547069Y-146491337D01*
X108398507Y-146131788D01*
X108316960Y-146050099D01*
X108397540Y-145969659D01*
X108546730Y-145610370D01*
X108547069Y-145221337D01*
X108398507Y-144861788D01*
X108256630Y-144719663D01*
X116115931Y-144719663D01*
X116264493Y-145079212D01*
X116539341Y-145354540D01*
X116898630Y-145503730D01*
X117287663Y-145504069D01*
X117647212Y-145355507D01*
X117922540Y-145080659D01*
X118071730Y-144721370D01*
X118072069Y-144332337D01*
X117923507Y-143972788D01*
X117648659Y-143697460D01*
X117289370Y-143548270D01*
X116900337Y-143547931D01*
X116540788Y-143696493D01*
X116265460Y-143971341D01*
X116116270Y-144330630D01*
X116115931Y-144719663D01*
X108256630Y-144719663D01*
X108123659Y-144586460D01*
X107764370Y-144437270D01*
X107375337Y-144436931D01*
X107015788Y-144585493D01*
X106740460Y-144860341D01*
X106591270Y-145219630D01*
X106590931Y-145608663D01*
X93420000Y-145608663D01*
X93420000Y-143374000D01*
X145164560Y-143374000D01*
X145164560Y-145074000D01*
X145208838Y-145309317D01*
X145315759Y-145475477D01*
X145215569Y-145622110D01*
X145164560Y-145874000D01*
X145164560Y-147574000D01*
X145208838Y-147809317D01*
X145315759Y-147975477D01*
X145215569Y-148122110D01*
X145164560Y-148374000D01*
X145164560Y-150074000D01*
X145208838Y-150309317D01*
X145347910Y-150525441D01*
X145560110Y-150670431D01*
X145812000Y-150721440D01*
X147812000Y-150721440D01*
X148047317Y-150677162D01*
X148263441Y-150538090D01*
X148408431Y-150325890D01*
X148459440Y-150074000D01*
X148459440Y-148374000D01*
X148415162Y-148138683D01*
X148308241Y-147972523D01*
X148408431Y-147825890D01*
X148459440Y-147574000D01*
X148459440Y-145874000D01*
X148415162Y-145638683D01*
X148308241Y-145472523D01*
X148408431Y-145325890D01*
X148459440Y-145074000D01*
X148459440Y-143374000D01*
X148415162Y-143138683D01*
X148276090Y-142922559D01*
X148063890Y-142777569D01*
X147812000Y-142726560D01*
X145812000Y-142726560D01*
X145576683Y-142770838D01*
X145360559Y-142909910D01*
X145215569Y-143122110D01*
X145164560Y-143374000D01*
X93420000Y-143374000D01*
X93420000Y-141798663D01*
X111924931Y-141798663D01*
X112073493Y-142158212D01*
X112348341Y-142433540D01*
X112707630Y-142582730D01*
X113096663Y-142583069D01*
X113456212Y-142434507D01*
X113731540Y-142159659D01*
X113880730Y-141800370D01*
X113881069Y-141411337D01*
X113732507Y-141051788D01*
X113457659Y-140776460D01*
X113098370Y-140627270D01*
X112709337Y-140626931D01*
X112349788Y-140775493D01*
X112074460Y-141050341D01*
X111925270Y-141409630D01*
X111924931Y-141798663D01*
X93420000Y-141798663D01*
X93420000Y-139284063D01*
X123888331Y-139284063D01*
X124036893Y-139643612D01*
X124311741Y-139918940D01*
X124671030Y-140068130D01*
X125060063Y-140068469D01*
X125419612Y-139919907D01*
X125694940Y-139645059D01*
X125844130Y-139285770D01*
X125844469Y-138896737D01*
X125695907Y-138537188D01*
X125421059Y-138261860D01*
X125061770Y-138112670D01*
X124672737Y-138112331D01*
X124313188Y-138260893D01*
X124037860Y-138535741D01*
X123888670Y-138895030D01*
X123888331Y-139284063D01*
X93420000Y-139284063D01*
X93420000Y-135374000D01*
X145164560Y-135374000D01*
X145164560Y-137074000D01*
X145208838Y-137309317D01*
X145315759Y-137475477D01*
X145215569Y-137622110D01*
X145164560Y-137874000D01*
X145164560Y-139574000D01*
X145208838Y-139809317D01*
X145315759Y-139975477D01*
X145215569Y-140122110D01*
X145164560Y-140374000D01*
X145164560Y-142074000D01*
X145208838Y-142309317D01*
X145347910Y-142525441D01*
X145560110Y-142670431D01*
X145812000Y-142721440D01*
X147812000Y-142721440D01*
X148047317Y-142677162D01*
X148263441Y-142538090D01*
X148408431Y-142325890D01*
X148459440Y-142074000D01*
X148459440Y-140374000D01*
X148415162Y-140138683D01*
X148308241Y-139972523D01*
X148408431Y-139825890D01*
X148459440Y-139574000D01*
X148459440Y-137874000D01*
X148415162Y-137638683D01*
X148308241Y-137472523D01*
X148408431Y-137325890D01*
X148459440Y-137074000D01*
X148459440Y-135374000D01*
X148415162Y-135138683D01*
X148276090Y-134922559D01*
X148063890Y-134777569D01*
X147812000Y-134726560D01*
X145812000Y-134726560D01*
X145576683Y-134770838D01*
X145360559Y-134909910D01*
X145215569Y-135122110D01*
X145164560Y-135374000D01*
X93420000Y-135374000D01*
X93420000Y-131357000D01*
X95022560Y-131357000D01*
X95022560Y-133057000D01*
X95066838Y-133292317D01*
X95205910Y-133508441D01*
X95418110Y-133653431D01*
X95670000Y-133704440D01*
X97370000Y-133704440D01*
X97605317Y-133660162D01*
X97821441Y-133521090D01*
X97966431Y-133308890D01*
X97980086Y-133241459D01*
X98009946Y-133286147D01*
X98491715Y-133608054D01*
X99060000Y-133721093D01*
X99628285Y-133608054D01*
X100110054Y-133286147D01*
X100330000Y-132956974D01*
X100549946Y-133286147D01*
X101031715Y-133608054D01*
X101600000Y-133721093D01*
X102168285Y-133608054D01*
X102650054Y-133286147D01*
X102870000Y-132956974D01*
X103089946Y-133286147D01*
X103571715Y-133608054D01*
X104140000Y-133721093D01*
X104708285Y-133608054D01*
X105190054Y-133286147D01*
X105410000Y-132956974D01*
X105629946Y-133286147D01*
X106111715Y-133608054D01*
X106680000Y-133721093D01*
X107248285Y-133608054D01*
X107730054Y-133286147D01*
X107950000Y-132956974D01*
X108169946Y-133286147D01*
X108651715Y-133608054D01*
X109220000Y-133721093D01*
X109788285Y-133608054D01*
X110270054Y-133286147D01*
X110497702Y-132945447D01*
X110564817Y-133088358D01*
X110993076Y-133478645D01*
X111403110Y-133648476D01*
X111633000Y-133527155D01*
X111633000Y-132334000D01*
X111613000Y-132334000D01*
X111613000Y-132080000D01*
X111633000Y-132080000D01*
X111633000Y-130886845D01*
X111887000Y-130886845D01*
X111887000Y-132080000D01*
X111907000Y-132080000D01*
X111907000Y-132334000D01*
X111887000Y-132334000D01*
X111887000Y-133527155D01*
X112116890Y-133648476D01*
X112526924Y-133478645D01*
X112955183Y-133088358D01*
X113022298Y-132945447D01*
X113249946Y-133286147D01*
X113731715Y-133608054D01*
X114300000Y-133721093D01*
X114868285Y-133608054D01*
X115350054Y-133286147D01*
X115671961Y-132804378D01*
X115785000Y-132236093D01*
X115785000Y-132177907D01*
X115671961Y-131609622D01*
X115350054Y-131127853D01*
X114868285Y-130805946D01*
X114300000Y-130692907D01*
X113731715Y-130805946D01*
X113249946Y-131127853D01*
X113022298Y-131468553D01*
X112955183Y-131325642D01*
X112526924Y-130935355D01*
X112116890Y-130765524D01*
X111887000Y-130886845D01*
X111633000Y-130886845D01*
X111403110Y-130765524D01*
X110993076Y-130935355D01*
X110564817Y-131325642D01*
X110497702Y-131468553D01*
X110270054Y-131127853D01*
X109788285Y-130805946D01*
X109220000Y-130692907D01*
X108651715Y-130805946D01*
X108169946Y-131127853D01*
X107950000Y-131457026D01*
X107730054Y-131127853D01*
X107248285Y-130805946D01*
X106680000Y-130692907D01*
X106111715Y-130805946D01*
X105629946Y-131127853D01*
X105410000Y-131457026D01*
X105190054Y-131127853D01*
X104708285Y-130805946D01*
X104140000Y-130692907D01*
X103571715Y-130805946D01*
X103089946Y-131127853D01*
X102870000Y-131457026D01*
X102650054Y-131127853D01*
X102168285Y-130805946D01*
X101600000Y-130692907D01*
X101031715Y-130805946D01*
X100549946Y-131127853D01*
X100330000Y-131457026D01*
X100110054Y-131127853D01*
X99628285Y-130805946D01*
X99060000Y-130692907D01*
X98491715Y-130805946D01*
X98009946Y-131127853D01*
X97982150Y-131169452D01*
X97973162Y-131121683D01*
X97834090Y-130905559D01*
X97621890Y-130760569D01*
X97370000Y-130709560D01*
X95670000Y-130709560D01*
X95434683Y-130753838D01*
X95218559Y-130892910D01*
X95073569Y-131105110D01*
X95022560Y-131357000D01*
X93420000Y-131357000D01*
X93420000Y-124684641D01*
X123850400Y-124684641D01*
X123850400Y-124743359D01*
X123964474Y-125316848D01*
X124289330Y-125803029D01*
X124560172Y-125984000D01*
X124289330Y-126164971D01*
X123964474Y-126651152D01*
X123850400Y-127224641D01*
X123850400Y-127283359D01*
X123964474Y-127856848D01*
X124289330Y-128343029D01*
X124775511Y-128667885D01*
X125349000Y-128781959D01*
X125922489Y-128667885D01*
X126408670Y-128343029D01*
X126619000Y-128028248D01*
X126829330Y-128343029D01*
X127315511Y-128667885D01*
X127889000Y-128781959D01*
X128462489Y-128667885D01*
X128948670Y-128343029D01*
X129164664Y-128019772D01*
X129222179Y-128142490D01*
X129654053Y-128536688D01*
X130069974Y-128708958D01*
X130302000Y-128587817D01*
X130302000Y-127381000D01*
X130556000Y-127381000D01*
X130556000Y-128587817D01*
X130788026Y-128708958D01*
X131203947Y-128536688D01*
X131635821Y-128142490D01*
X131883968Y-127613027D01*
X131763469Y-127381000D01*
X130556000Y-127381000D01*
X130302000Y-127381000D01*
X130282000Y-127381000D01*
X130282000Y-127127000D01*
X130302000Y-127127000D01*
X130302000Y-127107000D01*
X130556000Y-127107000D01*
X130556000Y-127127000D01*
X131763469Y-127127000D01*
X131883968Y-126894973D01*
X131635821Y-126365510D01*
X131566919Y-126302619D01*
X136850613Y-126302619D01*
X137190155Y-127124372D01*
X137818321Y-127753636D01*
X138639481Y-128094611D01*
X139528619Y-128095387D01*
X140350372Y-127755845D01*
X140979636Y-127127679D01*
X141320611Y-126306519D01*
X141321387Y-125417381D01*
X140981845Y-124595628D01*
X140353679Y-123966364D01*
X139532519Y-123625389D01*
X138643381Y-123624613D01*
X137821628Y-123964155D01*
X137192364Y-124592321D01*
X136851389Y-125413481D01*
X136850613Y-126302619D01*
X131566919Y-126302619D01*
X131449567Y-126195505D01*
X131527917Y-126180762D01*
X131744041Y-126041690D01*
X131889031Y-125829490D01*
X131940040Y-125577600D01*
X131940040Y-123850400D01*
X131895762Y-123615083D01*
X131756690Y-123398959D01*
X131544490Y-123253969D01*
X131292600Y-123202960D01*
X129565400Y-123202960D01*
X129330083Y-123247238D01*
X129113959Y-123386310D01*
X128968969Y-123598510D01*
X128960136Y-123642131D01*
X128948670Y-123624971D01*
X128462489Y-123300115D01*
X127889000Y-123186041D01*
X127315511Y-123300115D01*
X126829330Y-123624971D01*
X126619000Y-123939752D01*
X126408670Y-123624971D01*
X125922489Y-123300115D01*
X125349000Y-123186041D01*
X124775511Y-123300115D01*
X124289330Y-123624971D01*
X123964474Y-124111152D01*
X123850400Y-124684641D01*
X93420000Y-124684641D01*
X93420000Y-121360000D01*
X143202000Y-121360000D01*
X143202000Y-129540000D01*
M02*
