G04 #@! TF.FileFunction,Soldermask,Top*
%FSLAX46Y46*%
G04 Gerber Fmt 4.6, Leading zero omitted, Abs format (unit mm)*
G04 Created by KiCad (PCBNEW 4.0.2-4+6225~38~ubuntu14.04.1-stable) date Thu 05 Jan 2017 08:44:10 PM CET*
%MOMM*%
G01*
G04 APERTURE LIST*
%ADD10C,0.100000*%
%ADD11C,1.500000*%
%ADD12R,1.500000X0.600000*%
%ADD13R,1.300000X0.700000*%
%ADD14R,1.198880X1.198880*%
%ADD15R,1.250000X1.000000*%
%ADD16R,1.000000X1.250000*%
%ADD17R,1.000000X2.500000*%
%ADD18R,2.032000X2.032000*%
%ADD19O,2.032000X2.032000*%
%ADD20R,1.727200X1.727200*%
%ADD21O,1.727200X1.727200*%
%ADD22R,0.800000X0.900000*%
%ADD23R,0.700000X1.300000*%
%ADD24R,1.600000X1.000000*%
%ADD25R,6.700000X6.700000*%
%ADD26R,1.600000X3.000000*%
%ADD27R,0.740000X1.190000*%
%ADD28R,2.235200X2.235200*%
%ADD29R,1.000000X1.600000*%
%ADD30C,3.200000*%
%ADD31R,2.000000X1.700000*%
%ADD32R,1.700000X1.700000*%
%ADD33O,1.700000X1.700000*%
G04 APERTURE END LIST*
D10*
D11*
X104521000Y-135382000D03*
D12*
X114460000Y-149225000D03*
X114460000Y-147955000D03*
X114460000Y-146685000D03*
X114460000Y-145415000D03*
X114460000Y-144145000D03*
X114460000Y-142875000D03*
X114460000Y-141605000D03*
X109060000Y-141605000D03*
X109060000Y-142875000D03*
X109060000Y-144145000D03*
X109060000Y-145415000D03*
X109060000Y-146685000D03*
X109060000Y-147955000D03*
X109060000Y-149225000D03*
D13*
X116713000Y-169992000D03*
X116713000Y-171892000D03*
D14*
X116713000Y-173575980D03*
X116713000Y-175674020D03*
D15*
X114300000Y-150892000D03*
X114300000Y-152892000D03*
D16*
X102886000Y-169799000D03*
X104886000Y-169799000D03*
D17*
X95337500Y-167322500D03*
X98337500Y-167322500D03*
X95972500Y-158432500D03*
X98972500Y-158432500D03*
D15*
X132969000Y-163941000D03*
X132969000Y-161941000D03*
X133350000Y-155940000D03*
X133350000Y-153940000D03*
X133350000Y-147939000D03*
X133350000Y-145939000D03*
D14*
X110617000Y-173702980D03*
X110617000Y-175801020D03*
X113665000Y-173702980D03*
X113665000Y-175801020D03*
X125857000Y-173575980D03*
X125857000Y-175674020D03*
X128905000Y-173575980D03*
X128905000Y-175674020D03*
X132080000Y-173575980D03*
X132080000Y-175674020D03*
D18*
X98679000Y-175768000D03*
D19*
X96139000Y-175768000D03*
D18*
X148031200Y-131775200D03*
D19*
X150571200Y-131775200D03*
D20*
X130429000Y-124714000D03*
D21*
X130429000Y-127254000D03*
X127889000Y-124714000D03*
X127889000Y-127254000D03*
X125349000Y-124714000D03*
X125349000Y-127254000D03*
D22*
X129855000Y-165243000D03*
X127955000Y-165243000D03*
X128905000Y-167243000D03*
X129855000Y-157369000D03*
X127955000Y-157369000D03*
X128905000Y-159369000D03*
X129855000Y-149241000D03*
X127955000Y-149241000D03*
X128905000Y-151241000D03*
D23*
X118176000Y-147574000D03*
X120076000Y-147574000D03*
X136205000Y-138684000D03*
X134305000Y-138684000D03*
X136205000Y-141224000D03*
X134305000Y-141224000D03*
X140401000Y-131191000D03*
X142301000Y-131191000D03*
X140401000Y-133477000D03*
X142301000Y-133477000D03*
D13*
X100012500Y-164462500D03*
X100012500Y-162562500D03*
X110617000Y-169992000D03*
X110617000Y-171892000D03*
X113665000Y-169992000D03*
X113665000Y-171892000D03*
X124460000Y-163261000D03*
X124460000Y-165161000D03*
X124714000Y-155260000D03*
X124714000Y-157160000D03*
X124587000Y-147259000D03*
X124587000Y-149159000D03*
X125857000Y-171892000D03*
X125857000Y-169992000D03*
X128905000Y-171892000D03*
X128905000Y-169992000D03*
X132080000Y-171765000D03*
X132080000Y-169865000D03*
X135382000Y-165161000D03*
X135382000Y-163261000D03*
X135636000Y-157287000D03*
X135636000Y-155387000D03*
X135636000Y-149159000D03*
X135636000Y-147259000D03*
D24*
X121564000Y-127884000D03*
X115164000Y-127884000D03*
X121564000Y-124084000D03*
X115164000Y-124084000D03*
D11*
X138938000Y-135280400D03*
X138938000Y-138684000D03*
X138938000Y-141224000D03*
X94234000Y-154686000D03*
X138938000Y-165227000D03*
X138938000Y-157226000D03*
X138938000Y-149225000D03*
D25*
X105918000Y-164592000D03*
D26*
X103618000Y-157942000D03*
X108218000Y-157942000D03*
D27*
X95887500Y-161527500D03*
X97787500Y-161527500D03*
X96837500Y-164227500D03*
X95887500Y-164227500D03*
X97787500Y-164227500D03*
D14*
X119761000Y-173575980D03*
X119761000Y-175674020D03*
X122809000Y-173575980D03*
X122809000Y-175674020D03*
D13*
X119761000Y-169992000D03*
X119761000Y-171892000D03*
X122809000Y-169992000D03*
X122809000Y-171892000D03*
D28*
X96266000Y-171831000D03*
D11*
X99441000Y-135382000D03*
X101981000Y-135382000D03*
D29*
X104545000Y-154305000D03*
X107545000Y-154305000D03*
D30*
X139086000Y-125860000D03*
X139086000Y-173860000D03*
D16*
X118380000Y-145415000D03*
X120380000Y-145415000D03*
D31*
X146812000Y-141224000D03*
X146812000Y-138724000D03*
X146812000Y-136224000D03*
X146812000Y-144224000D03*
X146812000Y-146724000D03*
X146812000Y-149224000D03*
X146812000Y-152224000D03*
X146812000Y-154724000D03*
X146812000Y-157224000D03*
X146812000Y-160224000D03*
X146812000Y-162724000D03*
X146812000Y-165224000D03*
D32*
X96520000Y-132207000D03*
D33*
X99060000Y-132207000D03*
X101600000Y-132207000D03*
X104140000Y-132207000D03*
X106680000Y-132207000D03*
X109220000Y-132207000D03*
X111760000Y-132207000D03*
X114300000Y-132207000D03*
D11*
X106680000Y-135382000D03*
X109220000Y-135382000D03*
M02*
