G04 #@! TF.FileFunction,Paste,Top*
%FSLAX46Y46*%
G04 Gerber Fmt 4.6, Leading zero omitted, Abs format (unit mm)*
G04 Created by KiCad (PCBNEW 4.0.2-4+6225~38~ubuntu14.04.1-stable) date Thu 05 Jan 2017 08:44:10 PM CET*
%MOMM*%
G01*
G04 APERTURE LIST*
%ADD10C,0.100000*%
%ADD11R,1.550800X0.650800*%
%ADD12R,1.350800X0.750800*%
%ADD13R,1.249680X1.249680*%
%ADD14R,1.300800X1.050800*%
%ADD15R,1.050800X1.300800*%
%ADD16R,1.050800X2.550800*%
%ADD17R,0.850800X0.950800*%
%ADD18R,0.750800X1.350800*%
%ADD19R,1.650800X1.050800*%
%ADD20R,6.750800X6.750800*%
%ADD21R,1.650800X3.050800*%
%ADD22R,0.790800X1.240800*%
%ADD23R,1.050800X1.650800*%
G04 APERTURE END LIST*
D10*
D11*
X114460000Y-149225000D03*
X114460000Y-147955000D03*
X114460000Y-146685000D03*
X114460000Y-145415000D03*
X114460000Y-144145000D03*
X114460000Y-142875000D03*
X114460000Y-141605000D03*
X109060000Y-141605000D03*
X109060000Y-142875000D03*
X109060000Y-144145000D03*
X109060000Y-145415000D03*
X109060000Y-146685000D03*
X109060000Y-147955000D03*
X109060000Y-149225000D03*
D12*
X116713000Y-169992000D03*
X116713000Y-171892000D03*
D13*
X116713000Y-173575980D03*
X116713000Y-175674020D03*
D14*
X114300000Y-150892000D03*
X114300000Y-152892000D03*
D15*
X102886000Y-169799000D03*
X104886000Y-169799000D03*
D16*
X95337500Y-167322500D03*
X98337500Y-167322500D03*
X95972500Y-158432500D03*
X98972500Y-158432500D03*
D14*
X132969000Y-163941000D03*
X132969000Y-161941000D03*
X133350000Y-155940000D03*
X133350000Y-153940000D03*
X133350000Y-147939000D03*
X133350000Y-145939000D03*
D13*
X110617000Y-173702980D03*
X110617000Y-175801020D03*
X113665000Y-173702980D03*
X113665000Y-175801020D03*
X125857000Y-173575980D03*
X125857000Y-175674020D03*
X128905000Y-173575980D03*
X128905000Y-175674020D03*
X132080000Y-173575980D03*
X132080000Y-175674020D03*
D17*
X129855000Y-165243000D03*
X127955000Y-165243000D03*
X128905000Y-167243000D03*
X129855000Y-157369000D03*
X127955000Y-157369000D03*
X128905000Y-159369000D03*
X129855000Y-149241000D03*
X127955000Y-149241000D03*
X128905000Y-151241000D03*
D18*
X118176000Y-147574000D03*
X120076000Y-147574000D03*
X136205000Y-138684000D03*
X134305000Y-138684000D03*
X136205000Y-141224000D03*
X134305000Y-141224000D03*
X140401000Y-131191000D03*
X142301000Y-131191000D03*
X140401000Y-133477000D03*
X142301000Y-133477000D03*
D12*
X100012500Y-164462500D03*
X100012500Y-162562500D03*
X110617000Y-169992000D03*
X110617000Y-171892000D03*
X113665000Y-169992000D03*
X113665000Y-171892000D03*
X124460000Y-163261000D03*
X124460000Y-165161000D03*
X124714000Y-155260000D03*
X124714000Y-157160000D03*
X124587000Y-147259000D03*
X124587000Y-149159000D03*
X125857000Y-171892000D03*
X125857000Y-169992000D03*
X128905000Y-171892000D03*
X128905000Y-169992000D03*
X132080000Y-171765000D03*
X132080000Y-169865000D03*
X135382000Y-165161000D03*
X135382000Y-163261000D03*
X135636000Y-157287000D03*
X135636000Y-155387000D03*
X135636000Y-149159000D03*
X135636000Y-147259000D03*
D19*
X121564000Y-127884000D03*
X115164000Y-127884000D03*
X121564000Y-124084000D03*
X115164000Y-124084000D03*
D20*
X105918000Y-164592000D03*
D21*
X103618000Y-157942000D03*
X108218000Y-157942000D03*
D22*
X95887500Y-161527500D03*
X97787500Y-161527500D03*
X96837500Y-164227500D03*
X95887500Y-164227500D03*
X97787500Y-164227500D03*
D13*
X119761000Y-173575980D03*
X119761000Y-175674020D03*
X122809000Y-173575980D03*
X122809000Y-175674020D03*
D12*
X119761000Y-169992000D03*
X119761000Y-171892000D03*
X122809000Y-169992000D03*
X122809000Y-171892000D03*
D23*
X104545000Y-154305000D03*
X107545000Y-154305000D03*
D15*
X118380000Y-145415000D03*
X120380000Y-145415000D03*
M02*
