G04 #@! TF.FileFunction,Copper,L4,Bot,Signal*
%FSLAX46Y46*%
G04 Gerber Fmt 4.6, Leading zero omitted, Abs format (unit mm)*
G04 Created by KiCad (PCBNEW 4.0.2-4+6225~38~ubuntu14.04.1-stable) date Thu 05 Jan 2017 08:44:10 PM CET*
%MOMM*%
G01*
G04 APERTURE LIST*
%ADD10C,0.100000*%
%ADD11R,2.032000X2.032000*%
%ADD12O,2.032000X2.032000*%
%ADD13R,1.727200X1.727200*%
%ADD14O,1.727200X1.727200*%
%ADD15R,2.235200X2.235200*%
%ADD16R,2.000000X1.700000*%
%ADD17R,1.700000X1.700000*%
%ADD18O,1.700000X1.700000*%
%ADD19C,0.685800*%
%ADD20C,0.152400*%
%ADD21C,0.304800*%
%ADD22C,0.609600*%
G04 APERTURE END LIST*
D10*
D11*
X98679000Y-175768000D03*
D12*
X96139000Y-175768000D03*
D11*
X148031200Y-131775200D03*
D12*
X150571200Y-131775200D03*
D13*
X130429000Y-124714000D03*
D14*
X130429000Y-127254000D03*
X127889000Y-124714000D03*
X127889000Y-127254000D03*
X125349000Y-124714000D03*
X125349000Y-127254000D03*
D15*
X96266000Y-171831000D03*
D16*
X146812000Y-141224000D03*
X146812000Y-138724000D03*
X146812000Y-136224000D03*
X146812000Y-144224000D03*
X146812000Y-146724000D03*
X146812000Y-149224000D03*
X146812000Y-152224000D03*
X146812000Y-154724000D03*
X146812000Y-157224000D03*
X146812000Y-160224000D03*
X146812000Y-162724000D03*
X146812000Y-165224000D03*
D17*
X96520000Y-132207000D03*
D18*
X99060000Y-132207000D03*
X101600000Y-132207000D03*
X104140000Y-132207000D03*
X106680000Y-132207000D03*
X109220000Y-132207000D03*
X111760000Y-132207000D03*
X114300000Y-132207000D03*
D19*
X128905000Y-168783000D03*
X127762000Y-160020000D03*
X132207000Y-168656000D03*
X127762000Y-151892000D03*
X116484400Y-146659600D03*
X107569000Y-145415000D03*
X107569000Y-146685000D03*
X107569000Y-147955000D03*
X135128000Y-154051000D03*
X135128000Y-145923000D03*
X110617000Y-168783000D03*
X135128000Y-161798000D03*
X100965000Y-158115000D03*
X94361000Y-165227000D03*
X99822000Y-161290000D03*
X130683000Y-160020000D03*
X130683000Y-152019000D03*
X113665000Y-168783000D03*
X130683000Y-168021000D03*
X115824000Y-150876000D03*
X96266000Y-155067000D03*
X94488000Y-160655000D03*
X121412000Y-147574000D03*
X117094000Y-144526000D03*
X116078000Y-148793200D03*
X112903000Y-141605000D03*
X124866400Y-139090400D03*
D20*
X128905000Y-168783000D02*
X128905000Y-164338000D01*
X128905000Y-161163000D02*
X127762000Y-160020000D01*
X128905000Y-164338000D02*
X128905000Y-161163000D01*
X132207000Y-168656000D02*
X132207000Y-162560000D01*
X132207000Y-156337000D02*
X127762000Y-151892000D01*
X132207000Y-162560000D02*
X132207000Y-156337000D01*
D21*
X127889000Y-127254000D02*
X125806200Y-129336800D01*
X117602000Y-146659600D02*
X116484400Y-146659600D01*
X118516400Y-145745200D02*
X117602000Y-146659600D01*
X118516400Y-144881600D02*
X118516400Y-145745200D01*
X116992400Y-143357600D02*
X118516400Y-144881600D01*
X116992400Y-133908800D02*
X116992400Y-143357600D01*
X121564400Y-129336800D02*
X116992400Y-133908800D01*
X125806200Y-129336800D02*
X121564400Y-129336800D01*
D20*
X127889000Y-127254000D02*
X127660400Y-127254000D01*
D21*
X104521000Y-142367000D02*
X107569000Y-145415000D01*
X104521000Y-141732000D02*
X104521000Y-142367000D01*
X104521000Y-132207000D02*
X104521000Y-141732000D01*
X101981000Y-132207000D02*
X104013000Y-134239000D01*
X104013000Y-134239000D02*
X104013000Y-143129000D01*
X104013000Y-143129000D02*
X107569000Y-146685000D01*
X107569000Y-147955000D02*
X103378000Y-143764000D01*
X103378000Y-136144000D02*
X99441000Y-132207000D01*
X103378000Y-143764000D02*
X103378000Y-136144000D01*
D22*
X94361000Y-165227000D02*
X94361000Y-165354000D01*
X99822000Y-161290000D02*
X99822000Y-161417000D01*
X94488000Y-160655000D02*
X94488000Y-160782000D01*
D21*
X116459000Y-133604000D02*
X125349000Y-124714000D01*
X116459000Y-143891000D02*
X116459000Y-133604000D01*
X117094000Y-144526000D02*
X116459000Y-143891000D01*
D20*
X116078000Y-148793200D02*
X130708400Y-134162800D01*
X130708400Y-134162800D02*
X149656800Y-134162800D01*
X149656800Y-134162800D02*
X150571200Y-133248400D01*
X150571200Y-133248400D02*
X150571200Y-131775200D01*
X150571200Y-131775200D02*
X150571200Y-132334000D01*
X106680000Y-135382000D02*
X112903000Y-141605000D01*
X106680000Y-132207000D02*
X106680000Y-135382000D01*
X146151600Y-133654800D02*
X148031200Y-131775200D01*
X130302000Y-133654800D02*
X146151600Y-133654800D01*
X124866400Y-139090400D02*
X130302000Y-133654800D01*
G36*
X143608400Y-129540000D02*
X143631510Y-129656183D01*
X143697322Y-129754678D01*
X143795817Y-129820490D01*
X143912000Y-129843600D01*
X154636400Y-129843600D01*
X154636400Y-169876400D01*
X143912000Y-169876400D01*
X143795817Y-169899510D01*
X143697322Y-169965322D01*
X143631510Y-170063817D01*
X143608400Y-170180000D01*
X143608400Y-178766400D01*
X93013600Y-178766400D01*
X93013600Y-176192389D01*
X94596089Y-176192389D01*
X94875943Y-176750531D01*
X95348086Y-177159091D01*
X95714613Y-177310899D01*
X95961200Y-177211239D01*
X95961200Y-175945800D01*
X94694746Y-175945800D01*
X94596089Y-176192389D01*
X93013600Y-176192389D01*
X93013600Y-175343611D01*
X94596089Y-175343611D01*
X94694746Y-175590200D01*
X95961200Y-175590200D01*
X95961200Y-174324761D01*
X96316800Y-174324761D01*
X96316800Y-175590200D01*
X96336800Y-175590200D01*
X96336800Y-175945800D01*
X96316800Y-175945800D01*
X96316800Y-177211239D01*
X96563387Y-177310899D01*
X96929914Y-177159091D01*
X97402057Y-176750531D01*
X97429922Y-176694957D01*
X97429922Y-176784000D01*
X97445862Y-176868714D01*
X97495928Y-176946518D01*
X97572320Y-176998715D01*
X97663000Y-177017078D01*
X99695000Y-177017078D01*
X99779714Y-177001138D01*
X99857518Y-176951072D01*
X99909715Y-176874680D01*
X99928078Y-176784000D01*
X99928078Y-174752000D01*
X99912138Y-174667286D01*
X99862072Y-174589482D01*
X99785680Y-174537285D01*
X99695000Y-174518922D01*
X97663000Y-174518922D01*
X97578286Y-174534862D01*
X97500482Y-174584928D01*
X97448285Y-174661320D01*
X97429922Y-174752000D01*
X97429922Y-174841043D01*
X97402057Y-174785469D01*
X96929914Y-174376909D01*
X96563387Y-174225101D01*
X96316800Y-174324761D01*
X95961200Y-174324761D01*
X95714613Y-174225101D01*
X95348086Y-174376909D01*
X94875943Y-174785469D01*
X94596089Y-175343611D01*
X93013600Y-175343611D01*
X93013600Y-174222135D01*
X137257084Y-174222135D01*
X137534885Y-174894465D01*
X138048829Y-175409307D01*
X138720673Y-175688282D01*
X139448135Y-175688916D01*
X140120465Y-175411115D01*
X140635307Y-174897171D01*
X140914282Y-174225327D01*
X140914916Y-173497865D01*
X140637115Y-172825535D01*
X140123171Y-172310693D01*
X139451327Y-172031718D01*
X138723865Y-172031084D01*
X138051535Y-172308885D01*
X137536693Y-172822829D01*
X137257718Y-173494673D01*
X137257084Y-174222135D01*
X93013600Y-174222135D01*
X93013600Y-170713400D01*
X94915322Y-170713400D01*
X94915322Y-172948600D01*
X94931262Y-173033314D01*
X94981328Y-173111118D01*
X95057720Y-173163315D01*
X95148400Y-173181678D01*
X97383600Y-173181678D01*
X97468314Y-173165738D01*
X97546118Y-173115672D01*
X97598315Y-173039280D01*
X97616678Y-172948600D01*
X97616678Y-170713400D01*
X97600738Y-170628686D01*
X97550672Y-170550882D01*
X97474280Y-170498685D01*
X97383600Y-170480322D01*
X95148400Y-170480322D01*
X95063686Y-170496262D01*
X94985882Y-170546328D01*
X94933685Y-170622720D01*
X94915322Y-170713400D01*
X93013600Y-170713400D01*
X93013600Y-168896180D01*
X110045401Y-168896180D01*
X110132224Y-169106306D01*
X110292849Y-169267211D01*
X110502823Y-169354400D01*
X110730180Y-169354599D01*
X110940306Y-169267776D01*
X111101211Y-169107151D01*
X111188400Y-168897177D01*
X111188400Y-168896180D01*
X113093401Y-168896180D01*
X113180224Y-169106306D01*
X113340849Y-169267211D01*
X113550823Y-169354400D01*
X113778180Y-169354599D01*
X113988306Y-169267776D01*
X114149211Y-169107151D01*
X114236400Y-168897177D01*
X114236599Y-168669820D01*
X114149776Y-168459694D01*
X113989151Y-168298789D01*
X113779177Y-168211600D01*
X113551820Y-168211401D01*
X113341694Y-168298224D01*
X113180789Y-168458849D01*
X113093600Y-168668823D01*
X113093401Y-168896180D01*
X111188400Y-168896180D01*
X111188599Y-168669820D01*
X111101776Y-168459694D01*
X110941151Y-168298789D01*
X110731177Y-168211600D01*
X110503820Y-168211401D01*
X110293694Y-168298224D01*
X110132789Y-168458849D01*
X110045600Y-168668823D01*
X110045401Y-168896180D01*
X93013600Y-168896180D01*
X93013600Y-165340180D01*
X93789401Y-165340180D01*
X93857759Y-165505617D01*
X93868203Y-165558123D01*
X93983829Y-165731171D01*
X94156877Y-165846797D01*
X94361000Y-165887400D01*
X94565123Y-165846797D01*
X94738171Y-165731171D01*
X94853797Y-165558123D01*
X94864354Y-165505049D01*
X94932400Y-165341177D01*
X94932599Y-165113820D01*
X94845776Y-164903694D01*
X94685151Y-164742789D01*
X94475177Y-164655600D01*
X94247820Y-164655401D01*
X94037694Y-164742224D01*
X93876789Y-164902849D01*
X93789600Y-165112823D01*
X93789401Y-165340180D01*
X93013600Y-165340180D01*
X93013600Y-161403180D01*
X99250401Y-161403180D01*
X99318759Y-161568617D01*
X99329203Y-161621123D01*
X99444829Y-161794171D01*
X99617877Y-161909797D01*
X99822000Y-161950400D01*
X100026123Y-161909797D01*
X100199171Y-161794171D01*
X100314797Y-161621123D01*
X100325354Y-161568049D01*
X100393400Y-161404177D01*
X100393599Y-161176820D01*
X100306776Y-160966694D01*
X100146151Y-160805789D01*
X99936177Y-160718600D01*
X99708820Y-160718401D01*
X99498694Y-160805224D01*
X99337789Y-160965849D01*
X99250600Y-161175823D01*
X99250401Y-161403180D01*
X93013600Y-161403180D01*
X93013600Y-160768180D01*
X93916401Y-160768180D01*
X93984759Y-160933617D01*
X93995203Y-160986123D01*
X94110829Y-161159171D01*
X94283877Y-161274797D01*
X94488000Y-161315400D01*
X94692123Y-161274797D01*
X94865171Y-161159171D01*
X94980797Y-160986123D01*
X94991354Y-160933049D01*
X95059400Y-160769177D01*
X95059599Y-160541820D01*
X94972776Y-160331694D01*
X94812151Y-160170789D01*
X94721579Y-160133180D01*
X127190401Y-160133180D01*
X127277224Y-160343306D01*
X127437849Y-160504211D01*
X127647823Y-160591400D01*
X127875180Y-160591599D01*
X127894545Y-160583597D01*
X128600200Y-161289252D01*
X128600200Y-168290577D01*
X128581694Y-168298224D01*
X128420789Y-168458849D01*
X128333600Y-168668823D01*
X128333401Y-168896180D01*
X128420224Y-169106306D01*
X128580849Y-169267211D01*
X128790823Y-169354400D01*
X129018180Y-169354599D01*
X129228306Y-169267776D01*
X129389211Y-169107151D01*
X129476400Y-168897177D01*
X129476599Y-168669820D01*
X129389776Y-168459694D01*
X129229151Y-168298789D01*
X129209800Y-168290754D01*
X129209800Y-168134180D01*
X130111401Y-168134180D01*
X130198224Y-168344306D01*
X130358849Y-168505211D01*
X130568823Y-168592400D01*
X130796180Y-168592599D01*
X131006306Y-168505776D01*
X131167211Y-168345151D01*
X131254400Y-168135177D01*
X131254599Y-167907820D01*
X131167776Y-167697694D01*
X131007151Y-167536789D01*
X130797177Y-167449600D01*
X130569820Y-167449401D01*
X130359694Y-167536224D01*
X130198789Y-167696849D01*
X130111600Y-167906823D01*
X130111401Y-168134180D01*
X129209800Y-168134180D01*
X129209800Y-161163000D01*
X129186598Y-161046358D01*
X129120526Y-160947474D01*
X128325721Y-160152669D01*
X128333400Y-160134177D01*
X128333400Y-160133180D01*
X130111401Y-160133180D01*
X130198224Y-160343306D01*
X130358849Y-160504211D01*
X130568823Y-160591400D01*
X130796180Y-160591599D01*
X131006306Y-160504776D01*
X131167211Y-160344151D01*
X131254400Y-160134177D01*
X131254599Y-159906820D01*
X131167776Y-159696694D01*
X131007151Y-159535789D01*
X130797177Y-159448600D01*
X130569820Y-159448401D01*
X130359694Y-159535224D01*
X130198789Y-159695849D01*
X130111600Y-159905823D01*
X130111401Y-160133180D01*
X128333400Y-160133180D01*
X128333599Y-159906820D01*
X128246776Y-159696694D01*
X128086151Y-159535789D01*
X127876177Y-159448600D01*
X127648820Y-159448401D01*
X127438694Y-159535224D01*
X127277789Y-159695849D01*
X127190600Y-159905823D01*
X127190401Y-160133180D01*
X94721579Y-160133180D01*
X94602177Y-160083600D01*
X94374820Y-160083401D01*
X94164694Y-160170224D01*
X94003789Y-160330849D01*
X93916600Y-160540823D01*
X93916401Y-160768180D01*
X93013600Y-160768180D01*
X93013600Y-158228180D01*
X100393401Y-158228180D01*
X100480224Y-158438306D01*
X100640849Y-158599211D01*
X100850823Y-158686400D01*
X101078180Y-158686599D01*
X101288306Y-158599776D01*
X101449211Y-158439151D01*
X101536400Y-158229177D01*
X101536599Y-158001820D01*
X101449776Y-157791694D01*
X101289151Y-157630789D01*
X101079177Y-157543600D01*
X100851820Y-157543401D01*
X100641694Y-157630224D01*
X100480789Y-157790849D01*
X100393600Y-158000823D01*
X100393401Y-158228180D01*
X93013600Y-158228180D01*
X93013600Y-155180180D01*
X95694401Y-155180180D01*
X95781224Y-155390306D01*
X95941849Y-155551211D01*
X96151823Y-155638400D01*
X96379180Y-155638599D01*
X96589306Y-155551776D01*
X96750211Y-155391151D01*
X96837400Y-155181177D01*
X96837599Y-154953820D01*
X96750776Y-154743694D01*
X96590151Y-154582789D01*
X96380177Y-154495600D01*
X96152820Y-154495401D01*
X95942694Y-154582224D01*
X95781789Y-154742849D01*
X95694600Y-154952823D01*
X95694401Y-155180180D01*
X93013600Y-155180180D01*
X93013600Y-152005180D01*
X127190401Y-152005180D01*
X127277224Y-152215306D01*
X127437849Y-152376211D01*
X127647823Y-152463400D01*
X127875180Y-152463599D01*
X127894545Y-152455597D01*
X131902200Y-156463252D01*
X131902200Y-168163577D01*
X131883694Y-168171224D01*
X131722789Y-168331849D01*
X131635600Y-168541823D01*
X131635401Y-168769180D01*
X131722224Y-168979306D01*
X131882849Y-169140211D01*
X132092823Y-169227400D01*
X132320180Y-169227599D01*
X132530306Y-169140776D01*
X132691211Y-168980151D01*
X132778400Y-168770177D01*
X132778599Y-168542820D01*
X132691776Y-168332694D01*
X132531151Y-168171789D01*
X132511800Y-168163754D01*
X132511800Y-163047850D01*
X145227800Y-163047850D01*
X145227800Y-163690204D01*
X145316739Y-163904922D01*
X145481077Y-164069261D01*
X145695795Y-164158200D01*
X145725207Y-164158200D01*
X145649482Y-164206928D01*
X145597285Y-164283320D01*
X145578922Y-164374000D01*
X145578922Y-166074000D01*
X145594862Y-166158714D01*
X145644928Y-166236518D01*
X145721320Y-166288715D01*
X145812000Y-166307078D01*
X147812000Y-166307078D01*
X147896714Y-166291138D01*
X147974518Y-166241072D01*
X148026715Y-166164680D01*
X148045078Y-166074000D01*
X148045078Y-164374000D01*
X148029138Y-164289286D01*
X147979072Y-164211482D01*
X147902680Y-164159285D01*
X147897322Y-164158200D01*
X147928205Y-164158200D01*
X148142923Y-164069261D01*
X148307261Y-163904922D01*
X148396200Y-163690204D01*
X148396200Y-163047850D01*
X148250150Y-162901800D01*
X146989800Y-162901800D01*
X146989800Y-162921800D01*
X146634200Y-162921800D01*
X146634200Y-162901800D01*
X145373850Y-162901800D01*
X145227800Y-163047850D01*
X132511800Y-163047850D01*
X132511800Y-161911180D01*
X134556401Y-161911180D01*
X134643224Y-162121306D01*
X134803849Y-162282211D01*
X135013823Y-162369400D01*
X135241180Y-162369599D01*
X135451306Y-162282776D01*
X135612211Y-162122151D01*
X135699400Y-161912177D01*
X135699535Y-161757796D01*
X145227800Y-161757796D01*
X145227800Y-162400150D01*
X145373850Y-162546200D01*
X146634200Y-162546200D01*
X146634200Y-162526200D01*
X146989800Y-162526200D01*
X146989800Y-162546200D01*
X148250150Y-162546200D01*
X148396200Y-162400150D01*
X148396200Y-161757796D01*
X148307261Y-161543078D01*
X148142923Y-161378739D01*
X147928205Y-161289800D01*
X147898793Y-161289800D01*
X147974518Y-161241072D01*
X148026715Y-161164680D01*
X148045078Y-161074000D01*
X148045078Y-159374000D01*
X148029138Y-159289286D01*
X147979072Y-159211482D01*
X147902680Y-159159285D01*
X147812000Y-159140922D01*
X145812000Y-159140922D01*
X145727286Y-159156862D01*
X145649482Y-159206928D01*
X145597285Y-159283320D01*
X145578922Y-159374000D01*
X145578922Y-161074000D01*
X145594862Y-161158714D01*
X145644928Y-161236518D01*
X145721320Y-161288715D01*
X145726678Y-161289800D01*
X145695795Y-161289800D01*
X145481077Y-161378739D01*
X145316739Y-161543078D01*
X145227800Y-161757796D01*
X135699535Y-161757796D01*
X135699599Y-161684820D01*
X135612776Y-161474694D01*
X135452151Y-161313789D01*
X135242177Y-161226600D01*
X135014820Y-161226401D01*
X134804694Y-161313224D01*
X134643789Y-161473849D01*
X134556600Y-161683823D01*
X134556401Y-161911180D01*
X132511800Y-161911180D01*
X132511800Y-156337000D01*
X132488598Y-156220358D01*
X132422526Y-156121474D01*
X131348902Y-155047850D01*
X145227800Y-155047850D01*
X145227800Y-155690204D01*
X145316739Y-155904922D01*
X145481077Y-156069261D01*
X145695795Y-156158200D01*
X145725207Y-156158200D01*
X145649482Y-156206928D01*
X145597285Y-156283320D01*
X145578922Y-156374000D01*
X145578922Y-158074000D01*
X145594862Y-158158714D01*
X145644928Y-158236518D01*
X145721320Y-158288715D01*
X145812000Y-158307078D01*
X147812000Y-158307078D01*
X147896714Y-158291138D01*
X147974518Y-158241072D01*
X148026715Y-158164680D01*
X148045078Y-158074000D01*
X148045078Y-156374000D01*
X148029138Y-156289286D01*
X147979072Y-156211482D01*
X147902680Y-156159285D01*
X147897322Y-156158200D01*
X147928205Y-156158200D01*
X148142923Y-156069261D01*
X148307261Y-155904922D01*
X148396200Y-155690204D01*
X148396200Y-155047850D01*
X148250150Y-154901800D01*
X146989800Y-154901800D01*
X146989800Y-154921800D01*
X146634200Y-154921800D01*
X146634200Y-154901800D01*
X145373850Y-154901800D01*
X145227800Y-155047850D01*
X131348902Y-155047850D01*
X130465232Y-154164180D01*
X134556401Y-154164180D01*
X134643224Y-154374306D01*
X134803849Y-154535211D01*
X135013823Y-154622400D01*
X135241180Y-154622599D01*
X135451306Y-154535776D01*
X135612211Y-154375151D01*
X135699400Y-154165177D01*
X135699599Y-153937820D01*
X135625214Y-153757796D01*
X145227800Y-153757796D01*
X145227800Y-154400150D01*
X145373850Y-154546200D01*
X146634200Y-154546200D01*
X146634200Y-154526200D01*
X146989800Y-154526200D01*
X146989800Y-154546200D01*
X148250150Y-154546200D01*
X148396200Y-154400150D01*
X148396200Y-153757796D01*
X148307261Y-153543078D01*
X148142923Y-153378739D01*
X147928205Y-153289800D01*
X147898793Y-153289800D01*
X147974518Y-153241072D01*
X148026715Y-153164680D01*
X148045078Y-153074000D01*
X148045078Y-151374000D01*
X148029138Y-151289286D01*
X147979072Y-151211482D01*
X147902680Y-151159285D01*
X147812000Y-151140922D01*
X145812000Y-151140922D01*
X145727286Y-151156862D01*
X145649482Y-151206928D01*
X145597285Y-151283320D01*
X145578922Y-151374000D01*
X145578922Y-153074000D01*
X145594862Y-153158714D01*
X145644928Y-153236518D01*
X145721320Y-153288715D01*
X145726678Y-153289800D01*
X145695795Y-153289800D01*
X145481077Y-153378739D01*
X145316739Y-153543078D01*
X145227800Y-153757796D01*
X135625214Y-153757796D01*
X135612776Y-153727694D01*
X135452151Y-153566789D01*
X135242177Y-153479600D01*
X135014820Y-153479401D01*
X134804694Y-153566224D01*
X134643789Y-153726849D01*
X134556600Y-153936823D01*
X134556401Y-154164180D01*
X130465232Y-154164180D01*
X128433232Y-152132180D01*
X130111401Y-152132180D01*
X130198224Y-152342306D01*
X130358849Y-152503211D01*
X130568823Y-152590400D01*
X130796180Y-152590599D01*
X131006306Y-152503776D01*
X131167211Y-152343151D01*
X131254400Y-152133177D01*
X131254599Y-151905820D01*
X131167776Y-151695694D01*
X131007151Y-151534789D01*
X130797177Y-151447600D01*
X130569820Y-151447401D01*
X130359694Y-151534224D01*
X130198789Y-151694849D01*
X130111600Y-151904823D01*
X130111401Y-152132180D01*
X128433232Y-152132180D01*
X128325721Y-152024669D01*
X128333400Y-152006177D01*
X128333599Y-151778820D01*
X128246776Y-151568694D01*
X128086151Y-151407789D01*
X127876177Y-151320600D01*
X127648820Y-151320401D01*
X127438694Y-151407224D01*
X127277789Y-151567849D01*
X127190600Y-151777823D01*
X127190401Y-152005180D01*
X93013600Y-152005180D01*
X93013600Y-150989180D01*
X115252401Y-150989180D01*
X115339224Y-151199306D01*
X115499849Y-151360211D01*
X115709823Y-151447400D01*
X115937180Y-151447599D01*
X116147306Y-151360776D01*
X116308211Y-151200151D01*
X116395400Y-150990177D01*
X116395599Y-150762820D01*
X116308776Y-150552694D01*
X116148151Y-150391789D01*
X115938177Y-150304600D01*
X115710820Y-150304401D01*
X115500694Y-150391224D01*
X115339789Y-150551849D01*
X115252600Y-150761823D01*
X115252401Y-150989180D01*
X93013600Y-150989180D01*
X93013600Y-148906380D01*
X115506401Y-148906380D01*
X115593224Y-149116506D01*
X115753849Y-149277411D01*
X115963823Y-149364600D01*
X116191180Y-149364799D01*
X116401306Y-149277976D01*
X116562211Y-149117351D01*
X116649400Y-148907377D01*
X116649599Y-148680020D01*
X116641597Y-148660655D01*
X117615072Y-147687180D01*
X120840401Y-147687180D01*
X120927224Y-147897306D01*
X121087849Y-148058211D01*
X121297823Y-148145400D01*
X121525180Y-148145599D01*
X121735306Y-148058776D01*
X121896211Y-147898151D01*
X121983400Y-147688177D01*
X121983599Y-147460820D01*
X121896776Y-147250694D01*
X121736151Y-147089789D01*
X121635151Y-147047850D01*
X145227800Y-147047850D01*
X145227800Y-147690204D01*
X145316739Y-147904922D01*
X145481077Y-148069261D01*
X145695795Y-148158200D01*
X145725207Y-148158200D01*
X145649482Y-148206928D01*
X145597285Y-148283320D01*
X145578922Y-148374000D01*
X145578922Y-150074000D01*
X145594862Y-150158714D01*
X145644928Y-150236518D01*
X145721320Y-150288715D01*
X145812000Y-150307078D01*
X147812000Y-150307078D01*
X147896714Y-150291138D01*
X147974518Y-150241072D01*
X148026715Y-150164680D01*
X148045078Y-150074000D01*
X148045078Y-148374000D01*
X148029138Y-148289286D01*
X147979072Y-148211482D01*
X147902680Y-148159285D01*
X147897322Y-148158200D01*
X147928205Y-148158200D01*
X148142923Y-148069261D01*
X148307261Y-147904922D01*
X148396200Y-147690204D01*
X148396200Y-147047850D01*
X148250150Y-146901800D01*
X146989800Y-146901800D01*
X146989800Y-146921800D01*
X146634200Y-146921800D01*
X146634200Y-146901800D01*
X145373850Y-146901800D01*
X145227800Y-147047850D01*
X121635151Y-147047850D01*
X121526177Y-147002600D01*
X121298820Y-147002401D01*
X121088694Y-147089224D01*
X120927789Y-147249849D01*
X120840600Y-147459823D01*
X120840401Y-147687180D01*
X117615072Y-147687180D01*
X119266072Y-146036180D01*
X134556401Y-146036180D01*
X134643224Y-146246306D01*
X134803849Y-146407211D01*
X135013823Y-146494400D01*
X135241180Y-146494599D01*
X135451306Y-146407776D01*
X135612211Y-146247151D01*
X135699400Y-146037177D01*
X135699599Y-145809820D01*
X135678103Y-145757796D01*
X145227800Y-145757796D01*
X145227800Y-146400150D01*
X145373850Y-146546200D01*
X146634200Y-146546200D01*
X146634200Y-146526200D01*
X146989800Y-146526200D01*
X146989800Y-146546200D01*
X148250150Y-146546200D01*
X148396200Y-146400150D01*
X148396200Y-145757796D01*
X148307261Y-145543078D01*
X148142923Y-145378739D01*
X147928205Y-145289800D01*
X147898793Y-145289800D01*
X147974518Y-145241072D01*
X148026715Y-145164680D01*
X148045078Y-145074000D01*
X148045078Y-143374000D01*
X148029138Y-143289286D01*
X147979072Y-143211482D01*
X147902680Y-143159285D01*
X147812000Y-143140922D01*
X145812000Y-143140922D01*
X145727286Y-143156862D01*
X145649482Y-143206928D01*
X145597285Y-143283320D01*
X145578922Y-143374000D01*
X145578922Y-145074000D01*
X145594862Y-145158714D01*
X145644928Y-145236518D01*
X145721320Y-145288715D01*
X145726678Y-145289800D01*
X145695795Y-145289800D01*
X145481077Y-145378739D01*
X145316739Y-145543078D01*
X145227800Y-145757796D01*
X135678103Y-145757796D01*
X135612776Y-145599694D01*
X135452151Y-145438789D01*
X135242177Y-145351600D01*
X135014820Y-145351401D01*
X134804694Y-145438224D01*
X134643789Y-145598849D01*
X134556600Y-145808823D01*
X134556401Y-146036180D01*
X119266072Y-146036180D01*
X124928252Y-140374000D01*
X145578922Y-140374000D01*
X145578922Y-142074000D01*
X145594862Y-142158714D01*
X145644928Y-142236518D01*
X145721320Y-142288715D01*
X145812000Y-142307078D01*
X147812000Y-142307078D01*
X147896714Y-142291138D01*
X147974518Y-142241072D01*
X148026715Y-142164680D01*
X148045078Y-142074000D01*
X148045078Y-140374000D01*
X148029138Y-140289286D01*
X147979072Y-140211482D01*
X147902680Y-140159285D01*
X147812000Y-140140922D01*
X145812000Y-140140922D01*
X145727286Y-140156862D01*
X145649482Y-140206928D01*
X145597285Y-140283320D01*
X145578922Y-140374000D01*
X124928252Y-140374000D01*
X128754402Y-136547850D01*
X145227800Y-136547850D01*
X145227800Y-137190204D01*
X145316739Y-137404922D01*
X145481077Y-137569261D01*
X145695795Y-137658200D01*
X145725207Y-137658200D01*
X145649482Y-137706928D01*
X145597285Y-137783320D01*
X145578922Y-137874000D01*
X145578922Y-139574000D01*
X145594862Y-139658714D01*
X145644928Y-139736518D01*
X145721320Y-139788715D01*
X145812000Y-139807078D01*
X147812000Y-139807078D01*
X147896714Y-139791138D01*
X147974518Y-139741072D01*
X148026715Y-139664680D01*
X148045078Y-139574000D01*
X148045078Y-137874000D01*
X148029138Y-137789286D01*
X147979072Y-137711482D01*
X147902680Y-137659285D01*
X147897322Y-137658200D01*
X147928205Y-137658200D01*
X148142923Y-137569261D01*
X148307261Y-137404922D01*
X148396200Y-137190204D01*
X148396200Y-136547850D01*
X148250150Y-136401800D01*
X146989800Y-136401800D01*
X146989800Y-136421800D01*
X146634200Y-136421800D01*
X146634200Y-136401800D01*
X145373850Y-136401800D01*
X145227800Y-136547850D01*
X128754402Y-136547850D01*
X130044456Y-135257796D01*
X145227800Y-135257796D01*
X145227800Y-135900150D01*
X145373850Y-136046200D01*
X146634200Y-136046200D01*
X146634200Y-134935850D01*
X146989800Y-134935850D01*
X146989800Y-136046200D01*
X148250150Y-136046200D01*
X148396200Y-135900150D01*
X148396200Y-135257796D01*
X148307261Y-135043078D01*
X148142923Y-134878739D01*
X147928205Y-134789800D01*
X147135850Y-134789800D01*
X146989800Y-134935850D01*
X146634200Y-134935850D01*
X146488150Y-134789800D01*
X145695795Y-134789800D01*
X145481077Y-134878739D01*
X145316739Y-135043078D01*
X145227800Y-135257796D01*
X130044456Y-135257796D01*
X130834652Y-134467600D01*
X149656800Y-134467600D01*
X149773442Y-134444398D01*
X149872326Y-134378326D01*
X150786726Y-133463926D01*
X150803198Y-133439274D01*
X150852798Y-133365042D01*
X150876000Y-133248400D01*
X150876000Y-132983554D01*
X151047488Y-132949443D01*
X151451265Y-132679648D01*
X151721060Y-132275871D01*
X151815800Y-131799583D01*
X151815800Y-131750817D01*
X151721060Y-131274529D01*
X151451265Y-130870752D01*
X151047488Y-130600957D01*
X150571200Y-130506217D01*
X150094912Y-130600957D01*
X149691135Y-130870752D01*
X149421340Y-131274529D01*
X149326600Y-131750817D01*
X149326600Y-131799583D01*
X149421340Y-132275871D01*
X149691135Y-132679648D01*
X150094912Y-132949443D01*
X150266400Y-132983554D01*
X150266400Y-133122148D01*
X149530548Y-133858000D01*
X146379452Y-133858000D01*
X147213174Y-133024278D01*
X149047200Y-133024278D01*
X149131914Y-133008338D01*
X149209718Y-132958272D01*
X149261915Y-132881880D01*
X149280278Y-132791200D01*
X149280278Y-130759200D01*
X149264338Y-130674486D01*
X149214272Y-130596682D01*
X149137880Y-130544485D01*
X149047200Y-130526122D01*
X147015200Y-130526122D01*
X146930486Y-130542062D01*
X146852682Y-130592128D01*
X146800485Y-130668520D01*
X146782122Y-130759200D01*
X146782122Y-132593226D01*
X146025348Y-133350000D01*
X130302000Y-133350000D01*
X130185358Y-133373202D01*
X130086474Y-133439274D01*
X124999069Y-138526679D01*
X124980577Y-138519000D01*
X124753220Y-138518801D01*
X124543094Y-138605624D01*
X124382189Y-138766249D01*
X124295000Y-138976223D01*
X124294801Y-139203580D01*
X124381624Y-139413706D01*
X124542249Y-139574611D01*
X124752223Y-139661800D01*
X124778325Y-139661823D01*
X118897400Y-145542748D01*
X118897400Y-144881600D01*
X118868398Y-144735798D01*
X118785808Y-144612192D01*
X118785805Y-144612190D01*
X117373400Y-143199784D01*
X117373400Y-134066616D01*
X121722215Y-129717800D01*
X125806200Y-129717800D01*
X125952003Y-129688798D01*
X126075608Y-129606208D01*
X127426868Y-128254948D01*
X127471033Y-128284458D01*
X127889000Y-128367597D01*
X128306967Y-128284458D01*
X128661302Y-128047699D01*
X128898061Y-127693364D01*
X128981200Y-127275397D01*
X128981200Y-127232603D01*
X129336800Y-127232603D01*
X129336800Y-127275397D01*
X129419939Y-127693364D01*
X129656698Y-128047699D01*
X130011033Y-128284458D01*
X130429000Y-128367597D01*
X130846967Y-128284458D01*
X131201302Y-128047699D01*
X131438061Y-127693364D01*
X131521200Y-127275397D01*
X131521200Y-127232603D01*
X131438061Y-126814636D01*
X131201302Y-126460301D01*
X130846967Y-126223542D01*
X130839894Y-126222135D01*
X137257084Y-126222135D01*
X137534885Y-126894465D01*
X138048829Y-127409307D01*
X138720673Y-127688282D01*
X139448135Y-127688916D01*
X140120465Y-127411115D01*
X140635307Y-126897171D01*
X140914282Y-126225327D01*
X140914916Y-125497865D01*
X140637115Y-124825535D01*
X140123171Y-124310693D01*
X139451327Y-124031718D01*
X138723865Y-124031084D01*
X138051535Y-124308885D01*
X137536693Y-124822829D01*
X137257718Y-125494673D01*
X137257084Y-126222135D01*
X130839894Y-126222135D01*
X130429000Y-126140403D01*
X130011033Y-126223542D01*
X129656698Y-126460301D01*
X129419939Y-126814636D01*
X129336800Y-127232603D01*
X128981200Y-127232603D01*
X128898061Y-126814636D01*
X128661302Y-126460301D01*
X128306967Y-126223542D01*
X127889000Y-126140403D01*
X127471033Y-126223542D01*
X127116698Y-126460301D01*
X126879939Y-126814636D01*
X126796800Y-127232603D01*
X126796800Y-127275397D01*
X126879939Y-127693364D01*
X126892308Y-127711876D01*
X126516850Y-128087334D01*
X126740351Y-127654385D01*
X126639805Y-127431800D01*
X125526800Y-127431800D01*
X125526800Y-128543550D01*
X125749382Y-128645337D01*
X126049719Y-128520948D01*
X126265879Y-128338305D01*
X125648384Y-128955800D01*
X121646015Y-128955800D01*
X122947430Y-127654385D01*
X123957649Y-127654385D01*
X124216780Y-128156354D01*
X124648281Y-128520948D01*
X124948618Y-128645337D01*
X125171200Y-128543550D01*
X125171200Y-127431800D01*
X124058195Y-127431800D01*
X123957649Y-127654385D01*
X122947430Y-127654385D01*
X124181151Y-126420665D01*
X123957649Y-126853615D01*
X124058195Y-127076200D01*
X125171200Y-127076200D01*
X125171200Y-127056200D01*
X125526800Y-127056200D01*
X125526800Y-127076200D01*
X126639805Y-127076200D01*
X126740351Y-126853615D01*
X126481220Y-126351646D01*
X126049719Y-125987052D01*
X125749382Y-125862663D01*
X125526802Y-125964449D01*
X125526802Y-125806200D01*
X125456570Y-125806200D01*
X125766967Y-125744458D01*
X126121302Y-125507699D01*
X126358061Y-125153364D01*
X126441200Y-124735397D01*
X126441200Y-124692603D01*
X126796800Y-124692603D01*
X126796800Y-124735397D01*
X126879939Y-125153364D01*
X127116698Y-125507699D01*
X127471033Y-125744458D01*
X127889000Y-125827597D01*
X128306967Y-125744458D01*
X128661302Y-125507699D01*
X128898061Y-125153364D01*
X128981200Y-124735397D01*
X128981200Y-124692603D01*
X128898061Y-124274636D01*
X128661302Y-123920301D01*
X128556688Y-123850400D01*
X129332322Y-123850400D01*
X129332322Y-125577600D01*
X129348262Y-125662314D01*
X129398328Y-125740118D01*
X129474720Y-125792315D01*
X129565400Y-125810678D01*
X131292600Y-125810678D01*
X131377314Y-125794738D01*
X131455118Y-125744672D01*
X131507315Y-125668280D01*
X131525678Y-125577600D01*
X131525678Y-123850400D01*
X131509738Y-123765686D01*
X131459672Y-123687882D01*
X131383280Y-123635685D01*
X131292600Y-123617322D01*
X129565400Y-123617322D01*
X129480686Y-123633262D01*
X129402882Y-123683328D01*
X129350685Y-123759720D01*
X129332322Y-123850400D01*
X128556688Y-123850400D01*
X128306967Y-123683542D01*
X127889000Y-123600403D01*
X127471033Y-123683542D01*
X127116698Y-123920301D01*
X126879939Y-124274636D01*
X126796800Y-124692603D01*
X126441200Y-124692603D01*
X126358061Y-124274636D01*
X126121302Y-123920301D01*
X125766967Y-123683542D01*
X125349000Y-123600403D01*
X124931033Y-123683542D01*
X124576698Y-123920301D01*
X124339939Y-124274636D01*
X124256800Y-124692603D01*
X124256800Y-124735397D01*
X124339939Y-125153364D01*
X124352309Y-125171876D01*
X116189592Y-133334592D01*
X116107002Y-133458197D01*
X116102104Y-133482820D01*
X116078000Y-133604000D01*
X116078000Y-143891000D01*
X116107002Y-144036803D01*
X116189592Y-144160408D01*
X116522529Y-144493344D01*
X116522401Y-144639180D01*
X116609224Y-144849306D01*
X116769849Y-145010211D01*
X116979823Y-145097400D01*
X117207180Y-145097599D01*
X117417306Y-145010776D01*
X117578211Y-144850151D01*
X117665400Y-144640177D01*
X117665462Y-144569477D01*
X118135400Y-145039415D01*
X118135400Y-145587384D01*
X117444184Y-146278600D01*
X116911582Y-146278600D01*
X116808551Y-146175389D01*
X116598577Y-146088200D01*
X116371220Y-146088001D01*
X116161094Y-146174824D01*
X116000189Y-146335449D01*
X115913000Y-146545423D01*
X115912801Y-146772780D01*
X115999624Y-146982906D01*
X116160249Y-147143811D01*
X116370223Y-147231000D01*
X116597580Y-147231199D01*
X116807706Y-147144376D01*
X116911663Y-147040600D01*
X117399548Y-147040600D01*
X116210669Y-148229479D01*
X116192177Y-148221800D01*
X115964820Y-148221601D01*
X115754694Y-148308424D01*
X115593789Y-148469049D01*
X115506600Y-148679023D01*
X115506401Y-148906380D01*
X93013600Y-148906380D01*
X93013600Y-131357000D01*
X95436922Y-131357000D01*
X95436922Y-133057000D01*
X95452862Y-133141714D01*
X95502928Y-133219518D01*
X95579320Y-133271715D01*
X95670000Y-133290078D01*
X97370000Y-133290078D01*
X97454714Y-133274138D01*
X97532518Y-133224072D01*
X97584715Y-133147680D01*
X97603078Y-133057000D01*
X97603078Y-132185869D01*
X97981400Y-132185869D01*
X97981400Y-132228131D01*
X98063504Y-132640893D01*
X98297315Y-132990816D01*
X98647238Y-133224627D01*
X99060000Y-133306731D01*
X99472762Y-133224627D01*
X99740748Y-133045564D01*
X102997000Y-136301816D01*
X102997000Y-143764000D01*
X103026002Y-143909803D01*
X103108592Y-144033408D01*
X106997529Y-147922345D01*
X106997401Y-148068180D01*
X107084224Y-148278306D01*
X107244849Y-148439211D01*
X107454823Y-148526400D01*
X107682180Y-148526599D01*
X107892306Y-148439776D01*
X108053211Y-148279151D01*
X108140400Y-148069177D01*
X108140599Y-147841820D01*
X108053776Y-147631694D01*
X107893151Y-147470789D01*
X107683177Y-147383600D01*
X107536287Y-147383471D01*
X107376831Y-147224015D01*
X107454823Y-147256400D01*
X107682180Y-147256599D01*
X107892306Y-147169776D01*
X108053211Y-147009151D01*
X108140400Y-146799177D01*
X108140599Y-146571820D01*
X108053776Y-146361694D01*
X107893151Y-146200789D01*
X107683177Y-146113600D01*
X107536287Y-146113471D01*
X107376829Y-145954014D01*
X107454823Y-145986400D01*
X107682180Y-145986599D01*
X107892306Y-145899776D01*
X108053211Y-145739151D01*
X108140400Y-145529177D01*
X108140599Y-145301820D01*
X108053776Y-145091694D01*
X107893151Y-144930789D01*
X107683177Y-144843600D01*
X107536287Y-144843471D01*
X104902000Y-142209184D01*
X104902000Y-132991274D01*
X104902685Y-132990816D01*
X105136496Y-132640893D01*
X105218600Y-132228131D01*
X105218600Y-132185869D01*
X105601400Y-132185869D01*
X105601400Y-132228131D01*
X105683504Y-132640893D01*
X105917315Y-132990816D01*
X106267238Y-133224627D01*
X106375200Y-133246102D01*
X106375200Y-135382000D01*
X106398402Y-135498642D01*
X106464474Y-135597526D01*
X112339279Y-141472331D01*
X112331600Y-141490823D01*
X112331401Y-141718180D01*
X112418224Y-141928306D01*
X112578849Y-142089211D01*
X112788823Y-142176400D01*
X113016180Y-142176599D01*
X113226306Y-142089776D01*
X113387211Y-141929151D01*
X113474400Y-141719177D01*
X113474599Y-141491820D01*
X113387776Y-141281694D01*
X113227151Y-141120789D01*
X113017177Y-141033600D01*
X112789820Y-141033401D01*
X112770455Y-141041403D01*
X106984800Y-135255748D01*
X106984800Y-133246102D01*
X107092762Y-133224627D01*
X107442685Y-132990816D01*
X107676496Y-132640893D01*
X107758600Y-132228131D01*
X107758600Y-132185869D01*
X108141400Y-132185869D01*
X108141400Y-132228131D01*
X108223504Y-132640893D01*
X108457315Y-132990816D01*
X108807238Y-133224627D01*
X109220000Y-133306731D01*
X109632762Y-133224627D01*
X109982685Y-132990816D01*
X110216496Y-132640893D01*
X110298600Y-132228131D01*
X110298600Y-132185869D01*
X110681400Y-132185869D01*
X110681400Y-132228131D01*
X110763504Y-132640893D01*
X110997315Y-132990816D01*
X111347238Y-133224627D01*
X111760000Y-133306731D01*
X112172762Y-133224627D01*
X112522685Y-132990816D01*
X112756496Y-132640893D01*
X112763587Y-132605241D01*
X112922185Y-132605241D01*
X113179465Y-133102194D01*
X113607337Y-133462862D01*
X113901761Y-133584801D01*
X114122200Y-133482820D01*
X114122200Y-132384800D01*
X114477800Y-132384800D01*
X114477800Y-133482820D01*
X114698239Y-133584801D01*
X114992663Y-133462862D01*
X115420535Y-133102194D01*
X115677815Y-132605241D01*
X115577100Y-132384800D01*
X114477800Y-132384800D01*
X114122200Y-132384800D01*
X113022900Y-132384800D01*
X112922185Y-132605241D01*
X112763587Y-132605241D01*
X112838600Y-132228131D01*
X112838600Y-132185869D01*
X112763588Y-131808759D01*
X112922185Y-131808759D01*
X113022900Y-132029200D01*
X114122200Y-132029200D01*
X114122200Y-130931180D01*
X114477800Y-130931180D01*
X114477800Y-132029200D01*
X115577100Y-132029200D01*
X115677815Y-131808759D01*
X115420535Y-131311806D01*
X114992663Y-130951138D01*
X114698239Y-130829199D01*
X114477800Y-130931180D01*
X114122200Y-130931180D01*
X113901761Y-130829199D01*
X113607337Y-130951138D01*
X113179465Y-131311806D01*
X112922185Y-131808759D01*
X112763588Y-131808759D01*
X112756496Y-131773107D01*
X112522685Y-131423184D01*
X112172762Y-131189373D01*
X111760000Y-131107269D01*
X111347238Y-131189373D01*
X110997315Y-131423184D01*
X110763504Y-131773107D01*
X110681400Y-132185869D01*
X110298600Y-132185869D01*
X110216496Y-131773107D01*
X109982685Y-131423184D01*
X109632762Y-131189373D01*
X109220000Y-131107269D01*
X108807238Y-131189373D01*
X108457315Y-131423184D01*
X108223504Y-131773107D01*
X108141400Y-132185869D01*
X107758600Y-132185869D01*
X107676496Y-131773107D01*
X107442685Y-131423184D01*
X107092762Y-131189373D01*
X106680000Y-131107269D01*
X106267238Y-131189373D01*
X105917315Y-131423184D01*
X105683504Y-131773107D01*
X105601400Y-132185869D01*
X105218600Y-132185869D01*
X105136496Y-131773107D01*
X104902685Y-131423184D01*
X104552762Y-131189373D01*
X104140000Y-131107269D01*
X103727238Y-131189373D01*
X103377315Y-131423184D01*
X103143504Y-131773107D01*
X103061400Y-132185869D01*
X103061400Y-132228131D01*
X103143504Y-132640893D01*
X103377315Y-132990816D01*
X103727238Y-133224627D01*
X104140000Y-133306731D01*
X104140000Y-133827184D01*
X102655762Y-132342946D01*
X102678600Y-132228131D01*
X102678600Y-132185869D01*
X102596496Y-131773107D01*
X102362685Y-131423184D01*
X102012762Y-131189373D01*
X101600000Y-131107269D01*
X101187238Y-131189373D01*
X100837315Y-131423184D01*
X100603504Y-131773107D01*
X100521400Y-132185869D01*
X100521400Y-132228131D01*
X100603504Y-132640893D01*
X100837315Y-132990816D01*
X101187238Y-133224627D01*
X101600000Y-133306731D01*
X102012762Y-133224627D01*
X102280748Y-133045564D01*
X103632000Y-134396816D01*
X103632000Y-135859184D01*
X100115762Y-132342946D01*
X100138600Y-132228131D01*
X100138600Y-132185869D01*
X100056496Y-131773107D01*
X99822685Y-131423184D01*
X99472762Y-131189373D01*
X99060000Y-131107269D01*
X98647238Y-131189373D01*
X98297315Y-131423184D01*
X98063504Y-131773107D01*
X97981400Y-132185869D01*
X97603078Y-132185869D01*
X97603078Y-131357000D01*
X97587138Y-131272286D01*
X97537072Y-131194482D01*
X97460680Y-131142285D01*
X97370000Y-131123922D01*
X95670000Y-131123922D01*
X95585286Y-131139862D01*
X95507482Y-131189928D01*
X95455285Y-131266320D01*
X95436922Y-131357000D01*
X93013600Y-131357000D01*
X93013600Y-120953600D01*
X143608400Y-120953600D01*
X143608400Y-129540000D01*
X143608400Y-129540000D01*
G37*
X143608400Y-129540000D02*
X143631510Y-129656183D01*
X143697322Y-129754678D01*
X143795817Y-129820490D01*
X143912000Y-129843600D01*
X154636400Y-129843600D01*
X154636400Y-169876400D01*
X143912000Y-169876400D01*
X143795817Y-169899510D01*
X143697322Y-169965322D01*
X143631510Y-170063817D01*
X143608400Y-170180000D01*
X143608400Y-178766400D01*
X93013600Y-178766400D01*
X93013600Y-176192389D01*
X94596089Y-176192389D01*
X94875943Y-176750531D01*
X95348086Y-177159091D01*
X95714613Y-177310899D01*
X95961200Y-177211239D01*
X95961200Y-175945800D01*
X94694746Y-175945800D01*
X94596089Y-176192389D01*
X93013600Y-176192389D01*
X93013600Y-175343611D01*
X94596089Y-175343611D01*
X94694746Y-175590200D01*
X95961200Y-175590200D01*
X95961200Y-174324761D01*
X96316800Y-174324761D01*
X96316800Y-175590200D01*
X96336800Y-175590200D01*
X96336800Y-175945800D01*
X96316800Y-175945800D01*
X96316800Y-177211239D01*
X96563387Y-177310899D01*
X96929914Y-177159091D01*
X97402057Y-176750531D01*
X97429922Y-176694957D01*
X97429922Y-176784000D01*
X97445862Y-176868714D01*
X97495928Y-176946518D01*
X97572320Y-176998715D01*
X97663000Y-177017078D01*
X99695000Y-177017078D01*
X99779714Y-177001138D01*
X99857518Y-176951072D01*
X99909715Y-176874680D01*
X99928078Y-176784000D01*
X99928078Y-174752000D01*
X99912138Y-174667286D01*
X99862072Y-174589482D01*
X99785680Y-174537285D01*
X99695000Y-174518922D01*
X97663000Y-174518922D01*
X97578286Y-174534862D01*
X97500482Y-174584928D01*
X97448285Y-174661320D01*
X97429922Y-174752000D01*
X97429922Y-174841043D01*
X97402057Y-174785469D01*
X96929914Y-174376909D01*
X96563387Y-174225101D01*
X96316800Y-174324761D01*
X95961200Y-174324761D01*
X95714613Y-174225101D01*
X95348086Y-174376909D01*
X94875943Y-174785469D01*
X94596089Y-175343611D01*
X93013600Y-175343611D01*
X93013600Y-174222135D01*
X137257084Y-174222135D01*
X137534885Y-174894465D01*
X138048829Y-175409307D01*
X138720673Y-175688282D01*
X139448135Y-175688916D01*
X140120465Y-175411115D01*
X140635307Y-174897171D01*
X140914282Y-174225327D01*
X140914916Y-173497865D01*
X140637115Y-172825535D01*
X140123171Y-172310693D01*
X139451327Y-172031718D01*
X138723865Y-172031084D01*
X138051535Y-172308885D01*
X137536693Y-172822829D01*
X137257718Y-173494673D01*
X137257084Y-174222135D01*
X93013600Y-174222135D01*
X93013600Y-170713400D01*
X94915322Y-170713400D01*
X94915322Y-172948600D01*
X94931262Y-173033314D01*
X94981328Y-173111118D01*
X95057720Y-173163315D01*
X95148400Y-173181678D01*
X97383600Y-173181678D01*
X97468314Y-173165738D01*
X97546118Y-173115672D01*
X97598315Y-173039280D01*
X97616678Y-172948600D01*
X97616678Y-170713400D01*
X97600738Y-170628686D01*
X97550672Y-170550882D01*
X97474280Y-170498685D01*
X97383600Y-170480322D01*
X95148400Y-170480322D01*
X95063686Y-170496262D01*
X94985882Y-170546328D01*
X94933685Y-170622720D01*
X94915322Y-170713400D01*
X93013600Y-170713400D01*
X93013600Y-168896180D01*
X110045401Y-168896180D01*
X110132224Y-169106306D01*
X110292849Y-169267211D01*
X110502823Y-169354400D01*
X110730180Y-169354599D01*
X110940306Y-169267776D01*
X111101211Y-169107151D01*
X111188400Y-168897177D01*
X111188400Y-168896180D01*
X113093401Y-168896180D01*
X113180224Y-169106306D01*
X113340849Y-169267211D01*
X113550823Y-169354400D01*
X113778180Y-169354599D01*
X113988306Y-169267776D01*
X114149211Y-169107151D01*
X114236400Y-168897177D01*
X114236599Y-168669820D01*
X114149776Y-168459694D01*
X113989151Y-168298789D01*
X113779177Y-168211600D01*
X113551820Y-168211401D01*
X113341694Y-168298224D01*
X113180789Y-168458849D01*
X113093600Y-168668823D01*
X113093401Y-168896180D01*
X111188400Y-168896180D01*
X111188599Y-168669820D01*
X111101776Y-168459694D01*
X110941151Y-168298789D01*
X110731177Y-168211600D01*
X110503820Y-168211401D01*
X110293694Y-168298224D01*
X110132789Y-168458849D01*
X110045600Y-168668823D01*
X110045401Y-168896180D01*
X93013600Y-168896180D01*
X93013600Y-165340180D01*
X93789401Y-165340180D01*
X93857759Y-165505617D01*
X93868203Y-165558123D01*
X93983829Y-165731171D01*
X94156877Y-165846797D01*
X94361000Y-165887400D01*
X94565123Y-165846797D01*
X94738171Y-165731171D01*
X94853797Y-165558123D01*
X94864354Y-165505049D01*
X94932400Y-165341177D01*
X94932599Y-165113820D01*
X94845776Y-164903694D01*
X94685151Y-164742789D01*
X94475177Y-164655600D01*
X94247820Y-164655401D01*
X94037694Y-164742224D01*
X93876789Y-164902849D01*
X93789600Y-165112823D01*
X93789401Y-165340180D01*
X93013600Y-165340180D01*
X93013600Y-161403180D01*
X99250401Y-161403180D01*
X99318759Y-161568617D01*
X99329203Y-161621123D01*
X99444829Y-161794171D01*
X99617877Y-161909797D01*
X99822000Y-161950400D01*
X100026123Y-161909797D01*
X100199171Y-161794171D01*
X100314797Y-161621123D01*
X100325354Y-161568049D01*
X100393400Y-161404177D01*
X100393599Y-161176820D01*
X100306776Y-160966694D01*
X100146151Y-160805789D01*
X99936177Y-160718600D01*
X99708820Y-160718401D01*
X99498694Y-160805224D01*
X99337789Y-160965849D01*
X99250600Y-161175823D01*
X99250401Y-161403180D01*
X93013600Y-161403180D01*
X93013600Y-160768180D01*
X93916401Y-160768180D01*
X93984759Y-160933617D01*
X93995203Y-160986123D01*
X94110829Y-161159171D01*
X94283877Y-161274797D01*
X94488000Y-161315400D01*
X94692123Y-161274797D01*
X94865171Y-161159171D01*
X94980797Y-160986123D01*
X94991354Y-160933049D01*
X95059400Y-160769177D01*
X95059599Y-160541820D01*
X94972776Y-160331694D01*
X94812151Y-160170789D01*
X94721579Y-160133180D01*
X127190401Y-160133180D01*
X127277224Y-160343306D01*
X127437849Y-160504211D01*
X127647823Y-160591400D01*
X127875180Y-160591599D01*
X127894545Y-160583597D01*
X128600200Y-161289252D01*
X128600200Y-168290577D01*
X128581694Y-168298224D01*
X128420789Y-168458849D01*
X128333600Y-168668823D01*
X128333401Y-168896180D01*
X128420224Y-169106306D01*
X128580849Y-169267211D01*
X128790823Y-169354400D01*
X129018180Y-169354599D01*
X129228306Y-169267776D01*
X129389211Y-169107151D01*
X129476400Y-168897177D01*
X129476599Y-168669820D01*
X129389776Y-168459694D01*
X129229151Y-168298789D01*
X129209800Y-168290754D01*
X129209800Y-168134180D01*
X130111401Y-168134180D01*
X130198224Y-168344306D01*
X130358849Y-168505211D01*
X130568823Y-168592400D01*
X130796180Y-168592599D01*
X131006306Y-168505776D01*
X131167211Y-168345151D01*
X131254400Y-168135177D01*
X131254599Y-167907820D01*
X131167776Y-167697694D01*
X131007151Y-167536789D01*
X130797177Y-167449600D01*
X130569820Y-167449401D01*
X130359694Y-167536224D01*
X130198789Y-167696849D01*
X130111600Y-167906823D01*
X130111401Y-168134180D01*
X129209800Y-168134180D01*
X129209800Y-161163000D01*
X129186598Y-161046358D01*
X129120526Y-160947474D01*
X128325721Y-160152669D01*
X128333400Y-160134177D01*
X128333400Y-160133180D01*
X130111401Y-160133180D01*
X130198224Y-160343306D01*
X130358849Y-160504211D01*
X130568823Y-160591400D01*
X130796180Y-160591599D01*
X131006306Y-160504776D01*
X131167211Y-160344151D01*
X131254400Y-160134177D01*
X131254599Y-159906820D01*
X131167776Y-159696694D01*
X131007151Y-159535789D01*
X130797177Y-159448600D01*
X130569820Y-159448401D01*
X130359694Y-159535224D01*
X130198789Y-159695849D01*
X130111600Y-159905823D01*
X130111401Y-160133180D01*
X128333400Y-160133180D01*
X128333599Y-159906820D01*
X128246776Y-159696694D01*
X128086151Y-159535789D01*
X127876177Y-159448600D01*
X127648820Y-159448401D01*
X127438694Y-159535224D01*
X127277789Y-159695849D01*
X127190600Y-159905823D01*
X127190401Y-160133180D01*
X94721579Y-160133180D01*
X94602177Y-160083600D01*
X94374820Y-160083401D01*
X94164694Y-160170224D01*
X94003789Y-160330849D01*
X93916600Y-160540823D01*
X93916401Y-160768180D01*
X93013600Y-160768180D01*
X93013600Y-158228180D01*
X100393401Y-158228180D01*
X100480224Y-158438306D01*
X100640849Y-158599211D01*
X100850823Y-158686400D01*
X101078180Y-158686599D01*
X101288306Y-158599776D01*
X101449211Y-158439151D01*
X101536400Y-158229177D01*
X101536599Y-158001820D01*
X101449776Y-157791694D01*
X101289151Y-157630789D01*
X101079177Y-157543600D01*
X100851820Y-157543401D01*
X100641694Y-157630224D01*
X100480789Y-157790849D01*
X100393600Y-158000823D01*
X100393401Y-158228180D01*
X93013600Y-158228180D01*
X93013600Y-155180180D01*
X95694401Y-155180180D01*
X95781224Y-155390306D01*
X95941849Y-155551211D01*
X96151823Y-155638400D01*
X96379180Y-155638599D01*
X96589306Y-155551776D01*
X96750211Y-155391151D01*
X96837400Y-155181177D01*
X96837599Y-154953820D01*
X96750776Y-154743694D01*
X96590151Y-154582789D01*
X96380177Y-154495600D01*
X96152820Y-154495401D01*
X95942694Y-154582224D01*
X95781789Y-154742849D01*
X95694600Y-154952823D01*
X95694401Y-155180180D01*
X93013600Y-155180180D01*
X93013600Y-152005180D01*
X127190401Y-152005180D01*
X127277224Y-152215306D01*
X127437849Y-152376211D01*
X127647823Y-152463400D01*
X127875180Y-152463599D01*
X127894545Y-152455597D01*
X131902200Y-156463252D01*
X131902200Y-168163577D01*
X131883694Y-168171224D01*
X131722789Y-168331849D01*
X131635600Y-168541823D01*
X131635401Y-168769180D01*
X131722224Y-168979306D01*
X131882849Y-169140211D01*
X132092823Y-169227400D01*
X132320180Y-169227599D01*
X132530306Y-169140776D01*
X132691211Y-168980151D01*
X132778400Y-168770177D01*
X132778599Y-168542820D01*
X132691776Y-168332694D01*
X132531151Y-168171789D01*
X132511800Y-168163754D01*
X132511800Y-163047850D01*
X145227800Y-163047850D01*
X145227800Y-163690204D01*
X145316739Y-163904922D01*
X145481077Y-164069261D01*
X145695795Y-164158200D01*
X145725207Y-164158200D01*
X145649482Y-164206928D01*
X145597285Y-164283320D01*
X145578922Y-164374000D01*
X145578922Y-166074000D01*
X145594862Y-166158714D01*
X145644928Y-166236518D01*
X145721320Y-166288715D01*
X145812000Y-166307078D01*
X147812000Y-166307078D01*
X147896714Y-166291138D01*
X147974518Y-166241072D01*
X148026715Y-166164680D01*
X148045078Y-166074000D01*
X148045078Y-164374000D01*
X148029138Y-164289286D01*
X147979072Y-164211482D01*
X147902680Y-164159285D01*
X147897322Y-164158200D01*
X147928205Y-164158200D01*
X148142923Y-164069261D01*
X148307261Y-163904922D01*
X148396200Y-163690204D01*
X148396200Y-163047850D01*
X148250150Y-162901800D01*
X146989800Y-162901800D01*
X146989800Y-162921800D01*
X146634200Y-162921800D01*
X146634200Y-162901800D01*
X145373850Y-162901800D01*
X145227800Y-163047850D01*
X132511800Y-163047850D01*
X132511800Y-161911180D01*
X134556401Y-161911180D01*
X134643224Y-162121306D01*
X134803849Y-162282211D01*
X135013823Y-162369400D01*
X135241180Y-162369599D01*
X135451306Y-162282776D01*
X135612211Y-162122151D01*
X135699400Y-161912177D01*
X135699535Y-161757796D01*
X145227800Y-161757796D01*
X145227800Y-162400150D01*
X145373850Y-162546200D01*
X146634200Y-162546200D01*
X146634200Y-162526200D01*
X146989800Y-162526200D01*
X146989800Y-162546200D01*
X148250150Y-162546200D01*
X148396200Y-162400150D01*
X148396200Y-161757796D01*
X148307261Y-161543078D01*
X148142923Y-161378739D01*
X147928205Y-161289800D01*
X147898793Y-161289800D01*
X147974518Y-161241072D01*
X148026715Y-161164680D01*
X148045078Y-161074000D01*
X148045078Y-159374000D01*
X148029138Y-159289286D01*
X147979072Y-159211482D01*
X147902680Y-159159285D01*
X147812000Y-159140922D01*
X145812000Y-159140922D01*
X145727286Y-159156862D01*
X145649482Y-159206928D01*
X145597285Y-159283320D01*
X145578922Y-159374000D01*
X145578922Y-161074000D01*
X145594862Y-161158714D01*
X145644928Y-161236518D01*
X145721320Y-161288715D01*
X145726678Y-161289800D01*
X145695795Y-161289800D01*
X145481077Y-161378739D01*
X145316739Y-161543078D01*
X145227800Y-161757796D01*
X135699535Y-161757796D01*
X135699599Y-161684820D01*
X135612776Y-161474694D01*
X135452151Y-161313789D01*
X135242177Y-161226600D01*
X135014820Y-161226401D01*
X134804694Y-161313224D01*
X134643789Y-161473849D01*
X134556600Y-161683823D01*
X134556401Y-161911180D01*
X132511800Y-161911180D01*
X132511800Y-156337000D01*
X132488598Y-156220358D01*
X132422526Y-156121474D01*
X131348902Y-155047850D01*
X145227800Y-155047850D01*
X145227800Y-155690204D01*
X145316739Y-155904922D01*
X145481077Y-156069261D01*
X145695795Y-156158200D01*
X145725207Y-156158200D01*
X145649482Y-156206928D01*
X145597285Y-156283320D01*
X145578922Y-156374000D01*
X145578922Y-158074000D01*
X145594862Y-158158714D01*
X145644928Y-158236518D01*
X145721320Y-158288715D01*
X145812000Y-158307078D01*
X147812000Y-158307078D01*
X147896714Y-158291138D01*
X147974518Y-158241072D01*
X148026715Y-158164680D01*
X148045078Y-158074000D01*
X148045078Y-156374000D01*
X148029138Y-156289286D01*
X147979072Y-156211482D01*
X147902680Y-156159285D01*
X147897322Y-156158200D01*
X147928205Y-156158200D01*
X148142923Y-156069261D01*
X148307261Y-155904922D01*
X148396200Y-155690204D01*
X148396200Y-155047850D01*
X148250150Y-154901800D01*
X146989800Y-154901800D01*
X146989800Y-154921800D01*
X146634200Y-154921800D01*
X146634200Y-154901800D01*
X145373850Y-154901800D01*
X145227800Y-155047850D01*
X131348902Y-155047850D01*
X130465232Y-154164180D01*
X134556401Y-154164180D01*
X134643224Y-154374306D01*
X134803849Y-154535211D01*
X135013823Y-154622400D01*
X135241180Y-154622599D01*
X135451306Y-154535776D01*
X135612211Y-154375151D01*
X135699400Y-154165177D01*
X135699599Y-153937820D01*
X135625214Y-153757796D01*
X145227800Y-153757796D01*
X145227800Y-154400150D01*
X145373850Y-154546200D01*
X146634200Y-154546200D01*
X146634200Y-154526200D01*
X146989800Y-154526200D01*
X146989800Y-154546200D01*
X148250150Y-154546200D01*
X148396200Y-154400150D01*
X148396200Y-153757796D01*
X148307261Y-153543078D01*
X148142923Y-153378739D01*
X147928205Y-153289800D01*
X147898793Y-153289800D01*
X147974518Y-153241072D01*
X148026715Y-153164680D01*
X148045078Y-153074000D01*
X148045078Y-151374000D01*
X148029138Y-151289286D01*
X147979072Y-151211482D01*
X147902680Y-151159285D01*
X147812000Y-151140922D01*
X145812000Y-151140922D01*
X145727286Y-151156862D01*
X145649482Y-151206928D01*
X145597285Y-151283320D01*
X145578922Y-151374000D01*
X145578922Y-153074000D01*
X145594862Y-153158714D01*
X145644928Y-153236518D01*
X145721320Y-153288715D01*
X145726678Y-153289800D01*
X145695795Y-153289800D01*
X145481077Y-153378739D01*
X145316739Y-153543078D01*
X145227800Y-153757796D01*
X135625214Y-153757796D01*
X135612776Y-153727694D01*
X135452151Y-153566789D01*
X135242177Y-153479600D01*
X135014820Y-153479401D01*
X134804694Y-153566224D01*
X134643789Y-153726849D01*
X134556600Y-153936823D01*
X134556401Y-154164180D01*
X130465232Y-154164180D01*
X128433232Y-152132180D01*
X130111401Y-152132180D01*
X130198224Y-152342306D01*
X130358849Y-152503211D01*
X130568823Y-152590400D01*
X130796180Y-152590599D01*
X131006306Y-152503776D01*
X131167211Y-152343151D01*
X131254400Y-152133177D01*
X131254599Y-151905820D01*
X131167776Y-151695694D01*
X131007151Y-151534789D01*
X130797177Y-151447600D01*
X130569820Y-151447401D01*
X130359694Y-151534224D01*
X130198789Y-151694849D01*
X130111600Y-151904823D01*
X130111401Y-152132180D01*
X128433232Y-152132180D01*
X128325721Y-152024669D01*
X128333400Y-152006177D01*
X128333599Y-151778820D01*
X128246776Y-151568694D01*
X128086151Y-151407789D01*
X127876177Y-151320600D01*
X127648820Y-151320401D01*
X127438694Y-151407224D01*
X127277789Y-151567849D01*
X127190600Y-151777823D01*
X127190401Y-152005180D01*
X93013600Y-152005180D01*
X93013600Y-150989180D01*
X115252401Y-150989180D01*
X115339224Y-151199306D01*
X115499849Y-151360211D01*
X115709823Y-151447400D01*
X115937180Y-151447599D01*
X116147306Y-151360776D01*
X116308211Y-151200151D01*
X116395400Y-150990177D01*
X116395599Y-150762820D01*
X116308776Y-150552694D01*
X116148151Y-150391789D01*
X115938177Y-150304600D01*
X115710820Y-150304401D01*
X115500694Y-150391224D01*
X115339789Y-150551849D01*
X115252600Y-150761823D01*
X115252401Y-150989180D01*
X93013600Y-150989180D01*
X93013600Y-148906380D01*
X115506401Y-148906380D01*
X115593224Y-149116506D01*
X115753849Y-149277411D01*
X115963823Y-149364600D01*
X116191180Y-149364799D01*
X116401306Y-149277976D01*
X116562211Y-149117351D01*
X116649400Y-148907377D01*
X116649599Y-148680020D01*
X116641597Y-148660655D01*
X117615072Y-147687180D01*
X120840401Y-147687180D01*
X120927224Y-147897306D01*
X121087849Y-148058211D01*
X121297823Y-148145400D01*
X121525180Y-148145599D01*
X121735306Y-148058776D01*
X121896211Y-147898151D01*
X121983400Y-147688177D01*
X121983599Y-147460820D01*
X121896776Y-147250694D01*
X121736151Y-147089789D01*
X121635151Y-147047850D01*
X145227800Y-147047850D01*
X145227800Y-147690204D01*
X145316739Y-147904922D01*
X145481077Y-148069261D01*
X145695795Y-148158200D01*
X145725207Y-148158200D01*
X145649482Y-148206928D01*
X145597285Y-148283320D01*
X145578922Y-148374000D01*
X145578922Y-150074000D01*
X145594862Y-150158714D01*
X145644928Y-150236518D01*
X145721320Y-150288715D01*
X145812000Y-150307078D01*
X147812000Y-150307078D01*
X147896714Y-150291138D01*
X147974518Y-150241072D01*
X148026715Y-150164680D01*
X148045078Y-150074000D01*
X148045078Y-148374000D01*
X148029138Y-148289286D01*
X147979072Y-148211482D01*
X147902680Y-148159285D01*
X147897322Y-148158200D01*
X147928205Y-148158200D01*
X148142923Y-148069261D01*
X148307261Y-147904922D01*
X148396200Y-147690204D01*
X148396200Y-147047850D01*
X148250150Y-146901800D01*
X146989800Y-146901800D01*
X146989800Y-146921800D01*
X146634200Y-146921800D01*
X146634200Y-146901800D01*
X145373850Y-146901800D01*
X145227800Y-147047850D01*
X121635151Y-147047850D01*
X121526177Y-147002600D01*
X121298820Y-147002401D01*
X121088694Y-147089224D01*
X120927789Y-147249849D01*
X120840600Y-147459823D01*
X120840401Y-147687180D01*
X117615072Y-147687180D01*
X119266072Y-146036180D01*
X134556401Y-146036180D01*
X134643224Y-146246306D01*
X134803849Y-146407211D01*
X135013823Y-146494400D01*
X135241180Y-146494599D01*
X135451306Y-146407776D01*
X135612211Y-146247151D01*
X135699400Y-146037177D01*
X135699599Y-145809820D01*
X135678103Y-145757796D01*
X145227800Y-145757796D01*
X145227800Y-146400150D01*
X145373850Y-146546200D01*
X146634200Y-146546200D01*
X146634200Y-146526200D01*
X146989800Y-146526200D01*
X146989800Y-146546200D01*
X148250150Y-146546200D01*
X148396200Y-146400150D01*
X148396200Y-145757796D01*
X148307261Y-145543078D01*
X148142923Y-145378739D01*
X147928205Y-145289800D01*
X147898793Y-145289800D01*
X147974518Y-145241072D01*
X148026715Y-145164680D01*
X148045078Y-145074000D01*
X148045078Y-143374000D01*
X148029138Y-143289286D01*
X147979072Y-143211482D01*
X147902680Y-143159285D01*
X147812000Y-143140922D01*
X145812000Y-143140922D01*
X145727286Y-143156862D01*
X145649482Y-143206928D01*
X145597285Y-143283320D01*
X145578922Y-143374000D01*
X145578922Y-145074000D01*
X145594862Y-145158714D01*
X145644928Y-145236518D01*
X145721320Y-145288715D01*
X145726678Y-145289800D01*
X145695795Y-145289800D01*
X145481077Y-145378739D01*
X145316739Y-145543078D01*
X145227800Y-145757796D01*
X135678103Y-145757796D01*
X135612776Y-145599694D01*
X135452151Y-145438789D01*
X135242177Y-145351600D01*
X135014820Y-145351401D01*
X134804694Y-145438224D01*
X134643789Y-145598849D01*
X134556600Y-145808823D01*
X134556401Y-146036180D01*
X119266072Y-146036180D01*
X124928252Y-140374000D01*
X145578922Y-140374000D01*
X145578922Y-142074000D01*
X145594862Y-142158714D01*
X145644928Y-142236518D01*
X145721320Y-142288715D01*
X145812000Y-142307078D01*
X147812000Y-142307078D01*
X147896714Y-142291138D01*
X147974518Y-142241072D01*
X148026715Y-142164680D01*
X148045078Y-142074000D01*
X148045078Y-140374000D01*
X148029138Y-140289286D01*
X147979072Y-140211482D01*
X147902680Y-140159285D01*
X147812000Y-140140922D01*
X145812000Y-140140922D01*
X145727286Y-140156862D01*
X145649482Y-140206928D01*
X145597285Y-140283320D01*
X145578922Y-140374000D01*
X124928252Y-140374000D01*
X128754402Y-136547850D01*
X145227800Y-136547850D01*
X145227800Y-137190204D01*
X145316739Y-137404922D01*
X145481077Y-137569261D01*
X145695795Y-137658200D01*
X145725207Y-137658200D01*
X145649482Y-137706928D01*
X145597285Y-137783320D01*
X145578922Y-137874000D01*
X145578922Y-139574000D01*
X145594862Y-139658714D01*
X145644928Y-139736518D01*
X145721320Y-139788715D01*
X145812000Y-139807078D01*
X147812000Y-139807078D01*
X147896714Y-139791138D01*
X147974518Y-139741072D01*
X148026715Y-139664680D01*
X148045078Y-139574000D01*
X148045078Y-137874000D01*
X148029138Y-137789286D01*
X147979072Y-137711482D01*
X147902680Y-137659285D01*
X147897322Y-137658200D01*
X147928205Y-137658200D01*
X148142923Y-137569261D01*
X148307261Y-137404922D01*
X148396200Y-137190204D01*
X148396200Y-136547850D01*
X148250150Y-136401800D01*
X146989800Y-136401800D01*
X146989800Y-136421800D01*
X146634200Y-136421800D01*
X146634200Y-136401800D01*
X145373850Y-136401800D01*
X145227800Y-136547850D01*
X128754402Y-136547850D01*
X130044456Y-135257796D01*
X145227800Y-135257796D01*
X145227800Y-135900150D01*
X145373850Y-136046200D01*
X146634200Y-136046200D01*
X146634200Y-134935850D01*
X146989800Y-134935850D01*
X146989800Y-136046200D01*
X148250150Y-136046200D01*
X148396200Y-135900150D01*
X148396200Y-135257796D01*
X148307261Y-135043078D01*
X148142923Y-134878739D01*
X147928205Y-134789800D01*
X147135850Y-134789800D01*
X146989800Y-134935850D01*
X146634200Y-134935850D01*
X146488150Y-134789800D01*
X145695795Y-134789800D01*
X145481077Y-134878739D01*
X145316739Y-135043078D01*
X145227800Y-135257796D01*
X130044456Y-135257796D01*
X130834652Y-134467600D01*
X149656800Y-134467600D01*
X149773442Y-134444398D01*
X149872326Y-134378326D01*
X150786726Y-133463926D01*
X150803198Y-133439274D01*
X150852798Y-133365042D01*
X150876000Y-133248400D01*
X150876000Y-132983554D01*
X151047488Y-132949443D01*
X151451265Y-132679648D01*
X151721060Y-132275871D01*
X151815800Y-131799583D01*
X151815800Y-131750817D01*
X151721060Y-131274529D01*
X151451265Y-130870752D01*
X151047488Y-130600957D01*
X150571200Y-130506217D01*
X150094912Y-130600957D01*
X149691135Y-130870752D01*
X149421340Y-131274529D01*
X149326600Y-131750817D01*
X149326600Y-131799583D01*
X149421340Y-132275871D01*
X149691135Y-132679648D01*
X150094912Y-132949443D01*
X150266400Y-132983554D01*
X150266400Y-133122148D01*
X149530548Y-133858000D01*
X146379452Y-133858000D01*
X147213174Y-133024278D01*
X149047200Y-133024278D01*
X149131914Y-133008338D01*
X149209718Y-132958272D01*
X149261915Y-132881880D01*
X149280278Y-132791200D01*
X149280278Y-130759200D01*
X149264338Y-130674486D01*
X149214272Y-130596682D01*
X149137880Y-130544485D01*
X149047200Y-130526122D01*
X147015200Y-130526122D01*
X146930486Y-130542062D01*
X146852682Y-130592128D01*
X146800485Y-130668520D01*
X146782122Y-130759200D01*
X146782122Y-132593226D01*
X146025348Y-133350000D01*
X130302000Y-133350000D01*
X130185358Y-133373202D01*
X130086474Y-133439274D01*
X124999069Y-138526679D01*
X124980577Y-138519000D01*
X124753220Y-138518801D01*
X124543094Y-138605624D01*
X124382189Y-138766249D01*
X124295000Y-138976223D01*
X124294801Y-139203580D01*
X124381624Y-139413706D01*
X124542249Y-139574611D01*
X124752223Y-139661800D01*
X124778325Y-139661823D01*
X118897400Y-145542748D01*
X118897400Y-144881600D01*
X118868398Y-144735798D01*
X118785808Y-144612192D01*
X118785805Y-144612190D01*
X117373400Y-143199784D01*
X117373400Y-134066616D01*
X121722215Y-129717800D01*
X125806200Y-129717800D01*
X125952003Y-129688798D01*
X126075608Y-129606208D01*
X127426868Y-128254948D01*
X127471033Y-128284458D01*
X127889000Y-128367597D01*
X128306967Y-128284458D01*
X128661302Y-128047699D01*
X128898061Y-127693364D01*
X128981200Y-127275397D01*
X128981200Y-127232603D01*
X129336800Y-127232603D01*
X129336800Y-127275397D01*
X129419939Y-127693364D01*
X129656698Y-128047699D01*
X130011033Y-128284458D01*
X130429000Y-128367597D01*
X130846967Y-128284458D01*
X131201302Y-128047699D01*
X131438061Y-127693364D01*
X131521200Y-127275397D01*
X131521200Y-127232603D01*
X131438061Y-126814636D01*
X131201302Y-126460301D01*
X130846967Y-126223542D01*
X130839894Y-126222135D01*
X137257084Y-126222135D01*
X137534885Y-126894465D01*
X138048829Y-127409307D01*
X138720673Y-127688282D01*
X139448135Y-127688916D01*
X140120465Y-127411115D01*
X140635307Y-126897171D01*
X140914282Y-126225327D01*
X140914916Y-125497865D01*
X140637115Y-124825535D01*
X140123171Y-124310693D01*
X139451327Y-124031718D01*
X138723865Y-124031084D01*
X138051535Y-124308885D01*
X137536693Y-124822829D01*
X137257718Y-125494673D01*
X137257084Y-126222135D01*
X130839894Y-126222135D01*
X130429000Y-126140403D01*
X130011033Y-126223542D01*
X129656698Y-126460301D01*
X129419939Y-126814636D01*
X129336800Y-127232603D01*
X128981200Y-127232603D01*
X128898061Y-126814636D01*
X128661302Y-126460301D01*
X128306967Y-126223542D01*
X127889000Y-126140403D01*
X127471033Y-126223542D01*
X127116698Y-126460301D01*
X126879939Y-126814636D01*
X126796800Y-127232603D01*
X126796800Y-127275397D01*
X126879939Y-127693364D01*
X126892308Y-127711876D01*
X126516850Y-128087334D01*
X126740351Y-127654385D01*
X126639805Y-127431800D01*
X125526800Y-127431800D01*
X125526800Y-128543550D01*
X125749382Y-128645337D01*
X126049719Y-128520948D01*
X126265879Y-128338305D01*
X125648384Y-128955800D01*
X121646015Y-128955800D01*
X122947430Y-127654385D01*
X123957649Y-127654385D01*
X124216780Y-128156354D01*
X124648281Y-128520948D01*
X124948618Y-128645337D01*
X125171200Y-128543550D01*
X125171200Y-127431800D01*
X124058195Y-127431800D01*
X123957649Y-127654385D01*
X122947430Y-127654385D01*
X124181151Y-126420665D01*
X123957649Y-126853615D01*
X124058195Y-127076200D01*
X125171200Y-127076200D01*
X125171200Y-127056200D01*
X125526800Y-127056200D01*
X125526800Y-127076200D01*
X126639805Y-127076200D01*
X126740351Y-126853615D01*
X126481220Y-126351646D01*
X126049719Y-125987052D01*
X125749382Y-125862663D01*
X125526802Y-125964449D01*
X125526802Y-125806200D01*
X125456570Y-125806200D01*
X125766967Y-125744458D01*
X126121302Y-125507699D01*
X126358061Y-125153364D01*
X126441200Y-124735397D01*
X126441200Y-124692603D01*
X126796800Y-124692603D01*
X126796800Y-124735397D01*
X126879939Y-125153364D01*
X127116698Y-125507699D01*
X127471033Y-125744458D01*
X127889000Y-125827597D01*
X128306967Y-125744458D01*
X128661302Y-125507699D01*
X128898061Y-125153364D01*
X128981200Y-124735397D01*
X128981200Y-124692603D01*
X128898061Y-124274636D01*
X128661302Y-123920301D01*
X128556688Y-123850400D01*
X129332322Y-123850400D01*
X129332322Y-125577600D01*
X129348262Y-125662314D01*
X129398328Y-125740118D01*
X129474720Y-125792315D01*
X129565400Y-125810678D01*
X131292600Y-125810678D01*
X131377314Y-125794738D01*
X131455118Y-125744672D01*
X131507315Y-125668280D01*
X131525678Y-125577600D01*
X131525678Y-123850400D01*
X131509738Y-123765686D01*
X131459672Y-123687882D01*
X131383280Y-123635685D01*
X131292600Y-123617322D01*
X129565400Y-123617322D01*
X129480686Y-123633262D01*
X129402882Y-123683328D01*
X129350685Y-123759720D01*
X129332322Y-123850400D01*
X128556688Y-123850400D01*
X128306967Y-123683542D01*
X127889000Y-123600403D01*
X127471033Y-123683542D01*
X127116698Y-123920301D01*
X126879939Y-124274636D01*
X126796800Y-124692603D01*
X126441200Y-124692603D01*
X126358061Y-124274636D01*
X126121302Y-123920301D01*
X125766967Y-123683542D01*
X125349000Y-123600403D01*
X124931033Y-123683542D01*
X124576698Y-123920301D01*
X124339939Y-124274636D01*
X124256800Y-124692603D01*
X124256800Y-124735397D01*
X124339939Y-125153364D01*
X124352309Y-125171876D01*
X116189592Y-133334592D01*
X116107002Y-133458197D01*
X116102104Y-133482820D01*
X116078000Y-133604000D01*
X116078000Y-143891000D01*
X116107002Y-144036803D01*
X116189592Y-144160408D01*
X116522529Y-144493344D01*
X116522401Y-144639180D01*
X116609224Y-144849306D01*
X116769849Y-145010211D01*
X116979823Y-145097400D01*
X117207180Y-145097599D01*
X117417306Y-145010776D01*
X117578211Y-144850151D01*
X117665400Y-144640177D01*
X117665462Y-144569477D01*
X118135400Y-145039415D01*
X118135400Y-145587384D01*
X117444184Y-146278600D01*
X116911582Y-146278600D01*
X116808551Y-146175389D01*
X116598577Y-146088200D01*
X116371220Y-146088001D01*
X116161094Y-146174824D01*
X116000189Y-146335449D01*
X115913000Y-146545423D01*
X115912801Y-146772780D01*
X115999624Y-146982906D01*
X116160249Y-147143811D01*
X116370223Y-147231000D01*
X116597580Y-147231199D01*
X116807706Y-147144376D01*
X116911663Y-147040600D01*
X117399548Y-147040600D01*
X116210669Y-148229479D01*
X116192177Y-148221800D01*
X115964820Y-148221601D01*
X115754694Y-148308424D01*
X115593789Y-148469049D01*
X115506600Y-148679023D01*
X115506401Y-148906380D01*
X93013600Y-148906380D01*
X93013600Y-131357000D01*
X95436922Y-131357000D01*
X95436922Y-133057000D01*
X95452862Y-133141714D01*
X95502928Y-133219518D01*
X95579320Y-133271715D01*
X95670000Y-133290078D01*
X97370000Y-133290078D01*
X97454714Y-133274138D01*
X97532518Y-133224072D01*
X97584715Y-133147680D01*
X97603078Y-133057000D01*
X97603078Y-132185869D01*
X97981400Y-132185869D01*
X97981400Y-132228131D01*
X98063504Y-132640893D01*
X98297315Y-132990816D01*
X98647238Y-133224627D01*
X99060000Y-133306731D01*
X99472762Y-133224627D01*
X99740748Y-133045564D01*
X102997000Y-136301816D01*
X102997000Y-143764000D01*
X103026002Y-143909803D01*
X103108592Y-144033408D01*
X106997529Y-147922345D01*
X106997401Y-148068180D01*
X107084224Y-148278306D01*
X107244849Y-148439211D01*
X107454823Y-148526400D01*
X107682180Y-148526599D01*
X107892306Y-148439776D01*
X108053211Y-148279151D01*
X108140400Y-148069177D01*
X108140599Y-147841820D01*
X108053776Y-147631694D01*
X107893151Y-147470789D01*
X107683177Y-147383600D01*
X107536287Y-147383471D01*
X107376831Y-147224015D01*
X107454823Y-147256400D01*
X107682180Y-147256599D01*
X107892306Y-147169776D01*
X108053211Y-147009151D01*
X108140400Y-146799177D01*
X108140599Y-146571820D01*
X108053776Y-146361694D01*
X107893151Y-146200789D01*
X107683177Y-146113600D01*
X107536287Y-146113471D01*
X107376829Y-145954014D01*
X107454823Y-145986400D01*
X107682180Y-145986599D01*
X107892306Y-145899776D01*
X108053211Y-145739151D01*
X108140400Y-145529177D01*
X108140599Y-145301820D01*
X108053776Y-145091694D01*
X107893151Y-144930789D01*
X107683177Y-144843600D01*
X107536287Y-144843471D01*
X104902000Y-142209184D01*
X104902000Y-132991274D01*
X104902685Y-132990816D01*
X105136496Y-132640893D01*
X105218600Y-132228131D01*
X105218600Y-132185869D01*
X105601400Y-132185869D01*
X105601400Y-132228131D01*
X105683504Y-132640893D01*
X105917315Y-132990816D01*
X106267238Y-133224627D01*
X106375200Y-133246102D01*
X106375200Y-135382000D01*
X106398402Y-135498642D01*
X106464474Y-135597526D01*
X112339279Y-141472331D01*
X112331600Y-141490823D01*
X112331401Y-141718180D01*
X112418224Y-141928306D01*
X112578849Y-142089211D01*
X112788823Y-142176400D01*
X113016180Y-142176599D01*
X113226306Y-142089776D01*
X113387211Y-141929151D01*
X113474400Y-141719177D01*
X113474599Y-141491820D01*
X113387776Y-141281694D01*
X113227151Y-141120789D01*
X113017177Y-141033600D01*
X112789820Y-141033401D01*
X112770455Y-141041403D01*
X106984800Y-135255748D01*
X106984800Y-133246102D01*
X107092762Y-133224627D01*
X107442685Y-132990816D01*
X107676496Y-132640893D01*
X107758600Y-132228131D01*
X107758600Y-132185869D01*
X108141400Y-132185869D01*
X108141400Y-132228131D01*
X108223504Y-132640893D01*
X108457315Y-132990816D01*
X108807238Y-133224627D01*
X109220000Y-133306731D01*
X109632762Y-133224627D01*
X109982685Y-132990816D01*
X110216496Y-132640893D01*
X110298600Y-132228131D01*
X110298600Y-132185869D01*
X110681400Y-132185869D01*
X110681400Y-132228131D01*
X110763504Y-132640893D01*
X110997315Y-132990816D01*
X111347238Y-133224627D01*
X111760000Y-133306731D01*
X112172762Y-133224627D01*
X112522685Y-132990816D01*
X112756496Y-132640893D01*
X112763587Y-132605241D01*
X112922185Y-132605241D01*
X113179465Y-133102194D01*
X113607337Y-133462862D01*
X113901761Y-133584801D01*
X114122200Y-133482820D01*
X114122200Y-132384800D01*
X114477800Y-132384800D01*
X114477800Y-133482820D01*
X114698239Y-133584801D01*
X114992663Y-133462862D01*
X115420535Y-133102194D01*
X115677815Y-132605241D01*
X115577100Y-132384800D01*
X114477800Y-132384800D01*
X114122200Y-132384800D01*
X113022900Y-132384800D01*
X112922185Y-132605241D01*
X112763587Y-132605241D01*
X112838600Y-132228131D01*
X112838600Y-132185869D01*
X112763588Y-131808759D01*
X112922185Y-131808759D01*
X113022900Y-132029200D01*
X114122200Y-132029200D01*
X114122200Y-130931180D01*
X114477800Y-130931180D01*
X114477800Y-132029200D01*
X115577100Y-132029200D01*
X115677815Y-131808759D01*
X115420535Y-131311806D01*
X114992663Y-130951138D01*
X114698239Y-130829199D01*
X114477800Y-130931180D01*
X114122200Y-130931180D01*
X113901761Y-130829199D01*
X113607337Y-130951138D01*
X113179465Y-131311806D01*
X112922185Y-131808759D01*
X112763588Y-131808759D01*
X112756496Y-131773107D01*
X112522685Y-131423184D01*
X112172762Y-131189373D01*
X111760000Y-131107269D01*
X111347238Y-131189373D01*
X110997315Y-131423184D01*
X110763504Y-131773107D01*
X110681400Y-132185869D01*
X110298600Y-132185869D01*
X110216496Y-131773107D01*
X109982685Y-131423184D01*
X109632762Y-131189373D01*
X109220000Y-131107269D01*
X108807238Y-131189373D01*
X108457315Y-131423184D01*
X108223504Y-131773107D01*
X108141400Y-132185869D01*
X107758600Y-132185869D01*
X107676496Y-131773107D01*
X107442685Y-131423184D01*
X107092762Y-131189373D01*
X106680000Y-131107269D01*
X106267238Y-131189373D01*
X105917315Y-131423184D01*
X105683504Y-131773107D01*
X105601400Y-132185869D01*
X105218600Y-132185869D01*
X105136496Y-131773107D01*
X104902685Y-131423184D01*
X104552762Y-131189373D01*
X104140000Y-131107269D01*
X103727238Y-131189373D01*
X103377315Y-131423184D01*
X103143504Y-131773107D01*
X103061400Y-132185869D01*
X103061400Y-132228131D01*
X103143504Y-132640893D01*
X103377315Y-132990816D01*
X103727238Y-133224627D01*
X104140000Y-133306731D01*
X104140000Y-133827184D01*
X102655762Y-132342946D01*
X102678600Y-132228131D01*
X102678600Y-132185869D01*
X102596496Y-131773107D01*
X102362685Y-131423184D01*
X102012762Y-131189373D01*
X101600000Y-131107269D01*
X101187238Y-131189373D01*
X100837315Y-131423184D01*
X100603504Y-131773107D01*
X100521400Y-132185869D01*
X100521400Y-132228131D01*
X100603504Y-132640893D01*
X100837315Y-132990816D01*
X101187238Y-133224627D01*
X101600000Y-133306731D01*
X102012762Y-133224627D01*
X102280748Y-133045564D01*
X103632000Y-134396816D01*
X103632000Y-135859184D01*
X100115762Y-132342946D01*
X100138600Y-132228131D01*
X100138600Y-132185869D01*
X100056496Y-131773107D01*
X99822685Y-131423184D01*
X99472762Y-131189373D01*
X99060000Y-131107269D01*
X98647238Y-131189373D01*
X98297315Y-131423184D01*
X98063504Y-131773107D01*
X97981400Y-132185869D01*
X97603078Y-132185869D01*
X97603078Y-131357000D01*
X97587138Y-131272286D01*
X97537072Y-131194482D01*
X97460680Y-131142285D01*
X97370000Y-131123922D01*
X95670000Y-131123922D01*
X95585286Y-131139862D01*
X95507482Y-131189928D01*
X95455285Y-131266320D01*
X95436922Y-131357000D01*
X93013600Y-131357000D01*
X93013600Y-120953600D01*
X143608400Y-120953600D01*
X143608400Y-129540000D01*
M02*
