G04 #@! TF.FileFunction,Copper,L4,Bot,Signal*
%FSLAX46Y46*%
G04 Gerber Fmt 4.6, Leading zero omitted, Abs format (unit mm)*
G04 Created by KiCad (PCBNEW 4.0.2-4+6225~38~ubuntu14.04.1-stable) date Thu 30 Mar 2017 04:50:54 PM CEST*
%MOMM*%
G01*
G04 APERTURE LIST*
%ADD10C,0.100000*%
%ADD11R,2.032000X2.032000*%
%ADD12O,2.032000X2.032000*%
%ADD13R,2.235200X2.235200*%
%ADD14R,2.000000X1.700000*%
%ADD15R,1.700000X1.700000*%
%ADD16O,1.700000X1.700000*%
%ADD17C,0.685800*%
%ADD18C,0.152400*%
%ADD19C,0.304800*%
%ADD20C,0.609600*%
G04 APERTURE END LIST*
D10*
D11*
X98679000Y-175768000D03*
D12*
X96139000Y-175768000D03*
D11*
X148031200Y-131775200D03*
D12*
X150571200Y-131775200D03*
D13*
X96266000Y-171831000D03*
D14*
X146812000Y-141224000D03*
X146812000Y-138724000D03*
X146812000Y-136224000D03*
X146812000Y-144224000D03*
X146812000Y-146724000D03*
X146812000Y-149224000D03*
X146812000Y-152224000D03*
X146812000Y-154724000D03*
X146812000Y-157224000D03*
X146812000Y-160224000D03*
X146812000Y-162724000D03*
X146812000Y-165224000D03*
D15*
X96520000Y-132207000D03*
D16*
X99060000Y-132207000D03*
X101600000Y-132207000D03*
X104140000Y-132207000D03*
X106680000Y-132207000D03*
X109220000Y-132207000D03*
X111760000Y-132207000D03*
X114300000Y-132207000D03*
D15*
X95504000Y-146050000D03*
D16*
X95504000Y-148590000D03*
D15*
X100812600Y-143586200D03*
D16*
X100812600Y-146126200D03*
X100812600Y-148666200D03*
D17*
X123825000Y-127889000D03*
X128905000Y-168783000D03*
X127762000Y-160020000D03*
X132207000Y-168656000D03*
X127762000Y-151892000D03*
X107569000Y-145415000D03*
X107569000Y-146685000D03*
X107569000Y-147955000D03*
X108839000Y-166243000D03*
X106807000Y-162179000D03*
X135128000Y-154051000D03*
X135128000Y-145923000D03*
X110617000Y-168783000D03*
X135128000Y-161798000D03*
X94361000Y-165227000D03*
X99822000Y-161290000D03*
X118237000Y-128016000D03*
X117094000Y-144526000D03*
X111760000Y-141605000D03*
X112776000Y-143510000D03*
X107696000Y-168656000D03*
X97282000Y-154686000D03*
X113665000Y-168783000D03*
X94488000Y-160655000D03*
X112649000Y-147828000D03*
X127508000Y-121666000D03*
X131318000Y-124460000D03*
X116586000Y-146685000D03*
X134239000Y-139573000D03*
X131318000Y-126365000D03*
X130683000Y-160020000D03*
X130683000Y-152019000D03*
X130683000Y-168021000D03*
X115824000Y-150876000D03*
X121412000Y-147574000D03*
D18*
X128905000Y-168783000D02*
X128905000Y-164338000D01*
X128905000Y-161163000D02*
X127762000Y-160020000D01*
X128905000Y-164338000D02*
X128905000Y-161163000D01*
X132207000Y-168656000D02*
X132207000Y-162560000D01*
X132207000Y-156337000D02*
X127762000Y-151892000D01*
X132207000Y-162560000D02*
X132207000Y-156337000D01*
D19*
X104521000Y-142367000D02*
X107569000Y-145415000D01*
X104521000Y-141732000D02*
X104521000Y-142367000D01*
X104521000Y-132207000D02*
X104521000Y-141732000D01*
X101981000Y-132207000D02*
X104013000Y-134239000D01*
X104013000Y-134239000D02*
X104013000Y-143129000D01*
X104013000Y-143129000D02*
X107569000Y-146685000D01*
X107569000Y-147955000D02*
X103378000Y-143764000D01*
X103378000Y-136144000D02*
X99441000Y-132207000D01*
X103378000Y-143764000D02*
X103378000Y-136144000D01*
D20*
X94361000Y-165227000D02*
X94361000Y-165354000D01*
X99822000Y-161290000D02*
X99822000Y-161417000D01*
D19*
X116459000Y-130048000D02*
X116459000Y-129794000D01*
X116459000Y-129794000D02*
X118237000Y-128016000D01*
X117094000Y-144526000D02*
X116459000Y-143891000D01*
X116459000Y-143891000D02*
X116459000Y-133604000D01*
X116459000Y-133604000D02*
X116459000Y-130048000D01*
D18*
X111760000Y-141605000D02*
X110109000Y-141605000D01*
X110109000Y-141605000D02*
X106680000Y-138176000D01*
X106680000Y-138176000D02*
X106680000Y-132207000D01*
X112776000Y-143510000D02*
X112395000Y-143129000D01*
X112395000Y-143129000D02*
X112395000Y-141224000D01*
X112395000Y-141224000D02*
X109220000Y-138049000D01*
X109220000Y-138049000D02*
X109220000Y-132207000D01*
X150571200Y-131775200D02*
X150571200Y-132334000D01*
D19*
X100812600Y-143586200D02*
X107696000Y-150469600D01*
X107696000Y-150469600D02*
X107696000Y-168656000D01*
D20*
X103251000Y-173482000D02*
X108966000Y-173482000D01*
X108966000Y-173482000D02*
X113665000Y-168783000D01*
X94488000Y-160655000D02*
X103251000Y-169418000D01*
X103251000Y-169418000D02*
X103251000Y-173482000D01*
X94488000Y-160655000D02*
X94488000Y-160782000D01*
D19*
X114808000Y-145669000D02*
X112649000Y-147828000D01*
X116955418Y-145669000D02*
X114808000Y-145669000D01*
X122301000Y-140323418D02*
X116955418Y-145669000D01*
X122301000Y-124333000D02*
X122301000Y-140323418D01*
X125222000Y-121412000D02*
X122301000Y-124333000D01*
X127254000Y-121412000D02*
X125222000Y-121412000D01*
X127508000Y-121666000D02*
X127254000Y-121412000D01*
X131318000Y-124460000D02*
X132588000Y-124460000D01*
X134239000Y-126111000D02*
X134239000Y-139573000D01*
X132588000Y-124460000D02*
X134239000Y-126111000D01*
X116586000Y-146685000D02*
X123698000Y-139573000D01*
X123698000Y-139573000D02*
X134239000Y-139573000D01*
D18*
G36*
X143608400Y-129540000D02*
X143631510Y-129656183D01*
X143697322Y-129754678D01*
X143795817Y-129820490D01*
X143912000Y-129843600D01*
X154636400Y-129843600D01*
X154636400Y-169876400D01*
X143912000Y-169876400D01*
X143795817Y-169899510D01*
X143697322Y-169965322D01*
X143631510Y-170063817D01*
X143608400Y-170180000D01*
X143608400Y-178766400D01*
X93013600Y-178766400D01*
X93013600Y-176192389D01*
X94596089Y-176192389D01*
X94875943Y-176750531D01*
X95348086Y-177159091D01*
X95714613Y-177310899D01*
X95961200Y-177211239D01*
X95961200Y-175945800D01*
X94694746Y-175945800D01*
X94596089Y-176192389D01*
X93013600Y-176192389D01*
X93013600Y-175343611D01*
X94596089Y-175343611D01*
X94694746Y-175590200D01*
X95961200Y-175590200D01*
X95961200Y-174324761D01*
X96316800Y-174324761D01*
X96316800Y-175590200D01*
X96336800Y-175590200D01*
X96336800Y-175945800D01*
X96316800Y-175945800D01*
X96316800Y-177211239D01*
X96563387Y-177310899D01*
X96929914Y-177159091D01*
X97402057Y-176750531D01*
X97429922Y-176694957D01*
X97429922Y-176784000D01*
X97445862Y-176868714D01*
X97495928Y-176946518D01*
X97572320Y-176998715D01*
X97663000Y-177017078D01*
X99695000Y-177017078D01*
X99779714Y-177001138D01*
X99857518Y-176951072D01*
X99909715Y-176874680D01*
X99928078Y-176784000D01*
X99928078Y-174752000D01*
X99912138Y-174667286D01*
X99862072Y-174589482D01*
X99785680Y-174537285D01*
X99695000Y-174518922D01*
X97663000Y-174518922D01*
X97578286Y-174534862D01*
X97500482Y-174584928D01*
X97448285Y-174661320D01*
X97429922Y-174752000D01*
X97429922Y-174841043D01*
X97402057Y-174785469D01*
X96929914Y-174376909D01*
X96563387Y-174225101D01*
X96316800Y-174324761D01*
X95961200Y-174324761D01*
X95714613Y-174225101D01*
X95348086Y-174376909D01*
X94875943Y-174785469D01*
X94596089Y-175343611D01*
X93013600Y-175343611D01*
X93013600Y-174222135D01*
X137257084Y-174222135D01*
X137534885Y-174894465D01*
X138048829Y-175409307D01*
X138720673Y-175688282D01*
X139448135Y-175688916D01*
X140120465Y-175411115D01*
X140635307Y-174897171D01*
X140914282Y-174225327D01*
X140914916Y-173497865D01*
X140637115Y-172825535D01*
X140123171Y-172310693D01*
X139451327Y-172031718D01*
X138723865Y-172031084D01*
X138051535Y-172308885D01*
X137536693Y-172822829D01*
X137257718Y-173494673D01*
X137257084Y-174222135D01*
X93013600Y-174222135D01*
X93013600Y-170713400D01*
X94915322Y-170713400D01*
X94915322Y-172948600D01*
X94931262Y-173033314D01*
X94981328Y-173111118D01*
X95057720Y-173163315D01*
X95148400Y-173181678D01*
X97383600Y-173181678D01*
X97468314Y-173165738D01*
X97546118Y-173115672D01*
X97598315Y-173039280D01*
X97616678Y-172948600D01*
X97616678Y-170713400D01*
X97600738Y-170628686D01*
X97550672Y-170550882D01*
X97474280Y-170498685D01*
X97383600Y-170480322D01*
X95148400Y-170480322D01*
X95063686Y-170496262D01*
X94985882Y-170546328D01*
X94933685Y-170622720D01*
X94915322Y-170713400D01*
X93013600Y-170713400D01*
X93013600Y-165340180D01*
X93789401Y-165340180D01*
X93857759Y-165505617D01*
X93868203Y-165558123D01*
X93983829Y-165731171D01*
X94156877Y-165846797D01*
X94361000Y-165887400D01*
X94565123Y-165846797D01*
X94738171Y-165731171D01*
X94853797Y-165558123D01*
X94864354Y-165505049D01*
X94932400Y-165341177D01*
X94932599Y-165113820D01*
X94845776Y-164903694D01*
X94685151Y-164742789D01*
X94475177Y-164655600D01*
X94247820Y-164655401D01*
X94037694Y-164742224D01*
X93876789Y-164902849D01*
X93789600Y-165112823D01*
X93789401Y-165340180D01*
X93013600Y-165340180D01*
X93013600Y-160768180D01*
X93916401Y-160768180D01*
X93984759Y-160933617D01*
X93995203Y-160986123D01*
X94110829Y-161159171D01*
X94283877Y-161274797D01*
X94370732Y-161292074D01*
X102717600Y-169638941D01*
X102717600Y-173482000D01*
X102758203Y-173686123D01*
X102873829Y-173859171D01*
X103046877Y-173974797D01*
X103251000Y-174015400D01*
X108966000Y-174015400D01*
X109170123Y-173974797D01*
X109343171Y-173859171D01*
X113896724Y-169305617D01*
X113988306Y-169267776D01*
X114149211Y-169107151D01*
X114236400Y-168897177D01*
X114236599Y-168669820D01*
X114149776Y-168459694D01*
X113989151Y-168298789D01*
X113779177Y-168211600D01*
X113551820Y-168211401D01*
X113341694Y-168298224D01*
X113180789Y-168458849D01*
X113142429Y-168551230D01*
X108745058Y-172948600D01*
X103784400Y-172948600D01*
X103784400Y-169418000D01*
X103743797Y-169213877D01*
X103743797Y-169213876D01*
X103694575Y-169140211D01*
X103628171Y-169040829D01*
X103628168Y-169040827D01*
X95990522Y-161403180D01*
X99250401Y-161403180D01*
X99318759Y-161568617D01*
X99329203Y-161621123D01*
X99444829Y-161794171D01*
X99617877Y-161909797D01*
X99822000Y-161950400D01*
X100026123Y-161909797D01*
X100199171Y-161794171D01*
X100314797Y-161621123D01*
X100325354Y-161568049D01*
X100393400Y-161404177D01*
X100393599Y-161176820D01*
X100306776Y-160966694D01*
X100146151Y-160805789D01*
X99936177Y-160718600D01*
X99708820Y-160718401D01*
X99498694Y-160805224D01*
X99337789Y-160965849D01*
X99250600Y-161175823D01*
X99250401Y-161403180D01*
X95990522Y-161403180D01*
X95010617Y-160423275D01*
X94972776Y-160331694D01*
X94812151Y-160170789D01*
X94602177Y-160083600D01*
X94374820Y-160083401D01*
X94164694Y-160170224D01*
X94003789Y-160330849D01*
X93916600Y-160540823D01*
X93916401Y-160768180D01*
X93013600Y-160768180D01*
X93013600Y-154799180D01*
X96710401Y-154799180D01*
X96797224Y-155009306D01*
X96957849Y-155170211D01*
X97167823Y-155257400D01*
X97395180Y-155257599D01*
X97605306Y-155170776D01*
X97766211Y-155010151D01*
X97853400Y-154800177D01*
X97853599Y-154572820D01*
X97766776Y-154362694D01*
X97606151Y-154201789D01*
X97396177Y-154114600D01*
X97168820Y-154114401D01*
X96958694Y-154201224D01*
X96797789Y-154361849D01*
X96710600Y-154571823D01*
X96710401Y-154799180D01*
X93013600Y-154799180D01*
X93013600Y-148988239D01*
X94126199Y-148988239D01*
X94248138Y-149282663D01*
X94608806Y-149710535D01*
X95105759Y-149967815D01*
X95326200Y-149867100D01*
X95326200Y-148767800D01*
X95681800Y-148767800D01*
X95681800Y-149867100D01*
X95902241Y-149967815D01*
X96399194Y-149710535D01*
X96759862Y-149282663D01*
X96881801Y-148988239D01*
X96779820Y-148767800D01*
X95681800Y-148767800D01*
X95326200Y-148767800D01*
X94228180Y-148767800D01*
X94126199Y-148988239D01*
X93013600Y-148988239D01*
X93013600Y-148666200D01*
X99712869Y-148666200D01*
X99794973Y-149078962D01*
X100028784Y-149428885D01*
X100378707Y-149662696D01*
X100791469Y-149744800D01*
X100833731Y-149744800D01*
X101246493Y-149662696D01*
X101596416Y-149428885D01*
X101830227Y-149078962D01*
X101912331Y-148666200D01*
X101830227Y-148253438D01*
X101596416Y-147903515D01*
X101246493Y-147669704D01*
X100833731Y-147587600D01*
X100791469Y-147587600D01*
X100378707Y-147669704D01*
X100028784Y-147903515D01*
X99794973Y-148253438D01*
X99712869Y-148666200D01*
X93013600Y-148666200D01*
X93013600Y-148191761D01*
X94126199Y-148191761D01*
X94228180Y-148412200D01*
X95326200Y-148412200D01*
X95326200Y-147312900D01*
X95681800Y-147312900D01*
X95681800Y-148412200D01*
X96779820Y-148412200D01*
X96881801Y-148191761D01*
X96759862Y-147897337D01*
X96399194Y-147469465D01*
X95902241Y-147212185D01*
X95681800Y-147312900D01*
X95326200Y-147312900D01*
X95105759Y-147212185D01*
X94608806Y-147469465D01*
X94248138Y-147897337D01*
X94126199Y-148191761D01*
X93013600Y-148191761D01*
X93013600Y-145200000D01*
X94420922Y-145200000D01*
X94420922Y-146900000D01*
X94436862Y-146984714D01*
X94486928Y-147062518D01*
X94563320Y-147114715D01*
X94654000Y-147133078D01*
X96354000Y-147133078D01*
X96438714Y-147117138D01*
X96516518Y-147067072D01*
X96568715Y-146990680D01*
X96587078Y-146900000D01*
X96587078Y-146126200D01*
X99712869Y-146126200D01*
X99794973Y-146538962D01*
X100028784Y-146888885D01*
X100378707Y-147122696D01*
X100791469Y-147204800D01*
X100833731Y-147204800D01*
X101246493Y-147122696D01*
X101596416Y-146888885D01*
X101830227Y-146538962D01*
X101912331Y-146126200D01*
X101830227Y-145713438D01*
X101596416Y-145363515D01*
X101246493Y-145129704D01*
X100833731Y-145047600D01*
X100791469Y-145047600D01*
X100378707Y-145129704D01*
X100028784Y-145363515D01*
X99794973Y-145713438D01*
X99712869Y-146126200D01*
X96587078Y-146126200D01*
X96587078Y-145200000D01*
X96571138Y-145115286D01*
X96521072Y-145037482D01*
X96444680Y-144985285D01*
X96354000Y-144966922D01*
X94654000Y-144966922D01*
X94569286Y-144982862D01*
X94491482Y-145032928D01*
X94439285Y-145109320D01*
X94420922Y-145200000D01*
X93013600Y-145200000D01*
X93013600Y-142736200D01*
X99729522Y-142736200D01*
X99729522Y-144436200D01*
X99745462Y-144520914D01*
X99795528Y-144598718D01*
X99871920Y-144650915D01*
X99962600Y-144669278D01*
X101356862Y-144669278D01*
X107315000Y-150627415D01*
X107315000Y-161911900D01*
X107291776Y-161855694D01*
X107131151Y-161694789D01*
X106921177Y-161607600D01*
X106693820Y-161607401D01*
X106483694Y-161694224D01*
X106322789Y-161854849D01*
X106235600Y-162064823D01*
X106235401Y-162292180D01*
X106322224Y-162502306D01*
X106482849Y-162663211D01*
X106692823Y-162750400D01*
X106920180Y-162750599D01*
X107130306Y-162663776D01*
X107291211Y-162503151D01*
X107315000Y-162445861D01*
X107315000Y-168228818D01*
X107211789Y-168331849D01*
X107124600Y-168541823D01*
X107124401Y-168769180D01*
X107211224Y-168979306D01*
X107371849Y-169140211D01*
X107581823Y-169227400D01*
X107809180Y-169227599D01*
X108019306Y-169140776D01*
X108180211Y-168980151D01*
X108215078Y-168896180D01*
X110045401Y-168896180D01*
X110132224Y-169106306D01*
X110292849Y-169267211D01*
X110502823Y-169354400D01*
X110730180Y-169354599D01*
X110940306Y-169267776D01*
X111101211Y-169107151D01*
X111188400Y-168897177D01*
X111188599Y-168669820D01*
X111101776Y-168459694D01*
X110941151Y-168298789D01*
X110731177Y-168211600D01*
X110503820Y-168211401D01*
X110293694Y-168298224D01*
X110132789Y-168458849D01*
X110045600Y-168668823D01*
X110045401Y-168896180D01*
X108215078Y-168896180D01*
X108267400Y-168770177D01*
X108267599Y-168542820D01*
X108180776Y-168332694D01*
X108077000Y-168228737D01*
X108077000Y-166356180D01*
X108267401Y-166356180D01*
X108354224Y-166566306D01*
X108514849Y-166727211D01*
X108724823Y-166814400D01*
X108952180Y-166814599D01*
X109162306Y-166727776D01*
X109323211Y-166567151D01*
X109410400Y-166357177D01*
X109410599Y-166129820D01*
X109323776Y-165919694D01*
X109163151Y-165758789D01*
X108953177Y-165671600D01*
X108725820Y-165671401D01*
X108515694Y-165758224D01*
X108354789Y-165918849D01*
X108267600Y-166128823D01*
X108267401Y-166356180D01*
X108077000Y-166356180D01*
X108077000Y-160133180D01*
X127190401Y-160133180D01*
X127277224Y-160343306D01*
X127437849Y-160504211D01*
X127647823Y-160591400D01*
X127875180Y-160591599D01*
X127894545Y-160583597D01*
X128600200Y-161289252D01*
X128600200Y-168290577D01*
X128581694Y-168298224D01*
X128420789Y-168458849D01*
X128333600Y-168668823D01*
X128333401Y-168896180D01*
X128420224Y-169106306D01*
X128580849Y-169267211D01*
X128790823Y-169354400D01*
X129018180Y-169354599D01*
X129228306Y-169267776D01*
X129389211Y-169107151D01*
X129476400Y-168897177D01*
X129476599Y-168669820D01*
X129389776Y-168459694D01*
X129229151Y-168298789D01*
X129209800Y-168290754D01*
X129209800Y-168134180D01*
X130111401Y-168134180D01*
X130198224Y-168344306D01*
X130358849Y-168505211D01*
X130568823Y-168592400D01*
X130796180Y-168592599D01*
X131006306Y-168505776D01*
X131167211Y-168345151D01*
X131254400Y-168135177D01*
X131254599Y-167907820D01*
X131167776Y-167697694D01*
X131007151Y-167536789D01*
X130797177Y-167449600D01*
X130569820Y-167449401D01*
X130359694Y-167536224D01*
X130198789Y-167696849D01*
X130111600Y-167906823D01*
X130111401Y-168134180D01*
X129209800Y-168134180D01*
X129209800Y-161163000D01*
X129186598Y-161046358D01*
X129120526Y-160947474D01*
X128325721Y-160152669D01*
X128333400Y-160134177D01*
X128333400Y-160133180D01*
X130111401Y-160133180D01*
X130198224Y-160343306D01*
X130358849Y-160504211D01*
X130568823Y-160591400D01*
X130796180Y-160591599D01*
X131006306Y-160504776D01*
X131167211Y-160344151D01*
X131254400Y-160134177D01*
X131254599Y-159906820D01*
X131167776Y-159696694D01*
X131007151Y-159535789D01*
X130797177Y-159448600D01*
X130569820Y-159448401D01*
X130359694Y-159535224D01*
X130198789Y-159695849D01*
X130111600Y-159905823D01*
X130111401Y-160133180D01*
X128333400Y-160133180D01*
X128333599Y-159906820D01*
X128246776Y-159696694D01*
X128086151Y-159535789D01*
X127876177Y-159448600D01*
X127648820Y-159448401D01*
X127438694Y-159535224D01*
X127277789Y-159695849D01*
X127190600Y-159905823D01*
X127190401Y-160133180D01*
X108077000Y-160133180D01*
X108077000Y-152005180D01*
X127190401Y-152005180D01*
X127277224Y-152215306D01*
X127437849Y-152376211D01*
X127647823Y-152463400D01*
X127875180Y-152463599D01*
X127894545Y-152455597D01*
X131902200Y-156463252D01*
X131902200Y-168163577D01*
X131883694Y-168171224D01*
X131722789Y-168331849D01*
X131635600Y-168541823D01*
X131635401Y-168769180D01*
X131722224Y-168979306D01*
X131882849Y-169140211D01*
X132092823Y-169227400D01*
X132320180Y-169227599D01*
X132530306Y-169140776D01*
X132691211Y-168980151D01*
X132778400Y-168770177D01*
X132778599Y-168542820D01*
X132691776Y-168332694D01*
X132531151Y-168171789D01*
X132511800Y-168163754D01*
X132511800Y-163047850D01*
X145227800Y-163047850D01*
X145227800Y-163690204D01*
X145316739Y-163904922D01*
X145481077Y-164069261D01*
X145695795Y-164158200D01*
X145725207Y-164158200D01*
X145649482Y-164206928D01*
X145597285Y-164283320D01*
X145578922Y-164374000D01*
X145578922Y-166074000D01*
X145594862Y-166158714D01*
X145644928Y-166236518D01*
X145721320Y-166288715D01*
X145812000Y-166307078D01*
X147812000Y-166307078D01*
X147896714Y-166291138D01*
X147974518Y-166241072D01*
X148026715Y-166164680D01*
X148045078Y-166074000D01*
X148045078Y-164374000D01*
X148029138Y-164289286D01*
X147979072Y-164211482D01*
X147902680Y-164159285D01*
X147897322Y-164158200D01*
X147928205Y-164158200D01*
X148142923Y-164069261D01*
X148307261Y-163904922D01*
X148396200Y-163690204D01*
X148396200Y-163047850D01*
X148250150Y-162901800D01*
X146989800Y-162901800D01*
X146989800Y-162921800D01*
X146634200Y-162921800D01*
X146634200Y-162901800D01*
X145373850Y-162901800D01*
X145227800Y-163047850D01*
X132511800Y-163047850D01*
X132511800Y-161911180D01*
X134556401Y-161911180D01*
X134643224Y-162121306D01*
X134803849Y-162282211D01*
X135013823Y-162369400D01*
X135241180Y-162369599D01*
X135451306Y-162282776D01*
X135612211Y-162122151D01*
X135699400Y-161912177D01*
X135699535Y-161757796D01*
X145227800Y-161757796D01*
X145227800Y-162400150D01*
X145373850Y-162546200D01*
X146634200Y-162546200D01*
X146634200Y-162526200D01*
X146989800Y-162526200D01*
X146989800Y-162546200D01*
X148250150Y-162546200D01*
X148396200Y-162400150D01*
X148396200Y-161757796D01*
X148307261Y-161543078D01*
X148142923Y-161378739D01*
X147928205Y-161289800D01*
X147898793Y-161289800D01*
X147974518Y-161241072D01*
X148026715Y-161164680D01*
X148045078Y-161074000D01*
X148045078Y-159374000D01*
X148029138Y-159289286D01*
X147979072Y-159211482D01*
X147902680Y-159159285D01*
X147812000Y-159140922D01*
X145812000Y-159140922D01*
X145727286Y-159156862D01*
X145649482Y-159206928D01*
X145597285Y-159283320D01*
X145578922Y-159374000D01*
X145578922Y-161074000D01*
X145594862Y-161158714D01*
X145644928Y-161236518D01*
X145721320Y-161288715D01*
X145726678Y-161289800D01*
X145695795Y-161289800D01*
X145481077Y-161378739D01*
X145316739Y-161543078D01*
X145227800Y-161757796D01*
X135699535Y-161757796D01*
X135699599Y-161684820D01*
X135612776Y-161474694D01*
X135452151Y-161313789D01*
X135242177Y-161226600D01*
X135014820Y-161226401D01*
X134804694Y-161313224D01*
X134643789Y-161473849D01*
X134556600Y-161683823D01*
X134556401Y-161911180D01*
X132511800Y-161911180D01*
X132511800Y-156337000D01*
X132488598Y-156220358D01*
X132422526Y-156121474D01*
X131348902Y-155047850D01*
X145227800Y-155047850D01*
X145227800Y-155690204D01*
X145316739Y-155904922D01*
X145481077Y-156069261D01*
X145695795Y-156158200D01*
X145725207Y-156158200D01*
X145649482Y-156206928D01*
X145597285Y-156283320D01*
X145578922Y-156374000D01*
X145578922Y-158074000D01*
X145594862Y-158158714D01*
X145644928Y-158236518D01*
X145721320Y-158288715D01*
X145812000Y-158307078D01*
X147812000Y-158307078D01*
X147896714Y-158291138D01*
X147974518Y-158241072D01*
X148026715Y-158164680D01*
X148045078Y-158074000D01*
X148045078Y-156374000D01*
X148029138Y-156289286D01*
X147979072Y-156211482D01*
X147902680Y-156159285D01*
X147897322Y-156158200D01*
X147928205Y-156158200D01*
X148142923Y-156069261D01*
X148307261Y-155904922D01*
X148396200Y-155690204D01*
X148396200Y-155047850D01*
X148250150Y-154901800D01*
X146989800Y-154901800D01*
X146989800Y-154921800D01*
X146634200Y-154921800D01*
X146634200Y-154901800D01*
X145373850Y-154901800D01*
X145227800Y-155047850D01*
X131348902Y-155047850D01*
X130465232Y-154164180D01*
X134556401Y-154164180D01*
X134643224Y-154374306D01*
X134803849Y-154535211D01*
X135013823Y-154622400D01*
X135241180Y-154622599D01*
X135451306Y-154535776D01*
X135612211Y-154375151D01*
X135699400Y-154165177D01*
X135699599Y-153937820D01*
X135625214Y-153757796D01*
X145227800Y-153757796D01*
X145227800Y-154400150D01*
X145373850Y-154546200D01*
X146634200Y-154546200D01*
X146634200Y-154526200D01*
X146989800Y-154526200D01*
X146989800Y-154546200D01*
X148250150Y-154546200D01*
X148396200Y-154400150D01*
X148396200Y-153757796D01*
X148307261Y-153543078D01*
X148142923Y-153378739D01*
X147928205Y-153289800D01*
X147898793Y-153289800D01*
X147974518Y-153241072D01*
X148026715Y-153164680D01*
X148045078Y-153074000D01*
X148045078Y-151374000D01*
X148029138Y-151289286D01*
X147979072Y-151211482D01*
X147902680Y-151159285D01*
X147812000Y-151140922D01*
X145812000Y-151140922D01*
X145727286Y-151156862D01*
X145649482Y-151206928D01*
X145597285Y-151283320D01*
X145578922Y-151374000D01*
X145578922Y-153074000D01*
X145594862Y-153158714D01*
X145644928Y-153236518D01*
X145721320Y-153288715D01*
X145726678Y-153289800D01*
X145695795Y-153289800D01*
X145481077Y-153378739D01*
X145316739Y-153543078D01*
X145227800Y-153757796D01*
X135625214Y-153757796D01*
X135612776Y-153727694D01*
X135452151Y-153566789D01*
X135242177Y-153479600D01*
X135014820Y-153479401D01*
X134804694Y-153566224D01*
X134643789Y-153726849D01*
X134556600Y-153936823D01*
X134556401Y-154164180D01*
X130465232Y-154164180D01*
X128433232Y-152132180D01*
X130111401Y-152132180D01*
X130198224Y-152342306D01*
X130358849Y-152503211D01*
X130568823Y-152590400D01*
X130796180Y-152590599D01*
X131006306Y-152503776D01*
X131167211Y-152343151D01*
X131254400Y-152133177D01*
X131254599Y-151905820D01*
X131167776Y-151695694D01*
X131007151Y-151534789D01*
X130797177Y-151447600D01*
X130569820Y-151447401D01*
X130359694Y-151534224D01*
X130198789Y-151694849D01*
X130111600Y-151904823D01*
X130111401Y-152132180D01*
X128433232Y-152132180D01*
X128325721Y-152024669D01*
X128333400Y-152006177D01*
X128333599Y-151778820D01*
X128246776Y-151568694D01*
X128086151Y-151407789D01*
X127876177Y-151320600D01*
X127648820Y-151320401D01*
X127438694Y-151407224D01*
X127277789Y-151567849D01*
X127190600Y-151777823D01*
X127190401Y-152005180D01*
X108077000Y-152005180D01*
X108077000Y-150989180D01*
X115252401Y-150989180D01*
X115339224Y-151199306D01*
X115499849Y-151360211D01*
X115709823Y-151447400D01*
X115937180Y-151447599D01*
X116147306Y-151360776D01*
X116308211Y-151200151D01*
X116395400Y-150990177D01*
X116395599Y-150762820D01*
X116308776Y-150552694D01*
X116148151Y-150391789D01*
X115938177Y-150304600D01*
X115710820Y-150304401D01*
X115500694Y-150391224D01*
X115339789Y-150551849D01*
X115252600Y-150761823D01*
X115252401Y-150989180D01*
X108077000Y-150989180D01*
X108077000Y-150469605D01*
X108077001Y-150469600D01*
X108047998Y-150323798D01*
X108035037Y-150304401D01*
X107965408Y-150200192D01*
X107965405Y-150200190D01*
X101895678Y-144130462D01*
X101895678Y-142736200D01*
X101879738Y-142651486D01*
X101829672Y-142573682D01*
X101753280Y-142521485D01*
X101662600Y-142503122D01*
X99962600Y-142503122D01*
X99877886Y-142519062D01*
X99800082Y-142569128D01*
X99747885Y-142645520D01*
X99729522Y-142736200D01*
X93013600Y-142736200D01*
X93013600Y-131357000D01*
X95436922Y-131357000D01*
X95436922Y-133057000D01*
X95452862Y-133141714D01*
X95502928Y-133219518D01*
X95579320Y-133271715D01*
X95670000Y-133290078D01*
X97370000Y-133290078D01*
X97454714Y-133274138D01*
X97532518Y-133224072D01*
X97584715Y-133147680D01*
X97603078Y-133057000D01*
X97603078Y-132185869D01*
X97981400Y-132185869D01*
X97981400Y-132228131D01*
X98063504Y-132640893D01*
X98297315Y-132990816D01*
X98647238Y-133224627D01*
X99060000Y-133306731D01*
X99472762Y-133224627D01*
X99740748Y-133045564D01*
X102997000Y-136301816D01*
X102997000Y-143764000D01*
X103026002Y-143909803D01*
X103108592Y-144033408D01*
X106997529Y-147922345D01*
X106997401Y-148068180D01*
X107084224Y-148278306D01*
X107244849Y-148439211D01*
X107454823Y-148526400D01*
X107682180Y-148526599D01*
X107892306Y-148439776D01*
X108053211Y-148279151D01*
X108140400Y-148069177D01*
X108140512Y-147941180D01*
X112077401Y-147941180D01*
X112164224Y-148151306D01*
X112324849Y-148312211D01*
X112534823Y-148399400D01*
X112762180Y-148399599D01*
X112972306Y-148312776D01*
X113133211Y-148152151D01*
X113220400Y-147942177D01*
X113220529Y-147795287D01*
X113328636Y-147687180D01*
X120840401Y-147687180D01*
X120927224Y-147897306D01*
X121087849Y-148058211D01*
X121297823Y-148145400D01*
X121525180Y-148145599D01*
X121735306Y-148058776D01*
X121896211Y-147898151D01*
X121983400Y-147688177D01*
X121983599Y-147460820D01*
X121896776Y-147250694D01*
X121736151Y-147089789D01*
X121635151Y-147047850D01*
X145227800Y-147047850D01*
X145227800Y-147690204D01*
X145316739Y-147904922D01*
X145481077Y-148069261D01*
X145695795Y-148158200D01*
X145725207Y-148158200D01*
X145649482Y-148206928D01*
X145597285Y-148283320D01*
X145578922Y-148374000D01*
X145578922Y-150074000D01*
X145594862Y-150158714D01*
X145644928Y-150236518D01*
X145721320Y-150288715D01*
X145812000Y-150307078D01*
X147812000Y-150307078D01*
X147896714Y-150291138D01*
X147974518Y-150241072D01*
X148026715Y-150164680D01*
X148045078Y-150074000D01*
X148045078Y-148374000D01*
X148029138Y-148289286D01*
X147979072Y-148211482D01*
X147902680Y-148159285D01*
X147897322Y-148158200D01*
X147928205Y-148158200D01*
X148142923Y-148069261D01*
X148307261Y-147904922D01*
X148396200Y-147690204D01*
X148396200Y-147047850D01*
X148250150Y-146901800D01*
X146989800Y-146901800D01*
X146989800Y-146921800D01*
X146634200Y-146921800D01*
X146634200Y-146901800D01*
X145373850Y-146901800D01*
X145227800Y-147047850D01*
X121635151Y-147047850D01*
X121526177Y-147002600D01*
X121298820Y-147002401D01*
X121088694Y-147089224D01*
X120927789Y-147249849D01*
X120840600Y-147459823D01*
X120840401Y-147687180D01*
X113328636Y-147687180D01*
X114965816Y-146050000D01*
X116682184Y-146050000D01*
X116618655Y-146113529D01*
X116472820Y-146113401D01*
X116262694Y-146200224D01*
X116101789Y-146360849D01*
X116014600Y-146570823D01*
X116014401Y-146798180D01*
X116101224Y-147008306D01*
X116261849Y-147169211D01*
X116471823Y-147256400D01*
X116699180Y-147256599D01*
X116909306Y-147169776D01*
X117070211Y-147009151D01*
X117157400Y-146799177D01*
X117157529Y-146652287D01*
X117773636Y-146036180D01*
X134556401Y-146036180D01*
X134643224Y-146246306D01*
X134803849Y-146407211D01*
X135013823Y-146494400D01*
X135241180Y-146494599D01*
X135451306Y-146407776D01*
X135612211Y-146247151D01*
X135699400Y-146037177D01*
X135699599Y-145809820D01*
X135678103Y-145757796D01*
X145227800Y-145757796D01*
X145227800Y-146400150D01*
X145373850Y-146546200D01*
X146634200Y-146546200D01*
X146634200Y-146526200D01*
X146989800Y-146526200D01*
X146989800Y-146546200D01*
X148250150Y-146546200D01*
X148396200Y-146400150D01*
X148396200Y-145757796D01*
X148307261Y-145543078D01*
X148142923Y-145378739D01*
X147928205Y-145289800D01*
X147898793Y-145289800D01*
X147974518Y-145241072D01*
X148026715Y-145164680D01*
X148045078Y-145074000D01*
X148045078Y-143374000D01*
X148029138Y-143289286D01*
X147979072Y-143211482D01*
X147902680Y-143159285D01*
X147812000Y-143140922D01*
X145812000Y-143140922D01*
X145727286Y-143156862D01*
X145649482Y-143206928D01*
X145597285Y-143283320D01*
X145578922Y-143374000D01*
X145578922Y-145074000D01*
X145594862Y-145158714D01*
X145644928Y-145236518D01*
X145721320Y-145288715D01*
X145726678Y-145289800D01*
X145695795Y-145289800D01*
X145481077Y-145378739D01*
X145316739Y-145543078D01*
X145227800Y-145757796D01*
X135678103Y-145757796D01*
X135612776Y-145599694D01*
X135452151Y-145438789D01*
X135242177Y-145351600D01*
X135014820Y-145351401D01*
X134804694Y-145438224D01*
X134643789Y-145598849D01*
X134556600Y-145808823D01*
X134556401Y-146036180D01*
X117773636Y-146036180D01*
X123435816Y-140374000D01*
X145578922Y-140374000D01*
X145578922Y-142074000D01*
X145594862Y-142158714D01*
X145644928Y-142236518D01*
X145721320Y-142288715D01*
X145812000Y-142307078D01*
X147812000Y-142307078D01*
X147896714Y-142291138D01*
X147974518Y-142241072D01*
X148026715Y-142164680D01*
X148045078Y-142074000D01*
X148045078Y-140374000D01*
X148029138Y-140289286D01*
X147979072Y-140211482D01*
X147902680Y-140159285D01*
X147812000Y-140140922D01*
X145812000Y-140140922D01*
X145727286Y-140156862D01*
X145649482Y-140206928D01*
X145597285Y-140283320D01*
X145578922Y-140374000D01*
X123435816Y-140374000D01*
X123855816Y-139954000D01*
X133811818Y-139954000D01*
X133914849Y-140057211D01*
X134124823Y-140144400D01*
X134352180Y-140144599D01*
X134562306Y-140057776D01*
X134723211Y-139897151D01*
X134810400Y-139687177D01*
X134810599Y-139459820D01*
X134723776Y-139249694D01*
X134620000Y-139145737D01*
X134620000Y-136547850D01*
X145227800Y-136547850D01*
X145227800Y-137190204D01*
X145316739Y-137404922D01*
X145481077Y-137569261D01*
X145695795Y-137658200D01*
X145725207Y-137658200D01*
X145649482Y-137706928D01*
X145597285Y-137783320D01*
X145578922Y-137874000D01*
X145578922Y-139574000D01*
X145594862Y-139658714D01*
X145644928Y-139736518D01*
X145721320Y-139788715D01*
X145812000Y-139807078D01*
X147812000Y-139807078D01*
X147896714Y-139791138D01*
X147974518Y-139741072D01*
X148026715Y-139664680D01*
X148045078Y-139574000D01*
X148045078Y-137874000D01*
X148029138Y-137789286D01*
X147979072Y-137711482D01*
X147902680Y-137659285D01*
X147897322Y-137658200D01*
X147928205Y-137658200D01*
X148142923Y-137569261D01*
X148307261Y-137404922D01*
X148396200Y-137190204D01*
X148396200Y-136547850D01*
X148250150Y-136401800D01*
X146989800Y-136401800D01*
X146989800Y-136421800D01*
X146634200Y-136421800D01*
X146634200Y-136401800D01*
X145373850Y-136401800D01*
X145227800Y-136547850D01*
X134620000Y-136547850D01*
X134620000Y-135257796D01*
X145227800Y-135257796D01*
X145227800Y-135900150D01*
X145373850Y-136046200D01*
X146634200Y-136046200D01*
X146634200Y-134935850D01*
X146989800Y-134935850D01*
X146989800Y-136046200D01*
X148250150Y-136046200D01*
X148396200Y-135900150D01*
X148396200Y-135257796D01*
X148307261Y-135043078D01*
X148142923Y-134878739D01*
X147928205Y-134789800D01*
X147135850Y-134789800D01*
X146989800Y-134935850D01*
X146634200Y-134935850D01*
X146488150Y-134789800D01*
X145695795Y-134789800D01*
X145481077Y-134878739D01*
X145316739Y-135043078D01*
X145227800Y-135257796D01*
X134620000Y-135257796D01*
X134620000Y-130759200D01*
X146782122Y-130759200D01*
X146782122Y-132791200D01*
X146798062Y-132875914D01*
X146848128Y-132953718D01*
X146924520Y-133005915D01*
X147015200Y-133024278D01*
X149047200Y-133024278D01*
X149131914Y-133008338D01*
X149209718Y-132958272D01*
X149261915Y-132881880D01*
X149280278Y-132791200D01*
X149280278Y-131750817D01*
X149326600Y-131750817D01*
X149326600Y-131799583D01*
X149421340Y-132275871D01*
X149691135Y-132679648D01*
X150094912Y-132949443D01*
X150571200Y-133044183D01*
X151047488Y-132949443D01*
X151451265Y-132679648D01*
X151721060Y-132275871D01*
X151815800Y-131799583D01*
X151815800Y-131750817D01*
X151721060Y-131274529D01*
X151451265Y-130870752D01*
X151047488Y-130600957D01*
X150571200Y-130506217D01*
X150094912Y-130600957D01*
X149691135Y-130870752D01*
X149421340Y-131274529D01*
X149326600Y-131750817D01*
X149280278Y-131750817D01*
X149280278Y-130759200D01*
X149264338Y-130674486D01*
X149214272Y-130596682D01*
X149137880Y-130544485D01*
X149047200Y-130526122D01*
X147015200Y-130526122D01*
X146930486Y-130542062D01*
X146852682Y-130592128D01*
X146800485Y-130668520D01*
X146782122Y-130759200D01*
X134620000Y-130759200D01*
X134620000Y-126222135D01*
X137257084Y-126222135D01*
X137534885Y-126894465D01*
X138048829Y-127409307D01*
X138720673Y-127688282D01*
X139448135Y-127688916D01*
X140120465Y-127411115D01*
X140635307Y-126897171D01*
X140914282Y-126225327D01*
X140914916Y-125497865D01*
X140637115Y-124825535D01*
X140123171Y-124310693D01*
X139451327Y-124031718D01*
X138723865Y-124031084D01*
X138051535Y-124308885D01*
X137536693Y-124822829D01*
X137257718Y-125494673D01*
X137257084Y-126222135D01*
X134620000Y-126222135D01*
X134620000Y-126111005D01*
X134620001Y-126111000D01*
X134590998Y-125965198D01*
X134508408Y-125841592D01*
X134508405Y-125841590D01*
X132857408Y-124190592D01*
X132733803Y-124108002D01*
X132588000Y-124079000D01*
X131745182Y-124079000D01*
X131642151Y-123975789D01*
X131432177Y-123888600D01*
X131204820Y-123888401D01*
X130994694Y-123975224D01*
X130833789Y-124135849D01*
X130746600Y-124345823D01*
X130746401Y-124573180D01*
X130833224Y-124783306D01*
X130993849Y-124944211D01*
X131203823Y-125031400D01*
X131431180Y-125031599D01*
X131641306Y-124944776D01*
X131745263Y-124841000D01*
X132430184Y-124841000D01*
X133858000Y-126268815D01*
X133858000Y-139145818D01*
X133811737Y-139192000D01*
X123698005Y-139192000D01*
X123698000Y-139191999D01*
X123552198Y-139221002D01*
X123428592Y-139303592D01*
X122682000Y-140050184D01*
X122682000Y-128287631D01*
X124485163Y-128287631D01*
X124693536Y-128791934D01*
X125079037Y-129178108D01*
X125582975Y-129387361D01*
X126128631Y-129387837D01*
X126632934Y-129179464D01*
X127019108Y-128793963D01*
X127228361Y-128290025D01*
X127228363Y-128287631D01*
X127660163Y-128287631D01*
X127868536Y-128791934D01*
X128254037Y-129178108D01*
X128757975Y-129387361D01*
X129303631Y-129387837D01*
X129807934Y-129179464D01*
X130194108Y-128793963D01*
X130403361Y-128290025D01*
X130403837Y-127744369D01*
X130195464Y-127240066D01*
X129809963Y-126853892D01*
X129306025Y-126644639D01*
X128760369Y-126644163D01*
X128256066Y-126852536D01*
X127869892Y-127238037D01*
X127660639Y-127741975D01*
X127660163Y-128287631D01*
X127228363Y-128287631D01*
X127228837Y-127744369D01*
X127020464Y-127240066D01*
X126634963Y-126853892D01*
X126131025Y-126644639D01*
X125585369Y-126644163D01*
X125081066Y-126852536D01*
X124694892Y-127238037D01*
X124485639Y-127741975D01*
X124485163Y-128287631D01*
X122682000Y-128287631D01*
X122682000Y-126635361D01*
X123227975Y-126635361D01*
X123337950Y-126901521D01*
X123541408Y-127105335D01*
X123807376Y-127215774D01*
X124095361Y-127216025D01*
X124361521Y-127106050D01*
X124565335Y-126902592D01*
X124675774Y-126636624D01*
X124675912Y-126478180D01*
X130746401Y-126478180D01*
X130833224Y-126688306D01*
X130993849Y-126849211D01*
X131203823Y-126936400D01*
X131431180Y-126936599D01*
X131641306Y-126849776D01*
X131802211Y-126689151D01*
X131889400Y-126479177D01*
X131889599Y-126251820D01*
X131802776Y-126041694D01*
X131642151Y-125880789D01*
X131432177Y-125793600D01*
X131204820Y-125793401D01*
X130994694Y-125880224D01*
X130833789Y-126040849D01*
X130746600Y-126250823D01*
X130746401Y-126478180D01*
X124675912Y-126478180D01*
X124676025Y-126348639D01*
X124566050Y-126082479D01*
X124362592Y-125878665D01*
X124096624Y-125768226D01*
X123808639Y-125767975D01*
X123542479Y-125877950D01*
X123338665Y-126081408D01*
X123228226Y-126347376D01*
X123227975Y-126635361D01*
X122682000Y-126635361D01*
X122682000Y-125619361D01*
X128307975Y-125619361D01*
X128417950Y-125885521D01*
X128621408Y-126089335D01*
X128887376Y-126199774D01*
X129175361Y-126200025D01*
X129441521Y-126090050D01*
X129645335Y-125886592D01*
X129755774Y-125620624D01*
X129756025Y-125332639D01*
X129646050Y-125066479D01*
X129442592Y-124862665D01*
X129176624Y-124752226D01*
X128888639Y-124751975D01*
X128622479Y-124861950D01*
X128418665Y-125065408D01*
X128308226Y-125331376D01*
X128307975Y-125619361D01*
X122682000Y-125619361D01*
X122682000Y-124603361D01*
X123227975Y-124603361D01*
X123337950Y-124869521D01*
X123541408Y-125073335D01*
X123807376Y-125183774D01*
X124095361Y-125184025D01*
X124361521Y-125074050D01*
X124565335Y-124870592D01*
X124675774Y-124604624D01*
X124676025Y-124316639D01*
X124566050Y-124050479D01*
X124362592Y-123846665D01*
X124096624Y-123736226D01*
X123808639Y-123735975D01*
X123542479Y-123845950D01*
X123338665Y-124049408D01*
X123228226Y-124315376D01*
X123227975Y-124603361D01*
X122682000Y-124603361D01*
X122682000Y-124490816D01*
X124485617Y-122687199D01*
X124485163Y-123207631D01*
X124693536Y-123711934D01*
X125079037Y-124098108D01*
X125582975Y-124307361D01*
X126128631Y-124307837D01*
X126632934Y-124099464D01*
X127019108Y-123713963D01*
X127228361Y-123210025D01*
X127228363Y-123207631D01*
X127660163Y-123207631D01*
X127868536Y-123711934D01*
X128254037Y-124098108D01*
X128757975Y-124307361D01*
X129303631Y-124307837D01*
X129807934Y-124099464D01*
X130194108Y-123713963D01*
X130403361Y-123210025D01*
X130403837Y-122664369D01*
X130195464Y-122160066D01*
X129809963Y-121773892D01*
X129306025Y-121564639D01*
X128760369Y-121564163D01*
X128256066Y-121772536D01*
X127869892Y-122158037D01*
X127660639Y-122661975D01*
X127660163Y-123207631D01*
X127228363Y-123207631D01*
X127228837Y-122664369D01*
X127020464Y-122160066D01*
X126654038Y-121793000D01*
X126942111Y-121793000D01*
X127023224Y-121989306D01*
X127183849Y-122150211D01*
X127393823Y-122237400D01*
X127621180Y-122237599D01*
X127831306Y-122150776D01*
X127992211Y-121990151D01*
X128079400Y-121780177D01*
X128079599Y-121552820D01*
X127992776Y-121342694D01*
X127832151Y-121181789D01*
X127622177Y-121094600D01*
X127451359Y-121094450D01*
X127399803Y-121060002D01*
X127254000Y-121031000D01*
X125222005Y-121031000D01*
X125222000Y-121030999D01*
X125076198Y-121060002D01*
X124952592Y-121142592D01*
X122031592Y-124063592D01*
X121949002Y-124187197D01*
X121949002Y-124187198D01*
X121920000Y-124333000D01*
X121920000Y-140165603D01*
X117665593Y-144420009D01*
X117665599Y-144412820D01*
X117578776Y-144202694D01*
X117418151Y-144041789D01*
X117208177Y-143954600D01*
X117061287Y-143954471D01*
X116840000Y-143733184D01*
X116840000Y-129951816D01*
X118204344Y-128587471D01*
X118350180Y-128587599D01*
X118560306Y-128500776D01*
X118721211Y-128340151D01*
X118808400Y-128130177D01*
X118808599Y-127902820D01*
X118721776Y-127692694D01*
X118561151Y-127531789D01*
X118351177Y-127444600D01*
X118123820Y-127444401D01*
X117913694Y-127531224D01*
X117752789Y-127691849D01*
X117665600Y-127901823D01*
X117665471Y-128048713D01*
X116189592Y-129524592D01*
X116107002Y-129648197D01*
X116103262Y-129667000D01*
X116078000Y-129794000D01*
X116078000Y-143891000D01*
X116107002Y-144036803D01*
X116189592Y-144160408D01*
X116522529Y-144493344D01*
X116522401Y-144639180D01*
X116609224Y-144849306D01*
X116769849Y-145010211D01*
X116979823Y-145097400D01*
X116988195Y-145097407D01*
X116797602Y-145288000D01*
X114808000Y-145288000D01*
X114662197Y-145317002D01*
X114538592Y-145399592D01*
X112681655Y-147256529D01*
X112535820Y-147256401D01*
X112325694Y-147343224D01*
X112164789Y-147503849D01*
X112077600Y-147713823D01*
X112077401Y-147941180D01*
X108140512Y-147941180D01*
X108140599Y-147841820D01*
X108053776Y-147631694D01*
X107893151Y-147470789D01*
X107683177Y-147383600D01*
X107536287Y-147383471D01*
X107376831Y-147224015D01*
X107454823Y-147256400D01*
X107682180Y-147256599D01*
X107892306Y-147169776D01*
X108053211Y-147009151D01*
X108140400Y-146799177D01*
X108140599Y-146571820D01*
X108053776Y-146361694D01*
X107893151Y-146200789D01*
X107683177Y-146113600D01*
X107536287Y-146113471D01*
X107376829Y-145954014D01*
X107454823Y-145986400D01*
X107682180Y-145986599D01*
X107892306Y-145899776D01*
X108053211Y-145739151D01*
X108140400Y-145529177D01*
X108140599Y-145301820D01*
X108053776Y-145091694D01*
X107893151Y-144930789D01*
X107683177Y-144843600D01*
X107536287Y-144843471D01*
X104902000Y-142209184D01*
X104902000Y-132991274D01*
X104902685Y-132990816D01*
X105136496Y-132640893D01*
X105218600Y-132228131D01*
X105218600Y-132185869D01*
X105601400Y-132185869D01*
X105601400Y-132228131D01*
X105683504Y-132640893D01*
X105917315Y-132990816D01*
X106267238Y-133224627D01*
X106375200Y-133246102D01*
X106375200Y-138176000D01*
X106398402Y-138292642D01*
X106464474Y-138391526D01*
X109893474Y-141820526D01*
X109992358Y-141886598D01*
X110109000Y-141909800D01*
X111267577Y-141909800D01*
X111275224Y-141928306D01*
X111435849Y-142089211D01*
X111645823Y-142176400D01*
X111873180Y-142176599D01*
X112083306Y-142089776D01*
X112090200Y-142082894D01*
X112090200Y-143129000D01*
X112113402Y-143245642D01*
X112179474Y-143344526D01*
X112212279Y-143377331D01*
X112204600Y-143395823D01*
X112204401Y-143623180D01*
X112291224Y-143833306D01*
X112451849Y-143994211D01*
X112661823Y-144081400D01*
X112889180Y-144081599D01*
X113099306Y-143994776D01*
X113260211Y-143834151D01*
X113347400Y-143624177D01*
X113347599Y-143396820D01*
X113260776Y-143186694D01*
X113100151Y-143025789D01*
X112890177Y-142938600D01*
X112699800Y-142938433D01*
X112699800Y-141224000D01*
X112676598Y-141107358D01*
X112610526Y-141008474D01*
X109524800Y-137922748D01*
X109524800Y-133246102D01*
X109632762Y-133224627D01*
X109982685Y-132990816D01*
X110216496Y-132640893D01*
X110298600Y-132228131D01*
X110298600Y-132185869D01*
X110681400Y-132185869D01*
X110681400Y-132228131D01*
X110763504Y-132640893D01*
X110997315Y-132990816D01*
X111347238Y-133224627D01*
X111760000Y-133306731D01*
X112172762Y-133224627D01*
X112522685Y-132990816D01*
X112756496Y-132640893D01*
X112763587Y-132605241D01*
X112922185Y-132605241D01*
X113179465Y-133102194D01*
X113607337Y-133462862D01*
X113901761Y-133584801D01*
X114122200Y-133482820D01*
X114122200Y-132384800D01*
X114477800Y-132384800D01*
X114477800Y-133482820D01*
X114698239Y-133584801D01*
X114992663Y-133462862D01*
X115420535Y-133102194D01*
X115677815Y-132605241D01*
X115577100Y-132384800D01*
X114477800Y-132384800D01*
X114122200Y-132384800D01*
X113022900Y-132384800D01*
X112922185Y-132605241D01*
X112763587Y-132605241D01*
X112838600Y-132228131D01*
X112838600Y-132185869D01*
X112763588Y-131808759D01*
X112922185Y-131808759D01*
X113022900Y-132029200D01*
X114122200Y-132029200D01*
X114122200Y-130931180D01*
X114477800Y-130931180D01*
X114477800Y-132029200D01*
X115577100Y-132029200D01*
X115677815Y-131808759D01*
X115420535Y-131311806D01*
X114992663Y-130951138D01*
X114698239Y-130829199D01*
X114477800Y-130931180D01*
X114122200Y-130931180D01*
X113901761Y-130829199D01*
X113607337Y-130951138D01*
X113179465Y-131311806D01*
X112922185Y-131808759D01*
X112763588Y-131808759D01*
X112756496Y-131773107D01*
X112522685Y-131423184D01*
X112172762Y-131189373D01*
X111760000Y-131107269D01*
X111347238Y-131189373D01*
X110997315Y-131423184D01*
X110763504Y-131773107D01*
X110681400Y-132185869D01*
X110298600Y-132185869D01*
X110216496Y-131773107D01*
X109982685Y-131423184D01*
X109632762Y-131189373D01*
X109220000Y-131107269D01*
X108807238Y-131189373D01*
X108457315Y-131423184D01*
X108223504Y-131773107D01*
X108141400Y-132185869D01*
X108141400Y-132228131D01*
X108223504Y-132640893D01*
X108457315Y-132990816D01*
X108807238Y-133224627D01*
X108915200Y-133246102D01*
X108915200Y-138049000D01*
X108938402Y-138165642D01*
X109004474Y-138264526D01*
X111773460Y-141033512D01*
X111646820Y-141033401D01*
X111436694Y-141120224D01*
X111275789Y-141280849D01*
X111267754Y-141300200D01*
X110235252Y-141300200D01*
X106984800Y-138049748D01*
X106984800Y-133246102D01*
X107092762Y-133224627D01*
X107442685Y-132990816D01*
X107676496Y-132640893D01*
X107758600Y-132228131D01*
X107758600Y-132185869D01*
X107676496Y-131773107D01*
X107442685Y-131423184D01*
X107092762Y-131189373D01*
X106680000Y-131107269D01*
X106267238Y-131189373D01*
X105917315Y-131423184D01*
X105683504Y-131773107D01*
X105601400Y-132185869D01*
X105218600Y-132185869D01*
X105136496Y-131773107D01*
X104902685Y-131423184D01*
X104552762Y-131189373D01*
X104140000Y-131107269D01*
X103727238Y-131189373D01*
X103377315Y-131423184D01*
X103143504Y-131773107D01*
X103061400Y-132185869D01*
X103061400Y-132228131D01*
X103143504Y-132640893D01*
X103377315Y-132990816D01*
X103727238Y-133224627D01*
X104140000Y-133306731D01*
X104140000Y-133827184D01*
X102655762Y-132342946D01*
X102678600Y-132228131D01*
X102678600Y-132185869D01*
X102596496Y-131773107D01*
X102362685Y-131423184D01*
X102012762Y-131189373D01*
X101600000Y-131107269D01*
X101187238Y-131189373D01*
X100837315Y-131423184D01*
X100603504Y-131773107D01*
X100521400Y-132185869D01*
X100521400Y-132228131D01*
X100603504Y-132640893D01*
X100837315Y-132990816D01*
X101187238Y-133224627D01*
X101600000Y-133306731D01*
X102012762Y-133224627D01*
X102280748Y-133045564D01*
X103632000Y-134396816D01*
X103632000Y-135859184D01*
X100115762Y-132342946D01*
X100138600Y-132228131D01*
X100138600Y-132185869D01*
X100056496Y-131773107D01*
X99822685Y-131423184D01*
X99472762Y-131189373D01*
X99060000Y-131107269D01*
X98647238Y-131189373D01*
X98297315Y-131423184D01*
X98063504Y-131773107D01*
X97981400Y-132185869D01*
X97603078Y-132185869D01*
X97603078Y-131357000D01*
X97587138Y-131272286D01*
X97537072Y-131194482D01*
X97460680Y-131142285D01*
X97370000Y-131123922D01*
X95670000Y-131123922D01*
X95585286Y-131139862D01*
X95507482Y-131189928D01*
X95455285Y-131266320D01*
X95436922Y-131357000D01*
X93013600Y-131357000D01*
X93013600Y-120953600D01*
X143608400Y-120953600D01*
X143608400Y-129540000D01*
X143608400Y-129540000D01*
G37*
X143608400Y-129540000D02*
X143631510Y-129656183D01*
X143697322Y-129754678D01*
X143795817Y-129820490D01*
X143912000Y-129843600D01*
X154636400Y-129843600D01*
X154636400Y-169876400D01*
X143912000Y-169876400D01*
X143795817Y-169899510D01*
X143697322Y-169965322D01*
X143631510Y-170063817D01*
X143608400Y-170180000D01*
X143608400Y-178766400D01*
X93013600Y-178766400D01*
X93013600Y-176192389D01*
X94596089Y-176192389D01*
X94875943Y-176750531D01*
X95348086Y-177159091D01*
X95714613Y-177310899D01*
X95961200Y-177211239D01*
X95961200Y-175945800D01*
X94694746Y-175945800D01*
X94596089Y-176192389D01*
X93013600Y-176192389D01*
X93013600Y-175343611D01*
X94596089Y-175343611D01*
X94694746Y-175590200D01*
X95961200Y-175590200D01*
X95961200Y-174324761D01*
X96316800Y-174324761D01*
X96316800Y-175590200D01*
X96336800Y-175590200D01*
X96336800Y-175945800D01*
X96316800Y-175945800D01*
X96316800Y-177211239D01*
X96563387Y-177310899D01*
X96929914Y-177159091D01*
X97402057Y-176750531D01*
X97429922Y-176694957D01*
X97429922Y-176784000D01*
X97445862Y-176868714D01*
X97495928Y-176946518D01*
X97572320Y-176998715D01*
X97663000Y-177017078D01*
X99695000Y-177017078D01*
X99779714Y-177001138D01*
X99857518Y-176951072D01*
X99909715Y-176874680D01*
X99928078Y-176784000D01*
X99928078Y-174752000D01*
X99912138Y-174667286D01*
X99862072Y-174589482D01*
X99785680Y-174537285D01*
X99695000Y-174518922D01*
X97663000Y-174518922D01*
X97578286Y-174534862D01*
X97500482Y-174584928D01*
X97448285Y-174661320D01*
X97429922Y-174752000D01*
X97429922Y-174841043D01*
X97402057Y-174785469D01*
X96929914Y-174376909D01*
X96563387Y-174225101D01*
X96316800Y-174324761D01*
X95961200Y-174324761D01*
X95714613Y-174225101D01*
X95348086Y-174376909D01*
X94875943Y-174785469D01*
X94596089Y-175343611D01*
X93013600Y-175343611D01*
X93013600Y-174222135D01*
X137257084Y-174222135D01*
X137534885Y-174894465D01*
X138048829Y-175409307D01*
X138720673Y-175688282D01*
X139448135Y-175688916D01*
X140120465Y-175411115D01*
X140635307Y-174897171D01*
X140914282Y-174225327D01*
X140914916Y-173497865D01*
X140637115Y-172825535D01*
X140123171Y-172310693D01*
X139451327Y-172031718D01*
X138723865Y-172031084D01*
X138051535Y-172308885D01*
X137536693Y-172822829D01*
X137257718Y-173494673D01*
X137257084Y-174222135D01*
X93013600Y-174222135D01*
X93013600Y-170713400D01*
X94915322Y-170713400D01*
X94915322Y-172948600D01*
X94931262Y-173033314D01*
X94981328Y-173111118D01*
X95057720Y-173163315D01*
X95148400Y-173181678D01*
X97383600Y-173181678D01*
X97468314Y-173165738D01*
X97546118Y-173115672D01*
X97598315Y-173039280D01*
X97616678Y-172948600D01*
X97616678Y-170713400D01*
X97600738Y-170628686D01*
X97550672Y-170550882D01*
X97474280Y-170498685D01*
X97383600Y-170480322D01*
X95148400Y-170480322D01*
X95063686Y-170496262D01*
X94985882Y-170546328D01*
X94933685Y-170622720D01*
X94915322Y-170713400D01*
X93013600Y-170713400D01*
X93013600Y-165340180D01*
X93789401Y-165340180D01*
X93857759Y-165505617D01*
X93868203Y-165558123D01*
X93983829Y-165731171D01*
X94156877Y-165846797D01*
X94361000Y-165887400D01*
X94565123Y-165846797D01*
X94738171Y-165731171D01*
X94853797Y-165558123D01*
X94864354Y-165505049D01*
X94932400Y-165341177D01*
X94932599Y-165113820D01*
X94845776Y-164903694D01*
X94685151Y-164742789D01*
X94475177Y-164655600D01*
X94247820Y-164655401D01*
X94037694Y-164742224D01*
X93876789Y-164902849D01*
X93789600Y-165112823D01*
X93789401Y-165340180D01*
X93013600Y-165340180D01*
X93013600Y-160768180D01*
X93916401Y-160768180D01*
X93984759Y-160933617D01*
X93995203Y-160986123D01*
X94110829Y-161159171D01*
X94283877Y-161274797D01*
X94370732Y-161292074D01*
X102717600Y-169638941D01*
X102717600Y-173482000D01*
X102758203Y-173686123D01*
X102873829Y-173859171D01*
X103046877Y-173974797D01*
X103251000Y-174015400D01*
X108966000Y-174015400D01*
X109170123Y-173974797D01*
X109343171Y-173859171D01*
X113896724Y-169305617D01*
X113988306Y-169267776D01*
X114149211Y-169107151D01*
X114236400Y-168897177D01*
X114236599Y-168669820D01*
X114149776Y-168459694D01*
X113989151Y-168298789D01*
X113779177Y-168211600D01*
X113551820Y-168211401D01*
X113341694Y-168298224D01*
X113180789Y-168458849D01*
X113142429Y-168551230D01*
X108745058Y-172948600D01*
X103784400Y-172948600D01*
X103784400Y-169418000D01*
X103743797Y-169213877D01*
X103743797Y-169213876D01*
X103694575Y-169140211D01*
X103628171Y-169040829D01*
X103628168Y-169040827D01*
X95990522Y-161403180D01*
X99250401Y-161403180D01*
X99318759Y-161568617D01*
X99329203Y-161621123D01*
X99444829Y-161794171D01*
X99617877Y-161909797D01*
X99822000Y-161950400D01*
X100026123Y-161909797D01*
X100199171Y-161794171D01*
X100314797Y-161621123D01*
X100325354Y-161568049D01*
X100393400Y-161404177D01*
X100393599Y-161176820D01*
X100306776Y-160966694D01*
X100146151Y-160805789D01*
X99936177Y-160718600D01*
X99708820Y-160718401D01*
X99498694Y-160805224D01*
X99337789Y-160965849D01*
X99250600Y-161175823D01*
X99250401Y-161403180D01*
X95990522Y-161403180D01*
X95010617Y-160423275D01*
X94972776Y-160331694D01*
X94812151Y-160170789D01*
X94602177Y-160083600D01*
X94374820Y-160083401D01*
X94164694Y-160170224D01*
X94003789Y-160330849D01*
X93916600Y-160540823D01*
X93916401Y-160768180D01*
X93013600Y-160768180D01*
X93013600Y-154799180D01*
X96710401Y-154799180D01*
X96797224Y-155009306D01*
X96957849Y-155170211D01*
X97167823Y-155257400D01*
X97395180Y-155257599D01*
X97605306Y-155170776D01*
X97766211Y-155010151D01*
X97853400Y-154800177D01*
X97853599Y-154572820D01*
X97766776Y-154362694D01*
X97606151Y-154201789D01*
X97396177Y-154114600D01*
X97168820Y-154114401D01*
X96958694Y-154201224D01*
X96797789Y-154361849D01*
X96710600Y-154571823D01*
X96710401Y-154799180D01*
X93013600Y-154799180D01*
X93013600Y-148988239D01*
X94126199Y-148988239D01*
X94248138Y-149282663D01*
X94608806Y-149710535D01*
X95105759Y-149967815D01*
X95326200Y-149867100D01*
X95326200Y-148767800D01*
X95681800Y-148767800D01*
X95681800Y-149867100D01*
X95902241Y-149967815D01*
X96399194Y-149710535D01*
X96759862Y-149282663D01*
X96881801Y-148988239D01*
X96779820Y-148767800D01*
X95681800Y-148767800D01*
X95326200Y-148767800D01*
X94228180Y-148767800D01*
X94126199Y-148988239D01*
X93013600Y-148988239D01*
X93013600Y-148666200D01*
X99712869Y-148666200D01*
X99794973Y-149078962D01*
X100028784Y-149428885D01*
X100378707Y-149662696D01*
X100791469Y-149744800D01*
X100833731Y-149744800D01*
X101246493Y-149662696D01*
X101596416Y-149428885D01*
X101830227Y-149078962D01*
X101912331Y-148666200D01*
X101830227Y-148253438D01*
X101596416Y-147903515D01*
X101246493Y-147669704D01*
X100833731Y-147587600D01*
X100791469Y-147587600D01*
X100378707Y-147669704D01*
X100028784Y-147903515D01*
X99794973Y-148253438D01*
X99712869Y-148666200D01*
X93013600Y-148666200D01*
X93013600Y-148191761D01*
X94126199Y-148191761D01*
X94228180Y-148412200D01*
X95326200Y-148412200D01*
X95326200Y-147312900D01*
X95681800Y-147312900D01*
X95681800Y-148412200D01*
X96779820Y-148412200D01*
X96881801Y-148191761D01*
X96759862Y-147897337D01*
X96399194Y-147469465D01*
X95902241Y-147212185D01*
X95681800Y-147312900D01*
X95326200Y-147312900D01*
X95105759Y-147212185D01*
X94608806Y-147469465D01*
X94248138Y-147897337D01*
X94126199Y-148191761D01*
X93013600Y-148191761D01*
X93013600Y-145200000D01*
X94420922Y-145200000D01*
X94420922Y-146900000D01*
X94436862Y-146984714D01*
X94486928Y-147062518D01*
X94563320Y-147114715D01*
X94654000Y-147133078D01*
X96354000Y-147133078D01*
X96438714Y-147117138D01*
X96516518Y-147067072D01*
X96568715Y-146990680D01*
X96587078Y-146900000D01*
X96587078Y-146126200D01*
X99712869Y-146126200D01*
X99794973Y-146538962D01*
X100028784Y-146888885D01*
X100378707Y-147122696D01*
X100791469Y-147204800D01*
X100833731Y-147204800D01*
X101246493Y-147122696D01*
X101596416Y-146888885D01*
X101830227Y-146538962D01*
X101912331Y-146126200D01*
X101830227Y-145713438D01*
X101596416Y-145363515D01*
X101246493Y-145129704D01*
X100833731Y-145047600D01*
X100791469Y-145047600D01*
X100378707Y-145129704D01*
X100028784Y-145363515D01*
X99794973Y-145713438D01*
X99712869Y-146126200D01*
X96587078Y-146126200D01*
X96587078Y-145200000D01*
X96571138Y-145115286D01*
X96521072Y-145037482D01*
X96444680Y-144985285D01*
X96354000Y-144966922D01*
X94654000Y-144966922D01*
X94569286Y-144982862D01*
X94491482Y-145032928D01*
X94439285Y-145109320D01*
X94420922Y-145200000D01*
X93013600Y-145200000D01*
X93013600Y-142736200D01*
X99729522Y-142736200D01*
X99729522Y-144436200D01*
X99745462Y-144520914D01*
X99795528Y-144598718D01*
X99871920Y-144650915D01*
X99962600Y-144669278D01*
X101356862Y-144669278D01*
X107315000Y-150627415D01*
X107315000Y-161911900D01*
X107291776Y-161855694D01*
X107131151Y-161694789D01*
X106921177Y-161607600D01*
X106693820Y-161607401D01*
X106483694Y-161694224D01*
X106322789Y-161854849D01*
X106235600Y-162064823D01*
X106235401Y-162292180D01*
X106322224Y-162502306D01*
X106482849Y-162663211D01*
X106692823Y-162750400D01*
X106920180Y-162750599D01*
X107130306Y-162663776D01*
X107291211Y-162503151D01*
X107315000Y-162445861D01*
X107315000Y-168228818D01*
X107211789Y-168331849D01*
X107124600Y-168541823D01*
X107124401Y-168769180D01*
X107211224Y-168979306D01*
X107371849Y-169140211D01*
X107581823Y-169227400D01*
X107809180Y-169227599D01*
X108019306Y-169140776D01*
X108180211Y-168980151D01*
X108215078Y-168896180D01*
X110045401Y-168896180D01*
X110132224Y-169106306D01*
X110292849Y-169267211D01*
X110502823Y-169354400D01*
X110730180Y-169354599D01*
X110940306Y-169267776D01*
X111101211Y-169107151D01*
X111188400Y-168897177D01*
X111188599Y-168669820D01*
X111101776Y-168459694D01*
X110941151Y-168298789D01*
X110731177Y-168211600D01*
X110503820Y-168211401D01*
X110293694Y-168298224D01*
X110132789Y-168458849D01*
X110045600Y-168668823D01*
X110045401Y-168896180D01*
X108215078Y-168896180D01*
X108267400Y-168770177D01*
X108267599Y-168542820D01*
X108180776Y-168332694D01*
X108077000Y-168228737D01*
X108077000Y-166356180D01*
X108267401Y-166356180D01*
X108354224Y-166566306D01*
X108514849Y-166727211D01*
X108724823Y-166814400D01*
X108952180Y-166814599D01*
X109162306Y-166727776D01*
X109323211Y-166567151D01*
X109410400Y-166357177D01*
X109410599Y-166129820D01*
X109323776Y-165919694D01*
X109163151Y-165758789D01*
X108953177Y-165671600D01*
X108725820Y-165671401D01*
X108515694Y-165758224D01*
X108354789Y-165918849D01*
X108267600Y-166128823D01*
X108267401Y-166356180D01*
X108077000Y-166356180D01*
X108077000Y-160133180D01*
X127190401Y-160133180D01*
X127277224Y-160343306D01*
X127437849Y-160504211D01*
X127647823Y-160591400D01*
X127875180Y-160591599D01*
X127894545Y-160583597D01*
X128600200Y-161289252D01*
X128600200Y-168290577D01*
X128581694Y-168298224D01*
X128420789Y-168458849D01*
X128333600Y-168668823D01*
X128333401Y-168896180D01*
X128420224Y-169106306D01*
X128580849Y-169267211D01*
X128790823Y-169354400D01*
X129018180Y-169354599D01*
X129228306Y-169267776D01*
X129389211Y-169107151D01*
X129476400Y-168897177D01*
X129476599Y-168669820D01*
X129389776Y-168459694D01*
X129229151Y-168298789D01*
X129209800Y-168290754D01*
X129209800Y-168134180D01*
X130111401Y-168134180D01*
X130198224Y-168344306D01*
X130358849Y-168505211D01*
X130568823Y-168592400D01*
X130796180Y-168592599D01*
X131006306Y-168505776D01*
X131167211Y-168345151D01*
X131254400Y-168135177D01*
X131254599Y-167907820D01*
X131167776Y-167697694D01*
X131007151Y-167536789D01*
X130797177Y-167449600D01*
X130569820Y-167449401D01*
X130359694Y-167536224D01*
X130198789Y-167696849D01*
X130111600Y-167906823D01*
X130111401Y-168134180D01*
X129209800Y-168134180D01*
X129209800Y-161163000D01*
X129186598Y-161046358D01*
X129120526Y-160947474D01*
X128325721Y-160152669D01*
X128333400Y-160134177D01*
X128333400Y-160133180D01*
X130111401Y-160133180D01*
X130198224Y-160343306D01*
X130358849Y-160504211D01*
X130568823Y-160591400D01*
X130796180Y-160591599D01*
X131006306Y-160504776D01*
X131167211Y-160344151D01*
X131254400Y-160134177D01*
X131254599Y-159906820D01*
X131167776Y-159696694D01*
X131007151Y-159535789D01*
X130797177Y-159448600D01*
X130569820Y-159448401D01*
X130359694Y-159535224D01*
X130198789Y-159695849D01*
X130111600Y-159905823D01*
X130111401Y-160133180D01*
X128333400Y-160133180D01*
X128333599Y-159906820D01*
X128246776Y-159696694D01*
X128086151Y-159535789D01*
X127876177Y-159448600D01*
X127648820Y-159448401D01*
X127438694Y-159535224D01*
X127277789Y-159695849D01*
X127190600Y-159905823D01*
X127190401Y-160133180D01*
X108077000Y-160133180D01*
X108077000Y-152005180D01*
X127190401Y-152005180D01*
X127277224Y-152215306D01*
X127437849Y-152376211D01*
X127647823Y-152463400D01*
X127875180Y-152463599D01*
X127894545Y-152455597D01*
X131902200Y-156463252D01*
X131902200Y-168163577D01*
X131883694Y-168171224D01*
X131722789Y-168331849D01*
X131635600Y-168541823D01*
X131635401Y-168769180D01*
X131722224Y-168979306D01*
X131882849Y-169140211D01*
X132092823Y-169227400D01*
X132320180Y-169227599D01*
X132530306Y-169140776D01*
X132691211Y-168980151D01*
X132778400Y-168770177D01*
X132778599Y-168542820D01*
X132691776Y-168332694D01*
X132531151Y-168171789D01*
X132511800Y-168163754D01*
X132511800Y-163047850D01*
X145227800Y-163047850D01*
X145227800Y-163690204D01*
X145316739Y-163904922D01*
X145481077Y-164069261D01*
X145695795Y-164158200D01*
X145725207Y-164158200D01*
X145649482Y-164206928D01*
X145597285Y-164283320D01*
X145578922Y-164374000D01*
X145578922Y-166074000D01*
X145594862Y-166158714D01*
X145644928Y-166236518D01*
X145721320Y-166288715D01*
X145812000Y-166307078D01*
X147812000Y-166307078D01*
X147896714Y-166291138D01*
X147974518Y-166241072D01*
X148026715Y-166164680D01*
X148045078Y-166074000D01*
X148045078Y-164374000D01*
X148029138Y-164289286D01*
X147979072Y-164211482D01*
X147902680Y-164159285D01*
X147897322Y-164158200D01*
X147928205Y-164158200D01*
X148142923Y-164069261D01*
X148307261Y-163904922D01*
X148396200Y-163690204D01*
X148396200Y-163047850D01*
X148250150Y-162901800D01*
X146989800Y-162901800D01*
X146989800Y-162921800D01*
X146634200Y-162921800D01*
X146634200Y-162901800D01*
X145373850Y-162901800D01*
X145227800Y-163047850D01*
X132511800Y-163047850D01*
X132511800Y-161911180D01*
X134556401Y-161911180D01*
X134643224Y-162121306D01*
X134803849Y-162282211D01*
X135013823Y-162369400D01*
X135241180Y-162369599D01*
X135451306Y-162282776D01*
X135612211Y-162122151D01*
X135699400Y-161912177D01*
X135699535Y-161757796D01*
X145227800Y-161757796D01*
X145227800Y-162400150D01*
X145373850Y-162546200D01*
X146634200Y-162546200D01*
X146634200Y-162526200D01*
X146989800Y-162526200D01*
X146989800Y-162546200D01*
X148250150Y-162546200D01*
X148396200Y-162400150D01*
X148396200Y-161757796D01*
X148307261Y-161543078D01*
X148142923Y-161378739D01*
X147928205Y-161289800D01*
X147898793Y-161289800D01*
X147974518Y-161241072D01*
X148026715Y-161164680D01*
X148045078Y-161074000D01*
X148045078Y-159374000D01*
X148029138Y-159289286D01*
X147979072Y-159211482D01*
X147902680Y-159159285D01*
X147812000Y-159140922D01*
X145812000Y-159140922D01*
X145727286Y-159156862D01*
X145649482Y-159206928D01*
X145597285Y-159283320D01*
X145578922Y-159374000D01*
X145578922Y-161074000D01*
X145594862Y-161158714D01*
X145644928Y-161236518D01*
X145721320Y-161288715D01*
X145726678Y-161289800D01*
X145695795Y-161289800D01*
X145481077Y-161378739D01*
X145316739Y-161543078D01*
X145227800Y-161757796D01*
X135699535Y-161757796D01*
X135699599Y-161684820D01*
X135612776Y-161474694D01*
X135452151Y-161313789D01*
X135242177Y-161226600D01*
X135014820Y-161226401D01*
X134804694Y-161313224D01*
X134643789Y-161473849D01*
X134556600Y-161683823D01*
X134556401Y-161911180D01*
X132511800Y-161911180D01*
X132511800Y-156337000D01*
X132488598Y-156220358D01*
X132422526Y-156121474D01*
X131348902Y-155047850D01*
X145227800Y-155047850D01*
X145227800Y-155690204D01*
X145316739Y-155904922D01*
X145481077Y-156069261D01*
X145695795Y-156158200D01*
X145725207Y-156158200D01*
X145649482Y-156206928D01*
X145597285Y-156283320D01*
X145578922Y-156374000D01*
X145578922Y-158074000D01*
X145594862Y-158158714D01*
X145644928Y-158236518D01*
X145721320Y-158288715D01*
X145812000Y-158307078D01*
X147812000Y-158307078D01*
X147896714Y-158291138D01*
X147974518Y-158241072D01*
X148026715Y-158164680D01*
X148045078Y-158074000D01*
X148045078Y-156374000D01*
X148029138Y-156289286D01*
X147979072Y-156211482D01*
X147902680Y-156159285D01*
X147897322Y-156158200D01*
X147928205Y-156158200D01*
X148142923Y-156069261D01*
X148307261Y-155904922D01*
X148396200Y-155690204D01*
X148396200Y-155047850D01*
X148250150Y-154901800D01*
X146989800Y-154901800D01*
X146989800Y-154921800D01*
X146634200Y-154921800D01*
X146634200Y-154901800D01*
X145373850Y-154901800D01*
X145227800Y-155047850D01*
X131348902Y-155047850D01*
X130465232Y-154164180D01*
X134556401Y-154164180D01*
X134643224Y-154374306D01*
X134803849Y-154535211D01*
X135013823Y-154622400D01*
X135241180Y-154622599D01*
X135451306Y-154535776D01*
X135612211Y-154375151D01*
X135699400Y-154165177D01*
X135699599Y-153937820D01*
X135625214Y-153757796D01*
X145227800Y-153757796D01*
X145227800Y-154400150D01*
X145373850Y-154546200D01*
X146634200Y-154546200D01*
X146634200Y-154526200D01*
X146989800Y-154526200D01*
X146989800Y-154546200D01*
X148250150Y-154546200D01*
X148396200Y-154400150D01*
X148396200Y-153757796D01*
X148307261Y-153543078D01*
X148142923Y-153378739D01*
X147928205Y-153289800D01*
X147898793Y-153289800D01*
X147974518Y-153241072D01*
X148026715Y-153164680D01*
X148045078Y-153074000D01*
X148045078Y-151374000D01*
X148029138Y-151289286D01*
X147979072Y-151211482D01*
X147902680Y-151159285D01*
X147812000Y-151140922D01*
X145812000Y-151140922D01*
X145727286Y-151156862D01*
X145649482Y-151206928D01*
X145597285Y-151283320D01*
X145578922Y-151374000D01*
X145578922Y-153074000D01*
X145594862Y-153158714D01*
X145644928Y-153236518D01*
X145721320Y-153288715D01*
X145726678Y-153289800D01*
X145695795Y-153289800D01*
X145481077Y-153378739D01*
X145316739Y-153543078D01*
X145227800Y-153757796D01*
X135625214Y-153757796D01*
X135612776Y-153727694D01*
X135452151Y-153566789D01*
X135242177Y-153479600D01*
X135014820Y-153479401D01*
X134804694Y-153566224D01*
X134643789Y-153726849D01*
X134556600Y-153936823D01*
X134556401Y-154164180D01*
X130465232Y-154164180D01*
X128433232Y-152132180D01*
X130111401Y-152132180D01*
X130198224Y-152342306D01*
X130358849Y-152503211D01*
X130568823Y-152590400D01*
X130796180Y-152590599D01*
X131006306Y-152503776D01*
X131167211Y-152343151D01*
X131254400Y-152133177D01*
X131254599Y-151905820D01*
X131167776Y-151695694D01*
X131007151Y-151534789D01*
X130797177Y-151447600D01*
X130569820Y-151447401D01*
X130359694Y-151534224D01*
X130198789Y-151694849D01*
X130111600Y-151904823D01*
X130111401Y-152132180D01*
X128433232Y-152132180D01*
X128325721Y-152024669D01*
X128333400Y-152006177D01*
X128333599Y-151778820D01*
X128246776Y-151568694D01*
X128086151Y-151407789D01*
X127876177Y-151320600D01*
X127648820Y-151320401D01*
X127438694Y-151407224D01*
X127277789Y-151567849D01*
X127190600Y-151777823D01*
X127190401Y-152005180D01*
X108077000Y-152005180D01*
X108077000Y-150989180D01*
X115252401Y-150989180D01*
X115339224Y-151199306D01*
X115499849Y-151360211D01*
X115709823Y-151447400D01*
X115937180Y-151447599D01*
X116147306Y-151360776D01*
X116308211Y-151200151D01*
X116395400Y-150990177D01*
X116395599Y-150762820D01*
X116308776Y-150552694D01*
X116148151Y-150391789D01*
X115938177Y-150304600D01*
X115710820Y-150304401D01*
X115500694Y-150391224D01*
X115339789Y-150551849D01*
X115252600Y-150761823D01*
X115252401Y-150989180D01*
X108077000Y-150989180D01*
X108077000Y-150469605D01*
X108077001Y-150469600D01*
X108047998Y-150323798D01*
X108035037Y-150304401D01*
X107965408Y-150200192D01*
X107965405Y-150200190D01*
X101895678Y-144130462D01*
X101895678Y-142736200D01*
X101879738Y-142651486D01*
X101829672Y-142573682D01*
X101753280Y-142521485D01*
X101662600Y-142503122D01*
X99962600Y-142503122D01*
X99877886Y-142519062D01*
X99800082Y-142569128D01*
X99747885Y-142645520D01*
X99729522Y-142736200D01*
X93013600Y-142736200D01*
X93013600Y-131357000D01*
X95436922Y-131357000D01*
X95436922Y-133057000D01*
X95452862Y-133141714D01*
X95502928Y-133219518D01*
X95579320Y-133271715D01*
X95670000Y-133290078D01*
X97370000Y-133290078D01*
X97454714Y-133274138D01*
X97532518Y-133224072D01*
X97584715Y-133147680D01*
X97603078Y-133057000D01*
X97603078Y-132185869D01*
X97981400Y-132185869D01*
X97981400Y-132228131D01*
X98063504Y-132640893D01*
X98297315Y-132990816D01*
X98647238Y-133224627D01*
X99060000Y-133306731D01*
X99472762Y-133224627D01*
X99740748Y-133045564D01*
X102997000Y-136301816D01*
X102997000Y-143764000D01*
X103026002Y-143909803D01*
X103108592Y-144033408D01*
X106997529Y-147922345D01*
X106997401Y-148068180D01*
X107084224Y-148278306D01*
X107244849Y-148439211D01*
X107454823Y-148526400D01*
X107682180Y-148526599D01*
X107892306Y-148439776D01*
X108053211Y-148279151D01*
X108140400Y-148069177D01*
X108140512Y-147941180D01*
X112077401Y-147941180D01*
X112164224Y-148151306D01*
X112324849Y-148312211D01*
X112534823Y-148399400D01*
X112762180Y-148399599D01*
X112972306Y-148312776D01*
X113133211Y-148152151D01*
X113220400Y-147942177D01*
X113220529Y-147795287D01*
X113328636Y-147687180D01*
X120840401Y-147687180D01*
X120927224Y-147897306D01*
X121087849Y-148058211D01*
X121297823Y-148145400D01*
X121525180Y-148145599D01*
X121735306Y-148058776D01*
X121896211Y-147898151D01*
X121983400Y-147688177D01*
X121983599Y-147460820D01*
X121896776Y-147250694D01*
X121736151Y-147089789D01*
X121635151Y-147047850D01*
X145227800Y-147047850D01*
X145227800Y-147690204D01*
X145316739Y-147904922D01*
X145481077Y-148069261D01*
X145695795Y-148158200D01*
X145725207Y-148158200D01*
X145649482Y-148206928D01*
X145597285Y-148283320D01*
X145578922Y-148374000D01*
X145578922Y-150074000D01*
X145594862Y-150158714D01*
X145644928Y-150236518D01*
X145721320Y-150288715D01*
X145812000Y-150307078D01*
X147812000Y-150307078D01*
X147896714Y-150291138D01*
X147974518Y-150241072D01*
X148026715Y-150164680D01*
X148045078Y-150074000D01*
X148045078Y-148374000D01*
X148029138Y-148289286D01*
X147979072Y-148211482D01*
X147902680Y-148159285D01*
X147897322Y-148158200D01*
X147928205Y-148158200D01*
X148142923Y-148069261D01*
X148307261Y-147904922D01*
X148396200Y-147690204D01*
X148396200Y-147047850D01*
X148250150Y-146901800D01*
X146989800Y-146901800D01*
X146989800Y-146921800D01*
X146634200Y-146921800D01*
X146634200Y-146901800D01*
X145373850Y-146901800D01*
X145227800Y-147047850D01*
X121635151Y-147047850D01*
X121526177Y-147002600D01*
X121298820Y-147002401D01*
X121088694Y-147089224D01*
X120927789Y-147249849D01*
X120840600Y-147459823D01*
X120840401Y-147687180D01*
X113328636Y-147687180D01*
X114965816Y-146050000D01*
X116682184Y-146050000D01*
X116618655Y-146113529D01*
X116472820Y-146113401D01*
X116262694Y-146200224D01*
X116101789Y-146360849D01*
X116014600Y-146570823D01*
X116014401Y-146798180D01*
X116101224Y-147008306D01*
X116261849Y-147169211D01*
X116471823Y-147256400D01*
X116699180Y-147256599D01*
X116909306Y-147169776D01*
X117070211Y-147009151D01*
X117157400Y-146799177D01*
X117157529Y-146652287D01*
X117773636Y-146036180D01*
X134556401Y-146036180D01*
X134643224Y-146246306D01*
X134803849Y-146407211D01*
X135013823Y-146494400D01*
X135241180Y-146494599D01*
X135451306Y-146407776D01*
X135612211Y-146247151D01*
X135699400Y-146037177D01*
X135699599Y-145809820D01*
X135678103Y-145757796D01*
X145227800Y-145757796D01*
X145227800Y-146400150D01*
X145373850Y-146546200D01*
X146634200Y-146546200D01*
X146634200Y-146526200D01*
X146989800Y-146526200D01*
X146989800Y-146546200D01*
X148250150Y-146546200D01*
X148396200Y-146400150D01*
X148396200Y-145757796D01*
X148307261Y-145543078D01*
X148142923Y-145378739D01*
X147928205Y-145289800D01*
X147898793Y-145289800D01*
X147974518Y-145241072D01*
X148026715Y-145164680D01*
X148045078Y-145074000D01*
X148045078Y-143374000D01*
X148029138Y-143289286D01*
X147979072Y-143211482D01*
X147902680Y-143159285D01*
X147812000Y-143140922D01*
X145812000Y-143140922D01*
X145727286Y-143156862D01*
X145649482Y-143206928D01*
X145597285Y-143283320D01*
X145578922Y-143374000D01*
X145578922Y-145074000D01*
X145594862Y-145158714D01*
X145644928Y-145236518D01*
X145721320Y-145288715D01*
X145726678Y-145289800D01*
X145695795Y-145289800D01*
X145481077Y-145378739D01*
X145316739Y-145543078D01*
X145227800Y-145757796D01*
X135678103Y-145757796D01*
X135612776Y-145599694D01*
X135452151Y-145438789D01*
X135242177Y-145351600D01*
X135014820Y-145351401D01*
X134804694Y-145438224D01*
X134643789Y-145598849D01*
X134556600Y-145808823D01*
X134556401Y-146036180D01*
X117773636Y-146036180D01*
X123435816Y-140374000D01*
X145578922Y-140374000D01*
X145578922Y-142074000D01*
X145594862Y-142158714D01*
X145644928Y-142236518D01*
X145721320Y-142288715D01*
X145812000Y-142307078D01*
X147812000Y-142307078D01*
X147896714Y-142291138D01*
X147974518Y-142241072D01*
X148026715Y-142164680D01*
X148045078Y-142074000D01*
X148045078Y-140374000D01*
X148029138Y-140289286D01*
X147979072Y-140211482D01*
X147902680Y-140159285D01*
X147812000Y-140140922D01*
X145812000Y-140140922D01*
X145727286Y-140156862D01*
X145649482Y-140206928D01*
X145597285Y-140283320D01*
X145578922Y-140374000D01*
X123435816Y-140374000D01*
X123855816Y-139954000D01*
X133811818Y-139954000D01*
X133914849Y-140057211D01*
X134124823Y-140144400D01*
X134352180Y-140144599D01*
X134562306Y-140057776D01*
X134723211Y-139897151D01*
X134810400Y-139687177D01*
X134810599Y-139459820D01*
X134723776Y-139249694D01*
X134620000Y-139145737D01*
X134620000Y-136547850D01*
X145227800Y-136547850D01*
X145227800Y-137190204D01*
X145316739Y-137404922D01*
X145481077Y-137569261D01*
X145695795Y-137658200D01*
X145725207Y-137658200D01*
X145649482Y-137706928D01*
X145597285Y-137783320D01*
X145578922Y-137874000D01*
X145578922Y-139574000D01*
X145594862Y-139658714D01*
X145644928Y-139736518D01*
X145721320Y-139788715D01*
X145812000Y-139807078D01*
X147812000Y-139807078D01*
X147896714Y-139791138D01*
X147974518Y-139741072D01*
X148026715Y-139664680D01*
X148045078Y-139574000D01*
X148045078Y-137874000D01*
X148029138Y-137789286D01*
X147979072Y-137711482D01*
X147902680Y-137659285D01*
X147897322Y-137658200D01*
X147928205Y-137658200D01*
X148142923Y-137569261D01*
X148307261Y-137404922D01*
X148396200Y-137190204D01*
X148396200Y-136547850D01*
X148250150Y-136401800D01*
X146989800Y-136401800D01*
X146989800Y-136421800D01*
X146634200Y-136421800D01*
X146634200Y-136401800D01*
X145373850Y-136401800D01*
X145227800Y-136547850D01*
X134620000Y-136547850D01*
X134620000Y-135257796D01*
X145227800Y-135257796D01*
X145227800Y-135900150D01*
X145373850Y-136046200D01*
X146634200Y-136046200D01*
X146634200Y-134935850D01*
X146989800Y-134935850D01*
X146989800Y-136046200D01*
X148250150Y-136046200D01*
X148396200Y-135900150D01*
X148396200Y-135257796D01*
X148307261Y-135043078D01*
X148142923Y-134878739D01*
X147928205Y-134789800D01*
X147135850Y-134789800D01*
X146989800Y-134935850D01*
X146634200Y-134935850D01*
X146488150Y-134789800D01*
X145695795Y-134789800D01*
X145481077Y-134878739D01*
X145316739Y-135043078D01*
X145227800Y-135257796D01*
X134620000Y-135257796D01*
X134620000Y-130759200D01*
X146782122Y-130759200D01*
X146782122Y-132791200D01*
X146798062Y-132875914D01*
X146848128Y-132953718D01*
X146924520Y-133005915D01*
X147015200Y-133024278D01*
X149047200Y-133024278D01*
X149131914Y-133008338D01*
X149209718Y-132958272D01*
X149261915Y-132881880D01*
X149280278Y-132791200D01*
X149280278Y-131750817D01*
X149326600Y-131750817D01*
X149326600Y-131799583D01*
X149421340Y-132275871D01*
X149691135Y-132679648D01*
X150094912Y-132949443D01*
X150571200Y-133044183D01*
X151047488Y-132949443D01*
X151451265Y-132679648D01*
X151721060Y-132275871D01*
X151815800Y-131799583D01*
X151815800Y-131750817D01*
X151721060Y-131274529D01*
X151451265Y-130870752D01*
X151047488Y-130600957D01*
X150571200Y-130506217D01*
X150094912Y-130600957D01*
X149691135Y-130870752D01*
X149421340Y-131274529D01*
X149326600Y-131750817D01*
X149280278Y-131750817D01*
X149280278Y-130759200D01*
X149264338Y-130674486D01*
X149214272Y-130596682D01*
X149137880Y-130544485D01*
X149047200Y-130526122D01*
X147015200Y-130526122D01*
X146930486Y-130542062D01*
X146852682Y-130592128D01*
X146800485Y-130668520D01*
X146782122Y-130759200D01*
X134620000Y-130759200D01*
X134620000Y-126222135D01*
X137257084Y-126222135D01*
X137534885Y-126894465D01*
X138048829Y-127409307D01*
X138720673Y-127688282D01*
X139448135Y-127688916D01*
X140120465Y-127411115D01*
X140635307Y-126897171D01*
X140914282Y-126225327D01*
X140914916Y-125497865D01*
X140637115Y-124825535D01*
X140123171Y-124310693D01*
X139451327Y-124031718D01*
X138723865Y-124031084D01*
X138051535Y-124308885D01*
X137536693Y-124822829D01*
X137257718Y-125494673D01*
X137257084Y-126222135D01*
X134620000Y-126222135D01*
X134620000Y-126111005D01*
X134620001Y-126111000D01*
X134590998Y-125965198D01*
X134508408Y-125841592D01*
X134508405Y-125841590D01*
X132857408Y-124190592D01*
X132733803Y-124108002D01*
X132588000Y-124079000D01*
X131745182Y-124079000D01*
X131642151Y-123975789D01*
X131432177Y-123888600D01*
X131204820Y-123888401D01*
X130994694Y-123975224D01*
X130833789Y-124135849D01*
X130746600Y-124345823D01*
X130746401Y-124573180D01*
X130833224Y-124783306D01*
X130993849Y-124944211D01*
X131203823Y-125031400D01*
X131431180Y-125031599D01*
X131641306Y-124944776D01*
X131745263Y-124841000D01*
X132430184Y-124841000D01*
X133858000Y-126268815D01*
X133858000Y-139145818D01*
X133811737Y-139192000D01*
X123698005Y-139192000D01*
X123698000Y-139191999D01*
X123552198Y-139221002D01*
X123428592Y-139303592D01*
X122682000Y-140050184D01*
X122682000Y-128287631D01*
X124485163Y-128287631D01*
X124693536Y-128791934D01*
X125079037Y-129178108D01*
X125582975Y-129387361D01*
X126128631Y-129387837D01*
X126632934Y-129179464D01*
X127019108Y-128793963D01*
X127228361Y-128290025D01*
X127228363Y-128287631D01*
X127660163Y-128287631D01*
X127868536Y-128791934D01*
X128254037Y-129178108D01*
X128757975Y-129387361D01*
X129303631Y-129387837D01*
X129807934Y-129179464D01*
X130194108Y-128793963D01*
X130403361Y-128290025D01*
X130403837Y-127744369D01*
X130195464Y-127240066D01*
X129809963Y-126853892D01*
X129306025Y-126644639D01*
X128760369Y-126644163D01*
X128256066Y-126852536D01*
X127869892Y-127238037D01*
X127660639Y-127741975D01*
X127660163Y-128287631D01*
X127228363Y-128287631D01*
X127228837Y-127744369D01*
X127020464Y-127240066D01*
X126634963Y-126853892D01*
X126131025Y-126644639D01*
X125585369Y-126644163D01*
X125081066Y-126852536D01*
X124694892Y-127238037D01*
X124485639Y-127741975D01*
X124485163Y-128287631D01*
X122682000Y-128287631D01*
X122682000Y-126635361D01*
X123227975Y-126635361D01*
X123337950Y-126901521D01*
X123541408Y-127105335D01*
X123807376Y-127215774D01*
X124095361Y-127216025D01*
X124361521Y-127106050D01*
X124565335Y-126902592D01*
X124675774Y-126636624D01*
X124675912Y-126478180D01*
X130746401Y-126478180D01*
X130833224Y-126688306D01*
X130993849Y-126849211D01*
X131203823Y-126936400D01*
X131431180Y-126936599D01*
X131641306Y-126849776D01*
X131802211Y-126689151D01*
X131889400Y-126479177D01*
X131889599Y-126251820D01*
X131802776Y-126041694D01*
X131642151Y-125880789D01*
X131432177Y-125793600D01*
X131204820Y-125793401D01*
X130994694Y-125880224D01*
X130833789Y-126040849D01*
X130746600Y-126250823D01*
X130746401Y-126478180D01*
X124675912Y-126478180D01*
X124676025Y-126348639D01*
X124566050Y-126082479D01*
X124362592Y-125878665D01*
X124096624Y-125768226D01*
X123808639Y-125767975D01*
X123542479Y-125877950D01*
X123338665Y-126081408D01*
X123228226Y-126347376D01*
X123227975Y-126635361D01*
X122682000Y-126635361D01*
X122682000Y-125619361D01*
X128307975Y-125619361D01*
X128417950Y-125885521D01*
X128621408Y-126089335D01*
X128887376Y-126199774D01*
X129175361Y-126200025D01*
X129441521Y-126090050D01*
X129645335Y-125886592D01*
X129755774Y-125620624D01*
X129756025Y-125332639D01*
X129646050Y-125066479D01*
X129442592Y-124862665D01*
X129176624Y-124752226D01*
X128888639Y-124751975D01*
X128622479Y-124861950D01*
X128418665Y-125065408D01*
X128308226Y-125331376D01*
X128307975Y-125619361D01*
X122682000Y-125619361D01*
X122682000Y-124603361D01*
X123227975Y-124603361D01*
X123337950Y-124869521D01*
X123541408Y-125073335D01*
X123807376Y-125183774D01*
X124095361Y-125184025D01*
X124361521Y-125074050D01*
X124565335Y-124870592D01*
X124675774Y-124604624D01*
X124676025Y-124316639D01*
X124566050Y-124050479D01*
X124362592Y-123846665D01*
X124096624Y-123736226D01*
X123808639Y-123735975D01*
X123542479Y-123845950D01*
X123338665Y-124049408D01*
X123228226Y-124315376D01*
X123227975Y-124603361D01*
X122682000Y-124603361D01*
X122682000Y-124490816D01*
X124485617Y-122687199D01*
X124485163Y-123207631D01*
X124693536Y-123711934D01*
X125079037Y-124098108D01*
X125582975Y-124307361D01*
X126128631Y-124307837D01*
X126632934Y-124099464D01*
X127019108Y-123713963D01*
X127228361Y-123210025D01*
X127228363Y-123207631D01*
X127660163Y-123207631D01*
X127868536Y-123711934D01*
X128254037Y-124098108D01*
X128757975Y-124307361D01*
X129303631Y-124307837D01*
X129807934Y-124099464D01*
X130194108Y-123713963D01*
X130403361Y-123210025D01*
X130403837Y-122664369D01*
X130195464Y-122160066D01*
X129809963Y-121773892D01*
X129306025Y-121564639D01*
X128760369Y-121564163D01*
X128256066Y-121772536D01*
X127869892Y-122158037D01*
X127660639Y-122661975D01*
X127660163Y-123207631D01*
X127228363Y-123207631D01*
X127228837Y-122664369D01*
X127020464Y-122160066D01*
X126654038Y-121793000D01*
X126942111Y-121793000D01*
X127023224Y-121989306D01*
X127183849Y-122150211D01*
X127393823Y-122237400D01*
X127621180Y-122237599D01*
X127831306Y-122150776D01*
X127992211Y-121990151D01*
X128079400Y-121780177D01*
X128079599Y-121552820D01*
X127992776Y-121342694D01*
X127832151Y-121181789D01*
X127622177Y-121094600D01*
X127451359Y-121094450D01*
X127399803Y-121060002D01*
X127254000Y-121031000D01*
X125222005Y-121031000D01*
X125222000Y-121030999D01*
X125076198Y-121060002D01*
X124952592Y-121142592D01*
X122031592Y-124063592D01*
X121949002Y-124187197D01*
X121949002Y-124187198D01*
X121920000Y-124333000D01*
X121920000Y-140165603D01*
X117665593Y-144420009D01*
X117665599Y-144412820D01*
X117578776Y-144202694D01*
X117418151Y-144041789D01*
X117208177Y-143954600D01*
X117061287Y-143954471D01*
X116840000Y-143733184D01*
X116840000Y-129951816D01*
X118204344Y-128587471D01*
X118350180Y-128587599D01*
X118560306Y-128500776D01*
X118721211Y-128340151D01*
X118808400Y-128130177D01*
X118808599Y-127902820D01*
X118721776Y-127692694D01*
X118561151Y-127531789D01*
X118351177Y-127444600D01*
X118123820Y-127444401D01*
X117913694Y-127531224D01*
X117752789Y-127691849D01*
X117665600Y-127901823D01*
X117665471Y-128048713D01*
X116189592Y-129524592D01*
X116107002Y-129648197D01*
X116103262Y-129667000D01*
X116078000Y-129794000D01*
X116078000Y-143891000D01*
X116107002Y-144036803D01*
X116189592Y-144160408D01*
X116522529Y-144493344D01*
X116522401Y-144639180D01*
X116609224Y-144849306D01*
X116769849Y-145010211D01*
X116979823Y-145097400D01*
X116988195Y-145097407D01*
X116797602Y-145288000D01*
X114808000Y-145288000D01*
X114662197Y-145317002D01*
X114538592Y-145399592D01*
X112681655Y-147256529D01*
X112535820Y-147256401D01*
X112325694Y-147343224D01*
X112164789Y-147503849D01*
X112077600Y-147713823D01*
X112077401Y-147941180D01*
X108140512Y-147941180D01*
X108140599Y-147841820D01*
X108053776Y-147631694D01*
X107893151Y-147470789D01*
X107683177Y-147383600D01*
X107536287Y-147383471D01*
X107376831Y-147224015D01*
X107454823Y-147256400D01*
X107682180Y-147256599D01*
X107892306Y-147169776D01*
X108053211Y-147009151D01*
X108140400Y-146799177D01*
X108140599Y-146571820D01*
X108053776Y-146361694D01*
X107893151Y-146200789D01*
X107683177Y-146113600D01*
X107536287Y-146113471D01*
X107376829Y-145954014D01*
X107454823Y-145986400D01*
X107682180Y-145986599D01*
X107892306Y-145899776D01*
X108053211Y-145739151D01*
X108140400Y-145529177D01*
X108140599Y-145301820D01*
X108053776Y-145091694D01*
X107893151Y-144930789D01*
X107683177Y-144843600D01*
X107536287Y-144843471D01*
X104902000Y-142209184D01*
X104902000Y-132991274D01*
X104902685Y-132990816D01*
X105136496Y-132640893D01*
X105218600Y-132228131D01*
X105218600Y-132185869D01*
X105601400Y-132185869D01*
X105601400Y-132228131D01*
X105683504Y-132640893D01*
X105917315Y-132990816D01*
X106267238Y-133224627D01*
X106375200Y-133246102D01*
X106375200Y-138176000D01*
X106398402Y-138292642D01*
X106464474Y-138391526D01*
X109893474Y-141820526D01*
X109992358Y-141886598D01*
X110109000Y-141909800D01*
X111267577Y-141909800D01*
X111275224Y-141928306D01*
X111435849Y-142089211D01*
X111645823Y-142176400D01*
X111873180Y-142176599D01*
X112083306Y-142089776D01*
X112090200Y-142082894D01*
X112090200Y-143129000D01*
X112113402Y-143245642D01*
X112179474Y-143344526D01*
X112212279Y-143377331D01*
X112204600Y-143395823D01*
X112204401Y-143623180D01*
X112291224Y-143833306D01*
X112451849Y-143994211D01*
X112661823Y-144081400D01*
X112889180Y-144081599D01*
X113099306Y-143994776D01*
X113260211Y-143834151D01*
X113347400Y-143624177D01*
X113347599Y-143396820D01*
X113260776Y-143186694D01*
X113100151Y-143025789D01*
X112890177Y-142938600D01*
X112699800Y-142938433D01*
X112699800Y-141224000D01*
X112676598Y-141107358D01*
X112610526Y-141008474D01*
X109524800Y-137922748D01*
X109524800Y-133246102D01*
X109632762Y-133224627D01*
X109982685Y-132990816D01*
X110216496Y-132640893D01*
X110298600Y-132228131D01*
X110298600Y-132185869D01*
X110681400Y-132185869D01*
X110681400Y-132228131D01*
X110763504Y-132640893D01*
X110997315Y-132990816D01*
X111347238Y-133224627D01*
X111760000Y-133306731D01*
X112172762Y-133224627D01*
X112522685Y-132990816D01*
X112756496Y-132640893D01*
X112763587Y-132605241D01*
X112922185Y-132605241D01*
X113179465Y-133102194D01*
X113607337Y-133462862D01*
X113901761Y-133584801D01*
X114122200Y-133482820D01*
X114122200Y-132384800D01*
X114477800Y-132384800D01*
X114477800Y-133482820D01*
X114698239Y-133584801D01*
X114992663Y-133462862D01*
X115420535Y-133102194D01*
X115677815Y-132605241D01*
X115577100Y-132384800D01*
X114477800Y-132384800D01*
X114122200Y-132384800D01*
X113022900Y-132384800D01*
X112922185Y-132605241D01*
X112763587Y-132605241D01*
X112838600Y-132228131D01*
X112838600Y-132185869D01*
X112763588Y-131808759D01*
X112922185Y-131808759D01*
X113022900Y-132029200D01*
X114122200Y-132029200D01*
X114122200Y-130931180D01*
X114477800Y-130931180D01*
X114477800Y-132029200D01*
X115577100Y-132029200D01*
X115677815Y-131808759D01*
X115420535Y-131311806D01*
X114992663Y-130951138D01*
X114698239Y-130829199D01*
X114477800Y-130931180D01*
X114122200Y-130931180D01*
X113901761Y-130829199D01*
X113607337Y-130951138D01*
X113179465Y-131311806D01*
X112922185Y-131808759D01*
X112763588Y-131808759D01*
X112756496Y-131773107D01*
X112522685Y-131423184D01*
X112172762Y-131189373D01*
X111760000Y-131107269D01*
X111347238Y-131189373D01*
X110997315Y-131423184D01*
X110763504Y-131773107D01*
X110681400Y-132185869D01*
X110298600Y-132185869D01*
X110216496Y-131773107D01*
X109982685Y-131423184D01*
X109632762Y-131189373D01*
X109220000Y-131107269D01*
X108807238Y-131189373D01*
X108457315Y-131423184D01*
X108223504Y-131773107D01*
X108141400Y-132185869D01*
X108141400Y-132228131D01*
X108223504Y-132640893D01*
X108457315Y-132990816D01*
X108807238Y-133224627D01*
X108915200Y-133246102D01*
X108915200Y-138049000D01*
X108938402Y-138165642D01*
X109004474Y-138264526D01*
X111773460Y-141033512D01*
X111646820Y-141033401D01*
X111436694Y-141120224D01*
X111275789Y-141280849D01*
X111267754Y-141300200D01*
X110235252Y-141300200D01*
X106984800Y-138049748D01*
X106984800Y-133246102D01*
X107092762Y-133224627D01*
X107442685Y-132990816D01*
X107676496Y-132640893D01*
X107758600Y-132228131D01*
X107758600Y-132185869D01*
X107676496Y-131773107D01*
X107442685Y-131423184D01*
X107092762Y-131189373D01*
X106680000Y-131107269D01*
X106267238Y-131189373D01*
X105917315Y-131423184D01*
X105683504Y-131773107D01*
X105601400Y-132185869D01*
X105218600Y-132185869D01*
X105136496Y-131773107D01*
X104902685Y-131423184D01*
X104552762Y-131189373D01*
X104140000Y-131107269D01*
X103727238Y-131189373D01*
X103377315Y-131423184D01*
X103143504Y-131773107D01*
X103061400Y-132185869D01*
X103061400Y-132228131D01*
X103143504Y-132640893D01*
X103377315Y-132990816D01*
X103727238Y-133224627D01*
X104140000Y-133306731D01*
X104140000Y-133827184D01*
X102655762Y-132342946D01*
X102678600Y-132228131D01*
X102678600Y-132185869D01*
X102596496Y-131773107D01*
X102362685Y-131423184D01*
X102012762Y-131189373D01*
X101600000Y-131107269D01*
X101187238Y-131189373D01*
X100837315Y-131423184D01*
X100603504Y-131773107D01*
X100521400Y-132185869D01*
X100521400Y-132228131D01*
X100603504Y-132640893D01*
X100837315Y-132990816D01*
X101187238Y-133224627D01*
X101600000Y-133306731D01*
X102012762Y-133224627D01*
X102280748Y-133045564D01*
X103632000Y-134396816D01*
X103632000Y-135859184D01*
X100115762Y-132342946D01*
X100138600Y-132228131D01*
X100138600Y-132185869D01*
X100056496Y-131773107D01*
X99822685Y-131423184D01*
X99472762Y-131189373D01*
X99060000Y-131107269D01*
X98647238Y-131189373D01*
X98297315Y-131423184D01*
X98063504Y-131773107D01*
X97981400Y-132185869D01*
X97603078Y-132185869D01*
X97603078Y-131357000D01*
X97587138Y-131272286D01*
X97537072Y-131194482D01*
X97460680Y-131142285D01*
X97370000Y-131123922D01*
X95670000Y-131123922D01*
X95585286Y-131139862D01*
X95507482Y-131189928D01*
X95455285Y-131266320D01*
X95436922Y-131357000D01*
X93013600Y-131357000D01*
X93013600Y-120953600D01*
X143608400Y-120953600D01*
X143608400Y-129540000D01*
M02*
